<svg id="Layer_1" data-name="Layer 1" xmlns="http://www.w3.org/2000/svg" xmlns:xlink="http://www.w3.org/1999/xlink" viewBox="0 0 612 612"><defs><style>.cls-1,.cls-2,.cls-3{stroke:#232323;stroke-miterlimit:10;stroke-width:1.31px;}.cls-1{fill:url(#linear-gradient);}.cls-2{fill:url(#linear-gradient-2);}.cls-3{fill:url(#linear-gradient-3);}</style><linearGradient id="linear-gradient" x1="306" y1="32.33" x2="306" y2="72.86" gradientUnits="userSpaceOnUse"><stop offset="0" stop-color="#fafafa"/><stop offset="1" stop-color="#ebebeb"/></linearGradient><linearGradient id="linear-gradient-2" x1="394.6" y1="136.22" x2="394.6" y2="475.78" xlink:href="#linear-gradient"/><linearGradient id="linear-gradient-3" x1="217.37" y1="136.22" x2="217.37" y2="579.67" xlink:href="#linear-gradient"/></defs><path id="AlignTop" class="cls-1" d="M559.16,32.33H52.83a20.27,20.27,0,0,0,0,40.53H559.16a20.27,20.27,0,0,0,0-40.53Z"/><path class="cls-2" d="M459.16,156.49v299a20.28,20.28,0,0,1-20.26,20.27H350.29A20.27,20.27,0,0,1,330,455.51v-299a20.27,20.27,0,0,1,20.25-20.27H438.9A20.27,20.27,0,0,1,459.16,156.49Z"/><path class="cls-3" d="M281.93,156.49v402.9a20.27,20.27,0,0,1-20.24,20.28H173.07a20.27,20.27,0,0,1-20.25-20.28V156.49a20.27,20.27,0,0,1,20.25-20.27h88.62A20.25,20.25,0,0,1,281.93,156.49Z"/></svg>