<?xml version="1.0" encoding="iso-8859-1"?>
<!-- Generator: Adobe Illustrator 21.1.0, SVG Export Plug-In . SVG Version: 6.00 Build 0)  -->
<svg version="1.1" xmlns="http://www.w3.org/2000/svg" xmlns:xlink="http://www.w3.org/1999/xlink" x="0px" y="0px"
	 viewBox="0 0 50 50" style="enable-background:new 0 0 50 50;" xml:space="preserve">
<g id="AlignTop">
	<path style="fill:#E1EFFF;" d="M25,50C11.215,50,0,38.785,0,25C0,11.215,11.215,0,25,0c13.785,0,25,11.215,25,25
		C50,38.785,38.785,50,25,50z"/>
	<path style="fill:#1C1E21;" d="M36.905,14.048h-23.81c-0.526,0-0.952-0.426-0.952-0.952c0-0.526,0.426-0.952,0.952-0.952h23.81
		c0.526,0,0.952,0.426,0.952,0.952C37.857,13.621,37.431,14.048,36.905,14.048z"/>
	<path style="fill:#1C1E21;" d="M22.917,37.857H18.75c-0.526,0-0.952-0.426-0.952-0.952V17.976c0-0.526,0.426-0.952,0.952-0.952
		h4.167c0.526,0,0.952,0.426,0.952,0.952v18.929C23.869,37.431,23.443,37.857,22.917,37.857z M19.702,35.952h2.262V18.929h-2.262
		V35.952z"/>
	<path style="fill:#1C1E21;" d="M31.25,32.976h-4.167c-0.526,0-0.952-0.426-0.952-0.952V17.976c0-0.526,0.426-0.952,0.952-0.952
		h4.167c0.526,0,0.952,0.426,0.952,0.952v14.048C32.202,32.55,31.776,32.976,31.25,32.976z M28.036,31.071h2.262V18.929h-2.262
		V31.071z"/>
</g>
<g id="Layer_1">
</g>
</svg>
