<?xml version="1.0" encoding="iso-8859-1"?>
<!-- Generator: Adobe Illustrator 21.1.0, SVG Export Plug-In . SVG Version: 6.00 Build 0)  -->
<svg version="1.1" xmlns="http://www.w3.org/2000/svg" xmlns:xlink="http://www.w3.org/1999/xlink" x="0px" y="0px"
	 viewBox="0 0 50 50" style="enable-background:new 0 0 50 50;" xml:space="preserve">
<g id="Arrow">
	<path style="fill:#E1EFFF;" d="M25,50C11.215,50,0,38.785,0,25C0,11.215,11.215,0,25,0c13.785,0,25,11.215,25,25
		C50,38.785,38.785,50,25,50z"/>
	<path style="fill:#1C1E21;" d="M13.095,22.817c-0.526,0-0.952-0.426-0.952-0.952v-8.77c0-0.526,0.426-0.952,0.952-0.952h8.77
		c0.526,0,0.952,0.426,0.952,0.952c0,0.526-0.426,0.952-0.952,0.952h-7.817v7.817C14.048,22.391,13.621,22.817,13.095,22.817z"/>
	<path style="fill:#1C1E21;" d="M36.905,37.857c-0.244,0-0.487-0.093-0.673-0.279l-23.81-23.81c-0.372-0.372-0.372-0.975,0-1.347
		c0.372-0.372,0.975-0.372,1.347,0l23.81,23.81c0.372,0.372,0.372,0.975,0,1.347C37.392,37.764,37.148,37.857,36.905,37.857z"/>
</g>
<g id="Layer_1">
</g>
</svg>
