<svg id="Layer_1" data-name="Layer 1" xmlns="http://www.w3.org/2000/svg" xmlns:xlink="http://www.w3.org/1999/xlink" viewBox="0 0 612 612"><defs><style>.cls-1,.cls-2,.cls-3,.cls-4{stroke:#232323;stroke-miterlimit:10;stroke-width:1.31px;}.cls-1{fill:url(#linear-gradient);}.cls-2{fill:url(#linear-gradient-2);}.cls-3{fill:url(#linear-gradient-3);}.cls-4{fill:url(#linear-gradient-4);}</style><linearGradient id="linear-gradient" x1="485.02" y1="455.41" x2="485.02" y2="491.21" gradientUnits="userSpaceOnUse"><stop offset="0" stop-color="#fafafa"/><stop offset="1" stop-color="#ebebeb"/></linearGradient><linearGradient id="linear-gradient-2" x1="504.49" y1="366.64" x2="504.49" y2="402.44" xlink:href="#linear-gradient"/><linearGradient id="linear-gradient-3" x1="522.73" y1="280.04" x2="522.73" y2="315.84" xlink:href="#linear-gradient"/><linearGradient id="linear-gradient-4" x1="200.56" y1="111.71" x2="200.56" y2="500.29" xlink:href="#linear-gradient"/></defs><rect class="cls-1" x="388.74" y="455.41" width="192.55" height="35.81" rx="17.9"/><rect class="cls-2" x="427.68" y="366.64" width="153.61" height="35.81" rx="17.9"/><rect class="cls-3" x="464.16" y="280.04" width="117.13" height="35.81" rx="17.9"/><path class="cls-4" d="M133.17,125.14a24.26,24.26,0,0,1,21.71-13.43h91.37A24.27,24.27,0,0,1,268,125.14L273.42,136h72.86a24.29,24.29,0,0,1,0,48.57H54.85a24.29,24.29,0,1,1,0-48.57h72.86Zm197,340.31c-1.22,19.88-17.08,34.84-36.35,34.84H107.29c-19.24,0-35.16-15-36.36-34.84L54.17,208.86H346.28Z"/></svg>