<?xml version="1.0" encoding="iso-8859-1"?>
<!-- Generator: Adobe Illustrator 21.1.0, SVG Export Plug-In . SVG Version: 6.00 Build 0)  -->
<svg version="1.1" xmlns="http://www.w3.org/2000/svg" xmlns:xlink="http://www.w3.org/1999/xlink" x="0px" y="0px"
	 viewBox="0 0 50 50" style="enable-background:new 0 0 50 50;" xml:space="preserve">
<g id="Comment">
	<path style="fill:#E1EFFF;" d="M25,50C11.215,50,0,38.785,0,25C0,11.215,11.215,0,25,0c13.785,0,25,11.215,25,25
		C50,38.785,38.785,50,25,50z"/>
	<path style="fill:#1C1E21;" d="M17.358,31.239c-0.13,0-0.262-0.027-0.386-0.082c-0.343-0.152-0.565-0.492-0.566-0.867l-0.013-3.469
		h-3.297c-0.526,0-0.952-0.426-0.952-0.952V13.129c0-0.526,0.426-0.952,0.952-0.952h18.823c0.526,0,0.952,0.426,0.952,0.952V25.87
		c0,0.526-0.426,0.952-0.952,0.952h-9.278l-4.646,4.174C17.816,31.156,17.589,31.239,17.358,31.239z M14.048,24.917h3.294
		c0.525,0,0.95,0.424,0.952,0.949l0.009,2.293l3.337-2.997c0.175-0.157,0.401-0.244,0.636-0.244h8.69V14.081H14.048V24.917z"/>
	<path style="fill:#1C1E21;" d="M32.642,37.857c-0.231,0-0.458-0.084-0.637-0.244l-4.646-4.174h-8.325
		c-0.526,0-0.952-0.426-0.952-0.952c0-0.526,0.426-0.952,0.952-0.952h8.69c0.235,0,0.462,0.087,0.637,0.244l3.337,2.998l0.009-2.293
		c0.002-0.525,0.428-0.949,0.952-0.949h3.294V20.699h-1.151c-0.526,0-0.952-0.426-0.952-0.952c0-0.526,0.426-0.952,0.952-0.952
		h2.103c0.526,0,0.952,0.426,0.952,0.952v12.741c0,0.526-0.426,0.952-0.952,0.952h-3.298l-0.013,3.469
		c-0.001,0.375-0.223,0.715-0.566,0.867C32.904,37.83,32.773,37.857,32.642,37.857z"/>
	<path style="fill:#1C1E21;" d="M27.827,22.695H17.187c-0.526,0-0.952-0.426-0.952-0.952c0-0.526,0.426-0.952,0.952-0.952h10.641
		c0.526,0,0.952,0.426,0.952,0.952C28.78,22.269,28.353,22.695,27.827,22.695z"/>
	<path style="fill:#1C1E21;" d="M25.595,18.175h-8.409c-0.526,0-0.952-0.426-0.952-0.952c0-0.526,0.426-0.952,0.952-0.952h8.409
		c0.526,0,0.952,0.426,0.952,0.952C26.548,17.748,26.121,18.175,25.595,18.175z"/>
</g>
<g id="Layer_1">
</g>
</svg>
