<?xml version="1.0" encoding="iso-8859-1"?>
<!-- Generator: Adobe Illustrator 21.1.0, SVG Export Plug-In . SVG Version: 6.00 Build 0)  -->
<svg version="1.1" xmlns="http://www.w3.org/2000/svg" xmlns:xlink="http://www.w3.org/1999/xlink" x="0px" y="0px"
	 viewBox="0 0 50 50" style="enable-background:new 0 0 50 50;" xml:space="preserve">
<g id="Create3D">
	<path style="fill:#E1EFFF;" d="M25,50C11.215,50,0,38.785,0,25C0,11.215,11.215,0,25,0c13.785,0,25,11.215,25,25
		C50,38.785,38.785,50,25,50z"/>
	<path style="fill:#1C1E21;" d="M13.095,32.619c-0.526,0-0.952-0.426-0.952-0.952c0-0.437,0.12-0.864,0.357-1.27
		c0.265-0.454,0.848-0.608,1.302-0.343c0.455,0.265,0.608,0.848,0.343,1.302c-0.066,0.113-0.098,0.215-0.098,0.312
		C14.048,32.193,13.621,32.619,13.095,32.619z M36.76,31.984c-0.359,0-0.703-0.204-0.864-0.552
		c-0.058-0.126-0.158-0.259-0.297-0.398c-0.372-0.372-0.373-0.975-0.001-1.347c0.371-0.372,0.974-0.373,1.347-0.001
		c0.298,0.298,0.526,0.616,0.679,0.945c0.221,0.478,0.014,1.044-0.463,1.265C37.03,31.956,36.894,31.984,36.76,31.984z
		 M16.031,29.958c-0.381,0-0.741-0.231-0.888-0.608c-0.19-0.49,0.052-1.042,0.543-1.233c0.266-0.104,0.547-0.203,0.841-0.298
		c0.501-0.16,1.037,0.113,1.199,0.613c0.162,0.5-0.113,1.037-0.613,1.199c-0.258,0.083-0.504,0.17-0.738,0.261
		C16.262,29.937,16.145,29.958,16.031,29.958z M33.349,29.734c-0.1,0-0.201-0.016-0.301-0.049c-0.241-0.08-0.494-0.158-0.757-0.231
		c-0.506-0.141-0.802-0.667-0.66-1.174c0.141-0.506,0.665-0.804,1.174-0.66c0.293,0.082,0.575,0.168,0.845,0.258
		c0.499,0.166,0.769,0.705,0.603,1.204C34.12,29.481,33.748,29.734,33.349,29.734z M20.081,28.932c-0.462,0-0.868-0.337-0.94-0.807
		c-0.08-0.519,0.276-1.006,0.796-1.086c0.28-0.043,0.566-0.083,0.858-0.119c0.522-0.066,0.998,0.306,1.062,0.828
		c0.065,0.522-0.306,0.997-0.828,1.062c-0.272,0.034-0.539,0.071-0.801,0.112C20.178,28.929,20.129,28.932,20.081,28.932z
		 M29.266,28.839c-0.041,0-0.083-0.003-0.126-0.008c-0.264-0.035-0.532-0.066-0.805-0.094c-0.524-0.053-0.904-0.521-0.851-1.044
		s0.52-0.911,1.044-0.851c0.291,0.03,0.578,0.063,0.859,0.1c0.521,0.069,0.889,0.547,0.82,1.069
		C30.146,28.49,29.736,28.839,29.266,28.839z M24.251,28.579c-0.517,0-0.941-0.413-0.952-0.933
		c-0.011-0.526,0.407-0.961,0.932-0.972c0.254-0.005,0.51-0.008,0.768-0.008h0.089c0.526,0,0.952,0.426,0.952,0.952
		c0,0.526-0.426,0.952-0.952,0.952H25c-0.245,0-0.488,0.003-0.729,0.008C24.264,28.579,24.258,28.579,24.251,28.579z"/>
	<path style="fill:#1C1E21;" d="M25,24.524c-7.33,0-12.857-2.661-12.857-6.19s5.527-6.19,12.857-6.19s12.857,2.661,12.857,6.19
		S32.33,24.524,25,24.524z M25,14.048c-6.454,0-10.952,2.259-10.952,4.286S18.546,22.619,25,22.619
		c6.455,0,10.952-2.259,10.952-4.286S31.455,14.048,25,14.048z"/>
	<path style="fill:#1C1E21;" d="M25,37.857c-7.33,0-12.857-2.661-12.857-6.19V18.333c0-0.526,0.426-0.952,0.952-0.952
		c0.526,0,0.952,0.426,0.952,0.952v13.333c0,2.027,4.498,4.286,10.952,4.286c6.455,0,10.952-2.259,10.952-4.286V18.333
		c0-0.526,0.426-0.952,0.952-0.952s0.952,0.426,0.952,0.952v13.333C37.857,35.196,32.33,37.857,25,37.857z"/>
</g>
<g id="Layer_1">
</g>
</svg>
