<?xml version="1.0" encoding="iso-8859-1"?>
<!-- Generator: Adobe Illustrator 21.1.0, SVG Export Plug-In . SVG Version: 6.00 Build 0)  -->
<svg version="1.1" xmlns="http://www.w3.org/2000/svg" xmlns:xlink="http://www.w3.org/1999/xlink" x="0px" y="0px"
	 viewBox="0 0 50 50" style="enable-background:new 0 0 50 50;" xml:space="preserve">
<g id="CrossHair">
	<path style="fill:#E1EFFF;" d="M25,50C11.215,50,0,38.785,0,25C0,11.215,11.215,0,25,0c13.785,0,25,11.215,25,25
		C50,38.785,38.785,50,25,50z"/>
	<path style="fill:#1C1E21;" d="M19.524,25.952h-6.429c-0.526,0-0.952-0.426-0.952-0.952s0.426-0.952,0.952-0.952h6.429
		c0.526,0,0.952,0.426,0.952,0.952S20.05,25.952,19.524,25.952z"/>
	<path style="fill:#1C1E21;" d="M36.905,25.952h-6.429c-0.526,0-0.952-0.426-0.952-0.952s0.426-0.952,0.952-0.952h6.429
		c0.526,0,0.952,0.426,0.952,0.952S37.431,25.952,36.905,25.952z"/>
	<path style="fill:#1C1E21;" d="M25,20.476c-0.526,0-0.952-0.426-0.952-0.952v-6.429c0-0.526,0.426-0.952,0.952-0.952
		s0.952,0.426,0.952,0.952v6.429C25.952,20.05,25.526,20.476,25,20.476z"/>
	<path style="fill:#1C1E21;" d="M25,37.857c-0.526,0-0.952-0.426-0.952-0.952v-6.429c0-0.526,0.426-0.952,0.952-0.952
		s0.952,0.426,0.952,0.952v6.429C25.952,37.431,25.526,37.857,25,37.857z"/>
	<circle style="fill:#1C1E21;" cx="25" cy="25" r="1.235"/>
	<path style="fill:#1C1E21;" d="M25,34.643c-5.317,0-9.643-4.326-9.643-9.643s4.326-9.643,9.643-9.643s9.643,4.326,9.643,9.643
		S30.317,34.643,25,34.643z M25,17.262c-4.267,0-7.738,3.471-7.738,7.738c0,4.267,3.471,7.738,7.738,7.738
		c4.267,0,7.738-3.471,7.738-7.738C32.738,20.733,29.267,17.262,25,17.262z"/>
</g>
<g id="Layer_1">
</g>
</svg>
