<svg id="Layer_1" data-name="Layer 1" xmlns="http://www.w3.org/2000/svg" xmlns:xlink="http://www.w3.org/1999/xlink" viewBox="0 0 612 612"><defs><style>.cls-1{stroke:#232323;stroke-miterlimit:10;stroke-width:1.31px;fill:url(#linear-gradient);}</style><linearGradient id="linear-gradient" x1="306" y1="33.19" x2="306" y2="578.81" gradientUnits="userSpaceOnUse"><stop offset="0" stop-color="#fafafa"/><stop offset="1" stop-color="#ebebeb"/></linearGradient></defs><path id="CustomLayout" class="cls-1" d="M258.1,33.19H53.88A20.2,20.2,0,0,0,33.71,53.4V308.53a20.19,20.19,0,0,0,20.17,20.2H258.1a20.2,20.2,0,0,0,20.17-20.2V53.4A20.2,20.2,0,0,0,258.1,33.19ZM237.93,288.32H74.05V73.61H237.93V288.32Zm20.17,96H53.88a20.19,20.19,0,0,0-20.17,20.21V558.6a20.19,20.19,0,0,0,20.17,20.21H258.1a20.2,20.2,0,0,0,20.17-20.21V404.52A20.2,20.2,0,0,0,258.1,384.31ZM237.93,538.39H74.05V424.72H237.93V538.39Zm320.2-505.2H353.91A20.21,20.21,0,0,0,333.73,53.4V207.49a20.2,20.2,0,0,0,20.18,20.2H558.13a20.19,20.19,0,0,0,20.16-20.2V53.4A20.2,20.2,0,0,0,558.13,33.19ZM538,187.28H374.07V73.61H538Zm20.18,96H353.91a20.2,20.2,0,0,0-20.18,20.2V558.6a20.2,20.2,0,0,0,20.18,20.21H558.13a20.19,20.19,0,0,0,20.16-20.21V303.47A20.19,20.19,0,0,0,558.13,283.27ZM538,538.39H374.07V323.68H538Z"/></svg>