<svg xmlns="http://www.w3.org/2000/svg" viewBox="0 0 50 50"><defs><style>.cls-1{fill:#e1efff;}.cls-2{fill:#1c1e21;}</style></defs><g id="Layer_2" data-name="Layer 2"><g id="Layer_151" data-name="Layer 151"><g id="cutLine"><path class="cls-1" d="M25,50A25,25,0,1,1,50,25,25,25,0,0,1,25,50Z"/><path class="cls-2" d="M34,30.09a3.88,3.88,0,0,0-2.15.64L26.09,25l5.73-5.73a3.86,3.86,0,1,0-1.09-1.09L25,23.91l-5.73-5.73a3.86,3.86,0,1,0-1.09,1.09L23.91,25l-5.73,5.73a3.86,3.86,0,1,0,1.09,1.09L25,26.09l5.73,5.73A3.89,3.89,0,1,0,34,30.09Z"/></g></g></g></svg>