<svg id="Layer_1" data-name="Layer 1" xmlns="http://www.w3.org/2000/svg" xmlns:xlink="http://www.w3.org/1999/xlink" viewBox="0 0 612 612"><defs><style>.cls-1,.cls-2{stroke:#232323;stroke-miterlimit:10;stroke-width:1.31px;}.cls-1{opacity:0.6;isolation:isolate;fill:url(#linear-gradient);}.cls-2{fill:url(#linear-gradient-2);}</style><linearGradient id="linear-gradient" x1="172.48" y1="32.26" x2="172.48" y2="312.57" gradientUnits="userSpaceOnUse"><stop offset="0" stop-color="#fafafa"/><stop offset="1" stop-color="#ebebeb"/></linearGradient><linearGradient id="linear-gradient-2" x1="381.09" y1="182.51" x2="381.09" y2="579.74" xlink:href="#linear-gradient"/></defs><path class="cls-1" d="M298.42,32.26H46.52A14.15,14.15,0,0,0,32.37,46.4v252a14.16,14.16,0,0,0,14.15,14.15H196.78a14.15,14.15,0,0,0,0-28.3h-27V189.21a14.15,14.15,0,0,0-14.14-14.15h-95V60.54H284.29V196.72a14.15,14.15,0,1,0,28.29,0V46.4A14.17,14.17,0,0,0,298.42,32.26ZM141.54,203.37v80.92H60.66V203.37Z"/><path class="cls-2" d="M381.09,182.51c-109.48,0-198.54,89.11-198.54,198.63s89.06,198.6,198.54,198.6,198.54-89.1,198.54-198.6S490.56,182.51,381.09,182.51Zm0,348.72c-82.74,0-150-67.35-150-150.09S298.36,231,381.09,231s150,67.34,150,150.11S463.82,531.23,381.09,531.23Zm77.76-227.91a24.21,24.21,0,0,0-34.29,0l-43.47,43.49-43.48-43.49a24.25,24.25,0,0,0-34.29,34.3l43.48,43.5-43.48,43.49a24.25,24.25,0,1,0,34.29,34.3l43.48-43.49,43.47,43.49a24.25,24.25,0,0,0,34.29-34.3l-43.47-43.49,43.47-43.5A24.24,24.24,0,0,0,458.85,303.32Z"/></svg>