<svg id="Layer_1" data-name="Layer 1" xmlns="http://www.w3.org/2000/svg" xmlns:xlink="http://www.w3.org/1999/xlink" viewBox="0 0 612 612"><defs><style>.cls-1,.cls-2,.cls-3{stroke:#232323;stroke-miterlimit:10;stroke-width:1.31px;}.cls-1{fill:url(#linear-gradient);}.cls-2{fill:url(#linear-gradient-2);}.cls-3{fill:url(#linear-gradient-3);}</style><linearGradient id="linear-gradient" x1="384.02" y1="42.43" x2="384.02" y2="171.8" gradientUnits="userSpaceOnUse"><stop offset="0" stop-color="#fafafa"/><stop offset="1" stop-color="#ebebeb"/></linearGradient><linearGradient id="linear-gradient-2" x1="400.32" y1="197.6" x2="400.32" y2="569.57" xlink:href="#linear-gradient"/><linearGradient id="linear-gradient-3" x1="191.28" y1="126.07" x2="191.28" y2="337.2" xlink:href="#linear-gradient"/></defs><path class="cls-1" d="M352.8,54.93c6.81-9.34,17.88-13.9,28.54-11.77L404,47.29c10.66,2.13,19.13,10.58,21.83,21.83L429.48,84l129.68,26.5c15.59,3.11,25.46,19.24,22.11,36S562.61,174.39,547,171.28L208.87,103.74c-15.56-3.1-25.46-19.24-22.1-36S205.46,39.84,221,43L343.74,67.26Z"/><path class="cls-2" d="M563.61,197.6H379.83l-.56.66-85.6,100.8a7.42,7.42,0,0,1-2.72,2l0,0-48.08,56.62a7.51,7.51,0,0,1-13-3.27L223.07,326l-4.37.65,13,198.5c1.53,25.38,21.85,44.46,46.41,44.46h238.1c24.6,0,44.85-19.08,46.4-44.46l19.31-308A18.3,18.3,0,0,0,563.61,197.6ZM324.92,508a16,16,0,0,1-18-13.53L290.61,378.13a16,16,0,0,1,13.54-17.95,16.49,16.49,0,0,1,2.2-.15,16,16,0,0,1,15.75,13.69L338.46,490A16,16,0,0,1,324.92,508Zm87.56-15.17a16,16,0,0,1-14.63,15.85c-9.42.75-17.16-6.92-17.16-16.37V307.41c0-8.8,6.93-16.3,15.72-16.4a15.95,15.95,0,0,1,16.07,15.91Zm88.36-117.56L483.37,499.64a13.36,13.36,0,0,1-15,11.33l-5.11-.72a13.36,13.36,0,0,1-11.34-15l17.48-124.38a13.35,13.35,0,0,1,15.05-11.33l5.1.71A13.35,13.35,0,0,1,500.84,375.26Z"/><path class="cls-3" d="M350.52,197.43l-11.46,13.5-85.59,100.8a7.51,7.51,0,0,1-13-3.28l-12.33-52.13c-4.94-1.76-10.87-2.34-17.55-2-54.87,2.94-160,69.7-177.76,81.19-1.68,1.08-2.57,1.67-2.57,1.67C50.2,210,164.34,182.81,198.87,177.47c6.27-1,9.91-1.23,9.91-1.23l5.71,22.49-10.67-45.11-4.3-18.17a7.52,7.52,0,0,1,10.18-8.77l138,58.71A7.71,7.71,0,0,1,350.52,197.43Z"/></svg>