<svg id="Layer_1" data-name="Layer 1" xmlns="http://www.w3.org/2000/svg" xmlns:xlink="http://www.w3.org/1999/xlink" viewBox="0 0 612 612"><defs><style>.cls-1,.cls-2,.cls-3,.cls-4,.cls-5{stroke:#232323;stroke-miterlimit:10;stroke-width:1.31px;}.cls-1{fill:url(#linear-gradient);}.cls-2{fill:url(#linear-gradient-2);}.cls-3{fill:url(#linear-gradient-3);}.cls-4{fill:url(#linear-gradient-4);}.cls-5{fill:url(#linear-gradient-5);}</style><linearGradient id="linear-gradient" x1="306" y1="534.35" x2="306" y2="575.26" gradientUnits="userSpaceOnUse"><stop offset="0" stop-color="#fafafa"/><stop offset="1" stop-color="#ebebeb"/></linearGradient><linearGradient id="linear-gradient-2" x1="439.36" y1="36.74" x2="439.36" y2="235.78" xlink:href="#linear-gradient"/><linearGradient id="linear-gradient-3" x1="178.45" y1="242.59" x2="178.45" y2="460.64" xlink:href="#linear-gradient"/><linearGradient id="linear-gradient-4" x1="283.34" y1="182.96" x2="283.34" y2="359.44" xlink:href="#linear-gradient"/><linearGradient id="linear-gradient-5" x1="341.05" y1="127.31" x2="341.05" y2="299.81" xlink:href="#linear-gradient"/></defs><path class="cls-1" d="M561.69,534.35H50.31a20.46,20.46,0,1,0,0,40.91H561.69a20.46,20.46,0,1,0,0-40.91Z"/><path class="cls-2" d="M515.61,118a9.37,9.37,0,0,1-.13,13.36L485,160.74l0,0-14.41,14.4-.16-.15-57.22,58a9.37,9.37,0,0,1-15.63-3.84L360.77,109.07a9.38,9.38,0,0,1,2.2-9.23l18.44-19.25.2.2,42.48-41.28h0l0,0h0a9.38,9.38,0,0,1,13.25,0Z"/><path class="cls-3" d="M220.25,242.59l-94.44,94.35a20.38,20.38,0,0,0-5.15,8.68L94.5,434.43a20.45,20.45,0,0,0,19.64,26.21,20.21,20.21,0,0,0,5.78-.84l89-26.13a20.43,20.43,0,0,0,8.69-5.15l45.65-45.59Zm-43,168.67H144.41V378.37h32.88Z"/><polygon class="cls-4" points="322.92 323.31 286.75 359.44 243.76 219.1 279.93 182.96 322.92 323.31"/><polygon class="cls-5" points="378.64 267.66 346.44 299.81 303.46 159.46 335.65 127.31 378.64 267.66"/></svg>