<?xml version="1.0" encoding="iso-8859-1"?>
<!-- Generator: Adobe Illustrator 21.1.0, SVG Export Plug-In . SVG Version: 6.00 Build 0)  -->
<svg version="1.1" xmlns="http://www.w3.org/2000/svg" xmlns:xlink="http://www.w3.org/1999/xlink" x="0px" y="0px"
	 viewBox="0 0 50 50" style="enable-background:new 0 0 50 50;" xml:space="preserve">
<g id="Highlight">
	<path style="fill:#E1EFFF;" d="M25,50C11.215,50,0,38.785,0,25C0,11.215,11.215,0,25,0c13.785,0,25,11.215,25,25
		C50,38.785,38.785,50,25,50z"/>
	<path style="fill:#1C1E21;" d="M22.796,35.369c-0.252,0-0.495-0.1-0.673-0.279l-6.149-6.149c-0.18-0.18-0.28-0.423-0.279-0.677
		c0.001-0.254,0.103-0.497,0.284-0.675l14.844-14.614c1.218-1.119,3.05-1.08,4.195,0.066l1.956,1.957
		c1.146,1.146,1.185,2.978,0.09,4.17L23.521,35.035c-0.172,0.202-0.421,0.323-0.687,0.333
		C22.821,35.369,22.809,35.369,22.796,35.369z M17.999,28.273l4.741,4.742l12.897-15.11c0.426-0.465,0.411-1.139-0.011-1.561
		l-1.956-1.957c-0.422-0.422-1.096-0.436-1.536-0.033L17.999,28.273z"/>
	<path style="fill:#1C1E21;" d="M16.647,28.268c0,0,0.859,3.684-1.424,5.966l1.607,1.607c2.283-2.282,5.966-1.424,5.966-1.424
		L16.647,28.268z"/>
	<path style="fill:#1C1E21;" d="M16.831,36.793c-0.244,0-0.488-0.093-0.674-0.279l-1.607-1.607
		c-0.179-0.179-0.279-0.421-0.279-0.673s0.1-0.495,0.279-0.673c1.887-1.887,1.177-5.045,1.17-5.076
		c-0.096-0.414,0.093-0.842,0.465-1.049c0.372-0.207,0.836-0.141,1.136,0.159l6.149,6.149c0.301,0.301,0.366,0.764,0.159,1.136
		c-0.206,0.372-0.635,0.561-1.049,0.465c-0.029-0.007-3.205-0.701-5.076,1.17C17.318,36.7,17.074,36.793,16.831,36.793z
		 M16.515,34.179l0.371,0.37c1.121-0.804,2.393-1.117,3.486-1.21l-2.646-2.646C17.632,31.786,17.319,33.057,16.515,34.179z"/>
	<polygon style="fill:#1C1E21;" points="15.224,34.234 13.095,36.362 15.767,36.905 16.831,35.841 	"/>
	<path style="fill:#1C1E21;" d="M15.767,37.857c-0.063,0-0.126-0.006-0.189-0.019l-2.671-0.543c-0.344-0.07-0.621-0.323-0.722-0.658
		c-0.101-0.336-0.01-0.7,0.239-0.948l2.128-2.128c0.179-0.179,0.421-0.279,0.673-0.279l0,0c0.253,0,0.495,0.1,0.674,0.279
		l1.607,1.607c0.372,0.372,0.372,0.975,0,1.347l-1.064,1.064C16.26,37.759,16.017,37.857,15.767,37.857z M15.022,35.782l0.432,0.088
		l0.029-0.029l-0.26-0.26L15.022,35.782z"/>
	<path style="fill:#1C1E21;" d="M36.89,37.857H15.767c-0.526,0-0.952-0.426-0.952-0.952s0.426-0.952,0.952-0.952H36.89
		c0.526,0,0.952,0.426,0.952,0.952S37.416,37.857,36.89,37.857z"/>
</g>
<g id="Layer_1">
</g>
</svg>
