<svg id="Layer_1" data-name="Layer 1" xmlns="http://www.w3.org/2000/svg" xmlns:xlink="http://www.w3.org/1999/xlink" viewBox="0 0 612 612"><defs><style>.cls-1,.cls-2{stroke:#232323;stroke-miterlimit:10;stroke-width:1.31px;}.cls-1{fill:url(#linear-gradient);}.cls-2{fill:url(#linear-gradient-2);}</style><linearGradient id="linear-gradient" x1="284.23" y1="62.28" x2="284.23" y2="549.72" gradientUnits="userSpaceOnUse"><stop offset="0" stop-color="#fafafa"/><stop offset="1" stop-color="#ebebeb"/></linearGradient><linearGradient id="linear-gradient-2" x1="402.44" y1="513.28" x2="402.44" y2="549.62" xlink:href="#linear-gradient"/></defs><path id="Highlight" class="cls-1" d="M522,116.41l-37.39-37.3c-21.89-21.85-56.91-22.59-80.2-1.25L120.65,356.53c-.16.16-.27.34-.42.5s-.42.52-.64.76a18.54,18.54,0,0,0-2.6,4c-.07.15-.16.27-.23.43a17.53,17.53,0,0,0-1.29,4.91,8,8,0,0,0-.11,1.1c0,.39-.14.77-.14,1.17a19.4,19.4,0,0,0,.46,4c0,.07,0,.13,0,.23.15.59,13.21,58.62-20.4,94.77l61.36,66.3c42-14,89.82-30.35,90.17-30.25h.22a18.25,18.25,0,0,0,3.91.46c.23,0,.48,0,.71,0s.44-.07.68-.08.71-.11,1.07-.15a18.23,18.23,0,0,0,4.35-1.15c.26-.11.51-.16.75-.27a18.86,18.86,0,0,0,4.22-2.74c.29-.26.57-.53.85-.8a10.87,10.87,0,0,0,1.2-1.15l258.9-302.59A57.26,57.26,0,0,0,522,116.41Zm-25.54,55.41L249.88,460l-8.74-8.73-81.88-81.7L429.48,104.14a21.19,21.19,0,0,1,29.35.61l37.38,37.31C504.29,150.1,504.56,163,496.42,171.82ZM34.88,519.09a18.14,18.14,0,0,0,9.27,30.63l53.77-.79c10.54,0,16.22-.23,25.81-3.36l2-.66L73.22,487.15Z"/><path class="cls-2" d="M582.45,531.46a18.2,18.2,0,0,1-18.21,18.16h-336l-.58,0-5.24,0,341.81-36.34A18.21,18.21,0,0,1,582.45,531.46Z"/></svg>