<svg id="Layer_1" data-name="Layer 1" xmlns="http://www.w3.org/2000/svg" xmlns:xlink="http://www.w3.org/1999/xlink" viewBox="0 0 612 612"><defs><style>.cls-1,.cls-2,.cls-3,.cls-4{stroke:#232323;stroke-miterlimit:10;stroke-width:1.31px;}.cls-1{fill:url(#linear-gradient);}.cls-2{fill:url(#linear-gradient-2);}.cls-3{fill:url(#linear-gradient-3);}.cls-4{fill:url(#linear-gradient-4);}</style><linearGradient id="linear-gradient" x1="151.01" y1="373.16" x2="151.01" y2="472.44" gradientUnits="userSpaceOnUse"><stop offset="0" stop-color="#fafafa"/><stop offset="1" stop-color="#ebebeb"/></linearGradient><linearGradient id="linear-gradient-2" x1="459.18" y1="134.16" x2="459.18" y2="233.43" xlink:href="#linear-gradient"/><linearGradient id="linear-gradient-3" x1="207.31" y1="162.46" x2="207.31" y2="544.14" xlink:href="#linear-gradient"/><linearGradient id="linear-gradient-4" x1="404.69" y1="67.86" x2="404.69" y2="449.54" xlink:href="#linear-gradient"/></defs><path class="cls-1" d="M123.92,472.35c-5.44.14-5.71.46-11.27-2.64-7.57-6.15-5.78-12.57.37-20.14l54.26-67.16c6.14-7.57,14.55-12.66,22.12-6.51s5.72,14.5-.43,22.06l-54.26,67.16C131.65,468.91,128.42,472.24,123.92,472.35Z"/><path class="cls-2" d="M432.1,233.35c-5.45.14-5.71.46-11.27-2.65-7.58-6.14-5.79-12.56.36-20.13l54.26-67.16c6.15-7.57,14.55-12.66,22.12-6.51s5.72,14.5-.43,22l-54.26,67.17C439.82,229.91,436.59,233.23,432.1,233.35Z"/><path class="cls-3" d="M359.09,332l-23.56,29.43a13.75,13.75,0,0,1-19.16,2.21,13.41,13.41,0,0,1-2.2-19l23.56-29.42A77.17,77.17,0,0,0,325.1,206.17,79,79,0,0,0,215,218.92l-120,150A10.58,10.58,0,0,1,94,370l-17.1,21.35a77.16,77.16,0,0,0,12.63,109,79.09,79.09,0,0,0,110.16-12.75l23.57-29.42a13.71,13.71,0,0,1,19.15-2.2,13.38,13.38,0,0,1,2.2,19L221,504.43A106.58,106.58,0,0,1,72.55,521.62a104,104,0,0,1-17-147l23.56-29.42a13.7,13.7,0,0,1,1-1.14l.05-.05L193.59,202.16c36.25-45.26,102.85-53,148.49-17.19A104,104,0,0,1,359.09,332Z"/><path class="cls-4" d="M556.47,237.39,443.68,377.64a13.06,13.06,0,0,1-1.7,2.78l-23.57,29.42A106.56,106.56,0,0,1,269.94,427a104,104,0,0,1-17-147l23.55-29.42a13.73,13.73,0,0,1,19.17-2.22,13.39,13.39,0,0,1,2.2,19l-23.56,29.43a77.15,77.15,0,0,0,12.63,109,79.09,79.09,0,0,0,110.16-12.74L413.9,372a14.05,14.05,0,0,1,1.74-2.81L535.11,220.64a77.2,77.2,0,0,0-12.63-109.07,79.07,79.07,0,0,0-110.15,12.76l-23.55,29.42A13.72,13.72,0,0,1,369.62,156a13.39,13.39,0,0,1-2.2-19L391,107.57c36.24-45.26,102.86-53,148.49-17.2A104,104,0,0,1,556.47,237.39Z"/></svg>