<svg id="Layer_1" data-name="Layer 1" xmlns="http://www.w3.org/2000/svg" xmlns:xlink="http://www.w3.org/1999/xlink" viewBox="0 0 612 612"><defs><style>.cls-1,.cls-2,.cls-3,.cls-4,.cls-5,.cls-6,.cls-7,.cls-8{stroke:#232323;stroke-miterlimit:10;stroke-width:1.31px;}.cls-1,.cls-2,.cls-3,.cls-4,.cls-5{isolation:isolate;}.cls-1{fill:url(#linear-gradient);}.cls-2{fill:url(#linear-gradient-2);}.cls-3{fill:url(#linear-gradient-3);}.cls-4{fill:url(#linear-gradient-4);}.cls-5{fill:url(#linear-gradient-5);}.cls-6{fill:url(#linear-gradient-6);}.cls-7{fill:url(#linear-gradient-7);}.cls-8{fill:url(#linear-gradient-8);}</style><linearGradient id="linear-gradient" x1="229.65" y1="32.9" x2="229.65" y2="536.16" gradientUnits="userSpaceOnUse"><stop offset="0" stop-color="#fafafa"/><stop offset="1" stop-color="#ebebeb"/></linearGradient><linearGradient id="linear-gradient-2" x1="144.98" y1="240.02" x2="144.98" y2="355.74" xlink:href="#linear-gradient"/><linearGradient id="linear-gradient-3" x1="208.96" y1="181.64" x2="208.96" y2="200.29" xlink:href="#linear-gradient"/><linearGradient id="linear-gradient-4" x1="145.37" y1="412.3" x2="145.37" y2="431.02" xlink:href="#linear-gradient"/><linearGradient id="linear-gradient-5" x1="208.9" y1="133.57" x2="208.9" y2="152.22" xlink:href="#linear-gradient"/><linearGradient id="linear-gradient-6" x1="352.56" y1="381.84" x2="352.56" y2="579.08" xlink:href="#linear-gradient"/><linearGradient id="linear-gradient-7" x1="469.21" y1="201.99" x2="469.21" y2="399.23" xlink:href="#linear-gradient"/><linearGradient id="linear-gradient-8" x1="411.68" y1="317.88" x2="411.68" y2="455.96" xlink:href="#linear-gradient"/></defs><path class="cls-1" d="M402.23,32.9H57.08A18.74,18.74,0,0,0,38.25,51.54v466a18.74,18.74,0,0,0,18.83,18.63H201.42c10.39,0,18.87-.58,19-9,.11-8.19-8.88-8.79-19.27-8.79l-143.66-1,.75-463.76,339.7.76L396.78,151c0,10.29,1.55,18.42,11.94,18.42s11.65-7.9,11.65-18.19l.69-99.69A18.73,18.73,0,0,0,402.23,32.9Z"/><path class="cls-2" d="M184.59,240H105.37a18.75,18.75,0,0,0-18.83,18.65V337.1a18.73,18.73,0,0,0,18.83,18.64h79.22a18.74,18.74,0,0,0,18.83-18.64V258.67A18.76,18.76,0,0,0,184.59,240Zm2.46,92a10.42,10.42,0,0,1-10.42,10.43H110.35A10.43,10.43,0,0,1,99.94,332V266.65a10.42,10.42,0,0,1,10.41-10.42h66.28a10.41,10.41,0,0,1,10.42,10.42Z"/><path class="cls-3" d="M310.88,181.64H105.34c-10.39,0-17.76,1.7-17.76,10.8,0,7.4,5.64,7.66,20.88,7.85H314c10.39,0,16.35-1.83,16.35-9.41C330.35,182.86,321.27,181.64,310.88,181.64Z"/><path class="cls-4" d="M187.57,412.3H105.09c-10.39,0-17.77,1.7-17.77,10.8,0,7.4,5.65,7.66,20.89,7.85l78.85.07c10.4,0,16.36-1.82,16.36-9.4C203.42,414.27,198,412.3,187.57,412.3Z"/><path class="cls-5" d="M310.82,133.57H105.29c-10.4,0-17.77,1.71-17.77,10.81,0,7.39,5.65,7.65,20.89,7.84H313.94c10.39,0,16.35-1.82,16.35-9.4C330.29,134.8,321.21,133.57,310.82,133.57Z"/><path class="cls-6" d="M433.33,494.26l-22.36,29a76.75,76.75,0,0,1-106.68,14.25,74.88,74.88,0,0,1-14.11-105.61l22.36-29a13,13,0,0,0-2.46-18.37A13.31,13.31,0,0,0,291.52,387L269.16,416a101,101,0,0,0,19,142.37A103.44,103.44,0,0,0,432,539.12l22.35-29a13,13,0,0,0-2.45-18.37A13.32,13.32,0,0,0,433.33,494.26Z"/><path class="cls-7" d="M533.59,222.74c-44.89-34-109.4-25.33-143.8,19.21L367.44,270.9a13,13,0,0,0,2.45,18.38,13.33,13.33,0,0,0,18.56-2.48l22.36-28.95a76.73,76.73,0,0,1,106.67-14.26,74.93,74.93,0,0,1,14.11,105.63l-22.36,28.95a13,13,0,0,0,2.46,18.37,13.31,13.31,0,0,0,18.55-2.48l22.36-28.95A101,101,0,0,0,533.59,222.74Z"/><path class="cls-8" d="M437,326.23l-83.71,108.4c-.76,10.26,1.81,14.79,7.62,19.18,2.9,2.2,11.17,2.4,14.53,1.95a13.26,13.26,0,0,0,8.77-5.05L468,342.31c4.45-5.75,1.92-13.34-4.83-19.79C457.3,318.12,449.24,313.33,437,326.23Z"/></svg>