<?xml version="1.0" encoding="iso-8859-1"?>
<!-- Generator: Adobe Illustrator 21.1.0, SVG Export Plug-In . SVG Version: 6.00 Build 0)  -->
<svg version="1.1" xmlns="http://www.w3.org/2000/svg" xmlns:xlink="http://www.w3.org/1999/xlink" x="0px" y="0px"
	 viewBox="0 0 50 50" style="enable-background:new 0 0 50 50;" xml:space="preserve">
<g id="MPR">
	<path style="fill:#E1EFFF;" d="M25,50C11.215,50,0,38.785,0,25C0,11.215,11.215,0,25,0c13.785,0,25,11.215,25,25
		C50,38.785,38.785,50,25,50z"/>
	<path style="fill:#1C1E21;" d="M20.298,33.839c-0.083,0-0.167-0.011-0.251-0.034l-2.415-0.658
		c-0.414-0.113-0.702-0.489-0.702-0.919v-6.322c0-0.526,0.426-0.952,0.952-0.952c0.526,0,0.952,0.426,0.952,0.952v5.594l1.713,0.467
		c0.507,0.138,0.807,0.662,0.668,1.169C21.101,33.56,20.717,33.839,20.298,33.839z"/>
	<path style="fill:#1C1E21;" d="M32.033,37.036c-0.084,0-0.168-0.011-0.25-0.033l-6.971-1.899c-0.508-0.138-0.807-0.662-0.669-1.169
		c0.138-0.507,0.662-0.806,1.169-0.669l5.768,1.571V18.348l-12.245-3.336v6.887c0,0.526-0.426,0.952-0.952,0.952
		c-0.526,0-0.952-0.426-0.952-0.952v-8.134c0-0.297,0.138-0.577,0.374-0.757c0.236-0.18,0.542-0.241,0.829-0.162l14.15,3.855
		c0.415,0.113,0.702,0.489,0.702,0.919v18.463c0,0.297-0.139,0.577-0.374,0.757C32.443,36.968,32.239,37.036,32.033,37.036z"/>
	<path style="fill:#1C1E21;" d="M20.297,37.857c-0.165,0-0.33-0.043-0.478-0.129c-0.293-0.17-0.474-0.484-0.474-0.824V18.441
		c0-0.342,0.183-0.658,0.48-0.827l9.362-5.346c0.295-0.168,0.657-0.167,0.951,0.003c0.293,0.17,0.474,0.484,0.474,0.824v3.879
		c0,0.526-0.426,0.952-0.952,0.952c-0.526,0-0.952-0.426-0.952-0.952v-2.238l-7.458,4.258v16.27l3.34-1.907
		c0.457-0.26,1.038-0.101,1.299,0.355c0.261,0.457,0.102,1.038-0.355,1.299l-4.764,2.72C20.623,37.815,20.46,37.857,20.297,37.857z"
		/>
	<path style="fill:#1C1E21;" d="M27.331,29.419c-0.082,0-0.166-0.011-0.249-0.033L12.846,25.53c-0.373-0.101-0.648-0.417-0.696-0.8
		c-0.048-0.383,0.14-0.758,0.475-0.948l4.787-2.712c0.458-0.259,1.039-0.099,1.298,0.359c0.259,0.458,0.098,1.039-0.359,1.298
		l-2.771,1.57l11.998,3.249c0.508,0.138,0.808,0.661,0.671,1.168C28.135,29.139,27.75,29.419,27.331,29.419z"/>
	<path style="fill:#1C1E21;" d="M27.331,29.418c-0.332,0-0.654-0.173-0.83-0.483c-0.259-0.458-0.099-1.039,0.359-1.298l7.558-4.282
		l-2.636-0.714c-0.507-0.137-0.808-0.661-0.67-1.168c0.138-0.507,0.658-0.809,1.169-0.67l4.872,1.32
		c0.372,0.101,0.647,0.417,0.696,0.8c0.048,0.383-0.14,0.757-0.476,0.948l-9.574,5.423C27.652,29.379,27.49,29.418,27.331,29.418z"
		/>
	<path style="fill:#1C1E21;" d="M20.275,27.565c-0.332,0-0.654-0.173-0.83-0.483c-0.259-0.458-0.098-1.038,0.359-1.298l4.787-2.712
		c0.458-0.259,1.039-0.098,1.298,0.359c0.259,0.458,0.099,1.039-0.359,1.298l-4.787,2.712
		C20.595,27.525,20.434,27.565,20.275,27.565z"/>
	<path style="fill:#1C1E21;" d="M20.298,23.506c-0.082,0-0.166-0.011-0.25-0.033l-2.415-0.655c-0.508-0.137-0.808-0.661-0.67-1.168
		c0.137-0.507,0.659-0.809,1.168-0.67l2.415,0.655c0.508,0.137,0.808,0.661,0.67,1.168C21.102,23.226,20.717,23.506,20.298,23.506z"
		/>
	<path style="fill:#1C1E21;" d="M32.033,26.742c-0.082,0-0.166-0.011-0.25-0.033l-6.971-1.889c-0.508-0.137-0.808-0.661-0.67-1.168
		c0.137-0.507,0.659-0.808,1.168-0.67l6.971,1.889c0.507,0.137,0.808,0.661,0.67,1.168C32.837,26.463,32.453,26.742,32.033,26.742z"
		/>
	<path style="fill:#1C1E21;" d="M25.062,35.137c-0.526,0-0.952-0.426-0.952-0.952v-6.312c0-0.526,0.426-0.952,0.952-0.952
		c0.526,0,0.952,0.426,0.952,0.952v6.312C26.014,34.711,25.588,35.137,25.062,35.137z"/>
	<path style="fill:#1C1E21;" d="M25.062,24.853c-0.526,0-0.952-0.426-0.952-0.952v-8.179c0-0.526,0.426-0.952,0.952-0.952
		c0.526,0,0.952,0.426,0.952,0.952V23.9C26.014,24.426,25.588,24.853,25.062,24.853z"/>
</g>
<g id="Layer_1">
</g>
</svg>
