<svg id="Layer_1" data-name="Layer 1" xmlns="http://www.w3.org/2000/svg" xmlns:xlink="http://www.w3.org/1999/xlink" viewBox="0 0 612 612"><defs><style>.cls-1,.cls-2,.cls-3,.cls-4{stroke:#232323;stroke-miterlimit:10;stroke-width:1.31px;}.cls-1{fill:url(#linear-gradient);}.cls-2{fill:url(#linear-gradient-2);}.cls-3{fill:url(#linear-gradient-3);}.cls-4{fill:url(#linear-gradient-4);}</style><linearGradient id="linear-gradient" x1="281.19" y1="152.97" x2="281.19" y2="356.51" gradientUnits="userSpaceOnUse"><stop offset="0" stop-color="#fafafa"/><stop offset="1" stop-color="#ebebeb"/></linearGradient><linearGradient id="linear-gradient-2" x1="306" y1="31.92" x2="306" y2="580.08" xlink:href="#linear-gradient"/><linearGradient id="linear-gradient-3" x1="167.69" y1="100.41" x2="167.69" y2="140.24" xlink:href="#linear-gradient"/><linearGradient id="linear-gradient-4" x1="167.69" y1="156.62" x2="167.69" y2="196.46" xlink:href="#linear-gradient"/></defs><path class="cls-1" d="M383,257.39a20.32,20.32,0,0,1-20.34,20.3H301.39v58.46a20.31,20.31,0,1,1-40.62,0V277.69h-61a20.3,20.3,0,1,1,0-40.6h61V173.33a20.31,20.31,0,1,1,40.62,0v63.76h61.22A20.31,20.31,0,0,1,383,257.39Z"/><path class="cls-2" d="M550.24,377.06h-346a30.53,30.53,0,0,0-30.53,30.45v81.22a50.88,50.88,0,0,1-101.76,0V72.53H404.37V285.7a20.35,20.35,0,0,0,40.7,0V52.23a20.34,20.34,0,0,0-20.35-20.31H51.59A20.34,20.34,0,0,0,31.24,52.23v436.5c0,50.36,41.09,91.35,91.59,91.35H489.18c50.49,0,91.58-41,91.58-91.35V407.51A30.53,30.53,0,0,0,550.24,377.06ZM540.05,488.73a50.87,50.87,0,0,1-50.87,50.74H198.94a90.52,90.52,0,0,0,15.47-50.74V417.66H540.05Z"/><rect class="cls-3" x="102.15" y="100.41" width="131.06" height="39.83" rx="19.92"/><rect class="cls-4" x="102.15" y="156.62" width="131.06" height="39.83" rx="19.92"/></svg>