<?xml version="1.0" encoding="iso-8859-1"?>
<!-- Generator: Adobe Illustrator 21.1.0, SVG Export Plug-In . SVG Version: 6.00 Build 0)  -->
<svg version="1.1" xmlns="http://www.w3.org/2000/svg" xmlns:xlink="http://www.w3.org/1999/xlink" x="0px" y="0px"
	 viewBox="0 0 50 50" style="enable-background:new 0 0 50 50;" xml:space="preserve">
<g id="Note">
	<path style="fill:#E1EFFF;" d="M25,50C11.215,50,0,38.785,0,25C0,11.215,11.215,0,25,0c13.785,0,25,11.215,25,25
		C50,38.785,38.785,50,25,50z"/>
	<path style="fill:#1C1E21;" d="M25.635,19.821h-7.619c-0.526,0-0.952-0.426-0.952-0.952c0-0.526,0.426-0.952,0.952-0.952h7.619
		c0.526,0,0.952,0.426,0.952,0.952C26.587,19.395,26.161,19.821,25.635,19.821z"/>
	<path style="fill:#1C1E21;" d="M25.635,25h-7.619c-0.526,0-0.952-0.426-0.952-0.952c0-0.526,0.426-0.952,0.952-0.952h7.619
		c0.526,0,0.952,0.426,0.952,0.952C26.587,24.574,26.161,25,25.635,25z"/>
	<path style="fill:#1C1E21;" d="M33.571,37.857H16.429c-2.363,0-4.286-1.922-4.286-4.286V13.095c0-0.526,0.426-0.952,0.952-0.952
		h17.46c0.526,0,0.952,0.426,0.952,0.952v10.952c0,0.526-0.426,0.952-0.952,0.952c-0.526,0-0.952-0.426-0.952-0.952v-10H14.048
		v19.524c0,1.313,1.068,2.381,2.381,2.381s2.381-1.068,2.381-2.381v-3.81c0-0.788,0.641-1.429,1.429-1.429h16.19
		c0.788,0,1.429,0.641,1.429,1.429v3.81C37.857,35.935,35.935,37.857,33.571,37.857z M19.99,35.952h13.581
		c1.313,0,2.381-1.068,2.381-2.381v-3.333H20.714v3.333C20.714,34.452,20.447,35.271,19.99,35.952z"/>
</g>
<g id="Layer_1">
</g>
</svg>
