<svg id="Layer_1" data-name="Layer 1" xmlns="http://www.w3.org/2000/svg" xmlns:xlink="http://www.w3.org/1999/xlink" viewBox="0 0 612 612"><defs><style>.cls-1{stroke:#232323;stroke-miterlimit:10;stroke-width:1.31px;fill:url(#linear-gradient);}</style><linearGradient id="linear-gradient" x1="306" y1="31.07" x2="306" y2="580.93" gradientUnits="userSpaceOnUse"><stop offset="0" stop-color="#fafafa"/><stop offset="1" stop-color="#ebebeb"/></linearGradient></defs><path id="Panoramic" class="cls-1" d="M580.93,401.91c0-21.32-4.19-38.37-12.55-49q6.27-6.4,6.27-19.18c2.09-6.4,10.46-70.33-14.63-95.91-2.09-2.13-6.27-4.26-10.46-6.39,2.1-6.4,2.1-10.66,0-19.18,0,0-10.45-74.6-50.17-85.25-2.09,0-4.18,0-6.27-2.13-2.1-8.53-4.19-17-10.46-23.45l-4.18-4.26C465.94,82.22,451.3,63,428.3,60.91c-4.18,0-10.45,0-14.63,2.13-2.09-4.26-2.09-6.39-4.18-8.53C399,39.6,376,31.07,351,31.07c-14.64,0-31.36,2.13-43.91,10.66-12.54-8.53-27.18-10.66-43.9-10.66-25.09,0-48.09,8.53-58.54,23.44-2.09,2.14-2.09,4.27-4.18,8.53-4.18-2.13-10.46-2.13-14.64-2.13-20.9,2.13-35.54,19.18-50.17,36.23l-4.19,4.26c-6.27,8.53-10.45,17-10.45,23.45-2.09,0-4.18,0-8.36,2.13-39.72,10.65-50.18,85.25-50.18,85.25v19.18c-4.18,2.13-6.27,4.26-10.45,6.39-25.09,25.58-14.64,87.38-14.64,95.91q3.15,9.59,6.28,19.18c-8.36,10.65-12.55,27.7-12.55,49,0,25.57,4.18,44.75,10.46,55.41C35.25,468,31.07,485,31.07,504.21c0,66.07,29.27,76.72,46,76.72h23c39.72,0,39.72-53.28,39.72-72.46,0-21.32-4.18-36.23-10.45-49,10.45-17.05,10.45-42.63,10.45-55.41q0-35.18-12.54-51.15c10.45-21.32,16.72-51.15,12.54-81,0-6.4-2.09-10.66-4.18-14.92,20.9-17.05,33.45-51.15,35.54-72.46v-2.13c23-8.53,48.09-27.71,56.45-49,6.27,0,12.54,2.13,18.82,2.13,16.72,0,35.54-4.26,43.9-6.39,4.18-2.14,8.36-4.27,10.45-6.4,4.18,2.13,6.28,4.26,10.46,6.4,10.45,4.26,27.17,6.39,43.9,6.39,6.27,0,12.54,0,18.82-2.13,10.45,21.31,33.45,40.49,56.44,49v2.13c2.09,21.31,14.64,55.41,35.55,72.46-2.1,4.26-4.19,10.66-4.19,14.92-4.18,29.84,0,59.67,12.55,81-8.36,12.78-12.55,27.7-12.55,51.15,0,12.78,0,38.36,10.46,55.41-6.28,10.66-10.46,27.7-10.46,49,0,19.18,0,72.46,39.73,72.46h23c16.73,0,46-10.66,46-76.72,0-21.32-4.18-36.23-10.46-46.89C574.65,446.66,580.93,429.61,580.93,401.91Zm-69-121.48c0-6.4,4.19-10.66,10.46-12.79h6.27c2.09,0,4.18,0,6.27,2.13,4.18,6.39,6.27,34.1,4.18,59.67,0,4.27-4.18,6.4-6.27,6.4H522.39C511.93,323.05,509.84,303.87,511.93,280.43Zm4.19,157.71c-2.1-4.27-2.1-12.79-2.1-32,0-32,4.19-32,16.73-32h2.09c4.18,0,8.36,4.26,8.36,25.57,0,25.58-4.18,34.1-6.27,36.23C534.93,438.14,516.12,438.14,516.12,438.14ZM514,218.62a16.53,16.53,0,0,1-4.17,10.66h-2.1c-6.27,0-23-25.58-25.08-46.89,0-6.39,2.09-10.66,4.18-14.92a6.42,6.42,0,0,1,4.18-2.13h2.09C499.39,171.73,509.84,199.44,514,218.62ZM129.33,167.47h2.09c2.09,0,4.18,0,4.18,2.13,4.19,2.13,4.19,8.53,4.19,14.92-2.09,21.31-18.82,46.89-25.09,46.89h-2.09c-2.09-2.13-6.27-6.4-4.18-10.66C112.61,199.44,123.06,171.73,129.33,167.47ZM87.52,438.14c0-2.14-6.27-10.66-6.27-36.23,0-27.71,6.27-27.71,10.45-27.71,12.54,0,16.73,0,16.73,32,0,19.18-2.1,27.7-2.1,32Zm4.18-102.3h0c-2.09,0-6.27-2.14-6.27-6.4-4.18-25.57-2.09-53.28,4.18-59.67a9.06,9.06,0,0,1,6.27-2.13h6.27c6.28,2.13,8.37,6.39,10.46,12.79,2.09,23.44,0,42.62-6.28,55.41Zm14.63,206.73H87.52c-2.09-2.13-6.27-10.66-6.27-36.23,0-27.71,6.27-27.71,10.45-27.71,12.54,0,16.73,0,16.73,32C110.52,529.78,108.43,538.31,106.33,542.57Zm62.73-396.41c0-2.13-2.09-2.13-4.18-4.26,0-4.27,0-8.53,4.18-12.79l4.18-4.26c6.27-6.4,16.72-21.32,20.91-21.32h0a6.42,6.42,0,0,1,4.18,2.13c2.09,2.14,4.18,4.27,4.18,10.66C202.51,124.85,185.78,137.63,169.06,146.16ZM290.32,88.61c0,2.14-2.09,2.14-4.18,4.27-12.55,4.26-35.55,6.39-43.91,4.26V82.22c2.09-2.13,10.45-6.39,25.09-6.39s20.91,2.13,20.91,4.26C290.32,80.09,292.41,84.35,290.32,88.61Zm46,4.27c-2.09,0-2.09-2.13-4.18-4.27-2.09-4.26,0-8.52,0-10.65s6.28-4.27,20.91-4.27,23,4.27,25.09,6.4V95C371.86,97.14,348.86,97.14,336.31,92.88Zm83.63,25.57c0-6.39,2.09-10.65,4.18-10.65a6.4,6.4,0,0,1,4.18-2.14h0c4.19,0,14.64,12.79,20.91,21.32l4.18,4.26c2.1,4.26,4.18,8.53,2.1,12.79-2.1,2.13-2.1,2.13-2.1,4.26C436.67,137.63,419.94,124.85,419.94,118.45Zm115,424.12H516.11c-2.09-4.27-2.09-12.79-2.09-32,0-32,4.19-32,16.73-32,4.18,0,10.45,0,10.45,27.71C541.2,531.91,534.93,540.44,534.93,542.57Z"/></svg>