<svg xmlns="http://www.w3.org/2000/svg" viewBox="0 0 50 50"><defs><style>.cls-1{fill:#e1efff;}.cls-2{fill:#1c1e21;}</style></defs><g id="Layer_2" data-name="Layer 2"><g id="Layer_151" data-name="Layer 151"><g id="PatientOrientation"><path class="cls-1" d="M25,50A25,25,0,1,1,50,25,25,25,0,0,1,25,50Z"/><path class="cls-2" d="M23.86,31.43a.74.74,0,0,0-.78.69.73.73,0,0,0,.69.78c.41,0,.82,0,1.23,0,7,0,12.57-3.4,12.57-7.74S32.05,17.46,25,17.46a20.14,20.14,0,0,0-4.58.51c1.15-2.46,2.87-4.06,4.75-4.06A4.14,4.14,0,0,1,28,15.17l-1-.1a.74.74,0,1,0-.15,1.47l2.87.28h.07a.59.59,0,0,0,.23,0h0l.15-.07.05,0a0,0,0,0,1,0,0l0,0,.05-.05,0-.05.05-.07,0-.06,0-.07s0,0,0-.07,0-.05,0-.07,0,0,0,0l.2-2.87a.74.74,0,1,0-1.47-.11l-.08,1a5.63,5.63,0,0,0-3.95-1.77c-2.84,0-5.28,2.42-6.61,6.09-3.7,1.33-6.13,3.8-6.13,6.68a5.54,5.54,0,0,0,1.77,3.92l-1,.08a.73.73,0,0,0-.68.79.74.74,0,0,0,.73.69h.06l2.87-.2h.11l.07,0,.07,0,.06,0,.06,0,.06,0,.05-.05,0,0,0,0,0,0,0,0,0-.06,0-.07a.19.19,0,0,1,0-.07s0-.05,0-.07,0-.05,0-.07v-.11l-.28-2.87a.75.75,0,0,0-.81-.66.73.73,0,0,0-.66.81l.1,1.07a4.09,4.09,0,0,1-1.26-2.81c0-1.92,1.62-3.66,4.11-4.82A19.93,19.93,0,0,0,17.5,25c0,7,3.37,12.57,7.67,12.57,1.92,0,3.74-1.13,5.14-3.19a.74.74,0,1,0-1.22-.83,5,5,0,0,1-3.92,2.54C21.81,36.09,19,31,19,25a18,18,0,0,1,.78-5.29A17.79,17.79,0,0,1,25,18.94c6,0,11.09,2.87,11.09,6.26S31,31.46,25,31.46Q24.43,31.46,23.86,31.43Zm8-2.55h.12a.73.73,0,0,0,.73-.61A19.8,19.8,0,0,0,32.94,25a19.28,19.28,0,0,0-.22-3,.74.74,0,0,0-1.46.22,17.68,17.68,0,0,1,.2,2.74,18.87,18.87,0,0,1-.24,3A.74.74,0,0,0,31.82,28.88Z"/></g></g></g></svg>