<svg id="Layer_1" data-name="Layer 1" xmlns="http://www.w3.org/2000/svg" xmlns:xlink="http://www.w3.org/1999/xlink" viewBox="0 0 612 612"><defs><style>.cls-1,.cls-2{stroke:#232323;stroke-miterlimit:10;stroke-width:1.31px;}.cls-1{fill:url(#linear-gradient);}.cls-2{fill:url(#linear-gradient-2);}</style><linearGradient id="linear-gradient" x1="306" y1="281" x2="306" y2="331" gradientUnits="userSpaceOnUse"><stop offset="0" stop-color="#fafafa"/><stop offset="1" stop-color="#ebebeb"/></linearGradient><linearGradient id="linear-gradient-2" y1="293.29" y2="318.71" xlink:href="#linear-gradient"/></defs><g id="PlayButton"><path class="cls-1" d="M331,327.67a3.33,3.33,0,0,1-3.33,3.33H284.33a3.33,3.33,0,0,1-3.33-3.33V284.33a3.33,3.33,0,0,1,3.33-3.33h43.34a3.33,3.33,0,0,1,3.33,3.33Z"/><path class="cls-2" d="M315.76,304.35a1.91,1.91,0,0,1,0,3.3l-18.61,10.89a1.24,1.24,0,0,1-1.86-1.07V294.53a1.24,1.24,0,0,1,1.86-1.07Z"/></g></svg>