<svg id="Layer_1" data-name="Layer 1" xmlns="http://www.w3.org/2000/svg" xmlns:xlink="http://www.w3.org/1999/xlink" viewBox="0 0 612 612"><defs><style>.cls-1,.cls-2{stroke:#232323;stroke-miterlimit:10;stroke-width:1.31px;}.cls-1{fill:url(#linear-gradient);}.cls-2{fill:url(#linear-gradient-2);}</style><linearGradient id="linear-gradient" x1="306" y1="145.01" x2="306" y2="467.67" gradientUnits="userSpaceOnUse"><stop offset="0" stop-color="#fafafa"/><stop offset="1" stop-color="#ebebeb"/></linearGradient><linearGradient id="linear-gradient-2" x1="306" y1="32.24" x2="306" y2="580.45" xlink:href="#linear-gradient"/></defs><path class="cls-1" d="M413,467.67H199a20.18,20.18,0,0,1-20-17.4L155.27,277.9a20.17,20.17,0,0,1,7-18.19L293,149.75a20.17,20.17,0,0,1,26,0l130.76,110a20.17,20.17,0,0,1,7,18.19L433,450.27A20.15,20.15,0,0,1,413,467.67Zm-196.4-40.33H395.41l19.86-143.93L306,191.53,196.75,283.41Z"/><path class="cls-2" d="M508.94,580.45H103.06a71.12,71.12,0,0,1-71-71.07V103.3a71.12,71.12,0,0,1,71-71.06H508.94a71.12,71.12,0,0,1,71,71.06V509.39A71.12,71.12,0,0,1,508.94,580.45ZM102.9,60c-16.78,0-43,24.9-43,41.69V521.42c0,16.8,15.3,37.05,32.08,37.05H511c16.78,0,44.2-29.1,42.76-46.94l.34-412.83C554.13,81.91,530.83,60,514,60Z"/></svg>