<svg id="Layer_1" data-name="Layer 1" xmlns="http://www.w3.org/2000/svg" xmlns:xlink="http://www.w3.org/1999/xlink" viewBox="0 0 612 612"><defs><style>.cls-1,.cls-2{stroke:#232323;stroke-miterlimit:10;stroke-width:1.31px;}.cls-1{fill:url(#linear-gradient);}.cls-2{fill:url(#linear-gradient-2);}</style><linearGradient id="linear-gradient" x1="306" y1="139.34" x2="306" y2="472.66" gradientUnits="userSpaceOnUse"><stop offset="0" stop-color="#fafafa"/><stop offset="1" stop-color="#ebebeb"/></linearGradient><linearGradient id="linear-gradient-2" x1="306" y1="32.55" x2="306" y2="579.45" xlink:href="#linear-gradient"/></defs><path class="cls-1" d="M399.36,472.66a20.16,20.16,0,0,1-14.3-5.91L198.34,280.5a20.13,20.13,0,0,1,0-28.52l107-106.73a20.19,20.19,0,0,1,14.29-5.91h0a20.21,20.21,0,0,1,14.3,5.91l76,75.79a20.19,20.19,0,1,1-28.59,28.52L319.63,188l-78.4,78.2,172.42,172a20.19,20.19,0,0,1-14.29,34.45Z"/><path class="cls-2" d="M508.45,579.45H103.55a71,71,0,0,1-70.86-70.89V103.44a71,71,0,0,1,70.86-70.89h404.9a71,71,0,0,1,70.86,70.89V508.56A71,71,0,0,1,508.45,579.45ZM103.38,60.26c-16.74,0-42.9,24.85-42.9,41.6V520.57c0,16.75,15.26,36.95,32,36.95H510.54c16.74,0,44.1-29,42.66-46.82l.33-411.85c0-16.75-23.24-38.59-40-38.59Z"/></svg>