<?xml version="1.0" encoding="iso-8859-1"?>
<!-- Generator: Adobe Illustrator 21.1.0, SVG Export Plug-In . SVG Version: 6.00 Build 0)  -->
<svg version="1.1" xmlns="http://www.w3.org/2000/svg" xmlns:xlink="http://www.w3.org/1999/xlink" x="0px" y="0px"
	 viewBox="0 0 50 50" style="enable-background:new 0 0 50 50;" xml:space="preserve">
<g id="PolyRuler">
	<path style="fill:#E1EFFF;" d="M25,50C11.215,50,0,38.785,0,25C0,11.215,11.215,0,25,0c13.785,0,25,11.215,25,25
		C50,38.785,38.785,50,25,50z"/>
	<path style="fill:#1C1E21;" d="M21.15,37.857h-8.055c-0.526,0-0.952-0.426-0.952-0.952v-23.81c0-0.526,0.426-0.952,0.952-0.952
		h23.81c0.526,0,0.952,0.426,0.952,0.952v8.055c0,0.026-0.001,0.052-0.003,0.078v0c0,0.003,0,0.005,0,0.008c0,0.001,0,0.003,0,0.004
		c0,0.003,0,0.006-0.001,0.009c0,0.001,0,0.001,0,0.001c0,0.003-0.001,0.006-0.001,0.009c0,0.002,0,0.003,0,0.005
		c0,0.001,0,0.003-0.001,0.004v0c-0.058,0.468-0.456,0.831-0.939,0.834l0,0H36.91h0c0,0,0,0-0.001,0h0c0,0,0,0-0.001,0
		c0,0,0,0-0.001,0h0c0,0,0,0,0,0l-14.802,0v14.802C22.103,37.431,21.676,37.857,21.15,37.857z M14.048,35.952h6.15V21.15
		c0-0.526,0.426-0.952,0.952-0.952l14.802,0v-6.15H14.048V35.952z"/>
	<path style="fill:#1C1E21;" d="M24.993,21.489c-0.526,0-0.952-0.426-0.952-0.952V18.4c0-0.526,0.426-0.952,0.952-0.952
		c0.526,0,0.953,0.426,0.953,0.952v2.136C25.946,21.063,25.519,21.489,24.993,21.489z"/>
	<path style="fill:#1C1E21;" d="M21.15,22.103c-0.526,0-0.952-0.426-0.952-0.952v-4.586c0-0.526,0.426-0.952,0.952-0.952
		c0.526,0,0.952,0.426,0.952,0.952v4.586C22.103,21.676,21.676,22.103,21.15,22.103z"/>
	<path style="fill:#1C1E21;" d="M32.679,21.488c-0.526,0-0.952-0.426-0.952-0.952V18.4c0-0.526,0.426-0.952,0.952-0.952
		c0.526,0,0.952,0.426,0.952,0.952v2.136C33.631,21.062,33.205,21.488,32.679,21.488z"/>
	<path style="fill:#1C1E21;" d="M28.836,21.488c-0.526,0-0.952-0.426-0.952-0.952v-3.971c0-0.526,0.426-0.952,0.952-0.952
		c0.526,0,0.952,0.426,0.952,0.952v3.971C29.788,21.062,29.362,21.488,28.836,21.488z"/>
	<path style="fill:#1C1E21;" d="M20.537,25.946H18.4c-0.526,0-0.952-0.426-0.952-0.953c0-0.526,0.426-0.952,0.952-0.952h2.136
		c0.526,0,0.952,0.426,0.952,0.952C21.489,25.519,21.063,25.946,20.537,25.946z"/>
	<path style="fill:#1C1E21;" d="M21.15,22.103h-4.586c-0.526,0-0.952-0.426-0.952-0.952c0-0.526,0.426-0.952,0.952-0.952h4.586
		c0.526,0,0.952,0.426,0.952,0.952C22.103,21.676,21.676,22.103,21.15,22.103z"/>
	<path style="fill:#1C1E21;" d="M20.536,33.631H18.4c-0.526,0-0.952-0.426-0.952-0.952c0-0.526,0.426-0.952,0.952-0.952h2.136
		c0.526,0,0.952,0.426,0.952,0.952C21.488,33.205,21.062,33.631,20.536,33.631z"/>
	<path style="fill:#1C1E21;" d="M20.536,29.788h-3.971c-0.526,0-0.952-0.426-0.952-0.952c0-0.526,0.426-0.952,0.952-0.952h3.971
		c0.526,0,0.952,0.426,0.952,0.952C21.488,29.362,21.062,29.788,20.536,29.788z"/>
</g>
<g id="Layer_1">
</g>
</svg>
