<?xml version="1.0" encoding="iso-8859-1"?>
<!-- Generator: Adobe Illustrator 21.1.0, SVG Export Plug-In . SVG Version: 6.00 Build 0)  -->
<svg version="1.1" xmlns="http://www.w3.org/2000/svg" xmlns:xlink="http://www.w3.org/1999/xlink" x="0px" y="0px"
	 viewBox="0 0 50 50" style="enable-background:new 0 0 50 50;" xml:space="preserve">
<g id="PopupCapture">
	<path style="fill:#E1EFFF;" d="M25,50C11.215,50,0,38.785,0,25C0,11.215,11.215,0,25,0c13.785,0,25,11.215,25,25
		C50,38.785,38.785,50,25,50z"/>
	<path style="fill:#1C1E21;" d="M35.476,37.857H14.524c-1.313,0-2.381-1.068-2.381-2.381v-16.19c0-1.313,1.068-2.381,2.381-2.381
		h2.837l3.049-4.356c0.178-0.255,0.469-0.406,0.78-0.406h7.619c0.311,0,0.602,0.152,0.78,0.406l3.049,4.356h2.838
		c1.313,0,2.381,1.068,2.381,2.381v16.19C37.857,36.789,36.789,37.857,35.476,37.857z M14.524,18.81
		c-0.263,0-0.476,0.214-0.476,0.476v16.19c0,0.263,0.214,0.476,0.476,0.476h20.952c0.263,0,0.476-0.213,0.476-0.476v-16.19
		c0-0.263-0.213-0.476-0.476-0.476h-3.333c-0.311,0-0.602-0.152-0.78-0.406l-3.049-4.356h-6.627l-3.049,4.356
		c-0.178,0.255-0.469,0.406-0.78,0.406H14.524z"/>
	<path style="fill:#1C1E21;" d="M25,34.315c-3.728,0-6.761-3.033-6.761-6.761c0-3.728,3.033-6.761,6.761-6.761
		c3.728,0,6.761,3.033,6.761,6.761C31.761,31.283,28.728,34.315,25,34.315z M25,22.698c-2.678,0-4.856,2.178-4.856,4.856
		s2.178,4.856,4.856,4.856s4.856-2.179,4.856-4.856S27.678,22.698,25,22.698z"/>
	<circle style="fill:#1C1E21;" cx="25" cy="27.555" r="1.476"/>
	<path style="fill:#1C1E21;" d="M25,29.983c-1.339,0-2.428-1.09-2.428-2.428c0-1.339,1.089-2.428,2.428-2.428
		s2.428,1.089,2.428,2.428C27.428,28.893,26.339,29.983,25,29.983z M25,27.031c-0.289,0-0.523,0.235-0.523,0.523
		c0,0.289,0.235,0.524,0.523,0.524s0.523-0.235,0.523-0.524C25.523,27.266,25.289,27.031,25,27.031z"/>
	<path style="fill:#1C1E21;" d="M28.095,18.81h-6.19c-0.526,0-0.952-0.426-0.952-0.952c0-0.526,0.426-0.952,0.952-0.952h6.19
		c0.526,0,0.952,0.426,0.952,0.952C29.048,18.383,28.621,18.81,28.095,18.81z"/>
</g>
<g id="Layer_1">
</g>
</svg>
