<?xml version="1.0" encoding="iso-8859-1"?>
<!-- Generator: Adobe Illustrator 21.1.0, SVG Export Plug-In . SVG Version: 6.00 Build 0)  -->
<svg version="1.1" xmlns="http://www.w3.org/2000/svg" xmlns:xlink="http://www.w3.org/1999/xlink" x="0px" y="0px"
	 viewBox="0 0 50 50" style="enable-background:new 0 0 50 50;" xml:space="preserve">
<g id="PreviousImage">
	<path style="fill:#E1EFFF;" d="M25,50C11.215,50,0,38.785,0,25C0,11.215,11.215,0,25,0c13.785,0,25,11.215,25,25
		C50,38.785,38.785,50,25,50z"/>
	<path style="fill:#1C1E21;" d="M17.851,30.709c-0.244,0-0.488-0.093-0.673-0.279l-4.756-4.756c-0.372-0.372-0.372-0.975,0-1.347
		l4.756-4.756c0.372-0.372,0.975-0.372,1.347,0c0.372,0.372,0.372,0.975,0,1.347L14.442,25l4.082,4.083
		c0.372,0.372,0.372,0.975,0,1.347C18.339,30.616,18.095,30.709,17.851,30.709z"/>
	<path style="fill:#1C1E21;" d="M28.333,25.952H13.095c-0.526,0-0.952-0.426-0.952-0.952s0.426-0.952,0.952-0.952h15.238
		c0.526,0,0.952,0.426,0.952,0.952S28.859,25.952,28.333,25.952z"/>
	<path style="fill:#1C1E21;" d="M36.905,37.857H19.762c-0.526,0-0.952-0.426-0.952-0.952s0.426-0.952,0.952-0.952h16.19V14.048
		h-16.19c-0.526,0-0.952-0.426-0.952-0.952c0-0.526,0.426-0.952,0.952-0.952h17.143c0.526,0,0.952,0.426,0.952,0.952v23.81
		C37.857,37.431,37.431,37.857,36.905,37.857z"/>
</g>
<g id="Layer_1">
</g>
</svg>
