<svg id="Layer_1" data-name="Layer 1" xmlns="http://www.w3.org/2000/svg" xmlns:xlink="http://www.w3.org/1999/xlink" viewBox="0 0 612 612"><defs><style>.cls-1{stroke:#232323;stroke-miterlimit:10;stroke-width:1.31px;fill:url(#linear-gradient);}</style><linearGradient id="linear-gradient" x1="306" y1="32.01" x2="306" y2="579.99" gradientUnits="userSpaceOnUse"><stop offset="0" stop-color="#fafafa"/><stop offset="1" stop-color="#ebebeb"/></linearGradient></defs><path id="ReloadAll" class="cls-1" d="M339.81,32H235c-111.85,0-202.85,91-202.85,203s91,203,202.85,203H348.38L241,545.35a20.29,20.29,0,0,0,28.69,28.7L411.69,432a20.29,20.29,0,0,0,0-28.7l-142-142.07A20.29,20.29,0,1,0,241,289.9L348.38,397.33H235c-89.48,0-162.28-72.84-162.28-162.37S145.52,72.6,235,72.6H339.81c110,0,199.47,89.52,199.47,199.57V559.7a20.29,20.29,0,1,0,40.57,0V272.17C579.87,139.74,472.18,32,339.81,32Z"/></svg>