<?xml version="1.0" encoding="iso-8859-1"?>
<!-- Generator: Adobe Illustrator 21.1.0, SVG Export Plug-In . SVG Version: 6.00 Build 0)  -->
<svg version="1.1" xmlns="http://www.w3.org/2000/svg" xmlns:xlink="http://www.w3.org/1999/xlink" x="0px" y="0px"
	 viewBox="0 0 50 50" style="enable-background:new 0 0 50 50;" xml:space="preserve">
<g id="Reload">
	<path style="fill:#E1EFFF;" d="M25,50C11.215,50,0,38.785,0,25C0,11.215,11.215,0,25,0c13.785,0,25,11.215,25,25
		C50,38.785,38.785,50,25,50z"/>
	<path style="fill:#1C1E21;" d="M20.528,22.413c-0.244,0-0.487-0.093-0.673-0.279c-0.372-0.372-0.372-0.975,0-1.347l3.509-3.509
		l-3.509-3.509c-0.372-0.372-0.372-0.975,0-1.347c0.372-0.372,0.975-0.372,1.347,0l4.182,4.182c0.372,0.372,0.372,0.975,0,1.347
		l-4.182,4.183C21.015,22.32,20.771,22.413,20.528,22.413z"/>
	<path style="fill:#1C1E21;" d="M29.472,37.857c-0.244,0-0.487-0.093-0.673-0.279l-4.182-4.182c-0.372-0.372-0.372-0.975,0-1.347
		l4.182-4.182c0.372-0.372,0.975-0.372,1.347,0c0.372,0.372,0.372,0.975,0,1.347l-3.509,3.509l3.509,3.509
		c0.372,0.372,0.372,0.975,0,1.347C29.96,37.764,29.716,37.857,29.472,37.857z"/>
	<path style="fill:#1C1E21;" d="M20.818,33.675c-4.783,0-8.675-3.891-8.675-8.675s3.891-8.675,8.675-8.675h3.893
		c0.526,0,0.952,0.426,0.952,0.952s-0.426,0.952-0.952,0.952h-3.893c-3.733,0-6.77,3.037-6.77,6.77c0,3.733,3.037,6.77,6.77,6.77
		c0.526,0,0.952,0.426,0.952,0.952C21.77,33.248,21.343,33.675,20.818,33.675z"/>
	<path style="fill:#1C1E21;" d="M29.182,33.675H25.29c-0.526,0-0.952-0.426-0.952-0.952c0-0.526,0.426-0.952,0.952-0.952h3.893
		c3.733,0,6.77-3.037,6.77-6.77c0-3.733-3.037-6.77-6.77-6.77c-0.526,0-0.952-0.426-0.952-0.952s0.426-0.952,0.952-0.952
		c4.783,0,8.675,3.891,8.675,8.675S33.966,33.675,29.182,33.675z"/>
</g>
<g id="Layer_1">
</g>
</svg>
