<?xml version="1.0" encoding="iso-8859-1"?>
<!-- Generator: Adobe Illustrator 21.1.0, SVG Export Plug-In . SVG Version: 6.00 Build 0)  -->
<svg version="1.1" xmlns="http://www.w3.org/2000/svg" xmlns:xlink="http://www.w3.org/1999/xlink" x="0px" y="0px"
	 viewBox="0 0 50 50" style="enable-background:new 0 0 50 50;" xml:space="preserve">
<g id="RenameTemplate">
	<path style="fill:#E1EFFF;" d="M25,50C11.215,50,0,38.785,0,25C0,11.215,11.215,0,25,0c13.785,0,25,11.215,25,25
		C50,38.785,38.785,50,25,50z"/>
	<path style="fill:#1C1E21;" d="M16.955,33.792c-0.398,0-0.757-0.275-0.847-0.68c-0.104-0.468,0.191-0.932,0.659-1.036
		c0.54-0.12,1.005-0.299,1.382-0.532c0.404-0.25,0.654-0.731,0.654-1.256V19.88c0-0.524-0.251-1.006-0.654-1.256
		c-0.376-0.233-0.841-0.412-1.382-0.533c-0.468-0.104-0.763-0.568-0.659-1.036c0.104-0.469,0.571-0.761,1.036-0.659
		c0.732,0.163,1.378,0.416,1.92,0.752c0.911,0.564,1.476,1.611,1.476,2.732v10.407c0,1.121-0.566,2.168-1.476,2.732
		c-0.543,0.336-1.189,0.589-1.92,0.752C17.081,33.785,17.018,33.792,16.955,33.792z"/>
	<path style="fill:#1C1E21;" d="M22.39,33.792c-0.063,0-0.126-0.007-0.189-0.021c-0.731-0.163-1.377-0.416-1.92-0.752
		c-0.911-0.565-1.476-1.611-1.476-2.732c0-0.479,0.389-0.868,0.868-0.868c0.48,0,0.868,0.389,0.868,0.868
		c0,0.525,0.251,1.006,0.655,1.256c0.376,0.233,0.841,0.412,1.382,0.532c0.468,0.104,0.763,0.568,0.659,1.036
		C23.147,33.517,22.788,33.792,22.39,33.792z"/>
	<path style="fill:#1C1E21;" d="M19.673,20.749c-0.48,0-0.868-0.389-0.868-0.868c0-1.121,0.566-2.168,1.476-2.732
		c0.542-0.336,1.188-0.589,1.92-0.752c0.465-0.104,0.932,0.191,1.036,0.659c0.104,0.468-0.191,0.932-0.659,1.036
		c-0.541,0.12-1.006,0.299-1.382,0.532c-0.404,0.25-0.655,0.731-0.655,1.256C20.541,20.36,20.152,20.749,19.673,20.749z"/>
	<path style="fill:#1C1E21;" d="M34.524,37.857H15.476c-1.838,0-3.333-1.496-3.333-3.333V15.476c0-1.838,1.495-3.333,3.333-3.333
		h19.048c1.838,0,3.333,1.495,3.333,3.333v19.048C37.857,36.362,36.362,37.857,34.524,37.857z M15.476,14.048
		c-0.788,0-1.429,0.641-1.429,1.429v19.048c0,0.788,0.641,1.429,1.429,1.429h19.048c0.788,0,1.429-0.641,1.429-1.429V15.476
		c0-0.788-0.641-1.429-1.429-1.429H15.476z"/>
	<circle style="fill:#1C1E21;" cx="26.15" cy="32.924" r="0.854"/>
	<circle style="fill:#1C1E21;" cx="29.752" cy="32.924" r="0.854"/>
	<circle style="fill:#1C1E21;" cx="33.353" cy="32.924" r="0.854"/>
</g>
<g id="Layer_1">
</g>
</svg>
