<?xml version="1.0" encoding="iso-8859-1"?>
<!-- Generator: Adobe Illustrator 21.1.0, SVG Export Plug-In . SVG Version: 6.00 Build 0)  -->
<svg version="1.1" xmlns="http://www.w3.org/2000/svg" xmlns:xlink="http://www.w3.org/1999/xlink" x="0px" y="0px"
	 viewBox="0 0 50 50" style="enable-background:new 0 0 50 50;" xml:space="preserve">
<g id="RightOrientation">
	<path style="fill:#E1EFFF;" d="M25,50C11.215,50,0,38.785,0,25C0,11.215,11.215,0,25,0c13.785,0,25,11.215,25,25
		C50,38.785,38.785,50,25,50z"/>
	<path style="fill:#1C1E21;" d="M17.619,37.857c-0.526,0-0.952-0.426-0.952-0.952v-23.81c0-0.526,0.426-0.952,0.952-0.952h8.81
		c3.807,0,6.905,3.098,6.905,6.905s-3.098,6.905-6.905,6.905h-7.857v10.952C18.571,37.431,18.145,37.857,17.619,37.857z
		 M18.571,24.048h7.857c2.757,0,5-2.243,5-5s-2.243-5-5-5h-7.857V24.048z"/>
	<path style="fill:#1C1E21;" d="M32.382,37.857c-0.35,0-0.686-0.193-0.853-0.526l-5.952-11.905
		c-0.235-0.471-0.045-1.043,0.426-1.278c0.472-0.236,1.043-0.044,1.278,0.426l5.952,11.905c0.235,0.471,0.045,1.043-0.426,1.278
		C32.67,37.825,32.525,37.857,32.382,37.857z"/>
</g>
<g id="Layer_1">
</g>
</svg>
