<?xml version="1.0" encoding="iso-8859-1"?>
<!-- Generator: Adobe Illustrator 21.1.0, SVG Export Plug-In . SVG Version: 6.00 Build 0)  -->
<svg version="1.1" xmlns="http://www.w3.org/2000/svg" xmlns:xlink="http://www.w3.org/1999/xlink" x="0px" y="0px"
	 viewBox="0 0 50 50" style="enable-background:new 0 0 50 50;" xml:space="preserve">
<g id="Ruler">
	<path style="fill:#E1EFFF;" d="M25,50C11.215,50,0,38.785,0,25C0,11.215,11.215,0,25,0c13.785,0,25,11.215,25,25
		C50,38.785,38.785,50,25,50z"/>
	<path style="fill:#1C1E21;" d="M18.15,31.052c-0.244,0-0.488-0.093-0.673-0.279l-2.068-2.068c-0.372-0.372-0.372-0.975,0-1.347
		c0.372-0.372,0.975-0.372,1.347,0l2.068,2.068c0.372,0.372,0.372,0.975,0,1.347C18.638,30.959,18.394,31.052,18.15,31.052z"/>
	<path style="fill:#1C1E21;" d="M21.137,28.065c-0.244,0-0.487-0.093-0.673-0.279l-2.068-2.067c-0.372-0.372-0.372-0.975,0-1.347
		c0.372-0.372,0.975-0.372,1.347,0l2.068,2.067c0.372,0.372,0.372,0.975,0,1.347C21.625,27.972,21.381,28.065,21.137,28.065z"/>
	<path style="fill:#1C1E21;" d="M27.112,22.09c-0.244,0-0.487-0.093-0.673-0.279l-2.067-2.068c-0.372-0.372-0.372-0.975,0-1.347
		c0.372-0.372,0.975-0.372,1.347,0l2.067,2.068c0.372,0.372,0.372,0.975,0,1.347C27.6,21.997,27.356,22.09,27.112,22.09z"/>
	<path style="fill:#1C1E21;" d="M30.1,19.102c-0.244,0-0.487-0.093-0.673-0.279l-2.068-2.068c-0.372-0.372-0.372-0.975,0-1.347
		c0.372-0.372,0.975-0.372,1.347,0l2.068,2.068c0.372,0.372,0.372,0.975,0,1.347C30.587,19.009,30.343,19.102,30.1,19.102z"/>
	<path style="fill:#1C1E21;" d="M25.222,26.175c-0.244,0-0.488-0.093-0.673-0.279l-3.165-3.165c-0.372-0.372-0.372-0.975,0-1.347
		c0.372-0.372,0.975-0.372,1.347,0l3.165,3.165c0.372,0.372,0.372,0.975,0,1.347C25.71,26.082,25.466,26.175,25.222,26.175z"/>
	<path style="fill:#1C1E21;" d="M18.98,37.857c-0.244,0-0.487-0.093-0.673-0.279l-5.885-5.885c-0.179-0.179-0.279-0.421-0.279-0.673
		c0-0.253,0.1-0.495,0.279-0.673l17.925-17.925c0.357-0.357,0.99-0.357,1.347,0l5.885,5.885c0.372,0.372,0.372,0.975,0,1.347
		L19.654,37.578C19.468,37.764,19.224,37.857,18.98,37.857z M14.442,31.02l4.538,4.538L35.558,18.98l-4.538-4.538L14.442,31.02z"/>
</g>
<g id="Layer_1">
</g>
</svg>
