<svg id="Layer_1" data-name="Layer 1" xmlns="http://www.w3.org/2000/svg" xmlns:xlink="http://www.w3.org/1999/xlink" viewBox="0 0 612 612"><defs><style>.cls-1,.cls-2,.cls-3,.cls-4,.cls-5,.cls-6{stroke:#232323;stroke-miterlimit:10;stroke-width:1.8px;}.cls-1{fill:url(#linear-gradient);}.cls-2{fill:url(#linear-gradient-2);}.cls-3{fill:url(#linear-gradient-3);}.cls-4{fill:url(#linear-gradient-4);}.cls-5{fill:url(#linear-gradient-5);}.cls-6{fill:url(#linear-gradient-6);}</style><linearGradient id="linear-gradient" x1="306" y1="32.3" x2="306" y2="579.7" gradientUnits="userSpaceOnUse"><stop offset="0" stop-color="#fafafa"/><stop offset="1" stop-color="#ebebeb"/></linearGradient><linearGradient id="linear-gradient-2" x1="306" y1="306" x2="306" y2="579.7" xlink:href="#linear-gradient"/><linearGradient id="linear-gradient-3" x1="260.38" y1="32.3" x2="260.38" y2="242.35" xlink:href="#linear-gradient"/><linearGradient id="linear-gradient-4" x1="162.79" y1="32.3" x2="162.79" y2="242.34" xlink:href="#linear-gradient"/><linearGradient id="linear-gradient-5" x1="307.06" y1="382.38" x2="307.06" y2="512.34" xlink:href="#linear-gradient"/><linearGradient id="linear-gradient-6" x1="303.96" y1="382.38" x2="303.96" y2="518.17" xlink:href="#linear-gradient"/></defs><path class="cls-1" d="M558.49,579.7h-505A21.25,21.25,0,0,1,32.3,558.49v-505A21.25,21.25,0,0,1,53.51,32.3H393c17,0,36.07,6.36,48.8,19.09L556.36,157.48A67.75,67.75,0,0,1,579.7,208.4v348C579.7,569.09,569.1,579.7,558.49,579.7ZM72.61,539.39H539.39V210.52c0-8.49-4.24-17-10.61-21.21L414.21,83.22h0C407.84,79,401.48,74.73,393,74.73H72.61Z"/><path class="cls-2" d="M465.13,579.7H146.87a21.26,21.26,0,0,1-21.22-21.21V327.22A21.27,21.27,0,0,1,146.87,306H465.13a21.27,21.27,0,0,1,21.22,21.22V560.61C486.35,569.09,475.74,579.7,465.13,579.7Zm-297-40.31H446v-191h-278Z"/><path class="cls-3" d="M388.75,242.35H132a21.27,21.27,0,0,1-21.22-21.22V53.51A21.26,21.26,0,0,1,132,32.3H388.75A21.25,21.25,0,0,1,410,53.51V221.13C407.84,231.74,399.36,242.35,388.75,242.35ZM151.11,202H367.53V74.73H151.11Z"/><path class="cls-4" d="M193.55,32.3H132a21.25,21.25,0,0,0-21.21,21.21V221.13A21.25,21.25,0,0,0,132,242.34h61.53c10.6,0,21.22-10.6,21.22-21.21V53.51A21.27,21.27,0,0,0,193.55,32.3ZM172.33,202H151.11V74.73h21.22Z"/><path class="cls-5" d="M261.44,499.08a16.22,16.22,0,0,1-4.24-10.61c0-6.37,6.37-12.73,12.73-12.73,4.24,0,6.37,2.12,8.49,2.12,10.6,6.36,21.21,10.61,31.82,10.61s19.1-4.25,19.1-12.73h0c0-6.37-4.25-10.61-25.46-17-25.46-6.36-42.44-12.73-42.44-38.19h0c0-23.34,19.1-38.19,44.56-38.19,14.85,0,29.7,4.25,40.31,10.61,2.12,2.12,6.37,6.37,6.37,10.61,0,6.36-6.37,12.73-12.74,12.73-2.12,0-4.24,0-6.36-2.12-8.49-6.37-17-8.49-27.58-8.49s-17,4.25-17,10.61h0c0,8.49,6.37,10.61,27.59,17,25.46,6.36,40.31,17,40.31,38.18h0c0,25.47-19.09,40.32-46.68,40.32C291.15,513.93,274.17,509.69,261.44,499.08Z"/><path class="cls-6" d="M308.12,518.17c-17,0-36.07-6.36-48.8-14.85-4.24-2.12-6.36-8.49-6.36-12.73a14.5,14.5,0,0,1,14.85-14.85c4.24,0,6.37,0,8.49,2.12,10.61,6.36,21.21,10.61,31.82,10.61S323,484.22,323,480s-2.12-8.49-23.34-14.85c-23.34-6.37-44.56-12.73-44.56-42.44,0-25.46,19.1-40.31,46.68-40.31,14.85,0,29.71,4.24,42.43,10.61q6.38,3.18,6.37,12.73a14.5,14.5,0,0,1-14.86,14.85c-2.12,0-6.36,0-8.48-2.12A40.81,40.81,0,0,0,301.76,410c-8.49,0-14.86,4.25-14.86,8.49,0,6.36,2.13,8.49,25.46,14.85,25.46,6.37,42.44,17,42.44,40.32C356.92,501.2,337.83,518.17,308.12,518.17Zm-40.31-40.31c-6.37,0-10.61,4.24-10.61,10.61,0,4.24,2.12,6.36,4.25,8.49h0c12.73,10.6,29.7,14.85,46.67,14.85,27.58,0,44.56-14.85,44.56-36.07,0-19.09-10.61-29.7-38.19-36.07-21.22-6.36-29.7-8.49-29.7-19.09,0-6.37,4.24-14.86,19.09-14.86,8.49,0,17,2.12,27.59,8.49,2.12,2.12,4.24,2.12,6.36,2.12,6.36,0,10.61-4.24,10.61-10.61s-4.25-8.48-4.25-8.48A79.36,79.36,0,0,0,306,386.63c-25.46,0-42.43,14.85-42.43,36.07,0,23.34,12.73,29.7,40.31,36.06,21.22,6.37,27.58,10.61,27.58,19.1s-8.48,14.85-21.21,14.85S286.91,488.47,276.3,480C272.05,480,269.93,477.86,267.81,477.86Z"/></svg>