<?xml version="1.0" encoding="iso-8859-1"?>
<!-- Generator: Adobe Illustrator 21.1.0, SVG Export Plug-In . SVG Version: 6.00 Build 0)  -->
<svg version="1.1" xmlns="http://www.w3.org/2000/svg" xmlns:xlink="http://www.w3.org/1999/xlink" x="0px" y="0px"
	 viewBox="0 0 50 50" style="enable-background:new 0 0 50 50;" xml:space="preserve">
<g id="SaveStudyLayout">
	<path style="fill:#E1EFFF;" d="M25,50C11.215,50,0,38.785,0,25C0,11.215,11.215,0,25,0c13.785,0,25,11.215,25,25
		C50,38.785,38.785,50,25,50z"/>
	<path style="fill:#1C1E21;" d="M36.905,37.857h-23.81c-0.526,0-0.952-0.426-0.952-0.952v-23.81c0-0.526,0.426-0.952,0.952-0.952
		h16.028c0.846,0,1.652,0.317,2.271,0.893l5.401,5.025c0.675,0.629,1.063,1.518,1.063,2.44v16.404
		C37.857,37.431,37.431,37.857,36.905,37.857z M14.048,35.952h21.905V20.501c0-0.395-0.166-0.777-0.455-1.046l-5.401-5.025v0
		c-0.265-0.247-0.611-0.382-0.973-0.382H14.048V35.952z"/>
	<path style="fill:#1C1E21;" d="M32.5,37.857h-15c-0.526,0-0.952-0.426-0.952-0.952V25.952c0-0.526,0.426-0.952,0.952-0.952h15
		c0.526,0,0.952,0.426,0.952,0.952v10.952C33.452,37.431,33.026,37.857,32.5,37.857z M18.452,35.952h13.095v-9.048H18.452V35.952z"
		/>
	<path style="fill:#1C1E21;" d="M28.869,21.964H16.786c-0.526,0-0.952-0.426-0.952-0.952v-7.917c0-0.526,0.426-0.952,0.952-0.952
		h12.083c0.526,0,0.952,0.426,0.952,0.952v7.917C29.821,21.538,29.395,21.964,28.869,21.964z M17.738,20.06h10.179v-6.012H17.738
		V20.06z"/>
	<rect x="16.786" y="13.095" style="fill:#1C1E21;" width="2.917" height="7.917"/>
	<path style="fill:#1C1E21;" d="M19.702,21.964h-2.917c-0.526,0-0.952-0.426-0.952-0.952v-7.917c0-0.526,0.426-0.952,0.952-0.952
		h2.917c0.526,0,0.952,0.426,0.952,0.952v7.917C20.655,21.538,20.228,21.964,19.702,21.964z M17.738,20.06h1.012v-6.012h-1.012
		V20.06z"/>
	<path style="fill:#1C1E21;" d="M22.857,34.127c-0.146-0.103-0.249-0.292-0.249-0.498c0-0.343,0.274-0.609,0.617-0.609
		c0.171,0,0.292,0.06,0.377,0.12c0.455,0.334,0.952,0.54,1.535,0.54c0.54,0,0.866-0.214,0.866-0.566v-0.017
		c0-0.334-0.206-0.506-1.209-0.763c-1.209-0.309-1.989-0.643-1.989-1.835v-0.017c0-1.089,0.874-1.809,2.101-1.809
		c0.729,0,1.363,0.189,1.903,0.532c0.146,0.086,0.292,0.266,0.292,0.523c0,0.343-0.274,0.609-0.617,0.609
		c-0.129,0-0.232-0.034-0.335-0.094c-0.437-0.257-0.848-0.403-1.26-0.403c-0.506,0-0.772,0.232-0.772,0.523v0.017
		c0,0.395,0.257,0.523,1.295,0.789c1.217,0.317,1.903,0.754,1.903,1.801v0.017c0,1.192-0.909,1.861-2.204,1.861
		C24.324,34.847,23.526,34.607,22.857,34.127z"/>
	<path style="fill:#1C1E21;" d="M25.112,34.966c-0.832,0-1.657-0.264-2.324-0.742c-0.184-0.13-0.298-0.358-0.298-0.594
		c0-0.408,0.323-0.728,0.736-0.728c0.164,0,0.31,0.047,0.445,0.141c0.475,0.35,0.954,0.519,1.466,0.519
		c0.468,0,0.747-0.167,0.747-0.447c0-0.242-0.075-0.397-1.119-0.665c-1.137-0.291-2.079-0.638-2.079-1.95
		c0-1.153,0.913-1.946,2.22-1.946c0.731,0,1.392,0.185,1.967,0.55c0.166,0.098,0.347,0.314,0.347,0.624
		c0,0.408-0.323,0.728-0.736,0.728c-0.141,0-0.263-0.034-0.395-0.111c-0.448-0.264-0.83-0.386-1.2-0.386
		c-0.396,0-0.653,0.159-0.653,0.404c0,0.308,0.142,0.418,1.205,0.691c1.196,0.312,1.993,0.757,1.993,1.916
		C27.435,34.189,26.523,34.966,25.112,34.966z M23.226,33.139c-0.279,0-0.498,0.215-0.498,0.49c0,0.158,0.078,0.315,0.198,0.4l0,0
		c0.627,0.45,1.403,0.698,2.186,0.698c1.286,0,2.084-0.667,2.084-1.742c0-0.901-0.492-1.357-1.814-1.702
		c-1.004-0.258-1.384-0.402-1.384-0.904c0-0.313,0.233-0.659,0.891-0.659c0.409,0,0.841,0.137,1.32,0.419
		c0.094,0.055,0.176,0.078,0.274,0.078c0.279,0,0.498-0.215,0.498-0.49c0-0.263-0.178-0.388-0.233-0.42
		c-0.539-0.343-1.158-0.515-1.843-0.515c-1.185,0-1.981,0.679-1.981,1.69c0,1.066,0.612,1.408,1.9,1.736
		c1.007,0.258,1.298,0.455,1.298,0.878c0,0.44-0.378,0.702-0.985,0.702c-0.565,0-1.09-0.184-1.605-0.564
		C23.439,33.171,23.341,33.139,23.226,33.139z"/>
</g>
<g id="Layer_1">
</g>
</svg>
