<svg id="Layer_1" data-name="Layer 1" xmlns="http://www.w3.org/2000/svg" xmlns:xlink="http://www.w3.org/1999/xlink" viewBox="0 0 612 612"><defs><style>.cls-1,.cls-2{stroke:#232323;stroke-miterlimit:10;stroke-width:1.8px;}.cls-1{opacity:0.6;isolation:isolate;fill:url(#linear-gradient);}.cls-2{fill:url(#linear-gradient-2);}</style><linearGradient id="linear-gradient" x1="306" y1="31.4" x2="306" y2="580.6" gradientUnits="userSpaceOnUse"><stop offset="0" stop-color="#fafafa"/><stop offset="1" stop-color="#ebebeb"/></linearGradient><linearGradient id="linear-gradient-2" x1="305.99" y1="278.03" x2="305.99" y2="524.66" xlink:href="#linear-gradient"/></defs><g id="SaveLayout"><path class="cls-1" d="M557.77,157.8,442.47,50.48A70.89,70.89,0,0,0,394,31.4H51.87A20.34,20.34,0,0,0,31.54,51.74V560.26A20.34,20.34,0,0,0,51.87,580.6H560.13a20.34,20.34,0,0,0,20.33-20.34V209.91A71.46,71.46,0,0,0,557.77,157.8ZM213.23,72.08h155V200.49h-155ZM539.79,539.92H507.61V356.85A50.91,50.91,0,0,0,456.79,306H408.93a20.34,20.34,0,0,0,0,40.68h47.86A10.16,10.16,0,0,1,467,356.85V539.92H145.05V356.85a10.16,10.16,0,0,1,10.16-10.17h47.86a20.34,20.34,0,0,0,0-40.68H155.21a50.91,50.91,0,0,0-50.82,50.85V539.92H72.2V72.08h38.12V220.83a20.34,20.34,0,0,0,20.33,20.34h258a20.34,20.34,0,0,0,20.33-20.34V76.09a30.63,30.63,0,0,1,5.88,4.17h0L530.09,187.58a30.56,30.56,0,0,1,9.72,22.33v330Z"/><path class="cls-2" d="M408.91,524.66H203.07a20.34,20.34,0,0,1-20.33-20.34V298.37A20.34,20.34,0,0,1,203.07,278H408.91a20.34,20.34,0,0,1,20.33,20.34v206A20.33,20.33,0,0,1,408.91,524.66ZM223.4,484H388.58V318.71H223.4Z"/></g></svg>