<svg id="Layer_1" data-name="Layer 1" xmlns="http://www.w3.org/2000/svg" xmlns:xlink="http://www.w3.org/1999/xlink" viewBox="0 0 612 612"><defs><style>.cls-1{stroke:#232323;stroke-miterlimit:10;stroke-width:1.8px;fill:url(#linear-gradient);}</style><linearGradient id="linear-gradient" x1="306" y1="32.3" x2="306" y2="579.7" gradientUnits="userSpaceOnUse"><stop offset="0" stop-color="#fafafa"/><stop offset="1" stop-color="#ebebeb"/></linearGradient></defs><path id="SaveStudyLayout" class="cls-1" d="M556.94,158.28,442,51.31a70.73,70.73,0,0,0-48.31-19h-341A20.28,20.28,0,0,0,32.44,52.57V559.43A20.28,20.28,0,0,0,52.71,579.7H559.29a20.28,20.28,0,0,0,20.27-20.27V210.22A71.22,71.22,0,0,0,556.94,158.28ZM213.54,72.84H368.05v128H213.54ZM445.31,539.15H166.69V346.55H445.31Zm93.72,0H485.84V326.27A20.28,20.28,0,0,0,465.57,306H146.42a20.27,20.27,0,0,0-20.26,20.27V539.15H73V72.84h38V221.11a20.28,20.28,0,0,0,20.27,20.28h257.1a20.28,20.28,0,0,0,20.26-20.28V76.84A30.39,30.39,0,0,1,414.45,81h0L529.36,188a30.49,30.49,0,0,1,9.69,22.27V539.15ZM308.94,488.26c-10.9,0-21.1-3.61-31.21-11a16,16,0,0,0-9.48-3,15.4,15.4,0,0,0-15.67,15.49,15.65,15.65,0,0,0,6.35,12.64,85.43,85.43,0,0,0,49.44,15.8c30,0,49.42-16.55,49.42-42.5,0-24.67-16.94-34.16-42.41-40.79-22.61-5.8-25.63-8.13-25.63-14.7,0-5.23,5.45-8.59,13.88-8.59,7.88,0,16,2.61,25.53,8.23a15.81,15.81,0,0,0,8.41,2.35,15.54,15.54,0,0,0,8.29-28.76c-12.24-7.77-26.3-11.73-41.85-11.73-27.8,0-47.23,16.89-47.23,41.43,0,27.93,20,35.32,44.24,41.49,22.2,5.7,23.81,9,23.81,14.16C324.83,484.7,318.89,488.26,308.94,488.26Z"/></svg>