<svg id="Layer_1" data-name="Layer 1" xmlns="http://www.w3.org/2000/svg" xmlns:xlink="http://www.w3.org/1999/xlink" viewBox="0 0 612 612"><defs><style>.cls-1,.cls-2,.cls-3,.cls-4{stroke:#232323;stroke-miterlimit:10;stroke-width:1.79px;}.cls-1{fill:url(#linear-gradient);}.cls-2{fill:url(#linear-gradient-2);}.cls-3{fill:url(#linear-gradient-3);}.cls-4{fill:url(#linear-gradient-4);}</style><linearGradient id="linear-gradient" x1="93" y1="33.07" x2="93" y2="578.92" gradientUnits="userSpaceOnUse"><stop offset="0" stop-color="#fafafa"/><stop offset="1" stop-color="#ebebeb"/></linearGradient><linearGradient id="linear-gradient-2" x1="519" y1="33.07" x2="519" y2="578.93" xlink:href="#linear-gradient"/><linearGradient id="linear-gradient-3" x1="254.8" y1="127.42" x2="254.8" y2="258.92" xlink:href="#linear-gradient"/><linearGradient id="linear-gradient-4" x1="306" y1="86.98" x2="306" y2="525.02" xlink:href="#linear-gradient"/></defs><path class="cls-1" d="M103.94,73.51h28.63a20.22,20.22,0,0,0,0-40.44H103.94a70.82,70.82,0,0,0-70.72,70.76V508.17a70.81,70.81,0,0,0,70.72,70.75h28.63a20.22,20.22,0,0,0,0-40.43H103.94a30.36,30.36,0,0,1-30.31-30.33V103.83A30.35,30.35,0,0,1,103.94,73.51Z"/><path class="cls-2" d="M508.06,33.07H479.43a20.22,20.22,0,0,0,0,40.44h28.63a30.35,30.35,0,0,1,30.31,30.32V508.17a30.35,30.35,0,0,1-30.31,30.32H479.43a20.22,20.22,0,0,0,0,40.44h28.63a70.82,70.82,0,0,0,70.72-70.76V103.83A70.82,70.82,0,0,0,508.06,33.07Z"/><path class="cls-3" d="M285.81,165.44v60.73A20.25,20.25,0,0,0,298.64,245v13.91H211V186.71a59.35,59.35,0,0,1,59.27-59.29h28.41v19.2A20.24,20.24,0,0,0,285.81,165.44Z"/><path class="cls-4" d="M341.76,87H270.23a99.81,99.81,0,0,0-99.67,99.73V425.26A99.84,99.84,0,0,0,270.23,525h71.53a99.83,99.83,0,0,0,99.68-99.76V186.71A99.81,99.81,0,0,0,341.76,87ZM211,186.71a59.35,59.35,0,0,1,59.27-59.29h28.41v19.2a20.24,20.24,0,0,0-12.83,18.82v60.73A20.25,20.25,0,0,0,298.64,245v13.91H211ZM401,425.26a59.35,59.35,0,0,1-59.26,59.32H270.23A59.36,59.36,0,0,1,211,425.26V299.32H401ZM313.36,258.92V245a20.25,20.25,0,0,0,12.83-18.84V165.44a20.22,20.22,0,0,0-12.83-18.82v-19.2h28.4A59.35,59.35,0,0,1,401,186.71v72.21Z"/></svg>