<?xml version="1.0" encoding="iso-8859-1"?>
<!-- Generator: Adobe Illustrator 21.1.0, SVG Export Plug-In . SVG Version: 6.00 Build 0)  -->
<svg version="1.1" xmlns="http://www.w3.org/2000/svg" xmlns:xlink="http://www.w3.org/1999/xlink" x="0px" y="0px"
	 viewBox="0 0 50 50" style="enable-background:new 0 0 50 50;" xml:space="preserve">
<g id="ScrollRow">
	<path style="fill:#E1EFFF;" d="M25,50C11.215,50,0,38.785,0,25C0,11.215,11.215,0,25,0c13.785,0,25,11.215,25,25
		C50,38.785,38.785,50,25,50z"/>
	<path style="fill:#1C1E21;" d="M13.095,37.857c-0.526,0-0.952-0.426-0.952-0.952v-23.81c0-0.526,0.426-0.952,0.952-0.952
		c0.526,0,0.952,0.426,0.952,0.952v23.81C14.048,37.431,13.621,37.857,13.095,37.857z"/>
	<path style="fill:#1C1E21;" d="M36.905,37.857c-0.526,0-0.952-0.426-0.952-0.952v-23.81c0-0.526,0.426-0.952,0.952-0.952
		s0.952,0.426,0.952,0.952v23.81C37.857,37.431,37.431,37.857,36.905,37.857z"/>
	<path style="fill:#1C1E21;" d="M30.397,31.151H19.603c-0.526,0-0.952-0.426-0.952-0.952c0-0.526,0.426-0.952,0.952-0.952h10.794
		c0.526,0,0.952,0.426,0.952,0.952C31.349,30.725,30.923,31.151,30.397,31.151z"/>
	<path style="fill:#1C1E21;" d="M22.713,34.261c-0.244,0-0.487-0.093-0.673-0.279l-3.11-3.11c-0.179-0.179-0.279-0.421-0.279-0.673
		c0-0.253,0.1-0.495,0.279-0.673l3.11-3.111c0.372-0.372,0.975-0.372,1.347,0c0.372,0.372,0.372,0.975,0,1.347l-2.437,2.437
		l2.437,2.437c0.372,0.372,0.372,0.975,0,1.347C23.201,34.168,22.957,34.261,22.713,34.261z"/>
	<path style="fill:#1C1E21;" d="M30.397,20.754H19.603c-0.526,0-0.952-0.426-0.952-0.952c0-0.526,0.426-0.952,0.952-0.952h10.794
		c0.526,0,0.952,0.426,0.952,0.952C31.349,20.328,30.923,20.754,30.397,20.754z"/>
	<path style="fill:#1C1E21;" d="M27.287,23.864c-0.244,0-0.487-0.093-0.673-0.279c-0.372-0.372-0.372-0.975,0-1.347l2.437-2.437
		l-2.437-2.437c-0.372-0.372-0.372-0.975,0-1.347c0.372-0.372,0.975-0.372,1.347,0l3.11,3.11c0.372,0.372,0.372,0.975,0,1.347
		l-3.11,3.11C27.774,23.771,27.53,23.864,27.287,23.864z"/>
</g>
<g id="Layer_1">
</g>
</svg>
