<svg id="Layer_1" data-name="Layer 1" xmlns="http://www.w3.org/2000/svg" xmlns:xlink="http://www.w3.org/1999/xlink" viewBox="0 0 612 612"><defs><style>.cls-1{stroke:#232323;stroke-miterlimit:10;stroke-width:1.81px;fill:url(#linear-gradient);}</style><linearGradient id="linear-gradient" x1="306" y1="40.23" x2="306" y2="571.77" gradientUnits="userSpaceOnUse"><stop offset="0" stop-color="#fafafa"/><stop offset="1" stop-color="#ebebeb"/></linearGradient></defs><path id="ScrollFrame" class="cls-1" d="M561.43,40.23H50.58A20.45,20.45,0,0,0,30.14,60.67V398a20.45,20.45,0,0,0,20.44,20.45H561.42A20.45,20.45,0,0,0,581.86,398V60.67A20.44,20.44,0,0,0,561.43,40.23ZM541,377.57H71V81.12H541V377.57ZM306,468.28A51.75,51.75,0,1,0,357.72,520,51.72,51.72,0,0,0,306,468.28ZM148.27,487.7a32.35,32.35,0,1,0,32.33,32.35A32.33,32.33,0,0,0,148.27,487.7Zm315.46,0a32.35,32.35,0,1,0,32.32,32.35A32.33,32.33,0,0,0,463.73,487.7Z"/></svg>