<?xml version="1.0" encoding="iso-8859-1"?>
<!-- Generator: Adobe Illustrator 21.1.0, SVG Export Plug-In . SVG Version: 6.00 Build 0)  -->
<svg version="1.1" xmlns="http://www.w3.org/2000/svg" xmlns:xlink="http://www.w3.org/1999/xlink" x="0px" y="0px"
	 viewBox="0 0 50 50" style="enable-background:new 0 0 50 50;" xml:space="preserve">
<g id="ScrollColumn">
	<path style="fill:#E1EFFF;" d="M25,50C11.215,50,0,38.785,0,25C0,11.215,11.215,0,25,0c13.785,0,25,11.215,25,25
		C50,38.785,38.785,50,25,50z"/>
	<path style="fill:#1C1E21;" d="M36.905,14.048h-23.81c-0.526,0-0.952-0.426-0.952-0.952c0-0.526,0.426-0.952,0.952-0.952h23.81
		c0.526,0,0.952,0.426,0.952,0.952C37.857,13.621,37.431,14.048,36.905,14.048z"/>
	<path style="fill:#1C1E21;" d="M36.905,37.857h-23.81c-0.526,0-0.952-0.426-0.952-0.952s0.426-0.952,0.952-0.952h23.81
		c0.526,0,0.952,0.426,0.952,0.952S37.431,37.857,36.905,37.857z"/>
	<path style="fill:#1C1E21;" d="M19.802,31.349c-0.526,0-0.952-0.426-0.952-0.952V19.603c0-0.526,0.426-0.952,0.952-0.952
		c0.526,0,0.952,0.426,0.952,0.952v10.794C20.754,30.923,20.328,31.349,19.802,31.349z"/>
	<path style="fill:#1C1E21;" d="M16.691,23.666c-0.244,0-0.488-0.093-0.673-0.279c-0.372-0.372-0.372-0.975,0-1.347l3.11-3.11
		c0.179-0.179,0.421-0.279,0.673-0.279l0,0c0.253,0,0.495,0.1,0.673,0.279l3.11,3.11c0.372,0.372,0.372,0.975,0,1.347
		c-0.372,0.372-0.975,0.372-1.347,0l-2.437-2.437l-2.437,2.437C17.179,23.573,16.935,23.666,16.691,23.666z"/>
	<path style="fill:#1C1E21;" d="M30.199,31.349c-0.526,0-0.952-0.426-0.952-0.952V19.603c0-0.526,0.426-0.952,0.952-0.952
		c0.526,0,0.952,0.426,0.952,0.952v10.794C31.151,30.923,30.725,31.349,30.199,31.349z"/>
	<path style="fill:#1C1E21;" d="M30.199,31.349c-0.244,0-0.487-0.093-0.673-0.279l-3.111-3.11c-0.372-0.372-0.372-0.975,0-1.347
		c0.372-0.372,0.975-0.372,1.347,0l2.437,2.437l2.437-2.437c0.372-0.372,0.975-0.372,1.347,0c0.372,0.372,0.372,0.975,0,1.347
		l-3.11,3.11C30.686,31.256,30.442,31.349,30.199,31.349z"/>
</g>
<g id="Layer_1">
</g>
</svg>
