<?xml version="1.0" encoding="iso-8859-1"?>
<!-- Generator: Adobe Illustrator 21.1.0, SVG Export Plug-In . SVG Version: 6.00 Build 0)  -->
<svg version="1.1" xmlns="http://www.w3.org/2000/svg" xmlns:xlink="http://www.w3.org/1999/xlink" x="0px" y="0px"
	 viewBox="0 0 50 50" style="enable-background:new 0 0 50 50;" xml:space="preserve">
<g id="SecondaryCapture">
	<path style="fill:#E1EFFF;" d="M25,50C11.215,50,0,38.785,0,25C0,11.215,11.215,0,25,0c13.785,0,25,11.215,25,25
		C50,38.785,38.785,50,25,50z"/>
	<path style="fill:#1C1E21;" d="M25,33.991c-2.631,0-5.262-1.002-7.265-3.005l0,0l-5.313-5.313c-0.372-0.372-0.372-0.975,0-1.347
		l5.313-5.313c1.941-1.941,4.521-3.009,7.265-3.009c2.744,0,5.324,1.069,7.265,3.009l5.313,5.313
		c0.179,0.179,0.279,0.421,0.279,0.673s-0.1,0.495-0.279,0.673l-5.313,5.313C30.262,32.99,27.631,33.991,25,33.991z M19.082,29.64
		c3.264,3.263,8.573,3.263,11.836,0l4.64-4.64l-4.64-4.64c-1.581-1.581-3.683-2.451-5.918-2.451c-2.236,0-4.337,0.871-5.918,2.451
		L14.442,25L19.082,29.64z"/>
	<path style="fill:#1C1E21;" d="M25,29.161c-2.294,0-4.161-1.867-4.161-4.161s1.867-4.161,4.161-4.161s4.161,1.867,4.161,4.161
		S27.294,29.161,25,29.161z M25,22.743c-1.244,0-2.257,1.012-2.257,2.257c0,1.244,1.012,2.256,2.257,2.256
		c1.244,0,2.256-1.012,2.256-2.256C27.256,23.756,26.244,22.743,25,22.743z"/>
	<path style="fill:#1C1E21;" d="M34.524,37.857H15.476c-1.838,0-3.333-1.496-3.333-3.333v-3.492c0-0.526,0.426-0.952,0.952-0.952
		c0.526,0,0.952,0.426,0.952,0.952v3.492c0,0.788,0.641,1.429,1.429,1.429h19.048c0.788,0,1.429-0.641,1.429-1.429v-3.492
		c0-0.526,0.426-0.952,0.952-0.952s0.952,0.426,0.952,0.952v3.492C37.857,36.362,36.362,37.857,34.524,37.857z"/>
	<path style="fill:#1C1E21;" d="M36.905,19.921c-0.526,0-0.952-0.426-0.952-0.952v-3.492c0-0.788-0.641-1.429-1.429-1.429H15.476
		c-0.788,0-1.429,0.641-1.429,1.429v3.492c0,0.526-0.426,0.952-0.952,0.952c-0.526,0-0.952-0.426-0.952-0.952v-3.492
		c0-1.838,1.495-3.333,3.333-3.333h19.048c1.838,0,3.333,1.495,3.333,3.333v3.492C37.857,19.494,37.431,19.921,36.905,19.921z"/>
</g>
<g id="Layer_1">
</g>
</svg>
