<?xml version="1.0" encoding="iso-8859-1"?>
<!-- Generator: Adobe Illustrator 21.1.0, SVG Export Plug-In . SVG Version: 6.00 Build 0)  -->
<svg version="1.1" xmlns="http://www.w3.org/2000/svg" xmlns:xlink="http://www.w3.org/1999/xlink" x="0px" y="0px"
	 viewBox="0 0 50 50" style="enable-background:new 0 0 50 50;" xml:space="preserve">
<g id="Settings3D">
	<path style="fill:#E1EFFF;" d="M25,50C11.215,50,0,38.785,0,25C0,11.215,11.215,0,25,0c13.785,0,25,11.215,25,25
		C50,38.785,38.785,50,25,50z"/>
	<path style="fill:#1C1E21;" d="M30.338,16.414c-0.181,0-0.354-0.103-0.434-0.279c-0.109-0.239-0.003-0.522,0.236-0.631l0.433-0.198
		c0.239-0.11,0.522-0.004,0.631,0.236c0.109,0.239,0.003,0.522-0.236,0.631l-0.433,0.198C30.471,16.4,30.404,16.414,30.338,16.414z"
		/>
	<path style="fill:#1C1E21;" d="M20.844,20.749c-0.181,0-0.353-0.103-0.433-0.279c-0.109-0.239-0.004-0.522,0.236-0.631l0.791-0.361
		c0.238-0.109,0.522-0.004,0.631,0.236c0.109,0.239,0.004,0.522-0.236,0.631l-0.791,0.361C20.977,20.735,20.91,20.749,20.844,20.749
		z M23.217,19.665c-0.181,0-0.353-0.103-0.433-0.279c-0.109-0.239-0.004-0.522,0.235-0.631l0.791-0.361
		c0.239-0.109,0.522-0.004,0.631,0.235c0.109,0.239,0.004,0.522-0.235,0.631l-0.791,0.361
		C23.351,19.651,23.284,19.665,23.217,19.665z M25.591,18.581c-0.181,0-0.354-0.103-0.434-0.278
		c-0.109-0.239-0.004-0.522,0.235-0.631l0.791-0.361c0.238-0.11,0.521-0.004,0.631,0.235s0.004,0.522-0.235,0.631l-0.791,0.361
		C25.725,18.568,25.657,18.581,25.591,18.581z M27.965,17.498c-0.181,0-0.354-0.103-0.434-0.279
		c-0.109-0.239-0.004-0.522,0.236-0.631l0.791-0.361c0.239-0.11,0.522-0.004,0.631,0.236c0.109,0.239,0.004,0.522-0.236,0.631
		l-0.791,0.361C28.098,17.484,28.031,17.498,27.965,17.498z"/>
	<path style="fill:#1C1E21;" d="M18.828,22.145c-0.263,0-0.476-0.213-0.476-0.476v-0.476c0-0.186,0.109-0.356,0.279-0.433
		l0.433-0.198c0.238-0.109,0.522-0.004,0.631,0.236c0.109,0.239,0.004,0.522-0.236,0.631l-0.155,0.071v0.17
		C19.304,21.932,19.091,22.145,18.828,22.145z"/>
	<path style="fill:#1C1E21;" d="M18.828,32.375c-0.263,0-0.476-0.213-0.476-0.476v-0.852c0-0.263,0.213-0.476,0.476-0.476
		s0.476,0.213,0.476,0.476v0.852C19.304,32.162,19.091,32.375,18.828,32.375z M18.828,29.817c-0.263,0-0.476-0.213-0.476-0.476
		v-0.852c0-0.263,0.213-0.476,0.476-0.476s0.476,0.213,0.476,0.476v0.852C19.304,29.604,19.091,29.817,18.828,29.817z M18.828,27.26
		c-0.263,0-0.476-0.213-0.476-0.476v-0.853c0-0.263,0.213-0.476,0.476-0.476s0.476,0.213,0.476,0.476v0.853
		C19.304,27.047,19.091,27.26,18.828,27.26z M18.828,24.702c-0.263,0-0.476-0.213-0.476-0.476v-0.853
		c0-0.263,0.213-0.476,0.476-0.476s0.476,0.213,0.476,0.476v0.853C19.304,24.489,19.091,24.702,18.828,24.702z"/>
	<path style="fill:#1C1E21;" d="M18.828,34.556c-0.263,0-0.476-0.213-0.476-0.476v-0.476c0-0.263,0.213-0.476,0.476-0.476
		s0.476,0.213,0.476,0.476v0.476C19.304,34.343,19.091,34.556,18.828,34.556z"/>
	<path style="fill:#1C1E21;" d="M19.261,16.414c-0.066,0-0.133-0.014-0.197-0.043l-0.433-0.198
		c-0.239-0.109-0.345-0.392-0.236-0.631c0.109-0.24,0.392-0.345,0.631-0.236l0.433,0.198c0.239,0.109,0.345,0.392,0.236,0.631
		C19.614,16.311,19.442,16.414,19.261,16.414z"/>
	<path style="fill:#1C1E21;" d="M28.755,20.749c-0.066,0-0.133-0.014-0.197-0.043l-0.791-0.361
		c-0.239-0.109-0.345-0.392-0.236-0.631c0.109-0.239,0.392-0.345,0.631-0.235l0.791,0.361c0.239,0.109,0.345,0.392,0.236,0.631
		C29.109,20.645,28.936,20.749,28.755,20.749z M26.382,19.665c-0.066,0-0.133-0.014-0.197-0.043l-0.792-0.361
		c-0.239-0.109-0.345-0.392-0.235-0.631c0.109-0.239,0.391-0.345,0.631-0.235l0.791,0.361c0.239,0.109,0.345,0.392,0.236,0.631
		C26.735,19.562,26.563,19.665,26.382,19.665z M24.008,18.581c-0.066,0-0.133-0.014-0.197-0.043l-0.791-0.361
		c-0.239-0.109-0.345-0.392-0.236-0.631c0.109-0.24,0.392-0.345,0.631-0.236l0.791,0.361c0.239,0.109,0.345,0.392,0.236,0.631
		C24.362,18.478,24.189,18.581,24.008,18.581z M21.635,17.498c-0.066,0-0.133-0.014-0.197-0.043l-0.791-0.361
		c-0.239-0.109-0.345-0.392-0.236-0.631c0.109-0.24,0.392-0.345,0.631-0.236l0.791,0.361c0.239,0.109,0.345,0.392,0.236,0.631
		C21.988,17.394,21.815,17.498,21.635,17.498z"/>
	<path style="fill:#1C1E21;" d="M30.771,22.145c-0.263,0-0.476-0.213-0.476-0.476v-0.17l-0.155-0.071
		c-0.239-0.109-0.345-0.392-0.236-0.631c0.109-0.239,0.392-0.345,0.631-0.236l0.433,0.198c0.17,0.077,0.279,0.247,0.279,0.433v0.476
		C31.247,21.932,31.034,22.145,30.771,22.145z"/>
	<path style="fill:#1C1E21;" d="M30.771,32.375c-0.263,0-0.476-0.213-0.476-0.476v-0.852c0-0.263,0.213-0.476,0.476-0.476
		s0.476,0.213,0.476,0.476v0.852C31.247,32.162,31.034,32.375,30.771,32.375z M30.771,29.817c-0.263,0-0.476-0.213-0.476-0.476
		v-0.852c0-0.263,0.213-0.476,0.476-0.476s0.476,0.213,0.476,0.476v0.852C31.247,29.604,31.034,29.817,30.771,29.817z M30.771,27.26
		c-0.263,0-0.476-0.213-0.476-0.476v-0.853c0-0.263,0.213-0.476,0.476-0.476s0.476,0.213,0.476,0.476v0.853
		C31.247,27.047,31.034,27.26,30.771,27.26z M30.771,24.702c-0.263,0-0.476-0.213-0.476-0.476v-0.853
		c0-0.263,0.213-0.476,0.476-0.476s0.476,0.213,0.476,0.476v0.853C31.247,24.489,31.034,24.702,30.771,24.702z"/>
	<path style="fill:#1C1E21;" d="M30.771,34.556c-0.263,0-0.476-0.213-0.476-0.476v-0.476c0-0.263,0.213-0.476,0.476-0.476
		s0.476,0.213,0.476,0.476v0.476C31.247,34.343,31.034,34.556,30.771,34.556z"/>
	<path style="fill:#1C1E21;" d="M25.647,30.628c-0.181,0-0.353-0.103-0.433-0.278c-0.11-0.239-0.004-0.522,0.235-0.631l0.866-0.396
		c0.239-0.11,0.522-0.004,0.631,0.235c0.109,0.239,0.004,0.522-0.235,0.631l-0.866,0.396C25.78,30.614,25.713,30.628,25.647,30.628z
		 M23.915,30.448c-0.067,0-0.134-0.014-0.199-0.044l-0.865-0.398c-0.239-0.11-0.343-0.392-0.234-0.632
		c0.11-0.239,0.393-0.344,0.632-0.233l0.865,0.398c0.239,0.11,0.343,0.392,0.234,0.632C24.268,30.346,24.095,30.448,23.915,30.448z
		 M28.245,29.439c-0.181,0-0.353-0.103-0.433-0.278c-0.109-0.239-0.004-0.522,0.235-0.631l0.866-0.396
		c0.239-0.11,0.522-0.004,0.631,0.235c0.109,0.239,0.004,0.522-0.235,0.631l-0.866,0.396C28.378,29.425,28.311,29.439,28.245,29.439
		z M21.319,29.255c-0.066,0-0.134-0.014-0.199-0.044l-0.865-0.398c-0.239-0.11-0.344-0.392-0.234-0.631
		c0.11-0.239,0.393-0.344,0.632-0.234l0.865,0.398c0.239,0.11,0.344,0.392,0.234,0.632C21.672,29.152,21.499,29.255,21.319,29.255z
		 M30.843,28.25c-0.181,0-0.353-0.103-0.433-0.278c-0.109-0.239-0.004-0.522,0.235-0.631l0.866-0.396
		c0.239-0.11,0.522-0.004,0.631,0.235c0.109,0.239,0.004,0.522-0.235,0.631l-0.866,0.396C30.977,28.236,30.909,28.25,30.843,28.25z
		 M18.723,28.062c-0.066,0-0.134-0.014-0.199-0.044l-0.865-0.398c-0.239-0.11-0.344-0.392-0.234-0.631
		c0.11-0.239,0.393-0.344,0.632-0.234l0.865,0.398c0.239,0.11,0.344,0.392,0.234,0.631C19.076,27.959,18.903,28.062,18.723,28.062z
		 M33.441,27.061c-0.181,0-0.353-0.103-0.433-0.278c-0.109-0.239-0.004-0.522,0.235-0.631l0.866-0.396
		c0.239-0.11,0.522-0.004,0.631,0.235c0.109,0.239,0.004,0.522-0.235,0.631l-0.866,0.396C33.575,27.048,33.507,27.061,33.441,27.061
		z M16.127,26.869c-0.067,0-0.134-0.014-0.199-0.044l-0.865-0.398c-0.239-0.11-0.343-0.392-0.234-0.632
		c0.11-0.239,0.393-0.344,0.632-0.233l0.865,0.398c0.239,0.11,0.343,0.392,0.234,0.632C16.479,26.767,16.307,26.869,16.127,26.869z
		 M36.039,25.872c-0.181,0-0.353-0.103-0.433-0.278c-0.109-0.239-0.004-0.522,0.235-0.631l0.866-0.396
		c0.239-0.111,0.522-0.004,0.631,0.235c0.109,0.239,0.004,0.522-0.235,0.631l-0.866,0.396
		C36.173,25.858,36.105,25.872,36.039,25.872z M13.53,25.676c-0.066,0-0.134-0.014-0.199-0.043l-0.435-0.2
		c-0.239-0.11-0.344-0.392-0.234-0.632c0.11-0.239,0.393-0.343,0.632-0.234l0.435,0.2c0.239,0.11,0.344,0.392,0.234,0.632
		C13.883,25.573,13.71,25.676,13.53,25.676z"/>
	<path style="fill:#1C1E21;" d="M24.975,37.857c-0.179,0-0.358-0.051-0.514-0.15c-0.273-0.175-0.438-0.476-0.439-0.8l-0.028-12.891
		c-0.001-0.374,0.217-0.713,0.557-0.868l11.957-5.459c0.296-0.135,0.638-0.11,0.911,0.065c0.273,0.175,0.438,0.477,0.438,0.801
		v12.892c0,0.372-0.217,0.711-0.556,0.866l-11.929,5.459C25.245,37.829,25.11,37.857,24.975,37.857z M25.901,24.625l0.024,10.798
		l10.028-4.589V20.036L25.901,24.625z"/>
	<path style="fill:#1C1E21;" d="M24.975,37.857c-0.135,0-0.271-0.029-0.398-0.087l-11.88-5.459
		c-0.338-0.155-0.555-0.493-0.555-0.865V18.554c0-0.325,0.165-0.627,0.439-0.802c0.274-0.175,0.618-0.199,0.912-0.063l11.852,5.459
		c0.337,0.155,0.553,0.492,0.554,0.863l0.028,12.892c0.001,0.325-0.164,0.627-0.438,0.803
		C25.334,37.806,25.155,37.857,24.975,37.857z M14.048,30.835l9.972,4.582l-0.023-10.794l-9.949-4.582V30.835z"/>
	<path style="fill:#1C1E21;" d="M24.947,24.966c-0.136,0-0.272-0.029-0.399-0.087l-11.852-5.459
		c-0.338-0.156-0.554-0.494-0.554-0.866c0-0.372,0.218-0.71,0.556-0.865l11.929-5.459c0.252-0.115,0.542-0.115,0.794,0.001
		l11.88,5.459c0.339,0.156,0.555,0.494,0.555,0.867c0,0.372-0.218,0.711-0.557,0.865L25.343,24.88
		C25.217,24.937,25.082,24.966,24.947,24.966z M15.378,18.557l9.571,4.408l9.669-4.414l-9.594-4.408L15.378,18.557z"/>
</g>
<g id="Layer_1">
</g>
</svg>
