<svg id="Layer_1" data-name="Layer 1" xmlns="http://www.w3.org/2000/svg" xmlns:xlink="http://www.w3.org/1999/xlink" viewBox="0 0 612 612"><defs><style>.cls-1,.cls-2{stroke:#232323;stroke-miterlimit:10;stroke-width:1.8px;}.cls-1{opacity:0.6;isolation:isolate;fill:url(#linear-gradient);}.cls-2{fill:url(#linear-gradient-2);}</style><linearGradient id="linear-gradient" x1="305.97" y1="98.26" x2="305.97" y2="509.89" gradientUnits="userSpaceOnUse"><stop offset="0" stop-color="#fafafa"/><stop offset="1" stop-color="#ebebeb"/></linearGradient><linearGradient id="linear-gradient-2" x1="306" y1="31.66" x2="306" y2="580.34" xlink:href="#linear-gradient"/></defs><g id="Settings3D"><path class="cls-1" d="M419.8,122.82a10,10,0,0,0,4.2-.92l9.24-4.23a10.15,10.15,0,1,0-8.42-18.47l-9.24,4.23a10.15,10.15,0,0,0,4.22,19.39ZM230,188.18l-16.88,7.7a10.17,10.17,0,0,0,8.43,18.5l16.88-7.7a10.17,10.17,0,0,0-8.43-18.5Zm139.2-42.24a10.31,10.31,0,0,0,4.2-.92l16.88-7.7a10.15,10.15,0,1,0-8.42-18.47L365,126.55a10.15,10.15,0,0,0,4.22,19.39ZM179.38,211.31l-9.24,4.22a10.15,10.15,0,0,0-5.93,9.25v10.16a10.16,10.16,0,1,0,20.31,0v-3.62l3.29-1.5a10.17,10.17,0,0,0-8.43-18.51Zm-5,104.38a10.16,10.16,0,0,0-10.15,10.16v18.21a9.47,9.47,0,0,0,.51,2.54l-6.83-3.13a10.16,10.16,0,0,0-8.47,18.47l18.46,8.47a8.91,8.91,0,0,0,2.81.61,10.11,10.11,0,0,0-6.46,9.41v18.19a10.16,10.16,0,1,0,20.31,0V380.43a10,10,0,0,0-8.73-9.88,9.87,9.87,0,0,0,2.55-17.14,10.18,10.18,0,0,0,6.18-9.35V325.85A10.18,10.18,0,0,0,174.34,315.69Zm0-54.56a10.16,10.16,0,0,0-10.15,10.16v18.19a10.16,10.16,0,1,0,20.31,0V271.29A10.15,10.15,0,0,0,174.34,261.13Zm0,163.72A10.16,10.16,0,0,0,164.19,435V453.2a10.16,10.16,0,1,0,20.31,0V435A10.14,10.14,0,0,0,174.34,424.85Zm0,54.56a10.16,10.16,0,0,0-10.15,10.16v10.16a10.16,10.16,0,1,0,20.31,0V489.57A10.15,10.15,0,0,0,174.34,479.41Zm13.47-376-9.24-4.23a10.15,10.15,0,1,0-8.43,18.47l9.24,4.23a10,10,0,0,0,4.2.91,10.15,10.15,0,0,0,4.23-19.38Zm50.61,23.12-16.88-7.7a10.15,10.15,0,0,0-8.43,18.47L230,145a10,10,0,0,0,4.2.92,10.15,10.15,0,0,0,4.23-19.39Zm147.63,88.76a10.15,10.15,0,0,0,4.22-19.4l-16.88-7.7A10.16,10.16,0,1,0,365,206.68l16.88,7.7A10.19,10.19,0,0,0,386.05,215.29Zm-97-65.65-16.88-7.71a10.16,10.16,0,0,0-8.43,18.48l13.51,6.15-13.51,6.18a10.16,10.16,0,0,0,4.23,19.4,10.38,10.38,0,0,0,4.22-.91l16.88-7.7a10.17,10.17,0,0,0,5-13.47,10,10,0,0,0-2.75-3.5,9.89,9.89,0,0,0,2.77-3.47A10.18,10.18,0,0,0,289,149.64Zm25.31,33.91,16.87,7.7a10,10,0,0,0,4.2.92,10.16,10.16,0,0,0,4.23-19.41l-13.51-6.18,13.51-6.17a10.16,10.16,0,0,0-8.43-18.49l-16.88,7.7a10,10,0,0,0-2.27,16.93,9.89,9.89,0,0,0-2.74,3.49A10.2,10.2,0,0,0,314.34,183.55Zm104.53,51.37a10.16,10.16,0,1,0,20.31,0V224.76a10.15,10.15,0,0,0-5.93-9.24L424,211.29a10.15,10.15,0,1,0-8.43,18.47l3.31,1.51v3.65ZM429,424.85A10.16,10.16,0,0,0,418.87,435V453.2a10.16,10.16,0,1,0,20.31,0V435A10.14,10.14,0,0,0,429,424.85Zm0-163.72a10.16,10.16,0,0,0-10.15,10.16v18.19a10.16,10.16,0,1,0,20.31,0V271.29A10.15,10.15,0,0,0,429,261.13Zm0,218.28a10.16,10.16,0,0,0-10.15,10.16v10.16a10.16,10.16,0,1,0,20.31,0V489.57A10.15,10.15,0,0,0,429,479.41ZM65.63,301l-9.28-4.27a10.16,10.16,0,0,0-8.47,18.48l9.28,4.26A10.16,10.16,0,0,0,65.63,301ZM121,326.5,102.53,318A10.15,10.15,0,0,0,94,336.46L112.5,345A10.15,10.15,0,1,0,121,326.5ZM389.4,372.85l-18.48,8.46a10.16,10.16,0,0,0,4.22,19.4,10.45,10.45,0,0,0,4.22-.91l18.49-8.46a10.16,10.16,0,0,0-8.45-18.49Zm55.4-25.36-9.4,4.31a10,10,0,0,0,3.8-7.74V325.85a10.16,10.16,0,1,0-20.31,0v18.21A10.16,10.16,0,0,0,429,354.22a9.57,9.57,0,0,0,1.93-.39l-4.61,2.11a10,10,0,0,0-3,16.3,10,10,0,0,0-4.47,8.19v18.19a10.16,10.16,0,1,0,20.31,0V380.43a10,10,0,0,0-2.7-6.78L453.27,366a10.16,10.16,0,1,0-8.47-18.47Zm55.41-25.36-18.46,8.46A10.16,10.16,0,0,0,486,350a10.45,10.45,0,0,0,4.22-.91l18.47-8.46a10.16,10.16,0,0,0-8.45-18.49Zm68.85-20.36a10.16,10.16,0,0,0-13.47-5l-18.46,8.46a10.16,10.16,0,0,0,4.22,19.4,10.5,10.5,0,0,0,4.23-.91L564,315.24A10.16,10.16,0,0,0,569.06,301.77Zm-282,101.09-18.46-8.49a10.15,10.15,0,0,0-8.49,18.45l18.46,8.5a10.16,10.16,0,1,0,8.49-18.46ZM231.72,377.4l-18.46-8.47a10.16,10.16,0,0,0-8.47,18.47l18.46,8.47a10.16,10.16,0,1,0,8.47-18.47ZM334,398.23l-18.48,8.46a10.16,10.16,0,0,0,4.23,19.4,10.62,10.62,0,0,0,4.22-.91l18.48-8.46A10.16,10.16,0,0,0,334,398.23Z"/><path class="cls-2" d="M579.35,163.05c-.16-.57-.45-1.08-.65-1.65a21.93,21.93,0,0,0-1.5-3.31c-.37-.59-.8-1.12-1.2-1.69a23.45,23.45,0,0,0-2.15-2.52,19.51,19.51,0,0,0-1.71-1.42c-.45-.35-.83-.79-1.32-1.1s-1-.45-1.46-.71-.65-.49-1-.67L315,33.53a20.22,20.22,0,0,0-16.91,0L43.65,150c-.38.19-.69.49-1,.69a16,16,0,0,0-1.45.69c-.48.31-.85.73-1.3,1.08a22.2,22.2,0,0,0-1.72,1.44A20.82,20.82,0,0,0,36,156.36a16.46,16.46,0,0,0-1.24,1.73,20.38,20.38,0,0,0-1.49,3.25,17.38,17.38,0,0,0-.66,1.69,20.52,20.52,0,0,0-.78,5.26c0,.06,0,.1,0,.16V443.54A20.35,20.35,0,0,0,43.65,462L297,578.49a15.25,15.25,0,0,0,1.91.63c.51.16,1,.36,1.48.49a21.14,21.14,0,0,0,5.1.73,20.26,20.26,0,0,0,5.1-.73c.5-.15,1-.33,1.5-.51s1.26-.35,1.85-.61L568.33,462a20.33,20.33,0,0,0,11.86-18.47V168.47A22.21,22.21,0,0,0,579.35,163.05ZM306.47,74.35l204.6,94.06L304.89,262.59,100.78,168.53ZM72.41,430.5V200.19L104.48,215l180.08,83L285,510.72l0,17.52Zm467.11,0-213.83,97.9L325.18,298l171.47-78.33,42.87-19.59Z"/></g></svg>