<?xml version="1.0" encoding="iso-8859-1"?>
<!-- Generator: Adobe Illustrator 21.1.0, SVG Export Plug-In . SVG Version: 6.00 Build 0)  -->
<svg version="1.1" xmlns="http://www.w3.org/2000/svg" xmlns:xlink="http://www.w3.org/1999/xlink" x="0px" y="0px"
	 viewBox="0 0 50 50" style="enable-background:new 0 0 50 50;" xml:space="preserve">
<g id="ShowHide">
	<path style="fill:#E1EFFF;" d="M25,50C11.215,50,0,38.785,0,25C0,11.215,11.215,0,25,0c13.785,0,25,11.215,25,25
		C50,38.785,38.785,50,25,50z"/>
	<path style="fill:#1C1E21;" d="M25,34.012c-2.303,0-4.613-0.778-6.526-2.355c-0.406-0.334-0.464-0.935-0.129-1.341
		c0.335-0.406,0.935-0.464,1.341-0.129c3.339,2.752,8.168,2.516,11.233-0.548l4.64-4.64l-4.64-4.64
		c-0.191-0.192-0.393-0.376-0.602-0.548c-0.406-0.335-0.464-0.935-0.129-1.341c0.335-0.406,0.935-0.462,1.341-0.129
		c0.256,0.211,0.504,0.437,0.738,0.671l5.313,5.313c0.179,0.179,0.279,0.421,0.279,0.673s-0.1,0.495-0.279,0.673l-5.313,5.313
		C30.258,32.994,27.633,34.012,25,34.012z"/>
	<path style="fill:#1C1E21;" d="M17.083,29.94c-0.244,0-0.488-0.093-0.673-0.279l-3.988-3.988c-0.372-0.372-0.372-0.975,0-1.347
		l5.313-5.313c2.907-2.907,7.253-3.802,11.073-2.28c0.489,0.195,0.727,0.748,0.532,1.237c-0.195,0.488-0.748,0.727-1.237,0.532
		c-3.112-1.24-6.653-0.511-9.021,1.858L14.442,25l3.314,3.315c0.372,0.372,0.372,0.975,0,1.347
		C17.57,29.847,17.327,29.94,17.083,29.94z"/>
	<path style="fill:#1C1E21;" d="M27.693,22.305c0.69,0.689,1.117,1.642,1.117,2.695c0,2.104-1.706,3.81-3.81,3.81
		c-1.051,0-2.002-0.426-2.692-1.114L27.693,22.305z"/>
	<path style="fill:#1C1E21;" d="M25,29.762c-1.27,0-2.465-0.494-3.365-1.392c-0.179-0.178-0.279-0.42-0.279-0.673
		c0-0.253,0.1-0.495,0.279-0.673l5.384-5.391c0.179-0.179,0.421-0.279,0.673-0.279h0c0.253,0,0.495,0.1,0.673,0.279
		c0.9,0.9,1.396,2.096,1.396,3.368C29.762,27.626,27.626,29.762,25,29.762z M23.77,27.58c0.379,0.181,0.798,0.277,1.23,0.277
		c1.576,0,2.857-1.282,2.857-2.857c0-0.434-0.096-0.853-0.279-1.233L23.77,27.58z"/>
	<path style="fill:#1C1E21;" d="M21.193,25.833c-0.01,0-0.02,0-0.03,0c-0.526-0.016-0.939-0.455-0.923-0.981
		c0.077-2.507,2.101-4.533,4.609-4.611c0.527-0.014,0.965,0.396,0.982,0.922c0.016,0.526-0.397,0.965-0.922,0.982
		c-1.504,0.047-2.718,1.262-2.764,2.766C22.128,25.426,21.705,25.833,21.193,25.833z"/>
	<path style="fill:#1C1E21;" d="M13.095,37.857c-0.244,0-0.488-0.093-0.673-0.279c-0.372-0.372-0.372-0.975,0-1.347l23.81-23.81
		c0.372-0.372,0.975-0.372,1.347,0c0.372,0.372,0.372,0.975,0,1.347l-23.81,23.81C13.583,37.764,13.339,37.857,13.095,37.857z"/>
</g>
<g id="Layer_1">
</g>
</svg>
