<?xml version="1.0" encoding="iso-8859-1"?>
<!-- Generator: Adobe Illustrator 21.1.0, SVG Export Plug-In . SVG Version: 6.00 Build 0)  -->
<svg version="1.1" xmlns="http://www.w3.org/2000/svg" xmlns:xlink="http://www.w3.org/1999/xlink" x="0px" y="0px"
	 viewBox="0 0 50 50" style="enable-background:new 0 0 50 50;" xml:space="preserve">
<g id="ShutterObject">
	<path style="fill:#E1EFFF;" d="M25,50C11.215,50,0,38.785,0,25C0,11.215,11.215,0,25,0c13.785,0,25,11.215,25,25
		C50,38.785,38.785,50,25,50z"/>
	<path style="fill:#1C1E21;" d="M25,37.381c-0.071,0-0.144-0.016-0.213-0.05l-11.905-5.952c-0.161-0.081-0.263-0.246-0.263-0.426
		V19.047c0-0.18,0.102-0.345,0.263-0.426l11.905-5.952c0.236-0.117,0.521-0.022,0.639,0.213c0.117,0.235,0.022,0.521-0.213,0.639
		l-11.642,5.821v11.316l11.642,5.821c0.235,0.118,0.33,0.404,0.213,0.639C25.343,37.285,25.175,37.381,25,37.381z"/>
	<path style="fill:#1C1E21;" d="M25.001,37.381c-0.175,0-0.343-0.096-0.426-0.263c-0.118-0.235-0.022-0.521,0.213-0.639
		l11.641-5.821V19.342l-11.641-5.821c-0.235-0.118-0.331-0.404-0.213-0.639c0.117-0.235,0.403-0.33,0.639-0.213l11.905,5.952
		c0.161,0.081,0.263,0.246,0.263,0.426v11.905c0,0.18-0.102,0.345-0.263,0.426l-11.905,5.952
		C25.145,37.365,25.072,37.381,25.001,37.381z"/>
	<path style="fill:#1C1E21;" d="M25,25.477c-0.071,0-0.144-0.016-0.213-0.05l-11.905-5.953c-0.235-0.118-0.331-0.404-0.213-0.639
		c0.117-0.235,0.403-0.331,0.639-0.213l11.905,5.953c0.235,0.118,0.33,0.404,0.213,0.639C25.343,25.38,25.175,25.477,25,25.477z"/>
	<path style="fill:#1C1E21;" d="M25.001,25.477c-0.175,0-0.343-0.096-0.426-0.263c-0.118-0.235-0.022-0.521,0.213-0.639
		l11.905-5.953c0.235-0.117,0.521-0.022,0.639,0.213c0.118,0.235,0.022,0.521-0.213,0.639l-11.905,5.953
		C25.145,25.461,25.072,25.477,25.001,25.477z"/>
	<path style="fill:#1C1E21;" d="M25,37.381c-0.263,0-0.476-0.213-0.476-0.476V25c0-0.263,0.213-0.476,0.476-0.476
		s0.476,0.213,0.476,0.476v11.904C25.476,37.168,25.263,37.381,25,37.381z"/>
	<path style="fill:#1C1E21;" d="M17.064,33.413c-0.263,0-0.476-0.213-0.476-0.476V21.031c0-0.18,0.102-0.345,0.263-0.426
		l11.905-5.952c0.235-0.117,0.521-0.022,0.639,0.213c0.118,0.235,0.022,0.521-0.213,0.639L17.54,21.325v11.612
		C17.54,33.2,17.327,33.413,17.064,33.413z"/>
	<path style="fill:#1C1E21;" d="M21.032,35.397c-0.263,0-0.476-0.213-0.476-0.476V23.015c0-0.18,0.102-0.345,0.263-0.426
		l11.905-5.952c0.235-0.118,0.521-0.023,0.639,0.213c0.118,0.235,0.022,0.521-0.213,0.639L21.508,23.31v11.611
		C21.508,35.184,21.295,35.397,21.032,35.397z"/>
	<path style="fill:#1C1E21;" d="M32.937,33.413c-0.263,0-0.476-0.213-0.476-0.476V21.325l-11.642-5.821
		c-0.235-0.118-0.331-0.404-0.213-0.639c0.117-0.235,0.403-0.331,0.639-0.213l11.905,5.952c0.161,0.081,0.263,0.246,0.263,0.426
		v11.906C33.413,33.2,33.2,33.413,32.937,33.413z"/>
	<path style="fill:#1C1E21;" d="M28.969,35.397c-0.263,0-0.476-0.213-0.476-0.476V23.31l-11.641-5.821
		c-0.235-0.118-0.331-0.404-0.213-0.639c0.117-0.235,0.403-0.331,0.639-0.213l11.905,5.952c0.161,0.081,0.263,0.246,0.263,0.426
		v11.905C29.445,35.184,29.232,35.397,28.969,35.397z"/>
	<path style="fill:#1C1E21;" d="M25,29.444c-0.073,0-0.146-0.017-0.213-0.05l-11.905-5.952c-0.161-0.081-0.263-0.246-0.263-0.426
		s0.102-0.345,0.263-0.426l3.706-1.853v-3.673c0-0.263,0.213-0.476,0.476-0.476c0.263,0,0.476,0.213,0.476,0.476v3.967
		c0,0.18-0.102,0.345-0.263,0.426l-3.117,1.559L25,28.435l10.84-5.42l-3.051-1.525c-0.159-0.08-0.26-0.241-0.263-0.418l-0.065-4.001
		c-0.004-0.263,0.206-0.479,0.468-0.484c0.003,0,0.006,0,0.008,0c0.259,0,0.472,0.208,0.476,0.469l0.06,3.712l3.644,1.822
		c0.161,0.081,0.263,0.246,0.263,0.426s-0.102,0.345-0.263,0.426l-11.905,5.952C25.146,29.427,25.073,29.444,25,29.444z"/>
	<path style="fill:#1C1E21;" d="M25,33.413c-0.073,0-0.146-0.017-0.213-0.05L12.882,27.41c-0.161-0.081-0.263-0.246-0.263-0.426
		s0.102-0.345,0.263-0.426l7.673-3.837v-7.643c0-0.263,0.213-0.476,0.476-0.476c0.263,0,0.476,0.213,0.476,0.476v7.937
		c0,0.18-0.102,0.345-0.263,0.426l-7.085,3.543L25,32.404l10.84-5.42l-7.084-3.543c-0.161-0.081-0.263-0.246-0.263-0.426v-7.937
		c0-0.263,0.213-0.476,0.476-0.476c0.263,0,0.476,0.213,0.476,0.476v7.643l7.673,3.837c0.161,0.081,0.263,0.246,0.263,0.426
		s-0.102,0.345-0.263,0.426l-11.905,5.952C25.146,33.396,25.073,33.413,25,33.413z"/>
	<path style="fill:#1C1E21;" d="M13.096,31.429c-0.175,0-0.343-0.096-0.426-0.263c-0.118-0.235-0.022-0.521,0.213-0.639l11.642-5.82
		V13.095c0-0.263,0.213-0.476,0.476-0.476s0.476,0.213,0.476,0.476V25c0,0.18-0.102,0.345-0.263,0.426l-11.905,5.952
		C13.24,31.412,13.167,31.429,13.096,31.429z"/>
	<path style="fill:#1C1E21;" d="M36.904,31.429c-0.071,0-0.144-0.016-0.212-0.05l-11.958-5.952
		c-0.235-0.117-0.331-0.403-0.214-0.638c0.117-0.235,0.402-0.332,0.638-0.214l11.958,5.952c0.236,0.117,0.332,0.403,0.214,0.638
		C37.248,31.332,37.079,31.429,36.904,31.429z"/>
	<path style="fill:#1C1E21;" d="M21.032,35.397c-0.175,0-0.343-0.096-0.426-0.263c-0.118-0.235-0.022-0.521,0.213-0.639l3.969-1.984
		c0.236-0.117,0.521-0.022,0.639,0.213c0.117,0.235,0.022,0.521-0.213,0.639l-3.969,1.984
		C21.176,35.381,21.104,35.397,21.032,35.397z"/>
	<path style="fill:#1C1E21;" d="M28.968,35.397c-0.072,0-0.144-0.016-0.213-0.05l-3.968-1.984c-0.235-0.118-0.331-0.404-0.213-0.639
		c0.117-0.235,0.403-0.33,0.639-0.213l3.968,1.984c0.235,0.118,0.331,0.404,0.213,0.639C29.311,35.301,29.143,35.397,28.968,35.397z
		"/>
	<path style="fill:#1C1E21;" d="M17.064,33.413c-0.175,0-0.343-0.096-0.426-0.263c-0.118-0.235-0.022-0.521,0.213-0.639l7.936-3.969
		c0.236-0.117,0.521-0.022,0.639,0.213c0.117,0.235,0.022,0.521-0.213,0.639l-7.936,3.969
		C17.209,33.397,17.136,33.413,17.064,33.413z"/>
	<path style="fill:#1C1E21;" d="M32.936,33.413c-0.072,0-0.144-0.016-0.213-0.05l-7.936-3.969c-0.235-0.118-0.331-0.404-0.213-0.639
		c0.117-0.235,0.403-0.33,0.639-0.213l7.936,3.969c0.235,0.118,0.331,0.404,0.213,0.639C33.279,33.317,33.111,33.413,32.936,33.413z
		"/>
</g>
<g id="Layer_1">
</g>
</svg>
