<svg id="Layer_1" data-name="Layer 1" xmlns="http://www.w3.org/2000/svg" xmlns:xlink="http://www.w3.org/1999/xlink" viewBox="0 0 612 612"><defs><style>.cls-1,.cls-2{stroke:#232323;stroke-miterlimit:10;stroke-width:1.8px;}.cls-1{opacity:0.6;isolation:isolate;fill:url(#linear-gradient);}.cls-2{fill:url(#linear-gradient-2);}</style><linearGradient id="linear-gradient" x1="306.63" y1="30.63" x2="306.63" y2="580.11" gradientUnits="userSpaceOnUse"><stop offset="0" stop-color="#fafafa"/><stop offset="1" stop-color="#ebebeb"/></linearGradient><linearGradient id="linear-gradient-2" x1="137.13" y1="368.54" x2="137.13" y2="581.37" xlink:href="#linear-gradient"/></defs><g id="SnapToGrid"><path class="cls-1" d="M560.89,30.63H52.38A20.36,20.36,0,0,0,32,51V559.76a20.36,20.36,0,0,0,20.35,20.35h508.5a20.36,20.36,0,0,0,20.35-20.35V51A20.37,20.37,0,0,0,560.89,30.63ZM540.54,369.8H411.73V240.92H540.54V369.8Zm0-169.58H411.73V71.33H540.54V200.22Zm-169.51,0H242.21V71.33H371ZM201.53,71.33V200.22H72.71V71.33ZM72.72,410.51h63.13a20.36,20.36,0,0,0,0-40.71H72.72V240.92H201.53v63.17a20.34,20.34,0,1,0,40.68,0V240.92H371V369.8H307.89a20.36,20.36,0,0,0,0,40.71H371V539.39H242.21V476.22a20.34,20.34,0,1,0-40.68,0v63.17H72.72V410.51Zm339,128.9V410.52H540.52V539.41Z"/><path class="cls-2" d="M137.13,368.54A106.42,106.42,0,1,0,243.49,475,106.52,106.52,0,0,0,137.13,368.54Zm0,172.15A65.72,65.72,0,1,1,202.81,475,65.77,65.77,0,0,1,137.13,540.69Zm0-96.26A30.53,30.53,0,1,0,167.64,475,30.53,30.53,0,0,0,137.13,444.43Z"/></g></svg>