<svg id="Layer_1" data-name="Layer 1" xmlns="http://www.w3.org/2000/svg" xmlns:xlink="http://www.w3.org/1999/xlink" viewBox="0 0 612 612"><defs><style>.cls-1,.cls-3,.cls-5{stroke:#232323;stroke-miterlimit:10;stroke-width:1.8px;}.cls-1{fill:url(#linear-gradient);}.cls-2{opacity:0.8;}.cls-3{fill:url(#linear-gradient-2);}.cls-4{opacity:0.5;}.cls-5{fill:url(#linear-gradient-3);}</style><linearGradient id="linear-gradient" x1="377.19" y1="173.78" x2="377.19" y2="580.47" gradientUnits="userSpaceOnUse"><stop offset="0" stop-color="#fafafa"/><stop offset="1" stop-color="#ebebeb"/></linearGradient><linearGradient id="linear-gradient-2" x1="313.28" y1="103.34" x2="313.28" y2="523.35" xlink:href="#linear-gradient"/><linearGradient id="linear-gradient-3" x1="249.23" y1="31.53" x2="249.23" y2="467.47" xlink:href="#linear-gradient"/></defs><g id="SortSeries"><path class="cls-1" d="M559.87,396.21a20.28,20.28,0,0,0-20.32,20.32V511L307.92,279.36a20.29,20.29,0,0,0-28.69,28.7L510.86,539.83H416.39a20.32,20.32,0,0,0,0,40.64H560a19.92,19.92,0,0,0,4-.41c.55-.14,1.24-.41,1.79-.55a12.16,12.16,0,0,0,2.06-.69,14.26,14.26,0,0,0,2.06-1.1c.55-.27,1-.55,1.51-.82a22,22,0,0,0,5.63-5.63c.27-.55.55-1,.82-1.51s.69-1.24,1.1-2.06.41-1.37.69-2.06.41-1.1.55-1.78a20,20,0,0,0,.41-4V416.53A21,21,0,0,0,559.87,396.21Zm0-222.43H194.1a20.27,20.27,0,0,0-20.32,20.32v366a20.27,20.27,0,0,0,20.32,20.32h81.56a20.32,20.32,0,1,0,0-40.64H214.42V214.42H539.69v61.37a20.32,20.32,0,0,0,40.64,0V194.1A20.57,20.57,0,0,0,559.87,173.78Z"/><g class="cls-2"><path class="cls-3" d="M176.66,523.35h-53A20.27,20.27,0,0,1,103.34,503V123.66a20.27,20.27,0,0,1,20.32-20.32H502.89a20.27,20.27,0,0,1,20.32,20.32V177.9a20.32,20.32,0,0,1-40.64,0V144H143.84V482.71h32.68a20.32,20.32,0,0,1,.14,40.64Z"/></g><g class="cls-4"><path class="cls-5" d="M51.71,467.47a20.28,20.28,0,0,1-20.32-20.32V51.85A20.28,20.28,0,0,1,51.71,31.53h395a20.32,20.32,0,0,1,0,40.64H72v375A20.36,20.36,0,0,1,51.71,467.47Z"/></g></g></svg>