<?xml version="1.0" encoding="iso-8859-1"?>
<!-- Generator: Adobe Illustrator 21.1.0, SVG Export Plug-In . SVG Version: 6.00 Build 0)  -->
<svg version="1.1" xmlns="http://www.w3.org/2000/svg" xmlns:xlink="http://www.w3.org/1999/xlink" x="0px" y="0px"
	 viewBox="0 0 50 50" style="enable-background:new 0 0 50 50;" xml:space="preserve">
<g id="SortSeries">
	<path style="fill:#E1EFFF;" d="M25,50C11.215,50,0,38.785,0,25C0,11.215,11.215,0,25,0c13.785,0,25,11.215,25,25
		C50,38.785,38.785,50,25,50z"/>
	<path style="fill:#1C1E21;" d="M36.905,37.857h-6.726c-0.526,0-0.952-0.426-0.952-0.952s0.426-0.952,0.952-0.952h5.774v-5.774
		c0-0.526,0.426-0.952,0.952-0.952s0.952,0.426,0.952,0.952v6.726C37.857,37.431,37.431,37.857,36.905,37.857z"/>
	<path style="fill:#1C1E21;" d="M36.905,37.857c-0.244,0-0.487-0.093-0.673-0.279l-12.48-12.48c-0.372-0.372-0.372-0.975,0-1.347
		c0.372-0.372,0.975-0.372,1.347,0l12.48,12.48c0.372,0.372,0.372,0.975,0,1.347C37.392,37.764,37.148,37.857,36.905,37.857z"/>
	<path style="fill:#1C1E21;" d="M24.061,37.857h-4.299c-0.526,0-0.952-0.426-0.952-0.952V19.762c0-0.526,0.426-0.952,0.952-0.952
		h17.143c0.526,0,0.952,0.426,0.952,0.952v4.299c0,0.526-0.426,0.952-0.952,0.952s-0.952-0.426-0.952-0.952v-3.347H20.714v15.238
		h3.347c0.526,0,0.952,0.426,0.952,0.952S24.587,37.857,24.061,37.857z"/>
	<path style="fill:#1C1E21;" d="M18.943,35.179h-2.485c-0.526,0-0.952-0.426-0.952-0.952V16.458c0-0.526,0.426-0.952,0.952-0.952
		h17.768c0.526,0,0.952,0.426,0.952,0.952v2.542c0,0.526-0.426,0.952-0.952,0.952c-0.526,0-0.952-0.426-0.952-0.952v-1.59H17.411
		v15.863h1.533c0.526,0,0.952,0.426,0.952,0.952C19.896,34.752,19.469,35.179,18.943,35.179z"/>
	<path style="fill:#1C1E21;" d="M13.095,32.56c-0.526,0-0.952-0.426-0.952-0.952V13.095c0-0.526,0.426-0.952,0.952-0.952h18.512
		c0.526,0,0.952,0.426,0.952,0.952c0,0.526-0.426,0.952-0.952,0.952h-17.56v17.56C14.048,32.133,13.621,32.56,13.095,32.56z"/>
</g>
<g id="Layer_1">
</g>
</svg>
