<svg id="Layer_1" data-name="Layer 1" xmlns="http://www.w3.org/2000/svg" xmlns:xlink="http://www.w3.org/1999/xlink" viewBox="0 0 612 612"><defs><style>.cls-1,.cls-2,.cls-3,.cls-4{stroke:#232323;stroke-miterlimit:10;stroke-width:1.86px;}.cls-1{fill:url(#linear-gradient);}.cls-2{fill:url(#linear-gradient-2);}.cls-3{fill:url(#linear-gradient-3);}.cls-4{fill:url(#linear-gradient-4);}</style><linearGradient id="linear-gradient" x1="144.82" y1="161.5" x2="144.82" y2="305.24" gradientUnits="userSpaceOnUse"><stop offset="0" stop-color="#fafafa"/><stop offset="1" stop-color="#ebebeb"/></linearGradient><linearGradient id="linear-gradient-2" x1="235.98" y1="162.66" x2="235.98" y2="304.12" xlink:href="#linear-gradient"/><linearGradient id="linear-gradient-3" x1="315.86" y1="162.66" x2="315.86" y2="304.11" xlink:href="#linear-gradient"/><linearGradient id="linear-gradient-4" x1="306" y1="32.46" x2="306" y2="579.54" xlink:href="#linear-gradient"/></defs><path class="cls-1" d="M169.38,241.17a14.19,14.19,0,0,0-14.18,14.18v20c0,3.14-.72,3.58-3.39,3.58h-13.4c-3,0-3.58-.57-3.58-3.58v-84c0-3,.57-3.58,3.58-3.58h13c2.68,0,3.4.45,3.4,3.58v16.06a14.18,14.18,0,1,0,28.36,0v-17.2a28.76,28.76,0,0,0-28.71-28.74H135a28.94,28.94,0,0,0-28.9,28.92v85.9A28.94,28.94,0,0,0,135,305.24h19.67a28.94,28.94,0,0,0,28.9-28.92v-21A14.18,14.18,0,0,0,169.38,241.17Z"/><path class="cls-2" d="M252.93,277.28H234.34V176.09a13.44,13.44,0,0,0-13.42-13.43H219a13.43,13.43,0,0,0-13.41,13.43V290.7A13.43,13.43,0,0,0,219,304.12h33.91a13.42,13.42,0,0,0,0-26.84Z"/><path class="cls-3" d="M340.59,162.66A14.38,14.38,0,0,0,326.23,177v41.7H305.49V177a14.36,14.36,0,1,0-28.72,0V289.74a14.36,14.36,0,1,0,28.72,0V245.57h20.74v44.17a14.36,14.36,0,1,0,28.72,0V177A14.38,14.38,0,0,0,340.59,162.66Z"/><path class="cls-4" d="M578.48,519a62.85,62.85,0,0,1-98.15,49.67L456.81,539,347.75,401.69l9.68-7.68a204.24,204.24,0,0,1-23.92,15.84h0c-1.73,1-3.49,1.93-5.25,2.85-.88.47-1.77.94-2.67,1.38s-1.92,1-2.89,1.44a2.81,2.81,0,0,1-.35.17l-2,.95-.51.24c-1.35.62-2.68,1.25-4.05,1.83-1.53.68-3.08,1.34-4.62,2-2.2.92-4.42,1.77-6.66,2.6h0a201.08,201.08,0,0,1-168.06-13.4c-1.83-1-3.65-2.1-5.45-3.2a16.88,16.88,0,0,1,11.1-29.6,16.36,16.36,0,0,1,4.56.63q3.6,2.24,7.31,4.26a168.24,168.24,0,0,0,194.43-23.16c2-1.83,4-3.69,5.86-5.61A168.79,168.79,0,0,0,370,334.94c.67-.88,1.31-1.76,1.95-2.65a167.9,167.9,0,0,0,31.59-98.21c0-93-75.64-168.69-168.62-168.69a167.86,167.86,0,0,0-107.17,38.55,0,0,0,0,0,0,0q-3.12,2.58-6.11,5.3c-2,1.81-4,3.69-5.86,5.59A172.24,172.24,0,0,0,102.38,130,168.4,168.4,0,0,0,89,318.46h0c.6,1,1.21,2.09,1.84,3.11a16.88,16.88,0,0,1-26.5,19.68q-2.79-4.42-5.37-9h0A201.63,201.63,0,0,1,104.76,80.34a194.61,194.61,0,0,1,15.43-11.88q2.67-1.86,5.4-3.64c1.22-.78,2.44-1.56,3.68-2.33s2.24-1.38,3.38-2l.34-.2c1.25-.74,2.5-1.48,3.75-2.17l.11-.07c1.23-.69,2.47-1.37,3.72-2,1.8-1,3.62-1.9,5.44-2.8,1.27-.65,2.57-1.28,3.87-1.86q4.86-2.28,9.84-4.3A200.57,200.57,0,0,1,235,32.46c111.11,0,201.51,90.43,201.51,201.62a200.83,200.83,0,0,1-48,130.34l.05.05a205.27,205.27,0,0,1-23.27,23.26l0,0c-1.14,1-2.27,1.91-3.43,2.84L374,380.84l85.37,107.51,8.9,11.21L506.6,547.8a.75.75,0,0,0,.52.16,39.8,39.8,0,0,0,39.79-40.31l0,0-47.52-38.46L488.08,460,381.27,373.55l21.1-26.07L539.25,458.3l28.44,23c.1.14.2.28.29.43A62.55,62.55,0,0,1,578.48,519Z"/></svg>