<?xml version="1.0" encoding="iso-8859-1"?>
<!-- Generator: Adobe Illustrator 21.1.0, SVG Export Plug-In . SVG Version: 6.00 Build 0)  -->
<svg version="1.1" xmlns="http://www.w3.org/2000/svg" xmlns:xlink="http://www.w3.org/1999/xlink" x="0px" y="0px"
	 viewBox="0 0 50 50" style="enable-background:new 0 0 50 50;" xml:space="preserve">
<g id="SpyglassInvert">
	<path style="fill:#E1EFFF;" d="M25,50C11.215,50,0,38.785,0,25C0,11.215,11.215,0,25,0c13.785,0,25,11.215,25,25
		C50,38.785,38.785,50,25,50z"/>
	<path style="fill:#1C1E21;" d="M23.81,35.476c-6.433,0-11.667-5.233-11.667-11.667c0-6.433,5.234-11.667,11.667-11.667
		c6.433,0,11.667,5.234,11.667,11.667C35.476,30.243,30.243,35.476,23.81,35.476z M23.81,14.048c-5.383,0-9.762,4.379-9.762,9.762
		s4.379,9.762,9.762,9.762s9.762-4.379,9.762-9.762S29.192,14.048,23.81,14.048z"/>
	<path style="fill:#1C1E21;" d="M36.905,37.857c-0.244,0-0.487-0.093-0.673-0.279l-5.377-5.377c-0.372-0.372-0.372-0.975,0-1.347
		s0.975-0.372,1.347,0l5.377,5.377c0.372,0.372,0.372,0.975,0,1.347C37.392,37.764,37.148,37.857,36.905,37.857z"/>
	<path style="fill:#1C1E21;" d="M23.81,30.518c-3.699,0-6.708-3.009-6.708-6.709c0-3.699,3.009-6.708,6.708-6.708
		c3.699,0,6.709,3.009,6.709,6.708C30.518,27.509,27.509,30.518,23.81,30.518z M23.81,19.006c-2.649,0-4.804,2.155-4.804,4.804
		c0,2.649,2.155,4.804,4.804,4.804c2.649,0,4.804-2.155,4.804-4.804C28.613,21.161,26.458,19.006,23.81,19.006z"/>
	<path style="fill:#1C1E21;" d="M23.81,29.566c-3.179,0-5.756-2.577-5.756-5.756s2.577-5.756,5.756-5.756V29.566z"/>
</g>
<g id="Layer_1">
</g>
</svg>
