<?xml version="1.0" encoding="iso-8859-1"?>
<!-- Generator: Adobe Illustrator 21.1.0, SVG Export Plug-In . SVG Version: 6.00 Build 0)  -->
<svg version="1.1" xmlns="http://www.w3.org/2000/svg" xmlns:xlink="http://www.w3.org/1999/xlink" x="0px" y="0px"
	 viewBox="0 0 50 50" style="enable-background:new 0 0 50 50;" xml:space="preserve">
<g id="StudyLayout">
	<path style="fill:#E1EFFF;" d="M25,50C11.215,50,0,38.785,0,25C0,11.215,11.215,0,25,0c13.785,0,25,11.215,25,25
		C50,38.785,38.785,50,25,50z"/>
	<path style="fill:#1C1E21;" d="M36.905,37.857h-23.81c-0.526,0-0.952-0.426-0.952-0.952v-23.81c0-0.526,0.426-0.952,0.952-0.952
		h23.81c0.526,0,0.952,0.426,0.952,0.952v23.81C37.857,37.431,37.431,37.857,36.905,37.857z M14.048,35.952h21.905V14.048H14.048
		V35.952z"/>
	<path style="fill:#1C1E21;" d="M23.413,37.857H13.095c-0.526,0-0.952-0.426-0.952-0.952V26.587c0-0.526,0.426-0.952,0.952-0.952
		h10.317c0.526,0,0.952,0.426,0.952,0.952v10.318C24.365,37.431,23.939,37.857,23.413,37.857z M14.048,35.952h8.413V27.54h-8.413
		V35.952z"/>
</g>
<g id="Layer_1">
</g>
</svg>
