<?xml version="1.0" encoding="iso-8859-1"?>
<!-- Generator: Adobe Illustrator 21.1.0, SVG Export Plug-In . SVG Version: 6.00 Build 0)  -->
<svg version="1.1" xmlns="http://www.w3.org/2000/svg" xmlns:xlink="http://www.w3.org/1999/xlink" x="0px" y="0px"
	 viewBox="0 0 50 50" style="enable-background:new 0 0 50 50;" xml:space="preserve">
<g id="Synchronization">
	<path style="fill:#E1EFFF;" d="M25,50C11.215,50,0,38.785,0,25C0,11.215,11.215,0,25,0c13.785,0,25,11.215,25,25
		C50,38.785,38.785,50,25,50z"/>
	<path style="fill:#1C1E21;" d="M30.29,21.109c-0.239,0-0.479-0.09-0.665-0.27c-1.137-1.107-2.634-1.717-4.215-1.717
		s-3.079,0.61-4.216,1.717c-0.376,0.367-0.98,0.359-1.347-0.018c-0.367-0.377-0.359-0.98,0.018-1.347
		c1.495-1.456,3.464-2.258,5.545-2.258c2.081,0,4.05,0.802,5.545,2.258c0.377,0.367,0.385,0.97,0.018,1.347
		C30.786,21.012,30.538,21.109,30.29,21.109z"/>
	<path style="fill:#1C1E21;" d="M22.793,21.856c-0.026,0-0.051-0.001-0.077-0.003L19.93,21.63c-0.524-0.042-0.915-0.501-0.873-1.026
		l0.224-2.786c0.042-0.525,0.502-0.914,1.026-0.873c0.524,0.042,0.915,0.501,0.873,1.026l-0.147,1.837l1.837,0.147
		c0.524,0.042,0.915,0.501,0.873,1.026C23.701,21.479,23.285,21.856,22.793,21.856z"/>
	<path style="fill:#1C1E21;" d="M23.098,33.184c-0.086,0-0.173-0.012-0.259-0.036c-2.008-0.567-3.687-1.871-4.727-3.673
		c-1.041-1.802-1.331-3.909-0.817-5.931c0.13-0.51,0.648-0.818,1.157-0.689c0.51,0.13,0.818,0.648,0.689,1.157
		c-0.391,1.538-0.17,3.14,0.621,4.51c0.791,1.37,2.068,2.361,3.595,2.793c0.506,0.143,0.801,0.669,0.658,1.175
		C23.896,32.909,23.514,33.184,23.098,33.184z"/>
	<path style="fill:#1C1E21;" d="M21.29,34.574c-0.356,0-0.698-0.2-0.861-0.544c-0.226-0.475-0.023-1.044,0.452-1.269l1.665-0.791
		l-0.791-1.665c-0.226-0.475-0.023-1.044,0.452-1.269c0.475-0.226,1.043-0.024,1.269,0.452l1.199,2.525
		c0.226,0.475,0.023,1.044-0.452,1.269l-2.525,1.199C21.566,34.545,21.426,34.574,21.29,34.574z"/>
	<path style="fill:#1C1E21;" d="M26.748,33.227c-0.416,0-0.798-0.274-0.916-0.694c-0.143-0.506,0.152-1.032,0.658-1.175
		c1.527-0.431,2.804-1.423,3.595-2.793c0.791-1.37,1.011-2.971,0.621-4.51c-0.129-0.51,0.179-1.028,0.689-1.157
		c0.512-0.13,1.029,0.18,1.157,0.689c0.513,2.023,0.223,4.129-0.817,5.931c-1.041,1.802-2.719,3.107-4.727,3.673
		C26.92,33.215,26.833,33.227,26.748,33.227z"/>
	<path style="fill:#1C1E21;" d="M29.848,26.359c-0.186,0-0.375-0.055-0.54-0.169c-0.433-0.299-0.542-0.891-0.243-1.325l1.587-2.301
		c0.298-0.433,0.892-0.542,1.325-0.243l2.301,1.587c0.433,0.299,0.542,0.892,0.243,1.325c-0.298,0.433-0.891,0.542-1.325,0.243
		L31.68,24.43l-1.046,1.517C30.449,26.215,30.151,26.359,29.848,26.359z"/>
	<path style="fill:#1C1E21;" d="M25.566,37.844c-0.505,0-0.927-0.398-0.951-0.908c-0.024-0.525,0.382-0.971,0.907-0.996
		c0.291-0.013,0.585-0.039,0.873-0.075c0.52-0.064,0.998,0.303,1.064,0.825c0.066,0.522-0.304,0.998-0.825,1.064
		c-0.338,0.043-0.682,0.073-1.024,0.088C25.597,37.844,25.581,37.844,25.566,37.844z M20.891,37.133
		c-0.109,0-0.219-0.019-0.328-0.059c-0.319-0.117-0.638-0.249-0.951-0.392c-0.478-0.219-0.688-0.785-0.468-1.263
		c0.219-0.478,0.784-0.687,1.263-0.468c0.267,0.122,0.539,0.235,0.811,0.334c0.494,0.181,0.748,0.728,0.567,1.222
		C21.643,36.894,21.279,37.133,20.891,37.133z M30.996,36.247c-0.328,0-0.647-0.169-0.824-0.473
		c-0.265-0.454-0.111-1.037,0.344-1.302c0.253-0.147,0.502-0.306,0.74-0.47c0.431-0.301,1.026-0.192,1.325,0.24
		c0.3,0.432,0.192,1.025-0.24,1.325c-0.279,0.193-0.57,0.379-0.866,0.551C31.323,36.206,31.159,36.247,30.996,36.247z
		 M16.191,33.979c-0.258,0-0.515-0.104-0.703-0.31c-0.231-0.253-0.454-0.517-0.663-0.785c-0.323-0.415-0.248-1.014,0.167-1.336
		c0.415-0.322,1.014-0.247,1.336,0.167c0.178,0.229,0.368,0.454,0.565,0.67c0.355,0.388,0.328,0.991-0.061,1.345
		C16.651,33.896,16.421,33.979,16.191,33.979z M35.073,32.326c-0.174,0-0.35-0.047-0.508-0.147
		c-0.445-0.281-0.578-0.869-0.296-1.314c0.158-0.249,0.306-0.505,0.439-0.759c0.245-0.465,0.821-0.643,1.287-0.399
		c0.465,0.246,0.644,0.822,0.399,1.287c-0.158,0.299-0.331,0.598-0.515,0.889C35.698,32.169,35.389,32.326,35.073,32.326z
		 M13.48,29.013c-0.422,0-0.808-0.283-0.92-0.71c-0.086-0.329-0.161-0.667-0.221-1.005c-0.092-0.518,0.253-1.012,0.771-1.104
		c0.519-0.093,1.013,0.253,1.104,0.771c0.051,0.287,0.114,0.575,0.187,0.854c0.134,0.509-0.17,1.03-0.679,1.164
		C13.642,29.003,13.56,29.013,13.48,29.013z M36.868,26.96c-0.026,0-0.051-0.001-0.077-0.003c-0.524-0.042-0.915-0.501-0.873-1.025
		c0.023-0.286,0.034-0.581,0.034-0.874c0-0.112-0.002-0.223-0.005-0.334c-0.016-0.526,0.397-0.965,0.923-0.981
		c0.512-0.012,0.965,0.397,0.981,0.923c0.004,0.13,0.006,0.261,0.006,0.392c0,0.344-0.013,0.69-0.041,1.027
		C37.777,26.582,37.36,26.96,36.868,26.96z M13.396,23.356c-0.071,0-0.142-0.008-0.214-0.024c-0.512-0.118-0.833-0.629-0.715-1.141
		c0.077-0.334,0.168-0.669,0.272-0.994c0.159-0.501,0.695-0.779,1.196-0.619c0.501,0.16,0.778,0.695,0.619,1.196
		c-0.088,0.275-0.165,0.559-0.23,0.843C14.222,23.058,13.83,23.356,13.396,23.356z M35.813,21.046c-0.359,0-0.702-0.204-0.864-0.551
		c-0.124-0.266-0.259-0.528-0.4-0.779c-0.259-0.458-0.098-1.039,0.359-1.298c0.458-0.258,1.039-0.098,1.298,0.36
		c0.167,0.295,0.325,0.602,0.47,0.913c0.222,0.477,0.015,1.043-0.461,1.265C36.085,21.017,35.948,21.046,35.813,21.046z
		 M15.951,18.31c-0.22,0-0.441-0.076-0.621-0.23c-0.399-0.343-0.444-0.944-0.101-1.343c0.222-0.258,0.458-0.511,0.701-0.752
		c0.373-0.37,0.976-0.368,1.347,0.006c0.37,0.373,0.368,0.976-0.006,1.347c-0.207,0.206-0.408,0.421-0.597,0.642
		C16.486,18.197,16.219,18.31,15.951,18.31z M32.274,16.631c-0.203,0-0.408-0.065-0.581-0.198c-0.227-0.175-0.468-0.346-0.714-0.506
		c-0.441-0.287-0.566-0.877-0.279-1.317c0.286-0.441,0.878-0.566,1.317-0.279c0.29,0.188,0.572,0.388,0.84,0.595
		c0.416,0.321,0.493,0.919,0.173,1.336C32.841,16.503,32.559,16.631,32.274,16.631z M20.554,15.016
		c-0.378,0-0.735-0.226-0.884-0.598c-0.196-0.488,0.041-1.043,0.53-1.238c0.316-0.126,0.642-0.242,0.969-0.344
		c0.504-0.157,1.036,0.124,1.192,0.627c0.156,0.502-0.124,1.036-0.627,1.192c-0.279,0.087-0.557,0.185-0.825,0.293
		C20.792,14.994,20.672,15.016,20.554,15.016z M27.099,14.345c-0.055,0-0.111-0.005-0.166-0.015
		c-0.287-0.051-0.579-0.091-0.868-0.118c-0.524-0.05-0.908-0.515-0.857-1.039c0.05-0.524,0.514-0.909,1.039-0.857
		c0.339,0.032,0.681,0.079,1.018,0.138c0.518,0.092,0.864,0.586,0.772,1.104C27.954,14.02,27.553,14.345,27.099,14.345z"/>
</g>
<g id="Layer_1">
</g>
</svg>
