<?xml version="1.0" encoding="iso-8859-1"?>
<!-- Generator: Adobe Illustrator 21.1.0, SVG Export Plug-In . SVG Version: 6.00 Build 0)  -->
<svg version="1.1" xmlns="http://www.w3.org/2000/svg" xmlns:xlink="http://www.w3.org/1999/xlink" x="0px" y="0px"
	 viewBox="0 0 50 50" style="enable-background:new 0 0 50 50;" xml:space="preserve">
<g id="ToggleTags">
	<g>
		<path style="fill:#E1EFFF;" d="M25,50C11.215,50,0,38.785,0,25C0,11.215,11.215,0,25,0c13.785,0,25,11.215,25,25
			C50,38.785,38.785,50,25,50z"/>
		<path style="display:none;fill:#8C96A5;" d="M36.023,25.911h-4.154c-0.005,0-0.007,0.005-0.012,0.005l2.947-2.946
			c0.166-0.163,0.259-0.388,0.259-0.622s-0.094-0.459-0.259-0.622l-6.53-6.53c-0.325-0.331-0.916-0.331-1.247,0l-2.935,2.938
			c0,0-0.001,0.005-0.003,0.008v-4.165c0-0.488-0.394-0.881-0.881-0.881h-9.231c-0.488,0-0.881,0.394-0.881,0.881v17.43
			c0,1.514,0.615,2.886,1.608,3.881c0.001,0.001,0.001,0.003,0.002,0.004c0.486,0.488,1.053,0.862,1.664,1.133
			c0.031,0.014,0.058,0.035,0.089,0.048c0.273,0.115,0.559,0.195,0.849,0.264c0.064,0.015,0.122,0.044,0.187,0.057
			c0.358,0.072,0.726,0.111,1.1,0.111h17.43c0.488,0,0.881-0.394,0.881-0.881v-9.231C36.905,26.305,36.511,25.911,36.023,25.911z
			 M24.089,19.366c0.004,0.004,0.002,0.011,0.006,0.015c0,0,0.004,0.001,0.005,0.002L30,25.283l-5.911,5.911V19.366z M22.326,31.406
			c0,1.086-0.483,2.045-1.225,2.728c-1.429,1.293-3.777,1.281-5.146-0.087l-0.001,0c-0.677-0.677-1.097-1.611-1.097-2.641V19.012
			h7.468V31.406z M22.326,17.249h-7.468v-2.391h7.468V17.249z M30.988,26.793v8.349h-8.358l8.364-8.361
			C30.993,26.785,30.988,26.788,30.988,26.793z M25.962,18.757l1.69-1.692l5.283,5.283l-1.691,1.691L25.962,18.757z M35.142,35.142
			h-2.391v-7.468h2.391V35.142z M18.594,32.751c0.741,0,1.341-0.603,1.341-1.344s-0.6-1.341-1.341-1.341
			c-0.741,0-1.344,0.6-1.344,1.341S17.853,32.751,18.594,32.751z"/>
		<path style="fill:#1C1E21;" d="M21.425,37.855c-0.617,0-1.233-0.233-1.704-0.701l-6.865-6.825
			c-0.459-0.457-0.713-1.065-0.714-1.713c-0.001-0.647,0.251-1.256,0.708-1.714l14.181-14.195c0.365-0.365,0.849-0.566,1.364-0.566
			h7.532c1.064,0,1.929,0.866,1.929,1.93v7.539c0,0.515-0.2,1-0.565,1.364L23.135,37.148C22.664,37.62,22.045,37.855,21.425,37.855z
			 M28.396,14.048L14.198,28.25c-0.097,0.098-0.151,0.227-0.151,0.365c0,0.138,0.054,0.268,0.152,0.365l6.864,6.824
			c0.199,0.198,0.524,0.197,0.723-0.001l0,0l14.158-14.172l0.007-7.558L28.396,14.048z"/>
		<path style="fill:#1C1E21;" d="M31.211,21.865c-1.692,0-3.069-1.378-3.069-3.071c0-1.693,1.376-3.071,3.069-3.071
			c1.692,0,3.069,1.378,3.069,3.071C34.28,20.488,32.903,21.865,31.211,21.865z M31.211,17.629c-0.642,0-1.164,0.523-1.164,1.166
			c0,0.643,0.522,1.166,1.164,1.166s1.164-0.523,1.164-1.166C32.375,18.152,31.853,17.629,31.211,17.629z"/>
	</g>
</g>
<g id="Layer_1">
</g>
</svg>
