<svg id="Layer_1" data-name="Layer 1" xmlns="http://www.w3.org/2000/svg" xmlns:xlink="http://www.w3.org/1999/xlink" viewBox="0 0 612 612"><defs><style>.cls-1,.cls-2,.cls-3,.cls-4,.cls-5,.cls-6,.cls-7,.cls-8,.cls-9{stroke:#232323;stroke-miterlimit:10;stroke-width:1.31px;}.cls-1{opacity:0.9;fill:url(#linear-gradient);}.cls-2{fill:url(#linear-gradient-2);}.cls-3{fill:url(#linear-gradient-3);}.cls-4{fill:url(#linear-gradient-4);}.cls-5{fill:url(#linear-gradient-5);}.cls-6{fill:url(#linear-gradient-6);}.cls-7{fill:url(#linear-gradient-7);}.cls-8{fill:url(#linear-gradient-8);}.cls-9{fill:url(#linear-gradient-9);}</style><linearGradient id="linear-gradient" x1="481.39" y1="371.91" x2="481.39" y2="571.22" gradientUnits="userSpaceOnUse"><stop offset="0" stop-color="#fafafa"/><stop offset="1" stop-color="#ebebeb"/></linearGradient><linearGradient id="linear-gradient-2" x1="94.15" y1="355.87" x2="94.15" y2="481.82" xlink:href="#linear-gradient"/><linearGradient id="linear-gradient-3" x1="283.07" y1="355.87" x2="283.07" y2="481.82" xlink:href="#linear-gradient"/><linearGradient id="linear-gradient-4" x1="94.15" y1="198.44" x2="94.15" y2="324.38" xlink:href="#linear-gradient"/><linearGradient id="linear-gradient-5" x1="283.07" y1="198.44" x2="283.07" y2="324.38" xlink:href="#linear-gradient"/><linearGradient id="linear-gradient-6" x1="94.15" y1="41.01" x2="94.15" y2="166.95" xlink:href="#linear-gradient"/><linearGradient id="linear-gradient-7" x1="283.07" y1="41.01" x2="283.07" y2="166.95" xlink:href="#linear-gradient"/><linearGradient id="linear-gradient-8" x1="471.25" y1="198.44" x2="471.25" y2="324.38" xlink:href="#linear-gradient"/><linearGradient id="linear-gradient-9" x1="471.25" y1="41.01" x2="471.25" y2="166.95" xlink:href="#linear-gradient"/></defs><path class="cls-1" d="M581.05,473.39c0,5.31-7.68,14.37-13,14.37l-72.2.06.08,70.12c0,5.32-9.19,13.28-14.51,13.28s-14.38-7.67-14.38-13L467,487.84l-75.58.06c-5.33,0-9.65-7.34-9.65-12.65s4-16.24,9.36-16.24l75.83-.06-.08-77.39c0-5.33,7.33-9.65,12.65-9.65s16.24,4,16.24,9.35l.09,77.67,71.95-.05C573.1,458.88,581.05,468.07,581.05,473.39Z"/><rect class="cls-2" x="31.18" y="355.87" width="125.94" height="125.94" rx="39.36"/><rect class="cls-3" x="220.09" y="355.87" width="125.94" height="125.94" rx="39.36"/><rect class="cls-4" x="31.18" y="198.44" width="125.94" height="125.94" rx="39.36"/><rect class="cls-5" x="220.09" y="198.44" width="125.94" height="125.94" rx="39.36"/><rect class="cls-6" x="31.18" y="41.01" width="125.94" height="125.94" rx="39.36"/><rect class="cls-7" x="220.09" y="41.01" width="125.94" height="125.94" rx="39.36"/><rect class="cls-8" x="408.28" y="198.44" width="125.94" height="125.94" rx="39.36"/><rect class="cls-9" x="408.28" y="41.01" width="125.94" height="125.94" rx="39.36"/></svg>