<?xml version="1.0" encoding="iso-8859-1"?>
<!-- Generator: Adobe Illustrator 21.1.0, SVG Export Plug-In . SVG Version: 6.00 Build 0)  -->
<svg version="1.1" xmlns="http://www.w3.org/2000/svg" xmlns:xlink="http://www.w3.org/1999/xlink" x="0px" y="0px"
	 viewBox="0 0 50 50" style="enable-background:new 0 0 50 50;" xml:space="preserve">
<g id="Tools">
	<path style="fill:#E1EFFF;" d="M25,50C11.215,50,0,38.785,0,25C0,11.215,11.215,0,25,0c13.785,0,25,11.215,25,25
		C50,38.785,38.785,50,25,50z"/>
	<polygon style="fill:#1C1E21;" points="23.799,22.35 18.679,17.219 17.98,15.057 14.82,13.095 13.095,14.821 15.059,17.98 
		17.218,18.68 22.338,23.812 	"/>
	<path style="fill:#1C1E21;" d="M22.338,24.764C22.338,24.764,22.338,24.764,22.338,24.764c-0.253,0-0.496-0.101-0.674-0.28
		l-4.957-4.97l-1.941-0.629c-0.214-0.07-0.397-0.212-0.515-0.403l-1.963-3.159c-0.233-0.376-0.177-0.863,0.135-1.176l1.724-1.726
		c0.313-0.313,0.8-0.369,1.176-0.136l3.16,1.962c0.192,0.119,0.335,0.302,0.404,0.516l0.629,1.944l4.959,4.969
		c0.371,0.372,0.371,0.974,0,1.346l-1.461,1.462C22.833,24.664,22.591,24.764,22.338,24.764z M15.684,17.181l1.828,0.592
		c0.144,0.047,0.274,0.127,0.381,0.233l4.446,4.457l0.115-0.115l-4.448-4.458c-0.106-0.106-0.186-0.236-0.232-0.38l-0.592-1.83
		l-2.222-1.379l-0.656,0.657L15.684,17.181z"/>
	<path style="fill:#1C1E21;" d="M33.916,37.862c-0.815,0-1.474-0.34-1.835-0.665c-0.012-0.011-0.024-0.023-0.036-0.034l-9.032-9.019
		c-0.179-0.179-0.279-0.421-0.279-0.673l0-0.662l-0.809,0h-0.001c-0.253,0-0.495-0.1-0.673-0.279l-0.816-0.815
		c-0.179-0.179-0.279-0.421-0.279-0.674c0-0.253,0.1-0.495,0.279-0.673l3.92-3.92c0.372-0.372,0.974-0.372,1.346-0.001l0.816,0.814
		c0.179,0.179,0.279,0.422,0.279,0.675l0,0.809h0.662c0.253,0,0.494,0.1,0.673,0.279l9.032,9.019
		c0.013,0.012,0.024,0.025,0.036,0.038c0.638,0.711,1.333,2.57-0.607,4.511C35.637,37.545,34.703,37.862,33.916,37.862z
		 M33.363,35.787c0.176,0.136,0.841,0.497,1.881-0.543c1.023-1.023,0.691-1.684,0.536-1.89l-8.717-8.705h-1.221
		c-0.253,0-0.495-0.1-0.674-0.279c-0.179-0.179-0.279-0.421-0.279-0.674l0.001-1.091l-2.298,2.298l1.092-0.001h0.001
		c0.252,0,0.494,0.1,0.673,0.279c0.179,0.179,0.279,0.421,0.279,0.673l0,1.22L33.363,35.787z"/>
	<path style="fill:#1C1E21;" d="M28.365,25.559c-0.244,0-0.487-0.093-0.673-0.279c-0.372-0.372-0.372-0.975,0-1.347l1.686-1.685
		c0.274-0.273,0.685-0.354,1.042-0.205c0.089,0.035,2.334,0.906,4.292-1.051c0.901-0.9,1.19-1.851,1.237-2.622l-1.387,1.388
		c-0.357,0.357-0.989,0.359-1.347,0l-2.971-2.971c-0.371-0.371-0.372-0.972-0.002-1.345l1.376-1.385
		c-0.771,0.051-1.721,0.344-2.621,1.245c-1.984,1.983-1.049,4.251-1.039,4.274c0.153,0.358,0.072,0.772-0.203,1.047l-1.611,1.611
		c-0.372,0.371-0.975,0.372-1.347,0c-0.372-0.372-0.372-0.975,0-1.347l1.206-1.205c-0.279-1.132-0.52-3.56,1.648-5.727
		c2.889-2.891,6.197-1.474,6.336-1.412c0.287,0.127,0.492,0.387,0.551,0.695c0.058,0.308-0.04,0.625-0.26,0.847l-2.014,2.027
		l1.625,1.626l2.021-2.022c0.222-0.222,0.539-0.32,0.846-0.264c0.308,0.057,0.569,0.261,0.697,0.547
		c0.063,0.14,1.5,3.449-1.391,6.339c-2.168,2.167-4.604,1.933-5.737,1.659l-1.282,1.282C28.852,25.465,28.609,25.559,28.365,25.559z
		"/>
	<path style="fill:#1C1E21;" d="M15.362,37.856c-0.688,0-1.459-0.272-2.203-1.016c-1.137-1.137-1.078-2.247-0.942-2.807
		c0.173-0.714,0.594-1.161,0.676-1.244l7.982-7.982c0.372-0.372,0.975-0.372,1.347,0c0.372,0.372,0.372,0.975,0,1.347l-7.983,7.983
		c-0.23,0.253-0.384,0.707,0.266,1.357c0.754,0.753,1.23,0.395,1.359,0.266l8.056-8.056c0.372-0.372,0.975-0.372,1.347,0
		c0.372,0.372,0.372,0.975,0,1.347l-8.057,8.057C16.807,37.511,16.138,37.856,15.362,37.856z"/>
	<polygon style="fill:#1C1E21;" points="20.521,26.508 21.124,27.059 22.885,27.058 22.886,28.672 23.571,29.357 24.38,28.592 
		23.686,27.469 23.685,25.855 21.924,25.856 21.549,25.481 	"/>
	<path style="fill:#1C1E21;" d="M23.571,30.31c-0.244,0-0.488-0.093-0.673-0.279l-0.685-0.685c-0.179-0.179-0.279-0.42-0.279-0.673
		l0-0.661l-0.809,0c0,0,0,0,0,0c-0.238,0-0.467-0.089-0.643-0.25l-0.602-0.551c-0.192-0.175-0.303-0.422-0.309-0.681
		c-0.006-0.26,0.095-0.511,0.279-0.695l1.027-1.027c0.372-0.372,0.975-0.372,1.347,0l0.096,0.096l1.366-0.001h0.001
		c0.252,0,0.494,0.1,0.673,0.279c0.179,0.179,0.279,0.421,0.279,0.673l0,1.344l0.552,0.892c0.237,0.384,0.173,0.882-0.155,1.192
		l-0.809,0.765C24.042,30.223,23.807,30.31,23.571,30.31z"/>
	<path style="fill:#1C1E21;" d="M34.169,34.813c-0.183,0-0.365-0.07-0.505-0.209l-7.622-7.61c-0.279-0.279-0.279-0.731-0.001-1.01
		c0.279-0.28,0.731-0.279,1.01-0.001l7.622,7.61c0.279,0.279,0.279,0.731,0.001,1.01C34.535,34.743,34.352,34.813,34.169,34.813z"/>
</g>
<g id="Layer_1">
</g>
</svg>
