<svg id="Layer_1" data-name="Layer 1" xmlns="http://www.w3.org/2000/svg" xmlns:xlink="http://www.w3.org/1999/xlink" viewBox="0 0 612 612"><defs><style>.cls-1,.cls-2{stroke:#232323;stroke-miterlimit:10;stroke-width:1.31px;}.cls-1{fill:url(#linear-gradient);}.cls-2{fill:url(#linear-gradient-2);}</style><linearGradient id="linear-gradient" x1="234.62" y1="110.88" x2="234.62" y2="359.87" gradientUnits="userSpaceOnUse"><stop offset="0" stop-color="#fafafa"/><stop offset="1" stop-color="#ebebeb"/></linearGradient><linearGradient id="linear-gradient-2" x1="306" y1="30.37" x2="306" y2="581.63" xlink:href="#linear-gradient"/></defs><path class="cls-1" d="M337.86,214.18H255.8V132.07a21.18,21.18,0,1,0-42.36,0v82.11H131.37a21.2,21.2,0,0,0,0,42.39h82.07v82.11a21.18,21.18,0,1,0,42.36,0V256.57h82.06a21.2,21.2,0,0,0,0-42.39Z"/><path class="cls-2" d="M580.57,520.62a63.35,63.35,0,0,1-98.91,50L458,540.81,348.07,402.42l9.76-7.74a206.68,206.68,0,0,1-24.11,16h0c-1.74,1-3.52,1.94-5.29,2.87-.89.47-1.79.94-2.69,1.39s-1.93,1-2.92,1.44a1.8,1.8,0,0,1-.34.17l-2,1c-.17.09-.34.18-.51.25-1.36.63-2.71,1.26-4.08,1.84-1.55.69-3.11,1.35-4.66,2-2.22.93-4.45,1.78-6.71,2.61a0,0,0,0,0,0,0,202.65,202.65,0,0,1-169.35-13.51q-2.76-1.56-5.49-3.22a17,17,0,0,1,15.78-29.2q3.63,2.26,7.37,4.3a169.51,169.51,0,0,0,195.91-23.34q3-2.76,5.91-5.65a171.37,171.37,0,0,0,15.94-18.4c.67-.88,1.32-1.77,2-2.67a169.12,169.12,0,0,0,31.83-99c0-93.74-76.21-170-169.9-170a169.16,169.16,0,0,0-108,38.84,0,0,0,0,0,0,0c-2.08,1.73-4.14,3.52-6.15,5.33s-4,3.72-5.91,5.64a175,175,0,0,0-13.53,15.26A169.68,169.68,0,0,0,87.36,318.55v0c.6,1.06,1.22,2.1,1.86,3.13a17,17,0,0,1-15.51,24.05,16.9,16.9,0,0,1-11.2-4.22q-2.81-4.47-5.41-9.09h0A203.18,203.18,0,0,1,103.22,78.61q7.47-6.36,15.55-12c1.79-1.25,3.61-2.46,5.44-3.66,1.23-.79,2.46-1.58,3.71-2.35s2.26-1.39,3.4-2.06l.34-.2c1.26-.74,2.52-1.49,3.78-2.19,0,0,.09,0,.12-.07,1.24-.69,2.49-1.37,3.74-2,1.82-1,3.65-1.92,5.48-2.82,1.29-.66,2.59-1.29,3.91-1.87q4.89-2.3,9.91-4.34a202.14,202.14,0,0,1,75.82-14.68c112,0,203.05,91.12,203.05,203.16a202.32,202.32,0,0,1-48.34,131.33l.06.06a208.46,208.46,0,0,1-23.45,23.44l-.05-.05c-1.14,1-2.29,1.93-3.46,2.86l12.31-9.75,86,108.33,9,11.28,38.6,48.62a.77.77,0,0,0,.53.16,40.11,40.11,0,0,0,40.09-40.62l0,0L500.85,470.4l-11.37-9.21L381.85,374.06l21.26-26.26L541,459.46l28.65,23.19.29.43A63.17,63.17,0,0,1,580.57,520.62Z"/></svg>