<svg id="Layer_1" data-name="Layer 1" xmlns="http://www.w3.org/2000/svg" xmlns:xlink="http://www.w3.org/1999/xlink" viewBox="0 0 612 612"><defs><style>.cls-1,.cls-2,.cls-3,.cls-4{stroke:#232323;stroke-miterlimit:10;stroke-width:1.31px;}.cls-1{fill:url(#linear-gradient);}.cls-2{fill:url(#linear-gradient-2);}.cls-3{fill:url(#linear-gradient-3);}.cls-4{fill:url(#linear-gradient-4);}</style><linearGradient id="linear-gradient" x1="434.22" y1="326.1" x2="434.22" y2="497.79" gradientUnits="userSpaceOnUse"><stop offset="0" stop-color="#fafafa"/><stop offset="1" stop-color="#ebebeb"/></linearGradient><linearGradient id="linear-gradient-2" x1="434.15" y1="117.77" x2="434.15" y2="299.22" xlink:href="#linear-gradient"/><linearGradient id="linear-gradient-3" x1="225.82" y1="86.19" x2="225.82" y2="306.46" xlink:href="#linear-gradient"/><linearGradient id="linear-gradient-4" x1="225.8" y1="324.72" x2="225.8" y2="525.81" xlink:href="#linear-gradient"/></defs><g id="ZpeopleGroup"><path class="cls-1" d="M580.92,483.09c-.69,8.27-6.89,14.7-14.47,14.7H302.07c-7.46,0-13.66-6.2-14.47-14.36-.34-4.25-.57-8.49-.57-12.86a131.71,131.71,0,0,1,5.05-36.52c.12-.34.12-.57.23-.92a126.84,126.84,0,0,1,7.81-24.69c.12-.34.35-.69.46-1,5.51-16.54,14-31.93,25-44.33l.11-.12c13.21-14.81,28-28,45.94-35.37a15.84,15.84,0,0,1,5.4-1.49h0c76.94,0,103.47.11,112.55.23h3.56a9.85,9.85,0,0,1,2.64.34c.23.12.46.12.69.23a109.19,109.19,0,0,1,37.78,24.69A124.14,124.14,0,0,1,556,380.19c.22.34.11.11.11.23a133.06,133.06,0,0,1,11.94,23.08c.12.35-.11-.34,0,0,7.47,15.62,11.49,33.77,12.52,51a1.65,1.65,0,0,0,.12.81A161.39,161.39,0,0,1,580.92,483.09Z"/><ellipse class="cls-2" cx="434.15" cy="208.5" rx="85.9" ry="90.73"/><ellipse class="cls-3" cx="225.82" cy="196.32" rx="100.03" ry="110.14"/><path class="cls-4" d="M420.36,508.81a19.09,19.09,0,0,1-19.17,17H50.57A19.15,19.15,0,0,1,31.39,509a133.22,133.22,0,0,1-.81-15.27,139.44,139.44,0,0,1,6.66-42.84l.35-1a141.39,141.39,0,0,1,10.33-29.06c.23-.46.35-.91.58-1.26a142.4,142.4,0,0,1,33.19-51.22,5.17,5.17,0,0,0,.69-.8,148.48,148.48,0,0,1,60.52-41.81,17.81,17.81,0,0,1,2.18-.34h3.45l155.84-.69h.12a15.86,15.86,0,0,1,3.79.23A147.5,147.5,0,0,1,386.94,388v.11a141.29,141.29,0,0,1,15.39,27.11c.23.46.35.8.58,1.26a141.65,141.65,0,0,1,16.77,58.57c0,.35.11.69.11,1A148,148,0,0,1,420.36,508.81Z"/></g></svg>