<svg xmlns="http://www.w3.org/2000/svg" viewBox="0 0 50 50"><defs><style>.cls-1{fill:#353942;}.cls-2{fill:#5b616b;}</style></defs><g id="Layer_2" data-name="Layer 2"><g id="Layer_151" data-name="Layer 151"><g id="AlignLeft"><path class="cls-1" d="M25,50A25,25,0,1,1,50,25,25,25,0,0,1,25,50Z"/><path class="cls-2" d="M13.1,37.86a1,1,0,0,1-1-1V13.1a1,1,0,1,1,1.91,0V36.9A1,1,0,0,1,13.1,37.86Z"/><path class="cls-2" d="M36.9,23.87H18a1,1,0,0,1-1-.95V18.75a1,1,0,0,1,1-.95H36.9a1,1,0,0,1,1,.95v4.17A1,1,0,0,1,36.9,23.87ZM18.93,22H36V19.7h-17Z"/><path class="cls-2" d="M32,32.2H18a1,1,0,0,1-1-1V27.08a1,1,0,0,1,1-.95H32a1,1,0,0,1,1,.95v4.17A1,1,0,0,1,32,32.2ZM18.93,30.3H31.07V28H18.93Z"/></g></g></g></svg>