<svg xmlns="http://www.w3.org/2000/svg" viewBox="0 0 50 50"><defs><style>.cls-1{fill:#353942;}.cls-2{fill:#5b616b;}</style></defs><g id="Layer_2" data-name="Layer 2"><g id="Layer_151" data-name="Layer 151"><g id="AlignCenter"><path class="cls-1" d="M25,50A25,25,0,1,1,50,25,25,25,0,0,1,25,50Z"/><path class="cls-2" d="M25,37.86a1,1,0,0,1-.95-1V31.49a.95.95,0,0,1,1.9,0V36.9A1,1,0,0,1,25,37.86Z"/><path class="cls-2" d="M25,28.27a.94.94,0,0,1-.95-.95V22.44a1,1,0,0,1,1.9,0v4.88A.94.94,0,0,1,25,28.27Z"/><path class="cls-2" d="M25,19.23a1,1,0,0,1-.95-1V13.1a1,1,0,1,1,1.9,0v5.17A1,1,0,0,1,25,19.23Z"/><path class="cls-2" d="M36.9,23.39H13.1a1,1,0,0,1-1-.95V18.27a1,1,0,0,1,1-.95H36.9a1,1,0,0,1,1,.95v4.17A1,1,0,0,1,36.9,23.39Zm-22.85-1.9H36V19.23H14.05Z"/><path class="cls-2" d="M32,32.44H18a1,1,0,0,1-1-.95V27.32a1,1,0,0,1,1-.95H32a1,1,0,0,1,1,.95v4.17A1,1,0,0,1,32,32.44Zm-13.09-1.9H31.07V28.27H18.93Z"/></g></g></g></svg>