<svg xmlns="http://www.w3.org/2000/svg" viewBox="0 0 50 50"><defs><style>.cls-1{fill:#353942;}.cls-2{fill:#5b616b;}</style></defs><g id="Layer_2" data-name="Layer 2"><g id="Layer_151" data-name="Layer 151"><g id="AlignBottom"><path class="cls-1" d="M25,50A25,25,0,1,1,50,25,25,25,0,0,1,25,50Z"/><path class="cls-2" d="M36.9,37.86H13.1a1,1,0,1,1,0-1.91H36.9a1,1,0,1,1,0,1.91Z"/><path class="cls-2" d="M22.92,33H18.75a1,1,0,0,1-.95-1V13.1a1,1,0,0,1,.95-1h4.17a1,1,0,0,1,.95,1V32A1,1,0,0,1,22.92,33ZM19.7,31.07H22v-17H19.7Z"/><path class="cls-2" d="M31.25,33H27.08a1,1,0,0,1-.95-1V18a1,1,0,0,1,.95-1h4.17a1,1,0,0,1,1,1V32A1,1,0,0,1,31.25,33ZM28,31.07H30.3V18.93H28Z"/></g></g></g></svg>