<svg xmlns="http://www.w3.org/2000/svg" viewBox="0 0 50 50"><defs><style>.cls-1{fill:#353942;}.cls-2{fill:#5b616b;}</style></defs><g id="Layer_2" data-name="Layer 2"><g id="Layer_151" data-name="Layer 151"><g id="AlignMiddle"><path class="cls-1" d="M25,50A25,25,0,1,1,50,25,25,25,0,0,1,25,50Z"/><path class="cls-2" d="M36.9,26H31.49a.95.95,0,0,1,0-1.9H36.9a1,1,0,1,1,0,1.9Z"/><path class="cls-2" d="M27.32,26H22.44a1,1,0,1,1,0-1.9h4.88a.95.95,0,0,1,0,1.9Z"/><path class="cls-2" d="M18.27,26H13.1a1,1,0,1,1,0-1.9h5.17a1,1,0,1,1,0,1.9Z"/><path class="cls-2" d="M22.44,37.86H18.27a1,1,0,0,1-.95-1V13.1a1,1,0,0,1,.95-1h4.17a1,1,0,0,1,.95,1V36.9A1,1,0,0,1,22.44,37.86ZM19.23,36h2.26V14.05H19.23Z"/><path class="cls-2" d="M31.49,33H27.32a1,1,0,0,1-.95-1V18a1,1,0,0,1,.95-1h4.17a1,1,0,0,1,.95,1V32A1,1,0,0,1,31.49,33Zm-3.22-1.91h2.27V18.93H28.27Z"/></g></g></g></svg>