<svg xmlns="http://www.w3.org/2000/svg" viewBox="0 0 50 50"><defs><style>.cls-1{fill:#353942;}.cls-2{fill:#5b616b;}</style></defs><g id="Layer_2" data-name="Layer 2"><g id="Layer_151" data-name="Layer 151"><g id="AnteriorOrientation"><path class="cls-1" d="M25,50A25,25,0,1,1,50,25,25,25,0,0,1,25,50Z"/><path class="cls-2" d="M36.91,37.86a1,1,0,0,1-.86-.53l-11-22.11L14,37.33a1,1,0,0,1-1.71-.85l12-23.81a1,1,0,0,1,.85-.53h0a1,1,0,0,1,.86.53L37.76,36.48a1,1,0,0,1-.43,1.28A.92.92,0,0,1,36.91,37.86Z"/><path class="cls-2" d="M33.71,31.43H16.32a.95.95,0,0,1,0-1.9H33.71a1,1,0,1,1,0,1.9Z"/></g></g></g></svg>