<svg xmlns="http://www.w3.org/2000/svg" viewBox="0 0 50 50"><defs><style>.cls-1{fill:#353942;}.cls-2{fill:#5b616b;}</style></defs><g id="Layer_2" data-name="Layer 2"><g id="Layer_151" data-name="Layer 151"><g id="Arrow"><path class="cls-1" d="M25,50A25,25,0,1,1,50,25,25,25,0,0,1,25,50Z"/><path class="cls-2" d="M13.1,22.82a1,1,0,0,1-1-.95V13.1a1,1,0,0,1,1-1h8.77a1,1,0,0,1,0,1.91H14.05v7.82A1,1,0,0,1,13.1,22.82Z"/><path class="cls-2" d="M36.9,37.86a1,1,0,0,1-.67-.28L12.42,13.77a1,1,0,1,1,1.35-1.35L37.58,36.23a1,1,0,0,1,0,1.35A1,1,0,0,1,36.9,37.86Z"/></g></g></g></svg>