<svg xmlns="http://www.w3.org/2000/svg" viewBox="0 0 50 50"><defs><style>.cls-1{fill:#353942;}.cls-2{fill:#5b616b;}</style></defs><g id="Layer_2" data-name="Layer 2"><g id="Layer_151" data-name="Layer 151"><g id="BrightnessContrast"><path class="cls-1" d="M25,50A25,25,0,1,1,50,25,25,25,0,0,1,25,50Z"/><path class="cls-2" d="M25,37.86a1,1,0,0,1-.95-1V33.78a1,1,0,0,1,1.9,0V36.9A1,1,0,0,1,25,37.86Z"/><path class="cls-2" d="M25,17.17a.94.94,0,0,1-.95-1V13.1a1,1,0,1,1,1.9,0v3.12A.94.94,0,0,1,25,17.17Z"/><path class="cls-2" d="M18.79,19.74a.92.92,0,0,1-.67-.28l-2.21-2.2a1,1,0,0,1,1.35-1.35l2.2,2.21a.93.93,0,0,1,0,1.34A.91.91,0,0,1,18.79,19.74Z"/><path class="cls-2" d="M33.42,34.37a.94.94,0,0,1-.68-.28l-2.21-2.21a1,1,0,1,1,1.35-1.35l2.21,2.21a1,1,0,0,1,0,1.35A.92.92,0,0,1,33.42,34.37Z"/><path class="cls-2" d="M31.21,19.74a1,1,0,0,1-.68-.27,1,1,0,0,1,0-1.35l2.21-2.21a1,1,0,1,1,1.35,1.35l-2.21,2.21A1,1,0,0,1,31.21,19.74Z"/><path class="cls-2" d="M16.58,34.37a.92.92,0,0,1-.67-.28,1,1,0,0,1,0-1.35l2.21-2.21a1,1,0,1,1,1.35,1.35l-2.21,2.21A.94.94,0,0,1,16.58,34.37Z"/><path class="cls-2" d="M36.9,26H33.78a1,1,0,1,1,0-1.9H36.9a1,1,0,1,1,0,1.9Z"/><path class="cls-2" d="M16.22,26H13.1a1,1,0,1,1,0-1.9h3.12a.95.95,0,0,1,0,1.9Z"/><path class="cls-2" d="M25,30.89A5.89,5.89,0,1,1,30.89,25,5.89,5.89,0,0,1,25,30.89ZM25,21a4,4,0,1,0,4,4A4,4,0,0,0,25,21Z"/></g></g></g></svg>