<svg id="Layer_1" data-name="Layer 1" xmlns="http://www.w3.org/2000/svg" xmlns:xlink="http://www.w3.org/1999/xlink" viewBox="0 0 612 612"><defs><style>.cls-1,.cls-10,.cls-11,.cls-12,.cls-13,.cls-14,.cls-15,.cls-16,.cls-17,.cls-2,.cls-3,.cls-4,.cls-5,.cls-6,.cls-7,.cls-8,.cls-9{stroke:#232323;stroke-miterlimit:10;stroke-width:1.31px;}.cls-1{fill:url(#linear-gradient);}.cls-2{fill:url(#linear-gradient-2);}.cls-3{fill:url(#linear-gradient-3);}.cls-4{fill:url(#linear-gradient-4);}.cls-5{fill:url(#linear-gradient-5);}.cls-6{fill:url(#linear-gradient-6);}.cls-7{fill:url(#linear-gradient-7);}.cls-8{fill:url(#linear-gradient-8);}.cls-9{fill:url(#linear-gradient-9);}.cls-10{fill:url(#linear-gradient-10);}.cls-11{fill:url(#linear-gradient-11);}.cls-12{fill:url(#linear-gradient-12);}.cls-13{fill:url(#linear-gradient-13);}.cls-14{fill:url(#linear-gradient-14);}.cls-15{fill:url(#linear-gradient-15);}.cls-16{fill:url(#linear-gradient-16);}.cls-17{fill:url(#linear-gradient-17);}</style><linearGradient id="linear-gradient" x1="301.93" y1="141.98" x2="301.93" y2="468.39" gradientUnits="userSpaceOnUse"><stop offset="0" stop-color="#fafafa"/><stop offset="1" stop-color="#ebebeb"/></linearGradient><linearGradient id="linear-gradient-2" x1="306.02" y1="30.13" x2="306.02" y2="71.07" xlink:href="#linear-gradient"/><linearGradient id="linear-gradient-3" x1="125.55" y1="104.94" x2="125.55" y2="146.33" xlink:href="#linear-gradient"/><linearGradient id="linear-gradient-4" x1="50.47" y1="285.57" x2="50.47" y2="326.44" xlink:href="#linear-gradient"/><linearGradient id="linear-gradient-5" x1="125.31" y1="466.14" x2="125.31" y2="507.04" xlink:href="#linear-gradient"/><linearGradient id="linear-gradient-6" x1="305.99" y1="540.98" x2="305.99" y2="581.87" xlink:href="#linear-gradient"/><linearGradient id="linear-gradient-7" x1="486.63" y1="466.06" x2="486.63" y2="507.07" xlink:href="#linear-gradient"/><linearGradient id="linear-gradient-8" x1="561.53" y1="285.57" x2="561.53" y2="326.44" xlink:href="#linear-gradient"/><linearGradient id="linear-gradient-9" x1="486.74" y1="104.94" x2="486.74" y2="145.67" xlink:href="#linear-gradient"/><linearGradient id="linear-gradient-10" x1="403.1" y1="49.3" x2="403.1" y2="90.25" xlink:href="#linear-gradient"/><linearGradient id="linear-gradient-11" x1="207.66" y1="49.89" x2="207.66" y2="91.29" xlink:href="#linear-gradient"/><linearGradient id="linear-gradient-12" x1="69.66" y1="188.44" x2="69.66" y2="229.33" xlink:href="#linear-gradient"/><linearGradient id="linear-gradient-13" x1="70.25" y1="383.9" x2="70.25" y2="424.82" xlink:href="#linear-gradient"/><linearGradient id="linear-gradient-14" x1="208.93" y1="521.8" x2="208.93" y2="562.7" xlink:href="#linear-gradient"/><linearGradient id="linear-gradient-15" x1="404.46" y1="521.16" x2="404.46" y2="562.18" xlink:href="#linear-gradient"/><linearGradient id="linear-gradient-16" x1="542.37" y1="382.69" x2="542.37" y2="423.57" xlink:href="#linear-gradient"/><linearGradient id="linear-gradient-17" x1="541.87" y1="187.19" x2="541.87" y2="227.93" xlink:href="#linear-gradient"/></defs><path class="cls-1" d="M465.2,305.18c0,90-73.25,163.21-163.28,163.21S138.66,395.17,138.66,305.18,211.9,142,301.92,142,465.16,215.19,465.2,305.18Z"/><circle class="cls-2" cx="306.02" cy="50.6" r="20.47"/><circle class="cls-3" cx="125.55" cy="125.64" r="20.69"/><circle class="cls-4" cx="50.47" cy="306.01" r="20.44"/><circle class="cls-5" cx="125.31" cy="486.59" r="20.45"/><circle class="cls-6" cx="305.99" cy="561.42" r="20.44"/><circle class="cls-7" cx="486.63" cy="486.56" r="20.5"/><circle class="cls-8" cx="561.53" cy="306.01" r="20.44"/><circle class="cls-9" cx="486.74" cy="125.31" r="20.36"/><circle class="cls-10" cx="403.1" cy="69.77" r="20.47"/><circle class="cls-11" cx="207.66" cy="70.59" r="20.69"/><circle class="cls-12" cx="69.66" cy="208.88" r="20.44"/><circle class="cls-13" cx="70.25" cy="404.36" r="20.45"/><circle class="cls-14" cx="208.93" cy="542.25" r="20.44"/><circle class="cls-15" cx="404.46" cy="541.67" r="20.5"/><circle class="cls-16" cx="542.37" cy="403.13" r="20.44"/><circle class="cls-17" cx="541.87" cy="207.56" r="20.36"/></svg>