<svg xmlns="http://www.w3.org/2000/svg" viewBox="0 0 50 50"><defs><style>.cls-1{fill:#353942;}.cls-2{fill:#5b616b;}</style></defs><g id="Layer_2" data-name="Layer 2"><g id="Layer_151" data-name="Layer 151"><g id="CalibrateRulerAnn"><path class="cls-1" d="M25,50A25,25,0,1,1,50,25,25,25,0,0,1,25,50Z"/><path class="cls-2" d="M13.1,22a1,1,0,0,1-1-.95v-8a1,1,0,1,1,1.91,0v8A1,1,0,0,1,13.1,22Z"/><path class="cls-2" d="M17.06,20.38a1,1,0,0,1-.95-1V14.74a1,1,0,0,1,1.91,0v4.68A1,1,0,0,1,17.06,20.38Z"/><path class="cls-2" d="M21,20.38a1,1,0,0,1-1-1V14.74a.95.95,0,1,1,1.9,0v4.68A1,1,0,0,1,21,20.38Z"/><path class="cls-2" d="M29,20.38a1,1,0,0,1-.95-1V14.74a1,1,0,0,1,1.9,0v4.68A1,1,0,0,1,29,20.38Z"/><path class="cls-2" d="M32.94,20.38a1,1,0,0,1-1-1V14.74a1,1,0,0,1,1.91,0v4.68A1,1,0,0,1,32.94,20.38Z"/><path class="cls-2" d="M25,22a.94.94,0,0,1-.95-.95v-8a1,1,0,1,1,1.9,0v8A.94.94,0,0,1,25,22Z"/><path class="cls-2" d="M36.9,22a1,1,0,0,1-.95-.95v-8a1,1,0,1,1,1.91,0v8A1,1,0,0,1,36.9,22Z"/><path class="cls-2" d="M36.9,18H13.1a1,1,0,1,1,0-1.91H36.9a1,1,0,1,1,0,1.91Z"/><path class="cls-2" d="M17.06,32.79a1,1,0,0,1-.95-1V29.09a1,1,0,1,1,1.91,0v2.74A1,1,0,0,1,17.06,32.79Z"/><path class="cls-2" d="M21,32.79a1,1,0,0,1-1-1V29.09a1,1,0,1,1,1.9,0v2.74A1,1,0,0,1,21,32.79Z"/><path class="cls-2" d="M29,32.79a1,1,0,0,1-.95-1V29.09a1,1,0,1,1,1.9,0v2.74A1,1,0,0,1,29,32.79Z"/><path class="cls-2" d="M32.94,32.79a1,1,0,0,1-1-1V29.09a1,1,0,1,1,1.91,0v2.74A1,1,0,0,1,32.94,32.79Z"/><path class="cls-2" d="M25,34.24a.94.94,0,0,1-.95-1v-4.2a1,1,0,1,1,1.9,0v4.2A.94.94,0,0,1,25,34.24Z"/><path class="cls-2" d="M36.9,37.86H13.1a1,1,0,0,1-1-1V29.09a1,1,0,0,1,1-1H36.9a1,1,0,0,1,1,1V36.9A1,1,0,0,1,36.9,37.86ZM14.05,36H36V30H14.05Z"/></g></g></g></svg>