<svg xmlns="http://www.w3.org/2000/svg" xmlns:xlink="http://www.w3.org/1999/xlink" viewBox="0 0 612 612"><defs><style>.cls-1,.cls-10,.cls-11,.cls-12,.cls-13,.cls-14,.cls-2,.cls-3,.cls-4,.cls-5,.cls-6,.cls-7,.cls-8,.cls-9{stroke:#232323;stroke-miterlimit:10;stroke-width:1.31px;}.cls-1{fill:url(#linear-gradient);}.cls-2{fill:url(#linear-gradient-2);}.cls-3{fill:url(#linear-gradient-3);}.cls-4{fill:url(#linear-gradient-4);}.cls-5{fill:url(#linear-gradient-5);}.cls-6{fill:url(#linear-gradient-6);}.cls-7{fill:url(#linear-gradient-7);}.cls-8{fill:url(#linear-gradient-8);}.cls-9{fill:url(#linear-gradient-9);}.cls-10{fill:url(#linear-gradient-10);}.cls-11{fill:url(#linear-gradient-11);}.cls-12{fill:url(#linear-gradient-12);}.cls-13{fill:url(#linear-gradient-13);}.cls-14{fill:url(#linear-gradient-14);}</style><linearGradient id="linear-gradient" x1="53.36" y1="33.17" x2="53.36" y2="242.84" gradientUnits="userSpaceOnUse"><stop offset="0" stop-color="#fafafa"/><stop offset="1" stop-color="#ebebeb"/></linearGradient><linearGradient id="linear-gradient-2" x1="137.59" y1="68.14" x2="137.59" y2="207.86" xlink:href="#linear-gradient"/><linearGradient id="linear-gradient-3" x1="221.79" y1="68.14" x2="221.79" y2="207.86" xlink:href="#linear-gradient"/><linearGradient id="linear-gradient-4" x1="390.21" y1="68.14" x2="390.21" y2="207.86" xlink:href="#linear-gradient"/><linearGradient id="linear-gradient-5" x1="474.43" y1="68.14" x2="474.43" y2="207.86" xlink:href="#linear-gradient"/><linearGradient id="linear-gradient-6" x1="306" y1="33.17" x2="306" y2="242.84" xlink:href="#linear-gradient"/><linearGradient id="linear-gradient-7" x1="558.64" y1="33.17" x2="558.64" y2="242.84" xlink:href="#linear-gradient"/><linearGradient id="linear-gradient-8" x1="306" y1="117.8" x2="306" y2="158.21" xlink:href="#linear-gradient"/><linearGradient id="linear-gradient-9" x1="137.59" y1="372.54" x2="137.59" y2="471.22" xlink:href="#linear-gradient"/><linearGradient id="linear-gradient-10" x1="221.79" y1="372.54" x2="221.79" y2="471.22" xlink:href="#linear-gradient"/><linearGradient id="linear-gradient-11" x1="390.21" y1="372.54" x2="390.21" y2="471.22" xlink:href="#linear-gradient"/><linearGradient id="linear-gradient-12" x1="474.43" y1="372.54" x2="474.43" y2="471.22" xlink:href="#linear-gradient"/><linearGradient id="linear-gradient-13" x1="306" y1="372.54" x2="306" y2="502.16" xlink:href="#linear-gradient"/><linearGradient id="linear-gradient-14" x1="306" y1="372.52" x2="306" y2="578.83" xlink:href="#linear-gradient"/></defs><g id="Layer_2" data-name="Layer 2"><path class="cls-1" d="M53.36,242.84a20.2,20.2,0,0,1-20.2-20.21V53.37a20.2,20.2,0,0,1,40.4,0V222.63A20.2,20.2,0,0,1,53.36,242.84Z"/><path class="cls-2" d="M137.59,207.86a20.2,20.2,0,0,1-20.2-20.2V88.35a20.2,20.2,0,1,1,40.4,0v99.31A20.21,20.21,0,0,1,137.59,207.86Z"/><path class="cls-3" d="M221.79,207.86a20.2,20.2,0,0,1-20.2-20.2V88.35a20.21,20.21,0,1,1,40.41,0v99.31A20.21,20.21,0,0,1,221.79,207.86Z"/><path class="cls-4" d="M390.21,207.86A20.2,20.2,0,0,1,370,187.66V88.35a20.21,20.21,0,1,1,40.41,0v99.31A20.21,20.21,0,0,1,390.21,207.86Z"/><path class="cls-5" d="M474.43,207.86a20.2,20.2,0,0,1-20.2-20.2V88.35a20.2,20.2,0,1,1,40.4,0v99.31A20.21,20.21,0,0,1,474.43,207.86Z"/><path class="cls-6" d="M306,242.84a20.2,20.2,0,0,1-20.2-20.21V53.37a20.2,20.2,0,0,1,40.4,0V222.63A20.22,20.22,0,0,1,306,242.84Z"/><path class="cls-7" d="M558.64,242.84a20.2,20.2,0,0,1-20.2-20.21V53.37a20.2,20.2,0,0,1,40.4,0V222.63A20.22,20.22,0,0,1,558.64,242.84Z"/><path class="cls-8" d="M558.64,158.21H53.36a20.21,20.21,0,0,1,0-40.41H558.64a20.21,20.21,0,0,1,0,40.41Z"/><path class="cls-9" d="M137.59,471.22A20.2,20.2,0,0,1,117.39,451V392.74a20.2,20.2,0,0,1,40.4,0V451A20.2,20.2,0,0,1,137.59,471.22Z"/><path class="cls-10" d="M221.79,471.22A20.2,20.2,0,0,1,201.59,451V392.74a20.21,20.21,0,0,1,40.41,0V451A20.2,20.2,0,0,1,221.79,471.22Z"/><path class="cls-11" d="M390.21,471.22A20.2,20.2,0,0,1,370,451V392.74a20.21,20.21,0,0,1,40.41,0V451A20.2,20.2,0,0,1,390.21,471.22Z"/><path class="cls-12" d="M474.43,471.22A20.2,20.2,0,0,1,454.23,451V392.74a20.2,20.2,0,1,1,40.4,0V451A20.2,20.2,0,0,1,474.43,471.22Z"/><path class="cls-13" d="M306,502.16A20.2,20.2,0,0,1,285.8,482V392.74a20.2,20.2,0,0,1,40.4,0V482A20.21,20.21,0,0,1,306,502.16Z"/><path class="cls-14" d="M558.64,578.83H53.36a20.2,20.2,0,0,1-20.2-20.2V392.72a20.2,20.2,0,0,1,20.2-20.2H558.64a20.2,20.2,0,0,1,20.2,20.2V558.63A20.2,20.2,0,0,1,558.64,578.83Zm-485-40.43H538.44V412.94H73.59Z"/></g></svg>