<svg id="Layer_1" data-name="Layer 1" xmlns="http://www.w3.org/2000/svg" xmlns:xlink="http://www.w3.org/1999/xlink" viewBox="0 0 612 612"><defs><style>.cls-1,.cls-2{stroke:#232323;stroke-miterlimit:10;stroke-width:1.31px;}.cls-1{fill:url(#linear-gradient);}.cls-2{fill:url(#linear-gradient-2);}</style><linearGradient id="linear-gradient" x1="306.46" y1="34.86" x2="306.46" y2="573.04" gradientUnits="userSpaceOnUse"><stop offset="0" stop-color="#fafafa"/><stop offset="1" stop-color="#ebebeb"/></linearGradient><linearGradient id="linear-gradient-2" x1="306.47" y1="39.14" x2="306.47" y2="577.21" xlink:href="#linear-gradient"/></defs><path class="cls-1" d="M560.8,31.39a20.29,20.29,0,0,0-20.35,20.2V116H496.36V86.57a20.35,20.35,0,0,0-40.69,0V116H411.58V86.57a20.35,20.35,0,0,0-40.69,0V116h-44.1V51.59a20.35,20.35,0,0,0-40.69,0V116H242V86.57a20.35,20.35,0,0,0-40.7,0V116H157.24V86.57a20.35,20.35,0,0,0-40.69,0V116H72.46V51.59a20.35,20.35,0,0,0-40.7,0V220.82a20.35,20.35,0,0,0,40.7,0V156.4h44.09v29.44a20.35,20.35,0,0,0,40.69,0V156.4h44.09v29.44a20.35,20.35,0,0,0,40.7,0V156.4h44.09v64.42a20.35,20.35,0,0,0,40.69,0V156.4h44.1v29.44a20.35,20.35,0,0,0,40.69,0V156.4h44.09v29.44a20.35,20.35,0,0,0,40.69,0V156.4h44.09v64.42a20.35,20.35,0,0,0,40.7,0V51.59A20.32,20.32,0,0,0,560.8,31.39Z"/><path class="cls-2" d="M560.8,370.67H476.12V477.39a20.35,20.35,0,0,1-40.69,0V370.67H326.83v69a20.35,20.35,0,0,1-40.69,0v-69H177.68l0,106.79a20.35,20.35,0,0,1-40.69,0V370.67H52.14a20.29,20.29,0,0,0-20.36,20.21V556.73a20.29,20.29,0,0,0,20.36,20.2H560.8a20.29,20.29,0,0,0,20.35-20.2V390.88A20.29,20.29,0,0,0,560.8,370.67Z"/></svg>