<svg xmlns="http://www.w3.org/2000/svg" viewBox="0 0 50 50"><defs><style>.cls-1{fill:#353942;}.cls-2{fill:#5b616b;}</style></defs><g id="Layer_2" data-name="Layer 2"><g id="Layer_151" data-name="Layer 151"><g id="celophmetric"><path class="cls-1" d="M25,50A25,25,0,1,1,50,25,25,25,0,0,1,25,50Z"/><path class="cls-2" d="M23.33,12.14c5.77,0,11.17,3.67,11.17,9,0,5.1-3.65,5.16-3.9,10.69a.93.93,0,0,1-.57.82,13.5,13.5,0,0,0-5.56,4.79,1,1,0,0,1-1.7-.2,5.31,5.31,0,0,0-2.71-3.31c-1.41-.53-1.32.61-3.65.22s-.51-1.85-1-2.67-.46-1-.19-1.19a1.2,1.2,0,0,1-.73-.94c0-.67.3-1.19-.29-1.46s-1.57-.3-.7-1.79,1.77-2.24,1.11-3.65S13.31,12.14,23.33,12.14Z"/></g></g></g></svg>