<svg xmlns="http://www.w3.org/2000/svg" xmlns:xlink="http://www.w3.org/1999/xlink" viewBox="0 0 612 612"><defs><style>.cls-1{stroke:#232323;stroke-miterlimit:10;stroke-width:1.31px;fill:url(#linear-gradient);}</style><linearGradient id="linear-gradient" x1="306" y1="33.19" x2="306" y2="578.81" gradientUnits="userSpaceOnUse"><stop offset="0" stop-color="#fafafa"/><stop offset="1" stop-color="#ebebeb"/></linearGradient></defs><g id="Layer_2" data-name="Layer 2"><path class="cls-1" d="M295.45,33.19c122.35,0,237.27,78,237.27,191.18,0,108.33-77.53,109.6-82.84,227.07a21.24,21.24,0,0,1-12.32,17.41A286.71,286.71,0,0,0,319.46,570.6a21.25,21.25,0,0,1-36.12-4.25A111.73,111.73,0,0,0,226,496c-30-11.26-28,13-77.53,4.68s-11-39.3-21.24-56.72-10-21.24-4-25.28a25.68,25.68,0,0,1-15.72-20c0-14.23,6.37-25.28-6-31s-33.35-6.37-15.08-38,37.81-47.58,23.58-77.53S82.4,33.19,295.45,33.19Z"/></g></svg>