<svg id="Layer_1" data-name="Layer 1" xmlns="http://www.w3.org/2000/svg" xmlns:xlink="http://www.w3.org/1999/xlink" viewBox="0 0 612 612"><defs><style>.cls-1{stroke:#232323;stroke-miterlimit:10;stroke-width:1.31px;fill:url(#linear-gradient);}</style><linearGradient id="linear-gradient" x1="306" y1="31.08" x2="306" y2="580.92" gradientUnits="userSpaceOnUse"><stop offset="0" stop-color="#fafafa"/><stop offset="1" stop-color="#ebebeb"/></linearGradient></defs><path id="CinePlayer" class="cls-1" d="M559.16,31.08a20.32,20.32,0,0,0-20.25,20.37v52.82h-59.5V51.45a20.26,20.26,0,1,0-40.51,0V71.81H173.09V51.45a20.25,20.25,0,1,0-40.5,0v52.82H73.09V51.45a20.26,20.26,0,1,0-40.51,0v509.1a20.26,20.26,0,1,0,40.51,0V507.73h59.5v52.82a20.25,20.25,0,1,0,40.5,0V540.19H438.91v20.36a20.25,20.25,0,1,0,40.5,0V507.73h59.5v52.82a20.26,20.26,0,1,0,40.51,0V51.45A20.33,20.33,0,0,0,559.16,31.08ZM479.41,265.9h59.5v80.2h-59.5V265.9ZM538.91,145v80.19h-59.5V145Zm-100-32.46v173.1H173.09V112.54ZM73.11,265.9h59.5v80.2H73.11ZM132.59,145v80.19H73.09V145ZM73.11,467V386.83h59.5V467Zm100,32.46V326.36H438.91v173.1ZM479.41,467V386.83h59.5V467Z"/></svg>