<svg xmlns="http://www.w3.org/2000/svg" viewBox="0 0 50 50"><defs><style>.cls-1{fill:#353942;}.cls-2{fill:#5b616b;}</style></defs><g id="Layer_2" data-name="Layer 2"><g id="Layer_151" data-name="Layer 151"><g id="CinePlayer"><path class="cls-1" d="M25,50A25,25,0,1,1,50,25,25,25,0,0,1,25,50Z"/><path class="cls-2" d="M36.9,37.86a1,1,0,0,1-.95-1V13.1a1,1,0,1,1,1.91,0V36.9A1,1,0,0,1,36.9,37.86Z"/><path class="cls-2" d="M13.1,37.86a1,1,0,0,1-1-1V13.1a1,1,0,1,1,1.91,0V36.9A1,1,0,0,1,13.1,37.86Z"/><path class="cls-2" d="M32.2,37.86a1,1,0,0,1-1-1V13.1a1,1,0,1,1,1.9,0V36.9A1,1,0,0,1,32.2,37.86Z"/><path class="cls-2" d="M17.8,37.86a1,1,0,0,1-.95-1V13.1a1,1,0,1,1,1.9,0V36.9A1,1,0,0,1,17.8,37.86Z"/><path class="cls-2" d="M17.8,23.13H13.1a1,1,0,0,1-1-1V16.52a1,1,0,0,1,1-.95h4.7a1,1,0,0,1,.95.95v5.65A1,1,0,0,1,17.8,23.13Zm-3.75-1.91h2.8V17.47h-2.8Z"/><path class="cls-2" d="M17.8,28.78H13.1a1,1,0,0,1-1-1V22.17a1,1,0,0,1,1-1h4.7a1,1,0,0,1,.95,1v5.66A1,1,0,0,1,17.8,28.78Zm-3.75-1.91h2.8V23.13h-2.8Z"/><path class="cls-2" d="M17.8,34.43H13.1a1,1,0,0,1-1-1V27.83a1,1,0,0,1,1-1h4.7a1,1,0,0,1,.95,1v5.65A1,1,0,0,1,17.8,34.43Zm-3.75-1.9h2.8V28.78h-2.8Z"/><path class="cls-2" d="M36.9,23.13H32.2a1,1,0,0,1-1-1V16.52a1,1,0,0,1,1-.95h4.7a1,1,0,0,1,1,.95v5.65A1,1,0,0,1,36.9,23.13Zm-3.75-1.91H36V17.47h-2.8Z"/><path class="cls-2" d="M36.9,28.78H32.2a1,1,0,0,1-1-1V22.17a1,1,0,0,1,1-1h4.7a1,1,0,0,1,1,1v5.66A1,1,0,0,1,36.9,28.78Zm-3.75-1.91H36V23.13h-2.8Z"/><path class="cls-2" d="M36.9,34.43H32.2a1,1,0,0,1-1-1V27.83a1,1,0,0,1,1-1h4.7a1,1,0,0,1,1,1v5.65A1,1,0,0,1,36.9,34.43Zm-3.75-1.9H36V28.78h-2.8Z"/><path class="cls-2" d="M32.2,16H17.8a.95.95,0,0,1,0-1.9H32.2a1,1,0,1,1,0,1.9Z"/><path class="cls-2" d="M32.2,36H17.8a.95.95,0,0,1,0-1.9H32.2a1,1,0,1,1,0,1.9Z"/><path class="cls-2" d="M32.2,26H17.8a.95.95,0,0,1,0-1.9H32.2a1,1,0,1,1,0,1.9Z"/></g></g></g></svg>