<svg xmlns="http://www.w3.org/2000/svg" viewBox="0 0 50 50"><defs><style>.cls-1{fill:#353942;}.cls-2{fill:#5b616b;}</style></defs><g id="Layer_2" data-name="Layer 2"><g id="Layer_151" data-name="Layer 151"><g id="ClearAll"><path class="cls-1" d="M25,50A25,25,0,1,1,50,25,25,25,0,0,1,25,50Z"/><path class="cls-2" d="M30.24,21.7H19.76a1,1,0,0,1-1-.95V18.67a2.54,2.54,0,0,1,2.54-2.54h7.32a2.54,2.54,0,0,1,2.54,2.54v2.08A1,1,0,0,1,30.24,21.7Zm-9.53-1.91h8.58V18.67a.63.63,0,0,0-.63-.63H21.34a.63.63,0,0,0-.63.63Z"/><path class="cls-2" d="M28.45,33.87h-6.9A2.54,2.54,0,0,1,19,31.69L17.52,20.88a1,1,0,0,1,.23-.76.94.94,0,0,1,.72-.33H31.53a.94.94,0,0,1,.72.33,1,1,0,0,1,.23.76L31,31.69A2.54,2.54,0,0,1,28.45,33.87ZM19.56,21.7l1.37,9.72a.63.63,0,0,0,.62.54h6.9a.63.63,0,0,0,.62-.54l1.37-9.72Z"/><path class="cls-2" d="M32.92,21.7H17.08a1,1,0,0,1,0-1.91H32.92a1,1,0,0,1,0,1.91Z"/><path class="cls-2" d="M23.37,30.17a1,1,0,0,1-.94-.84L21.8,24.2a1,1,0,0,1,.83-1.06,1,1,0,0,1,1.06.83l.63,5.13a1,1,0,0,1-.83,1.06Z"/><path class="cls-2" d="M26.63,30.17h-.12a1,1,0,0,1-.83-1.06L26.31,24a1,1,0,0,1,1.06-.83,1,1,0,0,1,.83,1.06l-.63,5.13A1,1,0,0,1,26.63,30.17Z"/><path class="cls-2" d="M34.52,37.86h-19a3.35,3.35,0,0,1-3.34-3.34v-19a3.35,3.35,0,0,1,3.34-3.34h19a3.35,3.35,0,0,1,3.34,3.34v19A3.35,3.35,0,0,1,34.52,37.86Zm-19-23.81a1.43,1.43,0,0,0-1.43,1.43v19A1.43,1.43,0,0,0,15.48,36h19A1.43,1.43,0,0,0,36,34.52v-19a1.43,1.43,0,0,0-1.43-1.43Z"/></g></g></g></svg>