<svg xmlns="http://www.w3.org/2000/svg" viewBox="0 0 50 50"><defs><style>.cls-1{fill:#353942;}.cls-2{fill:#5b616b;}</style></defs><g id="Layer_2" data-name="Layer 2"><g id="Layer_151" data-name="Layer 151"><g id="Clear"><path class="cls-1" d="M25,50A25,25,0,1,1,50,25,25,25,0,0,1,25,50Z"/><path class="cls-2" d="M32.89,19.56H17.11a1,1,0,0,1-.95-1V15.48a3.34,3.34,0,0,1,3.33-3.34h11a3.34,3.34,0,0,1,3.33,3.34V18.6A1,1,0,0,1,32.89,19.56ZM18.07,17.65H31.93V15.48a1.43,1.43,0,0,0-1.42-1.43h-11a1.43,1.43,0,0,0-1.42,1.43Z"/><path class="cls-2" d="M30.19,37.86H19.81A3.35,3.35,0,0,1,16.51,35L14.23,18.74a1,1,0,0,1,.23-.76.94.94,0,0,1,.72-.33H34.82a.94.94,0,0,1,.72.33,1,1,0,0,1,.23.76L33.49,35A3.35,3.35,0,0,1,30.19,37.86ZM16.27,19.56,18.4,34.72A1.44,1.44,0,0,0,19.81,36H30.19a1.44,1.44,0,0,0,1.41-1.23l2.13-15.16Z"/><path class="cls-2" d="M36.9,19.56H13.1a1,1,0,1,1,0-1.91H36.9a1,1,0,1,1,0,1.91Z"/><path class="cls-2" d="M22.55,32.29a1,1,0,0,1-.94-.84l-.95-7.71a1,1,0,0,1,1.89-.23l.95,7.71a1,1,0,0,1-.83,1.06Z"/><path class="cls-2" d="M27.45,32.29h-.12a1,1,0,0,1-.83-1.06l.95-7.71a1,1,0,0,1,1.89.23l-.95,7.71A1,1,0,0,1,27.45,32.29Z"/></g></g></g></svg>