<svg id="Layer_1" data-name="Layer 1" xmlns="http://www.w3.org/2000/svg" xmlns:xlink="http://www.w3.org/1999/xlink" viewBox="0 0 612 612"><defs><style>.cls-1,.cls-2{stroke:#232323;stroke-miterlimit:10;stroke-width:1.31px;}.cls-1{fill:url(#linear-gradient);}.cls-2{fill:url(#linear-gradient-2);}</style><linearGradient id="linear-gradient" x1="238.34" y1="53.8" x2="238.34" y2="436.9" gradientUnits="userSpaceOnUse"><stop offset="0" stop-color="#fafafa"/><stop offset="1" stop-color="#ebebeb"/></linearGradient><linearGradient id="linear-gradient-2" x1="375.55" y1="216.73" x2="375.55" y2="558.22" xlink:href="#linear-gradient"/></defs><path class="cls-1" d="M443.35,207.53c-8.27-84.33-92.88-151-198-153.73C129.4,56.42,36,132.29,32.75,226.54c-.07,1.68-.09,3.38-.09,5.08,0,39.56,15.84,75.9,42.64,105.39q3,3.25,6.09,6.41c-7.25,29.21-26,56.3-37.48,70.82-5.43,6.88-9.23,10.95-9.36,11.09a6.86,6.86,0,0,0,4.93,11.57c56.67,0,98.45-27.16,120.25-43.95,3,1.12,2.47-3.29,3.76-5a10.75,10.75,0,0,0,1.94-3.35c.64-2.23,3.67-1.17,3.19-6.13a246.9,246.9,0,0,0,70.07,10.11c113.81,0,205.34-75,205.34-167.43A133.17,133.17,0,0,0,443.35,207.53ZM137.48,159.92H299.2a18.14,18.14,0,1,1,0,36.28H137.48a18.14,18.14,0,1,1,0-36.28ZM342.14,282.29H137.48a18.14,18.14,0,1,1,0-36.28H342.14a18.14,18.14,0,1,1,0,36.28Z"/><path class="cls-2" d="M578.79,554.35a6.21,6.21,0,0,1-5.85,3.87c-53.33,0-92.65-25.57-113.19-41.37a245.28,245.28,0,0,1-86.44,15.6C273,532.45,190,474.23,171.73,397.12c1.79.58,3.6,1.13,5.42,1.67a262.22,262.22,0,0,0,74.46,10.75c120.94,0,218.19-79.66,218.19-177.92a144.28,144.28,0,0,0-.72-14.45,3.49,3.49,0,0,0-.05-.44c65.59,28,110.31,83.9,110.31,148.31,0,39.94-17.17,76.45-45.85,105.2,10.07,40.55,43.68,76.69,44.09,77.08A6.25,6.25,0,0,1,578.79,554.35Z"/></svg>