<svg xmlns="http://www.w3.org/2000/svg" viewBox="0 0 50 50"><defs><style>.cls-1{fill:#353942;}.cls-2{fill:#5b616b;}</style></defs><g id="Layer_2" data-name="Layer 2"><g id="Layer_151" data-name="Layer 151"><g id="Comment"><path class="cls-1" d="M25,50A25,25,0,1,1,50,25,25,25,0,0,1,25,50Z"/><path class="cls-2" d="M17.36,31.24a1.09,1.09,0,0,1-.39-.08,1,1,0,0,1-.56-.87l0-3.47H13.1a1,1,0,0,1-1-.95V13.13a1,1,0,0,1,1-1H31.92a1,1,0,0,1,.95,1V25.87a1,1,0,0,1-.95.95H22.64L18,31A.92.92,0,0,1,17.36,31.24Zm-3.31-6.32h3.29a.94.94,0,0,1,.95.95v2.29l3.34-3a.93.93,0,0,1,.64-.24H31V14.08H14.05Z"/><path class="cls-2" d="M32.64,37.86a.93.93,0,0,1-.63-.25l-4.65-4.17H19a.95.95,0,0,1,0-1.9h8.69a.93.93,0,0,1,.64.24l3.34,3v-2.3a.94.94,0,0,1,.95-.94H36V20.7H34.8a1,1,0,0,1,0-1.91h2.1a1,1,0,0,1,1,1V32.49a1,1,0,0,1-1,.95H33.61l0,3.47a1,1,0,0,1-.56.87A1.09,1.09,0,0,1,32.64,37.86Z"/><path class="cls-2" d="M27.83,22.7H17.19a1,1,0,1,1,0-1.91H27.83a1,1,0,0,1,0,1.91Z"/><path class="cls-2" d="M25.6,18.17H17.19a1,1,0,1,1,0-1.9H25.6a1,1,0,0,1,0,1.9Z"/></g></g></g></svg>