<?xml version="1.0" encoding="iso-8859-1"?>
<!-- Generator: Adobe Illustrator 21.1.0, SVG Export Plug-In . SVG Version: 6.00 Build 0)  -->
<svg version="1.1" xmlns="http://www.w3.org/2000/svg" xmlns:xlink="http://www.w3.org/1999/xlink" x="0px" y="0px"
	 viewBox="0 0 49.996 49.996" style="enable-background:new 0 0 49.996 49.996;" xml:space="preserve">
<g id="ComposeLayout">
	<path style="fill:#353942;" d="M2.5,0C1.119,0,0,1.119,0,2.5v44.996c0,1.381,1.119,2.5,2.5,2.5h44.996c1.381,0,2.5-1.119,2.5-2.5
		V2.5c0-1.381-1.119-2.5-2.5-2.5H2.5z"/>
	<path style="fill:#5B616B;" d="M37.497,36.504H21.465l16.739-16.739c0.391-0.39,0.391-1.024,0-1.414l-6.554-6.554
		c-0.375-0.375-1.039-0.375-1.414,0L11.79,30.243c-0.188,0.188-0.293,0.442-0.293,0.707v6.554c0,0.552,0.448,1,1,1h25
		c0.552,0,1-0.448,1-1S38.049,36.504,37.497,36.504z M30.943,13.918l5.14,5.14l-3.496,3.496l-5.14-5.14L30.943,13.918z
		 M13.497,36.504v-5.14l12.536-12.536l5.14,5.14L18.637,36.504H13.497z"/>
</g>
<g id="Layer_1">
</g>
</svg>
