<svg id="Layer_1" data-name="Layer 1" xmlns="http://www.w3.org/2000/svg" xmlns:xlink="http://www.w3.org/1999/xlink" viewBox="0 0 612 612"><defs><style>.cls-1,.cls-2,.cls-3{stroke:#232323;stroke-miterlimit:10;stroke-width:1.31px;}.cls-1{fill:url(#linear-gradient);}.cls-2{fill:url(#linear-gradient-2);}.cls-3{fill:url(#linear-gradient-3);}</style><linearGradient id="linear-gradient" x1="273.22" y1="48.51" x2="273.22" y2="526.77" gradientUnits="userSpaceOnUse"><stop offset="0" stop-color="#fafafa"/><stop offset="1" stop-color="#ebebeb"/></linearGradient><linearGradient id="linear-gradient-2" x1="433.11" y1="264.53" x2="433.11" y2="563.49" xlink:href="#linear-gradient"/><linearGradient id="linear-gradient-3" x1="492.77" y1="131.03" x2="492.77" y2="245.11" xlink:href="#linear-gradient"/></defs><path id="Configure" class="cls-1" d="M273.2,212.89a75,75,0,0,0-75,74.73c0,1.66.06,3.3.16,4.93A74.18,74.18,0,0,0,209,326.3a75.15,75.15,0,0,0,122.94,7.78,74.24,74.24,0,0,0,15.85-38.34,72.72,72.72,0,0,0,.44-8.12C348.23,246.42,314.56,212.89,273.2,212.89Zm0,114.05a39.27,39.27,0,0,1-39-45.2,38.83,38.83,0,0,1,7.66-17.95,39.45,39.45,0,0,1,31.35-15.47h.63a39.31,39.31,0,0,1-.63,78.61Zm0-114a75,75,0,0,0-75,74.73c0,1.66.06,3.3.16,4.93A74.18,74.18,0,0,0,209,326.3a75.15,75.15,0,0,0,122.94,7.78,74.24,74.24,0,0,0,15.85-38.34,72.72,72.72,0,0,0,.44-8.12C348.23,246.42,314.56,212.89,273.2,212.89Zm0,114.05a39.27,39.27,0,0,1-39-45.2,38.83,38.83,0,0,1,7.66-17.95,39.45,39.45,0,0,1,31.35-15.47h.63a39.31,39.31,0,0,1-.63,78.61Zm0-114a75,75,0,0,0-75,74.73c0,1.66.06,3.3.16,4.93A74.18,74.18,0,0,0,209,326.3a75.15,75.15,0,0,0,122.94,7.78,74.24,74.24,0,0,0,15.85-38.34,72.72,72.72,0,0,0,.44-8.12C348.23,246.42,314.56,212.89,273.2,212.89Zm0,114.05a39.27,39.27,0,0,1-39-45.2,38.83,38.83,0,0,1,7.66-17.95,39.45,39.45,0,0,1,31.35-15.47h.63a39.31,39.31,0,0,1-.63,78.61Zm230.72-81.83a17.25,17.25,0,0,0-3.28-1.35l-31.27-9.44-25.1-7.56a178.74,178.74,0,0,0-6.88-16.57l5.44-10.12,9.87-18.35,11.51-21.41,1-1.84a17.66,17.66,0,0,0-3.1-20.88l-.69-.7-6.18-6.15-27.79-27.67-3.58-3.57a17.8,17.8,0,0,0-21-3.09l-12.49,6.66-28.73,15.34L351,124.1c-5.41-2.56-11-4.85-16.64-6.87L317.3,61.07a17.76,17.76,0,0,0-17-12.56H246.2a17.79,17.79,0,0,0-17,12.56l-17.05,56.16a179.89,179.89,0,0,0-16.66,6.87l-51.9-27.68a17.8,17.8,0,0,0-21,3.1L84.37,137.61a17.64,17.64,0,0,0-3.1,20.88L109,210.19a177,177,0,0,0-6.88,16.6l-56.36,17a17.72,17.72,0,0,0-12.63,17v53.86a17.72,17.72,0,0,0,12.63,17l56.37,17a178.35,178.35,0,0,0,6.89,16.57L81.27,416.8a17.66,17.66,0,0,0,3.1,20.9l38.24,38.08a17.76,17.76,0,0,0,21,3.07l51.91-27.68c5.41,2.55,11,4.84,16.65,6.86l3.48,11.46,9,29.65,4.57,15.05a17.77,17.77,0,0,0,17,12.58h54.08a17.79,17.79,0,0,0,17-12.58l.84-2.77.84-2.78,12.24-40.31,3.14-10.3A177.84,177.84,0,0,0,351,451.17l26.24,14,25.65,13.69a17.79,17.79,0,0,0,21-3.07l15.76-15.7,22.48-22.38a17.64,17.64,0,0,0,3.1-20.9l-9.7-18L437.89,366l-.5-.91c2.56-5.38,4.85-10.92,6.88-16.57l1.26-.39,35.88-10.8,19.23-5.8a17.68,17.68,0,0,0,12.63-17V260.73A17.71,17.71,0,0,0,503.92,245.11Zm-26.21,56.33h0l-7,2.1-36.23,10.93-9.39,2.84a17.7,17.7,0,0,0-11.89,11.9,144.59,144.59,0,0,1-11.51,27.7,17.7,17.7,0,0,0,0,16.82l4.18,7.76,18,33.44,3.78,7L408,441.47,359.6,415.64a17.83,17.83,0,0,0-16.89,0,145.15,145.15,0,0,1-27.81,11.46A17.7,17.7,0,0,0,303,439l-7.43,24.42-7.23,23.78L287,491.39H259.34l-.67-2.24L256,480.41l-.83-2.7-1.34-4.4L243.41,439a17.8,17.8,0,0,0-11.95-11.84,146.77,146.77,0,0,1-27.8-11.45,17.85,17.85,0,0,0-16.87,0l-48.43,25.83L118.78,422l25.93-48.24a17.67,17.67,0,0,0,0-16.82,143.06,143.06,0,0,1-11.49-27.7,17.78,17.78,0,0,0-11.91-11.9L68.66,301.45v-27.6L121.27,258a17.76,17.76,0,0,0,11.91-11.9,144.91,144.91,0,0,1,11.48-27.71,17.68,17.68,0,0,0,0-16.81l-25.94-48.24,19.59-19.5,48.41,25.83a18,18,0,0,0,16.88,0,144.24,144.24,0,0,1,27.82-11.44,17.71,17.71,0,0,0,11.95-11.85l15.93-52.39H287L303,136.33a17.71,17.71,0,0,0,11.95,11.85,145.14,145.14,0,0,1,27.81,11.47,17.55,17.55,0,0,0,5.84,1.93,17.86,17.86,0,0,0,11.05-1.9l31.79-17,7.92-4.22,8.7-4.65,4.66,4.65,11,11,3.9,3.89-1.2,2.22-.54,1L405.3,194.82l-3.64,6.77a17.68,17.68,0,0,0,0,16.81,143.09,143.09,0,0,1,11.48,27.69A17.72,17.72,0,0,0,425.09,258l50.41,15.22,2.18.66v27.57h0ZM273.2,212.89a75,75,0,0,0-75,74.73c0,1.66.06,3.3.16,4.93A74.18,74.18,0,0,0,209,326.3a75.15,75.15,0,0,0,122.94,7.78,74.24,74.24,0,0,0,15.85-38.34,72.72,72.72,0,0,0,.44-8.12C348.23,246.42,314.56,212.89,273.2,212.89Zm0,114.05a39.27,39.27,0,0,1-39-45.2,38.83,38.83,0,0,1,7.66-17.95,39.45,39.45,0,0,1,31.35-15.47h.63a39.31,39.31,0,0,1-.63,78.61Zm0-114a75,75,0,0,0-75,74.73c0,1.66.06,3.3.16,4.93A74.18,74.18,0,0,0,209,326.3a75.15,75.15,0,0,0,122.94,7.78,74.24,74.24,0,0,0,15.85-38.34,72.72,72.72,0,0,0,.44-8.12C348.23,246.42,314.56,212.89,273.2,212.89Zm0,114.05a39.27,39.27,0,0,1-39-45.2,38.83,38.83,0,0,1,7.66-17.95,39.45,39.45,0,0,1,31.35-15.47h.63a39.31,39.31,0,0,1-.63,78.61Zm0-114a75,75,0,0,0-75,74.73c0,1.66.06,3.3.16,4.93A74.18,74.18,0,0,0,209,326.3a75.15,75.15,0,0,0,122.94,7.78,74.24,74.24,0,0,0,15.85-38.34,72.72,72.72,0,0,0,.44-8.12C348.23,246.42,314.56,212.89,273.2,212.89Zm0,114.05a39.27,39.27,0,0,1-39-45.2,38.83,38.83,0,0,1,7.66-17.95,39.45,39.45,0,0,1,31.35-15.47h.63a39.31,39.31,0,0,1-.63,78.61Zm0-114a75,75,0,0,0-75,74.73c0,1.66.06,3.3.16,4.93A74.18,74.18,0,0,0,209,326.3a75.15,75.15,0,0,0,122.94,7.78,74.24,74.24,0,0,0,15.85-38.34,72.72,72.72,0,0,0,.44-8.12C348.23,246.42,314.56,212.89,273.2,212.89Zm0,114.05a39.27,39.27,0,0,1-39-45.2,38.83,38.83,0,0,1,7.66-17.95,39.45,39.45,0,0,1,31.35-15.47h.63a39.31,39.31,0,0,1-.63,78.61Z"/><path class="cls-2" d="M578.83,297.45v53.87a17.71,17.71,0,0,1-12.63,17l-56.37,17c-2,5.65-4.32,11.2-6.88,16.58l27.8,51.69a17.66,17.66,0,0,1-3.1,20.9l-38.24,38.08a17.8,17.8,0,0,1-21,3.07l-51.88-27.69a178.1,178.1,0,0,1-16.65,6.87l-17.05,56.16a17.79,17.79,0,0,1-17,12.57H311.75a17.77,17.77,0,0,1-17-12.57l-7.34-24.15h12.88a17.79,17.79,0,0,0,17-12.58l.84-2.77.84-2.78,5.92,19.47h27.67l15.93-52.4a17.78,17.78,0,0,1,8.74-10.55l25.65,13.69a17.79,17.79,0,0,0,21-3.07l15.76-15.7,34,18.11,19.57-19.5-25.92-48.24a17.7,17.7,0,0,1,0-16.81,144.22,144.22,0,0,0,11.51-27.7A17.74,17.74,0,0,1,490.66,354l52.58-15.86h0v0l0,0V310.6l-30-9.05v-37l52.93,16A17.73,17.73,0,0,1,578.83,297.45Z"/><path class="cls-3" d="M530.75,195.2l-26.83,49.91a17.25,17.25,0,0,0-3.28-1.35l-31.27-9.44,23.77-44.24-19.57-19.5L452.7,181.72l11.51-21.41,1-1.84a17.66,17.66,0,0,0-3.1-20.88l-.69-.7,7-3.76a17.83,17.83,0,0,1,21,3.1l38.24,38.08A17.71,17.71,0,0,1,530.75,195.2Z"/></svg>