<svg xmlns="http://www.w3.org/2000/svg" viewBox="0 0 50 50"><defs><style>.cls-1{fill:#353942;}.cls-2{fill:#5b616b;}</style></defs><g id="Layer_2" data-name="Layer 2"><g id="Layer_151" data-name="Layer 151"><g id="Configure"><path class="cls-1" d="M25,50A25,25,0,1,1,50,25,25,25,0,0,1,25,50Z"/><path class="cls-2" d="M25,29a4,4,0,1,1,4-4A4,4,0,0,1,25,29Zm0-6.13A2.11,2.11,0,1,0,27.11,25,2.1,2.1,0,0,0,25,22.89Z"/><path class="cls-2" d="M26.45,37.86h-2.9a1,1,0,0,1-.91-.68l-.91-3a7.9,7.9,0,0,1-.89-.37l-2.78,1.49a1,1,0,0,1-1.13-.16l-2-2a1,1,0,0,1-.17-1.13l1.49-2.78a7.9,7.9,0,0,1-.37-.89l-3-.91a1,1,0,0,1-.68-.91v-2.9a1,1,0,0,1,.68-.91l3-.91a7.9,7.9,0,0,1,.37-.89l-1.49-2.78a1,1,0,0,1,.17-1.13l2-2a1,1,0,0,1,1.13-.17l2.78,1.49a7.9,7.9,0,0,1,.89-.37l.91-3a1,1,0,0,1,.91-.68h2.9a1,1,0,0,1,.91.68l.91,3a7.9,7.9,0,0,1,.89.37l2.78-1.49a1,1,0,0,1,1.13.17l2,2a1,1,0,0,1,.16,1.13l-1.49,2.78a7.9,7.9,0,0,1,.37.89l3,.91a1,1,0,0,1,.68.91v2.9a1,1,0,0,1-.68.91l-3,.91a7.9,7.9,0,0,1-.37.89l1.49,2.78a1,1,0,0,1-.16,1.13l-2,2a1,1,0,0,1-1.13.16l-2.78-1.49a7.9,7.9,0,0,1-.89.37l-.91,3A1,1,0,0,1,26.45,37.86ZM24.26,36h1.48l.85-2.81a1,1,0,0,1,.64-.64,7.8,7.8,0,0,0,1.49-.62,1,1,0,0,1,.91,0l2.59,1.39,1.05-1.05-1.39-2.59a1,1,0,0,1,0-.91,7.8,7.8,0,0,0,.62-1.49,1,1,0,0,1,.64-.64L36,25.74V24.26l-2.81-.85a1,1,0,0,1-.64-.64,7.55,7.55,0,0,0-.62-1.49,1,1,0,0,1,0-.91l1.39-2.59-1.05-1.05-2.59,1.39a1,1,0,0,1-.91,0,7.55,7.55,0,0,0-1.49-.62,1,1,0,0,1-.64-.63l-.85-2.82H24.26l-.85,2.82a1,1,0,0,1-.64.63,7.55,7.55,0,0,0-1.49.62,1,1,0,0,1-.91,0l-2.59-1.39-1.05,1.05,1.39,2.59a1,1,0,0,1,0,.91,7.55,7.55,0,0,0-.62,1.49,1,1,0,0,1-.63.64l-2.82.85v1.48l2.82.85a1,1,0,0,1,.63.64,7.55,7.55,0,0,0,.62,1.49,1,1,0,0,1,0,.91l-1.39,2.59,1.05,1.05,2.59-1.39a1,1,0,0,1,.91,0,7.55,7.55,0,0,0,1.49.62,1,1,0,0,1,.64.64Zm12.64-9.5h0Z"/></g></g></g></svg>