<svg xmlns="http://www.w3.org/2000/svg" viewBox="0 0 50 50"><defs><style>.cls-1{fill:#353942;}.cls-2{fill:#5b616b;}</style></defs><g id="Layer_2" data-name="Layer 2"><g id="Layer_151" data-name="Layer 151"><g id="CopyTemplate"><path class="cls-1" d="M25,50A25,25,0,1,1,50,25,25,25,0,0,1,25,50Z"/><path class="cls-2" d="M34.52,37.86H23.41a3.34,3.34,0,0,1-3.33-3.34V32.78a1,1,0,0,1,1.9,0v1.74A1.43,1.43,0,0,0,23.41,36H34.52A1.43,1.43,0,0,0,36,34.52V23.41A1.43,1.43,0,0,0,34.52,22H23.41A1.43,1.43,0,0,0,22,23.41V29a1,1,0,0,1-1.9,0V23.41a3.33,3.33,0,0,1,3.33-3.33H34.52a3.34,3.34,0,0,1,3.34,3.33V34.52A3.35,3.35,0,0,1,34.52,37.86Z"/><path class="cls-2" d="M29,29.92H15.48a3.34,3.34,0,0,1-3.34-3.33V15.48a3.35,3.35,0,0,1,3.34-3.34H26.59a3.34,3.34,0,0,1,3.33,3.34V21A.95.95,0,0,1,28,21V15.48a1.44,1.44,0,0,0-1.43-1.43H15.48a1.43,1.43,0,0,0-1.43,1.43V26.59A1.44,1.44,0,0,0,15.48,28H29a.95.95,0,0,1,0,1.9Z"/><path class="cls-2" d="M27.46,32.94a1,1,0,0,1-.67-1.63L29.13,29l-2.34-2.34a1,1,0,0,1,0-1.35,1,1,0,0,1,1.34,0l3,3a1,1,0,0,1,0,1.35l-3,3A1,1,0,0,1,27.46,32.94Z"/></g></g></g></svg>