<svg id="Layer_1" data-name="Layer 1" xmlns="http://www.w3.org/2000/svg" xmlns:xlink="http://www.w3.org/1999/xlink" viewBox="0 0 612 612"><defs><style>.cls-1,.cls-2{stroke:#232323;stroke-miterlimit:10;stroke-width:1.31px;}.cls-1{opacity:0.6;isolation:isolate;fill:url(#linear-gradient);}.cls-2{fill:url(#linear-gradient-2);}</style><linearGradient id="linear-gradient" x1="304.66" y1="331.11" x2="304.66" y2="411.68" gradientUnits="userSpaceOnUse"><stop offset="0" stop-color="#fafafa"/><stop offset="1" stop-color="#ebebeb"/></linearGradient><linearGradient id="linear-gradient-2" x1="306" y1="32.18" x2="306" y2="579.82" xlink:href="#linear-gradient"/></defs><g id="Create3D"><path class="cls-1" d="M137.73,411.68a11.8,11.8,0,0,1-11.81-11.79,33.59,33.59,0,0,1,4.81-17.07,11.81,11.81,0,0,1,20.41,11.87,10.27,10.27,0,0,0-1.6,5.2A11.81,11.81,0,0,1,137.73,411.68Zm333.86-8.93a11.82,11.82,0,0,1-10.72-6.84,21.77,21.77,0,0,0-4.52-6.08A11.8,11.8,0,1,1,473,373.15,44.91,44.91,0,0,1,482.3,386a11.81,11.81,0,0,1-10.71,16.75ZM179.14,374.21a11.79,11.79,0,0,1-4.29-22.79c3.74-1.45,7.66-2.83,11.79-4.17a11.79,11.79,0,1,1,7.26,22.44q-5.49,1.77-10.49,3.7A11.69,11.69,0,0,1,179.14,374.21Zm244.32-3.15a11.69,11.69,0,0,1-3.72-.61c-3.44-1.14-7-2.24-10.75-3.27a11.79,11.79,0,1,1,6.35-22.7q6.18,1.71,11.84,3.62a11.78,11.78,0,0,1-3.72,23ZM236.28,359.77a11.79,11.79,0,0,1-1.79-23.45c3.94-.6,8-1.17,12.06-1.67a11.79,11.79,0,1,1,2.9,23.4q-5.79.7-11.36,1.57A10.2,10.2,0,0,1,236.28,359.77Zm129.57-1.32a13.73,13.73,0,0,1-1.56-.09c-3.74-.5-7.54-.93-11.4-1.33a11.79,11.79,0,1,1,2.41-23.46q6.15.63,12.08,1.4a11.79,11.79,0,0,1-1.53,23.48Zm-70.74-3.66a11.79,11.79,0,0,1-.25-23.58c3.58-.06,7.18-.1,10.81-.1h1.25a11.79,11.79,0,1,1,0,23.57h-1.25q-5.21,0-10.32.11Z"/><path class="cls-2" d="M306,32.18C149.75,32.18,31.91,88.85,31.91,164V448c0,75.17,117.84,131.84,274.09,131.84S580.09,523.15,580.09,448V164C580.09,88.85,462.25,32.18,306,32.18Zm0,40.56c137.59,0,233.49,48.11,233.49,91.28S443.6,255.29,306,255.29,72.51,207.18,72.51,164,168.41,72.74,306,72.74Zm0,466.52c-137.59,0-233.49-48.11-233.49-91.28V235c47.43,37.12,132.38,60.85,233.49,60.85S492.06,272.11,539.49,235V448C539.49,491.15,443.6,539.26,306,539.26Z"/></g></svg>