<svg xmlns="http://www.w3.org/2000/svg" viewBox="0 0 50 50"><defs><style>.cls-1{fill:#353942;}.cls-2{fill:#5b616b;}</style></defs><g id="Layer_2" data-name="Layer 2"><g id="Layer_151" data-name="Layer 151"><g id="Create3D"><path class="cls-1" d="M25,50A25,25,0,1,1,50,25,25,25,0,0,1,25,50Z"/><path class="cls-2" d="M13.1,32.62a1,1,0,0,1-1-.95,2.45,2.45,0,0,1,.36-1.27,1,1,0,0,1,1.3-.35,1,1,0,0,1,.35,1.31.57.57,0,0,0-.1.31A1,1,0,0,1,13.1,32.62ZM36.76,32a.94.94,0,0,1-.86-.55,1.6,1.6,0,0,0-.3-.4.95.95,0,1,1,1.34-1.34,3.12,3.12,0,0,1,.68.94A.94.94,0,0,1,36.76,32ZM16,30a1,1,0,0,1-.89-.61,1,1,0,0,1,.55-1.23,8.21,8.21,0,0,1,.84-.3,1,1,0,1,1,.58,1.81l-.73.26A.87.87,0,0,1,16,30Zm17.32-.23a.79.79,0,0,1-.3-.05l-.76-.23a.95.95,0,0,1,.51-1.83c.3.08.58.17.85.26a.95.95,0,0,1-.3,1.85Zm-13.27-.8a1,1,0,0,1-.94-.8,1,1,0,0,1,.8-1.09l.85-.12A1,1,0,1,1,21,28.81l-.8.11Zm9.19-.09h-.13c-.26,0-.53-.07-.8-.09a1,1,0,0,1,.19-1.9l.86.1a1,1,0,0,1-.12,1.9Zm-5-.26a1,1,0,0,1-.95-.93,1,1,0,0,1,.93-1h.86a.95.95,0,0,1,0,1.9h-.84Z"/><path class="cls-2" d="M25,24.52c-7.33,0-12.86-2.66-12.86-6.19S17.67,12.14,25,12.14s12.86,2.66,12.86,6.19S32.33,24.52,25,24.52Zm0-10.47c-6.45,0-10.95,2.26-10.95,4.28s4.5,4.29,11,4.29,11-2.26,11-4.29S31.45,14.05,25,14.05Z"/><path class="cls-2" d="M25,37.86c-7.33,0-12.86-2.66-12.86-6.19V18.33a1,1,0,0,1,1.91,0V31.67c0,2,4.5,4.28,11,4.28s11-2.26,11-4.28V18.33a1,1,0,0,1,1.91,0V31.67C37.86,35.2,32.33,37.86,25,37.86Z"/></g></g></g></svg>