<svg xmlns="http://www.w3.org/2000/svg" viewBox="0 0 50 50"><defs><style>.cls-1{fill:#353942;}.cls-2{fill:#5b616b;}</style></defs><g id="Layer_2" data-name="Layer 2"><g id="Layer_151" data-name="Layer 151"><g id="CrossHair"><path class="cls-1" d="M25,50A25,25,0,1,1,50,25,25,25,0,0,1,25,50Z"/><path class="cls-2" d="M19.52,26H13.1a1,1,0,1,1,0-1.9h6.42a1,1,0,1,1,0,1.9Z"/><path class="cls-2" d="M36.9,26H30.48a1,1,0,1,1,0-1.9H36.9a1,1,0,1,1,0,1.9Z"/><path class="cls-2" d="M25,20.48a1,1,0,0,1-.95-1V13.1a1,1,0,1,1,1.9,0v6.42A1,1,0,0,1,25,20.48Z"/><path class="cls-2" d="M25,37.86a1,1,0,0,1-.95-1V30.48a1,1,0,1,1,1.9,0V36.9A1,1,0,0,1,25,37.86Z"/><circle class="cls-2" cx="25" cy="25" r="1.24"/><path class="cls-2" d="M25,34.64A9.64,9.64,0,1,1,34.64,25,9.65,9.65,0,0,1,25,34.64Zm0-17.38A7.74,7.74,0,1,0,32.74,25,7.75,7.75,0,0,0,25,17.26Z"/></g></g></g></svg>