<svg xmlns="http://www.w3.org/2000/svg" viewBox="0 0 50 50"><defs><style>.cls-1{fill:#353942;}.cls-2{fill:none;stroke:#5b616b;stroke-linecap:round;stroke-miterlimit:10;stroke-width:2px;}</style></defs><g id="Layer_2" data-name="Layer 2"><g id="Layer_6" data-name="Layer 6"><path class="cls-1" d="M25,50A25,25,0,1,1,50,25,25,25,0,0,1,25,50Z"/><line class="cls-2" x1="9.56" y1="28.56" x2="9.56" y2="36.41"/><line class="cls-2" x1="40.44" y1="28.56" x2="40.44" y2="36.41"/><line class="cls-2" x1="9.56" y1="32.49" x2="40.44" y2="32.49"/><line class="cls-2" x1="25" y1="29.38" x2="25" y2="35.6"/><line class="cls-2" x1="17.28" y1="30.65" x2="17.28" y2="34.33"/><line class="cls-2" x1="32.72" y1="30.65" x2="32.72" y2="34.33"/><line class="cls-2" x1="17.28" y1="17.19" x2="40.44" y2="17.19"/><line class="cls-2" x1="17.28" y1="13.59" x2="17.28" y2="20.8"/><line class="cls-2" x1="40.44" y1="13.59" x2="40.44" y2="20.8"/><line class="cls-2" x1="25" y1="15.5" x2="25" y2="18.88"/><line class="cls-2" x1="32.72" y1="15.5" x2="32.72" y2="18.88"/></g></g></svg>