<svg xmlns="http://www.w3.org/2000/svg" xmlns:xlink="http://www.w3.org/1999/xlink" viewBox="0 0 612 612"><defs><style>.cls-1,.cls-2,.cls-3,.cls-4,.cls-5,.cls-6{stroke:#232323;stroke-miterlimit:10;stroke-width:1.31px;}.cls-1{fill:url(#linear-gradient);}.cls-2{fill:url(#linear-gradient-2);}.cls-3{fill:url(#linear-gradient-3);}.cls-4{fill:url(#linear-gradient-4);}.cls-5{fill:url(#linear-gradient-5);}.cls-6{fill:url(#linear-gradient-6);}</style><linearGradient id="linear-gradient" x1="370.33" y1="99" x2="370.33" y2="252.73" gradientUnits="userSpaceOnUse"><stop offset="0" stop-color="#fafafa"/><stop offset="1" stop-color="#ebebeb"/></linearGradient><linearGradient id="linear-gradient-2" x1="434.74" y1="130.95" x2="434.74" y2="220.7" xlink:href="#linear-gradient"/><linearGradient id="linear-gradient-3" x1="306.02" y1="130.97" x2="306.02" y2="220.69" xlink:href="#linear-gradient"/><linearGradient id="linear-gradient-4" x1="306" y1="348.69" x2="306" y2="513" xlink:href="#linear-gradient"/><linearGradient id="linear-gradient-5" x1="434.75" y1="379.11" x2="434.75" y2="478.17" xlink:href="#linear-gradient"/><linearGradient id="linear-gradient-6" x1="177.29" y1="383.62" x2="177.29" y2="478.49" xlink:href="#linear-gradient"/></defs><g id="Layer_2" data-name="Layer 2"><path class="cls-1" d="M580.23,115.92V235.79a16.86,16.86,0,1,1-33.72,0V193H194.14v42.8a16.86,16.86,0,1,1-33.71,0V115.92a16.86,16.86,0,1,1,33.71,0v43.22H546.51V115.92a16.94,16.94,0,0,1,4.94-12,16.85,16.85,0,0,1,28.78,12Z"/><rect class="cls-2" x="417.88" y="130.95" width="33.72" height="89.75" rx="16.86"/><rect class="cls-3" x="289.16" y="130.97" width="33.72" height="89.72" rx="16.86"/><path class="cls-4" d="M580.23,365.46V496.23a16.78,16.78,0,0,1-33.56,0v-48.4H322.8v34.94a16.78,16.78,0,1,1-33.56,0V447.83H65.33v48.39a16.78,16.78,0,1,1-33.56,0V365.53a16.78,16.78,0,0,1,33.56,0v48.75H289.24V379.17a16.78,16.78,0,0,1,33.56,0v35.11H546.67V365.46a16.78,16.78,0,0,1,33.56,0Z"/><rect class="cls-5" x="417.97" y="379.11" width="33.55" height="99.06" rx="16.78"/><rect class="cls-6" x="160.51" y="383.62" width="33.55" height="94.87" rx="16.78"/></g></svg>