<svg xmlns="http://www.w3.org/2000/svg" viewBox="0 0 50 50"><defs><style>.cls-1{fill:#353942;}.cls-2{fill:#5b616b;}</style></defs><g id="Layer_2" data-name="Layer 2"><g id="Layer_151" data-name="Layer 151"><g id="Curve"><path class="cls-1" d="M25,50A25,25,0,1,1,50,25,25,25,0,0,1,25,50Z"/><path class="cls-2" d="M36.9,37.86H33.33a1,1,0,0,1,0-1.91H36V33.33a1,1,0,0,1,1.91,0V36.9A1,1,0,0,1,36.9,37.86Z"/><path class="cls-2" d="M27.78,37.86H22.22a1,1,0,0,1,0-1.91h5.56a1,1,0,0,1,0,1.91Z"/><path class="cls-2" d="M16.67,37.86H13.1a1,1,0,0,1-1-1V33.33a1,1,0,0,1,1.91,0V36h2.62a1,1,0,0,1,0,1.91Z"/><path class="cls-2" d="M13.1,28.73a1,1,0,0,1-1-.95V22.22a1,1,0,0,1,1.91,0v5.56A1,1,0,0,1,13.1,28.73Z"/><path class="cls-2" d="M13.1,17.62a1,1,0,0,1-1-.95V13.1a1,1,0,0,1,1-1h3.57a1,1,0,0,1,0,1.91H14.05v2.62A1,1,0,0,1,13.1,17.62Z"/><path class="cls-2" d="M27.78,14.05H22.22a1,1,0,0,1,0-1.91h5.56a1,1,0,0,1,0,1.91Z"/><path class="cls-2" d="M36.9,17.62a1,1,0,0,1-.95-.95V14.05H33.33a1,1,0,0,1,0-1.91H36.9a1,1,0,0,1,1,1v3.57A1,1,0,0,1,36.9,17.62Z"/><path class="cls-2" d="M36.9,28.73a1,1,0,0,1-.95-.95V22.22a1,1,0,0,1,1.91,0v5.56A1,1,0,0,1,36.9,28.73Z"/><path class="cls-2" d="M25,32.3A7.3,7.3,0,1,1,32.3,25a1,1,0,0,1-1.9,0A5.4,5.4,0,1,0,25,30.4a1,1,0,1,1,0,1.9Z"/></g></g></g></svg>