<svg xmlns="http://www.w3.org/2000/svg" viewBox="0 0 50 50"><defs><style>.cls-1{fill:#353942;}.cls-2{fill:#5b616b;}</style></defs><g id="Layer_2" data-name="Layer 2"><g id="Layer_151" data-name="Layer 151"><g id="CustomLayout"><path class="cls-1" d="M25,50A25,25,0,1,1,50,25,25,25,0,0,1,25,50Z"/><path class="cls-2" d="M22.74,26.07H13.1a1,1,0,0,1-1-.95v-12a1,1,0,0,1,1-1h9.64a1,1,0,0,1,1,1v12A1,1,0,0,1,22.74,26.07Zm-8.69-1.9h7.74V14.05H14.05Z"/><path class="cls-2" d="M22.74,37.86H13.1a1,1,0,0,1-1-1V29.64a1,1,0,0,1,1-.95h9.64a1,1,0,0,1,1,.95V36.9A1,1,0,0,1,22.74,37.86ZM14.05,36h7.74V30.6H14.05Z"/><path class="cls-2" d="M36.9,21.31H27.26a1,1,0,0,1-1-.95V13.1a1,1,0,0,1,1-1H36.9a1,1,0,0,1,1,1v7.26A1,1,0,0,1,36.9,21.31ZM28.21,19.4H36V14.05H28.21Z"/><path class="cls-2" d="M36.9,37.86H27.26a1,1,0,0,1-1-1v-12a1,1,0,0,1,1-.95H36.9a1,1,0,0,1,1,.95v12A1,1,0,0,1,36.9,37.86ZM28.21,36H36V25.83H28.21Z"/></g></g></g></svg>