<?xml version="1.0" encoding="utf-8"?>
<!-- Generator: Adobe Illustrator 25.0.0, SVG Export Plug-In . SVG Version: 6.00 Build 0)  -->
<svg version="1.1" id="Layer_1" xmlns="http://www.w3.org/2000/svg" xmlns:xlink="http://www.w3.org/1999/xlink" x="0px" y="0px"
	 viewBox="0 0 50 50" style="enable-background:new 0 0 50 50;" xml:space="preserve">
<style type="text/css">
	.st0{fill:#353942;}
	.st1{fill:#5B616B;}
</style>
<g>
	<path class="st0" d="M25,50C11.2,50,0,38.8,0,25S11.2,0,25,0s25,11.2,25,25S38.8,50,25,50z"/>
	<path class="st1" d="M34,30.1c-0.8,0-1.5,0.2-2.1,0.6L26.1,25l5.7-5.7c0.6,0.4,1.4,0.6,2.2,0.6c2.1,0,3.9-1.7,3.9-3.9
		c0-2.1-1.7-3.9-3.9-3.9s-3.9,1.7-3.9,3.9c0,0.8,0.2,1.5,0.7,2.1L25,23.9l-5.7-5.7c1.2-1.8,0.7-4.2-1.1-5.4s-4.2-0.7-5.4,1.1
		s-0.7,4.2,1.1,5.4c0.6,0.4,1.4,0.7,2.2,0.7c0.8,0,1.5-0.2,2.2-0.6l5.7,5.7l-5.7,5.7c-0.6-0.4-1.4-0.6-2.1-0.6
		c-2.1,0-3.9,1.7-3.9,3.9c0,2.1,1.7,3.9,3.9,3.9c2.1,0,3.9-1.7,3.9-3.9c0-0.8-0.2-1.5-0.7-2.1l5.7-5.7l5.7,5.7
		c-1.2,1.8-0.7,4.2,1.1,5.4c1.8,1.2,4.2,0.7,5.4-1.1c1.2-1.8,0.7-4.2-1.1-5.4C35.5,30.3,34.7,30.1,34,30.1L34,30.1z"/>
</g>
</svg>
