<svg id="Layer_1" data-name="Layer 1" xmlns="http://www.w3.org/2000/svg" xmlns:xlink="http://www.w3.org/1999/xlink" viewBox="0 0 612 612"><defs><style>.cls-1,.cls-2{stroke:#232323;stroke-miterlimit:10;stroke-width:1.31px;}.cls-1{fill:url(#linear-gradient);}.cls-2{fill:url(#linear-gradient-2);}</style><linearGradient id="linear-gradient" x1="222.43" y1="31.77" x2="222.43" y2="401.59" gradientUnits="userSpaceOnUse"><stop offset="0" stop-color="#fafafa"/><stop offset="1" stop-color="#ebebeb"/></linearGradient><linearGradient id="linear-gradient-2" x1="423.82" y1="279.02" x2="423.82" y2="580.23" xlink:href="#linear-gradient"/></defs><path class="cls-1" d="M190.09,31.77H51.46a13.7,13.7,0,0,0-13.69,13.7V184.15a13.7,13.7,0,0,0,13.69,13.7H190.09a13.7,13.7,0,0,0,13.69-13.7V45.47A13.7,13.7,0,0,0,190.09,31.77ZM176.4,170.45H65.16V59.16H176.4V170.45Zm13.32,65.06H51.09a13.7,13.7,0,0,0-13.69,13.7V387.9a13.7,13.7,0,0,0,13.69,13.69H189.72a13.69,13.69,0,0,0,13.69-13.69V249.21A13.7,13.7,0,0,0,189.72,235.51ZM176,374.2H64.78V262.91H176V374.2ZM393.76,31.77H255.13a13.7,13.7,0,0,0-13.69,13.7V184.15a13.7,13.7,0,0,0,13.69,13.7H393.76a13.7,13.7,0,0,0,13.69-13.7V45.47A13.7,13.7,0,0,0,393.76,31.77ZM380.07,170.45H268.82V59.16H380.07V170.45Z"/><path class="cls-2" d="M458.9,429.63l108.42-108.3a24.79,24.79,0,1,0-35.07-35L423.82,394.59,315.4,286.29a24.79,24.79,0,0,0-35.07,35l108.42,108.3L280.33,537.93a24.79,24.79,0,0,0,35.07,35l108.42-108.3L532.25,573a24.79,24.79,0,1,0,35.07-35Z"/></svg>