<svg xmlns="http://www.w3.org/2000/svg" viewBox="0 0 50 50"><defs><style>.cls-1{fill:#353942;}.cls-2{fill:#5b616b;}</style></defs><g id="Layer_2" data-name="Layer 2"><g id="Layer_151" data-name="Layer 151"><g id="DeleteTemplate"><path class="cls-1" d="M25,50A25,25,0,1,1,50,25,25,25,0,0,1,25,50Z"/><path class="cls-2" d="M34.52,37.86h-19a3.35,3.35,0,0,1-3.34-3.34v-19a3.35,3.35,0,0,1,3.34-3.34h19a3.35,3.35,0,0,1,3.34,3.34v19A3.35,3.35,0,0,1,34.52,37.86Zm-19-23.81a1.43,1.43,0,0,0-1.43,1.43v19A1.43,1.43,0,0,0,15.48,36h19A1.43,1.43,0,0,0,36,34.52v-19a1.43,1.43,0,0,0-1.43-1.43Z"/><path class="cls-2" d="M20.63,30.32A1,1,0,0,1,20,30a1,1,0,0,1,0-1.35L28.69,20A1,1,0,1,1,30,21.31L21.31,30A1,1,0,0,1,20.63,30.32Z"/><path class="cls-2" d="M29.37,30.32a1,1,0,0,1-.68-.28L20,21.31A1,1,0,1,1,21.31,20L30,28.69A1,1,0,0,1,30,30,1,1,0,0,1,29.37,30.32Z"/></g></g></g></svg>