<svg xmlns="http://www.w3.org/2000/svg" viewBox="0 0 50 50"><defs><style>.cls-1{fill:#353942;}.cls-2{fill:#5b616b;}</style></defs><g id="Layer_2" data-name="Layer 2"><g id="Layer_151" data-name="Layer 151"><g id="DeleteTemplateBox"><path class="cls-1" d="M25,50A25,25,0,1,1,50,25,25,25,0,0,1,25,50Z"/><path class="cls-2" d="M36.9,23.33H32.38a1,1,0,1,1,0-1.9H36V14.05H14.05v7.38h3.57a.95.95,0,0,1,0,1.9H13.1a1,1,0,0,1-1-.95V13.1a1,1,0,0,1,1-1H36.9a1,1,0,0,1,1,1v9.28A1,1,0,0,1,36.9,23.33Z"/><path class="cls-2" d="M36.9,37.86H13.1a1,1,0,0,1-1-1V27.62a1,1,0,0,1,1-.95h4.52a.95.95,0,0,1,0,1.9H14.05V36H36V28.57H32.38a1,1,0,1,1,0-1.9H36.9a1,1,0,0,1,1,.95V36.9A1,1,0,0,1,36.9,37.86Z"/><path class="cls-2" d="M20.63,30.32A1,1,0,0,1,20,30a1,1,0,0,1,0-1.35L28.69,20A1,1,0,1,1,30,21.31L21.31,30A1,1,0,0,1,20.63,30.32Z"/><path class="cls-2" d="M29.37,30.32a1,1,0,0,1-.68-.28L20,21.31A1,1,0,1,1,21.31,20L30,28.69A1,1,0,0,1,30,30,1,1,0,0,1,29.37,30.32Z"/></g></g></g></svg>