<svg xmlns="http://www.w3.org/2000/svg" viewBox="0 0 50 50"><defs><style>.cls-1{fill:#353942;}.cls-2{fill:#5b616b;}</style></defs><g id="Layer_2" data-name="Layer 2"><g id="Layer_151" data-name="Layer 151"><g id="DeleteAnn"><path class="cls-1" d="M25,50A25,25,0,1,1,50,25,25,25,0,0,1,25,50Z"/><path class="cls-2" d="M32.38,37.86H13.1a1,1,0,0,1-1-1v-20a1,1,0,0,1,1-1H32.38a1,1,0,0,1,.95,1v20A1,1,0,0,1,32.38,37.86ZM14.05,36H31.43V17.82H14.05Z"/><path class="cls-2" d="M36.9,34.09H32.38a1,1,0,0,1,0-1.91H36V14.05H18.57v2.82a.95.95,0,0,1-1.9,0V13.1a1,1,0,0,1,.95-1H36.9a1,1,0,0,1,1,1v20A1,1,0,0,1,36.9,34.09Z"/><path class="cls-2" d="M19,31.61A1,1,0,0,1,18.3,30l7.53-7.54a1,1,0,0,1,1.35,1.35l-7.54,7.54A1,1,0,0,1,19,31.61Z"/><path class="cls-2" d="M26.51,31.61a1,1,0,0,1-.68-.28L18.3,23.79a1,1,0,0,1,1.34-1.35L27.18,30a1,1,0,0,1,0,1.35A1,1,0,0,1,26.51,31.61Z"/></g></g></g></svg>