<svg xmlns="http://www.w3.org/2000/svg" viewBox="0 0 50 50"><defs><style>.cls-1{fill:#353942;}.cls-2{fill:#5b616b;}</style></defs><g id="Layer_2" data-name="Layer 2"><g id="Layer_151" data-name="Layer 151"><g id="DeleteCell"><path class="cls-1" d="M25,50A25,25,0,1,1,50,25,25,25,0,0,1,25,50Z"/><path class="cls-2" d="M25,37.86A12.86,12.86,0,1,1,37.86,25,12.88,12.88,0,0,1,25,37.86Zm0-23.81A11,11,0,1,0,36,25,11,11,0,0,0,25,14.05Z"/><path class="cls-2" d="M20.63,30.32A1,1,0,0,1,20,30a1,1,0,0,1,0-1.35L28.69,20A1,1,0,1,1,30,21.31L21.31,30A1,1,0,0,1,20.63,30.32Z"/><path class="cls-2" d="M29.37,30.32a1,1,0,0,1-.68-.28L20,21.31A1,1,0,1,1,21.31,20L30,28.69A1,1,0,0,1,30,30,1,1,0,0,1,29.37,30.32Z"/></g></g></g></svg>