<svg xmlns="http://www.w3.org/2000/svg" viewBox="0 0 50 50"><defs><style>.cls-1{fill:#353942;}.cls-2{fill:#5b616b;}</style></defs><g id="Layer_2" data-name="Layer 2"><g id="Layer_151" data-name="Layer 151"><g id="DeleteSeriesLayout"><path class="cls-1" d="M25,50A25,25,0,1,1,50,25,25,25,0,0,1,25,50Z"/><path class="cls-2" d="M22.74,23.69H13.1a1,1,0,0,1-1-1V13.1a1,1,0,0,1,1-1h9.64a1,1,0,0,1,1,1v9.64A1,1,0,0,1,22.74,23.69Zm-8.69-1.9h7.74V14.05H14.05Z"/><path class="cls-2" d="M22.71,37.86H13.07a1,1,0,0,1-1-1V27.26a1,1,0,0,1,1-1h9.64a1,1,0,0,1,1,1V36.9A1,1,0,0,1,22.71,37.86ZM14,36h7.74V28.21H14Z"/><path class="cls-2" d="M36.9,23.69H27.26a1,1,0,0,1-1-1V13.1a1,1,0,0,1,1-1H36.9a1,1,0,0,1,1,1v9.64A1,1,0,0,1,36.9,23.69Zm-8.69-1.9H36V14.05H28.21Z"/><path class="cls-2" d="M27.25,37.86a1,1,0,0,1-.68-.28,1,1,0,0,1,0-1.35l9.68-9.67a1,1,0,0,1,1.34,1.35l-9.67,9.67A1,1,0,0,1,27.25,37.86Z"/><path class="cls-2" d="M36.92,37.86a1,1,0,0,1-.67-.28l-9.68-9.67a1,1,0,0,1,1.35-1.35l9.67,9.67a.94.94,0,0,1,0,1.35A1,1,0,0,1,36.92,37.86Z"/></g></g></g></svg>