<svg xmlns="http://www.w3.org/2000/svg" viewBox="0 0 50 50"><defs><style>.cls-1{fill:#353942;}.cls-2{fill:#5b616b;}</style></defs><g id="Layer_2" data-name="Layer 2"><g id="Layer_151" data-name="Layer 151"><g id="DeleteStudyLayout"><path class="cls-1" d="M25,50A25,25,0,1,1,50,25,25,25,0,0,1,25,50Z"/><path class="cls-2" d="M23.21,31H13.1a1,1,0,0,1-1-1v-17a1,1,0,0,1,1-1h17a1,1,0,0,1,1,1V23.21a1,1,0,1,1-1.9,0V14.05H14.05V29.11h9.16a1,1,0,1,1,0,1.9Z"/><path class="cls-2" d="M20.45,31H13.1a1,1,0,0,1-1-1V22.71a1,1,0,0,1,1-.95h7.35a1,1,0,0,1,.95.95v7.35A1,1,0,0,1,20.45,31Zm-6.4-1.9h5.44V23.66H14.05Z"/><path class="cls-2" d="M30.06,37.86a7.8,7.8,0,1,1,7.8-7.8A7.81,7.81,0,0,1,30.06,37.86Zm0-13.69A5.89,5.89,0,1,0,36,30.06,5.89,5.89,0,0,0,30.06,24.17Z"/><path class="cls-2" d="M32.44,33.39a.92.92,0,0,1-.67-.28L27,28.35A.95.95,0,1,1,28.35,27l4.76,4.76a1,1,0,0,1-.67,1.62Z"/><path class="cls-2" d="M27.68,33.39a.91.91,0,0,1-.67-.28.93.93,0,0,1,0-1.34L31.77,27a.95.95,0,0,1,1.34,1.34l-4.76,4.76A.92.92,0,0,1,27.68,33.39Z"/></g></g></g></svg>