<svg xmlns="http://www.w3.org/2000/svg" viewBox="0 0 50 50"><defs><style>.cls-1{fill:#353942;}.cls-2{fill:#5b616b;}</style></defs><g id="Layer_2" data-name="Layer 2"><g id="Layer_151" data-name="Layer 151"><g id="Dentin"><path class="cls-1" d="M25,50A25,25,0,1,1,50,25,25,25,0,0,1,25,50Z"/><path class="cls-2" d="M29.94,37.86c-2.72,0-3.16-3.24-3.54-6.09-.21-1.56-.54-3.93-1.24-3.93s-1,2.36-1.22,3.93c-.38,2.85-.81,6.09-3.53,6.09-2.39,0-4.8-3-4.8-9.67a16.53,16.53,0,0,0-.91-4.64c-.84-2.82-1.71-5.73.53-8.57a6.47,6.47,0,0,1,4.93-2.73,8.54,8.54,0,0,1,4.73,1.44c4.12-2.47,7.94-2,10.26,1.33,1.65,2.35,1,5.19.34,8.19a23.17,23.17,0,0,0-.75,5C34.74,34.87,32.33,37.86,29.94,37.86ZM25.16,25.94c2.37,0,2.77,3,3.12,5.57.27,2,.61,4.44,1.66,4.44s2.89-2.41,2.89-7.76a24.7,24.7,0,0,1,.8-5.4c.61-2.69,1.13-5,0-6.67-2-2.92-5-2.22-7-1.2a18.47,18.47,0,0,1,1.81,1.74A1,1,0,0,1,27,17.94c-2.21-2.44-4.73-3.86-6.76-3.78a4.54,4.54,0,0,0-3.5,2c-1.63,2.07-1,4.17-.21,6.85a17.84,17.84,0,0,1,1,5.18c0,5.35,1.69,7.76,2.89,7.76s1.38-2.46,1.64-4.43C22.39,28.9,22.79,25.94,25.16,25.94Z"/><path class="cls-2" d="M19.44,24.43a1,1,0,0,1-.88-.58c-1.06-2.5-1.23-4.57-.52-6.14a3.74,3.74,0,0,1,2.12-2,.94.94,0,0,1,1.2.6,1,1,0,0,1-.59,1.2,2,2,0,0,0-1,1.07c-.46,1.05-.26,2.63.55,4.56a1,1,0,0,1-.5,1.25A1,1,0,0,1,19.44,24.43Z"/></g></g></g></svg>