<svg id="Layer_1" data-name="Layer 1" xmlns="http://www.w3.org/2000/svg" xmlns:xlink="http://www.w3.org/1999/xlink" viewBox="0 0 612 612"><defs><style>.cls-1{stroke:#232323;stroke-miterlimit:10;stroke-width:1.31px;fill:url(#linear-gradient);}</style><linearGradient id="linear-gradient" x1="306" y1="30.22" x2="306" y2="581.78" gradientUnits="userSpaceOnUse"><stop offset="0" stop-color="#fafafa"/><stop offset="1" stop-color="#ebebeb"/></linearGradient></defs><path class="cls-1" d="M554.66,82.51c-59.12-73.39-144.19-55.65-202.43-30a503.31,503.31,0,0,1,52.33,43.64c10.22,9.8,9.36,25-1.91,33.85s-28.68,8.13-38.92-1.65C299.72,67,226.74,31.15,168,33.19c-38.65,1.2-71.77,17.65-101.3,50.35-47,52.05-28.86,105.14-5.85,172.36,14.11,41.23,28.7,83.88,28.7,130.53,0,134.74,49,195.35,83.71,195.35,30.42,0,39.84-61.91,47.39-111.65,10-65.82,21.37-140.44,90-140.44S390.83,404.24,401.08,470c7.77,49.79,17.43,111.74,47.94,111.74,34.78,0,83.71-60.61,83.71-195.35,0-46.75,11.69-92.05,23-135.89C573.2,182.78,588.33,124.28,554.66,82.51ZM183.54,116.6c-1.41.46-19.24,6.74-29.19,26.82-13.17,26.55-7.58,66.32,16.12,115,5.92,12.2-.6,26.26-14.63,31.44a31.94,31.94,0,0,1-10.74,1.88c-10.72,0-20.91-5.49-25.38-14.61-30.64-62.93-35.68-115-15-154.59,20.18-38.66,57.05-50.16,61.19-51.34,14.47-4.15,30,2.72,34.76,15.31C205.4,98.92,197.73,112.34,183.54,116.6Z"/></svg>