<svg xmlns="http://www.w3.org/2000/svg" viewBox="0 0 50 50"><defs><style>.cls-1{fill:#353942;}.cls-2{fill:#5b616b;}</style></defs><g id="Layer_2" data-name="Layer 2"><g id="Layer_151" data-name="Layer 151"><g id="DrawTemplateBox"><path class="cls-1" d="M25,50A25,25,0,1,1,50,25,25,25,0,0,1,25,50Z"/><path class="cls-2" d="M22.69,32.68H18.27a1,1,0,0,1-.95-.95V27.31a1,1,0,0,1,.28-.67L31.22,13a3,3,0,0,1,4.22,0h0L37,14.56a3,3,0,0,1,0,4.22L23.36,32.4A1,1,0,0,1,22.69,32.68Zm-3.46-1.91h3.06L35.64,17.43a1.07,1.07,0,0,0,.31-.76,1.11,1.11,0,0,0-.31-.77L34.1,14.36a1.09,1.09,0,0,0-1.53,0L19.23,27.71Z"/><path class="cls-2" d="M34.44,20.93a.92.92,0,0,1-.67-.28l-4.42-4.42a1,1,0,0,1,0-1.34,1,1,0,0,1,1.35,0l4.41,4.41a1,1,0,0,1,0,1.35A.92.92,0,0,1,34.44,20.93Z"/><path class="cls-2" d="M36.9,37.86H13.1a1,1,0,1,1,0-1.91H36.9a1,1,0,1,1,0,1.91Z"/><path class="cls-2" d="M18.57,32.38a.92.92,0,0,1-.67-.28,1,1,0,0,1,0-1.34L31.56,17.1a.95.95,0,0,1,1.34,1.34L19.24,32.1A.91.91,0,0,1,18.57,32.38Z"/></g></g></g></svg>