<svg xmlns="http://www.w3.org/2000/svg" viewBox="0 0 50 50"><defs><style>.cls-1{fill:#353942;}.cls-2{fill:#5b616b;}</style></defs><g id="Layer_2" data-name="Layer 2"><g id="Layer_151" data-name="Layer 151"><g id="Ellipse"><path class="cls-1" d="M25,50A25,25,0,1,1,50,25,25,25,0,0,1,25,50Z"/><path class="cls-2" d="M36.9,37.86H33.33a1,1,0,0,1,0-1.91H36V33.33a1,1,0,0,1,1.91,0V36.9A1,1,0,0,1,36.9,37.86Z"/><path class="cls-2" d="M27.78,37.86H22.22a1,1,0,0,1,0-1.91h5.56a1,1,0,0,1,0,1.91Z"/><path class="cls-2" d="M16.67,37.86H13.1a1,1,0,0,1-1-1V33.33a1,1,0,0,1,1.91,0V36h2.62a1,1,0,0,1,0,1.91Z"/><path class="cls-2" d="M13.1,28.73a1,1,0,0,1-1-.95V22.22a1,1,0,0,1,1.91,0v5.56A1,1,0,0,1,13.1,28.73Z"/><path class="cls-2" d="M13.1,17.62a1,1,0,0,1-1-.95V13.1a1,1,0,0,1,1-1h3.57a1,1,0,0,1,0,1.91H14.05v2.62A1,1,0,0,1,13.1,17.62Z"/><path class="cls-2" d="M27.78,14.05H22.22a1,1,0,0,1,0-1.91h5.56a1,1,0,0,1,0,1.91Z"/><path class="cls-2" d="M36.9,17.62a1,1,0,0,1-.95-.95V14.05H33.33a1,1,0,0,1,0-1.91H36.9a1,1,0,0,1,1,1v3.57A1,1,0,0,1,36.9,17.62Z"/><path class="cls-2" d="M36.9,28.73a1,1,0,0,1-.95-.95V22.22a1,1,0,0,1,1.91,0v5.56A1,1,0,0,1,36.9,28.73Z"/><path class="cls-2" d="M25,31.83c-4.55,0-8.25-3.07-8.25-6.83s3.7-6.83,8.25-6.83,8.25,3.07,8.25,6.83S29.55,31.83,25,31.83Zm0-11.75c-3.5,0-6.35,2.21-6.35,4.92S21.5,29.92,25,29.92s6.35-2.21,6.35-4.92S28.5,20.08,25,20.08Z"/></g></g></g></svg>