<svg xmlns="http://www.w3.org/2000/svg" viewBox="0 0 50 50"><defs><style>.cls-1{fill:#353942;}.cls-2{fill:#5b616b;}</style></defs><g id="Layer_2" data-name="Layer 2"><g id="Layer_151" data-name="Layer 151"><g id="Endo"><path class="cls-1" d="M25,50A25,25,0,1,1,50,25,25,25,0,0,1,25,50Z"/><path class="cls-2" d="M27.67,32.38c-1.85,0-2.14-2.12-2.35-3.67-.05-.39-.13-1-.23-1.37a13.51,13.51,0,0,0-.23,1.37c-.21,1.55-.49,3.67-2.34,3.67-1.4,0-3-1.48-3-5.66A8.65,8.65,0,0,0,19,24.34c-.46-1.55-1-3.31.36-5a4,4,0,0,1,3-1.64,4.91,4.91,0,0,1,2.57.71c2.33-1.29,4.57-.94,5.9,1,1,1.43.62,3.13.25,4.77a12.4,12.4,0,0,0-.39,2.59C30.7,30.9,29.07,32.38,27.67,32.38Zm-2.58-7.31c1.66,0,1.91,1.88,2.12,3.39a5.34,5.34,0,0,0,.5,2c.2,0,1.08-.95,1.08-3.77a14.1,14.1,0,0,1,.44-3c.31-1.35.57-2.52.05-3.26a2.09,2.09,0,0,0-2.61-.76c.2.19.36.37.49.51a1,1,0,0,1-.06,1.35,1,1,0,0,1-1.35-.07c-.85-.94-2.17-1.95-3.31-1.9a2,2,0,0,0-1.56.92c-.71.89-.49,1.79,0,3.3a10.16,10.16,0,0,1,.56,2.92c0,2.75.84,3.71,1.1,3.75a5.88,5.88,0,0,0,.47-2C23.17,27,23.42,25.07,25.09,25.07Z"/><path class="cls-2" d="M34.52,37.86h-19a3.35,3.35,0,0,1-3.34-3.34v-19a3.35,3.35,0,0,1,3.34-3.34h19a3.35,3.35,0,0,1,3.34,3.34v19A3.35,3.35,0,0,1,34.52,37.86Zm-19-23.81a1.43,1.43,0,0,0-1.43,1.43v19A1.43,1.43,0,0,0,15.48,36h19A1.43,1.43,0,0,0,36,34.52v-19a1.43,1.43,0,0,0-1.43-1.43Z"/></g></g></g></svg>