<svg xmlns="http://www.w3.org/2000/svg" viewBox="0 0 50 50"><defs><style>.cls-1{fill:#353942;}.cls-2{fill:#5b616b;}</style></defs><g id="Layer_2" data-name="Layer 2"><g id="Layer_151" data-name="Layer 151"><g id="Export"><path class="cls-1" d="M25,50A25,25,0,1,1,50,25,25,25,0,0,1,25,50Z"/><path class="cls-2" d="M25,37.86h0a1,1,0,0,1-.67-.28l-4.76-4.76a1,1,0,1,1,1.35-1.34L25,35.56l4.08-4.08a1,1,0,1,1,1.35,1.34l-4.76,4.76A1,1,0,0,1,25,37.86Z"/><path class="cls-2" d="M25,37.86a1,1,0,0,1-.95-1V26A.95.95,0,0,1,26,26v11A1,1,0,0,1,25,37.86Z"/><path class="cls-2" d="M34.52,37.86H32A1,1,0,0,1,32,36h2.56A1.43,1.43,0,0,0,36,34.52v-19a1.43,1.43,0,0,0-1.43-1.43h-19a1.43,1.43,0,0,0-1.43,1.43v19A1.43,1.43,0,0,0,15.48,36H18a1,1,0,0,1,0,1.91H15.48a3.35,3.35,0,0,1-3.34-3.34v-19a3.35,3.35,0,0,1,3.34-3.34h19a3.35,3.35,0,0,1,3.34,3.34v19A3.35,3.35,0,0,1,34.52,37.86Z"/><path class="cls-2" d="M36.9,23.17a1,1,0,0,1-.95-1,1.43,1.43,0,0,0-1.43-1.43h-19a1.43,1.43,0,0,0-1.43,1.43,1,1,0,0,1-1.91,0,3.34,3.34,0,0,1,3.34-3.33h19a3.34,3.34,0,0,1,3.34,3.33A1,1,0,0,1,36.9,23.17Z"/><circle class="cls-2" cx="27.16" cy="16.47" r="0.91"/><circle class="cls-2" cx="30.36" cy="16.47" r="0.91"/><circle class="cls-2" cx="33.55" cy="16.47" r="0.91"/></g></g></g></svg>