<svg xmlns="http://www.w3.org/2000/svg" viewBox="0 0 50 50"><defs><style>.cls-1{fill:#353942;}.cls-2{fill:#5b616b;}</style></defs><g id="Layer_2" data-name="Layer 2"><g id="Layer_151" data-name="Layer 151"><g id="FeetOrientation"><path class="cls-1" d="M25,50A25,25,0,1,1,50,25,25,25,0,0,1,25,50Z"/><path class="cls-2" d="M17.62,37.86a1,1,0,0,1-.95-1V13.1a1,1,0,0,1,.95-1H32.38a1,1,0,0,1,0,1.91H18.57V36.9A1,1,0,0,1,17.62,37.86Z"/><path class="cls-2" d="M26.9,26h-9a1,1,0,1,1,0-1.9h9a1,1,0,1,1,0,1.9Z"/></g></g></g></svg>