<svg xmlns="http://www.w3.org/2000/svg" viewBox="0 0 50 50"><defs><style>.cls-1{fill:#353942;}.cls-2{fill:#5b616b;}</style></defs><g id="Layer_2" data-name="Layer 2"><g id="Layer_151" data-name="Layer 151"><g id="FitImage"><path class="cls-1" d="M25,50A25,25,0,1,1,50,25,25,25,0,0,1,25,50Z"/><path class="cls-2" d="M21.07,22H15.55a.95.95,0,0,1,0-1.9h4.57V15.55a.95.95,0,1,1,1.9,0v5.52A.94.94,0,0,1,21.07,22Z"/><path class="cls-2" d="M21.07,22a.92.92,0,0,1-.67-.28l-8-8a1,1,0,1,1,1.35-1.35l8,8a.93.93,0,0,1,0,1.34A.91.91,0,0,1,21.07,22Z"/><path class="cls-2" d="M34.45,22H28.93a.94.94,0,0,1-.95-.95V15.55a.95.95,0,1,1,1.9,0v4.57h4.57a1,1,0,1,1,0,1.9Z"/><path class="cls-2" d="M28.93,22a.91.91,0,0,1-.67-.28.93.93,0,0,1,0-1.34l8-8a1,1,0,1,1,1.35,1.35l-8,8A.92.92,0,0,1,28.93,22Z"/><path class="cls-2" d="M28.93,35.4a.94.94,0,0,1-.95-.95V28.93a.94.94,0,0,1,.95-.95h5.52a1,1,0,1,1,0,1.9H29.88v4.57A1,1,0,0,1,28.93,35.4Z"/><path class="cls-2" d="M36.9,37.86a1,1,0,0,1-.67-.28l-8-8a.95.95,0,1,1,1.34-1.34l8,8a1,1,0,0,1,0,1.35A1,1,0,0,1,36.9,37.86Z"/><path class="cls-2" d="M21.07,35.4a1,1,0,0,1-.95-.95V29.88H15.55a.95.95,0,0,1,0-1.9h5.52a.94.94,0,0,1,.95.95v5.52A.94.94,0,0,1,21.07,35.4Z"/><path class="cls-2" d="M13.1,37.86a1,1,0,0,1-.68-.28,1,1,0,0,1,0-1.35l8-8a.95.95,0,1,1,1.34,1.34l-8,8A1,1,0,0,1,13.1,37.86Z"/><circle class="cls-2" cx="25" cy="25" r="2.07"/></g></g></g></svg>