<svg xmlns="http://www.w3.org/2000/svg" viewBox="0 0 50 50"><defs><style>.cls-1{fill:#353942;}.cls-2{fill:#5b616b;}</style></defs><g id="Layer_2" data-name="Layer 2"><g id="Layer_151" data-name="Layer 151"><g id="Flip"><path class="cls-1" d="M25,50A25,25,0,1,1,50,25,25,25,0,0,1,25,50Z"/><path class="cls-2" d="M36.9,26H32.14a.95.95,0,0,1,0-1.9H36.9a1,1,0,1,1,0,1.9Zm-9.52,0H22.62a.95.95,0,0,1,0-1.9h4.76a.95.95,0,0,1,0,1.9Zm-9.52,0H13.1a1,1,0,1,1,0-1.9h4.76a.95.95,0,0,1,0,1.9Z"/><path class="cls-2" d="M25,21.28a.92.92,0,0,1-.67-.28l-3.75-3.75a1,1,0,1,1,1.34-1.35L25,19l3.08-3.08a1,1,0,1,1,1.34,1.35L25.67,21A.92.92,0,0,1,25,21.28Z"/><path class="cls-2" d="M28.75,34.38a1,1,0,0,1-.67-.28L25,31,21.92,34.1a1,1,0,0,1-1.34-1.35L24.33,29a1,1,0,0,1,1.34,0l3.75,3.75a.94.94,0,0,1,0,1.35A1,1,0,0,1,28.75,34.38Z"/><path class="cls-2" d="M25,21.28a1,1,0,0,1-.95-1V13.1a1,1,0,1,1,1.9,0v7.23A1,1,0,0,1,25,21.28Z"/><path class="cls-2" d="M25,37.86a1,1,0,0,1-.95-1V29.81a1,1,0,1,1,1.9,0V36.9A1,1,0,0,1,25,37.86Z"/></g></g></g></svg>