<svg xmlns="http://www.w3.org/2000/svg" viewBox="0 0 50 50"><defs><style>.cls-1{fill:#353942;}.cls-2{fill:#5b616b;}</style></defs><g id="Layer_2" data-name="Layer 2"><g id="Layer_151" data-name="Layer 151"><g id="FMX18"><path class="cls-1" d="M25,50A25,25,0,1,1,50,25,25,25,0,0,1,25,50Z"/><path class="cls-2" d="M18,18.94a.23.23,0,0,1,.24-.23h3.08a.23.23,0,0,1,.24.23v.46a.24.24,0,0,1-.24.24H19.19a.12.12,0,0,0-.12.12v.75a.12.12,0,0,0,.12.12h1.87a.24.24,0,0,1,.24.24v.46a.24.24,0,0,1-.24.24H19.19a.12.12,0,0,0-.12.12v1.45a.23.23,0,0,1-.24.23h-.55a.23.23,0,0,1-.24-.23Z"/><path class="cls-2" d="M22.41,18.94a.23.23,0,0,1,.24-.23h.63a.43.43,0,0,1,.37.2l1,1.67a.07.07,0,0,0,.12,0l1-1.67a.42.42,0,0,1,.36-.2h.63a.23.23,0,0,1,.24.23v4.2a.23.23,0,0,1-.24.23H26.3a.23.23,0,0,1-.24-.23V20.45a0,0,0,0,0-.06,0l-1.24,1.88h-.05l-1.22-1.86a0,0,0,0,0-.07,0v2.67a.23.23,0,0,1-.24.23h-.53a.23.23,0,0,1-.24-.23Z"/><path class="cls-2" d="M32,18.71a.12.12,0,0,1,.1.19l-1.36,2a.18.18,0,0,0,0,.2l1.43,2.09a.12.12,0,0,1-.1.19h-.73a.45.45,0,0,1-.37-.19l-.85-1.31a.09.09,0,0,0-.13,0l-.86,1.31a.44.44,0,0,1-.36.19h-.7a.12.12,0,0,1-.1-.19l1.43-2.08a.18.18,0,0,0,0-.2l-1.36-2a.12.12,0,0,1,.1-.19h.73a.42.42,0,0,1,.36.2L30,20.12a.08.08,0,0,0,.13,0L31,18.9a.44.44,0,0,1,.37-.19Z"/><path class="cls-2" d="M17.84,28a3.55,3.55,0,0,1,2-3.25.25.25,0,0,1,.33.08l.26.4a.24.24,0,0,1-.06.34,2.9,2.9,0,0,0,0,4.86.23.23,0,0,1,.06.33l-.26.4a.26.26,0,0,1-.33.09A3.56,3.56,0,0,1,17.84,28Z"/><path class="cls-2" d="M22.27,26.54a.1.1,0,0,0-.12-.09l-.61.16a.24.24,0,0,1-.29-.18l-.13-.53a.24.24,0,0,1,.16-.3l1.13-.33a1.47,1.47,0,0,1,.46-.07h.36a.23.23,0,0,1,.23.24V30.5a.23.23,0,0,1-.23.24H22.5a.23.23,0,0,1-.23-.24Z"/><path class="cls-2" d="M24.54,29.23v0a1.3,1.3,0,0,1,.78-1.27s.07-.08,0-.1a1.3,1.3,0,0,1-.63-1.15v0c0-.84.77-1.51,1.94-1.51s1.93.66,1.93,1.51v0A1.29,1.29,0,0,1,28,27.84s0,.08,0,.1a1.32,1.32,0,0,1,.79,1.24v0c0,1-.91,1.62-2.12,1.62S24.54,30.19,24.54,29.23Zm3.07-.09v0c0-.42-.4-.68-.95-.68s-.95.26-.95.68v0c0,.37.35.68.95.68S27.61,29.52,27.61,29.14Zm-.17-2.32v0a.7.7,0,0,0-.78-.64c-.5,0-.79.3-.79.63v0a.71.71,0,0,0,.79.68A.7.7,0,0,0,27.44,26.82Z"/><path class="cls-2" d="M29.59,30.75a.25.25,0,0,1,.06-.33,2.9,2.9,0,0,0,0-4.86.26.26,0,0,1-.06-.34l.27-.4a.23.23,0,0,1,.32-.08,3.66,3.66,0,0,1,0,6.5.24.24,0,0,1-.32-.09Z"/></g></g></g></svg>