<svg id="Layer_1" data-name="Layer 1" xmlns="http://www.w3.org/2000/svg" xmlns:xlink="http://www.w3.org/1999/xlink" viewBox="0 0 612 612"><defs><style>.cls-1{stroke:#232323;stroke-miterlimit:10;stroke-width:1.31px;fill:url(#linear-gradient);}</style><linearGradient id="linear-gradient" x1="308.69" y1="31.74" x2="308.69" y2="580.26" gradientUnits="userSpaceOnUse"><stop offset="0" stop-color="#fafafa"/><stop offset="1" stop-color="#ebebeb"/></linearGradient></defs><path id="FMX20" class="cls-1" d="M51.57,244h21c5,0,9.07-4.85,9.07-10.82V167.25c0-3,2-5.41,4.53-5.41h71.24c5,0,9.07-4.83,9.07-10.83v-20.8c0-6-4.07-10.82-9.07-10.82H86.18c-2.5,0-4.53-2.43-4.53-5.41V79.62c0-3,2-5.41,4.53-5.41h82.68c5,0,9.07-4.85,9.07-10.82V42.56c0-6-4.06-10.82-9.07-10.82H51.57c-5,0-9.07,4.83-9.07,10.82v190.6C42.5,239.16,46.54,244,51.57,244Zm296.5-133.15V233.18c0,6,4.06,10.83,9.07,10.83h20.75c5,0,9.07-4.85,9.07-10.83V42.58c0-6-4.07-10.82-9.07-10.82H353.84c-5.65,0-10.91,3.49-13.86,9.2l-39.57,76a2.6,2.6,0,0,1-4.79,0L256.06,41c-2.95-5.71-8.22-9.2-13.86-9.2h-24c-5,0-9.07,4.83-9.07,10.82v190.6c0,6,4.06,10.83,9.07,10.83H238.4c5,0,9.06-4.85,9.06-10.83V111.77c0-1.6,1.76-2.25,2.51-.89l46.76,84.72a.89.89,0,0,0,.78.5.93.93,0,0,0,.8-.5L345.58,110C346.31,108.61,348.07,109.23,348.07,110.86Zm77,133.15h26.31c5.67,0,11-3.42,14.06-9l32.65-59.18a2.73,2.73,0,0,1,5,0L535.56,235c3.08,5.63,8.38,9,14,9h27.59c3.85,0,6.13-5.13,4-8.94L526.8,139.93a9.16,9.16,0,0,1,0-8.92l51.77-90.29c2.16-3.81-.1-8.94-4-8.94H548.31c-5.66,0-10.94,3.4-14,9L503.87,96.1a2.71,2.71,0,0,1-4.94,0L469.2,40.9c-3-5.68-8.34-9.12-14-9.12H427.65c-3.87,0-6.13,5.13-4,8.94l51.79,90.9a9.18,9.18,0,0,1,0,8.94l-54.3,94.55C419,238.86,421.26,244,425.11,244ZM270.45,492.64H205.56c-1.47,0-2.1-2.23-.94-3.28l25.74-23.73c31.9-29.48,47.34-47.28,47.34-83.21v-.6c0-40.22-24.69-66.33-62-66.33-28.17,0-44.88,12-60.51,34.33-3.58,5.11-4,12.84.39,17L169.22,380c3.6,3.44,8.87,4.05,11.92-.11,11-14.93,19.79-22,32-22,14.15,0,24.2,9.81,24.2,27.95,0,17.81-8.75,29.48-31.15,51.58l-52.95,51.8a24.9,24.9,0,0,0-7,17.69v15.8c0,6,4.06,10.82,9.07,10.82H270.41c5,0,9.07-4.85,9.07-10.82v-19.2C279.52,497.49,275.45,492.64,270.45,492.64ZM388,314.84c-47.87,0-80.29,48.83-80.29,111.18v.58c0,62.34,31.66,110.55,79.76,110.55S467.81,488.32,467.81,426v-.63C467.81,363,435.63,314.84,388,314.84ZM427.14,426.6c0,39-15.19,67.86-39.11,67.86S348.39,465.3,348.39,426v-.63c0-39.31,15.44-67.86,39.11-67.86S427.14,387,427.14,426v.56ZM131,320.62a12.69,12.69,0,0,0,2.36-15.18l-10.16-18.27c-2.75-5-8.2-6.82-12.5-3.79-50,35.2-75.31,82.37-75.31,147.72s25.27,112.52,75.31,147.69c4.3,3,9.76,1.17,12.5-3.78l10.16-18.28A12.71,12.71,0,0,0,131,541.56C95.83,510.11,80.58,478.29,80.58,431.1S95.83,352.07,131,320.62Zm374.57-37.24c-4.3-3-9.76-1.17-12.5,3.79l-10.16,18.27a12.73,12.73,0,0,0,2.36,15.18c35.19,31.45,50.45,63.27,50.45,110.46s-15.26,79-50.45,110.46a12.71,12.71,0,0,0-2.36,15.18L493.09,575c2.76,5,8.2,6.82,12.5,3.79,50-35.2,75.32-82.34,75.32-147.69S555.62,318.58,505.59,283.38Z"/></svg>