<svg xmlns="http://www.w3.org/2000/svg" viewBox="0 0 50 50"><defs><style>.cls-1{fill:#353942;}.cls-2{fill:#5b616b;}</style></defs><g id="Layer_2" data-name="Layer 2"><g id="Layer_151" data-name="Layer 151"><g id="FMX20"><path class="cls-1" d="M25,50A25,25,0,1,1,50,25,25,25,0,0,1,25,50Z"/><path class="cls-2" d="M18,19.44a.23.23,0,0,1,.23-.24h3.08a.24.24,0,0,1,.24.24v.46a.24.24,0,0,1-.24.24H19.17a.12.12,0,0,0-.12.12V21a.12.12,0,0,0,.12.12H21a.24.24,0,0,1,.24.24v.46a.24.24,0,0,1-.24.24H19.17a.12.12,0,0,0-.12.11v1.46a.23.23,0,0,1-.23.23h-.56a.23.23,0,0,1-.23-.23Z"/><path class="cls-2" d="M22.4,19.44a.24.24,0,0,1,.24-.24h.63a.42.42,0,0,1,.36.21l1,1.67a.09.09,0,0,0,.13,0l1-1.67a.41.41,0,0,1,.36-.21h.63a.24.24,0,0,1,.24.24v4.2a.23.23,0,0,1-.24.23h-.54a.23.23,0,0,1-.24-.23v-2.7a0,0,0,0,0-.07,0l-1.24,1.89s0,0,0,0,0,0,0,0l-1.23-1.87a0,0,0,0,0-.06,0v2.68a.23.23,0,0,1-.24.23h-.53a.23.23,0,0,1-.24-.23Z"/><path class="cls-2" d="M32,19.2a.13.13,0,0,1,.1.2l-1.36,2a.17.17,0,0,0,0,.19l1.43,2.1a.13.13,0,0,1-.11.19h-.72a.43.43,0,0,1-.37-.2l-.85-1.3a.09.09,0,0,0-.13,0l-.86,1.3a.43.43,0,0,1-.37.2h-.69a.12.12,0,0,1-.1-.19l1.42-2.08a.18.18,0,0,0,0-.2L28,19.4a.13.13,0,0,1,.11-.2h.72a.45.45,0,0,1,.37.2L30,20.62a.08.08,0,0,0,.13,0l.8-1.22a.45.45,0,0,1,.37-.2Z"/><path class="cls-2" d="M20.75,29.66a.52.52,0,0,1,.18-.39l1.39-1.14c.59-.49.82-.75.82-1.14a.57.57,0,0,0-.63-.61,1.07,1.07,0,0,0-.84.48.23.23,0,0,1-.32,0L21,26.57a.26.26,0,0,1,0-.37,1.89,1.89,0,0,1,1.59-.76A1.46,1.46,0,0,1,24.2,26.9v0c0,.79-.4,1.18-1.24,1.83l-.68.52s0,.07,0,.07H24a.24.24,0,0,1,.24.24V30a.24.24,0,0,1-.24.24H21a.24.24,0,0,1-.24-.24Z"/><path class="cls-2" d="M25,27.89h0a2.23,2.23,0,0,1,2.11-2.45,2.2,2.2,0,0,1,2.09,2.43v0a2.12,2.12,0,1,1-4.2,0Zm3.13,0h0c0-.86-.42-1.51-1-1.51s-1,.63-1,1.49v0c0,.86.41,1.5,1,1.5S28.12,28.75,28.12,27.89Z"/><path class="cls-2" d="M17.84,28a3.55,3.55,0,0,1,2-3.25.25.25,0,0,1,.33.08l.26.4a.24.24,0,0,1-.06.34,2.9,2.9,0,0,0,0,4.86.23.23,0,0,1,.06.33l-.26.4a.26.26,0,0,1-.33.09A3.56,3.56,0,0,1,17.84,28Z"/><path class="cls-2" d="M29.59,30.75a.25.25,0,0,1,.06-.33,2.9,2.9,0,0,0,0-4.86.26.26,0,0,1-.06-.34l.27-.4a.23.23,0,0,1,.32-.08,3.66,3.66,0,0,1,0,6.5.24.24,0,0,1-.32-.09Z"/></g></g></g></svg>