<svg id="Layer_1" data-name="Layer 1" xmlns="http://www.w3.org/2000/svg" xmlns:xlink="http://www.w3.org/1999/xlink" viewBox="0 0 612 612"><defs><style>.cls-1,.cls-2,.cls-3{stroke:#232323;stroke-miterlimit:10;stroke-width:1.31px;}.cls-1{fill:url(#linear-gradient);}.cls-2{fill:url(#linear-gradient-2);}.cls-3{fill:url(#linear-gradient-3);}</style><linearGradient id="linear-gradient" x1="279.72" y1="214.33" x2="279.72" y2="281.83" gradientUnits="userSpaceOnUse"><stop offset="0" stop-color="#fafafa"/><stop offset="1" stop-color="#ebebeb"/></linearGradient><linearGradient id="linear-gradient-2" x1="306" y1="193.58" x2="306" y2="418.42" xlink:href="#linear-gradient"/><linearGradient id="linear-gradient-3" x1="306" y1="31.08" x2="306" y2="580.92" xlink:href="#linear-gradient"/></defs><path class="cls-1" d="M295.63,233.85V265a10.39,10.39,0,0,0,6.59,9.67v7.14h-45V244.77a30.47,30.47,0,0,1,30.42-30.44h14.58v9.86A10.4,10.4,0,0,0,295.63,233.85Z"/><path class="cls-2" d="M324.35,193.58H287.64a51.23,51.23,0,0,0-51.16,51.19V367.22a51.24,51.24,0,0,0,51.16,51.2h36.71a51.24,51.24,0,0,0,51.17-51.2V244.77A51.23,51.23,0,0,0,324.35,193.58Zm-67.13,51.19a30.47,30.47,0,0,1,30.42-30.44h14.58v9.86a10.4,10.4,0,0,0-6.59,9.66V265a10.39,10.39,0,0,0,6.59,9.67v7.14h-45Zm97.55,122.45a30.47,30.47,0,0,1-30.42,30.45H287.64a30.47,30.47,0,0,1-30.42-30.45V302.57h97.55Zm-45-85.39v-7.14a10.39,10.39,0,0,0,6.59-9.67V233.85a10.39,10.39,0,0,0-6.59-9.66v-9.86h14.57a30.46,30.46,0,0,1,30.42,30.44v37.06Z"/><path class="cls-3" d="M560.42,412.91a20.37,20.37,0,0,0-20.35,20.37V540.19H433.21a20.37,20.37,0,0,0,0,40.73H560.42a20.36,20.36,0,0,0,20.35-20.36V433.28A20.35,20.35,0,0,0,560.42,412.91ZM178.79,540.19H71.93V433.28a20.36,20.36,0,1,0-40.71,0V560.55a20.37,20.37,0,0,0,20.36,20.37H178.79a20.37,20.37,0,0,0,0-40.73Zm0-509.11H51.58A20.37,20.37,0,0,0,31.22,51.44V178.72a20.36,20.36,0,1,0,40.71,0V71.8H178.79a20.36,20.36,0,0,0,0-40.72Zm381.63,0H433.21a20.37,20.37,0,0,0,0,40.73H540.07V178.72a20.36,20.36,0,1,0,40.71,0V51.44A20.37,20.37,0,0,0,560.42,31.08Z"/></svg>