<svg xmlns="http://www.w3.org/2000/svg" viewBox="0 0 50 50"><defs><style>.cls-1{fill:#353942;}.cls-2{fill:#5b616b;}</style></defs><g id="Layer_2" data-name="Layer 2"><g id="Layer_151" data-name="Layer 151"><g id="FullScreen"><path class="cls-1" d="M25,50A25,25,0,1,1,50,25,25,25,0,0,1,25,50Z"/><path class="cls-2" d="M36.9,21.07a1,1,0,0,1-.95-.95V14.05H29.88a1,1,0,0,1,0-1.91h7a1,1,0,0,1,1,1v7A1,1,0,0,1,36.9,21.07Z"/><path class="cls-2" d="M28.1,22.86a1,1,0,0,1-.68-.28,1,1,0,0,1,0-1.35l8.81-8.81a1,1,0,1,1,1.35,1.35l-8.81,8.81A1,1,0,0,1,28.1,22.86Z"/><path class="cls-2" d="M20.12,37.86h-7a1,1,0,0,1-1-1v-7a1,1,0,0,1,1.91,0V36h6.07a1,1,0,0,1,0,1.91Z"/><path class="cls-2" d="M13.1,37.86a1,1,0,0,1-.68-.28,1,1,0,0,1,0-1.35l8.81-8.81a1,1,0,1,1,1.35,1.35l-8.81,8.81A1,1,0,0,1,13.1,37.86Z"/></g></g></g></svg>