<svg xmlns="http://www.w3.org/2000/svg" viewBox="0 0 50 50"><defs><style>.cls-1{fill:#353942;}.cls-2{fill:#5b616b;}</style></defs><g id="Layer_2" data-name="Layer 2"><g id="Layer_151" data-name="Layer 151"><g id="Highlight"><path class="cls-1" d="M25,50A25,25,0,1,1,50,25,25,25,0,0,1,25,50Z"/><path class="cls-2" d="M22.8,35.37a1,1,0,0,1-.68-.28L16,28.94a1,1,0,0,1-.28-.68,1,1,0,0,1,.29-.67L30.82,13A3,3,0,0,1,35,13L37,15a3,3,0,0,1,.09,4.17L23.52,35a1,1,0,0,1-.69.33ZM18,28.27,22.74,33l12.9-15.1a1.14,1.14,0,0,0,0-1.57l-2-1.95a1.11,1.11,0,0,0-1.53,0Z"/><path class="cls-2" d="M16.65,28.27s.86,3.68-1.43,6l1.61,1.61c2.28-2.28,6-1.42,6-1.42Z"/><path class="cls-2" d="M16.83,36.79a.92.92,0,0,1-.67-.28l-1.61-1.6a1,1,0,0,1,0-1.35c1.89-1.89,1.18-5,1.17-5.08a.93.93,0,0,1,.46-1,1,1,0,0,1,1.14.15l6.15,6.15a1,1,0,0,1-.89,1.6s-3.2-.7-5.08,1.17A.92.92,0,0,1,16.83,36.79Zm-.31-2.61.37.37a7,7,0,0,1,3.48-1.21l-2.64-2.65A7.05,7.05,0,0,1,16.52,34.18Z"/><polygon class="cls-2" points="15.22 34.23 13.1 36.36 15.77 36.91 16.83 35.84 15.22 34.23"/><path class="cls-2" d="M15.77,37.86l-.19,0-2.67-.54a1,1,0,0,1-.73-.66,1,1,0,0,1,.24-1l2.13-2.13a1,1,0,0,1,.67-.28h0a1,1,0,0,1,.68.28l1.6,1.61a.93.93,0,0,1,0,1.34l-1.06,1.07A1,1,0,0,1,15.77,37.86ZM15,35.78l.43.09,0,0-.26-.26Z"/><path class="cls-2" d="M36.89,37.86H15.77a1,1,0,1,1,0-1.91H36.89a1,1,0,0,1,0,1.91Z"/></g></g></g></svg>