<svg xmlns="http://www.w3.org/2000/svg" viewBox="0 0 50 50"><defs><style>.cls-1{fill:#353942;}.cls-2{fill:#5b616b;}</style></defs><g id="Layer_2" data-name="Layer 2"><g id="Layer_151" data-name="Layer 151"><g id="HSL"><path class="cls-1" d="M25,50A25,25,0,1,1,50,25,25,25,0,0,1,25,50Z"/><path class="cls-2" d="M25.18,20.71a.94.94,0,0,1-.95-.95V13.1a1,1,0,1,1,1.9,0v6.66A1,1,0,0,1,25.18,20.71Z"/><path class="cls-2" d="M19.17,29.29a1,1,0,0,1-1-1V21.67a1,1,0,1,1,1.91,0v6.66A1,1,0,0,1,19.17,29.29Z"/><path class="cls-2" d="M28.81,37.86a1,1,0,0,1-.95-1V30.24a.95.95,0,1,1,1.9,0V36.9A1,1,0,0,1,28.81,37.86Z"/><path class="cls-2" d="M19.17,26H13.1a1,1,0,1,1,0-1.9h6.07a.95.95,0,0,1,0,1.9Z"/><path class="cls-2" d="M36.9,26h-13a.95.95,0,0,1,0-1.9h13a1,1,0,1,1,0,1.9Z"/><path class="cls-2" d="M25.18,17.38H13.1a1,1,0,1,1,0-1.9H25.18a.95.95,0,0,1,0,1.9Z"/><path class="cls-2" d="M36.9,17.38h-7a1,1,0,1,1,0-1.9h7a1,1,0,1,1,0,1.9Z"/><path class="cls-2" d="M28.81,34.52H13.1a1,1,0,1,1,0-1.9H28.81a1,1,0,0,1,0,1.9Z"/><path class="cls-2" d="M36.9,34.52H33.57a1,1,0,0,1,0-1.9H36.9a1,1,0,1,1,0,1.9Z"/></g></g></g></svg>