<svg xmlns="http://www.w3.org/2000/svg" viewBox="0 0 50 50"><defs><style>.cls-1{fill:#353942;}.cls-2{fill:#5b616b;}</style></defs><g id="Layer_2" data-name="Layer 2"><g id="Layer_151" data-name="Layer 151"><g id="ImportTemplates"><path class="cls-1" d="M25,50A25,25,0,1,1,50,25,25,25,0,0,1,25,50Z"/><path class="cls-2" d="M21.9,37.86H15.48a3.35,3.35,0,0,1-3.34-3.34v-19a3.35,3.35,0,0,1,3.34-3.34h19a3.35,3.35,0,0,1,3.34,3.34V28.61a1,1,0,0,1-1.91,0V15.48a1.43,1.43,0,0,0-1.43-1.43h-19a1.43,1.43,0,0,0-1.43,1.43v19A1.43,1.43,0,0,0,15.48,36H21.9a1,1,0,1,1,0,1.91Z"/><path class="cls-2" d="M29.63,37.86a1,1,0,0,1-.68-.28L24.8,33.43a1,1,0,0,1,0-1.35L29,27.93a1,1,0,0,1,1.35,1.35l-3.48,3.48,3.48,3.47a1,1,0,0,1,0,1.35A1,1,0,0,1,29.63,37.86Z"/><path class="cls-2" d="M36.9,33.71H25.48a1,1,0,1,1,0-1.91H36.9a1,1,0,1,1,0,1.91Z"/></g></g></g></svg>