<svg id="Layer_1" data-name="Layer 1" xmlns="http://www.w3.org/2000/svg" xmlns:xlink="http://www.w3.org/1999/xlink" viewBox="0 0 612 612"><defs><style>.cls-1,.cls-2{stroke:#232323;stroke-miterlimit:10;stroke-width:1.31px;}.cls-1{fill:url(#linear-gradient);}.cls-2{fill:url(#linear-gradient-2);}</style><linearGradient id="linear-gradient" x1="296.76" y1="61.32" x2="296.76" y2="581.73" gradientUnits="userSpaceOnUse"><stop offset="0" stop-color="#fafafa"/><stop offset="1" stop-color="#ebebeb"/></linearGradient><linearGradient id="linear-gradient-2" x1="470.92" y1="30.27" x2="470.92" y2="235.89" xlink:href="#linear-gradient"/></defs><path class="cls-1" d="M557.11,514.26V298.47a19.29,19.29,0,0,0-38.57,0V514.26a29,29,0,0,1-28.93,28.92H103.92A29,29,0,0,1,75,514.26V128.78a29,29,0,0,1,28.93-28.91H306.41a19.28,19.28,0,1,0,0-38.55H103.92a67.55,67.55,0,0,0-67.5,67.46V514.27a67.55,67.55,0,0,0,67.5,67.46H489.61A67.57,67.57,0,0,0,557.11,514.26Z"/><path class="cls-2" d="M377.84,233.53c.38.19.7.43,1.08.6a20.49,20.49,0,0,0,2.81.92c.31.08.6.22.91.28a21.53,21.53,0,0,0,3.91.47l163.66.09a20.18,20.18,0,0,0,20.52-19.72,19.92,19.92,0,0,0-19.61-20.42l-115.21.75L569.37,64.78A20,20,0,1,0,541.64,35.9L408.17,167.62l-1.77-114a19.92,19.92,0,0,0-19.61-20.42A20.2,20.2,0,0,0,366.27,52.9l.66,162.46a18.55,18.55,0,0,0,.3,3.93c0,.31.17.61.25.92a20.34,20.34,0,0,0,.8,2.84c.15.39.38.75.56,1.11a23.85,23.85,0,0,0,1.19,2.37,20.62,20.62,0,0,0,2.46,3.14,19.59,19.59,0,0,0,3,2.58A20.48,20.48,0,0,0,377.84,233.53Z"/></svg>