<svg xmlns="http://www.w3.org/2000/svg" viewBox="0 0 50 50"><defs><style>.cls-1{fill:#353942;}.cls-2{fill:#5b616b;}</style></defs><g id="Layer_2" data-name="Layer 2"><g id="Layer_151" data-name="Layer 151"><g id="Invert"><path class="cls-1" d="M25,50A25,25,0,1,1,50,25,25,25,0,0,1,25,50Z"/><path class="cls-2" d="M25,32h0a1,1,0,0,1-.8-.43L17,20.41a1,1,0,0,1,.8-1.47H32.24a1,1,0,0,1,.8,1.47L25.8,31.58A1,1,0,0,1,25,32ZM19.51,20.84,25,29.31l5.49-8.47Z"/><polygon class="cls-2" points="25 31.06 25 19.89 17.76 19.89 25 31.06"/><path class="cls-2" d="M34.52,37.86h-19a3.35,3.35,0,0,1-3.34-3.34v-19a3.35,3.35,0,0,1,3.34-3.34h19a3.35,3.35,0,0,1,3.34,3.34v19A3.35,3.35,0,0,1,34.52,37.86Zm-19-23.81a1.43,1.43,0,0,0-1.43,1.43v19A1.43,1.43,0,0,0,15.48,36h19A1.43,1.43,0,0,0,36,34.52v-19a1.43,1.43,0,0,0-1.43-1.43Z"/></g></g></g></svg>