<svg xmlns="http://www.w3.org/2000/svg" viewBox="0 0 50 50"><defs><style>.cls-1{fill:#353942;}.cls-2{fill:#5b616b;}</style></defs><g id="Layer_2" data-name="Layer 2"><g id="Layer_151" data-name="Layer 151"><g id="LineProfile"><path class="cls-1" d="M25,50A25,25,0,1,1,50,25,25,25,0,0,1,25,50Z"/><path class="cls-2" d="M21.63,31.12a1,1,0,0,1-.67-.28l-3-3a4,4,0,0,1,5.61-5.62l4.27,4.27a2.06,2.06,0,0,0,2.91,0,2.06,2.06,0,0,0,0-2.92l-3-3A1,1,0,0,1,29,19.16l3,3a4,4,0,0,1,0,5.62,4,4,0,0,1-5.61,0l-4.27-4.27a2.06,2.06,0,1,0-2.91,2.92l3,3a1,1,0,0,1,0,1.35A1,1,0,0,1,21.63,31.12Z"/><path class="cls-2" d="M34.52,37.86h-19a3.35,3.35,0,0,1-3.34-3.34v-19a3.35,3.35,0,0,1,3.34-3.34h19a3.35,3.35,0,0,1,3.34,3.34v19A3.35,3.35,0,0,1,34.52,37.86Zm-19-23.81a1.43,1.43,0,0,0-1.43,1.43v19A1.43,1.43,0,0,0,15.48,36h19A1.43,1.43,0,0,0,36,34.52v-19a1.43,1.43,0,0,0-1.43-1.43Z"/></g></g></g></svg>