<svg xmlns="http://www.w3.org/2000/svg" viewBox="0 0 50 50"><defs><style>.cls-1{fill:#353942;}.cls-2{fill:#5b616b;}</style></defs><g id="Layer_2" data-name="Layer 2"><g id="Layer_151" data-name="Layer 151"><g id="Linked"><path class="cls-1" d="M25,50A25,25,0,1,1,50,25,25,25,0,0,1,25,50Z"/><path class="cls-2" d="M19.52,37.85A7.37,7.37,0,0,1,14.3,25.26l1.87-1.87a1,1,0,0,1,1.35,1.35l-1.87,1.87a5.47,5.47,0,0,0,7.74,7.74l1.87-1.87a1,1,0,0,1,1.35,1.35L24.74,35.7A7.39,7.39,0,0,1,19.52,37.85Z"/><path class="cls-2" d="M33.15,26.89a1,1,0,0,1-.67-.28,1,1,0,0,1,0-1.35l1.87-1.87a5.47,5.47,0,1,0-7.74-7.74l-1.87,1.87a1,1,0,0,1-1.35-1.35l1.87-1.87A7.38,7.38,0,1,1,35.7,24.74l-1.87,1.87A1,1,0,0,1,33.15,26.89Z"/><path class="cls-2" d="M21.5,29.45a1,1,0,0,1-.67-1.62l7-7a.95.95,0,0,1,1.34,1.34l-7,7A.92.92,0,0,1,21.5,29.45Z"/></g></g></g></svg>