<svg xmlns="http://www.w3.org/2000/svg" viewBox="0 0 50 50"><defs><style>.cls-1{fill:#353942;}.cls-2{fill:#5b616b;}</style></defs><g id="Layer_2" data-name="Layer 2"><g id="Layer_151" data-name="Layer 151"><g id="LinkStudies"><path class="cls-1" d="M25,50A25,25,0,1,1,50,25,25,25,0,0,1,25,50Z"/><path class="cls-2" d="M20.4,37.86H13.1a1,1,0,0,1-1-1V13.1a1,1,0,0,1,1-1H30.56a1,1,0,0,1,1,1v7.73a1,1,0,1,1-1.91,0V14.05H14.05V36H20.4a1,1,0,0,1,0,1.91Z"/><path class="cls-2" d="M27,17.94H16.63a1,1,0,1,1,0-1.91H27a1,1,0,1,1,0,1.91Z"/><path class="cls-2" d="M27,21.94H16.63a1,1,0,1,1,0-1.9H27a1,1,0,1,1,0,1.9Z"/><path class="cls-2" d="M20.63,34h-4a1,1,0,1,1,0-1.91h4a1,1,0,1,1,0,1.91Z"/><path class="cls-2" d="M27,26H23.89a.95.95,0,0,1,0-1.9H27A1,1,0,1,1,27,26Z"/><path class="cls-2" d="M20.63,30h-4a1,1,0,0,1-1-.95V25a1,1,0,0,1,1-.95h4a1,1,0,0,1,1,.95v4A1,1,0,0,1,20.63,30Zm-3.05-1.9h2.1V26h-2.1Z"/><path class="cls-2" d="M28.51,37.86a2.25,2.25,0,0,1-1.59-.66L24.71,35a2.26,2.26,0,0,1,0-3.19l1.94-1.94a1,1,0,0,1,1.34,0,1,1,0,0,1,0,1.35l-1.94,1.94a.35.35,0,0,0,0,.49l2.22,2.21a.32.32,0,0,0,.24.1.35.35,0,0,0,.25-.1l1.94-1.94a1,1,0,0,1,1.34,0,1,1,0,0,1,0,1.35L30.1,37.2A2.25,2.25,0,0,1,28.51,37.86Z"/><path class="cls-2" d="M34.59,32.32a1,1,0,0,1-.68-1.62l1.94-1.94a.35.35,0,0,0,.1-.25.32.32,0,0,0-.1-.24l-2.21-2.22a.35.35,0,0,0-.49,0L31.21,28a1,1,0,0,1-1.35,0,1,1,0,0,1,0-1.34l1.94-1.94a2.26,2.26,0,0,1,3.19,0l2.21,2.21a2.25,2.25,0,0,1,0,3.18L35.26,32A.94.94,0,0,1,34.59,32.32Z"/><path class="cls-2" d="M29.39,33.46a1,1,0,0,1-.67-.27,1,1,0,0,1,0-1.35l3.12-3.12a1,1,0,1,1,1.35,1.35l-3.12,3.12A1,1,0,0,1,29.39,33.46Z"/></g></g></g></svg>