<svg xmlns="http://www.w3.org/2000/svg" viewBox="0 0 50 50"><defs><style>.cls-1{fill:#353942;}.cls-2{fill:#5b616b;}</style></defs><g id="Layer_2" data-name="Layer 2"><g id="Layer_151" data-name="Layer 151"><g id="LoadAnn"><path class="cls-1" d="M25,50A25,25,0,1,1,50,25,25,25,0,0,1,25,50Z"/><path class="cls-2" d="M36.9,35.71H13.1a1,1,0,0,1-1-1V15.24a1,1,0,0,1,1-1h9.16a3.31,3.31,0,0,1,2.36,1l2.2,2.2a1.41,1.41,0,0,0,1,.42H36.9a1,1,0,0,1,1,.95V34.76A1,1,0,0,1,36.9,35.71Zm-22.85-1.9H36v-14H27.83a3.31,3.31,0,0,1-2.36-1l-2.2-2.2a1.42,1.42,0,0,0-1-.42H14.05Z"/><path class="cls-2" d="M36.9,24.4H13.1a1,1,0,1,1,0-1.91H36.9a1,1,0,1,1,0,1.91Z"/><rect class="cls-2" x="17.19" y="27.34" width="6.17" height="3.66"/><path class="cls-2" d="M23.36,31.47H17.19a.47.47,0,0,1-.47-.47V27.34a.47.47,0,0,1,.47-.48h6.17a.47.47,0,0,1,.48.48V31A.47.47,0,0,1,23.36,31.47Zm-5.69-.95h5.22V27.81H17.67Z"/></g></g></g></svg>