<svg xmlns="http://www.w3.org/2000/svg" viewBox="0 0 50 50"><defs><style>.cls-1{fill:#353942;}.cls-2{fill:#5b616b;}</style></defs><g id="Layer_2" data-name="Layer 2"><g id="Layer_151" data-name="Layer 151"><g id="Magnify"><path class="cls-1" d="M25,50A25,25,0,1,1,50,25,25,25,0,0,1,25,50Z"/><path class="cls-2" d="M23.81,35.48A11.67,11.67,0,1,1,35.48,23.81,11.69,11.69,0,0,1,23.81,35.48Zm0-21.43a9.76,9.76,0,1,0,9.76,9.76A9.77,9.77,0,0,0,23.81,14.05Z"/><path class="cls-2" d="M36.9,37.86a1,1,0,0,1-.67-.28l-5.52-5.52a1,1,0,0,1,1.35-1.35l5.52,5.52a1,1,0,0,1,0,1.35A1,1,0,0,1,36.9,37.86Z"/><rect class="cls-2" x="22.86" y="13.1" width="1.9" height="21.43" transform="translate(-9.86 23.81) rotate(-45)"/><rect class="cls-2" x="13.1" y="22.86" width="21.43" height="1.9" transform="translate(-9.86 23.81) rotate(-45)"/></g></g></g></svg>