<svg xmlns="http://www.w3.org/2000/svg" viewBox="0 0 50 50"><defs><style>.cls-1{fill:#353942;}.cls-2{fill:#5b616b;}</style></defs><g id="Layer_2" data-name="Layer 2"><g id="Layer_151" data-name="Layer 151"><g id="MakeSameHeight"><path class="cls-1" d="M25,50A25,25,0,1,1,50,25,25,25,0,0,1,25,50Z"/><path class="cls-2" d="M36.9,37.86H28.81a1,1,0,0,1-.95-1V13.1a1,1,0,0,1,.95-1H36.9a1,1,0,0,1,1,1V36.9A1,1,0,0,1,36.9,37.86ZM29.76,36H36V14.05H29.76Z"/><path class="cls-2" d="M15,37.86H13.1a1,1,0,0,1-1-1V35a1,1,0,0,1,1.91,0v1H15a1,1,0,0,1,0,1.91Z"/><path class="cls-2" d="M21.19,37.86h-1.9a1,1,0,1,1,0-1.91h.95V35a1,1,0,0,1,1.9,0v1.9A1,1,0,0,1,21.19,37.86Z"/><path class="cls-2" d="M21.19,26.9a.94.94,0,0,1-1-.95V25h-.95a1,1,0,1,1,0-1.9h1.9a.94.94,0,0,1,.95.95V26A.94.94,0,0,1,21.19,26.9Z"/><path class="cls-2" d="M13.1,26.9a1,1,0,0,1-1-.95v-1.9a1,1,0,0,1,1-.95H15A.95.95,0,1,1,15,25h-.95V26A1,1,0,0,1,13.1,26.9Z"/><path class="cls-2" d="M20.71,17.86a1,1,0,0,1-.67-.28L16.9,14.44l-3.13,3.14a1,1,0,1,1-1.35-1.35l3.81-3.81a1,1,0,0,1,1.35,0l3.81,3.81a1,1,0,0,1,0,1.35A1,1,0,0,1,20.71,17.86Z"/><path class="cls-2" d="M16.9,20.92A1,1,0,0,1,16,20V13.79a1,1,0,1,1,1.91,0V20A1,1,0,0,1,16.9,20.92Z"/><path class="cls-2" d="M13.1,32.14a1,1,0,0,1-1-.95V29.76a1,1,0,0,1,1.91,0v1.43A1,1,0,0,1,13.1,32.14Z"/><path class="cls-2" d="M21,32.14a1,1,0,0,1-.95-.95V29.76a1,1,0,0,1,1.9,0v1.43A.94.94,0,0,1,21,32.14Z"/></g></g></g></svg>