<svg id="Layer_1" data-name="Layer 1" xmlns="http://www.w3.org/2000/svg" xmlns:xlink="http://www.w3.org/1999/xlink" viewBox="0 0 612 612"><defs><style>.cls-1{stroke:#232323;stroke-miterlimit:10;stroke-width:1.31px;fill:url(#linear-gradient);}</style><linearGradient id="linear-gradient" x1="306" y1="31.24" x2="306" y2="580.76" gradientUnits="userSpaceOnUse"><stop offset="0" stop-color="#fafafa"/><stop offset="1" stop-color="#ebebeb"/></linearGradient></defs><path id="MakeSameHeight" class="cls-1" d="M561,31.25H387.62A20.39,20.39,0,0,0,367.21,51.6V560.41a20.39,20.39,0,0,0,20.41,20.35H561a20.39,20.39,0,0,0,20.41-20.35V51.6A20.38,20.38,0,0,0,561,31.25Zm-20.4,508.8H408V72H540.64ZM91.77,265.3H51a20.38,20.38,0,0,0-20.4,20.35v40.7a20.4,20.4,0,0,0,40.8,0V306H91.77a20.35,20.35,0,1,0,0-40.7Zm132.62,0H183.58a20.35,20.35,0,1,0,0,40.7H204v20.35a20.41,20.41,0,0,0,40.81,0v-40.7A20.38,20.38,0,0,0,224.39,265.3Zm0,234.05A20.39,20.39,0,0,0,204,519.7v20.35h-20.4a20.36,20.36,0,1,0,0,40.71h40.81a20.39,20.39,0,0,0,20.4-20.35V519.7A20.38,20.38,0,0,0,224.39,499.35ZM91.77,540.05H71.36V519.7a20.4,20.4,0,0,0-40.8,0v40.7A20.38,20.38,0,0,0,51,580.75H91.77a20.35,20.35,0,1,0,0-40.7ZM214.19,153.36a20.35,20.35,0,0,0,14.42-34.74L147,37.21a20.41,20.41,0,0,0-28.85,0L36.54,118.62A20.38,20.38,0,0,0,65.39,147.4l46.78-46.67V198.4a20.41,20.41,0,0,0,40.81,0V100.73l46.78,46.67A20.37,20.37,0,0,0,214.19,153.36ZM51,458.64a20.39,20.39,0,0,0,20.4-20.35V407.76a20.4,20.4,0,0,0-40.8,0v30.53A20.39,20.39,0,0,0,51,458.64Zm168.33,0a20.39,20.39,0,0,0,20.4-20.35V407.76a20.41,20.41,0,0,0-40.81,0v30.53A20.39,20.39,0,0,0,219.29,458.64Z"/></svg>