<svg xmlns="http://www.w3.org/2000/svg" viewBox="0 0 50 50"><defs><style>.cls-1{fill:#353942;}.cls-2{fill:#5b616b;}</style></defs><g id="Layer_2" data-name="Layer 2"><g id="Layer_151" data-name="Layer 151"><g id="MakeSameSize"><path class="cls-1" d="M25,50A25,25,0,1,1,50,25,25,25,0,0,1,25,50Z"/><path class="cls-2" d="M28.93,29.88H21.07a1,1,0,0,1-.95-.95V21.07a1,1,0,0,1,.95-.95h7.86a1,1,0,0,1,.95.95v7.86A1,1,0,0,1,28.93,29.88ZM22,28h6V22H22Z"/><path class="cls-2" d="M13.1,19.57a1,1,0,0,1-1-.95V13.1a1,1,0,0,1,1-1h5.52a1,1,0,0,1,0,1.91H14.05v4.57A1,1,0,0,1,13.1,19.57Z"/><path class="cls-2" d="M21.07,22a.92.92,0,0,1-.67-.28l-8-8a1,1,0,1,1,1.35-1.35l8,8a.93.93,0,0,1,0,1.34A.91.91,0,0,1,21.07,22Z"/><path class="cls-2" d="M36.9,19.57a1,1,0,0,1-.95-.95V14.05H31.38a1,1,0,0,1,0-1.91H36.9a1,1,0,0,1,1,1v5.52A1,1,0,0,1,36.9,19.57Z"/><path class="cls-2" d="M28.93,22a.91.91,0,0,1-.67-.28.93.93,0,0,1,0-1.34l8-8a1,1,0,1,1,1.35,1.35l-8,8A.92.92,0,0,1,28.93,22Z"/><path class="cls-2" d="M36.9,37.86H31.38a1,1,0,0,1,0-1.91H36V31.38a1,1,0,0,1,1.91,0V36.9A1,1,0,0,1,36.9,37.86Z"/><path class="cls-2" d="M36.9,37.86a1,1,0,0,1-.67-.28l-8-8a.95.95,0,1,1,1.34-1.34l8,8a1,1,0,0,1,0,1.35A1,1,0,0,1,36.9,37.86Z"/><path class="cls-2" d="M18.62,37.86H13.1a1,1,0,0,1-1-1V31.38a1,1,0,0,1,1.91,0V36h4.57a1,1,0,0,1,0,1.91Z"/><path class="cls-2" d="M13.1,37.86a1,1,0,0,1-.68-.28,1,1,0,0,1,0-1.35l8-8a.95.95,0,1,1,1.34,1.34l-8,8A1,1,0,0,1,13.1,37.86Z"/></g></g></g></svg>