<svg xmlns="http://www.w3.org/2000/svg" viewBox="0 0 50 50"><defs><style>.cls-1{fill:#353942;}.cls-2{fill:#5b616b;}</style></defs><g id="Layer_2" data-name="Layer 2"><g id="Layer_151" data-name="Layer 151"><g id="MakeSameWidth"><path class="cls-1" d="M25,50A25,25,0,1,1,50,25,25,25,0,0,1,25,50Z"/><path class="cls-2" d="M36.9,37.86H13.1a1,1,0,0,1-1-1V28.81a1,1,0,0,1,1-.95H36.9a1,1,0,0,1,1,.95V36.9A1,1,0,0,1,36.9,37.86ZM14.05,36H36V29.76H14.05Z"/><path class="cls-2" d="M13.1,16a1,1,0,0,1-1-.95V13.1a1,1,0,0,1,1-1H15a1,1,0,0,1,0,1.91h-.95V15A1,1,0,0,1,13.1,16Z"/><path class="cls-2" d="M15,22.14H13.1a1,1,0,0,1-1-.95v-1.9a1,1,0,1,1,1.91,0v.95H15a1,1,0,1,1,0,1.9Z"/><path class="cls-2" d="M26,22.14h-1.9a1,1,0,0,1,0-1.9H25v-.95a1,1,0,1,1,1.9,0v1.9A.94.94,0,0,1,26,22.14Z"/><path class="cls-2" d="M26,16A1,1,0,0,1,25,15v-.95h-.95a1,1,0,0,1,0-1.91H26a1,1,0,0,1,.95,1V15A.94.94,0,0,1,26,16Z"/><path class="cls-2" d="M33.1,21.67a1,1,0,0,1-.68-.28,1,1,0,0,1,0-1.35l3.14-3.14-3.14-3.13a1,1,0,1,1,1.35-1.35l3.81,3.81a1,1,0,0,1,0,1.35l-3.81,3.81A1,1,0,0,1,33.1,21.67Z"/><path class="cls-2" d="M36.21,17.86H30A1,1,0,1,1,30,16h6.17a1,1,0,1,1,0,1.91Z"/><path class="cls-2" d="M20.24,14.05H18.81a1,1,0,0,1,0-1.91h1.43a1,1,0,0,1,0,1.91Z"/><path class="cls-2" d="M20.24,21.9H18.81a.95.95,0,0,1,0-1.9h1.43a.95.95,0,0,1,0,1.9Z"/></g></g></g></svg>