<svg id="Layer_1" data-name="Layer 1" xmlns="http://www.w3.org/2000/svg" xmlns:xlink="http://www.w3.org/1999/xlink" viewBox="0 0 612 612"><defs><style>.cls-1{stroke:#232323;stroke-miterlimit:10;stroke-width:1.31px;fill:url(#linear-gradient);}</style><linearGradient id="linear-gradient" x1="306" y1="31.23" x2="306" y2="580.77" gradientUnits="userSpaceOnUse"><stop offset="0" stop-color="#fafafa"/><stop offset="1" stop-color="#ebebeb"/></linearGradient></defs><path id="MakeSameWidth" class="cls-1" d="M560.41,367.06H51.59a20.36,20.36,0,0,0-20.36,20.35v173a20.37,20.37,0,0,0,20.36,20.36H560.41a20.36,20.36,0,0,0,20.35-20.36v-173A20.36,20.36,0,0,0,560.41,367.06Zm-20.35,173H71.94V407.77H540.06ZM285.65,244.94h40.7a20.36,20.36,0,0,0,20.35-20.35V183.88a20.35,20.35,0,1,0-40.7,0v20.36H285.65a20.35,20.35,0,1,0,0,40.7Zm0-173H306V92.3a20.35,20.35,0,1,0,40.7,0V51.59a20.36,20.36,0,0,0-20.35-20.35h-40.7a20.35,20.35,0,1,0,0,40.7Zm-234.06,173h40.7a20.35,20.35,0,0,0,0-40.7H71.94V183.88a20.36,20.36,0,0,0-40.71,0v40.71A20.36,20.36,0,0,0,51.59,244.94Zm0-132.29A20.36,20.36,0,0,0,71.94,92.3V71.94H92.29a20.35,20.35,0,1,0,0-40.7H51.59A20.36,20.36,0,0,0,31.23,51.59v40.7A20.37,20.37,0,0,0,51.59,112.65Zm362,40.7h97.67L464.61,200a20.35,20.35,0,1,0,28.78,28.78l81.41-81.41a20.33,20.33,0,0,0,0-28.78L493.39,37.2A20.35,20.35,0,1,0,464.61,66l46.67,46.67H413.61a20.35,20.35,0,1,0,0,40.7ZM173.7,71.94h30.53a20.35,20.35,0,1,0,0-40.7H173.7a20.35,20.35,0,1,0,0,40.7Zm0,167.91h30.53a20.35,20.35,0,1,0,0-40.7H173.7a20.35,20.35,0,0,0,0,40.7Z"/></svg>