<svg id="Layer_1" data-name="Layer 1" xmlns="http://www.w3.org/2000/svg" xmlns:xlink="http://www.w3.org/1999/xlink" viewBox="0 0 612 612"><defs><style>.cls-1{stroke:#232323;stroke-miterlimit:10;stroke-width:1.31px;fill:url(#linear-gradient);}</style><linearGradient id="linear-gradient" x1="306" y1="32.07" x2="306" y2="579.93" gradientUnits="userSpaceOnUse"><stop offset="0" stop-color="#fafafa"/><stop offset="1" stop-color="#ebebeb"/></linearGradient></defs><path id="MPR" class="cls-1" d="M565,244.74l-88.82-24.07V148.79a20.31,20.31,0,0,0-14.95-19.58l-35.6-9.7V52.36a20.29,20.29,0,0,0-30.35-17.63L304.55,86.51,159.69,47a20.29,20.29,0,0,0-25.63,19.59V228.1L42.34,280a20.29,20.29,0,0,0,4.71,37.24l87,23.56V460A20.31,20.31,0,0,0,149,479.58l36.51,9.94v70.12a20.28,20.28,0,0,0,20.29,20.29,20.54,20.54,0,0,0,10.07-2.65l94.21-53.8,140.42,38.25a20.68,20.68,0,0,0,5.34.71,20.33,20.33,0,0,0,20.3-20.29V335l93.5-53A20.29,20.29,0,0,0,565,244.74Zm-212,113.37-93.18-25.24,50.32-28.52,93.16,25.25ZM287,270.79,226.1,305.31V178.07L287,143.29Zm148.52,25.55-108-29.24V134.89l108,29.4ZM385,87.35v21.12l-25-6.82ZM254.67,115l-58.93,33.65a20.28,20.28,0,0,0-10.22,17.61v61.08l-10.88-2.94V93.21ZM157.09,261.72l28.41,7.71V312.8l-80.2-21.72Zm17.53,182.84V351.9l10.88,2.94v92.68Zm51.46-78.74L287,382.32V490l-60.92,34.8V365.82ZM435.54,515.64l-108-29.41V393.32l22.75,6.16h.06a21.84,21.84,0,0,0,2.43.33,19.61,19.61,0,0,0,2.83.38c.08,0,.14,0,.22,0a20.05,20.05,0,0,0,5.64-.93c.65-.21,1.24-.49,1.85-.75a20.13,20.13,0,0,0,2.27-.94l69.91-39.59v157.7ZM476.12,288.3V262.71L506.68,271Z"/></svg>