<svg xmlns="http://www.w3.org/2000/svg" viewBox="0 0 50 50"><defs><style>.cls-1{fill:#353942;}.cls-2{fill:#5b616b;}</style></defs><g id="Layer_2" data-name="Layer 2"><g id="Layer_151" data-name="Layer 151"><g id="MPR"><path class="cls-1" d="M25,50A25,25,0,1,1,50,25,25,25,0,0,1,25,50Z"/><path class="cls-2" d="M20.3,33.84a1.07,1.07,0,0,1-.25,0l-2.42-.66a1,1,0,0,1-.7-.92V25.91a1,1,0,1,1,1.9,0V31.5l1.72.47a1,1,0,0,1-.25,1.87Z"/><path class="cls-2" d="M32,37a1.09,1.09,0,0,1-.25,0l-7-1.9a.95.95,0,1,1,.5-1.83l5.77,1.57V18.35L18.83,15V21.9a.95.95,0,1,1-1.9,0V13.76a.94.94,0,0,1,1.2-.91L32.28,16.7a1,1,0,0,1,.71.92V36.08a1,1,0,0,1-1,1Z"/><path class="cls-2" d="M20.3,37.86a1,1,0,0,1-.48-.13,1,1,0,0,1-.47-.83V18.44a1,1,0,0,1,.48-.83l9.36-5.34a1,1,0,0,1,.95,0,1,1,0,0,1,.47.83V17a1,1,0,1,1-1.9,0V14.74L21.25,19V35.26l3.34-1.9A.95.95,0,1,1,25.53,35l-4.76,2.72A.9.9,0,0,1,20.3,37.86Z"/><path class="cls-2" d="M27.33,29.42a1.07,1.07,0,0,1-.25,0L12.85,25.53a1,1,0,0,1-.22-1.75l4.78-2.71a1,1,0,1,1,.94,1.66L15.58,24.3l12,3.25a.94.94,0,0,1,.67,1.16A1,1,0,0,1,27.33,29.42Z"/><path class="cls-2" d="M27.33,29.42a1,1,0,0,1-.83-.48,1,1,0,0,1,.36-1.3l7.56-4.28-2.64-.72a1,1,0,1,1,.5-1.84l4.87,1.32a1,1,0,0,1,.22,1.75L27.8,29.29A.9.9,0,0,1,27.33,29.42Z"/><path class="cls-2" d="M20.28,27.56a.93.93,0,0,1-.83-.48,1,1,0,0,1,.35-1.3l4.79-2.71a1,1,0,1,1,.94,1.66l-4.79,2.71A.86.86,0,0,1,20.28,27.56Z"/><path class="cls-2" d="M20.3,23.51a1.09,1.09,0,0,1-.25,0l-2.42-.65A1,1,0,0,1,17,21.65,1,1,0,0,1,18.13,21l2.42.65a1,1,0,0,1-.25,1.88Z"/><path class="cls-2" d="M32,26.74l-.25,0-7-1.89a1,1,0,0,1,.5-1.84l7,1.89A1,1,0,0,1,32,26.74Z"/><path class="cls-2" d="M25.06,35.14a1,1,0,0,1-.95-1V27.87a.95.95,0,1,1,1.9,0v6.31A1,1,0,0,1,25.06,35.14Z"/><path class="cls-2" d="M25.06,24.85a1,1,0,0,1-.95-1V15.72a1,1,0,0,1,1.9,0V23.9A.94.94,0,0,1,25.06,24.85Z"/></g></g></g></svg>