<svg xmlns="http://www.w3.org/2000/svg" viewBox="0 0 50 50"><defs><style>.cls-1{fill:#353942;}.cls-2{fill:#5b616b;}</style></defs><g id="Layer_2" data-name="Layer 2"><g id="Layer_151" data-name="Layer 151"><g id="MPRVolume"><path class="cls-1" d="M25,50A25,25,0,1,1,50,25,25,25,0,0,1,25,50Z"/><path class="cls-2" d="M24.85,37.86a1,1,0,0,1-.48-.13,1,1,0,0,1-.47-.84L24,27.24a.92.92,0,0,1,.47-.81l12-6.9a1,1,0,0,1,1,0,.94.94,0,0,1,.48.82V30a1,1,0,0,1-.48.82l-12.05,6.9A.91.91,0,0,1,24.85,37.86ZM25.91,27.8l-.09,7.45L36,29.46V22Z"/><path class="cls-2" d="M24.85,37.86a1,1,0,0,1-.5-.14L12.59,30.46a1,1,0,0,1-.45-.81V20a1,1,0,0,1,.49-.83.94.94,0,0,1,1,0l11.87,7.26a.94.94,0,0,1,.45.82l-.1,9.65a1,1,0,0,1-.5.83A.93.93,0,0,1,24.85,37.86Zm-10.8-8.75,9.87,6.1L24,27.78l-9.95-6.09Z"/><path class="cls-2" d="M25,28.2a.9.9,0,0,1-.5-.14L12.6,20.8a.94.94,0,0,1-.46-.82,1,1,0,0,1,.48-.81l11.94-6.9a1,1,0,0,1,1,0L37.4,19.54a1,1,0,0,1,0,1.64l-11.94,6.9A1,1,0,0,1,25,28.2ZM15,20l10,6.12L35,20.33,25,14.2Z"/><path class="cls-2" d="M18.09,25.48v.89L16.9,27a2.87,2.87,0,0,1,1.25,2.23c0,1-.64,1.4-1.69.8a4.7,4.7,0,0,1-1.81-2l.71-.36A3,3,0,0,0,16.48,29c.39.23.66.13.66-.27a1.53,1.53,0,0,0-.91-1.23l-.43-.24-.15-.85,1.12-.64-1.84-1.06v-1Z"/><path class="cls-2" d="M20.94,27.13a5.06,5.06,0,0,1,2.47,4.09v0c0,1.51-1,2.1-2.49,1.25L19.1,31.44V26.07Zm1.39,3.51v0a2.89,2.89,0,0,0-1.4-2.43l-.79-.46V31l.79.46c.84.49,1.41.17,1.41-.78"/><path class="cls-2" d="M29,17.87a1.27,1.27,0,0,1,1.13.13l1.75,1-.79.45-1.73-1a.57.57,0,0,0-.66,0l-.36.2,2.06,1.2-.79.45-5.14-3,1.31-.75a1.78,1.78,0,0,1,1.91,0l1,.56C29.15,17.42,29.21,17.64,29,17.87Zm-1-.17L27,17.07a.51.51,0,0,0-.58,0l-.39.22,1.7,1,.36-.2c.22-.13.21-.25,0-.37"/><polygon class="cls-2" points="23.5 22.25 20.27 19.79 21.45 19.11 26.59 22.09 25.81 22.54 21.91 20.27 25.24 22.87 24.47 23.32 19.95 21.34 23.9 23.64 23.22 24.04 18.08 21.05 19.26 20.37 23.5 22.25"/><path class="cls-2" d="M23.16,18.12a1.8,1.8,0,0,1,1.92,0l1.36.8c.64.36.64.73,0,1.1l-.45.26,1.86,1.08-.79.46-5.14-3Zm2.46,1.23-1.3-.75a.53.53,0,0,0-.59,0l-.33.18,1.9,1.1.32-.18c.2-.12.2-.23,0-.35"/></g></g></g></svg>