<svg id="Layer_1" data-name="Layer 1" xmlns="http://www.w3.org/2000/svg" xmlns:xlink="http://www.w3.org/1999/xlink" viewBox="0 0 612 612"><defs><style>.cls-1,.cls-2,.cls-3,.cls-4{stroke:#232323;stroke-miterlimit:10;stroke-width:1.31px;}.cls-1{fill:url(#linear-gradient);}.cls-2{fill:url(#linear-gradient-2);}.cls-3{fill:url(#linear-gradient-3);}.cls-4{fill:url(#linear-gradient-4);}</style><linearGradient id="linear-gradient" x1="306" y1="33.2" x2="306" y2="578.8" gradientUnits="userSpaceOnUse"><stop offset="0" stop-color="#fafafa"/><stop offset="1" stop-color="#ebebeb"/></linearGradient><linearGradient id="linear-gradient-2" x1="304.2" y1="65.2" x2="304.2" y2="289.22" xlink:href="#linear-gradient"/><linearGradient id="linear-gradient-3" x1="191.03" y1="203.95" x2="191.03" y2="538.01" xlink:href="#linear-gradient"/><linearGradient id="linear-gradient-4" x1="417.38" y1="204.67" x2="417.38" y2="538.72" xlink:href="#linear-gradient"/></defs><path class="cls-1" d="M547.43,175.85a19.26,19.26,0,0,0-.37-3.43,7.94,7.94,0,0,0-1.07-2.75,13.87,13.87,0,0,0-5.56-5.57L311.56,35.22a15.08,15.08,0,0,0-15.07,0L70.85,164.46h0A26.57,26.57,0,0,0,68.57,166c-2.29,1.86-4,4.5-4,7.19,0,1.44,0,2.85,0,4.19V434.61a14.87,14.87,0,0,0,7.54,12.93L299.18,576.78a15.1,15.1,0,0,0,15.08,0h0L539.89,447.54a14.8,14.8,0,0,0,7.54-12.75v-257h0ZM289.49,538,92.57,426.71V204L289.13,316ZM304.2,289.22,158.63,206.29l-51-29.08L304.2,65.2l196.56,112ZM515.12,426.71l-195.48,112V316.14L514,204.67h0Z"/><polygon class="cls-2" points="107.65 177.21 304.2 65.2 500.76 177.21 304.2 289.22 107.65 177.21"/><polygon class="cls-3" points="92.57 203.95 289.13 315.96 289.49 538.01 92.57 426.71 92.57 203.95"/><polygon class="cls-4" points="319.64 316.14 514.04 204.67 515.12 426.71 319.64 538.72 319.64 316.14"/></svg>