<svg xmlns="http://www.w3.org/2000/svg" viewBox="0 0 50 50"><defs><style>.cls-1{fill:#353942;}.cls-2{fill:#5b616b;}</style></defs><g id="Layer_2" data-name="Layer 2"><g id="Layer_151" data-name="Layer 151"><g id="NewTemplate"><path class="cls-1" d="M25,50A25,25,0,1,1,50,25,25,25,0,0,1,25,50Z"/><path class="cls-2" d="M36.9,21H13.1a1,1,0,0,1-1-.95V13.1a1,1,0,0,1,1-1H36.9a1,1,0,0,1,1,1V20A1,1,0,0,1,36.9,21Zm-22.85-1.9H36v-5H14.05Z"/><path class="cls-2" d="M22.3,37.86H13.1a1,1,0,0,1-1-1V20a1,1,0,0,1,1-.95h9.2a.94.94,0,0,1,.95.95V36.9A1,1,0,0,1,22.3,37.86ZM14.05,36h7.3V21h-7.3Z"/><path class="cls-2" d="M36.9,37.86H22.3a1,1,0,0,1-.95-1V20a1,1,0,0,1,.95-.95H36.9a1,1,0,0,1,1,.95V36.9A1,1,0,0,1,36.9,37.86ZM23.25,36H36V21H23.25Z"/></g></g></g></svg>