<svg xmlns="http://www.w3.org/2000/svg" viewBox="0 0 50 50"><defs><style>.cls-1{fill:#353942;}.cls-2{fill:#5b616b;}</style></defs><g id="Layer_2" data-name="Layer 2"><g id="Layer_151" data-name="Layer 151"><g id="NextImage"><path class="cls-1" d="M25,50A25,25,0,1,1,50,25,25,25,0,0,1,25,50Z"/><path class="cls-2" d="M32.15,30.71a.91.91,0,0,1-.67-.28.94.94,0,0,1,0-1.35L35.56,25l-4.08-4.08a1,1,0,1,1,1.34-1.35l4.76,4.76a.94.94,0,0,1,0,1.34l-4.76,4.76A.92.92,0,0,1,32.15,30.71Z"/><path class="cls-2" d="M36.9,26H21.67a1,1,0,1,1,0-1.9H36.9a1,1,0,1,1,0,1.9Z"/><path class="cls-2" d="M30.24,37.86H13.1a1,1,0,0,1-1-1V13.1a1,1,0,0,1,1-1H30.24a1,1,0,0,1,0,1.91H14.05V36H30.24a1,1,0,0,1,0,1.91Z"/></g></g></g></svg>