<svg xmlns="http://www.w3.org/2000/svg" viewBox="0 0 50 50"><defs><style>.cls-1{fill:#353942;}.cls-2{fill:#5b616b;}</style></defs><g id="Layer_2" data-name="Layer 2"><g id="Layer_151" data-name="Layer 151"><g id="NextPoint"><path class="cls-1" d="M25,50A25,25,0,1,1,50,25,25,25,0,0,1,25,50Z"/><path class="cls-2" d="M33.57,29.29A4.29,4.29,0,1,1,37.86,25,4.29,4.29,0,0,1,33.57,29.29Zm0-6.67A2.38,2.38,0,1,0,36,25,2.39,2.39,0,0,0,33.57,22.62Z"/><path class="cls-2" d="M26.24,26H13.1a1,1,0,1,1,0-1.9H26.24a.95.95,0,0,1,0,1.9Z"/><path class="cls-2" d="M22.82,29.38a1,1,0,0,1-.68-.28,1,1,0,0,1,0-1.35L24.89,25l-2.75-2.75a1,1,0,1,1,1.35-1.35l3.42,3.43a.94.94,0,0,1,0,1.34L23.49,29.1A1,1,0,0,1,22.82,29.38Z"/><path class="cls-2" d="M34.52,37.86h-19a3.35,3.35,0,0,1-3.34-3.34V30.24a1,1,0,0,1,1.91,0v4.28A1.43,1.43,0,0,0,15.48,36h19A1.43,1.43,0,0,0,36,34.52v-1.9a1,1,0,0,1,1.91,0v1.9A3.35,3.35,0,0,1,34.52,37.86Z"/><path class="cls-2" d="M13.1,20.71a1,1,0,0,1-1-.95V15.48a3.35,3.35,0,0,1,3.34-3.34h19a3.35,3.35,0,0,1,3.34,3.34v1.9a1,1,0,0,1-1.91,0v-1.9a1.43,1.43,0,0,0-1.43-1.43h-19a1.43,1.43,0,0,0-1.43,1.43v4.28A1,1,0,0,1,13.1,20.71Z"/></g></g></g></svg>