<svg id="Layer_1" data-name="Layer 1" xmlns="http://www.w3.org/2000/svg" xmlns:xlink="http://www.w3.org/1999/xlink" viewBox="0 0 612 612"><defs><style>.cls-1,.cls-2,.cls-3{stroke:#232323;stroke-miterlimit:10;stroke-width:1.31px;}.cls-1{fill:url(#linear-gradient);}.cls-2{fill:url(#linear-gradient-2);}.cls-3{fill:url(#linear-gradient-3);}</style><linearGradient id="linear-gradient" x1="374.97" y1="180.3" x2="374.97" y2="423.96" gradientUnits="userSpaceOnUse"><stop offset="0" stop-color="#fafafa"/><stop offset="1" stop-color="#ebebeb"/></linearGradient><linearGradient id="linear-gradient-2" x1="232.52" y1="31.61" x2="232.52" y2="580.39" xlink:href="#linear-gradient"/><linearGradient id="linear-gradient-3" x1="562.88" y1="110.21" x2="562.88" y2="504.38" gradientTransform="translate(255.58 870.17) rotate(-90)" xlink:href="#linear-gradient"/></defs><path class="cls-1" d="M516.72,298.11a17.26,17.26,0,0,0-.79-2.59c-.14-.4-.2-.81-.36-1.2a21.53,21.53,0,0,0-1.41-2.64,8.76,8.76,0,0,0-.47-.85,20.86,20.86,0,0,0-2.52-3.09L409.69,186.26A20.32,20.32,0,0,0,381,215l66.81,66.81-194.6-.69a20.33,20.33,0,1,0,0,40.65l194.58.69-66.81,66.81A20.32,20.32,0,0,0,409.67,418L511.16,316.53a20.24,20.24,0,0,0,2.52-3.09c.18-.27.3-.57.46-.86a20.17,20.17,0,0,0,1.41-2.64c.16-.39.24-.81.37-1.2a24.84,24.84,0,0,0,.79-2.58,20.76,20.76,0,0,0,.4-4A20,20,0,0,0,516.72,298.11Z"/><path class="cls-2" d="M415.45,539.74H69.92V72.26H415.45a20.33,20.33,0,0,0,0-40.65H49.59A20.33,20.33,0,0,0,29.27,51.94V560.06a20.33,20.33,0,0,0,20.32,20.33H415.45a20.33,20.33,0,0,0,0-40.65Z"/><rect class="cls-3" x="365.79" y="287.7" width="394.17" height="39.19" rx="19.59" transform="translate(870.17 -255.58) rotate(90)"/></svg>