<svg xmlns="http://www.w3.org/2000/svg" viewBox="0 0 50 50"><defs><style>.cls-1{fill:#353942;}.cls-2{fill:#5b616b;}</style></defs><g id="Layer_2" data-name="Layer 2"><g id="Layer_151" data-name="Layer 151"><g id="Note"><path class="cls-1" d="M25,50A25,25,0,1,1,50,25,25,25,0,0,1,25,50Z"/><path class="cls-2" d="M25.63,19.82H18a1,1,0,1,1,0-1.9h7.61a1,1,0,1,1,0,1.9Z"/><path class="cls-2" d="M25.63,25H18a1,1,0,1,1,0-1.9h7.61a1,1,0,1,1,0,1.9Z"/><path class="cls-2" d="M33.57,37.86H16.43a4.3,4.3,0,0,1-4.29-4.29V13.1a1,1,0,0,1,1-1H30.56a1,1,0,0,1,1,1v11a1,1,0,0,1-1.91,0v-10H14.05V33.57a2.38,2.38,0,1,0,4.76,0V29.76a1.43,1.43,0,0,1,1.43-1.43H36.43a1.43,1.43,0,0,1,1.43,1.43v3.81A4.3,4.3,0,0,1,33.57,37.86ZM20,36H33.57A2.39,2.39,0,0,0,36,33.57V30.24H20.71v3.33A4.23,4.23,0,0,1,20,36Z"/></g></g></g></svg>