<svg xmlns="http://www.w3.org/2000/svg" viewBox="0 0 50 50"><defs><style>.cls-1{fill:#353942;}.cls-2{fill:#5b616b;}</style></defs><g id="Layer_2" data-name="Layer 2"><g id="Layer_151" data-name="Layer 151"><g id="OneToOne"><path class="cls-1" d="M25,50A25,25,0,1,1,50,25,25,25,0,0,1,25,50Z"/><path class="cls-2" d="M13.1,37.86a1,1,0,0,1-1-1V13.1a1,1,0,1,1,1.91,0V36.9A1,1,0,0,1,13.1,37.86Z"/><path class="cls-2" d="M36.9,37.86a1,1,0,0,1-.95-1V13.1a1,1,0,1,1,1.91,0V36.9A1,1,0,0,1,36.9,37.86Z"/><path class="cls-2" d="M25.61,22.43H24.39a3.33,3.33,0,0,1-3.33-3.33V17.88a3.33,3.33,0,0,1,3.33-3.33h1.22a3.33,3.33,0,0,1,3.33,3.33V19.1A3.33,3.33,0,0,1,25.61,22.43Zm-1.22-6A1.43,1.43,0,0,0,23,17.88V19.1a1.43,1.43,0,0,0,1.43,1.43h1.22A1.43,1.43,0,0,0,27,19.1V17.88a1.43,1.43,0,0,0-1.43-1.43Z"/><path class="cls-2" d="M25.61,35.45H24.39a3.33,3.33,0,0,1-3.33-3.33V30.9a3.33,3.33,0,0,1,3.33-3.33h1.22a3.33,3.33,0,0,1,3.33,3.33v1.22A3.33,3.33,0,0,1,25.61,35.45Zm-1.22-6A1.43,1.43,0,0,0,23,30.9v1.22a1.43,1.43,0,0,0,1.43,1.43h1.22A1.43,1.43,0,0,0,27,32.12V30.9a1.43,1.43,0,0,0-1.43-1.43Z"/></g></g></g></svg>