<svg id="Layer_1" data-name="Layer 1" xmlns="http://www.w3.org/2000/svg" xmlns:xlink="http://www.w3.org/1999/xlink" viewBox="0 0 612 612"><defs><style>.cls-1{stroke:#232323;stroke-miterlimit:10;stroke-width:1.31px;fill:url(#linear-gradient);}</style><linearGradient id="linear-gradient" x1="307.99" y1="30.05" x2="307.99" y2="582.07" gradientUnits="userSpaceOnUse"><stop offset="0" stop-color="#fafafa"/><stop offset="1" stop-color="#ebebeb"/></linearGradient></defs><path id="OneToOne" class="cls-1" d="M49.84,30.05A20.56,20.56,0,0,0,29.19,50.5V561.63a20.65,20.65,0,0,0,41.3,0V50.5A20.56,20.56,0,0,0,49.84,30.05Zm516.3,0A20.57,20.57,0,0,0,545.48,50.5V561.63a20.66,20.66,0,0,0,41.31,0V50.5A20.56,20.56,0,0,0,566.14,30.05Zm-245,51.65H294.79c-39.86,0-72.28,32.09-72.28,71.55v26.13c0,39.46,32.42,71.56,72.28,71.56h26.39c39.86,0,72.29-32.1,72.29-71.56V153.25C393.47,113.79,361,81.7,321.18,81.7Zm31,97.68a30.86,30.86,0,0,1-31,30.67h-26.4a30.86,30.86,0,0,1-31-30.67V153.25a30.86,30.86,0,0,1,31-30.66h26.4a30.86,30.86,0,0,1,31,30.66Zm-31,181.8H294.79c-39.86,0-72.28,32.1-72.28,71.56v26.13c0,39.46,32.42,71.56,72.28,71.56h26.39c39.86,0,72.29-32.1,72.29-71.56V432.74C393.47,393.28,361,361.18,321.18,361.18Zm31,97.69a30.87,30.87,0,0,1-31,30.67h-26.4a30.86,30.86,0,0,1-31-30.67V432.74a30.86,30.86,0,0,1,31-30.67h26.4a30.86,30.86,0,0,1,31,30.67Z"/></svg>