<svg xmlns="http://www.w3.org/2000/svg" viewBox="0 0 50 50"><defs><style>.cls-1{fill:#353942;}.cls-2{fill:#5b616b;}</style></defs><g id="Layer_2" data-name="Layer 2"><g id="Layer_151" data-name="Layer 151"><g id="Pan"><path class="cls-1" d="M25,50A25,25,0,1,1,50,25,25,25,0,0,1,25,50Z"/><path class="cls-2" d="M35,36.21H23.89a1,1,0,0,1-.95-1v-.95A2.91,2.91,0,0,0,22.51,33,10.58,10.58,0,0,1,20,30.84c-.82-1-2.28-3.07-3.07-4.21a1.48,1.48,0,0,1,.23-2l.73-.62a2.45,2.45,0,0,1,3.34.09l.61.57-1-7.43a2.4,2.4,0,0,1,1.86-2.65,2.3,2.3,0,0,1,2.71,1.73l.15.56V14.78a2.63,2.63,0,0,1,2.62-2.64h0a2.64,2.64,0,0,1,2.63,2.64v1.15a2.6,2.6,0,0,1,.36-.3,2.2,2.2,0,0,1,1.69-.31,2.42,2.42,0,0,1,1.89,2.59l-.08.81a2,2,0,0,1,1.73-.4,2,2,0,0,1,1.53,2.21c-.18,1.68-.56,4.87-.82,7-.1.87-.18,1.58-.23,2a12.6,12.6,0,0,1-.35,1.77,14.37,14.37,0,0,0-.51,4A1,1,0,0,1,35,36.21Zm-10.15-1.9h9.21a16.77,16.77,0,0,1,.55-3.54,11.56,11.56,0,0,0,.31-1.51c.05-.39.13-1.1.23-2,.25-2.11.63-5.29.81-7,0-.07,0-.15-.08-.16a.08.08,0,0,0-.09.06s0,0,0,.05L34.25,24a1.07,1.07,0,0,1-2.06-.48l.59-5.76a.53.53,0,0,0-.41-.55.31.31,0,0,0-.38.25l-1.1,4.79a1,1,0,0,1-1.13.81A1.06,1.06,0,0,1,28.82,22v-7.2a.73.73,0,0,0-.73-.73h0a.67.67,0,0,0-.5.21.73.73,0,0,0-.22.52l0,8.89a1.07,1.07,0,0,1-.94,1.06,1.05,1.05,0,0,1-1.15-.82l-1.83-7.13a.38.38,0,0,0-.46-.31.48.48,0,0,0-.37.53L24,26.54a1,1,0,0,1,0,.24l.19,1.38a1,1,0,0,1-.81,1.08,1,1,0,0,1-1.08-.82l-.14-1a15.88,15.88,0,0,1-2.31-1.93.57.57,0,0,0-.78,0l-.44.38c.72,1,2.05,2.9,2.79,3.8a9,9,0,0,0,2.12,1.72C24.53,32,24.84,33.73,24.84,34.31Zm2.31-10.89v0ZM29,21.77a.08.08,0,0,0,0,0Z"/><path class="cls-2" d="M36.11,37.86a1,1,0,0,1-1-1v-.21a.47.47,0,0,0-.47-.48H24.18a.47.47,0,0,0-.47.48v.21a1,1,0,1,1-1.9,0v-.21a2.37,2.37,0,0,1,2.37-2.38H34.69a2.38,2.38,0,0,1,2.38,2.38v.21A1,1,0,0,1,36.11,37.86Z"/><path class="cls-2" d="M14.86,28.78a1,1,0,0,1-.77-.39,10.24,10.24,0,0,1,8.29-16.25,1,1,0,0,1,0,1.91,8.34,8.34,0,0,0-6.75,13.22,1,1,0,0,1-.21,1.33A1,1,0,0,1,14.86,28.78Z"/><path class="cls-2" d="M16.65,23.12h-.14A1,1,0,0,1,15.7,22a8.06,8.06,0,0,1,2.06-4.3A1,1,0,1,1,19.16,19a6.11,6.11,0,0,0-1.57,3.28A1,1,0,0,1,16.65,23.12Z"/></g></g></g></svg>