<svg id="Layer_1" data-name="Layer 1" xmlns="http://www.w3.org/2000/svg" xmlns:xlink="http://www.w3.org/1999/xlink" viewBox="0 0 612 612"><defs><style>.cls-1,.cls-2,.cls-3{stroke:#232323;stroke-miterlimit:10;stroke-width:1.31px;}.cls-1{fill:url(#linear-gradient);}.cls-2{fill:url(#linear-gradient-2);}.cls-3{fill:url(#linear-gradient-3);}</style><linearGradient id="linear-gradient" x1="382.35" y1="45.67" x2="382.35" y2="566.33" gradientUnits="userSpaceOnUse"><stop offset="0" stop-color="#fafafa"/><stop offset="1" stop-color="#ebebeb"/></linearGradient><linearGradient id="linear-gradient-2" x1="112.51" y1="87.36" x2="112.51" y2="491.9" xlink:href="#linear-gradient"/><linearGradient id="linear-gradient-3" x1="125.83" y1="222.28" x2="125.83" y2="357.93" xlink:href="#linear-gradient"/></defs><path class="cls-1" d="M562.9,386c-2.4,22.29-4.38,40.5-5.42,50.54-1.44,13.68-2.25,21.81-5.34,35.42-5.57,20.52-6.45,25.78-28.09,52.6-5.84,7.23-35.65,36.51-72.06,41.77H336.27c-7.43,0-13.82-5.85-15-13.86-2.83-19.67-11.12-49.56-28.91-61.79-22-15.13-39.58-30.87-49.56-44.35-14.72-19.9-39.84-58.48-57.19-85.55a17.48,17.48,0,0,1,2.48-21.8h0a12.51,12.51,0,0,1,18.15.41c22.45,23.85,37.74,37.6,48.5,45.72a16.65,16.65,0,0,1,6.37,11.28l2.36,18.79c1.69,13.38,12.85,22.68,25.07,20.9s20.65-14.22,19-27.61L303,372.81a27.27,27.27,0,0,0-.76-6.07l-30.84-245.2c-.76-6.34,3-12.34,8.64-13.68,4.76-1.13,9.49,2.25,10.74,8l42.66,183.3c2.85,13.48,14.32,22.47,26.92,20.9s21.94-13.24,21.94-27.19l-.72-228.46a19.78,19.78,0,0,1,5-13.37,15.83,15.83,0,0,1,11.78-5.4h0c9.36,0,17,8.46,17,18.87V249.65c0,13.87,9.47,25.4,22,26.78s23.87-7.84,26.27-20.81l25.71-122.94a8.32,8.32,0,0,1,3.29-5.36,6.63,6.63,0,0,1,5.62-1.13c5.92,1.42,9.94,7.59,9.42,14L494,288.32c-1.16,13.78,7.25,26.41,19.51,29.35,12,2.89,24.09-4.36,28.52-16.89l33-96.7c.16-.42.32-.85.45-1.27.31-1,3-1.59,3.9-1.37,1.2.32,2.63,3.81,2.45,5.7C577.59,250.06,568.75,331.86,562.9,386Z"/><path class="cls-2" d="M73.34,352.83C48.41,250.69,97,150.79,181.66,130.13c9.69-2.36,15.23-13.76,12.38-25.45s-13-19.25-22.71-16.89C67.33,113.18,7.62,235.93,38.25,361.4c11.8,48.35,35.47,91.49,68.47,124.8,4.84,4.87,10.93,6.6,16.35,5.27a16.07,16.07,0,0,0,9.32-6.53c6.16-8.8,4.67-22.45-3.32-30.53C102.2,427.3,82.94,392.19,73.34,352.83Z"/><path class="cls-3" d="M138.17,335.17c-3.35-28.14.51-55.81,11.17-80.06,4.49-10.2.78-23.48-8.26-29.68s-20-3-24.51,7.22c-14,31.71-19,68-14.63,104.84,1.42,11.9,10.68,21,20.67,20.41a15.9,15.9,0,0,0,2.62-.39C133.81,355.41,139.46,346,138.17,335.17Z"/></svg>