<svg xmlns="http://www.w3.org/2000/svg" viewBox="0 0 50 50"><defs><style>.cls-1{fill:#353942;}.cls-2{fill:#5b616b;}</style></defs><g id="Layer_2" data-name="Layer 2"><g id="Layer_151" data-name="Layer 151"><g id="Panoramic"><path class="cls-1" d="M25,50A25,25,0,1,1,50,25,25,25,0,0,1,25,50Z"/><path class="cls-2" d="M37.86,29.42a3.9,3.9,0,0,0-.57-2.3,2.27,2.27,0,0,0,.35-.87c0-.33.5-3.28-.69-4.47a1.92,1.92,0,0,0-.46-.33,2.42,2.42,0,0,0,0-.86s-.54-3.53-2.41-4l-.35-.06a2.48,2.48,0,0,0-.53-1.13l-.16-.19a3.59,3.59,0,0,0-2.36-1.66,2,2,0,0,0-.68.08,1.58,1.58,0,0,0-.2-.39,3.46,3.46,0,0,0-2.79-1.1A3.77,3.77,0,0,0,25,12.6a3.77,3.77,0,0,0-2.06-.46,3.46,3.46,0,0,0-2.79,1.1,1.42,1.42,0,0,0-.2.39,2,2,0,0,0-.68-.08,3.59,3.59,0,0,0-2.36,1.66l-.16.19a2.48,2.48,0,0,0-.53,1.13l-.35.06c-1.87.47-2.4,4-2.41,4a2.35,2.35,0,0,0,0,.85,2.29,2.29,0,0,0-.46.34c-1.19,1.19-.74,4.14-.69,4.47a2.27,2.27,0,0,0,.35.87,3.9,3.9,0,0,0-.57,2.3A5.23,5.23,0,0,0,12.67,32a4,4,0,0,0-.53,2.23c0,3.13,1.36,3.6,2.17,3.6H15.4c1.88,0,1.88-2.45,1.88-3.38a4.52,4.52,0,0,0-.47-2.27,5.42,5.42,0,0,0,.47-2.57,4.25,4.25,0,0,0-.56-2.41,6.39,6.39,0,0,0,.55-3.8,2.94,2.94,0,0,0-.19-.72,5.51,5.51,0,0,0,1.7-3.4V19.2a5.14,5.14,0,0,0,2.71-2.27,6.11,6.11,0,0,0,.86.07,6.79,6.79,0,0,0,2.14-.35,2.29,2.29,0,0,0,.51-.28,2.29,2.29,0,0,0,.51.28,6.79,6.79,0,0,0,2.14.35,6.11,6.11,0,0,0,.86-.07,5.14,5.14,0,0,0,2.71,2.27v.11a5.51,5.51,0,0,0,1.7,3.4,2.94,2.94,0,0,0-.19.72,6.39,6.39,0,0,0,.55,3.8,4.25,4.25,0,0,0-.56,2.41,5.42,5.42,0,0,0,.47,2.57,4.52,4.52,0,0,0-.47,2.27c0,.93,0,3.38,1.88,3.38h1.09c.81,0,2.17-.47,2.17-3.6A4,4,0,0,0,37.33,32,5.23,5.23,0,0,0,37.86,29.42Zm-3.25-5.73a.66.66,0,0,1,.46-.58l.07,0h0l.17,0a.41.41,0,0,1,.27.07,5.35,5.35,0,0,1,.16,2.8.5.5,0,0,1-.26.34h0a4.07,4.07,0,0,0-.52,0A4.53,4.53,0,0,1,34.61,23.69Zm.16,7.42a5,5,0,0,1-.15-1.47c0-1.47.25-1.47.84-1.47h.09c.21,0,.4.16.4,1.25a3.11,3.11,0,0,1-.29,1.69Zm-.12-10.26a.63.63,0,0,1-.23.47l-.1,0a3.15,3.15,0,0,1-1.2-2.2.78.78,0,0,1,.21-.65.35.35,0,0,1,.23-.09h.08A4.7,4.7,0,0,1,34.65,20.85ZM16.34,18.44l.1,0a.33.33,0,0,1,.23.09.78.78,0,0,1,.21.65,3.15,3.15,0,0,1-1.2,2.2l-.1,0a.63.63,0,0,1-.23-.47A4.81,4.81,0,0,1,16.34,18.44Zm-2,12.67a3.11,3.11,0,0,1-.29-1.69c0-1.25.25-1.25.49-1.25.59,0,.84,0,.84,1.47a5,5,0,0,1-.15,1.47Zm.2-4.85h0a.48.48,0,0,1-.26-.34,5.5,5.5,0,0,1,.15-2.8.48.48,0,0,1,.28-.07,1,1,0,0,1,.26.05.66.66,0,0,1,.46.58,4.53,4.53,0,0,1-.33,2.61A4.07,4.07,0,0,0,14.54,26.26ZM15.23,36h-.89a3.11,3.11,0,0,1-.29-1.69c0-1.25.25-1.25.49-1.25.59,0,.84,0,.84,1.47A4.91,4.91,0,0,1,15.23,36Zm3-18.57a.8.8,0,0,0-.15-.17,1,1,0,0,1,.15-.59l.17-.2c.28-.33.79-1,1-1h0a.31.31,0,0,1,.2.09.72.72,0,0,1,.19.53C19.76,16.36,19,17,18.21,17.38ZM24,14.7a.26.26,0,0,1-.17.17,4.48,4.48,0,0,1-2.14.15,4,4,0,0,1,0-.68,2.08,2.08,0,0,1,1.22-.29c.71,0,1,.09,1,.18A.67.67,0,0,1,24,14.7Zm2.19.17A.26.26,0,0,1,26,14.7a.67.67,0,0,1,0-.47c0-.09.34-.18,1-.18a2.08,2.08,0,0,1,1.22.29,4,4,0,0,1,0,.68A4.48,4.48,0,0,1,26.18,14.87Zm4,1.21a.73.73,0,0,1,.19-.54.29.29,0,0,1,.2-.09h0c.22,0,.73.64,1,1l.17.2a.88.88,0,0,1,.14.59,2.09,2.09,0,0,0-.14.17C31,17,30.24,16.36,30.21,16.08ZM35.66,36h-.89a4.91,4.91,0,0,1-.15-1.47c0-1.47.25-1.47.84-1.47.24,0,.49,0,.49,1.25A3.11,3.11,0,0,1,35.66,36Z"/></g></g></g></svg>