<svg xmlns="http://www.w3.org/2000/svg" xmlns:xlink="http://www.w3.org/1999/xlink" viewBox="0 0 612 612"><defs><style>.cls-1{stroke:#232323;stroke-miterlimit:10;stroke-width:1.31px;fill:url(#linear-gradient);}</style><linearGradient id="linear-gradient" x1="306" y1="33.53" x2="306" y2="578.47" gradientUnits="userSpaceOnUse"><stop offset="0" stop-color="#fafafa"/><stop offset="1" stop-color="#ebebeb"/></linearGradient></defs><g id="Layer_2" data-name="Layer 2"><path class="cls-1" d="M282.79,444.69a16.11,16.11,0,0,0-17,15,15.9,15.9,0,0,0,14.75,17l.28,0h26.8c152.53,0,273.89-74.08,273.89-168.65S461.25,140.29,307.63,140.29a439.17,439.17,0,0,0-99.79,11.12c25.06-53.61,62.53-88.47,103.5-88.47A90.22,90.22,0,0,1,373,90.4l-21.79-2.18a16.12,16.12,0,0,0-5.08,31.84,15.87,15.87,0,0,0,1.81.19l62.54,6.1H412a12.85,12.85,0,0,0,5,0h0l3.26-1.53h1.09l1.09-1.09v-1.09l1.09-1.52v-5.88h0l4.36-62.54a16.12,16.12,0,1,0-32-2.4l-1.74,21.79a122.68,122.68,0,0,0-86.07-38.56c-61.88,0-115,52.73-144,132.69C83.42,195.2,30.48,249,30.48,311.77A120.7,120.7,0,0,0,69,397.19l-21.79,1.74a15.91,15.91,0,0,0-14.84,16.91l0,.3a16.12,16.12,0,0,0,15.9,15h1.31l62.53-4.36h9.37l1.09-1.09h0V422.9a4.37,4.37,0,0,1,0-1.53v-5.44l-6.1-62.54A16.33,16.33,0,0,0,98.89,339a15.92,15.92,0,0,0-14.42,17.27c0,.12,0,.25,0,.38L86.69,380a89.08,89.08,0,0,1-27.45-61.22c0-41.84,35.3-79.75,89.55-105a433.78,433.78,0,0,0-4.57,90.86c0,152.53,73.42,273.89,167.12,273.89,41.83,0,81.49-24.62,112-69.5a16.12,16.12,0,1,0-25.18-20.15,17,17,0,0,0-1.4,2.06,108.94,108.94,0,0,1-85.41,55.35c-73.21,0-134.44-110.91-134.44-241.65a392.09,392.09,0,0,1,17-115.26,387.59,387.59,0,0,1,113.74-16.78c130.74,0,241.65,62.54,241.65,136.4s-110.91,136.4-241.65,136.4Q295.21,445.34,282.79,444.69Zm174.32-55.56h2.61a15.91,15.91,0,0,0,15.91-13.3,431.27,431.27,0,0,0,5-71.25,420.57,420.57,0,0,0-4.79-65.36A16.13,16.13,0,0,0,444,244a384.9,384.9,0,0,1,4.36,59.7,411.26,411.26,0,0,1-5.23,65.37,16.13,16.13,0,0,0,11.47,19.71c.53.14,1.07.25,1.61.34Z"/></g></svg>