<svg xmlns="http://www.w3.org/2000/svg" viewBox="0 0 50 50"><defs><style>.cls-1{fill:#353942;}.cls-2{fill:#5b616b;}</style></defs><g id="Layer_2" data-name="Layer 2"><g id="Layer_151" data-name="Layer 151"><g id="Perio"><path class="cls-1" d="M25,50A25,25,0,1,1,50,25,25,25,0,0,1,25,50Z"/><path class="cls-2" d="M17.06,37.86h0a4.93,4.93,0,0,1-4.92-4.92V15.48a3.35,3.35,0,0,1,3.34-3.34h3.17A3.34,3.34,0,0,1,22,15.48V32.94A4.92,4.92,0,0,1,17.06,37.86ZM15.48,14.05a1.43,1.43,0,0,0-1.43,1.43V32.94a3,3,0,0,0,3,3h0a3,3,0,0,0,3-3V15.48a1.43,1.43,0,0,0-1.43-1.43Z"/><path class="cls-2" d="M25,37.86h0a4.93,4.93,0,0,1-4.92-4.92V15.48a3.34,3.34,0,0,1,3.33-3.34h3.18a3.34,3.34,0,0,1,3.33,3.34V32.94A4.93,4.93,0,0,1,25,37.86ZM23.41,14.05A1.43,1.43,0,0,0,22,15.48V32.94a3,3,0,0,0,3,3h0a3,3,0,0,0,3-3V15.48a1.44,1.44,0,0,0-1.43-1.43Z"/><path class="cls-2" d="M32.94,37.86h0A4.92,4.92,0,0,1,28,32.94V15.48a3.34,3.34,0,0,1,3.33-3.34h3.17a3.35,3.35,0,0,1,3.34,3.34V32.94A4.93,4.93,0,0,1,32.94,37.86ZM31.35,14.05a1.43,1.43,0,0,0-1.43,1.43V32.94a3,3,0,0,0,3,3h0a3,3,0,0,0,3-3V15.48a1.43,1.43,0,0,0-1.43-1.43Z"/></g></g></g></svg>