<svg id="Layer_1" data-name="Layer 1" xmlns="http://www.w3.org/2000/svg" xmlns:xlink="http://www.w3.org/1999/xlink" viewBox="0 0 612 612"><defs><style>.cls-1{stroke:#232323;stroke-miterlimit:10;stroke-width:1.31px;fill:url(#linear-gradient);}</style><linearGradient id="linear-gradient" x1="306" y1="32.71" x2="306" y2="579.29" gradientUnits="userSpaceOnUse"><stop offset="0" stop-color="#fafafa"/><stop offset="1" stop-color="#ebebeb"/></linearGradient></defs><path id="PolyRuler" class="cls-1" d="M557.18,32.71H54.87A20.18,20.18,0,0,0,34.77,53v506.1a20.18,20.18,0,0,0,20.1,20.24H224.81a20.18,20.18,0,0,0,20.1-20.24V244.42H557.29a20.15,20.15,0,0,0,19.81-17.74h0a.12.12,0,0,1,0-.08v-.1a.38.38,0,0,1,0-.18v0a.55.55,0,0,1,0-.18v-.25h0c0-.54.06-1.09.06-1.66V53A20.11,20.11,0,0,0,557.18,32.71Zm-20.09,171.2h-49V165.69a20.1,20.1,0,1,0-40.19,0v38.22H407V126.68a20.1,20.1,0,1,0-40.19,0v77.23H326V165.69a20.09,20.09,0,1,0-40.18,0v38.22H244.88V126.68a20.1,20.1,0,1,0-40.19,0v77.23H128a20.25,20.25,0,0,0,0,40.49h76.65v41.19H166.76a20.25,20.25,0,0,0,0,40.49h37.93v41.2H128a20.24,20.24,0,0,0,0,40.48h76.65V449H166.76a20.25,20.25,0,0,0,0,40.49h37.93V538.8H74.93V73.19H537.07V203.91Z"/></svg>