<svg xmlns="http://www.w3.org/2000/svg" viewBox="0 0 50 50"><defs><style>.cls-1{fill:#353942;}.cls-2{fill:#5b616b;}</style></defs><g id="Layer_2" data-name="Layer 2"><g id="Layer_151" data-name="Layer 151"><g id="PolyRuler"><path class="cls-1" d="M25,50A25,25,0,1,1,50,25,25,25,0,0,1,25,50Z"/><path class="cls-2" d="M36.29,37.86H13.71a1.58,1.58,0,0,1-1.57-1.58V13.72a1.57,1.57,0,0,1,2.7-1.09L37.39,35.17a1.55,1.55,0,0,1,.34,1.73A1.53,1.53,0,0,1,36.29,37.86Zm-.23-1.33Zm-22-.58H35.48L14.05,14.53Zm-.58-22h0ZM24.55,32.64H18.87a1.57,1.57,0,0,1-1.58-1.57V25.4A1.22,1.22,0,0,1,18,24.28a1.2,1.2,0,0,1,1.32.26l6,6a1.21,1.21,0,0,1-.85,2.06Zm-5.35-1.9h3.67L19.2,27.07Z"/></g></g></g></svg>