<svg xmlns="http://www.w3.org/2000/svg" viewBox="0 0 50 50"><defs><style>.cls-1{fill:#353942;}.cls-2{fill:#5b616b;}</style></defs><g id="Layer_2" data-name="Layer 2"><g id="Layer_151" data-name="Layer 151"><g id="PopupCapture"><path class="cls-1" d="M25,50A25,25,0,1,1,50,25,25,25,0,0,1,25,50Z"/><path class="cls-2" d="M35.48,37.86h-21a2.39,2.39,0,0,1-2.38-2.38V19.29a2.39,2.39,0,0,1,2.38-2.39h2.84l3.05-4.35a1,1,0,0,1,.78-.41h7.62a1,1,0,0,1,.78.41l3.05,4.35h2.84a2.39,2.39,0,0,1,2.38,2.39V35.48A2.39,2.39,0,0,1,35.48,37.86Zm-21-19a.47.47,0,0,0-.47.48V35.48a.47.47,0,0,0,.47.47h21a.47.47,0,0,0,.47-.47V19.29a.47.47,0,0,0-.47-.48H32.14a1,1,0,0,1-.78-.41l-3.05-4.35H21.69L18.64,18.4a1,1,0,0,1-.78.41Z"/><path class="cls-2" d="M25,34.32a6.77,6.77,0,1,1,6.76-6.77A6.77,6.77,0,0,1,25,34.32ZM25,22.7a4.86,4.86,0,1,0,4.86,4.85A4.86,4.86,0,0,0,25,22.7Z"/><circle class="cls-2" cx="25" cy="27.55" r="1.48"/><path class="cls-2" d="M25,30a2.43,2.43,0,1,1,2.43-2.43A2.43,2.43,0,0,1,25,30ZM25,27a.53.53,0,1,0,.52.52A.52.52,0,0,0,25,27Z"/><path class="cls-2" d="M28.1,18.81H21.9a1,1,0,0,1,0-1.91h6.2a1,1,0,0,1,0,1.91Z"/></g></g></g></svg>