<svg id="Layer_1" data-name="Layer 1" xmlns="http://www.w3.org/2000/svg" xmlns:xlink="http://www.w3.org/1999/xlink" viewBox="0 0 612 612"><defs><style>.cls-1{stroke:#232323;stroke-miterlimit:10;stroke-width:1.31px;fill:url(#linear-gradient);}</style><linearGradient id="linear-gradient" x1="306" y1="31.54" x2="306" y2="580.46" gradientUnits="userSpaceOnUse"><stop offset="0" stop-color="#fafafa"/><stop offset="1" stop-color="#ebebeb"/></linearGradient></defs><path id="PreviousImage" class="cls-1" d="M101.43,326.33H377a20.33,20.33,0,0,0,0-40.66H101.43l66.66-66.83a20.3,20.3,0,1,0-28.68-28.74L38.15,291.61a20.47,20.47,0,0,0-2.53,3.11c-.33.48-.55,1-.83,1.54s-.73,1.26-1,1.95-.42,1.37-.63,2.06a17.3,17.3,0,0,0-.5,1.74,20.22,20.22,0,0,0,0,8c.12.6.34,1.15.5,1.74s.37,1.38.63,2.06.67,1.3,1,1.95.5,1.06.83,1.54a20.69,20.69,0,0,0,2.53,3.11L139.41,421.9a20.3,20.3,0,0,0,28.68-28.74ZM559.48,31.54h-365a20.33,20.33,0,0,0,0,40.66H539.2V539.8H194.43a20.33,20.33,0,0,0,0,40.66H559.48a20.31,20.31,0,0,0,20.28-20.32V51.87A20.31,20.31,0,0,0,559.48,31.54Z"/></svg>