<svg xmlns="http://www.w3.org/2000/svg" viewBox="0 0 50 50"><defs><style>.cls-1{fill:#353942;}.cls-2{fill:#5b616b;}</style></defs><g id="Layer_2" data-name="Layer 2"><g id="Layer_151" data-name="Layer 151"><g id="PreviousImage"><path class="cls-1" d="M25,50A25,25,0,1,1,50,25,25,25,0,0,1,25,50Z"/><path class="cls-2" d="M17.85,30.71a.92.92,0,0,1-.67-.28l-4.76-4.76a1,1,0,0,1,0-1.34l4.76-4.76a1,1,0,1,1,1.34,1.35L14.44,25l4.08,4.08a.94.94,0,0,1,0,1.35A.91.91,0,0,1,17.85,30.71Z"/><path class="cls-2" d="M28.33,26H13.1a1,1,0,1,1,0-1.9H28.33a1,1,0,1,1,0,1.9Z"/><path class="cls-2" d="M36.9,37.86H19.76a1,1,0,0,1,0-1.91H36V14.05H19.76a1,1,0,0,1,0-1.91H36.9a1,1,0,0,1,1,1V36.9A1,1,0,0,1,36.9,37.86Z"/></g></g></g></svg>