<svg xmlns="http://www.w3.org/2000/svg" viewBox="0 0 50 50"><defs><style>.cls-1{fill:#353942;}.cls-2{fill:#5b616b;}</style></defs><g id="Layer_2" data-name="Layer 2"><g id="Layer_151" data-name="Layer 151"><g id="PreviousPoint"><path class="cls-1" d="M25,50A25,25,0,1,1,50,25,25,25,0,0,1,25,50Z"/><path class="cls-2" d="M16.43,29.29A4.29,4.29,0,1,1,20.71,25,4.3,4.3,0,0,1,16.43,29.29Zm0-6.67A2.38,2.38,0,1,0,18.81,25,2.39,2.39,0,0,0,16.43,22.62Z"/><path class="cls-2" d="M36.9,26H23.76a1,1,0,1,1,0-1.9H36.9a1,1,0,1,1,0,1.9Z"/><path class="cls-2" d="M27.18,29.38a1,1,0,0,1-.67-.28l-3.42-3.43a.93.93,0,0,1,0-1.34l3.42-3.43a1,1,0,1,1,1.35,1.35L25.11,25l2.75,2.75a1,1,0,0,1,0,1.35A1,1,0,0,1,27.18,29.38Z"/><path class="cls-2" d="M36.9,20.71a1,1,0,0,1-.95-.95V15.48a1.43,1.43,0,0,0-1.43-1.43h-19a1.43,1.43,0,0,0-1.43,1.43v1.9a1,1,0,0,1-1.91,0v-1.9a3.35,3.35,0,0,1,3.34-3.34h19a3.35,3.35,0,0,1,3.34,3.34v4.28A1,1,0,0,1,36.9,20.71Z"/><path class="cls-2" d="M34.52,37.86h-19a3.35,3.35,0,0,1-3.34-3.34v-1.9a1,1,0,0,1,1.91,0v1.9A1.43,1.43,0,0,0,15.48,36h19A1.43,1.43,0,0,0,36,34.52V30.24a1,1,0,0,1,1.91,0v4.28A3.35,3.35,0,0,1,34.52,37.86Z"/></g></g></g></svg>