<svg id="Layer_1" data-name="Layer 1" xmlns="http://www.w3.org/2000/svg" xmlns:xlink="http://www.w3.org/1999/xlink" viewBox="0 0 612 612"><defs><style>.cls-1{stroke:#232323;stroke-miterlimit:10;stroke-width:1.31px;fill:url(#linear-gradient);}</style><linearGradient id="linear-gradient" x1="306" y1="32.73" x2="306" y2="579.27" gradientUnits="userSpaceOnUse"><stop offset="0" stop-color="#fafafa"/><stop offset="1" stop-color="#ebebeb"/></linearGradient></defs><path id="PrintCurrentView" class="cls-1" d="M525.9,220H487.57V174a22.13,22.13,0,0,0-.37-3.91v0a19.87,19.87,0,0,0-1.72-4.89c-.2-.41-.41-.8-.63-1.18a20.37,20.37,0,0,0-3.14-4.29l-119.52-121A20.44,20.44,0,0,0,358,35.48c-.38-.22-.76-.42-1.14-.62A19.66,19.66,0,0,0,352,33.11h-.08a20.44,20.44,0,0,0-3.82-.38H144.41a20.13,20.13,0,0,0-20,20.24V220H86.1c-27.55,0-50,22.71-50,50.61v192.3c0,27.89,22.43,50.6,50,50.6h38.32V559a20.13,20.13,0,0,0,20,20.24H467.58a20.12,20.12,0,0,0,20-20.24V513.48H525.9c27.54,0,50-22.71,50-50.6V270.58C575.87,242.68,553.44,220,525.9,220ZM368.05,101.84l51.28,51.92H368.05ZM164.4,73.21H328.07V174a20.12,20.12,0,0,0,20,20.24h99.53V220H164.4ZM124.42,473H86.1a10.06,10.06,0,0,1-10-10.12V398.34h48.31V473Zm323.17,65.79H164.4V398.34H447.59Zm88.3-75.91a10.07,10.07,0,0,1-10,10.12H487.57V398.34h48.32v64.54Zm0-105H76.1V270.55a10.07,10.07,0,0,1,10-10.12H525.9a10.07,10.07,0,0,1,10,10.12v87.31Zm-46.44-72.95a22.57,22.57,0,1,0,22.27,22.57A22.45,22.45,0,0,0,489.45,284.91ZM214.38,520.65H397.64a20.25,20.25,0,0,0,0-40.49H214.38a20.25,20.25,0,0,0,0,40.49Zm0-63.69H397.64a20.24,20.24,0,0,0,0-40.48H214.38a20.24,20.24,0,0,0,0,40.48Zm99.11-167.42H144.41a20.25,20.25,0,0,0,0,40.49H313.49a20.25,20.25,0,0,0,0-40.49Z"/></svg>