<svg id="Layer_1" data-name="Layer 1" xmlns="http://www.w3.org/2000/svg" xmlns:xlink="http://www.w3.org/1999/xlink" viewBox="0 0 612 612"><defs><style>.cls-1{stroke:#232323;stroke-miterlimit:10;stroke-width:1.31px;fill:url(#linear-gradient);}</style><linearGradient id="linear-gradient" x1="306" y1="32.56" x2="306" y2="579.44" gradientUnits="userSpaceOnUse"><stop offset="0" stop-color="#fafafa"/><stop offset="1" stop-color="#ebebeb"/></linearGradient></defs><path id="Print" class="cls-1" d="M527.69,285.75H489.05V173.92a21.24,21.24,0,0,0-.38-3.91v0a20.12,20.12,0,0,0-1.73-4.9c-.21-.4-.41-.79-.63-1.18a21.09,21.09,0,0,0-3.16-4.29L362.65,38.5a20.27,20.27,0,0,0-4.27-3.18c-.38-.23-.77-.43-1.15-.63A19.85,19.85,0,0,0,352.35,33h-.08a20.77,20.77,0,0,0-3.85-.39H143.1A20.22,20.22,0,0,0,123,52.82V285.75H84.31a50.57,50.57,0,0,0-50.38,50.63V528.8a50.58,50.58,0,0,0,50.38,50.64H527.69a50.58,50.58,0,0,0,50.38-50.64V336.38A50.57,50.57,0,0,0,527.69,285.75Zm-159.14-184,51.7,52h-51.7ZM163.25,73.07h165V173.92a20.21,20.21,0,0,0,20.15,20.25H448.75v91.57H163.26V73.07ZM448.74,538.93H163.25V498.42A30.35,30.35,0,0,1,193.48,468h225a30.35,30.35,0,0,1,30.23,30.39v40.51Zm89-10.13a10.1,10.1,0,0,1-10.07,10.13H489.05V498.42c0-39.1-31.64-70.9-70.53-70.9h-225c-38.89,0-70.53,31.8-70.53,70.9v40.51H84.31A10.1,10.1,0,0,1,74.24,528.8V336.38a10.1,10.1,0,0,1,10.07-10.12H527.69a10.1,10.1,0,0,1,10.07,10.12ZM491,350.72a22.58,22.58,0,1,0,22.45,22.56A22.56,22.56,0,0,0,491,350.72ZM306,353.05H143.1a20.26,20.26,0,0,0,0,40.51H306a20.26,20.26,0,0,0,0-40.51Z"/></svg>