<svg xmlns="http://www.w3.org/2000/svg" viewBox="0 0 50 50"><defs><style>.cls-1{fill:#353942;}.cls-2{fill:#5b616b;}</style></defs><g id="Layer_2" data-name="Layer 2"><g id="Layer_151" data-name="Layer 151"><g id="PrintCurrentView"><path class="cls-1" d="M25,50A25,25,0,1,1,50,25,25,25,0,0,1,25,50Z"/><path class="cls-2" d="M35.48,34.76H32.7a1,1,0,1,1,0-1.9h2.78a.48.48,0,0,0,.47-.48V23.33a.47.47,0,0,0-.47-.47h-21a.47.47,0,0,0-.47.47v9.05a.48.48,0,0,0,.47.48H17.3a1,1,0,1,1,0,1.9H14.52a2.39,2.39,0,0,1-2.38-2.38V23.33A2.39,2.39,0,0,1,14.52,21h21a2.39,2.39,0,0,1,2.38,2.38v9.05A2.39,2.39,0,0,1,35.48,34.76Z"/><path class="cls-2" d="M32.7,22.86H17.3a1,1,0,0,1-.95-1V13.1a1,1,0,0,1,.95-1H27a1,1,0,0,1,.68.28l5.69,5.7a.93.93,0,0,1,.28.67V21.9A1,1,0,0,1,32.7,22.86ZM18.25,21h13.5V19.18l-5.14-5.13H18.25Z"/><path class="cls-2" d="M32.7,37.86H17.3a1,1,0,0,1-.95-1V28.39a1,1,0,0,1,.95-.95H32.7a1,1,0,0,1,.95.95V36.9A1,1,0,0,1,32.7,37.86ZM18.25,36h13.5v-6.6H18.25Z"/><path class="cls-2" d="M32.7,19.74H27a1,1,0,0,1-.95-.95V13.1a.94.94,0,0,1,.59-.88,1,1,0,0,1,1,.2l5.69,5.7a.94.94,0,0,1,.21,1A1,1,0,0,1,32.7,19.74ZM28,17.84H30.4L28,15.39Z"/><path class="cls-2" d="M33.74,26.13a1.06,1.06,0,1,1,1.06-1.06A1.06,1.06,0,0,1,33.74,26.13Z"/><path class="cls-2" d="M29.37,35.1H20.63a1,1,0,0,1,0-1.91h8.74a1,1,0,0,1,0,1.91Z"/><path class="cls-2" d="M29.37,32.1H20.63a.95.95,0,0,1,0-1.9h8.74a1,1,0,0,1,0,1.9Z"/><path class="cls-2" d="M36.9,29.35H13.1a1,1,0,1,1,0-1.91H36.9a1,1,0,1,1,0,1.91Z"/><path class="cls-2" d="M25.36,26.13H17.3a.95.95,0,0,1,0-1.9h8.06a.95.95,0,0,1,0,1.9Z"/></g></g></g></svg>