<svg xmlns="http://www.w3.org/2000/svg" viewBox="0 0 50 50"><defs><style>.cls-1{fill:#353942;}.cls-2{fill:#5b616b;}</style></defs><g id="Layer_2" data-name="Layer 2"><g id="Layer_151" data-name="Layer 151"><g id="Print"><path class="cls-1" d="M25,50A25,25,0,1,1,50,25,25,25,0,0,1,25,50Z"/><path class="cls-2" d="M35.48,37.86h-21a2.39,2.39,0,0,1-2.38-2.38v-9a2.39,2.39,0,0,1,2.38-2.38h21a2.39,2.39,0,0,1,2.38,2.38v9A2.39,2.39,0,0,1,35.48,37.86ZM14.52,26a.48.48,0,0,0-.47.48v9a.47.47,0,0,0,.47.47h21a.47.47,0,0,0,.47-.47v-9a.48.48,0,0,0-.47-.48Z"/><path class="cls-2" d="M32.7,37.86H17.3a1,1,0,0,1-.95-1V34.05a3.34,3.34,0,0,1,3.33-3.34H30.32a3.34,3.34,0,0,1,3.33,3.34V36.9A1,1,0,0,1,32.7,37.86ZM18.25,36h13.5v-1.9a1.43,1.43,0,0,0-1.43-1.43H19.68a1.43,1.43,0,0,0-1.43,1.43Z"/><path class="cls-2" d="M32.7,26H17.3a1,1,0,0,1-.95-.95V13.1a1,1,0,0,1,.95-1H27a1,1,0,0,1,.68.28l5.69,5.7a.93.93,0,0,1,.28.67V25A1,1,0,0,1,32.7,26Zm-14.45-1.9h13.5V19.18l-5.14-5.13H18.25Z"/><path class="cls-2" d="M32.7,19.74H27a1,1,0,0,1-.95-.95V13.1a.94.94,0,0,1,.59-.88,1,1,0,0,1,1,.2l5.69,5.7a.94.94,0,0,1,.21,1A1,1,0,0,1,32.7,19.74ZM28,17.84H30.4L28,15.39Z"/><path class="cls-2" d="M33.74,29.23a1.07,1.07,0,1,1,1.06-1.07A1.06,1.06,0,0,1,33.74,29.23Z"/><path class="cls-2" d="M25,29.12H17.3a1,1,0,0,1,0-1.91H25a1,1,0,0,1,0,1.91Z"/></g></g></g></svg>