<svg xmlns="http://www.w3.org/2000/svg" viewBox="0 0 50 50"><defs><style>.cls-1{fill:#353942;}.cls-2{fill:#5b616b;}</style></defs><g id="Layer_2" data-name="Layer 2"><g id="Layer_151" data-name="Layer 151"><g id="ProbeTool"><path class="cls-1" d="M25,50A25,25,0,1,1,50,25,25,25,0,0,1,25,50Z"/><path class="cls-2" d="M20.73,34.63H16.32a.94.94,0,0,1-1-1V29.27a3.35,3.35,0,0,1,1-2.36L27.73,15.52a1,1,0,0,1,.68-.28h0a1,1,0,0,1,.67.28l5.4,5.4a1,1,0,0,1,0,1.35L23.09,33.66A3.31,3.31,0,0,1,20.73,34.63Zm-3.46-1.9h3.46a1.42,1.42,0,0,0,1-.42L32.46,21.59l-4.05-4.05L17.69,28.26a1.42,1.42,0,0,0-.42,1Z"/><path class="cls-2" d="M36.9,19.44a1,1,0,0,1-.67-.27l-5.4-5.4a1,1,0,1,1,1.35-1.35l5.4,5.4a1,1,0,0,1,0,1.35A1,1,0,0,1,36.9,19.44Z"/><path class="cls-2" d="M13.1,37.86a1,1,0,0,1-.68-.28,1,1,0,0,1,0-1.35L15.65,33A.95.95,0,1,1,17,34.35l-3.22,3.23A1,1,0,0,1,13.1,37.86Z"/></g></g></g></svg>