<svg xmlns="http://www.w3.org/2000/svg" viewBox="0 0 50 50"><defs><style>.cls-1{fill:#353942;}.cls-2{fill:#5b616b;}</style></defs><g id="Layer_2" data-name="Layer 2"><g id="Layer_151" data-name="Layer 151"><g id="Protractor"><path class="cls-1" d="M25,50A25,25,0,1,1,50,25,25,25,0,0,1,25,50Z"/><path class="cls-2" d="M21.5,37.86h0a1,1,0,0,1-.68-.28l-5.21-5.21A11.85,11.85,0,0,1,24,12.14h0a11.78,11.78,0,0,1,8.37,3.47l5.22,5.21a1,1,0,0,1,.28.68,1,1,0,0,1-.28.67L22.17,37.58A1,1,0,0,1,21.5,37.86ZM24,14.05a9.94,9.94,0,0,0-7,17l4.54,4.54L35.56,21.5,31,17h0A9.88,9.88,0,0,0,24,14.05Z"/><path class="cls-2" d="M20.49,28.44h0a1,1,0,0,1-.68-.27,5.91,5.91,0,0,1,8.36-8.36,1,1,0,0,1,0,1.35l-7,7A1,1,0,0,1,20.49,28.44ZM24,20a4,4,0,0,0-3.42,6.08l5.5-5.5A4,4,0,0,0,24,20Z"/><path class="cls-2" d="M34.19,25.17a1,1,0,0,1-.67-.28l-2-1.94a1,1,0,0,1,1.35-1.35l1.94,1.94a1,1,0,0,1-.67,1.63Z"/><path class="cls-2" d="M31.69,27.66a.94.94,0,0,1-.67-.28l-1.94-1.94a1,1,0,0,1,1.35-1.35L32.37,26a1,1,0,0,1-.68,1.62Z"/><path class="cls-2" d="M26.7,32.65a.94.94,0,0,1-.67-.28l-1.94-1.94a1,1,0,0,1,0-1.34.93.93,0,0,1,1.34,0L27.38,31a1,1,0,0,1-.68,1.62Z"/><path class="cls-2" d="M24.21,35.15a.94.94,0,0,1-.68-.28l-1.94-1.94a1,1,0,1,1,1.35-1.35l1.94,1.94a1,1,0,0,1,0,1.35A.94.94,0,0,1,24.21,35.15Z"/><path class="cls-2" d="M29.2,30.16a1,1,0,0,1-.68-.28l-2.63-2.64a1,1,0,0,1,1.35-1.34l2.63,2.63a1,1,0,0,1-.67,1.63Z"/></g></g></g></svg>