<svg id="Layer_1" data-name="Layer 1" xmlns="http://www.w3.org/2000/svg" xmlns:xlink="http://www.w3.org/1999/xlink" viewBox="0 0 612 612"><defs><style>.cls-1,.cls-2{stroke:#232323;stroke-miterlimit:10;stroke-width:1.31px;}.cls-1{fill:url(#linear-gradient);}.cls-2{fill:url(#linear-gradient-2);}</style><linearGradient id="linear-gradient" x1="306" y1="163.79" x2="306" y2="448.21" gradientUnits="userSpaceOnUse"><stop offset="0" stop-color="#fafafa"/><stop offset="1" stop-color="#ebebeb"/></linearGradient><linearGradient id="linear-gradient-2" x1="306" y1="32.42" x2="306" y2="579.58" xlink:href="#linear-gradient"/></defs><path class="cls-1" d="M427.21,448.21H184.79a20,20,0,0,1-19.93-20.08V183.87a20,20,0,0,1,19.93-20.08H427.21a20,20,0,0,1,19.93,20.08V428.16A20,20,0,0,1,427.21,448.21Zm-222.5-40.15H407.29V203.94H204.71Z"/><path class="cls-2" d="M508.55,579.58H103.45a71,71,0,0,1-70.89-70.93V103.35a71,71,0,0,1,70.89-70.93h405.1a71,71,0,0,1,70.89,70.93V508.66A71,71,0,0,1,508.55,579.58ZM103.29,60.15c-16.75,0-42.93,24.86-42.93,41.61V504.38c0,31.77,21.75,53.26,49.47,53.26H510.64c16.75,0,44.12-29,42.67-46.84l.34-412c0-16.76-23.25-38.61-40-38.61Z"/></svg>