<svg xmlns="http://www.w3.org/2000/svg" viewBox="0 0 50 50"><defs><style>.cls-1{fill:#353942;}.cls-2{fill:#5b616b;}</style></defs><g id="Layer_2" data-name="Layer 2"><g id="Layer_151" data-name="Layer 151"><g id="ReferenceLine"><path class="cls-1" d="M25,50A25,25,0,1,1,50,25,25,25,0,0,1,25,50Z"/><path class="cls-2" d="M36.9,37.86H31A1,1,0,0,1,31,36h5V31a1,1,0,0,1,1.91,0V36.9A1,1,0,0,1,36.9,37.86Z"/><path class="cls-2" d="M19.05,37.86h-6a1,1,0,0,1-1-1V31a1,1,0,0,1,1.91,0v5h5a1,1,0,0,1,0,1.91Z"/><path class="cls-2" d="M13.1,20a1,1,0,0,1-1-.95v-6a1,1,0,0,1,1-1h6a1,1,0,0,1,0,1.91h-5v5A1,1,0,0,1,13.1,20Z"/><path class="cls-2" d="M36.9,20a1,1,0,0,1-.95-.95v-5H31a1,1,0,0,1,0-1.91H36.9a1,1,0,0,1,1,1v6A1,1,0,0,1,36.9,20Z"/><path class="cls-2" d="M36.9,26H13.1a1,1,0,1,1,0-1.9H36.9a1,1,0,1,1,0,1.9Z"/></g></g></g></svg>