<svg xmlns="http://www.w3.org/2000/svg" viewBox="0 0 50 50"><defs><style>.cls-1{fill:#353942;}.cls-2{fill:#5b616b;}</style></defs><g id="Layer_2" data-name="Layer 2"><g id="Layer_151" data-name="Layer 151"><g id="Reload"><path class="cls-1" d="M25,50A25,25,0,1,1,50,25,25,25,0,0,1,25,50Z"/><path class="cls-2" d="M20.53,22.41a1,1,0,0,1-.68-1.62l3.51-3.51-3.51-3.51a1,1,0,1,1,1.35-1.35l4.18,4.18a.94.94,0,0,1,0,1.35L21.2,22.13A.92.92,0,0,1,20.53,22.41Z"/><path class="cls-2" d="M29.47,37.86a1,1,0,0,1-.67-.28L24.62,33.4a.94.94,0,0,1,0-1.35l4.18-4.18a1,1,0,1,1,1.35,1.34l-3.51,3.51,3.51,3.51a1,1,0,0,1,0,1.35A1,1,0,0,1,29.47,37.86Z"/><path class="cls-2" d="M20.82,33.67a8.67,8.67,0,1,1,0-17.34h3.89a1,1,0,1,1,0,1.9H20.82a6.77,6.77,0,0,0,0,13.54.95.95,0,0,1,0,1.9Z"/><path class="cls-2" d="M29.18,33.67H25.29a.95.95,0,0,1,0-1.9h3.89a6.77,6.77,0,1,0,0-13.54.95.95,0,0,1,0-1.9,8.67,8.67,0,1,1,0,17.34Z"/></g></g></g></svg>