<svg id="Layer_1" data-name="Layer 1" xmlns="http://www.w3.org/2000/svg" xmlns:xlink="http://www.w3.org/1999/xlink" viewBox="0 0 612 612"><defs><style>.cls-1{stroke:#232323;stroke-miterlimit:10;stroke-width:1.31px;fill:url(#linear-gradient);}</style><linearGradient id="linear-gradient" x1="306" y1="32.83" x2="306" y2="579.17" gradientUnits="userSpaceOnUse"><stop offset="0" stop-color="#fafafa"/><stop offset="1" stop-color="#ebebeb"/></linearGradient></defs><path id="Reload" class="cls-1" d="M217.13,449.83C137.81,449.83,73.3,385.3,73.3,306s64.53-143.83,143.83-143.83H251L196.67,216.5a20.23,20.23,0,0,0,28.61,28.62l88.85-88.85a20.17,20.17,0,0,0,2.53-3.1c.32-.49.55-1,.83-1.54a18.74,18.74,0,0,0,1-1.94,18.47,18.47,0,0,0,.63-2c.17-.59.4-1.14.51-1.74a20.35,20.35,0,0,0,0-7.93c-.12-.61-.34-1.16-.51-1.74s-.37-1.38-.63-2.05a19.81,19.81,0,0,0-1-1.94c-.28-.51-.51-1.05-.83-1.54a20.41,20.41,0,0,0-2.53-3.09L225.28,38.77a20.23,20.23,0,0,0-28.61,28.61L251,121.71H217.13c-101.62,0-184.3,82.68-184.3,184.3S115.51,490.3,217.13,490.3a20.24,20.24,0,0,0,0-40.47ZM579.17,306c0-101.62-82.69-184.29-184.3-184.29a20.23,20.23,0,0,0,0,40.46c79.3,0,143.83,64.53,143.83,143.83S474.17,449.83,394.87,449.83H361l54.32-54.33a20.23,20.23,0,0,0-28.61-28.61l-88.85,88.85a19.63,19.63,0,0,0-2.53,3.09c-.32.49-.54,1-.81,1.5-.36.65-.75,1.29-1.05,2s-.42,1.34-.63,2a17,17,0,0,0-.52,1.76,20,20,0,0,0,0,7.93,17,17,0,0,0,.52,1.76c.21.67.37,1.36.63,2a19.78,19.78,0,0,0,1.05,2c.29.51.49,1,.81,1.49a20.61,20.61,0,0,0,2.53,3.1l88.85,88.85a20.23,20.23,0,0,0,28.61-28.61L361,490.3h33.85C496.49,490.3,579.17,407.62,579.17,306Z"/></svg>