<svg xmlns="http://www.w3.org/2000/svg" viewBox="0 0 50 50"><defs><style>.cls-1{fill:#353942;}.cls-2{fill:#5b616b;}</style></defs><g id="Layer_2" data-name="Layer 2"><g id="Layer_151" data-name="Layer 151"><g id="ReloadAll"><path class="cls-1" d="M25,50A25,25,0,1,1,50,25,25,25,0,0,1,25,50Z"/><path class="cls-2" d="M22.62,37.86A1,1,0,0,1,22,36.23l6-6-6-6a1,1,0,0,1,0-1.34,1,1,0,0,1,1.35,0L30,29.56a1,1,0,0,1,0,1.35L23.3,37.58A1,1,0,0,1,22.62,37.86Z"/><path class="cls-2" d="M36.9,37.86a1,1,0,0,1-.95-1V23.41a9.37,9.37,0,0,0-9.36-9.36H21.67a7.62,7.62,0,0,0,0,15.24h5.71a1,1,0,0,1,0,1.9H21.67a9.53,9.53,0,1,1,0-19h4.92A11.29,11.29,0,0,1,37.86,23.41V36.9A1,1,0,0,1,36.9,37.86Z"/></g></g></g></svg>