<svg xmlns="http://www.w3.org/2000/svg" viewBox="0 0 50 50"><defs><style>.cls-1{fill:#353942;}.cls-2{fill:#5b616b;}</style></defs><g id="Layer_2" data-name="Layer 2"><g id="Layer_151" data-name="Layer 151"><g id="RenameTemplate"><path class="cls-1" d="M25,50A25,25,0,1,1,50,25,25,25,0,0,1,25,50Z"/><path class="cls-2" d="M17,33.79a.86.86,0,0,1-.85-.68.85.85,0,0,1,.66-1,4.32,4.32,0,0,0,1.38-.54,1.47,1.47,0,0,0,.65-1.25V19.88a1.49,1.49,0,0,0-.65-1.26,4.57,4.57,0,0,0-1.38-.53.87.87,0,0,1,.37-1.69,5.92,5.92,0,0,1,1.92.75,3.19,3.19,0,0,1,1.48,2.73V30.29A3.2,3.2,0,0,1,19.06,33a5.92,5.92,0,0,1-1.92.75A.55.55,0,0,1,17,33.79Z"/><path class="cls-2" d="M22.39,33.79a.62.62,0,0,1-.19,0A6,6,0,0,1,20.28,33a3.23,3.23,0,0,1-1.48-2.73.87.87,0,1,1,1.74,0,1.45,1.45,0,0,0,.66,1.25,4.23,4.23,0,0,0,1.38.54.87.87,0,0,1-.19,1.71Z"/><path class="cls-2" d="M19.67,20.75a.87.87,0,0,1-.87-.87,3.21,3.21,0,0,1,1.48-2.73,6,6,0,0,1,1.92-.75.87.87,0,1,1,.38,1.69,4.47,4.47,0,0,0-1.38.53,1.47,1.47,0,0,0-.66,1.26A.87.87,0,0,1,19.67,20.75Z"/><path class="cls-2" d="M34.52,37.86h-19a3.35,3.35,0,0,1-3.34-3.34v-19a3.35,3.35,0,0,1,3.34-3.34h19a3.35,3.35,0,0,1,3.34,3.34v19A3.35,3.35,0,0,1,34.52,37.86Zm-19-23.81a1.43,1.43,0,0,0-1.43,1.43v19A1.43,1.43,0,0,0,15.48,36h19A1.43,1.43,0,0,0,36,34.52v-19a1.43,1.43,0,0,0-1.43-1.43Z"/><circle class="cls-2" cx="26.15" cy="32.92" r="0.85"/><circle class="cls-2" cx="29.75" cy="32.92" r="0.85"/><circle class="cls-2" cx="33.35" cy="32.92" r="0.85"/></g></g></g></svg>