<svg id="Layer_1" data-name="Layer 1" xmlns="http://www.w3.org/2000/svg" xmlns:xlink="http://www.w3.org/1999/xlink" viewBox="0 0 612 612"><defs><style>.cls-1,.cls-2{stroke:#232323;stroke-miterlimit:10;stroke-width:1.31px;}.cls-1{fill:url(#linear-gradient);}.cls-2{fill:url(#linear-gradient-2);}</style><linearGradient id="linear-gradient" x1="306" y1="31.32" x2="306" y2="580.68" gradientUnits="userSpaceOnUse"><stop offset="0" stop-color="#fafafa"/><stop offset="1" stop-color="#ebebeb"/></linearGradient><linearGradient id="linear-gradient-2" x1="309.14" y1="121.75" x2="309.14" y2="493.83" xlink:href="#linear-gradient"/></defs><path class="cls-1" d="M509.36,580.68H102.64a71.27,71.27,0,0,1-71.18-71.21V102.53a71.27,71.27,0,0,1,71.18-71.21H509.36a71.27,71.27,0,0,1,71.18,71.21V509.47A71.27,71.27,0,0,1,509.36,580.68ZM102.64,72a30.56,30.56,0,0,0-30.51,30.52V509.47A30.55,30.55,0,0,0,102.64,540H509.36a30.54,30.54,0,0,0,30.5-30.52V102.53A30.55,30.55,0,0,0,509.36,72Z"/><path class="cls-2" d="M407.49,196.61V419c0,11.21-5.34,21.49-14,26.84-8,5-18,8.81-29.5,11.37a18.55,18.55,0,0,0,8.05,36.22c15.62-3.48,29.41-8.89,41-16.08a63.51,63.51,0,0,0,13-10.7,63,63,0,0,0,13,10.7c11.59,7.18,25.38,12.6,41,16.08a18.55,18.55,0,0,0,8.05-36.22c-11.53-2.56-21.46-6.39-29.51-11.37-8.62-5.35-14-15.63-14-26.84V196.59c0-11.19,5.35-21.48,14-26.82,8-5,18-8.81,29.51-11.37A18.55,18.55,0,0,0,480,122.18c-15.62,3.48-29.43,8.89-41,16.08A64,64,0,0,0,426,149a63,63,0,0,0-13-10.7c-11.57-7.17-25.36-12.58-41-16.06A18.55,18.55,0,0,0,364,158.42c11.55,2.56,21.47,6.39,29.51,11.37C402.15,175.12,407.5,185.42,407.49,196.61Zm-138,278.65A18.23,18.23,0,1,0,287.72,457,18.23,18.23,0,0,0,269.49,475.26Zm-76.89,0A18.23,18.23,0,1,0,210.83,457,18.23,18.23,0,0,0,192.6,475.26Zm-76.91,0A18.23,18.23,0,1,0,133.92,457,18.23,18.23,0,0,0,115.69,475.26Z"/></svg>