<svg xmlns="http://www.w3.org/2000/svg" viewBox="0 0 50 50"><defs><style>.cls-1{fill:#353942;}.cls-2{fill:#5b616b;}</style></defs><g id="Layer_2" data-name="Layer 2"><g id="Layer_151" data-name="Layer 151"><g id="Reverse"><path class="cls-1" d="M25,50A25,25,0,1,1,50,25,25,25,0,0,1,25,50Z"/><path class="cls-2" d="M25,37.86a1,1,0,0,1-.95-1V32.14a.95.95,0,0,1,1.9,0V36.9A1,1,0,0,1,25,37.86Zm0-9.53a.94.94,0,0,1-.95-.95V22.62a.95.95,0,0,1,1.9,0v4.76A.94.94,0,0,1,25,28.33Zm0-9.52a1,1,0,0,1-.95-.95V13.1a1,1,0,1,1,1.9,0v4.76A1,1,0,0,1,25,18.81Z"/><path class="cls-2" d="M16.58,29.7a1,1,0,0,1-.68-1.62L19,25,15.9,21.92a1,1,0,1,1,1.35-1.34L21,24.33a1,1,0,0,1,0,1.34l-3.75,3.75A.94.94,0,0,1,16.58,29.7Z"/><path class="cls-2" d="M33.42,29.7a.94.94,0,0,1-.67-.28L29,25.67a1,1,0,0,1,0-1.34l3.75-3.75a1,1,0,0,1,1.35,1.34L31,25l3.08,3.08a1,1,0,0,1-.68,1.62Z"/><path class="cls-2" d="M20.33,26H13.1a1,1,0,1,1,0-1.9h7.23a.95.95,0,0,1,0,1.9Z"/><path class="cls-2" d="M36.9,26H29.81a1,1,0,1,1,0-1.9H36.9a1,1,0,1,1,0,1.9Z"/></g></g></g></svg>