<svg id="Layer_1" data-name="Layer 1" xmlns="http://www.w3.org/2000/svg" xmlns:xlink="http://www.w3.org/1999/xlink" viewBox="0 0 612 612"><defs><style>.cls-1{stroke:#232323;stroke-miterlimit:10;stroke-width:1.31px;fill:url(#linear-gradient);}</style><linearGradient id="linear-gradient" x1="306" y1="31.61" x2="306" y2="580.39" gradientUnits="userSpaceOnUse"><stop offset="0" stop-color="#fafafa"/><stop offset="1" stop-color="#ebebeb"/></linearGradient></defs><path id="Reverse" class="cls-1" d="M306,438.11a20.34,20.34,0,0,0-20.33,20.33V560.06a20.33,20.33,0,1,0,40.65,0V458.44A20.33,20.33,0,0,0,306,438.11Zm0-203.25a20.34,20.34,0,0,0-20.33,20.33V356.81a20.33,20.33,0,1,0,40.65,0V255.19A20.33,20.33,0,0,0,306,234.86Zm0-203.25a20.34,20.34,0,0,0-20.33,20.33V153.56a20.33,20.33,0,1,0,40.65,0V51.94A20.33,20.33,0,0,0,306,31.61ZM225.67,300.29c-.2-.69-.36-1.38-.62-2.06s-.67-1.3-1-2-.51-1.06-.83-1.54a20.81,20.81,0,0,0-2.55-3.11l-80-80a20.32,20.32,0,0,0-28.74,28.73l45.32,45.33H51.94a20.33,20.33,0,1,0,0,40.65H157.22L111.9,371.64a20.32,20.32,0,1,0,28.74,28.74l80-80a19.94,19.94,0,0,0,2.54-3.11c.33-.49.55-1,.84-1.54.34-.66.73-1.26,1-2a16.7,16.7,0,0,0,.63-2.05,15.23,15.23,0,0,0,.51-1.75,20.12,20.12,0,0,0,0-8A12.61,12.61,0,0,0,225.67,300.29Zm334.39-14.62H454.78l45.32-45.32a20.32,20.32,0,0,0-28.74-28.74l-80,80a20.3,20.3,0,0,0,0,28.74l80,80a20.32,20.32,0,0,0,28.74-28.74l-45.32-45.32H560.06a20.35,20.35,0,0,0,0-40.7Z"/></svg>