<svg xmlns="http://www.w3.org/2000/svg" viewBox="0 0 50 50"><defs><style>.cls-1{fill:#353942;}.cls-2{fill:#5b616b;}</style></defs><g id="Layer_2" data-name="Layer 2"><g id="Layer_151" data-name="Layer 151"><g id="RightOrientation"><path class="cls-1" d="M25,50A25,25,0,1,1,50,25,25,25,0,0,1,25,50Z"/><path class="cls-2" d="M17.62,37.86a1,1,0,0,1-.95-1V13.1a1,1,0,0,1,.95-1h8.81a6.91,6.91,0,0,1,0,13.81H18.57v11A1,1,0,0,1,17.62,37.86Zm.95-13.81h7.86a5,5,0,0,0,0-10H18.57Z"/><path class="cls-2" d="M32.38,37.86a1,1,0,0,1-.85-.53l-6-11.9a1,1,0,1,1,1.7-.86l5.95,11.91a1,1,0,0,1-.42,1.28A1,1,0,0,1,32.38,37.86Z"/></g></g></g></svg>