<svg xmlns="http://www.w3.org/2000/svg" viewBox="0 0 50 50"><defs><style>.cls-1{fill:#353942;}.cls-2{fill:#5b616b;}</style></defs><g id="Layer_2" data-name="Layer 2"><g id="Layer_151" data-name="Layer 151"><g id="PatientOrientation"><path class="cls-1" d="M25,50A25,25,0,1,1,50,25,25,25,0,0,1,25,50Z"/><path class="cls-2" d="M22.67,31.43a.74.74,0,0,0-.09,1.47c.41,0,.83,0,1.23,0,7.05,0,12.58-3.4,12.58-7.74s-5.53-7.74-12.58-7.74a20.27,20.27,0,0,0-4.58.51c1.15-2.46,2.87-4.06,4.76-4.06a4.16,4.16,0,0,1,2.82,1.26l-1.06-.1a.74.74,0,0,0-.14,1.47l2.86.28h.07a.67.67,0,0,0,.24,0h0L29,16.7s0,0,0,0h0l0,0,.06-.05,0-.05a.43.43,0,0,1,0-.07l0-.06,0-.07a.64.64,0,0,0,0-.07.17.17,0,0,0,0-.07s0,0,0,0l.21-2.87A.74.74,0,0,0,28,13.16l-.08,1a5.67,5.67,0,0,0-4-1.77c-2.85,0-5.29,2.42-6.61,6.09-3.7,1.33-6.14,3.8-6.14,6.68A5.54,5.54,0,0,0,13,29.12l-1,.08a.74.74,0,0,0,0,1.48h.05l2.87-.2h.12l.06,0,.07,0,.06,0,.07,0,.05,0,.06-.05s0,0,0,0l0,0,0,0a0,0,0,0,0,0,0l0-.06,0-.07s0-.05,0-.07,0-.05,0-.07v-.18l-.28-2.87a.74.74,0,0,0-1.47.15L14,28a4.09,4.09,0,0,1-1.27-2.81c0-1.92,1.62-3.66,4.11-4.82A20.49,20.49,0,0,0,16.31,25c0,7,3.37,12.57,7.68,12.57,1.91,0,3.74-1.13,5.14-3.19a.74.74,0,0,0-.2-1,.73.73,0,0,0-1,.2A5,5,0,0,1,24,36.09c-3.36,0-6.2-5.08-6.2-11.09a17.69,17.69,0,0,1,.78-5.29,17.73,17.73,0,0,1,5.24-.77c6,0,11.1,2.87,11.1,6.26s-5.08,6.26-11.1,6.26Zm8-2.55h.12a.74.74,0,0,0,.73-.61A19.8,19.8,0,0,0,31.76,25a20.62,20.62,0,0,0-.22-3,.74.74,0,0,0-1.46.22,19,19,0,0,1,.2,2.74A17.79,17.79,0,0,1,30,28,.74.74,0,0,0,30.64,28.88Z"/></g></g></g></svg>