<svg id="Layer_1" data-name="Layer 1" xmlns="http://www.w3.org/2000/svg" xmlns:xlink="http://www.w3.org/1999/xlink" viewBox="0 0 612 612"><defs><style>.cls-1,.cls-2,.cls-3,.cls-4,.cls-5{stroke:#232323;stroke-miterlimit:10;stroke-width:1.31px;}.cls-1{fill:url(#linear-gradient);}.cls-2{fill:url(#linear-gradient-2);}.cls-3{fill:url(#linear-gradient-3);}.cls-4{fill:url(#linear-gradient-4);}.cls-5{fill:url(#linear-gradient-5);}</style><linearGradient id="linear-gradient" x1="469.8" y1="262.42" x2="469.8" y2="513.95" gradientUnits="userSpaceOnUse"><stop offset="0" stop-color="#fafafa"/><stop offset="1" stop-color="#ebebeb"/></linearGradient><linearGradient id="linear-gradient-2" x1="187.92" y1="262.16" x2="187.92" y2="581.73" xlink:href="#linear-gradient"/><linearGradient id="linear-gradient-3" x1="217.57" y1="151.32" x2="217.57" y2="414.97" xlink:href="#linear-gradient"/><linearGradient id="linear-gradient-4" x1="306.31" y1="30.36" x2="306.31" y2="218.96" xlink:href="#linear-gradient"/><linearGradient id="linear-gradient-5" x1="395.63" y1="151.35" x2="395.63" y2="415.04" xlink:href="#linear-gradient"/></defs><path class="cls-1" d="M557.6,377.31c0,59.83-59.87,113.23-152.54,136.1a18.89,18.89,0,0,1-4.46.54,18.63,18.63,0,0,1-4.43-36.72c74.3-18.32,124.22-58.46,124.22-99.9,0-26.44-19.78-52.41-54.83-72.81l-.09-42.1c.36.17.75.33,1.13.49C524.48,290.7,557.68,332.4,557.6,377.31Z"/><path class="cls-2" d="M321.43,511.36c0,.19-.07.36-.07.54a14,14,0,0,1-.22,2c-.09.58-.17,1.15-.29,1.7s-.34,1.12-.54,1.67-.41,1.16-.66,1.71a13.72,13.72,0,0,1-.84,1.5,15.88,15.88,0,0,1-1,1.6c-.31.43-.69.84-1,1.24a16.67,16.67,0,0,1-1.41,1.5c-.15.14-.26.3-.41.43l-60.88,52a18.62,18.62,0,1,1-24.18-28.32l26.51-22.67c-114.84-14.93-202-76.72-202-148.91,0-45.11,33.43-86.93,91.75-114.71.33-.17.71-.32,1.06-.48l.08,41.82c-35.53,20.46-55.71,46.68-55.71,73.32,0,51.53,74.53,98.82,167.94,111.67l-22.89-26.81A18.62,18.62,0,0,1,265,438l52,60.93a10,10,0,0,1,.66.94c.39.55.78,1.07,1.12,1.62s.55,1.05.81,1.59a13.69,13.69,0,0,1,.72,1.68,18.77,18.77,0,0,1,.53,1.81c.12.56.26,1.11.35,1.69a17.86,17.86,0,0,1,.16,2C321.35,510.64,321.43,511,321.43,511.36Z"/><polygon class="cls-3" points="295.17 414.97 139.98 327.18 139.98 151.32 294.88 239.82 295.17 414.97"/><polygon class="cls-4" points="306.31 218.96 183.76 149.14 140.84 124.66 306.31 30.36 471.79 124.66 306.31 218.96"/><polygon class="cls-5" points="472.56 326.89 318.71 415.04 318.71 239.43 472.56 151.35 472.56 151.35 472.56 326.89"/></svg>