<svg id="Layer_1" data-name="Layer 1" xmlns="http://www.w3.org/2000/svg" xmlns:xlink="http://www.w3.org/1999/xlink" viewBox="0 0 612 612"><defs><style>.cls-1,.cls-2,.cls-3,.cls-4,.cls-5,.cls-6{stroke:#232323;stroke-miterlimit:10;stroke-width:1.31px;}.cls-1{fill:url(#linear-gradient);}.cls-2{fill:url(#linear-gradient-2);}.cls-3{fill:url(#linear-gradient-3);}.cls-4{fill:url(#linear-gradient-4);}.cls-5{fill:url(#linear-gradient-5);}.cls-6{fill:url(#linear-gradient-6);}</style><linearGradient id="linear-gradient" x1="105.02" y1="363.54" x2="105.02" y2="524.96" gradientUnits="userSpaceOnUse"><stop offset="0" stop-color="#fafafa"/><stop offset="1" stop-color="#ebebeb"/></linearGradient><linearGradient id="linear-gradient-2" x1="292.31" y1="525.38" x2="292.31" y2="580.49" xlink:href="#linear-gradient"/><linearGradient id="linear-gradient-3" x1="478.06" y1="414.33" x2="478.06" y2="536.86" xlink:href="#linear-gradient"/><linearGradient id="linear-gradient-4" x1="306.01" y1="32.22" x2="306.01" y2="330.5" xlink:href="#linear-gradient"/><linearGradient id="linear-gradient-5" x1="32.07" y1="309.11" x2="32.07" y2="311.53" xlink:href="#linear-gradient"/><linearGradient id="linear-gradient-6" x1="306.01" y1="262.24" x2="306.01" y2="350.46" xlink:href="#linear-gradient"/></defs><path class="cls-1" d="M161.12,517.84l-.47.53a19.93,19.93,0,0,1-27.34,2.14A275.37,275.37,0,0,1,44.71,389.6a20,20,0,0,1,19-26.06h.75A20.05,20.05,0,0,1,83.54,377.7,234.48,234.48,0,0,0,158.93,489,19.92,19.92,0,0,1,161.12,517.84Z"/><path class="cls-2" d="M385.71,544.87a20.31,20.31,0,0,1-13.91,25.91,263.57,263.57,0,0,1-160.71-6.07,20.23,20.23,0,0,1-8-32.56h0A20.29,20.29,0,0,1,225,526.56a222.81,222.81,0,0,0,136,5.06,20.25,20.25,0,0,1,24.65,13.15Z"/><path class="cls-3" d="M533.44,444.75a271.9,271.9,0,0,1-81.54,88.47A20.32,20.32,0,0,1,421,523h0a20.19,20.19,0,0,1,7.63-23,231.64,231.64,0,0,0,69.64-75.46,20.29,20.29,0,1,1,35.16,20.25Z"/><path class="cls-4" d="M579.79,55.16,558.52,217.91c-.07.41-.19.78-.28,1.17-.09.55-.22,1.09-.35,1.64-.21.73-.46,1.44-.73,2.13-.19.46-.37.94-.59,1.38-.36.69-.75,1.35-1.16,2-.27.42-.53.86-.83,1.26-.45.59-1,1.14-1.46,1.69-.37.38-.72.76-1.1,1.14a19,19,0,0,1-1.89,1.46c-.39.28-.73.59-1.13.82a18.82,18.82,0,0,1-3.45,1.72h0c-.17.07-.33.07-.5.13a18.4,18.4,0,0,1-3.2.85c-.53.08-1,.11-1.58.15s-1.18.16-1.78.16c-.2,0-.36,0-.54,0a9,9,0,0,1-.93-.07,8.42,8.42,0,0,1-1.22-.08L373.11,214.13a20.31,20.31,0,1,1,5.26-40.28l119.69,15.68a3.15,3.15,0,0,0,3.11-4.75c-41.31-68.28-117.23-111.93-200-111.93-126,0-228.5,104.76-228.5,233.52,0,.67,0,1.33,0,2s.08,1.18.08,1.78c0,.43,0,.85,0,1.28A20.34,20.34,0,0,1,52.38,330.5h-.2l-1-.05a20.32,20.32,0,0,1-19-18.89s0,0,0,0c0-.8,0-1.61,0-2.42v0c0-.9,0-1.82,0-2.72C32,155.22,152.75,32.24,301.13,32.24A275.46,275.46,0,0,1,521.9,143.15a3.14,3.14,0,0,0,5.65-1.44l12-91.8a20.28,20.28,0,1,1,40.21,5.25Z"/><path class="cls-5" d="M32.09,311.53c0-.45-.05-.91-.05-1.38s0-.7,0-1C32.07,309.92,32.07,310.73,32.09,311.53Z"/><path class="cls-6" d="M306,262.24a44.11,44.11,0,1,0,44.12,44.11A44.12,44.12,0,0,0,306,262.24Z"/></svg>