<svg xmlns="http://www.w3.org/2000/svg" viewBox="0 0 50 50"><defs><style>.cls-1{fill:#353942;}.cls-2{fill:#5b616b;}</style></defs><g id="Layer_2" data-name="Layer 2"><g id="Layer_151" data-name="Layer 151"><g id="RotateCounterClock"><path class="cls-1" d="M25,50A25,25,0,1,1,50,25,25,25,0,0,1,25,50Z"/><path class="cls-2" d="M25.23,37.86a12.63,12.63,0,0,1-10.9-6.37.94.94,0,0,1,.35-1.3,1,1,0,0,1,1.3.35A10.72,10.72,0,0,0,25.23,36,11,11,0,1,0,15,21.06a1,1,0,0,1-1.23.56,1,1,0,0,1-.56-1.22,12.78,12.78,0,1,1,12,17.46Z"/><path class="cls-2" d="M14.09,21.68a1,1,0,0,1-.94-.83l-1-7.63A1,1,0,0,1,14,13l.88,6.69,6.68-.88a1,1,0,0,1,1.07.83.94.94,0,0,1-.82,1.06l-7.63,1Z"/></g></g></g></svg>