<svg xmlns="http://www.w3.org/2000/svg" viewBox="0 0 50 50"><defs><style>.cls-1{fill:#353942;}.cls-2{fill:#5b616b;}</style></defs><g id="Layer_2" data-name="Layer 2"><g id="Layer_151" data-name="Layer 151"><g id="RotateClock"><path class="cls-1" d="M25,50A25,25,0,1,1,50,25,25,25,0,0,1,25,50Z"/><path class="cls-2" d="M24.77,37.86a12.86,12.86,0,1,1,12-17.46,1,1,0,0,1-.56,1.22A1,1,0,0,1,35,21.06,10.87,10.87,0,1,0,24.77,36,10.72,10.72,0,0,0,34,30.54a1,1,0,0,1,1.3-.35.94.94,0,0,1,.35,1.3A12.63,12.63,0,0,1,24.77,37.86Z"/><path class="cls-2" d="M35.91,21.68h-.13l-7.63-1a.94.94,0,0,1-.82-1.06,1,1,0,0,1,1.07-.83l6.68.88L36,13a1,1,0,1,1,1.89.25l-1,7.63A1,1,0,0,1,35.91,21.68Z"/></g></g></g></svg>