<svg xmlns="http://www.w3.org/2000/svg" viewBox="0 0 50 50"><defs><style>.cls-1{fill:#353942;}.cls-2{fill:#5b616b;}</style></defs><g id="Layer_2" data-name="Layer 2"><g id="Layer_151" data-name="Layer 151"><g id="Rotate3D"><path class="cls-1" d="M25,50A25,25,0,1,1,50,25,25,25,0,0,1,25,50Z"/><path class="cls-2" d="M17.81,26a.47.47,0,0,1-.42-.26.48.48,0,0,1,.2-.64l.28-.14a.48.48,0,1,1,.43.85L18,26A.54.54,0,0,1,17.81,26Z"/><path class="cls-2" d="M19.29,25.26a.48.48,0,0,1-.22-.9l.6-.32a.48.48,0,0,1,.65.21.47.47,0,0,1-.21.64l-.6.31A.43.43,0,0,1,19.29,25.26Zm1.81-.94a.48.48,0,0,1-.22-.9l.6-.31a.47.47,0,0,1,.44.84l-.6.31A.46.46,0,0,1,21.1,24.32Zm1.81-.94a.49.49,0,0,1-.43-.26.47.47,0,0,1,.21-.64l.6-.31a.47.47,0,0,1,.44.84l-.6.32A.59.59,0,0,1,22.91,23.38Z"/><path class="cls-2" d="M24.72,22.44a.48.48,0,0,1-.22-.9l.27-.14a.49.49,0,0,1,.44,0l.27.14a.48.48,0,0,1,.2.64.47.47,0,0,1-.64.21l-.05,0-.06,0A.54.54,0,0,1,24.72,22.44Z"/><path class="cls-2" d="M30.7,25.26a.42.42,0,0,1-.21-.06l-.61-.31a.48.48,0,0,1-.2-.64.47.47,0,0,1,.64-.21l.6.32a.47.47,0,0,1,.21.64A.49.49,0,0,1,30.7,25.26Zm-1.81-.94a.46.46,0,0,1-.22-.06l-.6-.31a.47.47,0,1,1,.43-.84l.61.31a.48.48,0,0,1-.22.9Zm-1.82-.94a.54.54,0,0,1-.21-.05L26.25,23a.47.47,0,1,1,.44-.84l.6.31a.48.48,0,0,1-.22.9Z"/><path class="cls-2" d="M32.19,26A.54.54,0,0,1,32,26l-.27-.14a.48.48,0,0,1,.43-.85l.28.14a.48.48,0,0,1,.2.64A.46.46,0,0,1,32.19,26Z"/><path class="cls-2" d="M25,14a.47.47,0,0,1-.48-.47V13.2a.48.48,0,0,1,.95,0v.31A.47.47,0,0,1,25,14Z"/><path class="cls-2" d="M25,19.57a.47.47,0,0,1-.48-.47v-.63a.48.48,0,0,1,.95,0v.63A.47.47,0,0,1,25,19.57Zm0-1.86a.47.47,0,0,1-.48-.48v-.62a.48.48,0,0,1,.95,0v.62A.47.47,0,0,1,25,17.71Zm0-1.86a.48.48,0,0,1-.48-.48v-.62a.48.48,0,1,1,.95,0v.62A.48.48,0,0,1,25,15.85Z"/><path class="cls-2" d="M25,21.12a.47.47,0,0,1-.48-.48v-.3a.48.48,0,1,1,.95,0v.3A.47.47,0,0,1,25,21.12Z"/><path class="cls-2" d="M25,30.38a.92.92,0,0,1-.95-.95V20.64a.93.93,0,0,1,.51-.84l7.2-3.72a1,1,0,0,1,1.39.84v8.79a1,1,0,0,1-.52.85l-7.2,3.72A.91.91,0,0,1,25,30.38Zm1-9.16v6.65l5.29-2.74V18.49Z"/><path class="cls-2" d="M25,30.38a1,1,0,0,1-.44-.1l-7.18-3.72a1,1,0,0,1-.51-.85V16.92a1,1,0,0,1,1.39-.84l7.18,3.72a1,1,0,0,1,.51.84v8.79a1,1,0,0,1-.46.82A1,1,0,0,1,25,30.38Zm-6.22-5.25L24,27.87V21.22l-5.27-2.73Z"/><path class="cls-2" d="M25,21.6a1,1,0,0,1-.44-.11l-7.18-3.72a1,1,0,0,1-.51-.85,1,1,0,0,1,.51-.84l7.18-3.72a.9.9,0,0,1,.87,0l7.2,3.72a.95.95,0,0,1,0,1.69l-7.2,3.72A.92.92,0,0,1,25,21.6Zm-5.11-4.68L25,19.57l5.12-2.65L25,14.27Z"/><path class="cls-2" d="M24.82,35.2h0c-7-.13-12.7-3.62-12.7-7.79,0-2.31,1.71-4.45,4.7-5.87.2-.1.42-.19.64-.28a.94.94,0,0,1,1.24.51A1,1,0,0,1,18.18,23l-.55.24c-2.3,1.1-3.61,2.61-3.61,4.15,0,3,5.05,5.78,10.82,5.88a1,1,0,0,1,0,1.91Z"/><path class="cls-2" d="M29.83,34.39a.95.95,0,0,1-.23-1.87c3.8-.94,6.35-3,6.35-5.11,0-1.54-1.3-3-3.58-4.13L31.82,23a1,1,0,1,1,.74-1.76l.64.29c3,1.42,4.66,3.55,4.66,5.85,0,3.06-3.07,5.79-7.81,7Z"/><path class="cls-2" d="M21.71,37.86a1,1,0,0,1-.73-.34,1,1,0,0,1,.11-1.34l2.39-2-2-2.39a1,1,0,0,1,1.45-1.24l2.66,3.12A1,1,0,0,1,25.44,35l-3.11,2.66A1,1,0,0,1,21.71,37.86Z"/></g></g></g></svg>