<svg xmlns="http://www.w3.org/2000/svg" viewBox="0 0 50 50"><defs><style>.cls-1{fill:#353942;}.cls-2{fill:#5b616b;}</style></defs><g id="Layer_2" data-name="Layer 2"><g id="Layer_151" data-name="Layer 151"><g id="Ruler"><path class="cls-1" d="M25,50A25,25,0,1,1,50,25,25,25,0,0,1,25,50Z"/><path class="cls-2" d="M18.15,31.05a.92.92,0,0,1-.67-.28l-2.07-2.06a1,1,0,0,1,1.35-1.35l2.06,2.07a1,1,0,0,1-.67,1.62Z"/><path class="cls-2" d="M21.14,28.06a1,1,0,0,1-.68-.27L18.4,25.72a1,1,0,0,1,1.34-1.35l2.07,2.07a.95.95,0,0,1-.67,1.62Z"/><path class="cls-2" d="M27.11,22.09a.92.92,0,0,1-.67-.28l-2.07-2.07a1,1,0,0,1,1.35-1.34l2.07,2.06a1,1,0,0,1,0,1.35A.94.94,0,0,1,27.11,22.09Z"/><path class="cls-2" d="M30.1,19.1a.92.92,0,0,1-.67-.28l-2.07-2.06a1,1,0,0,1,1.35-1.35l2.06,2.07a1,1,0,0,1,0,1.34A.92.92,0,0,1,30.1,19.1Z"/><path class="cls-2" d="M25.22,26.17a1,1,0,0,1-.67-.27l-3.17-3.17a1,1,0,0,1,1.35-1.35l3.17,3.17a1,1,0,0,1,0,1.35A1,1,0,0,1,25.22,26.17Z"/><path class="cls-2" d="M19,37.86a1,1,0,0,1-.67-.28l-5.89-5.89a.94.94,0,0,1,0-1.34L30.35,12.42a1,1,0,0,1,1.34,0l5.89,5.89a1,1,0,0,1,0,1.34L19.65,37.58A1,1,0,0,1,19,37.86ZM14.44,31,19,35.56,35.56,19,31,14.44Z"/></g></g></g></svg>