<svg xmlns="http://www.w3.org/2000/svg" viewBox="0 0 50 50"><defs><style>.cls-1{fill:#353942;}.cls-2{fill:#5b616b;}</style></defs><g id="Layer_2" data-name="Layer 2"><g id="Layer_151" data-name="Layer 151"><g id="SaveTemplate"><path class="cls-1" d="M25,50A25,25,0,1,1,50,25,25,25,0,0,1,25,50Z"/><path class="cls-2" d="M15.06,37.86h-2a1,1,0,0,1-1-1V13.1a1,1,0,0,1,1-1h16a3.28,3.28,0,0,1,2.27.9l1.76,1.63a1,1,0,1,1-1.3,1.39L30.1,14.43a1.42,1.42,0,0,0-1-.38H14.05V36h1a1,1,0,0,1,0,1.91Z"/><path class="cls-2" d="M36.9,37.86H32.5a1,1,0,0,1,0-1.91H36V28a1,1,0,1,1,1.91,0V36.9A1,1,0,0,1,36.9,37.86Z"/><path class="cls-2" d="M32.5,37.86H26.58a1,1,0,0,1,0-1.91h5V30.71a.95.95,0,1,1,1.9,0V36.9A1,1,0,0,1,32.5,37.86Z"/><path class="cls-2" d="M17.5,31.67a1,1,0,0,1-.95-1V26A1,1,0,0,1,17.5,25h3.1a.95.95,0,1,1,0,1.9H18.45v3.81A1,1,0,0,1,17.5,31.67Z"/><path class="cls-2" d="M28.87,22H16.79a1,1,0,0,1-1-.95V13.1a1,1,0,0,1,1-1H28.87a1,1,0,0,1,.95,1V21A1,1,0,0,1,28.87,22Zm-11.13-1.9H27.92v-6H17.74Z"/><rect class="cls-2" x="16.79" y="13.1" width="2.92" height="7.92"/><path class="cls-2" d="M19.7,22H16.79a1,1,0,0,1-1-.95V13.1a1,1,0,0,1,1-1H19.7a1,1,0,0,1,.95,1V21A.94.94,0,0,1,19.7,22Zm-2-1.9h1v-6h-1Z"/><path class="cls-2" d="M18.66,37.86a1,1,0,0,1-.91-1.22L19,32.5a1.14,1.14,0,0,1,.24-.41L30.91,20.38a1,1,0,0,1,1.34,0l2.93,2.92a1,1,0,0,1,0,1.35L23.47,36.36a.91.91,0,0,1-.4.24l-4.14,1.22A1.26,1.26,0,0,1,18.66,37.86Zm2.06-4.59-.65,2.23,2.23-.66L33.16,24,31.58,22.4Z"/><path class="cls-2" d="M34.5,24.93a1,1,0,0,1-.67-1.63l2-2a.43.43,0,0,0,0-.6l-1-1a.42.42,0,0,0-.59,0l-2,2a1,1,0,1,1-1.34-1.35l2-2a2.33,2.33,0,0,1,3.29,0l1,1A2.29,2.29,0,0,1,37.86,21a2.34,2.34,0,0,1-.68,1.65l-2,2A.92.92,0,0,1,34.5,24.93Z"/><polygon class="cls-2" points="18.66 36.91 22.48 35.48 20.09 33.09 18.66 36.9 18.66 36.91 18.66 36.9 18.66 36.91 18.66 36.91"/><path class="cls-2" d="M18.66,37.62h0a.71.71,0,0,1-.67-.48.66.66,0,0,1,0-.48v0l1.42-3.78a.7.7,0,0,1,.51-.45.72.72,0,0,1,.66.19L23,35a.68.68,0,0,1,.19.65.72.72,0,0,1-.44.52l-3.82,1.42A.7.7,0,0,1,18.66,37.62Zm1.71-3.24-.49,1.31,1.31-.49Z"/></g></g></g></svg>