<?xml version="1.0" encoding="iso-8859-1"?>
<!-- Generator: Adobe Illustrator 21.1.0, SVG Export Plug-In . SVG Version: 6.00 Build 0)  -->
<svg version="1.1" xmlns="http://www.w3.org/2000/svg" xmlns:xlink="http://www.w3.org/1999/xlink" x="0px" y="0px"
	 viewBox="0 0 49.996 49.996" style="enable-background:new 0 0 49.996 49.996;" xml:space="preserve">
<g id="SaveStudyLayout">
	<path style="fill:#353942;" d="M2.5,0C1.119,0,0,1.119,0,2.5v44.996c0,1.381,1.119,2.5,2.5,2.5h44.996c1.381,0,2.5-1.119,2.5-2.5
		V2.5c0-1.381-1.119-2.5-2.5-2.5H2.5z"/>
	<path style="fill:#5B616B;" d="M37.381,17.712l-5.671-5.276c-0.649-0.604-1.496-0.938-2.384-0.938H12.497c-0.552,0-1,0.448-1,1v25
		c0,0.552,0.448,1,1,1h25c0.552,0,1-0.448,1-1V20.274C38.497,19.306,38.09,18.372,37.381,17.712z M20.434,13.498h7.625v6.313h-7.625
		V13.498z M31.872,36.498h-13.75v-9.5h13.75V36.498z M36.497,36.498h-2.625v-10.5c0-0.552-0.448-1-1-1h-15.75c-0.552,0-1,0.448-1,1
		v10.5h-2.625v-23h1.875v7.313c0,0.552,0.448,1,1,1h12.688c0.552,0,1-0.448,1-1v-7.116c0.102,0.058,0.201,0.123,0.289,0.205v0
		l5.671,5.276c0.304,0.283,0.478,0.683,0.478,1.098V36.498z M25.142,33.988c-0.538,0-1.041-0.178-1.54-0.545
		c-0.143-0.1-0.296-0.148-0.468-0.148c-0.434,0-0.773,0.335-0.773,0.764c0,0.248,0.12,0.487,0.313,0.624
		c0.7,0.502,1.567,0.779,2.44,0.779c1.482,0,2.439-0.816,2.439-2.096c0-1.217-0.836-1.685-2.093-2.012
		c-1.116-0.286-1.265-0.401-1.265-0.725c0-0.258,0.269-0.424,0.685-0.424c0.389,0,0.789,0.129,1.26,0.406
		c0.138,0.081,0.266,0.116,0.415,0.116c0.434,0,0.773-0.335,0.773-0.764c0-0.325-0.19-0.552-0.364-0.655
		c-0.604-0.383-1.298-0.578-2.065-0.578c-1.372,0-2.331,0.833-2.331,2.043c0,1.378,0.989,1.742,2.183,2.047
		c1.096,0.281,1.175,0.444,1.175,0.698C25.926,33.812,25.633,33.988,25.142,33.988z"/>
</g>
<g id="Layer_1">
</g>
</svg>
