<svg id="Layer_1" data-name="Layer 1" xmlns="http://www.w3.org/2000/svg" xmlns:xlink="http://www.w3.org/1999/xlink" viewBox="0 0 612 612"><defs><style>.cls-1{stroke:#232323;stroke-miterlimit:10;stroke-width:1.31px;fill:url(#linear-gradient);}</style><linearGradient id="linear-gradient" x1="306" y1="29.81" x2="306" y2="582.19" gradientUnits="userSpaceOnUse"><stop offset="0" stop-color="#fafafa"/><stop offset="1" stop-color="#ebebeb"/></linearGradient></defs><path class="cls-1" d="M559.23,156.94,443.26,49a71.28,71.28,0,0,0-48.74-19.19H50.4A20.46,20.46,0,0,0,30,50.27V561.73A20.46,20.46,0,0,0,50.4,582.19H561.6a20.46,20.46,0,0,0,20.45-20.46V209.35A71.9,71.9,0,0,0,559.23,156.94ZM368.61,70.72V199.88H212.7V70.72Zm78,318.81H165.42V346.92H446.58ZM165.42,541.27V430.45H446.58V541.27Zm375.73,0H487.48V326.46A20.47,20.47,0,0,0,467,306H145a20.46,20.46,0,0,0-20.44,20.46V541.27H70.85V70.72h38.34V220.34a20.46,20.46,0,0,0,20.45,20.46H389.08a20.47,20.47,0,0,0,20.45-20.46V74.76A30.81,30.81,0,0,1,415.44,79h0l116,107.94a30.78,30.78,0,0,1,9.78,22.47V541.27Z"/></svg>