<svg xmlns="http://www.w3.org/2000/svg" viewBox="0 0 50 50"><defs><style>.cls-1{fill:#353942;}.cls-2{fill:#5b616b;}</style></defs><g id="Layer_2" data-name="Layer 2"><g id="Layer_151" data-name="Layer 151"><g id="SaveHangingProtocol"><path class="cls-1" d="M25,50A25,25,0,1,1,50,25,25,25,0,0,1,25,50Z"/><path class="cls-2" d="M36.9,37.86H13.1a1,1,0,0,1-1-1V13.1a1,1,0,0,1,1-1h16a3.28,3.28,0,0,1,2.27.9l5.4,5a3.34,3.34,0,0,1,1.07,2.44V36.9A1,1,0,0,1,36.9,37.86ZM14.05,36H36V20.5a1.44,1.44,0,0,0-.45-1.05l-5.4-5h0a1.42,1.42,0,0,0-1-.38H14.05Z"/><path class="cls-2" d="M32.5,37.86h-15a1,1,0,0,1-.95-1V26A1,1,0,0,1,17.5,25h15a1,1,0,0,1,1,.95v11A1,1,0,0,1,32.5,37.86ZM18.45,36h13.1V26.9H18.45Z"/><path class="cls-2" d="M28.87,22H16.79a1,1,0,0,1-1-.95V13.1a1,1,0,0,1,1-1H28.87a1,1,0,0,1,.95,1V21A1,1,0,0,1,28.87,22Zm-11.13-1.9H27.92v-6H17.74Z"/><rect class="cls-2" x="16.79" y="13.1" width="2.92" height="7.92"/><path class="cls-2" d="M19.7,22H16.79a1,1,0,0,1-1-.95V13.1a1,1,0,0,1,1-1H19.7a1,1,0,0,1,.95,1V21A.94.94,0,0,1,19.7,22Zm-2-1.9h1v-6h-1Z"/><path class="cls-2" d="M22.46,29.37a.66.66,0,0,1,1.32,0v1.76h2.44V29.37a.66.66,0,0,1,1.32,0v4.78a.66.66,0,1,1-1.32,0v-1.8H23.78v1.8a.66.66,0,1,1-1.32,0Z"/><path class="cls-2" d="M26.88,34.93a.77.77,0,0,1-.78-.78V32.47H23.9v1.68a.78.78,0,0,1-1.56,0V29.37a.78.78,0,0,1,1.56,0V31h2.2V29.37a.78.78,0,1,1,1.56,0v4.78A.77.77,0,0,1,26.88,34.93Zm-3.22-2.7h2.68v1.92a.54.54,0,1,0,1.08,0V29.37a.54.54,0,1,0-1.08,0v1.88H23.66V29.37a.53.53,0,0,0-.54-.54.53.53,0,0,0-.54.54v4.78a.53.53,0,0,0,.54.54.53.53,0,0,0,.54-.54Z"/></g></g></g></svg>