<svg id="Layer_1" data-name="Layer 1" xmlns="http://www.w3.org/2000/svg" xmlns:xlink="http://www.w3.org/1999/xlink" viewBox="0 0 612 612"><defs><style>.cls-1{stroke:#232323;stroke-miterlimit:10;stroke-width:1.81px;fill:url(#linear-gradient);}</style><linearGradient id="linear-gradient" x1="306" y1="30.26" x2="306" y2="581.74" gradientUnits="userSpaceOnUse"><stop offset="0" stop-color="#fafafa"/><stop offset="1" stop-color="#ebebeb"/></linearGradient></defs><path id="SaveTemplate" class="cls-1" d="M165.65,428.55v-81.7h45.93a20.43,20.43,0,0,0,0-40.85H145.24a20.43,20.43,0,0,0-20.42,20.43V428.55a20.42,20.42,0,1,0,40.83,0Zm395.53-77.88a20.42,20.42,0,0,0-20.41,20.43V540.87H487.18V428.53a20.42,20.42,0,1,0-40.83,0V540.87H339.91a20.43,20.43,0,0,0,0,40.86H561.18a20.43,20.43,0,0,0,20.41-20.43V371.09A20.42,20.42,0,0,0,561.18,350.67ZM129.93,240.89h259a20.43,20.43,0,0,0,20.42-20.43V75.11a31.64,31.64,0,0,1,5.9,4.19l37.62,35a20.41,20.41,0,1,0,27.8-29.9l-37.62-35a71.1,71.1,0,0,0-48.67-19.16H50.82A20.43,20.43,0,0,0,30.4,50.69V561.31a20.43,20.43,0,0,0,20.42,20.43H92.93a20.43,20.43,0,0,0,0-40.85H71.23V71.11h38.28V220.48A20.41,20.41,0,0,0,129.93,240.89ZM212.85,71.11H368.51V200.05H212.85ZM524.13,298.42,567,255.73A50,50,0,0,0,567,185.1l-20.84-20.83a49.88,49.88,0,0,0-70.62-.08l-42.89,42.75,0,0,0,0L181.76,458.15a20.58,20.58,0,0,0-5.15,8.68l-26.07,88.72a20.42,20.42,0,0,0,19.58,26.19,20,20,0,0,0,5.76-.83l88.68-26.11a20.24,20.24,0,0,0,8.67-5.15l250.9-251.21ZM254,511.15l-33.72-33.74L447.06,250.28,480.81,284ZM476,221.44l28.46-28.35a9.16,9.16,0,0,1,12.82.06l20.93,20.92a8.63,8.63,0,0,1,2.59,6.47,8.9,8.9,0,0,1-2.62,6.35L509.7,255.2Z"/></svg>