<svg xmlns="http://www.w3.org/2000/svg" viewBox="0 0 50 50"><defs><style>.cls-1{fill:#353942;}.cls-2{fill:#5b616b;}</style></defs><g id="Layer_2" data-name="Layer 2"><g id="Layer_151" data-name="Layer 151"><g id="SaveLayout"><path class="cls-1" d="M25,50A25,25,0,1,1,50,25,25,25,0,0,1,25,50Z"/><path class="cls-2" d="M36.9,37.86H13.1a1,1,0,0,1-1-1V13.1a1,1,0,0,1,1-1h16a3.28,3.28,0,0,1,2.27.9l5.4,5a3.34,3.34,0,0,1,1.07,2.44V36.9A1,1,0,0,1,36.9,37.86ZM14.05,36H36V20.5a1.44,1.44,0,0,0-.45-1.05l-5.4-5h0a1.42,1.42,0,0,0-1-.38H14.05Z"/><path class="cls-2" d="M33.49,37.86h-17a1,1,0,0,1-1-1V27.38A2.38,2.38,0,0,1,17.94,25h2.24a.95.95,0,1,1,0,1.9H17.94a.48.48,0,0,0-.48.48V36H32.54V27.38a.48.48,0,0,0-.48-.48H29.82a.95.95,0,1,1,0-1.9h2.24a2.38,2.38,0,0,1,2.38,2.38V36.9A1,1,0,0,1,33.49,37.86Z"/><path class="cls-2" d="M28.87,22H16.79a1,1,0,0,1-1-.95V13.1a1,1,0,0,1,1-1H28.87a1,1,0,0,1,.95,1V21A1,1,0,0,1,28.87,22Zm-11.13-1.9H27.92v-6H17.74Z"/><rect class="cls-2" x="16.79" y="13.1" width="2.92" height="7.92"/><path class="cls-2" d="M19.7,22H16.79a1,1,0,0,1-1-.95V13.1a1,1,0,0,1,1-1H19.7a1,1,0,0,1,.95,1V21A.94.94,0,0,1,19.7,22Zm-2-1.9h1v-6h-1Z"/><path class="cls-2" d="M29.82,35.24H20.18a1,1,0,0,1-.95-1V24.64a1,1,0,0,1,.95-.95h9.64a1,1,0,0,1,.95.95v9.65A1,1,0,0,1,29.82,35.24Zm-8.69-1.91h7.74V25.6H21.13Z"/></g></g></g></svg>