<svg xmlns="http://www.w3.org/2000/svg" viewBox="0 0 50 50"><defs><style>.cls-1{fill:#353942;}.cls-2{fill:#5b616b;}</style></defs><g id="Layer_2" data-name="Layer 2"><g id="Layer_151" data-name="Layer 151"><g id="ScrollRow"><path class="cls-1" d="M25,50A25,25,0,1,1,50,25,25,25,0,0,1,25,50Z"/><path class="cls-2" d="M13.1,37.86a1,1,0,0,1-1-1V13.1a1,1,0,1,1,1.91,0V36.9A1,1,0,0,1,13.1,37.86Z"/><path class="cls-2" d="M36.9,37.86a1,1,0,0,1-.95-1V13.1a1,1,0,1,1,1.91,0V36.9A1,1,0,0,1,36.9,37.86Z"/><path class="cls-2" d="M30.4,31.15H19.6a1,1,0,1,1,0-1.9H30.4a.95.95,0,0,1,0,1.9Z"/><path class="cls-2" d="M22.71,34.26A.94.94,0,0,1,22,34l-3.11-3.11a1,1,0,0,1-.28-.67.93.93,0,0,1,.28-.67L22,26.41a1,1,0,0,1,1.35,1.35L21,30.2l2.44,2.44a1,1,0,0,1-.68,1.62Z"/><path class="cls-2" d="M30.4,20.75H19.6a1,1,0,1,1,0-1.9H30.4a.95.95,0,0,1,0,1.9Z"/><path class="cls-2" d="M27.29,23.86a1,1,0,0,1-.68-.27,1,1,0,0,1,0-1.35l2.44-2.44-2.44-2.44a1,1,0,0,1,0-1.34A1,1,0,0,1,28,16l3.11,3.11a1,1,0,0,1,0,1.35L28,23.59A1,1,0,0,1,27.29,23.86Z"/></g></g></g></svg>