<svg xmlns="http://www.w3.org/2000/svg" viewBox="0 0 50 50"><defs><style>.cls-1{fill:#353942;}.cls-2{fill:#5b616b;}</style></defs><g id="Layer_2" data-name="Layer 2"><g id="Layer_151" data-name="Layer 151"><g id="ScrollColumn"><path class="cls-1" d="M25,50A25,25,0,1,1,50,25,25,25,0,0,1,25,50Z"/><path class="cls-2" d="M36.9,14.05H13.1a1,1,0,1,1,0-1.91H36.9a1,1,0,1,1,0,1.91Z"/><path class="cls-2" d="M36.9,37.86H13.1a1,1,0,1,1,0-1.91H36.9a1,1,0,1,1,0,1.91Z"/><path class="cls-2" d="M19.8,31.35a1,1,0,0,1-.95-1V19.6a1,1,0,0,1,1.9,0V30.4A1,1,0,0,1,19.8,31.35Z"/><path class="cls-2" d="M16.69,23.67A1,1,0,0,1,16,22l3.11-3.11a1,1,0,0,1,.67-.28h0a1,1,0,0,1,.68.28L23.59,22a1,1,0,0,1-1.35,1.35L19.8,21l-2.44,2.44A1,1,0,0,1,16.69,23.67Z"/><path class="cls-2" d="M30.2,31.35a1,1,0,0,1-.95-1V19.6a1,1,0,0,1,1.9,0V30.4A1,1,0,0,1,30.2,31.35Z"/><path class="cls-2" d="M30.2,31.35a.91.91,0,0,1-.67-.28L26.41,28a1,1,0,0,1,1.35-1.35l2.44,2.44,2.44-2.44a1,1,0,0,1,1.34,0A1,1,0,0,1,34,28l-3.11,3.11A.92.92,0,0,1,30.2,31.35Z"/></g></g></g></svg>