<svg xmlns="http://www.w3.org/2000/svg" viewBox="0 0 50 50"><defs><style>.cls-1{fill:#353942;}.cls-2{fill:#5b616b;}</style></defs><g id="Layer_2" data-name="Layer 2"><g id="Layer_151" data-name="Layer 151"><g id="ScrollFrame"><path class="cls-1" d="M25,50A25,25,0,1,1,50,25,25,25,0,0,1,25,50Z"/><path class="cls-2" d="M36.9,29.76H13.1a1,1,0,0,1-1-1V13.1a1,1,0,0,1,1-1H36.9a1,1,0,0,1,1,1V28.81A1,1,0,0,1,36.9,29.76Zm-22.85-1.9H36V14.05H14.05Z"/><circle class="cls-2" cx="25" cy="34.49" r="2.41"/><circle class="cls-2" cx="17.65" cy="34.49" r="1.51"/><circle class="cls-2" cx="32.35" cy="34.49" r="1.51"/></g></g></g></svg>