<svg xmlns="http://www.w3.org/2000/svg" viewBox="0 0 50 50"><defs><style>.cls-1{fill:#353942;}.cls-2{fill:#5b616b;}</style></defs><g id="Layer_2" data-name="Layer 2"><g id="Layer_151" data-name="Layer 151"><g id="ScrollPage"><path class="cls-1" d="M25,50A25,25,0,1,1,50,25,25,25,0,0,1,25,50Z"/><path class="cls-2" d="M26.69,35.32H23.31a4.7,4.7,0,0,1-4.69-4.7V19.38a4.7,4.7,0,0,1,4.69-4.7h3.38a4.7,4.7,0,0,1,4.69,4.7V30.62A4.7,4.7,0,0,1,26.69,35.32ZM23.31,16.59a2.79,2.79,0,0,0-2.79,2.79V30.62a2.79,2.79,0,0,0,2.79,2.79h3.38a2.79,2.79,0,0,0,2.79-2.79V19.38a2.79,2.79,0,0,0-2.79-2.79Z"/><path class="cls-2" d="M25,23.79a.94.94,0,0,1-.95-.95V20A.95.95,0,0,1,26,20v2.86A.94.94,0,0,1,25,23.79Z"/><path class="cls-2" d="M16.83,37.86H15.48a3.35,3.35,0,0,1-3.34-3.34v-19a3.35,3.35,0,0,1,3.34-3.34h1.35a1,1,0,0,1,0,1.91H15.48a1.43,1.43,0,0,0-1.43,1.43v19A1.43,1.43,0,0,0,15.48,36h1.35a1,1,0,0,1,0,1.91Z"/><path class="cls-2" d="M34.52,37.86H33.17a1,1,0,0,1,0-1.91h1.35A1.43,1.43,0,0,0,36,34.52v-19a1.43,1.43,0,0,0-1.43-1.43H33.17a1,1,0,0,1,0-1.91h1.35a3.35,3.35,0,0,1,3.34,3.34v19A3.35,3.35,0,0,1,34.52,37.86Z"/></g></g></g></svg>