<svg xmlns="http://www.w3.org/2000/svg" viewBox="0 0 50 50"><defs><style>.cls-1{fill:#353942;}.cls-2{fill:#5b616b;}</style></defs><g id="Layer_2" data-name="Layer 2"><g id="Layer_151" data-name="Layer 151"><g id="SecondaryCapture"><path class="cls-1" d="M25,50A25,25,0,1,1,50,25,25,25,0,0,1,25,50Z"/><path class="cls-2" d="M25,34a10.24,10.24,0,0,1-7.26-3h0l-5.32-5.32a1,1,0,0,1,0-1.34L17.74,19a10.26,10.26,0,0,1,14.52,0l5.32,5.32a.94.94,0,0,1,0,1.34L32.26,31A10.24,10.24,0,0,1,25,34Zm-5.92-4.35a8.39,8.39,0,0,0,11.84,0L35.56,25l-4.64-4.64a8.38,8.38,0,0,0-11.84,0L14.44,25Z"/><path class="cls-2" d="M25,29.16A4.16,4.16,0,1,1,29.16,25,4.17,4.17,0,0,1,25,29.16Zm0-6.42A2.26,2.26,0,1,0,27.26,25,2.27,2.27,0,0,0,25,22.74Z"/><path class="cls-2" d="M34.52,37.86h-19a3.35,3.35,0,0,1-3.34-3.34V31a1,1,0,0,1,1.91,0v3.49A1.43,1.43,0,0,0,15.48,36h19A1.43,1.43,0,0,0,36,34.52V31a1,1,0,0,1,1.91,0v3.49A3.35,3.35,0,0,1,34.52,37.86Z"/><path class="cls-2" d="M36.9,19.92A1,1,0,0,1,36,19V15.48a1.43,1.43,0,0,0-1.43-1.43h-19a1.43,1.43,0,0,0-1.43,1.43V19a1,1,0,0,1-1.91,0V15.48a3.35,3.35,0,0,1,3.34-3.34h19a3.35,3.35,0,0,1,3.34,3.34V19A1,1,0,0,1,36.9,19.92Z"/></g></g></g></svg>