<svg xmlns="http://www.w3.org/2000/svg" viewBox="0 0 50 50"><defs><style>.cls-1{fill:#353942;}.cls-2{fill:#5b616b;}</style></defs><g id="Layer_2" data-name="Layer 2"><g id="Layer_151" data-name="Layer 151"><g id="Select"><path class="cls-1" d="M25,50A25,25,0,1,1,50,25,25,25,0,0,1,25,50Z"/><g id="Clicker"><path class="cls-2" d="M31.72,37.13H21.49a3.6,3.6,0,0,1-3.6-3.6V32.22l-2.81-.83a3.62,3.62,0,0,1-2.58-3.45v-.46a3.4,3.4,0,0,1,3.4-3.39h1.8V14.27a3.1,3.1,0,0,1,3.09-3.08h1a3.09,3.09,0,0,1,3.08,3.08v4.36l7.4,1.23a3.61,3.61,0,0,1,3,3.56V33.53A3.6,3.6,0,0,1,31.72,37.13ZM15.9,26.08a1.4,1.4,0,0,0-1.4,1.4v.46a1.61,1.61,0,0,0,1.15,1.53l3.52,1.05a1,1,0,0,1,.72.95v2.06a1.6,1.6,0,0,0,1.6,1.6H31.72a1.6,1.6,0,0,0,1.6-1.6V23.42A1.59,1.59,0,0,0,32,21.84l-8.24-1.38a1,1,0,0,1-.83-1V14.27a1.09,1.09,0,0,0-1.08-1.08h-1a1.09,1.09,0,0,0-1.09,1.08V25.09a1,1,0,0,1-1,1Z"/></g></g></g></g></svg>