<svg id="Layer_1" data-name="Layer 1" xmlns="http://www.w3.org/2000/svg" xmlns:xlink="http://www.w3.org/1999/xlink" viewBox="0 0 612 612"><defs><style>.cls-1{stroke:#232323;stroke-miterlimit:10;stroke-width:1.81px;fill:url(#linear-gradient);}</style><linearGradient id="linear-gradient" x1="306" y1="30.76" x2="306" y2="581.24" gradientUnits="userSpaceOnUse"><stop offset="0" stop-color="#fafafa"/><stop offset="1" stop-color="#ebebeb"/></linearGradient></defs><path id="SeriesLayout" class="cls-1" d="M257.6,30.76H51.29A20.4,20.4,0,0,0,30.91,51.15V257.58A20.4,20.4,0,0,0,51.29,278H257.6A20.4,20.4,0,0,0,278,257.58V51.15A20.4,20.4,0,0,0,257.6,30.76ZM237.23,237.19H71.66V71.54H237.23ZM257.6,334H51.29a20.4,20.4,0,0,0-20.38,20.39V560.85a20.4,20.4,0,0,0,20.38,20.39H257.6A20.4,20.4,0,0,0,278,560.85V354.42A20.4,20.4,0,0,0,257.6,334ZM237.23,540.46H71.66V374.81H237.23ZM560.71,30.76H354.4A20.4,20.4,0,0,0,334,51.15V257.58A20.4,20.4,0,0,0,354.4,278H560.71a20.4,20.4,0,0,0,20.38-20.39V51.15A20.4,20.4,0,0,0,560.71,30.76ZM540.33,237.19H374.77V71.54H540.33ZM560.71,334H354.4A20.4,20.4,0,0,0,334,354.42V560.85a20.4,20.4,0,0,0,20.38,20.39H560.71a20.4,20.4,0,0,0,20.38-20.39V354.42A20.4,20.4,0,0,0,560.71,334ZM540.33,540.46H374.77V374.81H540.33Z"/></svg>