<svg xmlns="http://www.w3.org/2000/svg" viewBox="0 0 50 50"><defs><style>.cls-1{fill:#353942;}.cls-2{fill:#5b616b;}</style></defs><g id="Layer_2" data-name="Layer 2"><g id="Layer_151" data-name="Layer 151"><g id="Settings3D"><path class="cls-1" d="M25,50A25,25,0,1,1,50,25,25,25,0,0,1,25,50Z"/><path class="cls-2" d="M30.34,16.41a.49.49,0,0,1-.44-.27.5.5,0,0,1,.24-.64l.43-.19a.47.47,0,0,1,.4.86l-.43.2A.51.51,0,0,1,30.34,16.41Z"/><path class="cls-2" d="M20.84,20.75a.47.47,0,0,1-.43-.28.48.48,0,0,1,.24-.63l.79-.36a.47.47,0,1,1,.39.86l-.79.37A.65.65,0,0,1,20.84,20.75Zm2.38-1.08a.5.5,0,0,1-.44-.28.47.47,0,0,1,.24-.63l.79-.37a.48.48,0,0,1,.4.87l-.8.36A.45.45,0,0,1,23.22,19.67Zm2.37-1.09a.47.47,0,0,1-.43-.28.47.47,0,0,1,.23-.63l.79-.36a.48.48,0,0,1,.4.87l-.79.36A.48.48,0,0,1,25.59,18.58ZM28,17.5a.48.48,0,0,1-.43-.28.48.48,0,0,1,.24-.63l.79-.36a.47.47,0,1,1,.39.86l-.79.36A.46.46,0,0,1,28,17.5Z"/><path class="cls-2" d="M18.83,22.14a.48.48,0,0,1-.48-.47v-.48a.48.48,0,0,1,.28-.43l.43-.2a.48.48,0,0,1,.4.87l-.16.07v.17A.47.47,0,0,1,18.83,22.14Z"/><path class="cls-2" d="M18.83,32.37a.48.48,0,0,1-.48-.47v-.85a.48.48,0,0,1,.48-.48.47.47,0,0,1,.47.48v.85A.47.47,0,0,1,18.83,32.37Zm0-2.55a.49.49,0,0,1-.48-.48v-.85a.49.49,0,0,1,.48-.48.48.48,0,0,1,.47.48v.85A.48.48,0,0,1,18.83,29.82Zm0-2.56a.48.48,0,0,1-.48-.48v-.85a.49.49,0,0,1,.48-.48.48.48,0,0,1,.47.48v.85A.47.47,0,0,1,18.83,27.26Zm0-2.56a.48.48,0,0,1-.48-.47v-.86a.48.48,0,0,1,.48-.47.47.47,0,0,1,.47.47v.86A.47.47,0,0,1,18.83,24.7Z"/><path class="cls-2" d="M18.83,34.56a.49.49,0,0,1-.48-.48V33.6a.48.48,0,0,1,.48-.47.47.47,0,0,1,.47.47v.48A.48.48,0,0,1,18.83,34.56Z"/><path class="cls-2" d="M19.26,16.41a.48.48,0,0,1-.2,0l-.43-.2a.47.47,0,1,1,.4-.86l.43.19a.48.48,0,0,1,.23.64A.47.47,0,0,1,19.26,16.41Z"/><path class="cls-2" d="M28.76,20.75a.65.65,0,0,1-.2,0l-.79-.37a.47.47,0,1,1,.39-.86l.79.36a.48.48,0,0,1,.24.63A.47.47,0,0,1,28.76,20.75Zm-2.38-1.08a.53.53,0,0,1-.2-.05l-.79-.36a.48.48,0,0,1,.4-.87l.79.37a.48.48,0,0,1,.24.63A.5.5,0,0,1,26.38,19.67ZM24,18.58a.45.45,0,0,1-.2,0L23,18.18a.48.48,0,0,1,.39-.87l.8.36a.47.47,0,0,1,.23.63A.47.47,0,0,1,24,18.58ZM21.63,17.5a.45.45,0,0,1-.19-.05l-.79-.36a.47.47,0,1,1,.39-.86l.79.36a.48.48,0,0,1,.24.63A.49.49,0,0,1,21.63,17.5Z"/><path class="cls-2" d="M30.77,22.14a.48.48,0,0,1-.48-.47V21.5l-.15-.07a.48.48,0,1,1,.4-.87l.43.2a.48.48,0,0,1,.28.43v.48A.48.48,0,0,1,30.77,22.14Z"/><path class="cls-2" d="M30.77,32.37a.48.48,0,0,1-.48-.47v-.85a.48.48,0,0,1,1,0v.85A.48.48,0,0,1,30.77,32.37Zm0-2.55a.49.49,0,0,1-.48-.48v-.85a.48.48,0,0,1,1,0v.85A.49.49,0,0,1,30.77,29.82Zm0-2.56a.48.48,0,0,1-.48-.48v-.85a.48.48,0,1,1,1,0v.85A.48.48,0,0,1,30.77,27.26Zm0-2.56a.48.48,0,0,1-.48-.47v-.86a.48.48,0,0,1,1,0v.86A.48.48,0,0,1,30.77,24.7Z"/><path class="cls-2" d="M30.77,34.56a.49.49,0,0,1-.48-.48V33.6a.48.48,0,0,1,1,0v.48A.49.49,0,0,1,30.77,34.56Z"/><path class="cls-2" d="M25.65,30.63a.5.5,0,0,1-.44-.28.48.48,0,0,1,.24-.63l.86-.4a.48.48,0,1,1,.4.87l-.87.39A.45.45,0,0,1,25.65,30.63Zm-1.73-.18a.46.46,0,0,1-.2-.05L22.85,30a.48.48,0,0,1,.4-.87l.86.4a.48.48,0,0,1,.24.63A.47.47,0,0,1,23.92,30.45Zm4.32-1a.47.47,0,0,1-.43-.28.48.48,0,0,1,.24-.63l.86-.4a.48.48,0,0,1,.4.87l-.87.4A.45.45,0,0,1,28.24,29.44Zm-6.92-.18a.46.46,0,0,1-.2-.05l-.87-.4a.48.48,0,0,1-.23-.63.47.47,0,0,1,.63-.23l.87.4a.47.47,0,0,1,.23.63A.48.48,0,0,1,21.32,29.26Zm9.52-1a.47.47,0,0,1-.43-.28.48.48,0,0,1,.23-.63l.87-.4a.48.48,0,0,1,.4.87l-.87.4A.45.45,0,0,1,30.84,28.25Zm-12.12-.19a.51.51,0,0,1-.2,0l-.86-.4a.47.47,0,1,1,.4-.86l.86.39a.48.48,0,0,1-.2.91Zm14.72-1a.47.47,0,0,1-.43-.28.47.47,0,0,1,.23-.63l.87-.39a.47.47,0,1,1,.39.86l-.86.4A.48.48,0,0,1,33.44,27.06Zm-17.31-.19a.45.45,0,0,1-.2,0l-.87-.4a.48.48,0,0,1,.4-.87l.87.4a.48.48,0,0,1,.23.63A.47.47,0,0,1,16.13,26.87Zm19.91-1a.47.47,0,0,1-.43-.28.47.47,0,0,1,.23-.63l.87-.39a.47.47,0,1,1,.39.86l-.86.4A.48.48,0,0,1,36,25.87Zm-22.51-.19a.49.49,0,0,1-.2-.05l-.43-.2a.47.47,0,1,1,.39-.86l.44.2a.47.47,0,0,1,.23.63A.48.48,0,0,1,13.53,25.68Z"/><path class="cls-2" d="M25,37.86a1,1,0,0,1-1-1L24,24a1,1,0,0,1,.56-.87l12-5.46a1,1,0,0,1,.91.06,1,1,0,0,1,.44.8v12.9a.94.94,0,0,1-.56.86L25.37,37.77A.89.89,0,0,1,25,37.86Zm.92-13.24,0,10.8,10-4.59V20Z"/><path class="cls-2" d="M25,37.86a.9.9,0,0,1-.4-.09L12.7,32.31a.94.94,0,0,1-.56-.86V18.55a1,1,0,0,1,.44-.8,1,1,0,0,1,.91-.06l11.86,5.46a1,1,0,0,1,.55.86l0,12.89a1,1,0,0,1-.44.81A1,1,0,0,1,25,37.86Zm-10.93-7,10,4.58,0-10.8L14.05,20Z"/><path class="cls-2" d="M25,25a.93.93,0,0,1-.4-.09L12.7,19.42a1,1,0,0,1-.56-.87.94.94,0,0,1,.56-.86l11.93-5.46a.91.91,0,0,1,.79,0L37.3,17.69a.95.95,0,0,1,0,1.73l-12,5.46A.89.89,0,0,1,25,25Zm-9.57-6.41L25,23l9.67-4.42L25,14.14Z"/></g></g></g></svg>