<svg xmlns="http://www.w3.org/2000/svg" viewBox="0 0 50 50"><defs><style>.cls-1{fill:#353942;}.cls-2{fill:#5b616b;}</style></defs><g id="Layer_2" data-name="Layer 2"><g id="Layer_151" data-name="Layer 151"><g id="ShowDicom"><path class="cls-1" d="M25,50A25,25,0,1,1,50,25,25,25,0,0,1,25,50Z"/><path class="cls-2" d="M24.25,37.86H13.1a1,1,0,0,1-1-1V13.1a1,1,0,0,1,1-1H24.25c7.88,0,13.61,5.38,13.61,12.79V25C37.86,32.45,32.13,37.86,24.25,37.86ZM14.05,36h10.2C31,36,36,31.35,36,25v-.07c0-6.3-4.92-10.88-11.7-10.88H14.05Zm10.2-2.82H18.33a1,1,0,0,1-.95-1V17.82a1,1,0,0,1,.95-.95h5.92A7.78,7.78,0,0,1,32.38,25v.07A7.75,7.75,0,0,1,24.25,33.13Zm-5-1.91h5a5.86,5.86,0,0,0,6.23-6.15V25a5.9,5.9,0,0,0-6.23-6.22h-5Z"/></g></g></g></svg>