<svg xmlns="http://www.w3.org/2000/svg" viewBox="0 0 50 50"><defs><style>.cls-1{fill:#353942;}.cls-2{fill:#5b616b;}</style></defs><g id="Layer_2" data-name="Layer 2"><g id="Layer_151" data-name="Layer 151"><g id="ShowFirstLast"><path class="cls-1" d="M25,50A25,25,0,1,1,50,25,25,25,0,0,1,25,50Z"/><path class="cls-2" d="M32.56,33.51H17.44a.94.94,0,0,1-1-.95V17.44a.94.94,0,0,1,1-1H32.56a.94.94,0,0,1,.95,1V32.56A.94.94,0,0,1,32.56,33.51Zm-14.17-1.9H31.61V18.39H18.39Z"/><path class="cls-2" d="M36.9,19.21a1,1,0,0,1-.95-1v-4.2h-4.2a1,1,0,1,1,0-1.91H36.9a1,1,0,0,1,1,1v5.15A1,1,0,0,1,36.9,19.21Z"/><path class="cls-2" d="M18.25,37.86H13.1a1,1,0,0,1-1-1V31.75a1,1,0,1,1,1.91,0V36h4.2a1,1,0,1,1,0,1.91Z"/></g></g></g></svg>