<svg xmlns="http://www.w3.org/2000/svg" viewBox="0 0 50 50"><defs><style>.cls-1{fill:#353942;}.cls-2{fill:#5b616b;}</style></defs><g id="Layer_2" data-name="Layer 2"><g id="Layer_151" data-name="Layer 151"><g id="ShowHide"><path class="cls-1" d="M25,50A25,25,0,1,1,50,25,25,25,0,0,1,25,50Z"/><path class="cls-2" d="M25,34a10.29,10.29,0,0,1-6.53-2.35,1,1,0,0,1-.13-1.34.94.94,0,0,1,1.34-.13,8.35,8.35,0,0,0,11.24-.55L35.56,25l-4.64-4.64c-.19-.19-.4-.38-.6-.55a.94.94,0,0,1-.13-1.34,1,1,0,0,1,1.34-.13c.25.21.5.44.74.67l5.31,5.32a.94.94,0,0,1,0,1.34L32.26,31A10.26,10.26,0,0,1,25,34Z"/><path class="cls-2" d="M17.08,29.94a.94.94,0,0,1-.67-.28l-4-4a1,1,0,0,1,0-1.34L17.74,19a10.28,10.28,0,0,1,11.07-2.28A1,1,0,0,1,29.34,18a1,1,0,0,1-1.24.53,8.36,8.36,0,0,0-9,1.86L14.44,25l3.32,3.31a1,1,0,0,1,0,1.35A.94.94,0,0,1,17.08,29.94Z"/><path class="cls-2" d="M27.69,22.31A3.78,3.78,0,0,1,28.81,25a3.81,3.81,0,0,1-6.5,2.7Z"/><path class="cls-2" d="M25,29.76a4.69,4.69,0,0,1-3.36-1.39,1,1,0,0,1-.28-.67,1,1,0,0,1,.27-.68L27,21.63a1,1,0,0,1,.67-.28h0a1,1,0,0,1,.68.28A4.77,4.77,0,0,1,25,29.76Zm-1.23-2.18a2.86,2.86,0,0,0,3.81-3.81Z"/><path class="cls-2" d="M21.19,25.83h0a.94.94,0,0,1-.92-1,4.77,4.77,0,0,1,4.61-4.61,1,1,0,0,1,1,.92.94.94,0,0,1-.92,1,2.87,2.87,0,0,0-2.77,2.77A.94.94,0,0,1,21.19,25.83Z"/><path class="cls-2" d="M13.1,37.86a1,1,0,0,1-.68-.28,1,1,0,0,1,0-1.35L36.23,12.42a1,1,0,1,1,1.35,1.35L13.77,37.58A1,1,0,0,1,13.1,37.86Z"/></g></g></g></svg>