<svg xmlns="http://www.w3.org/2000/svg" viewBox="0 0 50 50"><defs><style>.cls-1{fill:#353942;}.cls-2{fill:#5b616b;}</style></defs><g id="Layer_2" data-name="Layer 2"><g id="Layer_151" data-name="Layer 151"><g id="ShutterObject"><path class="cls-1" d="M25,50A25,25,0,1,1,50,25,25,25,0,0,1,25,50Z"/><path class="cls-2" d="M25,37.38a.54.54,0,0,1-.21-.05L12.88,31.38a.48.48,0,0,1-.26-.43V19.05a.48.48,0,0,1,.26-.43l11.91-6a.47.47,0,1,1,.42.85L13.57,19.34V30.66l11.64,5.82a.48.48,0,0,1,.22.64A.51.51,0,0,1,25,37.38Z"/><path class="cls-2" d="M25,37.38a.51.51,0,0,1-.43-.26.48.48,0,0,1,.22-.64l11.64-5.82V19.34L24.79,13.52a.47.47,0,1,1,.42-.85l11.91,6a.48.48,0,0,1,.26.43V31a.48.48,0,0,1-.26.43L25.21,37.33A.54.54,0,0,1,25,37.38Z"/><path class="cls-2" d="M25,25.48a.54.54,0,0,1-.21-.05l-11.91-6a.48.48,0,0,1,.43-.85l11.9,5.95a.49.49,0,0,1,.22.64A.5.5,0,0,1,25,25.48Z"/><path class="cls-2" d="M25,25.48a.5.5,0,0,1-.43-.27.49.49,0,0,1,.22-.64l11.9-5.95a.48.48,0,0,1,.43.85l-11.91,6A.54.54,0,0,1,25,25.48Z"/><path class="cls-2" d="M25,37.38a.48.48,0,0,1-.48-.48V25a.48.48,0,0,1,1,0V36.9A.48.48,0,0,1,25,37.38Z"/><path class="cls-2" d="M17.06,33.41a.47.47,0,0,1-.47-.47V21a.49.49,0,0,1,.26-.43l11.91-6a.47.47,0,0,1,.42.85L17.54,21.32V32.94A.47.47,0,0,1,17.06,33.41Z"/><path class="cls-2" d="M21,35.4a.48.48,0,0,1-.47-.48V23a.48.48,0,0,1,.26-.43l11.9-5.95a.47.47,0,0,1,.64.21.48.48,0,0,1-.21.64L21.51,23.31V34.92A.49.49,0,0,1,21,35.4Z"/><path class="cls-2" d="M32.94,33.41a.47.47,0,0,1-.48-.47V21.32L20.82,15.5a.47.47,0,0,1,.42-.85l11.91,6a.49.49,0,0,1,.26.43V32.94A.47.47,0,0,1,32.94,33.41Z"/><path class="cls-2" d="M29,35.4a.49.49,0,0,1-.48-.48V23.31L16.85,17.49a.48.48,0,1,1,.43-.85l11.9,5.95a.48.48,0,0,1,.26.43v11.9A.48.48,0,0,1,29,35.4Z"/><path class="cls-2" d="M25,29.44a.38.38,0,0,1-.21-.05L12.88,23.44a.47.47,0,0,1-.26-.42.48.48,0,0,1,.26-.43l3.71-1.85V17.06a.48.48,0,0,1,.95,0v4a.48.48,0,0,1-.26.43L14.16,23,25,28.44,35.84,23l-3.05-1.53a.47.47,0,0,1-.26-.42l-.07-4a.48.48,0,0,1,.47-.48h0a.47.47,0,0,1,.47.47l.06,3.71,3.65,1.82a.48.48,0,0,1,.26.43.47.47,0,0,1-.26.42L25.21,29.39A.38.38,0,0,1,25,29.44Z"/><path class="cls-2" d="M25,33.41a.38.38,0,0,1-.21,0L12.88,27.41a.48.48,0,0,1-.26-.43.47.47,0,0,1,.26-.42l7.68-3.84V15.08A.48.48,0,0,1,21,14.6a.49.49,0,0,1,.48.48V23a.46.46,0,0,1-.27.42L14.16,27,25,32.4,35.84,27l-7.08-3.54a.46.46,0,0,1-.27-.42V15.08A.49.49,0,0,1,29,14.6a.48.48,0,0,1,.47.48v7.64l7.68,3.84a.47.47,0,0,1,.26.42.48.48,0,0,1-.26.43L25.21,33.36A.38.38,0,0,1,25,33.41Z"/><path class="cls-2" d="M13.1,31.43a.48.48,0,0,1-.43-.26.48.48,0,0,1,.21-.64l11.64-5.82V13.1a.48.48,0,0,1,1,0V25a.49.49,0,0,1-.27.43l-11.9,5.95A.54.54,0,0,1,13.1,31.43Z"/><path class="cls-2" d="M36.9,31.43a.54.54,0,0,1-.21-.05l-12-5.95a.48.48,0,0,1,.43-.86l12,6a.47.47,0,0,1,.21.63A.47.47,0,0,1,36.9,31.43Z"/><path class="cls-2" d="M21,35.4a.48.48,0,0,1-.21-.91l4-2a.47.47,0,1,1,.42.85l-4,2A.5.5,0,0,1,21,35.4Z"/><path class="cls-2" d="M29,35.4a.5.5,0,0,1-.21,0l-4-2a.47.47,0,1,1,.42-.85l4,2a.48.48,0,0,1-.21.91Z"/><path class="cls-2" d="M17.06,33.41a.46.46,0,0,1-.42-.26.48.48,0,0,1,.21-.64l7.94-4a.47.47,0,1,1,.42.85l-7.93,4A.42.42,0,0,1,17.06,33.41Z"/><path class="cls-2" d="M32.94,33.41a.42.42,0,0,1-.22,0l-7.93-4a.47.47,0,1,1,.42-.85l7.94,4a.48.48,0,0,1,.21.64A.46.46,0,0,1,32.94,33.41Z"/></g></g></g></svg>