<svg xmlns="http://www.w3.org/2000/svg" viewBox="0 0 50 50"><defs><style>.cls-1{fill:#353942;}.cls-2{fill:#5b616b;}</style></defs><g id="Layer_2" data-name="Layer 2"><g id="Layer_151" data-name="Layer 151"><g id="SnapToGrid"><path class="cls-1" d="M25,50A25,25,0,1,1,50,25,25,25,0,0,1,25,50Z"/><path class="cls-2" d="M36.9,37.86H13.1a1,1,0,0,1-1-1V13.1a1,1,0,0,1,1-1H36.9a1,1,0,0,1,1,1V36.9A1,1,0,0,1,36.9,37.86ZM14.05,36H36V14.05H14.05Z"/><path class="cls-2" d="M17,29.92H13.1a1,1,0,1,1,0-1.9H17a1,1,0,1,1,0,1.9Z"/><path class="cls-2" d="M36.9,29.92H25.06a.95.95,0,0,1,0-1.9H36.9a1,1,0,1,1,0,1.9Z"/><path class="cls-2" d="M36.9,22H13.1a1,1,0,1,1,0-1.9H36.9a1,1,0,1,1,0,1.9Z"/><path class="cls-2" d="M29,37.86a1,1,0,0,1-.95-1V13.1a1,1,0,1,1,1.9,0V36.9A1,1,0,0,1,29,37.86Z"/><path class="cls-2" d="M21,25.89a1,1,0,0,1-1-.95V13.1a1,1,0,1,1,1.9,0V24.94A.94.94,0,0,1,21,25.89Z"/><path class="cls-2" d="M21,37.8a1,1,0,0,1-1-.95V33A1,1,0,1,1,22,33v3.85A1,1,0,0,1,21,37.8Z"/><path class="cls-2" d="M21,34a5,5,0,1,1,5-5A5,5,0,0,1,21,34Zm0-8.06A3.08,3.08,0,1,0,24.11,29,3.08,3.08,0,0,0,21,25.89Z"/><circle class="cls-2" cx="21.03" cy="28.97" r="1.43"/></g></g></g></svg>