<svg xmlns="http://www.w3.org/2000/svg" viewBox="0 0 50 50"><defs><style>.cls-1{fill:#353942;}.cls-2{fill:#5b616b;}</style></defs><g id="Layer_2" data-name="Layer 2"><g id="Layer_151" data-name="Layer 151"><g id="SortSeries"><path class="cls-1" d="M25,50A25,25,0,1,1,50,25,25,25,0,0,1,25,50Z"/><path class="cls-2" d="M36.9,37.86H30.18a1,1,0,0,1,0-1.91H36V30.18a1,1,0,0,1,1.91,0V36.9A1,1,0,0,1,36.9,37.86Z"/><path class="cls-2" d="M36.9,37.86a1,1,0,0,1-.67-.28L23.75,25.1a1,1,0,0,1,1.35-1.35L37.58,36.23a1,1,0,0,1,0,1.35A1,1,0,0,1,36.9,37.86Z"/><path class="cls-2" d="M24.06,37.86h-4.3a1,1,0,0,1-1-1V19.76a1,1,0,0,1,1-1H36.9a1,1,0,0,1,1,1v4.3a1,1,0,0,1-1.91,0V20.71H20.71V36h3.35a1,1,0,0,1,0,1.91Z"/><path class="cls-2" d="M18.94,35.18H16.46a1,1,0,0,1-1-1V16.46a.94.94,0,0,1,1-1H34.23a1,1,0,0,1,1,1V19a1,1,0,0,1-1.91,0V17.41H17.41V33.27h1.53a1,1,0,1,1,0,1.91Z"/><path class="cls-2" d="M13.1,32.56a1,1,0,0,1-1-1V13.1a1,1,0,0,1,1-1H31.61a1,1,0,0,1,0,1.91H14.05V31.61A1,1,0,0,1,13.1,32.56Z"/></g></g></g></svg>