<svg id="Layer_1" data-name="Layer 1" xmlns="http://www.w3.org/2000/svg" xmlns:xlink="http://www.w3.org/1999/xlink" viewBox="0 0 612 612"><defs><style>.cls-1,.cls-2,.cls-3{stroke:#232323;stroke-miterlimit:10;stroke-width:1.87px;}.cls-1{fill:url(#linear-gradient);}.cls-2{fill:url(#linear-gradient-2);}.cls-3{fill:url(#linear-gradient-3);}</style><linearGradient id="linear-gradient" x1="232.86" y1="141.14" x2="232.86" y2="320.99" gradientUnits="userSpaceOnUse"><stop offset="0" stop-color="#fafafa"/><stop offset="1" stop-color="#ebebeb"/></linearGradient><linearGradient id="linear-gradient-2" x1="232.86" y1="183.12" x2="232.86" y2="279" xlink:href="#linear-gradient"/><linearGradient id="linear-gradient-3" x1="306" y1="32.01" x2="306" y2="579.99" xlink:href="#linear-gradient"/></defs><path class="cls-1" d="M367.47,224.54c-1.48-3.4-37-83.4-134.61-83.4s-133.12,80-134.59,83.4a16.51,16.51,0,0,0-.47,11.86C99,239.85,127.92,321,232.85,321s133.87-81.12,135-84.57A16.56,16.56,0,0,0,367.47,224.54ZM232.86,288c-66.59,0-93.38-40.66-101.2-56.32,9.07-15.74,39.06-57.55,101.2-57.55,62.36,0,92.12,41.59,101.22,57.5C326.22,247.18,299.27,288,232.86,288Z"/><path class="cls-2" d="M232.86,183.12a47.94,47.94,0,1,0,47.91,47.94A48,48,0,0,0,232.86,183.12Zm0,62.88a14.94,14.94,0,1,1,14.93-14.93A14.95,14.95,0,0,1,232.86,246Z"/><path class="cls-3" d="M578.93,519.34a63.28,63.28,0,0,1-57.87,60.44,62.62,62.62,0,0,1-40.44-10.69l-23.57-29.68L347.82,401.84l9.7-7.69a203,203,0,0,1-24,15.87h0c-1.74,1-3.5,1.94-5.26,2.86-.88.47-1.78.94-2.68,1.38s-1.92,1-2.9,1.44a2.7,2.7,0,0,1-.34.17l-2,.95-.52.24c-1.35.63-2.68,1.25-4,1.84q-2.31,1-4.64,2c-2.2.92-4.42,1.78-6.67,2.6,0,0,0,0,0,0a201.49,201.49,0,0,1-168.34-13.43c-1.83-1-3.66-2.1-5.46-3.2a16.92,16.92,0,0,1,15.69-29q3.6,2.25,7.32,4.27A168.5,168.5,0,0,0,348.43,358.9c2-1.84,4-3.7,5.87-5.62A169.38,169.38,0,0,0,370.15,335c.66-.88,1.3-1.76,1.94-2.66A168.09,168.09,0,0,0,403.74,234c0-93.18-75.76-169-168.9-169A168.18,168.18,0,0,0,127.5,103.6a0,0,0,0,0,0,0c-2.07,1.72-4.12,3.5-6.11,5.3s-4,3.7-5.88,5.61A172.91,172.91,0,0,0,102,129.7,168.69,168.69,0,0,0,88.66,318.48h0c.6,1.05,1.21,2.09,1.85,3.12A16.92,16.92,0,0,1,64,341.32c-1.86-3-3.65-6-5.38-9v0A201.91,201.91,0,0,1,104.43,80a193.51,193.51,0,0,1,15.46-11.9c1.78-1.24,3.58-2.45,5.4-3.65,1.23-.78,2.45-1.56,3.69-2.33s2.24-1.38,3.38-2.05c.11-.07.23-.12.34-.2,1.25-.73,2.51-1.47,3.76-2.17a1.05,1.05,0,0,0,.11-.07c1.24-.68,2.48-1.37,3.73-2,1.8-1,3.62-1.91,5.44-2.8,1.28-.66,2.58-1.28,3.89-1.87q4.86-2.28,9.85-4.31A201,201,0,0,1,234.84,32c111.3,0,201.85,90.58,201.85,202a201.08,201.08,0,0,1-48.06,130.55l.06.06a205.89,205.89,0,0,1-23.31,23.29l0,0c-1.14,1-2.28,1.92-3.44,2.85l12.23-9.7,85.51,107.68,8.92,11.22,38.37,48.33a.74.74,0,0,0,.52.15A39.85,39.85,0,0,0,547.3,508s0,0,0,0l-47.6-38.53-11.31-9.15-107-86.61,21.14-26.11,137.11,111,28.48,23.05c.1.14.2.28.29.43A62.71,62.71,0,0,1,578.93,519.34Z"/></svg>