<svg xmlns="http://www.w3.org/2000/svg" viewBox="0 0 50 50"><defs><style>.cls-1{fill:#353942;}.cls-2{fill:#5b616b;}</style></defs><g id="Layer_2" data-name="Layer 2"><g id="Layer_151" data-name="Layer 151"><g id="SpyglassCLAHE"><path class="cls-1" d="M25,50A25,25,0,1,1,50,25,25,25,0,0,1,25,50Z"/><path class="cls-2" d="M23.81,35.48A11.67,11.67,0,1,1,35.48,23.81,11.69,11.69,0,0,1,23.81,35.48Zm0-21.43a9.76,9.76,0,1,0,9.76,9.76A9.77,9.77,0,0,0,23.81,14.05Z"/><path class="cls-2" d="M36.9,37.86a1,1,0,0,1-.67-.28l-5.52-5.52a1,1,0,0,1,1.35-1.35l5.52,5.52a1,1,0,0,1,0,1.35A1,1,0,0,1,36.9,37.86Z"/><path class="cls-2" d="M20.91,25.05v1.19a1.4,1.4,0,0,1-1.4,1.4H18.4a1.4,1.4,0,0,1-1.4-1.4V21.38A1.39,1.39,0,0,1,18.4,20h1.1a1.39,1.39,0,0,1,1.39,1.39v1a.57.57,0,0,1-.57.57h0a.57.57,0,0,1-.56-.57v-.91c0-.3-.14-.44-.43-.44h-.74a.38.38,0,0,0-.44.44v4.76a.38.38,0,0,0,.44.44h.76c.29,0,.43-.14.43-.44V25.05a.56.56,0,0,1,.57-.56h0A.56.56,0,0,1,20.91,25.05Z"/><path class="cls-2" d="M19.51,27.88H18.4a1.64,1.64,0,0,1-1.64-1.64V21.38a1.63,1.63,0,0,1,1.64-1.64h1.1a1.63,1.63,0,0,1,1.63,1.63v1a.81.81,0,0,1-1.61,0v-.91c0-.18,0-.2-.19-.2h-.74c-.17,0-.2,0-.2.2v4.76c0,.17,0,.2.2.2h.76c.15,0,.19,0,.19-.2V25.05a.81.81,0,0,1,1.61,0v1.19A1.65,1.65,0,0,1,19.51,27.88ZM18.4,20.22a1.16,1.16,0,0,0-1.16,1.16v4.86A1.16,1.16,0,0,0,18.4,27.4h1.11a1.16,1.16,0,0,0,1.16-1.16V25.05a.32.32,0,0,0-.32-.32.32.32,0,0,0-.33.32v1.14a.61.61,0,0,1-.67.68h-.76a.62.62,0,0,1-.68-.68V21.43a.62.62,0,0,1,.68-.68h.74a.62.62,0,0,1,.67.68v.91a.32.32,0,0,0,.32.33.33.33,0,0,0,.33-.33v-1a1.14,1.14,0,0,0-1.15-1.15Z"/><path class="cls-2" d="M23.79,20.56v6h1.29a.52.52,0,0,1,.52.52h0a.52.52,0,0,1-.52.53H23.16a.52.52,0,0,1-.52-.53V20.56a.52.52,0,0,1,.52-.52h.11A.53.53,0,0,1,23.79,20.56Z"/><path class="cls-2" d="M25.08,27.81H23.16a.76.76,0,0,1-.76-.76V20.57a.77.77,0,0,1,.76-.77h.11a.77.77,0,0,1,.76.77v5.72h1a.76.76,0,1,1,0,1.52Zm-1.92-7.53a.29.29,0,0,0-.29.29v6.48a.29.29,0,0,0,.29.29h1.92a.29.29,0,0,0,0-.57H23.55v-6.2a.29.29,0,0,0-.28-.29Z"/><path class="cls-2" d="M29.47,23.22v-2.6A.58.58,0,0,1,30,20h0a.58.58,0,0,1,.58.58V27a.58.58,0,0,1-.58.58h0a.58.58,0,0,1-.57-.58V24.26H27.82V27a.58.58,0,0,1-.58.58h0a.57.57,0,0,1-.57-.58V20.62a.57.57,0,0,1,.57-.58h0a.58.58,0,0,1,.58.58v2.6Z"/><path class="cls-2" d="M30,27.81a.81.81,0,0,1-.81-.81V24.5H28.06V27a.82.82,0,0,1-.82.81.81.81,0,0,1-.81-.81V20.62a.82.82,0,0,1,.81-.82.82.82,0,0,1,.82.82V23h1.17V20.62a.82.82,0,1,1,1.63,0V27A.82.82,0,0,1,30,27.81ZM27.58,24h2.13v3a.34.34,0,1,0,.67,0V20.62a.34.34,0,1,0-.67,0v2.84H27.58V20.62a.34.34,0,0,0-.34-.34.34.34,0,0,0-.34.34V27a.34.34,0,0,0,.34.34.34.34,0,0,0,.34-.34Z"/></g></g></g></svg>