<svg xmlns="http://www.w3.org/2000/svg" viewBox="0 0 50 50"><defs><style>.cls-1{fill:#353942;}.cls-2{fill:#5b616b;}</style></defs><g id="Layer_2" data-name="Layer 2"><g id="Layer_151" data-name="Layer 151"><g id="SpyGlassEqualization"><path class="cls-1" d="M25,50A25,25,0,1,1,50,25,25,25,0,0,1,25,50Z"/><path class="cls-2" d="M36.9,37.86a1,1,0,0,1-.67-.28l-5.52-5.52a1,1,0,0,1,1.35-1.35l5.52,5.52a1,1,0,0,1,0,1.35A1,1,0,0,1,36.9,37.86Z"/><path class="cls-2" d="M23.81,35.48A11.67,11.67,0,1,1,35.48,23.81,11.69,11.69,0,0,1,23.81,35.48Zm0-21.43a9.76,9.76,0,1,0,9.76,9.76A9.77,9.77,0,0,0,23.81,14.05Z"/><path class="cls-2" d="M23.81,29c-6.06,0-7.73-4.68-7.8-4.88a1,1,0,0,1,0-.69,8.51,8.51,0,0,1,7.78-4.81,8.47,8.47,0,0,1,7.77,4.81.92.92,0,0,1,0,.69C31.54,24.32,29.87,29,23.81,29ZM18,23.85a6.17,6.17,0,0,0,5.85,3.25,6.19,6.19,0,0,0,5.85-3.26,6.81,6.81,0,0,0-11.7,0Z"/><circle class="cls-2" cx="23.81" cy="23.81" r="1.75"/><path class="cls-2" d="M23.81,26.51a2.7,2.7,0,1,1,2.7-2.7A2.7,2.7,0,0,1,23.81,26.51Zm0-3.49a.79.79,0,1,0,.79.79A.79.79,0,0,0,23.81,23Z"/></g></g></g></svg>