<svg xmlns="http://www.w3.org/2000/svg" viewBox="0 0 50 50"><defs><style>.cls-1{fill:#353942;}.cls-2{fill:#5b616b;}</style></defs><g id="Layer_2" data-name="Layer 2"><g id="Layer_151" data-name="Layer 151"><g id="SpyglassWindowLevel"><path class="cls-1" d="M25,50A25,25,0,1,1,50,25,25,25,0,0,1,25,50Z"/><path class="cls-2" d="M23.81,35.48A11.67,11.67,0,1,1,35.48,23.81,11.69,11.69,0,0,1,23.81,35.48Zm0-21.43a9.76,9.76,0,1,0,9.76,9.76A9.77,9.77,0,0,0,23.81,14.05Z"/><path class="cls-2" d="M36.9,37.86a1,1,0,0,1-.67-.28l-5.52-5.52a1,1,0,0,1,1.35-1.35l5.52,5.52a1,1,0,0,1,0,1.35A1,1,0,0,1,36.9,37.86Z"/><path class="cls-2" d="M23.81,31.72a1,1,0,0,1-.95-.95V28.94a.95.95,0,0,1,1.9,0v1.83A1,1,0,0,1,23.81,31.72Z"/><path class="cls-2" d="M23.81,19.63a.94.94,0,0,1-.95-.95V16.85a1,1,0,0,1,1.9,0v1.83A.94.94,0,0,1,23.81,19.63Z"/><path class="cls-2" d="M20.18,21.13a1,1,0,0,1-.67-.27l-1.29-1.3a.95.95,0,0,1,1.34-1.34l1.3,1.29a1,1,0,0,1,0,1.35A1,1,0,0,1,20.18,21.13Z"/><path class="cls-2" d="M28.73,29.68a.94.94,0,0,1-.68-.28l-1.29-1.29a1,1,0,0,1,1.35-1.35l1.29,1.29a1,1,0,0,1,0,1.35A.92.92,0,0,1,28.73,29.68Z"/><path class="cls-2" d="M27.44,21.13a1,1,0,0,1-.68-.27,1,1,0,0,1,0-1.35l1.29-1.29a1,1,0,0,1,1.35,0,1,1,0,0,1,0,1.34l-1.29,1.3A1,1,0,0,1,27.44,21.13Z"/><path class="cls-2" d="M18.89,29.68a.92.92,0,0,1-.67-.28,1,1,0,0,1,0-1.35l1.29-1.29a1,1,0,0,1,1.35,1.35l-1.3,1.29A.92.92,0,0,1,18.89,29.68Z"/><path class="cls-2" d="M30.77,24.76H28.94a1,1,0,0,1,0-1.9h1.83a1,1,0,0,1,0,1.9Z"/><path class="cls-2" d="M18.68,24.76H16.85a1,1,0,1,1,0-1.9h1.83a1,1,0,0,1,0,1.9Z"/><path class="cls-2" d="M23.81,29A5.23,5.23,0,1,1,29,23.81,5.23,5.23,0,0,1,23.81,29Zm0-8.54a3.32,3.32,0,1,0,3.32,3.32A3.32,3.32,0,0,0,23.81,20.49Z"/><path class="cls-2" d="M28.08,23.81a4.27,4.27,0,0,1-8.54,0Z"/><path class="cls-2" d="M23.81,29a5.23,5.23,0,0,1-5.23-5.22,1,1,0,0,1,1-.95h8.54a.94.94,0,0,1,1,.95A5.22,5.22,0,0,1,23.81,29Zm-3.18-4.27a3.32,3.32,0,0,0,6.36,0Z"/></g></g></g></svg>