<svg id="Layer_1" data-name="Layer 1" xmlns="http://www.w3.org/2000/svg" xmlns:xlink="http://www.w3.org/1999/xlink" viewBox="0 0 612 612"><defs><style>.cls-1,.cls-2,.cls-3,.cls-4{stroke:#232323;stroke-miterlimit:10;stroke-width:1.31px;}.cls-1{fill:url(#linear-gradient);}.cls-2{fill:url(#linear-gradient-2);}.cls-3{fill:url(#linear-gradient-3);}.cls-4{fill:url(#linear-gradient-4);}</style><linearGradient id="linear-gradient" x1="364.41" y1="36.67" x2="364.41" y2="322.61" gradientUnits="userSpaceOnUse"><stop offset="0" stop-color="#fafafa"/><stop offset="1" stop-color="#ebebeb"/></linearGradient><linearGradient id="linear-gradient-2" x1="364.42" y1="105.33" x2="364.42" y2="253.92" xlink:href="#linear-gradient"/><linearGradient id="linear-gradient-3" x1="92.08" y1="125.07" x2="92.08" y2="379.98" xlink:href="#linear-gradient"/><linearGradient id="linear-gradient-4" x1="297.24" y1="343.92" x2="297.24" y2="575.55" xlink:href="#linear-gradient"/></defs><path class="cls-1" d="M578.41,169.27c-2.34-5.41-58.77-132.6-214-132.6-92.41,0-149.8,45.07-181.61,82.68A243.47,243.47,0,0,0,159.55,152a161.43,161.43,0,0,0-9.11,17.32,26.26,26.26,0,0,0-.74,18.85c.52,1.52,4.37,12.33,13.11,27.22a213.38,213.38,0,0,0,16.53,24.15c20.82,26.35,54.33,56.14,105.82,71.91a243.43,243.43,0,0,0,28.69,6.89c7.33,1.32,15,2.36,22.92,3.07q13.22,1.25,27.63,1.25h.29c166.57-.16,212.54-129,214.39-134.46A26.22,26.22,0,0,0,578.41,169.27ZM367.7,270.1l-3.27,0a236.57,236.57,0,0,1-24.53-1.23c-88-9-124.95-65.44-136.38-88.3a189.63,189.63,0,0,1,47.66-54.24c26.14-20.15,63.11-37.27,113.25-37.27,99.12,0,146.43,66.13,160.9,91.43C513,205,470.88,268.79,367.7,270.1Z"/><path class="cls-2" d="M438.68,179.62a74.26,74.26,0,1,1-74.25-74.29A74.35,74.35,0,0,1,438.68,179.62Z"/><path class="cls-3" d="M152.9,125.07l-.52.62a262.16,262.16,0,0,0-25,35.09c-1.78,3-3.3,5.72-4.59,8.1a138.09,138.09,0,0,0-12.7,9.33h0c-1.74,1.43-3.45,2.92-5.1,4.43s-3.32,3.08-4.91,4.66A144.91,144.91,0,0,0,88.81,200,140.69,140.69,0,0,0,77.65,357.42v0c.51.88,1,1.75,1.54,2.6a14.1,14.1,0,0,1-22.15,16.43q-2.32-3.69-4.48-7.52h0A168.5,168.5,0,0,1,90.8,158.5a159,159,0,0,1,12.9-9.93c1.47-1,3-2,4.5-3,1-.65,2-1.31,3.08-1.95s1.86-1.15,2.82-1.71c.1-.06.19-.1.29-.17,1-.62,2.09-1.23,3.13-1.81l.09,0c1-.58,2.06-1.15,3.11-1.7,1.5-.8,3-1.58,4.54-2.32,1.07-.55,2.15-1.08,3.24-1.56,2.7-1.27,5.45-2.46,8.22-3.6A167.78,167.78,0,0,1,152.9,125.07Z"/><path class="cls-4" d="M486.58,525a52.5,52.5,0,0,1-82,41.49l-19.65-24.75L293.8,427l8.1-6.41a169.92,169.92,0,0,1-20,13.23h0c-1.44.82-2.91,1.62-4.38,2.39-.73.39-1.48.78-2.23,1.14s-1.59.82-2.42,1.21l-.28.14-1.68.8a3.89,3.89,0,0,1-.42.19c-1.12.52-2.24,1.05-3.38,1.53-1.29.58-2.58,1.12-3.86,1.64-1.85.77-3.7,1.48-5.58,2.17v0a168.08,168.08,0,0,1-140.41-11.2c-1.54-.87-3-1.76-4.57-2.67A14.11,14.11,0,0,1,122,406.41a13.62,13.62,0,0,1,3.8.52q3,1.88,6.12,3.56a140.58,140.58,0,0,0,162.43-19.35c1.67-1.53,3.31-3.08,4.9-4.69a142.05,142.05,0,0,0,13.21-15.24c.56-.75,1.1-1.47,1.63-2.23a141.36,141.36,0,0,0,14.36-25.06c6.29.36,12.77.56,19.41.56h.33c3.26,0,6.48-.06,9.66-.16a168.33,168.33,0,0,1-30,51.5l0,.06a172.31,172.31,0,0,1-19.44,19.43l0-.05c-.95.82-1.91,1.62-2.87,2.39l10.19-8.1,71.34,89.82,7.42,9.36,32,40.3a.62.62,0,0,0,.44.13,33.24,33.24,0,0,0,33.24-33.68h0l-39.7-32.14-9.42-7.63-89.24-72.24,17.62-21.79L453.8,474.26l23.77,19.23.22.35A52.22,52.22,0,0,1,486.58,525Z"/></svg>