<svg id="Layer_1" data-name="Layer 1" xmlns="http://www.w3.org/2000/svg" xmlns:xlink="http://www.w3.org/1999/xlink" viewBox="0 0 612 612"><defs><style>.cls-1,.cls-2,.cls-3{stroke:#232323;stroke-miterlimit:10;stroke-width:1.31px;}.cls-1{fill:url(#linear-gradient);}.cls-2{fill:url(#linear-gradient-2);}.cls-3{fill:url(#linear-gradient-3);}</style><linearGradient id="linear-gradient" x1="306.01" y1="31.38" x2="306.01" y2="366.73" gradientUnits="userSpaceOnUse"><stop offset="0" stop-color="#fafafa"/><stop offset="1" stop-color="#ebebeb"/></linearGradient><linearGradient id="linear-gradient-2" x1="305.99" y1="261.97" x2="305.99" y2="473.77" xlink:href="#linear-gradient"/><linearGradient id="linear-gradient-3" x1="306.01" y1="368.99" x2="306.01" y2="580.79" xlink:href="#linear-gradient"/></defs><path class="cls-1" d="M41.56,216.64,295,364a20.34,20.34,0,0,0,10.21,2.74A20.14,20.14,0,0,0,315.34,364L570.42,216.67a20.34,20.34,0,0,0,.06-35.19L317.08,34.14a20.32,20.32,0,0,0-20.4,0L41.6,181.46a20.33,20.33,0,0,0,0,35.18Z"/><path class="cls-2" d="M570.48,288.47l-40.86-23.74a20.34,20.34,0,0,0-20.44,35.18l10.5,6.1L305.22,429.89,92.35,306.12,103,300a20.34,20.34,0,1,0-20.33-35.24L41.58,288.46a20.35,20.35,0,0,0,0,35.22L295,471a20.32,20.32,0,0,0,20.38,0L570.4,323.7a20.39,20.39,0,0,0,.08-35.23Z"/><path class="cls-3" d="M570.48,395.48l-40.86-23.74a20.34,20.34,0,0,0-20.44,35.18l10.5,6.1L305.22,536.9,92.37,413.14,103,407A20.34,20.34,0,0,0,82.7,371.74L41.6,395.48a20.36,20.36,0,0,0,0,35.23L295,578.05a20.34,20.34,0,0,0,10.21,2.74,20.14,20.14,0,0,0,10.16-2.72L570.41,430.73a20.39,20.39,0,0,0,.07-35.25Z"/></svg>