<svg xmlns="http://www.w3.org/2000/svg" viewBox="0 0 50 50"><defs><style>.cls-1{fill:#353942;}.cls-2{fill:#5b616b;}</style></defs><g id="Layer_2" data-name="Layer 2"><g id="Layer_151" data-name="Layer 151"><g id="Stack"><path class="cls-1" d="M25,50A25,25,0,1,1,50,25,25,25,0,0,1,25,50Z"/><path class="cls-2" d="M25,27.84a.94.94,0,0,1-.48-.13l-11.86-6.9a.94.94,0,0,1,0-1.64l11.94-6.9a1,1,0,0,1,1,0l11.86,6.9a.94.94,0,0,1,.48.82,1,1,0,0,1-.48.83L25.44,27.71A.91.91,0,0,1,25,27.84ZM15,20l10,5.8L35,20,25,14.2Z"/><path class="cls-2" d="M25,32.85a.94.94,0,0,1-.48-.13l-11.86-6.9a.94.94,0,0,1,0-1.64l1.92-1.12a1,1,0,0,1,1.3.35.94.94,0,0,1-.35,1.3L15,25l10,5.8L35,25l-.5-.29a1,1,0,0,1-.34-1.3,1,1,0,0,1,1.3-.35l1.91,1.12a.94.94,0,0,1,0,1.64l-11.94,6.9A.91.91,0,0,1,25,32.85Z"/><path class="cls-2" d="M25,37.86a1,1,0,0,1-.48-.13l-11.86-6.9a.94.94,0,0,1-.48-.82,1,1,0,0,1,.48-.83l1.92-1.11a1,1,0,0,1,1.3.35.94.94,0,0,1-.35,1.3L15,30,25,35.8,35,30l-.5-.29a1,1,0,0,1,1-1.65l1.91,1.11a1,1,0,0,1,.48.83.94.94,0,0,1-.48.82l-11.94,6.9A1,1,0,0,1,25,37.86Z"/></g></g></g></svg>