<?xml version="1.0" encoding="iso-8859-1"?>
<!-- Generator: Adobe Illustrator 21.1.0, SVG Export Plug-In . SVG Version: 6.00 Build 0)  -->
<svg version="1.1" xmlns="http://www.w3.org/2000/svg" xmlns:xlink="http://www.w3.org/1999/xlink" x="0px" y="0px"
	 viewBox="0 0 50 50" style="enable-background:new 0 0 50 50;" xml:space="preserve">
<g id="StopButton">
	<g>
		<path style="fill:#C7CEDD;" d="M50,46.667C50,48.509,48.508,50,46.667,50H3.333C1.493,50,0,48.509,0,46.667V3.333
			C0,1.494,1.493,0,3.333,0h43.333C48.508,0,50,1.494,50,3.333V46.667z"/>
		<path style="fill:#333333;" d="M37.712,35.215c0,1.381-1.119,2.5-2.5,2.5H14.788c-1.381,0-2.5-1.119-2.5-2.5V14.789
			c0-1.381,1.119-2.5,2.5-2.5h20.423c1.381,0,2.5,1.119,2.5,2.5V35.215z"/>
	</g>
</g>
<g id="Layer_1">
</g>
</svg>
