<svg id="Layer_1" data-name="Layer 1" xmlns="http://www.w3.org/2000/svg" xmlns:xlink="http://www.w3.org/1999/xlink" viewBox="0 0 612 612"><defs><style>.cls-1{stroke:#232323;stroke-miterlimit:10;stroke-width:1.31px;fill:url(#linear-gradient);}</style><linearGradient id="linear-gradient" x1="305.98" y1="32.04" x2="305.98" y2="580.14" gradientUnits="userSpaceOnUse"><stop offset="0" stop-color="#fafafa"/><stop offset="1" stop-color="#ebebeb"/></linearGradient></defs><path id="StretchHistogram" class="cls-1" d="M579.88,391.79c-2-49.35-28.55-142.67-114.13-142.67-59.49,0-82.23,40.94-98.85,70.84-15.12,27.21-23,38.27-40.26,38.27-39.73,0-53.36-74-66.55-145.61C243.76,123.84,226.86,32,152.13,32c-120,0-120,224.55-120,345.17a20.29,20.29,0,1,0,40.58,0c0-91.15,0-304.57,79.47-304.57,40.92,0,54.72,74.89,68.05,147.32,16.21,87.93,32.95,178.85,106.46,178.85,42.85,0,61.07-32.8,75.72-59.15,17.23-31,29.5-50,63.39-50,68.47,0,73.55,102.72,73.59,103.76a20.27,20.27,0,0,0,20.25,19.45l.85,0A20.32,20.32,0,0,0,579.88,391.79ZM38,492.62a20.3,20.3,0,0,0,0,28.71l52.83,52.86a20.3,20.3,0,0,0,28.7-28.71l-18.2-18.2H510.63l-18.2,18.2a20.29,20.29,0,1,0,28.69,28.71L574,521.35a21.94,21.94,0,0,0,2.52-3.09c.18-.26.3-.57.46-.85a19.57,19.57,0,0,0,1.4-2.64c.17-.39.23-.79.37-1.2a18.37,18.37,0,0,0,.79-2.58,19.91,19.91,0,0,0,0-8,17.78,17.78,0,0,0-.71-2.36c-.16-.49-.26-1-.45-1.44a21.41,21.41,0,0,0-1.29-2.41c-.21-.37-.37-.73-.59-1.08a20.5,20.5,0,0,0-2.52-3.06L521.1,439.74a20.29,20.29,0,0,0-28.69,28.7l18.2,18.21H101.33l18.2-18.21a20.29,20.29,0,0,0-28.7-28.7Z"/></svg>