<svg xmlns="http://www.w3.org/2000/svg" viewBox="0 0 50 50"><defs><style>.cls-1{fill:#353942;}.cls-2{fill:#5b616b;}</style></defs><g id="Layer_2" data-name="Layer 2"><g id="Layer_151" data-name="Layer 151"><g id="StretchHistogram"><path class="cls-1" d="M25,50A25,25,0,1,1,50,25,25,25,0,0,1,25,50Z"/><path class="cls-2" d="M13.1,30h0a1,1,0,0,1-.92-1c.1-2.32,1.34-6.69,5.36-6.69,2.79,0,3.86,1.92,4.64,3.32s1.08,1.8,1.89,1.8c1.87,0,2.51-3.48,3.12-6.84.77-4.16,1.57-8.47,5.07-8.47,5.64,0,5.64,10.54,5.64,16.2a1,1,0,0,1-1.91,0c0-4.28,0-14.29-3.73-14.29-1.92,0-2.57,3.51-3.19,6.91-.76,4.12-1.55,8.39-5,8.39-2,0-2.87-1.54-3.55-2.77-.81-1.46-1.39-2.35-3-2.35-3.21,0-3.45,4.82-3.45,4.87A1,1,0,0,1,13.1,30Z"/><path class="cls-2" d="M15.58,37.86a1,1,0,0,1-.68-.28L12.42,35.1a1,1,0,0,1,0-1.35l2.48-2.48a1,1,0,0,1,1.35,1.35l-1.81,1.8,1.81,1.81a1,1,0,0,1,0,1.35A1,1,0,0,1,15.58,37.86Z"/><path class="cls-2" d="M34.42,37.86a1,1,0,0,1-.67-.28,1,1,0,0,1,0-1.35l1.81-1.81-1.81-1.8a1,1,0,1,1,1.35-1.35l2.48,2.48a1,1,0,0,1,0,1.35L35.1,37.58A1,1,0,0,1,34.42,37.86Z"/><path class="cls-2" d="M36.54,35.38H13.1a1,1,0,1,1,0-1.91H36.54a1,1,0,0,1,0,1.91Z"/></g></g></g></svg>