<svg xmlns="http://www.w3.org/2000/svg" viewBox="0 0 50 50"><defs><style>.cls-1{fill:#353942;}.cls-2{fill:#5b616b;}</style></defs><g id="Layer_2" data-name="Layer 2"><g id="Layer_151" data-name="Layer 151"><g id="StudyLayout"><path class="cls-1" d="M25,50A25,25,0,1,1,50,25,25,25,0,0,1,25,50Z"/><path class="cls-2" d="M36.9,37.86H13.1a1,1,0,0,1-1-1V13.1a1,1,0,0,1,1-1H36.9a1,1,0,0,1,1,1V36.9A1,1,0,0,1,36.9,37.86ZM14.05,36H36V14.05H14.05Z"/><path class="cls-2" d="M23.41,37.86H13.1a1,1,0,0,1-1-1V26.59a1,1,0,0,1,1-1H23.41a1,1,0,0,1,1,1V36.9A1,1,0,0,1,23.41,37.86ZM14.05,36h8.41V27.54H14.05Z"/></g></g></g></svg>