<svg xmlns="http://www.w3.org/2000/svg" viewBox="0 0 50 50"><defs><style>.cls-1{fill:#353942;}.cls-2{fill:#5b616b;}</style></defs><g id="Layer_2" data-name="Layer 2"><g id="Layer_151" data-name="Layer 151"><g id="StudyTimeLine"><path class="cls-1" d="M25,50A25,25,0,1,1,50,25,25,25,0,0,1,25,50Z"/><path class="cls-2" d="M36.9,37.86H25a1,1,0,0,1-.95-1V30.71a1,1,0,0,1,.95-.95H36.9a1,1,0,0,1,1,.95V36.9A1,1,0,0,1,36.9,37.86ZM26,36H36V31.67H26Z"/><path class="cls-2" d="M36.9,26H25a.94.94,0,0,1-.95-.95V18.81a.94.94,0,0,1,.95-.95H36.9a1,1,0,0,1,1,.95V25A1,1,0,0,1,36.9,26ZM26,24.05H36V19.76H26Z"/><path class="cls-2" d="M25,34.76H13.1a1,1,0,0,1-1-.95V13.1a1,1,0,1,1,1.91,0V32.86H25a1,1,0,1,1,0,1.9Z"/><path class="cls-2" d="M25,22.86H13.1a1,1,0,1,1,0-1.91H25a1,1,0,0,1,0,1.91Z"/></g></g></g></svg>