<svg xmlns="http://www.w3.org/2000/svg" viewBox="0 0 50 50"><defs><style>.cls-1{fill:#353942;}.cls-2{fill:#5b616b;}</style></defs><g id="Layer_2" data-name="Layer 2"><g id="Layer_151" data-name="Layer 151"><g id="Synchronization"><path class="cls-1" d="M25,50A25,25,0,1,1,50,25,25,25,0,0,1,25,50Z"/><path class="cls-2" d="M30.29,21.11a.93.93,0,0,1-.66-.27,6,6,0,0,0-8.44,0,.94.94,0,0,1-1.34,0,1,1,0,0,1,0-1.35,7.95,7.95,0,0,1,11.08,0,1,1,0,0,1,0,1.35A.94.94,0,0,1,30.29,21.11Z"/><path class="cls-2" d="M22.79,21.86h-.07l-2.79-.22a1,1,0,0,1-.87-1l.22-2.78a1,1,0,0,1,1-.88,1,1,0,0,1,.87,1L21,19.81l1.84.14a1,1,0,0,1-.08,1.91Z"/><path class="cls-2" d="M23.1,33.18a1.15,1.15,0,0,1-.26,0,8,8,0,0,1-5.55-9.61,1,1,0,0,1,1.85.47,6,6,0,0,0,4.22,7.3A1,1,0,0,1,24,32.49.94.94,0,0,1,23.1,33.18Z"/><path class="cls-2" d="M21.29,34.57a1,1,0,0,1-.86-.54,1,1,0,0,1,.45-1.27L22.55,32l-.8-1.66A1,1,0,0,1,22.21,29a.93.93,0,0,1,1.26.45L24.67,32a.94.94,0,0,1-.45,1.27l-2.52,1.2A1,1,0,0,1,21.29,34.57Z"/><path class="cls-2" d="M26.75,33.23a1,1,0,0,1-.92-.7,1,1,0,0,1,.66-1.17,6,6,0,0,0,3.59-2.8,5.9,5.9,0,0,0,.62-4.5,1,1,0,0,1,.69-1.16,1,1,0,0,1,1.16.69A7.94,7.94,0,0,1,27,33.19,1.27,1.27,0,0,1,26.75,33.23Z"/><path class="cls-2" d="M29.85,26.36a1,1,0,0,1-.54-.17,1,1,0,0,1-.24-1.32l1.58-2.31A1,1,0,0,1,32,22.32l2.3,1.59a1,1,0,0,1-1.08,1.57l-1.52-1.05L30.63,26A1,1,0,0,1,29.85,26.36Z"/><path class="cls-2" d="M25.57,37.84a1,1,0,0,1-.05-1.9,8.72,8.72,0,0,0,.88-.08,1,1,0,0,1,1.06.83.94.94,0,0,1-.82,1.06,9,9,0,0,1-1,.09Zm-4.68-.71a1,1,0,0,1-.33-.06,8.62,8.62,0,0,1-.95-.39,1,1,0,0,1-.47-1.26A1,1,0,0,1,20.41,35c.26.12.54.24.81.34a.95.95,0,0,1-.33,1.84ZM31,36.25a1,1,0,0,1-.48-1.78c.25-.15.5-.3.74-.47a1,1,0,0,1,1.32.24,1,1,0,0,1-.24,1.33c-.28.19-.57.38-.87.55A.9.9,0,0,1,31,36.25ZM16.19,34a1,1,0,0,1-.7-.31,9.86,9.86,0,0,1-.66-.79A.94.94,0,0,1,15,31.55a1,1,0,0,1,1.34.16c.18.23.37.46.56.67a1,1,0,0,1-.06,1.35A.92.92,0,0,1,16.19,34Zm18.88-1.65a.91.91,0,0,1-.5-.15,1,1,0,0,1-.3-1.32c.16-.24.3-.5.44-.75a.95.95,0,1,1,1.68.88c-.15.3-.33.6-.51.89A1,1,0,0,1,35.07,32.33ZM13.48,29a1,1,0,0,1-.92-.71c-.09-.33-.16-.66-.22-1A1,1,0,1,1,14.21,27c.06.29.12.58.19.86A.94.94,0,0,1,13.72,29,1,1,0,0,1,13.48,29ZM36.87,27h-.08a1,1,0,0,1-.87-1q0-.43,0-.87v-.34a1,1,0,0,1,.92-1,1,1,0,0,1,1,.92c0,.13,0,.27,0,.4,0,.34,0,.69,0,1A1,1,0,0,1,36.87,27ZM13.4,23.36a.83.83,0,0,1-.22,0,1,1,0,0,1-.71-1.14,8.52,8.52,0,0,1,.27-1,.95.95,0,1,1,1.81.57c-.08.28-.16.56-.23.85A1,1,0,0,1,13.4,23.36Zm22.41-2.31A1,1,0,0,1,35,20.5c-.12-.27-.26-.53-.4-.78a1,1,0,1,1,1.66-.94c.16.29.32.6.47.91A1,1,0,0,1,36.22,21,1,1,0,0,1,35.81,21.05ZM16,18.31a1,1,0,0,1-.62-.23,1,1,0,0,1-.1-1.34c.22-.26.46-.51.7-.76a1,1,0,0,1,1.34,1.36c-.21.2-.41.42-.6.64A.92.92,0,0,1,16,18.31Zm16.32-1.68a.93.93,0,0,1-.58-.2c-.22-.17-.47-.34-.71-.5a1,1,0,1,1,1-1.6c.29.19.57.39.84.59a1,1,0,0,1-.59,1.71ZM20.55,15a1,1,0,0,1-.88-.6,1,1,0,0,1,.53-1.24,10.09,10.09,0,0,1,1-.34.95.95,0,1,1,.56,1.81c-.28.09-.55.19-.82.3A1.15,1.15,0,0,1,20.55,15Zm6.55-.67-.17,0c-.28-.05-.58-.09-.87-.12a.95.95,0,0,1,.19-1.89c.33,0,.68.08,1,.13a1,1,0,0,1-.16,1.9Z"/></g></g></g></svg>