<svg id="Layer_1" data-name="Layer 1" xmlns="http://www.w3.org/2000/svg" xmlns:xlink="http://www.w3.org/1999/xlink" viewBox="0 0 612 612"><defs><style>.cls-1{stroke:#232323;stroke-miterlimit:10;stroke-width:1.31px;fill:url(#linear-gradient);}</style><linearGradient id="linear-gradient" x1="306" y1="31.24" x2="306" y2="580.76" gradientUnits="userSpaceOnUse"><stop offset="0" stop-color="#fafafa"/><stop offset="1" stop-color="#ebebeb"/></linearGradient></defs><path id="Text" class="cls-1" d="M560.28,31.24H51.74A20.35,20.35,0,0,0,31.4,51.59V162.11a20.34,20.34,0,1,0,40.68,0V72H285.67v468.1H208.21a20.36,20.36,0,0,0,0,40.71H403.79a20.36,20.36,0,0,0,0-40.71H326.33V72H539.92v90.16a20.34,20.34,0,1,0,40.68,0V51.59A20.32,20.32,0,0,0,560.28,31.24Z"/></svg>