<svg xmlns="http://www.w3.org/2000/svg" viewBox="0 0 50 50"><defs><style>.cls-1{fill:#353942;}.cls-2{fill:#5b616b;}</style></defs><g id="Layer_2" data-name="Layer 2"><g id="Layer_151" data-name="Layer 151"><g id="Text"><path class="cls-1" d="M25,50A25,25,0,1,1,50,25,25,25,0,0,1,25,50Z"/><path class="cls-2" d="M36.9,19.22a1,1,0,0,1-.95-.95V14.05H14.05v4.22a1,1,0,0,1-1.91,0V13.1a1,1,0,0,1,1-1H36.9a1,1,0,0,1,1,1v5.17A1,1,0,0,1,36.9,19.22Z"/><path class="cls-2" d="M25,37.86a1,1,0,0,1-.95-1V13.1a1,1,0,1,1,1.9,0V36.9A1,1,0,0,1,25,37.86Z"/><path class="cls-2" d="M29.58,37.86H20.42a1,1,0,0,1,0-1.91h9.16a1,1,0,0,1,0,1.91Z"/></g></g></g></svg>