<svg xmlns="http://www.w3.org/2000/svg" viewBox="0 0 50 50"><defs><style>.cls-1{fill:#353942;}.cls-2{fill:#5b616b;}</style></defs><g id="Layer_2" data-name="Layer 2"><g id="Layer_151" data-name="Layer 151"><g id="TextPointer"><path class="cls-1" d="M25,50A25,25,0,1,1,50,25,25,25,0,0,1,25,50Z"/><path class="cls-2" d="M28,16.45A.94.94,0,0,1,27,15.5V14.05h-13V15.5a1,1,0,0,1-1.91,0V13.1a1,1,0,0,1,1-1H28a1,1,0,0,1,1,1v2.4A.94.94,0,0,1,28,16.45Z"/><path class="cls-2" d="M20.53,28.92a1,1,0,0,1-1-1V13.1a1,1,0,1,1,1.91,0V28A1,1,0,0,1,20.53,28.92Z"/><path class="cls-2" d="M23.39,28.92H17.67a1,1,0,0,1,0-1.9h5.72a1,1,0,1,1,0,1.9Z"/><path class="cls-2" d="M28,34.7a1,1,0,0,1-.95-1V28A.94.94,0,0,1,28,27h5.77a1,1,0,1,1,0,1.9H28.92v4.82A1,1,0,0,1,28,34.7Z"/><path class="cls-2" d="M36.9,37.86a1,1,0,0,1-.67-.28L27.3,28.64a.95.95,0,1,1,1.34-1.34l8.94,8.93a1,1,0,0,1,0,1.35A1,1,0,0,1,36.9,37.86Z"/></g></g></g></svg>