<svg xmlns="http://www.w3.org/2000/svg" viewBox="0 0 50 50"><defs><style>.cls-1{fill:#353942;}.cls-2{fill:#5b616b;}</style></defs><g id="Layer_2" data-name="Layer 2"><g id="Layer_151" data-name="Layer 151"><g id="ToggleCinePaused"><path class="cls-1" d="M25,50A25,25,0,1,1,50,25,25,25,0,0,1,25,50Z"/><path class="cls-2" d="M21.51,31.19a1,1,0,0,1-1-1V19.76a1,1,0,0,1,1.91,0V30.24A1,1,0,0,1,21.51,31.19Z"/><path class="cls-2" d="M28.49,31.19a1,1,0,0,1-.95-1V19.76a1,1,0,0,1,1.91,0V30.24A1,1,0,0,1,28.49,31.19Z"/><path class="cls-2" d="M25,37.86A12.86,12.86,0,1,1,37.86,25,12.88,12.88,0,0,1,25,37.86Zm0-23.81A11,11,0,1,0,36,25,11,11,0,0,0,25,14.05Z"/><path class="cls-2" d="M25,37.86A12.86,12.86,0,1,1,37.86,25,12.88,12.88,0,0,1,25,37.86Zm0-23.81A11,11,0,1,0,36,25,11,11,0,0,0,25,14.05Z"/></g></g></g></svg>