<svg xmlns="http://www.w3.org/2000/svg" viewBox="0 0 50 50"><defs><style>.cls-1{fill:#353942;}.cls-2{fill:#5b616b;}</style></defs><g id="Layer_2" data-name="Layer 2"><g id="Layer_151" data-name="Layer 151"><g id="ToggleTags"><path class="cls-1" d="M25,50A25,25,0,1,1,50,25,25,25,0,0,1,25,50Z"/><path class="cls-2" d="M21.43,37.86a2.42,2.42,0,0,1-1.71-.71l-6.86-6.82a2.41,2.41,0,0,1,0-3.43L27,12.71a1.91,1.91,0,0,1,1.37-.57h7.53a1.94,1.94,0,0,1,1.93,1.93v7.54A1.91,1.91,0,0,1,37.29,23L23.13,37.15A2.41,2.41,0,0,1,21.43,37.86Zm7-23.81L14.2,28.25a.51.51,0,0,0-.15.36.51.51,0,0,0,.15.37l6.86,6.82a.52.52,0,0,0,.73,0h0L35.94,21.63V14.07Z"/><path class="cls-2" d="M31.21,21.87a3.08,3.08,0,1,1,3.07-3.08A3.08,3.08,0,0,1,31.21,21.87Zm0-4.24a1.17,1.17,0,1,0,1.16,1.16A1.16,1.16,0,0,0,31.21,17.63Z"/></g></g></g></svg>