<svg xmlns="http://www.w3.org/2000/svg" viewBox="0 0 50 50"><defs><style>.cls-1{fill:#353942;}.cls-2{fill:#5b616b;}</style></defs><g id="Layer_2" data-name="Layer 2"><g id="Layer_151" data-name="Layer 151"><g id="Tools"><path class="cls-1" d="M25,50A25,25,0,1,1,50,25,25,25,0,0,1,25,50Z"/><polygon class="cls-2" points="23.8 22.35 18.68 17.22 17.98 15.06 14.82 13.1 13.1 14.82 15.06 17.98 17.22 18.68 22.34 23.81 23.8 22.35"/><path class="cls-2" d="M22.34,24.76h0a1,1,0,0,1-.68-.28l-4.95-5-1.94-.62a1,1,0,0,1-.52-.41l-2-3.16a.94.94,0,0,1,.13-1.17l1.73-1.73a.94.94,0,0,1,1.17-.13l3.16,2a1,1,0,0,1,.41.51l.62,2,5,5a1,1,0,0,1,0,1.34L23,24.49A1,1,0,0,1,22.34,24.76Zm-6.66-7.58,1.83.59a.88.88,0,0,1,.38.24l4.45,4.45.11-.11L18,17.89a1,1,0,0,1-.23-.38l-.59-1.83L15,14.3,14.3,15Z"/><path class="cls-2" d="M33.92,37.86a2.83,2.83,0,0,1-1.84-.66l0,0-9-9a1,1,0,0,1-.28-.67v-.66h-.81a1,1,0,0,1-.67-.28l-.81-.82a.93.93,0,0,1-.28-.67,1,1,0,0,1,.28-.67l3.91-3.92a1,1,0,0,1,1.35,0l.82.81a1,1,0,0,1,.28.68v.8h.66a1,1,0,0,1,.67.28l9,9,0,0c.64.71,1.33,2.57-.61,4.51A3.79,3.79,0,0,1,33.92,37.86Zm-.56-2.07c.18.13.84.49,1.88-.55s.69-1.68.54-1.89l-8.72-8.7H25.84a1,1,0,0,1-.95-.95V22.61l-2.3,2.29h1.1a1,1,0,0,1,.95,1v1.22Z"/><path class="cls-2" d="M28.36,25.56a.94.94,0,0,1-.67-.28,1,1,0,0,1,0-1.35l1.69-1.68a.94.94,0,0,1,1-.21A4.06,4.06,0,0,0,34.71,21,4,4,0,0,0,36,18.37l-1.39,1.39a1,1,0,0,1-1.35,0l-3-3a1,1,0,0,1,0-1.35l1.38-1.38A4.26,4.26,0,0,0,28,19.58a.94.94,0,0,1-.21,1l-1.61,1.61a.95.95,0,1,1-1.34-1.34L26,19.68A5.88,5.88,0,0,1,27.65,14,5.81,5.81,0,0,1,34,12.54a.94.94,0,0,1,.55.7,1,1,0,0,1-.26.85l-2,2,1.63,1.63,2-2a.94.94,0,0,1,.84-.27,1,1,0,0,1,.7.55,5.79,5.79,0,0,1-1.39,6.34A6,6,0,0,1,30.32,24L29,25.28A.94.94,0,0,1,28.36,25.56Z"/><path class="cls-2" d="M15.36,37.86a3.1,3.1,0,0,1-2.2-1A2.89,2.89,0,0,1,12.22,34a2.75,2.75,0,0,1,.67-1.24l8-8a.95.95,0,0,1,1.34,1.34l-8,8c-.23.25-.38.7.27,1.35s1.23.4,1.35.27l8.06-8.06a1,1,0,0,1,1.35,1.35l-8.06,8.06A2.67,2.67,0,0,1,15.36,37.86Z"/><polygon class="cls-2" points="20.52 26.51 21.12 27.06 22.89 27.06 22.89 28.67 23.57 29.36 24.38 28.59 23.69 27.47 23.68 25.86 21.92 25.86 21.55 25.48 20.52 26.51"/><path class="cls-2" d="M23.57,30.31A.92.92,0,0,1,22.9,30l-.69-.68a1,1,0,0,1-.28-.68V28h-.81a1,1,0,0,1-.64-.25l-.6-.55a1,1,0,0,1-.31-.68.93.93,0,0,1,.28-.7l1-1a1,1,0,0,1,1.34,0l.1.09h1.37a1,1,0,0,1,.95,1V27.2l.55.89A.94.94,0,0,1,25,29.28l-.8.77A1,1,0,0,1,23.57,30.31Z"/><path class="cls-2" d="M34.17,34.81a.73.73,0,0,1-.51-.21L26,27a.71.71,0,0,1,1-1l7.62,7.61a.71.71,0,0,1,0,1A.69.69,0,0,1,34.17,34.81Z"/></g></g></g></svg>