<svg id="Layer_1" data-name="Layer 1" xmlns="http://www.w3.org/2000/svg" xmlns:xlink="http://www.w3.org/1999/xlink" viewBox="0 0 612 612"><defs><style>.cls-1{stroke:#232323;stroke-miterlimit:10;stroke-width:1.31px;fill:url(#linear-gradient);}</style><linearGradient id="linear-gradient" x1="306.08" y1="31.34" x2="306.08" y2="580.82" gradientUnits="userSpaceOnUse"><stop offset="0" stop-color="#fafafa"/><stop offset="1" stop-color="#ebebeb"/></linearGradient></defs><path class="cls-1" d="M576.6,149c-2.81-11.68-17.64-15.57-26.13-7.08l-73.94,73.94H395.4V135.66l74-73.94c8.49-8.49,4.58-23.32-7.1-26.13a156.33,156.33,0,0,0-73.4.24c-59.34,14.2-105.6,64.63-115,124.91A141.37,141.37,0,0,0,272,187l88.85,88.93a81.34,81.34,0,0,1,26.52-4,112.88,112.88,0,0,1,80.34,33.24l21,21c42.94-19,76.47-57.21,87.6-103.72A156.5,156.5,0,0,0,576.6,149Zm-7.48,305L443.43,330.34a79.62,79.62,0,0,0-91.64-14.92L236.41,200.91V134.36L100,31.34,31.32,99.07l103,136.4h66.59L315.44,349.88a79.62,79.62,0,0,0,14.93,91.64L455.93,567.19a40.09,40.09,0,0,0,56.57,0l56.62-56.61A40.13,40.13,0,0,0,569.12,454Zm-49.53,61.53a15.32,15.32,0,0,1-21.61,0L372,388.87a15.28,15.28,0,1,1,21.58-21.64l126,126.69A15.33,15.33,0,0,1,519.59,515.54ZM275.91,360.82l-63.55-63.43L52.57,457.2A72.4,72.4,0,1,0,155,559.59L282.8,431.78C273.32,409.43,270.21,384.86,275.91,360.82ZM100,537.9a25.76,25.76,0,1,1,25.75-25.75A25.76,25.76,0,0,1,100,537.9Zm68-59.23c-2.75,2.76-12.93,10.42-29-5.71-13.91-13.9-10.61-23.6-5.71-29L208,369.54c6.85-7.09,7.62-7.89,11.86-12.63l17.56,16.74v14.14a20.42,20.42,0,0,0,6,14.41l.72.71Z"/></svg>