<svg xmlns="http://www.w3.org/2000/svg" viewBox="0 0 50 50"><defs><style>.cls-1{fill:#353942;}.cls-2{fill:#5b616b;}</style></defs><g id="Layer_2" data-name="Layer 2"><g id="Layer_151" data-name="Layer 151"><g id="TrueSizeDisplay"><path class="cls-1" d="M25,50A25,25,0,1,1,50,25,25,25,0,0,1,25,50Z"/><path class="cls-2" d="M34.52,37.86h-19a3.35,3.35,0,0,1-3.34-3.34v-19a3.35,3.35,0,0,1,3.34-3.34h19a3.35,3.35,0,0,1,3.34,3.34v19A3.35,3.35,0,0,1,34.52,37.86Zm-19-23.81a1.43,1.43,0,0,0-1.43,1.43v19A1.43,1.43,0,0,0,15.48,36h19A1.43,1.43,0,0,0,36,34.52v-19a1.43,1.43,0,0,0-1.43-1.43Z"/><path class="cls-2" d="M20.3,32.1a.94.94,0,0,1-.95-1V18.85a1,1,0,0,1,1.9,0v12.3A1,1,0,0,1,20.3,32.1Z"/><path class="cls-2" d="M29.7,32.1a1,1,0,0,1-.95-1V18.85a1,1,0,0,1,1.9,0v12.3A.94.94,0,0,1,29.7,32.1Z"/><rect class="cls-2" x="23.71" y="20.35" width="2.57" height="2.57" rx="0.78"/><rect class="cls-2" x="23.71" y="27.08" width="2.57" height="2.57" rx="0.78"/></g></g></g></svg>