<svg xmlns="http://www.w3.org/2000/svg" viewBox="0 0 50 50"><defs><style>.cls-1{fill:#353942;}.cls-2{fill:#5b616b;}</style></defs><g id="Layer_2" data-name="Layer 2"><g id="Layer_151" data-name="Layer 151"><g id="UnLinked"><path class="cls-1" d="M25,50A25,25,0,1,1,50,25,25,25,0,0,1,25,50Z"/><path class="cls-2" d="M19.52,36.89A6.42,6.42,0,0,1,15,25.94l1.59-1.58a1,1,0,0,1,1.35,1.34l-1.59,1.59a4.51,4.51,0,0,0,6.38,6.38l1.59-1.59a1,1,0,1,1,1.34,1.35L24.06,35A6.4,6.4,0,0,1,19.52,36.89Z"/><path class="cls-2" d="M32.75,25.92a1,1,0,0,1-.67-1.62l1.59-1.59a4.51,4.51,0,0,0-6.38-6.38L25.7,17.92a1,1,0,0,1-1.34-1.35L25.94,15A6.42,6.42,0,1,1,35,24.06l-1.59,1.58A.94.94,0,0,1,32.75,25.92Z"/><path class="cls-2" d="M21.5,29.45a1,1,0,0,1-.67-1.62l7-7a.95.95,0,0,1,1.34,1.34l-7,7A.92.92,0,0,1,21.5,29.45Z"/><path class="cls-2" d="M31.26,37.86a1,1,0,0,1-.84-.51L28.18,33.1a1,1,0,1,1,1.69-.89l2.23,4.25a1,1,0,0,1-.4,1.29A1,1,0,0,1,31.26,37.86Z"/><path class="cls-2" d="M21,18.3a1,1,0,0,1-.85-.51L17.9,13.54a1,1,0,1,1,1.68-.89l2.24,4.25a1,1,0,0,1-.4,1.29A1,1,0,0,1,21,18.3Z"/><path class="cls-2" d="M17.34,21.93a1,1,0,0,1-.44-.11l-4.25-2.24a1,1,0,1,1,.89-1.68l4.25,2.23a1,1,0,0,1-.45,1.8Z"/><path class="cls-2" d="M36.9,32.21a.87.87,0,0,1-.44-.11l-4.24-2.23a1,1,0,0,1,.88-1.69l4.25,2.24a1,1,0,0,1,.4,1.28A.94.94,0,0,1,36.9,32.21Z"/></g></g></g></svg>