<svg id="Layer_1" data-name="Layer 1" xmlns="http://www.w3.org/2000/svg" xmlns:xlink="http://www.w3.org/1999/xlink" viewBox="0 0 612 612"><defs><style>.cls-1,.cls-2,.cls-3,.cls-4{stroke:#232323;stroke-miterlimit:10;stroke-width:1.31px;}.cls-1{fill:url(#linear-gradient);}.cls-2{fill:url(#linear-gradient-2);}.cls-3{fill:url(#linear-gradient-3);}.cls-4{fill:url(#linear-gradient-4);}</style><linearGradient id="linear-gradient" x1="178.33" y1="202.99" x2="178.33" y2="582.51" gradientUnits="userSpaceOnUse"><stop offset="0" stop-color="#fafafa"/><stop offset="1" stop-color="#ebebeb"/></linearGradient><linearGradient id="linear-gradient-2" x1="306.06" y1="28.88" x2="306.06" y2="215.12" xlink:href="#linear-gradient"/><linearGradient id="linear-gradient-3" x1="434.64" y1="203.03" x2="434.64" y2="582.62" xlink:href="#linear-gradient"/><linearGradient id="linear-gradient-4" x1="306.08" y1="152.05" x2="306.08" y2="448.88" xlink:href="#linear-gradient"/></defs><path class="cls-1" d="M290,582.51,66.64,456.14V203l75.91,43.38A172.23,172.23,0,0,0,289.84,471.76Z"/><path class="cls-2" d="M544.26,164.61,455.67,215.1a172.22,172.22,0,0,0-299.22,0l-26.79-15.26L67.87,164.61,306.06,28.88Z"/><path class="cls-3" d="M545.36,203V455.71L323.91,582.62v-111A172.31,172.31,0,0,0,469.6,246.4Z"/><path class="cls-4" d="M363.06,268.13H345v81.8h20.77s7-3.52,7.67-9.8V278.25S373.59,272.19,363.06,268.13Zm0,0H345v81.8h20.77s7-3.52,7.67-9.8V278.25S373.59,272.19,363.06,268.13Zm0,0H345v81.8h20.77s7-3.52,7.67-9.8V278.25S373.59,272.19,363.06,268.13Zm0,0H345v81.8h20.77s7-3.52,7.67-9.8V278.25S373.59,272.19,363.06,268.13Zm0,0H345v81.8h20.77s7-3.52,7.67-9.8V278.25S373.59,272.19,363.06,268.13Zm0,0H345v81.8h20.77s7-3.52,7.67-9.8V278.25S373.59,272.19,363.06,268.13Zm0,0H345v81.8h20.77s7-3.52,7.67-9.8V278.25S373.59,272.19,363.06,268.13Zm0,0H345v81.8h20.77s7-3.52,7.67-9.8V278.25S373.59,272.19,363.06,268.13Zm0,0H345v81.8h20.77s7-3.52,7.67-9.8V278.25S373.59,272.19,363.06,268.13Zm0,0H345v81.8h20.77s7-3.52,7.67-9.8V278.25S373.59,272.19,363.06,268.13Zm85.45-9.52a148.41,148.41,0,0,0-290.84,41.86A148.45,148.45,0,0,0,289.83,448a150.66,150.66,0,0,0,34.1-.18A148.54,148.54,0,0,0,448.51,258.61ZM296.87,349.93a28.69,28.69,0,0,1-7.19,18.12v.05c-9.07,10.3-23.48,12.49-23.48,12.49H225v-29.7l41.2-1.29V323.73H225V293.06h41.2v-24.6H225v-31h43.45c28.42,4.48,28.83,32.59,28.83,32.59s.24,14.38,0,24.28a6.72,6.72,0,0,1-.07,1.09c-.56,9.16-5.77,13.61-5.77,13.61C296.56,318.93,298.15,323.73,296.87,349.93Zm107-6.39c-7,35.14-37.39,37-37.39,37H314.45V237.46h51.43c12.73,2.3,21.2,7.63,26.83,13.64a42.83,42.83,0,0,1,11.19,26Zm-40.84-75.41H345v81.8h20.77s7-3.52,7.67-9.8V278.25S373.59,272.19,363.06,268.13Zm0,0H345v81.8h20.77s7-3.52,7.67-9.8V278.25S373.59,272.19,363.06,268.13Zm0,0H345v81.8h20.77s7-3.52,7.67-9.8V278.25S373.59,272.19,363.06,268.13Zm0,0H345v81.8h20.77s7-3.52,7.67-9.8V278.25S373.59,272.19,363.06,268.13Zm0,0H345v81.8h20.77s7-3.52,7.67-9.8V278.25S373.59,272.19,363.06,268.13Zm0,0H345v81.8h20.77s7-3.52,7.67-9.8V278.25S373.59,272.19,363.06,268.13Zm0,0H345v81.8h20.77s7-3.52,7.67-9.8V278.25S373.59,272.19,363.06,268.13Zm0,0H345v81.8h20.77s7-3.52,7.67-9.8V278.25S373.59,272.19,363.06,268.13Zm0,0H345v81.8h20.77s7-3.52,7.67-9.8V278.25S373.59,272.19,363.06,268.13Zm0,0H345v81.8h20.77s7-3.52,7.67-9.8V278.25S373.59,272.19,363.06,268.13Zm0,0H345v81.8h20.77s7-3.52,7.67-9.8V278.25S373.59,272.19,363.06,268.13Z"/></svg>