<svg xmlns="http://www.w3.org/2000/svg" viewBox="0 0 50 50"><defs><style>.cls-1{fill:#353942;}.cls-2{fill:#5b616b;}</style></defs><g id="Layer_2" data-name="Layer 2"><g id="Layer_151" data-name="Layer 151"><g id="VRT"><path class="cls-1" d="M25,50A25,25,0,1,1,50,25,25,25,0,0,1,25,50Z"/><path class="cls-2" d="M24.85,37.86a1,1,0,0,1-.48-.13,1,1,0,0,1-.47-.84L24,27.24a.92.92,0,0,1,.47-.81l12-6.9a1,1,0,0,1,1,0,.94.94,0,0,1,.48.82V30a1,1,0,0,1-.48.82l-12.05,6.9A.91.91,0,0,1,24.85,37.86ZM25.91,27.8l-.09,7.45L36,29.46V22Z"/><path class="cls-2" d="M24.85,37.86a1,1,0,0,1-.5-.14L12.59,30.46a1,1,0,0,1-.45-.81V20a1,1,0,0,1,.49-.83.94.94,0,0,1,1,0l11.87,7.26a.94.94,0,0,1,.45.82l-.1,9.65a1,1,0,0,1-.5.83A.93.93,0,0,1,24.85,37.86Zm-10.8-8.75,9.87,6.1L24,27.78l-9.95-6.09Z"/><path class="cls-2" d="M25,28.2a.9.9,0,0,1-.5-.14L12.6,20.8a.94.94,0,0,1-.46-.82,1,1,0,0,1,.48-.81l11.94-6.9a1,1,0,0,1,1,0L37.4,19.54a1,1,0,0,1,0,1.64l-11.94,6.9A1,1,0,0,1,25,28.2ZM15,20l10,6.12L35,20.33,25,14.2Z"/><path class="cls-2" d="M26.49,17l.81-.47L26.49,16,24,17.46l.82.47.81-.46,5.06,2.93.9-.52Zm-.21,2.78c.19-.27.12-.53-.4-.83l-1.11-.64a2,2,0,0,0-2.19,0l-1.48.85L27,22.53l.9-.52-2.35-1.37.4-.24a.7.7,0,0,1,.76,0l2,1.15.9-.52-2-1.16A1.42,1.42,0,0,0,26.28,19.73ZM25.14,20l-.4.23L22.8,19.06l.44-.25a.6.6,0,0,1,.67,0l1.25.73C25.4,19.67,25.4,19.8,25.14,20Zm-5.27-.13,3.83,2.87-4.91-2.24-.91.52,6.76,2.92,1.1-.64-5-3.93Z"/><path class="cls-2" d="M18.09,25.48v.89L16.9,27a2.87,2.87,0,0,1,1.25,2.23c0,1-.64,1.4-1.69.8a4.7,4.7,0,0,1-1.81-2l.71-.36A3,3,0,0,0,16.48,29c.39.23.66.13.66-.27a1.53,1.53,0,0,0-.91-1.23l-.43-.24-.15-.85,1.12-.64-1.84-1.06v-1Z"/><path class="cls-2" d="M20.94,27.13a5.06,5.06,0,0,1,2.47,4.09v0c0,1.51-1,2.1-2.49,1.25L19.1,31.44V26.07Zm1.39,3.51v0a2.89,2.89,0,0,0-1.4-2.43l-.79-.46V31l.79.46c.84.49,1.41.17,1.41-.78"/></g></g></g></svg>