<svg xmlns="http://www.w3.org/2000/svg" viewBox="0 0 50 50"><defs><style>.cls-1{fill:#353942;}.cls-2{fill:#5b616b;}</style></defs><g id="Layer_2" data-name="Layer 2"><g id="Layer_151" data-name="Layer 151"><g id="WaveformBasicAudio"><path class="cls-1" d="M25,50A25,25,0,1,1,50,25,25,25,0,0,1,25,50Z"/><path class="cls-2" d="M24.05,37.86a.93.93,0,0,1-.71-.32L17,30.36H13.1a1,1,0,0,1-1-1V20.6a1,1,0,0,1,1-1H17l6.39-7.18A.95.95,0,0,1,25,13.1V36.9a.94.94,0,0,1-.61.89A.83.83,0,0,1,24.05,37.86Zm-10-9.41h3.33a1,1,0,0,1,.71.32l5,5.63V15.6l-5,5.63a1,1,0,0,1-.71.32H14.05Z"/><path class="cls-2" d="M28.17,37.55A1,1,0,0,1,28,35.67c4.78-1.11,8-5.4,8-10.67s-3.21-9.56-8-10.67a.95.95,0,0,1,.43-1.85c5.66,1.31,9.47,6.34,9.47,12.52s-3.81,11.21-9.47,12.53Z"/><path class="cls-2" d="M28.17,32.55A1,1,0,0,1,28,30.67c2.44-.57,4-2.79,4-5.67s-1.57-5.1-4-5.67a1,1,0,0,1,.43-1.86c3.34.78,5.5,3.73,5.5,7.53s-2.16,6.75-5.5,7.53Z"/></g></g></g></svg>