<svg xmlns="http://www.w3.org/2000/svg" viewBox="0 0 50 50"><defs><style>.cls-1{fill:#353942;}.cls-2{fill:#5b616b;}</style></defs><g id="Layer_2" data-name="Layer 2"><g id="Layer_151" data-name="Layer 151"><g id="WindowLevelCustom"><path class="cls-1" d="M25,50A25,25,0,1,1,50,25,25,25,0,0,1,25,50Z"/><path class="cls-2" d="M25,33.26a.94.94,0,0,1-.95-.95V30.39a.95.95,0,0,1,1.9,0v1.92A.94.94,0,0,1,25,33.26Z"/><path class="cls-2" d="M25,20.56a1,1,0,0,1-.95-.95V17.69a1,1,0,0,1,1.9,0v1.92A1,1,0,0,1,25,20.56Z"/><path class="cls-2" d="M21.19,22.14a.94.94,0,0,1-.68-.28L19.16,20.5a.95.95,0,1,1,1.34-1.34l1.36,1.35a1,1,0,0,1,0,1.35A.94.94,0,0,1,21.19,22.14Z"/><path class="cls-2" d="M30.17,31.12a.92.92,0,0,1-.67-.28l-1.36-1.35a1,1,0,1,1,1.35-1.35l1.35,1.36a1,1,0,0,1-.67,1.62Z"/><path class="cls-2" d="M28.81,22.14a.94.94,0,0,1-.67-.28,1,1,0,0,1,0-1.35l1.36-1.35a.95.95,0,1,1,1.34,1.34l-1.35,1.36A.94.94,0,0,1,28.81,22.14Z"/><path class="cls-2" d="M19.83,31.12a1,1,0,0,1-.67-1.62l1.35-1.36a1,1,0,1,1,1.35,1.35L20.5,30.84A.92.92,0,0,1,19.83,31.12Z"/><path class="cls-2" d="M32.31,26H30.39a.95.95,0,0,1,0-1.9h1.92a1,1,0,1,1,0,1.9Z"/><path class="cls-2" d="M19.61,26H17.69a1,1,0,1,1,0-1.9h1.92a.95.95,0,0,1,0,1.9Z"/><path class="cls-2" d="M25,31.35A6.35,6.35,0,1,1,31.35,25,6.36,6.36,0,0,1,25,31.35Zm0-10.79A4.44,4.44,0,1,0,29.44,25,4.44,4.44,0,0,0,25,20.56Z"/><path class="cls-2" d="M27.39,25a2.39,2.39,0,0,1-4.78,0Z"/><path class="cls-2" d="M25,28.34A3.35,3.35,0,0,1,21.66,25a1,1,0,0,1,.95-.95h4.78a1,1,0,0,1,.95.95A3.35,3.35,0,0,1,25,28.34ZM23.93,26a1.41,1.41,0,0,0,2.14,0Z"/><path class="cls-2" d="M36.9,37.86H33.33a1,1,0,0,1,0-1.91H36V33.33a1,1,0,0,1,1.91,0V36.9A1,1,0,0,1,36.9,37.86Z"/><path class="cls-2" d="M27.78,37.86H22.22a1,1,0,0,1,0-1.91h5.56a1,1,0,0,1,0,1.91Z"/><path class="cls-2" d="M16.67,37.86H13.1a1,1,0,0,1-1-1V33.33a1,1,0,0,1,1.91,0V36h2.62a1,1,0,0,1,0,1.91Z"/><path class="cls-2" d="M13.1,28.73a1,1,0,0,1-1-.95V22.22a1,1,0,0,1,1.91,0v5.56A1,1,0,0,1,13.1,28.73Z"/><path class="cls-2" d="M13.1,17.62a1,1,0,0,1-1-.95V13.1a1,1,0,0,1,1-1h3.57a1,1,0,0,1,0,1.91H14.05v2.62A1,1,0,0,1,13.1,17.62Z"/><path class="cls-2" d="M27.78,14.05H22.22a1,1,0,0,1,0-1.91h5.56a1,1,0,0,1,0,1.91Z"/><path class="cls-2" d="M36.9,17.62a1,1,0,0,1-.95-.95V14.05H33.33a1,1,0,0,1,0-1.91H36.9a1,1,0,0,1,1,1v3.57A1,1,0,0,1,36.9,17.62Z"/><path class="cls-2" d="M36.9,28.73a1,1,0,0,1-.95-.95V22.22a1,1,0,0,1,1.91,0v5.56A1,1,0,0,1,36.9,28.73Z"/></g></g></g></svg>