<svg xmlns="http://www.w3.org/2000/svg" viewBox="0 0 50 50"><defs><style>.cls-1{fill:#353942;}.cls-2{fill:#5b616b;}</style></defs><g id="Layer_2" data-name="Layer 2"><g id="Layer_151" data-name="Layer 151"><g id="ZoomIn"><path class="cls-1" d="M25,50A25,25,0,1,1,50,25,25,25,0,0,1,25,50Z"/><path class="cls-2" d="M36.9,37.86a1,1,0,0,1-.67-.28l-5.45-5.45a1,1,0,0,1,1.35-1.35l5.45,5.45a1,1,0,0,1,0,1.35A1,1,0,0,1,36.9,37.86Z"/><path class="cls-2" d="M23.81,35.48A11.67,11.67,0,1,1,35.48,23.81,11.69,11.69,0,0,1,23.81,35.48Zm0-21.43a9.76,9.76,0,1,0,9.76,9.76A9.77,9.77,0,0,0,23.81,14.05Z"/><path class="cls-2" d="M28.45,24.76H19.17a1,1,0,1,1,0-1.9h9.28a1,1,0,0,1,0,1.9Z"/></g></g></g></svg>