<svg id="Layer_1" data-name="Layer 1" xmlns="http://www.w3.org/2000/svg" xmlns:xlink="http://www.w3.org/1999/xlink" viewBox="0 0 612 612"><defs><style>.cls-1,.cls-2{stroke:#232323;stroke-miterlimit:10;stroke-width:1.31px;}.cls-1{fill:url(#linear-gradient);}.cls-2{fill:url(#linear-gradient-2);}</style><linearGradient id="linear-gradient" x1="287.85" y1="238.99" x2="287.85" y2="268.61" gradientUnits="userSpaceOnUse"><stop offset="0" stop-color="#fafafa"/><stop offset="1" stop-color="#ebebeb"/></linearGradient><linearGradient id="linear-gradient-2" x1="306" y1="30.91" x2="306" y2="581.09" xlink:href="#linear-gradient"/></defs><path class="cls-1" d="M360,239H215.68a14.81,14.81,0,0,0,0,29.62H360A14.81,14.81,0,0,0,360,239Z"/><path class="cls-2" d="M580,520.2a63.21,63.21,0,0,1-98.71,49.95l-23.66-29.8L348,402.23l9.73-7.72a204.51,204.51,0,0,1-24.06,15.93h0c-1.74,1-3.51,1.94-5.28,2.87-.89.47-1.79.94-2.69,1.39s-1.93,1-2.91,1.44a1.8,1.8,0,0,1-.34.17l-2,1-.51.24c-1.36.63-2.7,1.25-4.07,1.84-1.54.69-3.1,1.34-4.65,2-2.22.93-4.45,1.79-6.7,2.61a0,0,0,0,0,0,0,202.3,202.3,0,0,1-169-13.48c-1.85-1-3.67-2.11-5.49-3.21a17,17,0,0,1,15.75-29.15q3.63,2.25,7.36,4.29A169.18,169.18,0,0,0,348.6,359.11c2-1.84,4-3.71,5.9-5.64a172.69,172.69,0,0,0,15.9-18.36c.68-.89,1.32-1.77,2-2.67a168.81,168.81,0,0,0,31.77-98.77C404.13,140.11,328.07,64,234.55,64a168.84,168.84,0,0,0-107.77,38.77h0c-2.08,1.73-4.14,3.52-6.14,5.33s-4,3.71-5.89,5.63A172.73,172.73,0,0,0,101.22,129,169.36,169.36,0,0,0,87.78,318.53h0c.6,1.06,1.21,2.1,1.85,3.13A17,17,0,0,1,63,341.46q-2.81-4.45-5.39-9.07h0a202.72,202.72,0,0,1,46-253.32,195.06,195.06,0,0,1,15.52-12c1.78-1.25,3.6-2.46,5.43-3.66,1.22-.78,2.45-1.57,3.69-2.34s2.26-1.39,3.4-2.06l.34-.2c1.26-.74,2.52-1.48,3.77-2.18a.63.63,0,0,0,.12-.07c1.24-.69,2.48-1.37,3.74-2,1.81-1,3.64-1.91,5.47-2.81,1.28-.66,2.58-1.29,3.9-1.87q4.88-2.3,9.89-4.33a201.77,201.77,0,0,1,75.66-14.65c111.75,0,202.66,90.94,202.66,202.76A202,202,0,0,1,389,364.75l0,.06a206.65,206.65,0,0,1-23.4,23.38l0,0c-1.15,1-2.29,1.93-3.46,2.86l12.28-9.74,85.86,108.12,8.95,11.26,38.53,48.52a.71.71,0,0,0,.53.16,40,40,0,0,0,40-40.54s0,0,0,0l-47.79-38.68-11.35-9.19-107.42-87,21.22-26.22L540.58,459.16l28.6,23.15c.1.14.2.28.28.42A63,63,0,0,1,580,520.2Z"/></svg>