<svg id="Layer_1" data-name="Layer 1" xmlns="http://www.w3.org/2000/svg" xmlns:xlink="http://www.w3.org/1999/xlink" viewBox="0 0 612 612"><defs><style>.cls-1,.cls-2,.cls-3,.cls-4,.cls-5,.cls-6{stroke:#232323;stroke-miterlimit:10;stroke-width:1.31px;}.cls-1{fill:url(#linear-gradient);}.cls-2{fill:url(#linear-gradient-2);}.cls-3{fill:url(#linear-gradient-3);}.cls-4{fill:url(#linear-gradient-4);}.cls-5{fill:url(#linear-gradient-5);}.cls-6{fill:url(#linear-gradient-6);}</style><linearGradient id="linear-gradient" x1="148.28" y1="304.78" x2="148.28" y2="306.97" gradientUnits="userSpaceOnUse"><stop offset="0" stop-color="#fafafa"/><stop offset="1" stop-color="#ebebeb"/></linearGradient><linearGradient id="linear-gradient-2" x1="234.28" y1="122.77" x2="234.28" y2="219" xlink:href="#linear-gradient"/><linearGradient id="linear-gradient-3" x1="234.43" y1="254.25" x2="234.43" y2="350.38" xlink:href="#linear-gradient"/><linearGradient id="linear-gradient-4" x1="306" y1="29.83" x2="306" y2="582.17" xlink:href="#linear-gradient"/><linearGradient id="linear-gradient-5" x1="484.89" y1="419.47" x2="484.89" y2="419.77" xlink:href="#linear-gradient"/><linearGradient id="linear-gradient-6" x1="423.21" y1="481" x2="423.21" y2="481.03" xlink:href="#linear-gradient"/></defs><path class="cls-1" d="M148.93,307c-.45-.72-.88-1.45-1.3-2.19A12,12,0,0,1,148.93,307Z"/><path class="cls-2" d="M307,219H161.6a11.77,11.77,0,0,1-8.33-20.1L226,126.22a11.78,11.78,0,0,1,16.66,0l72.68,72.68A11.77,11.77,0,0,1,307,219Z"/><path class="cls-3" d="M315,274.84l-72,72a12.05,12.05,0,0,1-17,0l-72-72a12.06,12.06,0,0,1,8.53-20.59h144A12.06,12.06,0,0,1,315,274.84Z"/><path class="cls-4" d="M581.1,521A63.78,63.78,0,0,1,522.78,582,63.14,63.14,0,0,1,482,571.18l-23.76-29.91L348.15,402.61l9.78-7.76a204.16,204.16,0,0,1-24.16,16h0c-1.75,1-3.53,1.95-5.31,2.88-.88.47-1.79.95-2.69,1.39s-1.94,1-2.92,1.45a1.87,1.87,0,0,1-.35.17l-2,1a4.9,4.9,0,0,1-.52.24c-1.36.64-2.71,1.27-4.08,1.85q-2.33,1-4.67,2c-2.23.93-4.46,1.79-6.73,2.63a0,0,0,0,0,0,0,203.11,203.11,0,0,1-169.68-13.53c-1.85-1.05-3.69-2.12-5.51-3.23a17.05,17.05,0,0,1,11.21-29.89,16.72,16.72,0,0,1,4.61.64q3.63,2.25,7.38,4.3a169.86,169.86,0,0,0,196.3-23.38c2-1.85,4-3.73,5.92-5.67a171,171,0,0,0,16-18.43c.67-.89,1.31-1.78,2-2.68a169.4,169.4,0,0,0,31.89-99.15c0-93.92-76.36-170.31-170.23-170.31A169.53,169.53,0,0,0,126.08,102a0,0,0,0,0,0,0c-2.09,1.73-4.15,3.53-6.16,5.35s-4,3.72-5.92,5.64a172.57,172.57,0,0,0-13.56,15.3A170,170,0,0,0,86.93,318.58h0c.61,1.06,1.22,2.11,1.87,3.14a17.06,17.06,0,0,1-15.54,24.1A16.93,16.93,0,0,1,62,341.6q-2.8-4.47-5.41-9.1v0a203.51,203.51,0,0,1,46.2-254.31,196.62,196.62,0,0,1,15.58-12c1.79-1.25,3.61-2.46,5.45-3.67,1.23-.79,2.46-1.57,3.71-2.35s2.26-1.39,3.41-2.06l.34-.2c1.27-.75,2.53-1.49,3.79-2.2a1.05,1.05,0,0,0,.11-.07c1.25-.69,2.5-1.37,3.76-2q2.73-1.47,5.49-2.83c1.29-.66,2.59-1.29,3.91-1.88q4.91-2.3,9.94-4.34a202.65,202.65,0,0,1,76-14.71c112.18,0,203.45,91.3,203.45,203.56A202.74,202.74,0,0,1,389.29,365l.06.06a208.42,208.42,0,0,1-23.5,23.48l0,0c-1.15,1-2.29,1.94-3.47,2.87l12.33-9.78,86.19,108.55,9,11.31,38.68,48.7a.71.71,0,0,0,.53.16,40.16,40.16,0,0,0,40.16-40.69v0l-48-38.84-11.4-9.23L382,374.2l21.31-26.32L541.5,459.76,570.21,483c.1.14.2.28.29.43A63.23,63.23,0,0,1,581.1,521Z"/><path class="cls-5" d="M485,419.69l-.07.08-.2-.3Z"/><path class="cls-6" d="M423.2,481s0,0,0,0h0Z"/></svg>