<svg id="Layer_1" data-name="Layer 1" xmlns="http://www.w3.org/2000/svg" xmlns:xlink="http://www.w3.org/1999/xlink" viewBox="0 0 612 612"><defs><style>.cls-1{stroke:#232323;stroke-miterlimit:10;fill:url(#linear-gradient);}</style><linearGradient id="linear-gradient" x1="306.07" y1="109.15" x2="306.07" y2="497.97" gradientUnits="userSpaceOnUse"><stop offset="0" stop-color="#f2f2f2"/><stop offset="0.78" stop-color="#d5d5d5"/><stop offset="1" stop-color="#ccc"/></linearGradient></defs><path id="AlignMiddle" class="cls-1" d="M491.18,291.22H421.76V196.74A14.82,14.82,0,0,0,407,181.92H342.16a14.82,14.82,0,0,0-14.8,14.82v94.48H281.08V120.78A14.82,14.82,0,0,0,266.28,106H201.49a14.82,14.82,0,0,0-14.81,14.82V291.22H121a14.83,14.83,0,0,0,0,29.65h65.71V491.31a14.82,14.82,0,0,0,14.81,14.82h64.79a14.82,14.82,0,0,0,14.8-14.82V320.86h46.28v94.49a14.82,14.82,0,0,0,14.81,14.82H407a14.82,14.82,0,0,0,14.81-14.82V320.86h69.42a14.82,14.82,0,0,0,0-29.64ZM216.3,476.49V135.6h35.17V476.49Zm175.84-76H357v-189h35.16Z"/></svg>