<svg id="Layer_1" data-name="Layer 1" xmlns="http://www.w3.org/2000/svg" xmlns:xlink="http://www.w3.org/1999/xlink" viewBox="0 0 612 612"><defs><style>.cls-1{stroke:#232323;stroke-miterlimit:10;fill:url(#linear-gradient);}</style><linearGradient id="linear-gradient" x1="306.26" y1="112.87" x2="306.26" y2="509.01" gradientUnits="userSpaceOnUse"><stop offset="0" stop-color="#fff"/><stop offset="0.6" stop-color="#e2e2e2"/><stop offset="1" stop-color="#ccc"/></linearGradient></defs><path id="AlignTop" class="cls-1" d="M490.71,106.54H121.81a14.77,14.77,0,0,0,0,29.54h368.9a14.77,14.77,0,0,0,0-29.54ZM274,182.23H209.41A14.77,14.77,0,0,0,194.66,197V490.55a14.77,14.77,0,0,0,14.75,14.77H274a14.77,14.77,0,0,0,14.76-14.77V197A14.76,14.76,0,0,0,274,182.23ZM259.21,475.78h-35v-264h35ZM403.09,182.23H338.53A14.77,14.77,0,0,0,323.77,197V414.85a14.76,14.76,0,0,0,14.76,14.77h64.56a14.76,14.76,0,0,0,14.75-14.77V197A14.76,14.76,0,0,0,403.09,182.23ZM388.33,400.08H353.28V211.77h35.05Z"/></svg>