<svg id="Layer_1" data-name="Layer 1" xmlns="http://www.w3.org/2000/svg" xmlns:xlink="http://www.w3.org/1999/xlink" viewBox="0 0 612 612"><defs><style>.cls-1{stroke:#232323;stroke-miterlimit:10;fill:url(#linear-gradient);}</style><linearGradient id="linear-gradient" x1="306.31" y1="104.52" x2="306.31" y2="490.49" gradientUnits="userSpaceOnUse"><stop offset="0" stop-color="#fff"/><stop offset="0.6" stop-color="#e2e2e2"/><stop offset="1" stop-color="#ccc"/></linearGradient></defs><path id="AlignBottom" class="cls-1" d="M491.23,476.93H121.39a14.84,14.84,0,0,0,0,29.67H491.23a14.84,14.84,0,0,0,0-29.67Zm-282-46.37h64.72a14.83,14.83,0,0,0,14.8-14.84V120.82A14.83,14.83,0,0,0,273.94,106H209.22a14.82,14.82,0,0,0-14.79,14.84v294.9A14.82,14.82,0,0,0,209.22,430.56ZM224,135.65h35.14V400.88H224V135.65ZM338.66,430.56h64.73a14.82,14.82,0,0,0,14.79-14.84V196.86A14.82,14.82,0,0,0,403.39,182H338.66a14.82,14.82,0,0,0-14.79,14.84V415.72A14.82,14.82,0,0,0,338.66,430.56Zm14.8-218.86h35.13V400.88H353.46V211.7Z"/></svg>