<svg id="Layer_1" data-name="Layer 1" xmlns="http://www.w3.org/2000/svg" xmlns:xlink="http://www.w3.org/1999/xlink" viewBox="0 0 612 612"><defs><style>.cls-1,.cls-2,.cls-3{stroke:#232323;stroke-miterlimit:10;stroke-width:1.31px;}.cls-1{fill:url(#linear-gradient);}.cls-2{fill:url(#linear-gradient-2);}.cls-3{fill:url(#linear-gradient-3);}</style><linearGradient id="linear-gradient" x1="52.27" y1="31.25" x2="52.27" y2="580.78" gradientUnits="userSpaceOnUse"><stop offset="0" stop-color="#fafafa"/><stop offset="1" stop-color="#ebebeb"/></linearGradient><linearGradient id="linear-gradient-2" x1="306.53" y1="330.17" x2="306.53" y2="459.92" xlink:href="#linear-gradient"/><linearGradient id="linear-gradient-3" x1="358.65" y1="152.08" x2="358.65" y2="281.83" xlink:href="#linear-gradient"/></defs><path id="AlignLeft" class="cls-1" d="M52.27,31.25A20.35,20.35,0,0,0,31.92,51.6V560.42a20.35,20.35,0,1,0,40.69,0V51.6A20.36,20.36,0,0,0,52.27,31.25Z"/><path class="cls-2" d="M476.88,350.53v89a20.35,20.35,0,0,1-20.34,20.36h-300a20.36,20.36,0,0,1-20.34-20.36v-89a20.35,20.35,0,0,1,20.34-20.36h300A20.35,20.35,0,0,1,476.88,350.53Z"/><path class="cls-3" d="M581.13,172.44v89.05a20.34,20.34,0,0,1-20.34,20.34H156.51a20.34,20.34,0,0,1-20.34-20.34V172.44a20.36,20.36,0,0,1,20.34-20.36H560.79A20.36,20.36,0,0,1,581.13,172.44Z"/></svg>