<svg id="Layer_1" data-name="Layer 1" xmlns="http://www.w3.org/2000/svg" xmlns:xlink="http://www.w3.org/1999/xlink" viewBox="0 0 612 612"><defs><style>.cls-1{stroke:#232323;stroke-miterlimit:10;stroke-width:1.31px;fill:url(#linear-gradient);}</style><linearGradient id="linear-gradient" x1="306.04" y1="31.25" x2="306.04" y2="580.78" gradientUnits="userSpaceOnUse"><stop offset="0" stop-color="#fafafa"/><stop offset="1" stop-color="#ebebeb"/></linearGradient></defs><path class="cls-1" d="M580.92,162.27v89a20.37,20.37,0,0,1-20.36,20.36H326.39v63.6H456.21a20.36,20.36,0,0,1,20.36,20.35v89.05A20.36,20.36,0,0,1,456.21,465H326.41v95.42a20.37,20.37,0,0,1-40.74,0V465H155.87a20.36,20.36,0,0,1-20.36-20.34V355.62a20.36,20.36,0,0,1,20.36-20.35h129.8v-63.6H51.53a20.37,20.37,0,0,1-20.36-20.36v-89a20.36,20.36,0,0,1,20.36-20.34H285.67V51.6a20.36,20.36,0,0,1,40.72,0v90.33H560.56A20.37,20.37,0,0,1,580.92,162.27Z"/></svg>