<?xml version="1.0" encoding="iso-8859-1"?>
<!-- Generator: Adobe Illustrator 21.1.0, SVG Export Plug-In . SVG Version: 6.00 Build 0)  -->
<svg version="1.1" xmlns="http://www.w3.org/2000/svg" xmlns:xlink="http://www.w3.org/1999/xlink" x="0px" y="0px"
	 viewBox="0 0 50 50" style="enable-background:new 0 0 50 50;" xml:space="preserve">
<g id="AlignCenter">
	<path style="fill:#5280DF;" d="M25,50C11.215,50,0,38.785,0,25C0,11.215,11.215,0,25,0c13.785,0,25,11.215,25,25
		C50,38.785,38.785,50,25,50z M25,1.905C12.265,1.905,1.905,12.265,1.905,25S12.265,48.095,25,48.095S48.095,37.735,48.095,25
		S37.735,1.905,25,1.905z"/>
	<path style="fill:#5280DF;" d="M25,37.857c-0.526,0-0.952-0.426-0.952-0.952v-5.417c0-0.526,0.426-0.952,0.952-0.952
		s0.952,0.426,0.952,0.952v5.417C25.952,37.431,25.526,37.857,25,37.857z"/>
	<path style="fill:#5280DF;" d="M25,28.273c-0.526,0-0.952-0.426-0.952-0.952V22.44c0-0.526,0.426-0.952,0.952-0.952
		s0.952,0.426,0.952,0.952v4.881C25.952,27.847,25.526,28.273,25,28.273z"/>
	<path style="fill:#5280DF;" d="M25,19.226c-0.526,0-0.952-0.426-0.952-0.952v-5.179c0-0.526,0.426-0.952,0.952-0.952
		s0.952,0.426,0.952,0.952v5.179C25.952,18.8,25.526,19.226,25,19.226z"/>
	<path style="fill:#5280DF;" d="M36.905,23.393h-23.81c-0.526,0-0.952-0.426-0.952-0.952v-4.167c0-0.526,0.426-0.952,0.952-0.952
		h23.81c0.526,0,0.952,0.426,0.952,0.952v4.167C37.857,22.966,37.431,23.393,36.905,23.393z M14.048,21.488h21.905v-2.262H14.048
		V21.488z"/>
	<path style="fill:#5280DF;" d="M32.024,32.44H17.976c-0.526,0-0.952-0.426-0.952-0.952v-4.167c0-0.526,0.426-0.952,0.952-0.952
		h14.048c0.526,0,0.952,0.426,0.952,0.952v4.167C32.976,32.014,32.55,32.44,32.024,32.44z M18.929,30.536h12.143v-2.262H18.929
		V30.536z"/>
</g>
<g id="Layer_1">
</g>
</svg>
