<svg id="Layer_1" data-name="Layer 1" xmlns="http://www.w3.org/2000/svg" xmlns:xlink="http://www.w3.org/1999/xlink" viewBox="0 0 612 612"><defs><style>.cls-1{stroke:#232323;stroke-miterlimit:10;fill:url(#linear-gradient);}</style><linearGradient id="linear-gradient" x1="305.57" y1="108.41" x2="305.57" y2="515" gradientUnits="userSpaceOnUse"><stop offset="0" stop-color="#fff"/><stop offset="0.6" stop-color="#e2e2e2"/><stop offset="1" stop-color="#ccc"/></linearGradient></defs><path id="AlignRight" class="cls-1" d="M491.08,106.29a14.84,14.84,0,0,0-14.84,14.83V491.84a14.84,14.84,0,0,0,29.68,0V121.11A14.84,14.84,0,0,0,491.08,106.29Zm-76.06,88h-295a14.85,14.85,0,0,0-14.84,14.83V274a14.84,14.84,0,0,0,14.84,14.83H415A14.84,14.84,0,0,0,429.86,274V209.15A14.85,14.85,0,0,0,415,194.32ZM400.18,259.2H134.9V224H400.18ZM415,324.08H196.12a14.84,14.84,0,0,0-14.84,14.83v64.87a14.84,14.84,0,0,0,14.84,14.83H415a14.84,14.84,0,0,0,14.84-14.83V338.91A14.84,14.84,0,0,0,415,324.08ZM400.18,389H211V353.74H400.18V389Z"/></svg>