<svg id="Layer_1" data-name="Layer 1" xmlns="http://www.w3.org/2000/svg" xmlns:xlink="http://www.w3.org/1999/xlink" viewBox="0 0 612 612"><defs><style>.cls-1{stroke:#232323;stroke-miterlimit:10;fill:url(#linear-gradient);}</style><linearGradient id="linear-gradient" x1="306.53" y1="99.67" x2="306.53" y2="490.42" gradientUnits="userSpaceOnUse"><stop offset="0" stop-color="#fff"/><stop offset="0.6" stop-color="#e2e2e2"/><stop offset="1" stop-color="#ccc"/></linearGradient></defs><path id="AlignLeft" class="cls-1" d="M122.06,106.29a14.77,14.77,0,0,0-14.75,14.77V490.2a14.76,14.76,0,1,0,29.51,0V121.06A14.77,14.77,0,0,0,122.06,106.29ZM491,194H197.69a14.77,14.77,0,0,0-14.76,14.76v64.6a14.78,14.78,0,0,0,14.76,14.77H491a14.78,14.78,0,0,0,14.76-14.77v-64.6A14.76,14.76,0,0,0,491,194Zm-14.76,64.6H212.45V223.49H476.23v35.07Zm-60.87,64.59H197.69a14.78,14.78,0,0,0-14.76,14.77v64.6a14.78,14.78,0,0,0,14.76,14.77H415.36a14.78,14.78,0,0,0,14.76-14.77v-64.6A14.77,14.77,0,0,0,415.36,323.15Zm-14.76,64.6H212.45V352.69H400.6v35.06Z"/></svg>