<svg id="Layer_1" data-name="Layer 1" xmlns="http://www.w3.org/2000/svg" xmlns:xlink="http://www.w3.org/1999/xlink" viewBox="0 0 612 612"><defs><style>.cls-1,.cls-2,.cls-3{stroke:#232323;stroke-miterlimit:10;stroke-width:1.31px;}.cls-1{fill:url(#linear-gradient);}.cls-2{fill:url(#linear-gradient-2);}.cls-3{fill:url(#linear-gradient-3);}</style><linearGradient id="linear-gradient" x1="305.71" y1="540.69" x2="305.71" y2="581.44" gradientUnits="userSpaceOnUse"><stop offset="0" stop-color="#fafafa"/><stop offset="1" stop-color="#ebebeb"/></linearGradient><linearGradient id="linear-gradient-2" x1="394.6" y1="135.59" x2="394.6" y2="476.99" xlink:href="#linear-gradient"/><linearGradient id="linear-gradient-3" x1="216.79" y1="31.13" x2="216.79" y2="476.99" xlink:href="#linear-gradient"/></defs><path id="AlignBottom" class="cls-1" d="M559.72,540.69H51.7a20.38,20.38,0,0,0,0,40.75h508a20.38,20.38,0,0,0,0-40.75Z"/><path class="cls-2" d="M459.37,156V456.6A20.36,20.36,0,0,1,439.05,477h-88.9a20.36,20.36,0,0,1-20.32-20.39V156a20.36,20.36,0,0,1,20.32-20.38h88.9A20.35,20.35,0,0,1,459.37,156Z"/><path class="cls-3" d="M281.56,51.51V456.6A20.36,20.36,0,0,1,261.25,477H172.34A20.37,20.37,0,0,1,152,456.6V51.51a20.36,20.36,0,0,1,20.33-20.38h88.91A20.35,20.35,0,0,1,281.56,51.51Z"/></svg>