<svg id="Layer_1" data-name="Layer 1" xmlns="http://www.w3.org/2000/svg" xmlns:xlink="http://www.w3.org/1999/xlink" viewBox="0 0 612 612"><defs><style>.cls-1{stroke:#232323;stroke-miterlimit:10;fill:url(#linear-gradient);}</style><linearGradient id="linear-gradient" x1="306.04" y1="103.82" x2="306.04" y2="504.06" gradientUnits="userSpaceOnUse"><stop offset="0" stop-color="#fff"/><stop offset="0.6" stop-color="#e2e2e2"/><stop offset="1" stop-color="#ccc"/></linearGradient></defs><path id="AlignCenter" class="cls-1" d="M491.05,186.75H320.84V121.1a14.8,14.8,0,1,0-29.6,0v65.65H121a14.8,14.8,0,0,0-14.8,14.8v64.72A14.8,14.8,0,0,0,121,281.06H291.24v46.23H196.89a14.8,14.8,0,0,0-14.8,14.8v64.72a14.8,14.8,0,0,0,14.8,14.8h94.35V491a14.8,14.8,0,1,0,29.6,0V421.61h94.35A14.81,14.81,0,0,0,430,406.81V342.09a14.81,14.81,0,0,0-14.81-14.8H320.84V281.06H491a14.8,14.8,0,0,0,14.81-14.79V201.55A14.81,14.81,0,0,0,491.05,186.75ZM400.39,392H211.69V356.88H400.4V392Zm75.85-140.54H135.84V216.34h340.4Z"/></svg>