<svg id="Layer_1" data-name="Layer 1" xmlns="http://www.w3.org/2000/svg" xmlns:xlink="http://www.w3.org/1999/xlink" viewBox="0 0 612 612"><defs><style>.cls-1{stroke:#232323;stroke-miterlimit:10;stroke-width:1.31px;fill:url(#linear-gradient);}</style><linearGradient id="linear-gradient" x1="306.08" y1="30.72" x2="306.08" y2="580.69" gradientUnits="userSpaceOnUse"><stop offset="0" stop-color="#fafafa"/><stop offset="1" stop-color="#ebebeb"/></linearGradient></defs><path class="cls-1" d="M580.83,305.71a20.37,20.37,0,0,1-20.36,20.37h-95.4V455.93a20.37,20.37,0,0,1-20.35,20.38h-89a20.38,20.38,0,0,1-20.36-20.38V326.08H271.73V560.32a20.36,20.36,0,0,1-20.35,20.37h-89A20.36,20.36,0,0,1,142,560.32V326.08H51.67a20.37,20.37,0,0,1,0-40.73H142V51.1a20.37,20.37,0,0,1,20.36-20.38h89A20.37,20.37,0,0,1,271.73,51.1V285.35h63.59V155.48a20.37,20.37,0,0,1,20.36-20.36h89a20.36,20.36,0,0,1,20.35,20.36V285.35h95.4A20.37,20.37,0,0,1,580.83,305.71Z"/></svg>