<?xml version="1.0" encoding="iso-8859-1"?>
<!-- Generator: Adobe Illustrator 21.1.0, SVG Export Plug-In . SVG Version: 6.00 Build 0)  -->
<svg version="1.1" xmlns="http://www.w3.org/2000/svg" xmlns:xlink="http://www.w3.org/1999/xlink" x="0px" y="0px"
	 viewBox="0 0 50 50" style="enable-background:new 0 0 50 50;" xml:space="preserve">
<g id="Annotations">
	<path style="fill:#5280DF;" d="M25,50C11.215,50,0,38.785,0,25C0,11.215,11.215,0,25,0c13.785,0,25,11.215,25,25
		C50,38.785,38.785,50,25,50z M25,1.905C12.265,1.905,1.905,12.265,1.905,25S12.265,48.095,25,48.095S48.095,37.735,48.095,25
		S37.735,1.905,25,1.905z"/>
	<path style="fill:#5280DF;" d="M18.653,32.275c-0.249,0-0.492-0.098-0.673-0.279c-0.246-0.246-0.339-0.608-0.24-0.942l1.216-4.137
		c0.045-0.153,0.127-0.292,0.24-0.405L30.898,14.8c0.372-0.372,0.975-0.372,1.347,0l2.922,2.919
		c0.179,0.178,0.279,0.421,0.279,0.673c0,0.253-0.1,0.495-0.279,0.674L23.464,30.779c-0.113,0.113-0.252,0.195-0.405,0.24
		l-4.137,1.217C18.833,32.262,18.743,32.275,18.653,32.275z M20.715,27.687l-0.655,2.229l2.229-0.656l10.859-10.867l-1.575-1.573
		L20.715,27.687z"/>
	<path style="fill:#5280DF;" d="M34.494,19.345c-0.245,0-0.489-0.094-0.675-0.281c-0.371-0.373-0.369-0.976,0.004-1.347l2-1.989
		c0.079-0.079,0.122-0.183,0.122-0.296c0-0.122-0.04-0.222-0.121-0.302l-0.976-0.975c-0.166-0.166-0.439-0.162-0.598-0.003
		l-2.005,1.996c-0.373,0.371-0.976,0.37-1.347-0.003c-0.371-0.373-0.37-0.976,0.003-1.347l2.001-1.992
		c0.435-0.438,1.021-0.681,1.646-0.681c0.623,0,1.209,0.243,1.648,0.685l0.972,0.971c0.441,0.438,0.684,1.025,0.682,1.652
		c0.001,0.614-0.239,1.199-0.679,1.642l-2.005,1.994C34.98,19.253,34.737,19.345,34.494,19.345z"/>
	<polygon style="fill:#5280DF;" points="18.654,31.323 22.469,29.898 20.077,27.507 18.654,31.322 18.653,31.323 18.654,31.322 
		18.654,31.323 	"/>
	<path style="fill:#5280DF;" d="M18.654,32.037h-0.001c-0.303,0-0.574-0.192-0.674-0.478c-0.057-0.161-0.052-0.332,0.005-0.485
		c0.004-0.011,0.008-0.021,0.013-0.032l1.412-3.784c0.085-0.228,0.28-0.397,0.517-0.448c0.237-0.051,0.485,0.021,0.657,0.193
		l2.391,2.391c0.172,0.172,0.245,0.419,0.193,0.657c-0.052,0.238-0.22,0.432-0.448,0.518l-3.814,1.424
		C18.824,32.021,18.74,32.037,18.654,32.037z M20.358,28.798l-0.488,1.308l1.308-0.488L20.358,28.798z"/>
	<path style="fill:#5280DF;" d="M31.908,37.857H15.476c-1.838,0-3.333-1.496-3.333-3.333V18.066c0-1.838,1.495-3.333,3.333-3.333
		h9.511c0.526,0,0.953,0.426,0.953,0.952c0,0.526-0.426,0.952-0.953,0.952h-9.511c-0.788,0-1.429,0.641-1.429,1.429v16.457
		c0,0.788,0.641,1.429,1.429,1.429h16.432c0.788,0,1.429-0.641,1.429-1.429v-9.536c0-0.526,0.426-0.952,0.952-0.952
		c0.526,0,0.952,0.426,0.952,0.952v9.536C35.242,36.362,33.746,37.857,31.908,37.857z"/>
</g>
<g id="Layer_1">
</g>
</svg>
