<svg id="Layer_1" data-name="Layer 1" xmlns="http://www.w3.org/2000/svg" xmlns:xlink="http://www.w3.org/1999/xlink" viewBox="0 0 612 612"><defs><style>.cls-1{stroke:#232323;stroke-miterlimit:10;stroke-width:1.31px;fill:url(#linear-gradient);}</style><linearGradient id="linear-gradient" x1="306" y1="31.96" x2="306" y2="580.04" gradientUnits="userSpaceOnUse"><stop offset="0" stop-color="#fafafa"/><stop offset="1" stop-color="#ebebeb"/></linearGradient></defs><path id="Annotations" class="cls-1" d="M565.7,67.23,545,46.54a49.75,49.75,0,0,0-70.29-.08L432,88.9l0,0,0,0L182.21,338.42a20.51,20.51,0,0,0-5.12,8.62l-26,88.11a20.3,20.3,0,0,0,19.49,26,19.83,19.83,0,0,0,5.73-.84l88.28-25.92a20.28,20.28,0,0,0,8.64-5.11L523,179.81l0,0,42.72-42.39a49.62,49.62,0,0,0-.08-70.17ZM254.1,391.05l-33.58-33.51L446.33,132l33.59,33.51ZM537,108.71l-28.31,28.12L475.1,103.32l28.33-28.16a9.12,9.12,0,0,1,12.76.06L537,96a8.49,8.49,0,0,1,2.58,6.43A8.66,8.66,0,0,1,537,108.71Zm-32.7,177A20.31,20.31,0,0,0,484,305.94V509.05a30.49,30.49,0,0,1-30.48,30.42H102.86a30.49,30.49,0,0,1-30.49-30.42V158.53a30.49,30.49,0,0,1,30.49-30.42H305.79a20.29,20.29,0,1,0,0-40.57H102.86a71.13,71.13,0,0,0-71.13,71V509.05a71.14,71.14,0,0,0,71.13,71H453.5a71.14,71.14,0,0,0,71.13-71V305.94A20.31,20.31,0,0,0,504.3,285.66Z"/></svg>