<svg id="Layer_1" data-name="Layer 1" xmlns="http://www.w3.org/2000/svg" xmlns:xlink="http://www.w3.org/1999/xlink" viewBox="0 0 612 612"><defs><style>.cls-1{stroke:#232323;stroke-miterlimit:10;fill:url(#linear-gradient);}</style><linearGradient id="linear-gradient" x1="305.89" y1="112.3" x2="305.89" y2="486.99" gradientUnits="userSpaceOnUse"><stop offset="0" stop-color="#fff"/><stop offset="0.6" stop-color="#e2e2e2"/><stop offset="1" stop-color="#ccc"/></linearGradient></defs><path id="Annotations" class="cls-1" d="M495.46,131.64l-15.14-15.11a36.32,36.32,0,0,0-51.31-.06l-31.17,31,0,0h0L215.53,329.6a14.93,14.93,0,0,0-3.74,6.29l-18.94,64.32a14.83,14.83,0,0,0,18.41,18.38l64.44-18.93a14.66,14.66,0,0,0,6.3-3.73L464.33,213.82v0l31.19-31a36.21,36.21,0,0,0-.07-51.21ZM268,368l-24.51-24.46L408.32,178.9l24.53,24.46Zm206.52-206.1-20.67,20.52L429.33,158,450,137.43a6.66,6.66,0,0,1,9.32,0l15.2,15.16a6.28,6.28,0,0,1,1.89,4.7A6.39,6.39,0,0,1,474.52,161.92ZM450.65,291.08a14.83,14.83,0,0,0-14.84,14.81V454.15a22.26,22.26,0,0,1-22.25,22.22h-256a22.27,22.27,0,0,1-22.26-22.22V198.28a22.27,22.27,0,0,1,22.26-22.21H305.74a14.81,14.81,0,1,0,0-29.61H157.6a51.93,51.93,0,0,0-51.92,51.82V454.15A51.93,51.93,0,0,0,157.6,506h256a51.93,51.93,0,0,0,51.92-51.83V305.89A14.82,14.82,0,0,0,450.65,291.08Z"/></svg>