<?xml version="1.0" encoding="iso-8859-1"?>
<!-- Generator: Adobe Illustrator 21.1.0, SVG Export Plug-In . SVG Version: 6.00 Build 0)  -->
<svg version="1.1" xmlns="http://www.w3.org/2000/svg" xmlns:xlink="http://www.w3.org/1999/xlink" x="0px" y="0px"
	 viewBox="0 0 50 50" style="enable-background:new 0 0 50 50;" xml:space="preserve">
<g id="AnteriorOrientation">
	<path style="fill:#5280DF;" d="M25,50C11.215,50,0,38.785,0,25C0,11.215,11.215,0,25,0c13.785,0,25,11.215,25,25
		C50,38.785,38.785,50,25,50z M25,1.905C12.265,1.905,1.905,12.265,1.905,25S12.265,48.095,25,48.095S48.095,37.735,48.095,25
		S37.735,1.905,25,1.905z"/>
	<path style="fill:#5280DF;" d="M36.906,37.857c-0.35,0-0.687-0.193-0.853-0.528L25.05,15.225L13.946,37.332
		c-0.236,0.47-0.808,0.66-1.278,0.424c-0.47-0.236-0.66-0.808-0.424-1.278l11.958-23.81c0.162-0.322,0.491-0.525,0.851-0.525
		c0,0,0.001,0,0.002,0c0.361,0.001,0.69,0.205,0.851,0.528L37.757,36.48c0.234,0.471,0.043,1.043-0.428,1.277
		C37.193,37.825,37.048,37.857,36.906,37.857z"/>
	<path style="fill:#5280DF;" d="M33.707,31.432H16.322c-0.526,0-0.952-0.426-0.952-0.952c0-0.526,0.426-0.952,0.952-0.952h17.385
		c0.526,0,0.952,0.426,0.952,0.952C34.659,31.006,34.233,31.432,33.707,31.432z"/>
</g>
<g id="Layer_1">
</g>
</svg>
