<svg id="Layer_1" data-name="Layer 1" xmlns="http://www.w3.org/2000/svg" xmlns:xlink="http://www.w3.org/1999/xlink" viewBox="0 0 612 612"><defs><style>.cls-1{stroke:#232323;stroke-miterlimit:10;fill:url(#linear-gradient);}</style><linearGradient id="linear-gradient" x1="305.78" y1="102.64" x2="305.78" y2="526.8" gradientUnits="userSpaceOnUse"><stop offset="0" stop-color="#f2f2f2"/><stop offset="0.78" stop-color="#d5d5d5"/><stop offset="1" stop-color="#ccc"/></linearGradient></defs><path id="Arrow" class="cls-1" d="M501.3,480.21,156.43,135.54H257A14.8,14.8,0,1,0,257,106H120.68a15,15,0,0,0-2.9.3c-.43.09-.83.25-1.24.37s-1,.27-1.51.47-.93.48-1.39.73a10.87,10.87,0,0,0-1.16.63,14.68,14.68,0,0,0-4.1,4.1c-.23.36-.4.76-.61,1.13a15.85,15.85,0,0,0-.74,1.42,12.79,12.79,0,0,0-.45,1.49,11.49,11.49,0,0,0-.37,1.27,14.28,14.28,0,0,0-.3,2.9V257a14.81,14.81,0,0,0,29.61,0V156.48L480.37,501.13a14.8,14.8,0,1,0,20.93-20.92Z"/></svg>