<svg id="Layer_1" data-name="Layer 1" xmlns="http://www.w3.org/2000/svg" xmlns:xlink="http://www.w3.org/1999/xlink" viewBox="0 0 612 612"><defs><style>.cls-1,.cls-2,.cls-3,.cls-4,.cls-5,.cls-6{stroke:#232323;stroke-miterlimit:10;stroke-width:1.31px;}.cls-1{fill:url(#linear-gradient);}.cls-2{fill:url(#linear-gradient-2);}.cls-3{fill:url(#linear-gradient-3);}.cls-4{fill:url(#linear-gradient-4);}.cls-5{fill:url(#linear-gradient-5);}.cls-6{fill:url(#linear-gradient-6);}</style><linearGradient id="linear-gradient" x1="229.99" y1="28.7" x2="229.99" y2="429.88" gradientUnits="userSpaceOnUse"><stop offset="0" stop-color="#fafafa"/><stop offset="1" stop-color="#ebebeb"/></linearGradient><linearGradient id="linear-gradient-2" x1="321.79" y1="52.75" x2="321.79" y2="583.3" xlink:href="#linear-gradient"/><linearGradient id="linear-gradient-3" x1="378.78" y1="143.51" x2="378.78" y2="145.64" xlink:href="#linear-gradient"/><linearGradient id="linear-gradient-4" x1="387.82" y1="123.64" x2="387.82" y2="125.35" xlink:href="#linear-gradient"/><linearGradient id="linear-gradient-5" x1="130.64" y1="400.25" x2="130.64" y2="405.98" xlink:href="#linear-gradient"/><linearGradient id="linear-gradient-6" x1="151.58" y1="390.38" x2="151.58" y2="392.67" xlink:href="#linear-gradient"/></defs><path id="Arrow" class="cls-1" d="M424.61,394.92,99.28,69.66H238.51a20.48,20.48,0,1,0,0-41H49.82a20.85,20.85,0,0,0-4,.41c-.6.12-1.15.35-1.72.51a18.78,18.78,0,0,0-2.09.66c-.68.29-1.29.65-1.93,1s-1.09.54-1.6.88a20.18,20.18,0,0,0-5.67,5.68c-.33.49-.56,1-.84,1.55s-.74,1.27-1,2a16.47,16.47,0,0,0-.63,2.07,17,17,0,0,0-.52,1.76,20.83,20.83,0,0,0-.41,4V237.78a20.5,20.5,0,0,0,41,0V98.64L395.63,423.89a20.49,20.49,0,0,0,29-29Z"/><path class="cls-2" d="M582.64,306.67C582.64,459.45,458.79,583.3,306,583.3A276.53,276.53,0,0,1,65.79,444c-1.51-2.61-3-5.26-4.39-7.93a16.72,16.72,0,0,1-.46-3.9,16.92,16.92,0,0,1,30.75-9.76c.58,1.07,1.17,2.12,1.77,3.17,0,0,0,0,0,0A244.45,244.45,0,0,0,306.22,549.48c135,0,244.53-109.48,244.53-244.52A244.52,244.52,0,0,0,410.28,83.63c-2.15-1-4.31-2-6.48-2.95a15.57,15.57,0,0,1,9.48-27.93,15.65,15.65,0,0,1,3.65.43c1.76.77,3.52,1.56,5.25,2.36C516.92,99.45,582.64,195.38,582.64,306.67Z"/><path class="cls-3" d="M376.44,143.51q2.35,1,4.68,2.13A11.06,11.06,0,0,1,376.44,143.51Z"/><path class="cls-4" d="M389.72,125.35c-1.25-.58-2.52-1.15-3.79-1.71A11.33,11.33,0,0,1,389.72,125.35Z"/><path class="cls-5" d="M132.23,406a12.11,12.11,0,0,1-3.17-5.73C130.09,402.18,131.14,404.09,132.23,406Z"/><path class="cls-6" d="M152.22,392.67c-.43-.76-.86-1.52-1.28-2.29A11.67,11.67,0,0,1,152.22,392.67Z"/></svg>