<svg id="Layer_1" data-name="Layer 1" xmlns="http://www.w3.org/2000/svg" xmlns:xlink="http://www.w3.org/1999/xlink" viewBox="0 0 612 612"><defs><style>.cls-1{stroke:#232323;stroke-miterlimit:10;fill:url(#linear-gradient);}</style><linearGradient id="linear-gradient" x1="308.95" y1="106.62" x2="308.95" y2="506.57" gradientUnits="userSpaceOnUse"><stop offset="0" stop-color="#fff"/><stop offset="0.6" stop-color="#e2e2e2"/><stop offset="1" stop-color="#ccc"/></linearGradient></defs><g id="BrightnessContrast"><path id="BrightnessContrast-2" data-name="BrightnessContrast" class="cls-1" d="M309,428.32a14.83,14.83,0,0,0-14.82,14.82v48.61a14.82,14.82,0,1,0,29.63,0V443.14A14.82,14.82,0,0,0,309,428.32Zm0-243.47A14.82,14.82,0,0,0,323.76,170v-48.6a14.82,14.82,0,1,0-29.63,0V170A14.81,14.81,0,0,0,309,184.85ZM201.87,220.5a14.81,14.81,0,1,0,20.95-20.94l-34.37-34.37a14.82,14.82,0,0,0-21,20.95ZM416,392.65a14.81,14.81,0,1,0-20.95,21L429.45,448a14.81,14.81,0,0,0,20.95-20.95ZM405.53,224.84A14.77,14.77,0,0,0,416,220.5l34.38-34.36a14.82,14.82,0,0,0-21-20.95l-34.37,34.37a14.81,14.81,0,0,0,10.47,25.28ZM201.87,392.67,167.49,427a14.81,14.81,0,0,0,21,20.94l34.37-34.37a14.81,14.81,0,1,0-20.95-20.94Zm292.3-100.89H445.56a14.82,14.82,0,1,0,0,29.63h48.61a14.82,14.82,0,1,0,0-29.63Zm-307,14.81a14.82,14.82,0,0,0-14.82-14.81H123.72a14.82,14.82,0,1,0,0,29.63h48.62A14.83,14.83,0,0,0,187.16,306.59ZM309,214.93a91.66,91.66,0,1,0,91.69,91.66A91.79,91.79,0,0,0,309,214.93Zm0,153.68a62,62,0,1,1,62.05-62A62.1,62.1,0,0,1,309,368.61Z"/></g></svg>