<svg id="Layer_1" data-name="Layer 1" xmlns="http://www.w3.org/2000/svg" xmlns:xlink="http://www.w3.org/1999/xlink" viewBox="0 0 612 612"><defs><style>.cls-1{stroke:#232323;stroke-miterlimit:10;fill:url(#linear-gradient);}</style><linearGradient id="linear-gradient" x1="306" y1="80.35" x2="306" y2="501.84" gradientUnits="userSpaceOnUse"><stop offset="0" stop-color="#fff"/><stop offset="0.6" stop-color="#e2e2e2"/><stop offset="1" stop-color="#ccc"/></linearGradient></defs><path id="CalibrateRulerAnn" class="cls-1" d="M492.32,106.17a14.86,14.86,0,0,0-14.9,14.8v47.19h-32.3V146.6a14.91,14.91,0,0,0-29.81,0v21.56H383V146.6a14.9,14.9,0,0,0-29.8,0v21.56H320.89V121a14.91,14.91,0,0,0-29.81,0v47.19H258.79V146.6a14.91,14.91,0,0,0-29.81,0v21.56h-32.3V146.6a14.91,14.91,0,0,0-29.81,0v21.56h-32.3V121a14.91,14.91,0,0,0-29.81,0V245a14.91,14.91,0,0,0,29.81,0V197.76h32.3v21.56a14.91,14.91,0,0,0,29.81,0V197.76H229v21.56a14.91,14.91,0,0,0,29.81,0V197.76h32.3V245a14.91,14.91,0,0,0,29.82,0V197.76h32.3v21.56a14.91,14.91,0,0,0,29.81,0V197.76h32.3v21.56a14.91,14.91,0,0,0,29.81,0V197.76h32.3V245a14.91,14.91,0,0,0,29.81,0V121A14.88,14.88,0,0,0,492.32,106.17Zm0,248.55H119.68a14.87,14.87,0,0,0-14.91,14.81V491a14.86,14.86,0,0,0,14.91,14.8H492.33a14.86,14.86,0,0,0,14.9-14.8V369.53A14.87,14.87,0,0,0,492.32,354.72Zm-14.9,121.52H134.58v-91.9h32.3v27.89a14.91,14.91,0,0,0,29.82,0V384.34H229v27.89a14.91,14.91,0,0,0,29.81,0V384.34h32.3v50.55a14.91,14.91,0,0,0,29.81,0V384.34h32.3v27.89a14.91,14.91,0,0,0,29.81,0V384.34h32.31v27.89a14.91,14.91,0,0,0,29.81,0V384.34h32.3v91.9Z"/></svg>