<?xml version="1.0" encoding="iso-8859-1"?>
<!-- Generator: Adobe Illustrator 21.1.0, SVG Export Plug-In . SVG Version: 6.00 Build 0)  -->
<svg version="1.1" xmlns="http://www.w3.org/2000/svg" xmlns:xlink="http://www.w3.org/1999/xlink" x="0px" y="0px"
	 viewBox="0 0 50 50" style="enable-background:new 0 0 50 50;" xml:space="preserve">
<g id="CalibrateRulerAnn">
	<path style="fill:#5280DF;" d="M25,50C11.215,50,0,38.785,0,25C0,11.215,11.215,0,25,0c13.785,0,25,11.215,25,25
		C50,38.785,38.785,50,25,50z M25,1.905C12.265,1.905,1.905,12.265,1.905,25S12.265,48.095,25,48.095S48.095,37.735,48.095,25
		S37.735,1.905,25,1.905z"/>
	<path style="fill:#5280DF;" d="M13.095,22.024c-0.526,0-0.952-0.426-0.952-0.952v-7.976c0-0.526,0.426-0.952,0.952-0.952
		c0.526,0,0.952,0.426,0.952,0.952v7.976C14.048,21.597,13.621,22.024,13.095,22.024z"/>
	<path style="fill:#5280DF;" d="M17.064,20.376c-0.526,0-0.952-0.426-0.952-0.952v-4.68c0-0.526,0.426-0.952,0.952-0.952
		c0.526,0,0.952,0.426,0.952,0.952v4.68C18.016,19.949,17.59,20.376,17.064,20.376z"/>
	<path style="fill:#5280DF;" d="M21.032,20.376c-0.526,0-0.952-0.426-0.952-0.952v-4.68c0-0.526,0.426-0.952,0.952-0.952
		c0.526,0,0.952,0.426,0.952,0.952v4.68C21.984,19.949,21.558,20.376,21.032,20.376z"/>
	<path style="fill:#5280DF;" d="M28.968,20.376c-0.526,0-0.952-0.426-0.952-0.952v-4.68c0-0.526,0.426-0.952,0.952-0.952
		c0.526,0,0.952,0.426,0.952,0.952v4.68C29.92,19.949,29.494,20.376,28.968,20.376z"/>
	<path style="fill:#5280DF;" d="M32.937,20.376c-0.526,0-0.952-0.426-0.952-0.952v-4.68c0-0.526,0.426-0.952,0.952-0.952
		c0.526,0,0.952,0.426,0.952,0.952v4.68C33.889,19.949,33.463,20.376,32.937,20.376z"/>
	<path style="fill:#5280DF;" d="M25,22.024c-0.526,0-0.952-0.426-0.952-0.952v-7.976c0-0.526,0.426-0.952,0.952-0.952
		s0.952,0.426,0.952,0.952v7.976C25.952,21.597,25.526,22.024,25,22.024z"/>
	<path style="fill:#5280DF;" d="M36.905,22.024c-0.526,0-0.952-0.426-0.952-0.952v-7.976c0-0.526,0.426-0.952,0.952-0.952
		s0.952,0.426,0.952,0.952v7.976C37.857,21.597,37.431,22.024,36.905,22.024z"/>
	<path style="fill:#5280DF;" d="M36.905,18.036h-23.81c-0.526,0-0.952-0.426-0.952-0.952c0-0.526,0.426-0.952,0.952-0.952h23.81
		c0.526,0,0.952,0.426,0.952,0.952C37.857,17.609,37.431,18.036,36.905,18.036z"/>
	<path style="fill:#5280DF;" d="M17.064,32.786c-0.526,0-0.952-0.426-0.952-0.952v-2.746c0-0.526,0.426-0.952,0.952-0.952
		c0.526,0,0.952,0.426,0.952,0.952v2.746C18.016,32.36,17.59,32.786,17.064,32.786z"/>
	<path style="fill:#5280DF;" d="M21.032,32.786c-0.526,0-0.952-0.426-0.952-0.952v-2.746c0-0.526,0.426-0.952,0.952-0.952
		c0.526,0,0.952,0.426,0.952,0.952v2.746C21.984,32.36,21.558,32.786,21.032,32.786z"/>
	<path style="fill:#5280DF;" d="M28.968,32.786c-0.526,0-0.952-0.426-0.952-0.952v-2.746c0-0.526,0.426-0.952,0.952-0.952
		c0.526,0,0.952,0.426,0.952,0.952v2.746C29.92,32.36,29.494,32.786,28.968,32.786z"/>
	<path style="fill:#5280DF;" d="M32.937,32.786c-0.526,0-0.952-0.426-0.952-0.952v-2.746c0-0.526,0.426-0.952,0.952-0.952
		c0.526,0,0.952,0.426,0.952,0.952v2.746C33.889,32.36,33.463,32.786,32.937,32.786z"/>
	<path style="fill:#5280DF;" d="M25,34.244c-0.526,0-0.952-0.426-0.952-0.952v-4.204c0-0.526,0.426-0.952,0.952-0.952
		s0.952,0.426,0.952,0.952v4.204C25.952,33.817,25.526,34.244,25,34.244z"/>
	<path style="fill:#5280DF;" d="M36.905,37.857h-23.81c-0.526,0-0.952-0.426-0.952-0.952v-7.818c0-0.526,0.426-0.952,0.952-0.952
		h23.81c0.526,0,0.952,0.426,0.952,0.952v7.818C37.857,37.431,37.431,37.857,36.905,37.857z M14.048,35.952h21.905V30.04H14.048
		V35.952z"/>
</g>
<g id="Layer_1">
</g>
</svg>
