<svg xmlns="http://www.w3.org/2000/svg" xmlns:xlink="http://www.w3.org/1999/xlink" viewBox="0 0 612 612"><defs><style>.cls-1,.cls-10,.cls-11,.cls-12,.cls-13,.cls-14,.cls-2,.cls-3,.cls-4,.cls-5,.cls-6,.cls-7,.cls-8,.cls-9{stroke:#232323;stroke-miterlimit:10;}.cls-1{fill:url(#linear-gradient);}.cls-2{fill:url(#linear-gradient-2);}.cls-3{fill:url(#linear-gradient-3);}.cls-4{fill:url(#linear-gradient-4);}.cls-5{fill:url(#linear-gradient-5);}.cls-6{fill:url(#linear-gradient-6);}.cls-7{fill:url(#linear-gradient-7);}.cls-8{fill:url(#linear-gradient-8);}.cls-9{fill:url(#linear-gradient-9);}.cls-10{fill:url(#linear-gradient-10);}.cls-11{fill:url(#linear-gradient-11);}.cls-12{fill:url(#linear-gradient-12);}.cls-13{fill:url(#linear-gradient-13);}.cls-14{fill:url(#linear-gradient-14);}</style><linearGradient id="linear-gradient" x1="121.35" y1="106.6" x2="121.35" y2="259.83" gradientUnits="userSpaceOnUse"><stop offset="0" stop-color="#fff"/><stop offset="0.6" stop-color="#e2e2e2"/><stop offset="1" stop-color="#ccc"/></linearGradient><linearGradient id="linear-gradient-2" x1="182.91" y1="132.16" x2="182.91" y2="234.27" xlink:href="#linear-gradient"/><linearGradient id="linear-gradient-3" x1="244.46" y1="132.16" x2="244.46" y2="234.27" xlink:href="#linear-gradient"/><linearGradient id="linear-gradient-4" x1="367.54" y1="132.16" x2="367.54" y2="234.27" xlink:href="#linear-gradient"/><linearGradient id="linear-gradient-5" x1="429.1" y1="132.16" x2="429.1" y2="234.27" xlink:href="#linear-gradient"/><linearGradient id="linear-gradient-6" x1="306" y1="106.6" x2="306" y2="259.83" xlink:href="#linear-gradient"/><linearGradient id="linear-gradient-7" x1="490.65" y1="106.6" x2="490.65" y2="259.83" xlink:href="#linear-gradient"/><linearGradient id="linear-gradient-8" x1="306" y1="168.45" x2="306" y2="197.98" xlink:href="#linear-gradient"/><linearGradient id="linear-gradient-9" x1="182.91" y1="354.63" x2="182.91" y2="426.75" xlink:href="#linear-gradient"/><linearGradient id="linear-gradient-10" x1="244.46" y1="354.63" x2="244.46" y2="426.75" xlink:href="#linear-gradient"/><linearGradient id="linear-gradient-11" x1="367.54" y1="354.63" x2="367.54" y2="426.75" xlink:href="#linear-gradient"/><linearGradient id="linear-gradient-12" x1="429.1" y1="354.63" x2="429.1" y2="426.75" xlink:href="#linear-gradient"/><linearGradient id="linear-gradient-13" x1="306" y1="354.63" x2="306" y2="449.37" xlink:href="#linear-gradient"/><linearGradient id="linear-gradient-14" x1="306" y1="354.62" x2="306" y2="505.4" xlink:href="#linear-gradient"/></defs><g id="Layer_2" data-name="Layer 2"><path class="cls-1" d="M121.35,259.83a14.76,14.76,0,0,1-14.76-14.76V121.36a14.77,14.77,0,0,1,29.53,0V245.07A14.76,14.76,0,0,1,121.35,259.83Z"/><path class="cls-2" d="M182.91,234.27a14.75,14.75,0,0,1-14.76-14.76V146.92a14.77,14.77,0,0,1,29.53,0v72.59A14.77,14.77,0,0,1,182.91,234.27Z"/><path class="cls-3" d="M244.46,234.27a14.76,14.76,0,0,1-14.77-14.76V146.92a14.77,14.77,0,0,1,29.53,0v72.59A14.77,14.77,0,0,1,244.46,234.27Z"/><path class="cls-4" d="M367.54,234.27a14.76,14.76,0,0,1-14.76-14.76V146.92a14.77,14.77,0,0,1,29.53,0v72.59A14.77,14.77,0,0,1,367.54,234.27Z"/><path class="cls-5" d="M429.1,234.27a14.75,14.75,0,0,1-14.76-14.76V146.92a14.77,14.77,0,0,1,29.53,0v72.59A14.77,14.77,0,0,1,429.1,234.27Z"/><path class="cls-6" d="M306,259.83a14.76,14.76,0,0,1-14.77-14.76V121.36a14.77,14.77,0,0,1,29.54,0V245.07A14.77,14.77,0,0,1,306,259.83Z"/><path class="cls-7" d="M490.65,259.83a14.76,14.76,0,0,1-14.77-14.76V121.36a14.77,14.77,0,0,1,29.53,0V245.07A14.77,14.77,0,0,1,490.65,259.83Z"/><path class="cls-8" d="M490.65,198H121.35a14.77,14.77,0,0,1,0-29.53h369.3a14.77,14.77,0,0,1,0,29.53Z"/><path class="cls-9" d="M182.91,426.75A14.75,14.75,0,0,1,168.15,412V369.4a14.77,14.77,0,1,1,29.53,0V412A14.76,14.76,0,0,1,182.91,426.75Z"/><path class="cls-10" d="M244.46,426.75A14.76,14.76,0,0,1,229.69,412V369.4a14.77,14.77,0,1,1,29.53,0V412A14.76,14.76,0,0,1,244.46,426.75Z"/><path class="cls-11" d="M367.54,426.75A14.76,14.76,0,0,1,352.78,412V369.4a14.77,14.77,0,1,1,29.53,0V412A14.76,14.76,0,0,1,367.54,426.75Z"/><path class="cls-12" d="M429.1,426.75A14.75,14.75,0,0,1,414.34,412V369.4a14.77,14.77,0,1,1,29.53,0V412A14.76,14.76,0,0,1,429.1,426.75Z"/><path class="cls-13" d="M306,449.37a14.77,14.77,0,0,1-14.77-14.77V369.4a14.77,14.77,0,0,1,29.54,0v65.2A14.78,14.78,0,0,1,306,449.37Z"/><path class="cls-14" d="M490.65,505.4H121.35a14.76,14.76,0,0,1-14.76-14.76V369.38a14.76,14.76,0,0,1,14.76-14.76h369.3a14.76,14.76,0,0,1,14.76,14.76V490.64A14.76,14.76,0,0,1,490.65,505.4ZM136.13,475.86H475.88v-91.7H136.13Z"/></g></svg>