<svg xmlns="http://www.w3.org/2000/svg" xmlns:xlink="http://www.w3.org/1999/xlink" viewBox="0 0 612 612"><defs><style>.cls-1{stroke:#232323;stroke-miterlimit:10;fill:url(#linear-gradient);}</style><linearGradient id="linear-gradient" x1="306" y1="105.72" x2="306" y2="506.28" gradientUnits="userSpaceOnUse"><stop offset="0" stop-color="#fff"/><stop offset="0.6" stop-color="#e2e2e2"/><stop offset="1" stop-color="#ccc"/></linearGradient></defs><g id="Layer_2" data-name="Layer 2"><path class="cls-1" d="M298.26,105.72c89.82,0,174.19,57.23,174.19,140.35,0,79.53-56.92,80.47-60.82,166.7a15.58,15.58,0,0,1-9.05,12.79,210.57,210.57,0,0,0-86.7,74.7,15.6,15.6,0,0,1-26.51-3.12,82,82,0,0,0-42.11-51.62c-22-8.26-20.58,9.51-56.92,3.43s-8.11-28.85-15.59-41.64-7.33-15.59-3-18.55a18.89,18.89,0,0,1-11.54-14.66c0-10.45,4.68-18.56-4.36-22.77s-24.49-4.68-11.07-27.91,27.75-34.94,17.31-56.92S141.84,105.72,298.26,105.72Z"/></g></svg>