<svg id="Layer_1" data-name="Layer 1" xmlns="http://www.w3.org/2000/svg" xmlns:xlink="http://www.w3.org/1999/xlink" viewBox="0 0 612 612"><defs><style>.cls-1{stroke:#232323;stroke-miterlimit:10;fill:url(#linear-gradient);}</style><linearGradient id="linear-gradient" x1="307.33" y1="105.7" x2="307.33" y2="507.73" gradientUnits="userSpaceOnUse"><stop offset="0" stop-color="#fff"/><stop offset="0.6" stop-color="#e2e2e2"/><stop offset="1" stop-color="#ccc"/></linearGradient></defs><path id="CinePlayer" class="cls-1" d="M492.44,105.7a14.86,14.86,0,0,0-14.81,14.89v38.62h-43.5V120.59a14.81,14.81,0,1,0-29.62,0v14.89H210.15V120.59a14.81,14.81,0,1,0-29.62,0v38.62H137V120.59a14.81,14.81,0,1,0-29.62,0V492.84a14.81,14.81,0,1,0,29.62,0V454.22h43.5v38.62a14.81,14.81,0,1,0,29.62,0V478H404.51v14.89a14.81,14.81,0,1,0,29.62,0V454.22h43.5v38.62a14.81,14.81,0,1,0,29.62,0V120.59A14.85,14.85,0,0,0,492.44,105.7ZM434.13,277.4h43.5V336h-43.5V277.4ZM477.63,189v58.64h-43.5V189Zm-73.12-23.73V291.83H210.15V165.26ZM137,277.4h43.51V336H137ZM180.54,189v58.64H137V189ZM137,424.44V365.81h43.51v58.63Zm73.11,23.73V321.6H404.51V448.17Zm224-23.73V365.81h43.5v58.63Z"/></svg>