<svg id="Layer_1" data-name="Layer 1" xmlns="http://www.w3.org/2000/svg" xmlns:xlink="http://www.w3.org/1999/xlink" viewBox="0 0 612 612"><defs><style>.cls-1,.cls-2{stroke:#232323;stroke-miterlimit:10;}.cls-1{opacity:0.6;isolation:isolate;fill:url(#linear-gradient);}.cls-2{fill:url(#linear-gradient-2);}</style><linearGradient id="linear-gradient" x1="304.67" y1="104.54" x2="304.67" y2="507.21" gradientUnits="userSpaceOnUse"><stop offset="0" stop-color="#fff"/><stop offset="0.6" stop-color="#e2e2e2"/><stop offset="1" stop-color="#ccc"/></linearGradient><linearGradient id="linear-gradient-2" x1="304.92" y1="165.16" x2="304.92" y2="446.49" xlink:href="#linear-gradient"/></defs><g id="ClearAll"><path class="cls-1" d="M451.74,507.21H157.59c-28.38,0-51.48-23.41-51.48-52.19V156.74c0-28.78,23.1-52.2,51.48-52.2H451.74c28.39,0,51.48,23.42,51.48,52.2V455C503.22,483.8,480.13,507.21,451.74,507.21ZM157.59,134.37a22.25,22.25,0,0,0-22.06,22.37V455a22.25,22.25,0,0,0,22.06,22.37H451.74A22.25,22.25,0,0,0,473.81,455V156.74a22.25,22.25,0,0,0-22.07-22.37Z"/><path class="cls-2" d="M428.85,223.27H401.93V205.38c0-22.17-17.81-40.22-39.7-40.22H247.59c-21.89,0-39.71,18-39.71,40.22v17.89H181a15.11,15.11,0,0,0,0,30.21h8.71l21.94,158.39a40,40,0,0,0,39.32,34.62h108a40,40,0,0,0,39.31-34.62l21.93-158.39h8.71a15.11,15.11,0,0,0,0-30.21ZM237.72,205.38a10,10,0,0,1,9.88-10H362.25a10,10,0,0,1,9.87,10v17.89H237.71V205.38Zm131,202.29a10,10,0,0,1-9.78,8.61h-108a10,10,0,0,1-9.78-8.61L219.78,253.48H390ZM264.63,374.48a15,15,0,0,0,14.78,13.27,14,14,0,0,0,1.83-.11,15.07,15.07,0,0,0,13-16.82l-9.84-81.35a14.91,14.91,0,1,0-29.6,3.67Zm64,13.16a16.16,16.16,0,0,0,1.83.1,15,15,0,0,0,14.78-13.26l9.84-81.34a14.91,14.91,0,1,0-29.6-3.67l-9.84,81.34A15.06,15.06,0,0,0,328.6,387.64Z"/></g></svg>