<?xml version="1.0" encoding="iso-8859-1"?>
<!-- Generator: Adobe Illustrator 21.1.0, SVG Export Plug-In . SVG Version: 6.00 Build 0)  -->
<svg version="1.1" xmlns="http://www.w3.org/2000/svg" xmlns:xlink="http://www.w3.org/1999/xlink" x="0px" y="0px"
	 viewBox="0 0 50 50" style="enable-background:new 0 0 50 50;" xml:space="preserve">
<g id="Clear">
	<path style="fill:#5280DF;" d="M25,50C11.215,50,0,38.785,0,25C0,11.215,11.215,0,25,0c13.785,0,25,11.215,25,25
		C50,38.785,38.785,50,25,50z M25,1.905C12.265,1.905,1.905,12.265,1.905,25S12.265,48.095,25,48.095S48.095,37.735,48.095,25
		S37.735,1.905,25,1.905z"/>
	<path style="fill:#5280DF;" d="M32.887,19.556H17.113c-0.526,0-0.952-0.426-0.952-0.952v-3.128c0-1.838,1.495-3.333,3.333-3.333
		h11.012c1.838,0,3.333,1.495,3.333,3.333v3.128C33.839,19.13,33.413,19.556,32.887,19.556z M18.065,17.652h13.869v-2.175
		c0-0.788-0.641-1.429-1.429-1.429H19.494c-0.788,0-1.429,0.641-1.429,1.429V17.652z"/>
	<path style="fill:#5280DF;" d="M30.186,37.857H19.814c-1.652,0-3.071-1.234-3.301-2.871l-2.28-16.25
		c-0.038-0.273,0.043-0.549,0.224-0.757c0.181-0.208,0.443-0.327,0.719-0.327h19.648c0.276,0,0.538,0.12,0.718,0.327
		c0.181,0.208,0.263,0.484,0.225,0.757l-2.28,16.251C33.258,36.623,31.839,37.857,30.186,37.857z M16.272,19.556l2.127,15.166
		c0.098,0.702,0.707,1.23,1.415,1.23h10.373c0.708,0,1.316-0.529,1.415-1.23l2.128-15.166H16.272z"/>
	<path style="fill:#5280DF;" d="M36.905,19.556h-23.81c-0.526,0-0.952-0.426-0.952-0.952c0-0.526,0.426-0.952,0.952-0.952h23.81
		c0.526,0,0.952,0.426,0.952,0.952C37.857,19.13,37.431,19.556,36.905,19.556z"/>
	<path style="fill:#5280DF;" d="M22.55,32.287c-0.474,0-0.885-0.354-0.944-0.837l-0.944-7.712c-0.064-0.522,0.308-0.997,0.83-1.061
		c0.521-0.063,0.997,0.308,1.061,0.83l0.944,7.712c0.064,0.522-0.308,0.997-0.83,1.061C22.628,32.285,22.589,32.287,22.55,32.287z"
		/>
	<path style="fill:#5280DF;" d="M27.45,32.287c-0.039,0-0.078-0.002-0.117-0.007c-0.522-0.064-0.893-0.539-0.83-1.061l0.944-7.712
		c0.064-0.522,0.542-0.89,1.061-0.83c0.522,0.064,0.893,0.539,0.83,1.061l-0.944,7.712C28.335,31.934,27.924,32.287,27.45,32.287z"
		/>
</g>
<g id="Layer_1">
</g>
</svg>
