<?xml version="1.0" encoding="iso-8859-1"?>
<!-- Generator: Adobe Illustrator 21.1.0, SVG Export Plug-In . SVG Version: 6.00 Build 0)  -->
<svg version="1.1" xmlns="http://www.w3.org/2000/svg" xmlns:xlink="http://www.w3.org/1999/xlink" x="0px" y="0px"
	 viewBox="0 0 50 50" style="enable-background:new 0 0 50 50;" xml:space="preserve">
<g id="ClearAll">
	<path style="fill:#5280DF;" d="M25,50C11.215,50,0,38.785,0,25C0,11.215,11.215,0,25,0c13.785,0,25,11.215,25,25
		C50,38.785,38.785,50,25,50z M25,1.905C12.265,1.905,1.905,12.265,1.905,25S12.265,48.095,25,48.095S48.095,37.735,48.095,25
		S37.735,1.905,25,1.905z"/>
	<path style="fill:#5280DF;" d="M30.245,21.699H19.755c-0.526,0-0.952-0.426-0.952-0.952v-2.08c0-1.398,1.137-2.536,2.536-2.536
		h7.323c1.398,0,2.535,1.137,2.535,2.536v2.08C31.197,21.273,30.771,21.699,30.245,21.699z M20.708,19.794h8.585v-1.127
		c0-0.348-0.283-0.631-0.631-0.631h-7.323c-0.348,0-0.631,0.283-0.631,0.631V19.794z"/>
	<path style="fill:#5280DF;" d="M28.449,33.869h-6.898c-1.257,0-2.337-0.939-2.511-2.183l-1.516-10.807
		c-0.038-0.273,0.043-0.549,0.224-0.757c0.181-0.208,0.443-0.327,0.719-0.327h13.065c0.276,0,0.538,0.12,0.718,0.327
		c0.181,0.208,0.263,0.484,0.225,0.757L30.96,31.686C30.786,32.93,29.707,33.869,28.449,33.869z M19.563,21.699l1.363,9.722
		c0.043,0.31,0.312,0.543,0.625,0.543h6.898c0.313,0,0.581-0.233,0.625-0.543l1.364-9.722H19.563z"/>
	<path style="fill:#5280DF;" d="M32.917,21.699H17.083c-0.526,0-0.952-0.426-0.952-0.952c0-0.526,0.426-0.952,0.952-0.952h15.833
		c0.526,0,0.952,0.426,0.952,0.952C33.869,21.273,33.443,21.699,32.917,21.699z"/>
	<path style="fill:#5280DF;" d="M23.371,30.165c-0.474,0-0.885-0.354-0.944-0.837L21.798,24.2c-0.064-0.522,0.308-0.997,0.83-1.061
		c0.521-0.061,0.997,0.308,1.061,0.83l0.628,5.129c0.064,0.522-0.308,0.997-0.83,1.061C23.448,30.163,23.409,30.165,23.371,30.165z"
		/>
	<path style="fill:#5280DF;" d="M26.629,30.165c-0.039,0-0.078-0.002-0.117-0.007c-0.522-0.064-0.893-0.539-0.83-1.061l0.628-5.129
		c0.064-0.522,0.542-0.89,1.061-0.83c0.522,0.064,0.893,0.539,0.83,1.061l-0.628,5.129C27.514,29.811,27.104,30.165,26.629,30.165z"
		/>
	<path style="fill:#5280DF;" d="M34.524,37.857H15.476c-1.838,0-3.333-1.496-3.333-3.333V15.476c0-1.838,1.495-3.333,3.333-3.333
		h19.048c1.838,0,3.333,1.495,3.333,3.333v19.048C37.857,36.362,36.362,37.857,34.524,37.857z M15.476,14.048
		c-0.788,0-1.429,0.641-1.429,1.429v19.048c0,0.788,0.641,1.429,1.429,1.429h19.048c0.788,0,1.429-0.641,1.429-1.429V15.476
		c0-0.788-0.641-1.429-1.429-1.429H15.476z"/>
</g>
<g id="Layer_1">
</g>
</svg>
