<svg id="Layer_1" data-name="Layer 1" xmlns="http://www.w3.org/2000/svg" xmlns:xlink="http://www.w3.org/1999/xlink" viewBox="0 0 612 612"><defs><style>.cls-1{stroke:#232323;stroke-miterlimit:10;fill:url(#linear-gradient);}</style><linearGradient id="linear-gradient" x1="306.98" y1="108.2" x2="306.98" y2="506.92" gradientUnits="userSpaceOnUse"><stop offset="0" stop-color="#fff"/><stop offset="0.6" stop-color="#e2e2e2"/><stop offset="1" stop-color="#ccc"/></linearGradient></defs><path id="Clear" class="cls-1" d="M491.6,193.62H444.05V159.89a51.75,51.75,0,0,0-51.69-51.69H221.58a51.75,51.75,0,0,0-51.7,51.69v33.73H122.34a14.77,14.77,0,1,0,0,29.53h19.44l33.57,239.26a51.93,51.93,0,0,0,51.19,44.51H387.42a51.92,51.92,0,0,0,51.19-44.51l33.58-239.26h19.43a14.77,14.77,0,1,0,0-29.53ZM199.43,159.89a22.17,22.17,0,0,1,22.15-22.15H392.37a22.18,22.18,0,0,1,22.16,22.15v33.73H199.43V159.89ZM409.34,458.3a22.26,22.26,0,0,1-21.93,19.08H226.53a22.25,22.25,0,0,1-21.94-19.08l-33-235.15H442.34Zm-155-50.72a14.75,14.75,0,0,0,14.63,13,15.86,15.86,0,0,0,1.82-.1A14.77,14.77,0,0,0,283.65,404L269,284.4A14.77,14.77,0,0,0,239.67,288Zm88.81,12.88a15.93,15.93,0,0,0,1.81.1,14.78,14.78,0,0,0,14.65-13L374.24,288a14.76,14.76,0,1,0-29.31-3.59L330.28,404A14.78,14.78,0,0,0,343.14,420.46Z"/></svg>