<svg id="Layer_1" data-name="Layer 1" xmlns="http://www.w3.org/2000/svg" xmlns:xlink="http://www.w3.org/1999/xlink" viewBox="0 0 612 612"><defs><style>.cls-1{stroke:#232323;stroke-miterlimit:10;fill:url(#linear-gradient);}</style><linearGradient id="linear-gradient" x1="307.02" y1="108.09" x2="307.02" y2="506.55" gradientUnits="userSpaceOnUse"><stop offset="0" stop-color="#fff"/><stop offset="0.6" stop-color="#e2e2e2"/><stop offset="1" stop-color="#ccc"/></linearGradient></defs><path id="Comment" class="cls-1" d="M415.42,335.34a14.86,14.86,0,0,0,14.91-14.78V122.86a14.85,14.85,0,0,0-14.91-14.77H120.49a14.86,14.86,0,0,0-14.92,14.77v197.7a14.87,14.87,0,0,0,14.92,14.78h51.66l.21,53.81a14.74,14.74,0,0,0,8.86,13.45,15,15,0,0,0,16-2.51L270,335.33Zm-161-25.78-52.29,46.51L202,320.5A14.85,14.85,0,0,0,187,305.78h-51.6V137.64H400.51V305.78H264.35A15,15,0,0,0,254.37,309.56Zm239.15-98.8H460.58a14.78,14.78,0,1,0,0,29.56h18V408.46H427a14.84,14.84,0,0,0-14.92,14.71L412,458.74l-52.27-46.5a15,15,0,0,0-10-3.78H213.56a14.78,14.78,0,1,0,0,29.55H344l72.79,64.75a15,15,0,0,0,10,3.79,15.14,15.14,0,0,0,6.05-1.27,14.77,14.77,0,0,0,8.87-13.45l.2-53.82h51.66a14.85,14.85,0,0,0,14.92-14.78V225.54A14.88,14.88,0,0,0,493.52,210.76Zm-142.21,31H184.6a14.78,14.78,0,1,0,0,29.55H351.31a14.78,14.78,0,1,0,0-29.55ZM184.6,201.16H316.34a14.78,14.78,0,1,0,0-29.56H184.6a14.78,14.78,0,1,0,0,29.56Z"/></svg>