<svg id="Layer_1" data-name="Layer 1" xmlns="http://www.w3.org/2000/svg" xmlns:xlink="http://www.w3.org/1999/xlink" viewBox="0 0 612 612"><defs><style>.cls-1{stroke:#232323;stroke-miterlimit:10;fill:url(#linear-gradient);}</style><linearGradient id="linear-gradient" x1="306.7" y1="107.68" x2="306.7" y2="504.99" gradientUnits="userSpaceOnUse"><stop offset="0" stop-color="#fff"/><stop offset="0.6" stop-color="#e2e2e2"/><stop offset="1" stop-color="#ccc"/></linearGradient></defs><path id="ComposeLayout" class="cls-1" d="M491.15,475.55H254.58l247-246.43a14.7,14.7,0,0,0,0-20.82l-96.72-96.48a15.22,15.22,0,0,0-20.87,0L111.81,383.38a14.7,14.7,0,0,0-4.32,10.41v96.48A14.74,14.74,0,0,0,122.24,505H491.15a14.72,14.72,0,1,0,0-29.44ZM394.44,143l75.85,75.67L418.7,270.18l-75.85-75.67ZM137,475.55V399.88L322,215.33,397.83,291l-185,184.55Z"/></svg>