<svg id="Layer_1" data-name="Layer 1" xmlns="http://www.w3.org/2000/svg" xmlns:xlink="http://www.w3.org/1999/xlink" viewBox="0 0 612 612"><defs><style>.cls-1{stroke:#232323;stroke-miterlimit:10;fill:url(#linear-gradient);}</style><linearGradient id="linear-gradient" x1="305.55" y1="108.76" x2="305.55" y2="507.24" gradientUnits="userSpaceOnUse"><stop offset="0" stop-color="#fff"/><stop offset="0.6" stop-color="#e2e2e2"/><stop offset="1" stop-color="#ccc"/></linearGradient></defs><path id="Configure" class="cls-1" d="M305.53,245.73A62.27,62.27,0,1,0,368.05,308,62.47,62.47,0,0,0,305.53,245.73Zm0,95A32.75,32.75,0,1,1,338.41,308,32.85,32.85,0,0,1,305.53,340.75ZM495,271.44l-47-14.15a147.14,147.14,0,0,0-5.74-13.82l23.16-43.08a14.72,14.72,0,0,0-2.57-17.4l-31.86-31.74a14.86,14.86,0,0,0-17.47-2.58l-43.23,23.07c-4.51-2.12-9.15-4-13.87-5.71l-14.21-46.79a14.79,14.79,0,0,0-14.18-10.48H283a14.82,14.82,0,0,0-14.18,10.48L254.65,166q-7.11,2.52-13.88,5.71l-43.24-23.05a14.84,14.84,0,0,0-17.47,2.58L148.21,183a14.71,14.71,0,0,0-2.6,17.4l23.15,43.07A148.45,148.45,0,0,0,163,257.3l-47,14.16a14.74,14.74,0,0,0-10.52,14.12v44.89a14.75,14.75,0,0,0,10.52,14.12l47,14.16c1.69,4.7,3.6,9.32,5.73,13.81l-23.16,43.07a14.7,14.7,0,0,0,2.6,17.4l31.85,31.73a14.8,14.8,0,0,0,17.47,2.57l43.25-23.07q6.76,3.19,13.87,5.71l14.21,46.79A14.81,14.81,0,0,0,283,507.24H328.1a14.8,14.8,0,0,0,14.18-10.48L356.49,450a148.51,148.51,0,0,0,13.87-5.71l43.23,23.07a14.84,14.84,0,0,0,17.47-2.57L462.92,433a14.68,14.68,0,0,0,2.57-17.4l-23.16-43.07c2.14-4.49,4.05-9.11,5.74-13.81l47-14.16a14.74,14.74,0,0,0,10.52-14.12V285.58A14.78,14.78,0,0,0,495,271.44ZM475.92,319.5,432.1,332.72a14.79,14.79,0,0,0-9.92,9.92,120.6,120.6,0,0,1-9.58,23.08,14.72,14.72,0,0,0,0,14l21.6,40.19-16.31,16.25-40.35-21.52a14.87,14.87,0,0,0-14.06,0,120.56,120.56,0,0,1-23.17,9.55,14.8,14.8,0,0,0-10,9.87L317,477.76H294L280.71,434.1a14.81,14.81,0,0,0-9.95-9.87,121.23,121.23,0,0,1-23.16-9.53,14.87,14.87,0,0,0-14.07,0l-40.34,21.52-16.32-16.25,21.61-40.19a14.75,14.75,0,0,0,0-14,120.74,120.74,0,0,1-9.59-23.08,14.76,14.76,0,0,0-9.91-9.92l-43.83-13.23v-23L179,283.31a14.78,14.78,0,0,0,9.91-9.92,121.52,121.52,0,0,1,9.57-23.09,14.67,14.67,0,0,0,0-14l-21.6-40.19,16.31-16.25,40.35,21.52a15,15,0,0,0,14.06,0,120.06,120.06,0,0,1,23.18-9.54,14.77,14.77,0,0,0,9.95-9.87L294,138.28H317l13.28,43.66a14.78,14.78,0,0,0,10,9.87,121.81,121.81,0,0,1,23.17,9.55,14.82,14.82,0,0,0,14.06,0l40.35-21.52,16.31,16.25-21.6,40.19a14.72,14.72,0,0,0,0,14,119.69,119.69,0,0,1,9.57,23.07,14.78,14.78,0,0,0,9.91,9.92l43.83,13.22v23Z"/></svg>