<?xml version="1.0" encoding="iso-8859-1"?>
<!-- Generator: Adobe Illustrator 21.1.0, SVG Export Plug-In . SVG Version: 6.00 Build 0)  -->
<svg version="1.1" xmlns="http://www.w3.org/2000/svg" xmlns:xlink="http://www.w3.org/1999/xlink" x="0px" y="0px"
	 viewBox="0 0 50 50" style="enable-background:new 0 0 50 50;" xml:space="preserve">
<g id="Configure">
	<path style="fill:#5280DF;" d="M25,50C11.215,50,0,38.785,0,25C0,11.215,11.215,0,25,0c13.785,0,25,11.215,25,25
		C50,38.785,38.785,50,25,50z M25,1.905C12.265,1.905,1.905,12.265,1.905,25S12.265,48.095,25,48.095S48.095,37.735,48.095,25
		S37.735,1.905,25,1.905z"/>
	<path style="fill:#5280DF;" d="M25,29.018c-2.215,0-4.018-1.802-4.018-4.018s1.802-4.018,4.018-4.018s4.018,1.802,4.018,4.018
		S27.215,29.018,25,29.018z M25,22.887c-1.165,0-2.113,0.948-2.113,2.113c0,1.165,0.948,2.113,2.113,2.113
		c1.165,0,2.113-0.948,2.113-2.113C27.113,23.835,26.165,22.887,25,22.887z"/>
	<path style="fill:#5280DF;" d="M26.448,37.857h-2.896c-0.42,0-0.79-0.275-0.911-0.677l-0.914-3.019
		c-0.304-0.108-0.602-0.231-0.892-0.368l-2.78,1.488c-0.369,0.2-0.826,0.131-1.123-0.166l-2.048-2.048
		c-0.297-0.297-0.364-0.753-0.166-1.123l1.488-2.779c-0.137-0.289-0.26-0.587-0.368-0.891L12.82,27.36
		c-0.402-0.121-0.676-0.492-0.676-0.911v-2.896c0-0.42,0.275-0.79,0.677-0.911l3.019-0.914c0.108-0.304,0.231-0.602,0.368-0.892
		l-1.488-2.779c-0.198-0.37-0.131-0.826,0.166-1.123l2.048-2.048c0.296-0.297,0.753-0.364,1.123-0.166l2.779,1.488
		c0.29-0.137,0.588-0.26,0.892-0.368l0.914-3.019c0.122-0.402,0.492-0.676,0.911-0.676h2.896c0.42,0,0.79,0.275,0.911,0.676
		l0.914,3.019c0.304,0.108,0.602,0.231,0.891,0.368l2.779-1.488c0.371-0.198,0.826-0.131,1.123,0.166l2.048,2.048
		c0.297,0.297,0.365,0.753,0.166,1.123l-1.488,2.78c0.137,0.289,0.26,0.587,0.368,0.892l3.019,0.914
		c0.402,0.122,0.677,0.492,0.677,0.911v2.896c0,0.42-0.275,0.79-0.677,0.911l-3.019,0.914c-0.108,0.304-0.231,0.602-0.368,0.891
		l1.488,2.779c0.199,0.37,0.131,0.826-0.166,1.123l-2.048,2.048c-0.297,0.297-0.752,0.366-1.123,0.166l-2.779-1.488
		c-0.29,0.137-0.588,0.26-0.891,0.368l-0.914,3.019C27.238,37.582,26.868,37.857,26.448,37.857z M24.259,35.952h1.482l0.853-2.817
		c0.093-0.306,0.333-0.546,0.64-0.637c0.519-0.154,1.02-0.361,1.489-0.616c0.281-0.152,0.621-0.153,0.904-0.002l2.593,1.389
		l1.048-1.048l-1.389-2.593c-0.152-0.282-0.151-0.622,0.002-0.904c0.254-0.469,0.462-0.97,0.616-1.489
		c0.091-0.307,0.331-0.547,0.637-0.64l2.817-0.853v-1.482l-2.817-0.853c-0.306-0.093-0.546-0.333-0.637-0.64
		c-0.155-0.521-0.362-1.022-0.616-1.489c-0.153-0.282-0.154-0.621-0.002-0.904l1.389-2.594l-1.048-1.048l-2.593,1.389
		c-0.282,0.151-0.622,0.151-0.904-0.002c-0.468-0.254-0.969-0.461-1.489-0.616c-0.307-0.091-0.547-0.331-0.64-0.637l-0.853-2.817
		h-1.482l-0.853,2.817c-0.093,0.306-0.333,0.546-0.64,0.637c-0.52,0.155-1.021,0.362-1.489,0.616
		c-0.282,0.152-0.622,0.153-0.904,0.002l-2.593-1.388l-1.048,1.048l1.388,2.593c0.151,0.282,0.15,0.622-0.002,0.904
		c-0.254,0.468-0.461,0.969-0.616,1.489c-0.091,0.307-0.331,0.548-0.637,0.64l-2.817,0.853v1.482l2.817,0.853
		c0.306,0.093,0.545,0.333,0.637,0.64c0.155,0.52,0.362,1.022,0.616,1.489c0.153,0.281,0.153,0.621,0.002,0.904l-1.389,2.593
		l1.048,1.048l2.594-1.389c0.283-0.151,0.622-0.15,0.904,0.002c0.467,0.254,0.968,0.461,1.489,0.616
		c0.307,0.091,0.547,0.331,0.64,0.637L24.259,35.952z M36.905,26.448h0.005H36.905z"/>
</g>
<g id="Layer_1">
</g>
</svg>
