<svg id="Layer_1" data-name="Layer 1" xmlns="http://www.w3.org/2000/svg" xmlns:xlink="http://www.w3.org/1999/xlink" viewBox="0 0 612 612"><defs><style>.cls-1{stroke:#232323;stroke-miterlimit:10;fill:url(#linear-gradient);}</style><linearGradient id="linear-gradient" x1="306.19" y1="105.59" x2="306.19" y2="505.88" gradientUnits="userSpaceOnUse"><stop offset="0" stop-color="#fff"/><stop offset="0.6" stop-color="#e2e2e2"/><stop offset="1" stop-color="#ccc"/></linearGradient></defs><path id="CopyTemplate" class="cls-1" d="M454.58,229.13H382.87V157.48a52,52,0,0,0-51.94-51.89H157.8a52,52,0,0,0-51.94,51.89v173a52,52,0,0,0,51.94,51.89H355.7L334,404a14.83,14.83,0,0,0,21,21l47-47a14.8,14.8,0,0,0,0-21l-47-46.95a14.83,14.83,0,1,0-21,21l21.65,21.63H259.19V281a22.28,22.28,0,0,1,22.26-22.24H454.58A22.28,22.28,0,0,1,476.84,281V454a22.28,22.28,0,0,1-22.26,22.24H281.45A22.28,22.28,0,0,1,259.19,454V426.81a14.84,14.84,0,0,0-29.67,0V454a52,52,0,0,0,51.93,51.89H454.58A52,52,0,0,0,506.52,454V281A52,52,0,0,0,454.58,229.13ZM229.52,281v71.65H157.8a22.28,22.28,0,0,1-22.26-22.24v-173a22.28,22.28,0,0,1,22.26-22.24H330.93a22.28,22.28,0,0,1,22.26,22.24v71.65H281.46A52,52,0,0,0,229.52,281Z"/></svg>