<?xml version="1.0" encoding="iso-8859-1"?>
<!-- Generator: Adobe Illustrator 21.1.0, SVG Export Plug-In . SVG Version: 6.00 Build 0)  -->
<svg version="1.1" xmlns="http://www.w3.org/2000/svg" xmlns:xlink="http://www.w3.org/1999/xlink" x="0px" y="0px"
	 viewBox="0 0 50 50" style="enable-background:new 0 0 50 50;" xml:space="preserve">
<g id="CopyTemplate">
	<path style="fill:#5280DF;" d="M25,50C11.215,50,0,38.785,0,25C0,11.215,11.215,0,25,0c13.785,0,25,11.215,25,25
		C50,38.785,38.785,50,25,50z M25,1.905C12.265,1.905,1.905,12.265,1.905,25S12.265,48.095,25,48.095S48.095,37.735,48.095,25
		S37.735,1.905,25,1.905z"/>
	<path style="fill:#5280DF;" d="M34.524,37.857H23.413c-1.838,0-3.333-1.496-3.333-3.333v-1.746c0-0.526,0.426-0.952,0.952-0.952
		c0.526,0,0.952,0.426,0.952,0.952v1.746c0,0.788,0.641,1.429,1.429,1.429h11.111c0.788,0,1.429-0.641,1.429-1.429V23.413
		c0-0.788-0.641-1.429-1.429-1.429H23.413c-0.788,0-1.429,0.641-1.429,1.429v5.555c0,0.526-0.426,0.952-0.952,0.952
		c-0.526,0-0.952-0.426-0.952-0.952v-5.555c0-1.838,1.495-3.333,3.333-3.333h11.111c1.838,0,3.333,1.495,3.333,3.333v11.111
		C37.857,36.362,36.362,37.857,34.524,37.857z"/>
	<path style="fill:#5280DF;" d="M28.968,29.92H15.476c-1.838,0-3.333-1.496-3.333-3.333V15.476c0-1.838,1.495-3.333,3.333-3.333
		h11.111c1.838,0,3.333,1.495,3.333,3.333v5.555c0,0.526-0.426,0.952-0.952,0.952c-0.526,0-0.952-0.426-0.952-0.952v-5.555
		c0-0.788-0.641-1.429-1.429-1.429H15.476c-0.788,0-1.429,0.641-1.429,1.429v11.111c0,0.788,0.641,1.429,1.429,1.429h13.492
		c0.526,0,0.952,0.426,0.952,0.952C29.92,29.494,29.494,29.92,28.968,29.92z"/>
	<path style="fill:#5280DF;" d="M27.46,32.937c-0.244,0-0.487-0.093-0.673-0.279c-0.372-0.372-0.372-0.975,0-1.347l2.342-2.343
		l-2.342-2.342c-0.372-0.372-0.372-0.975,0-1.347c0.372-0.372,0.975-0.372,1.347,0l3.016,3.016c0.372,0.372,0.372,0.975,0,1.347
		l-3.016,3.016C27.948,32.844,27.704,32.937,27.46,32.937z"/>
</g>
<g id="Layer_1">
</g>
</svg>
