<svg id="Layer_1" data-name="Layer 1" xmlns="http://www.w3.org/2000/svg" xmlns:xlink="http://www.w3.org/1999/xlink" viewBox="0 0 612 612"><defs><style>.cls-1,.cls-2{stroke:#232323;stroke-miterlimit:10;}.cls-1{opacity:0.6;isolation:isolate;fill:url(#linear-gradient);}.cls-2{fill:url(#linear-gradient-2);}</style><linearGradient id="linear-gradient" x1="304.9" y1="324.19" x2="304.9" y2="383.01" gradientUnits="userSpaceOnUse"><stop offset="0" stop-color="#fff"/><stop offset="0.6" stop-color="#e2e2e2"/><stop offset="1" stop-color="#ccc"/></linearGradient><linearGradient id="linear-gradient-2" x1="305.88" y1="105.97" x2="305.88" y2="505.75" xlink:href="#linear-gradient"/></defs><g id="Create3D"><path class="cls-1" d="M183,383a8.62,8.62,0,0,1-8.62-8.61,24.61,24.61,0,0,1,3.51-12.46,8.62,8.62,0,0,1,14.9,8.67,7.58,7.58,0,0,0-1.17,3.79A8.62,8.62,0,0,1,183,383Zm243.72-6.52a8.63,8.63,0,0,1-7.83-5,15.88,15.88,0,0,0-3.29-4.44,8.61,8.61,0,1,1,12.18-12.18,32.84,32.84,0,0,1,6.76,9.38,8.64,8.64,0,0,1-7.82,12.23ZM213.27,355.65A8.61,8.61,0,0,1,210.14,339c2.73-1.06,5.59-2.06,8.61-3a8.6,8.6,0,1,1,5.3,16.37q-4,1.31-7.66,2.71A8.54,8.54,0,0,1,213.27,355.65Zm178.36-2.3a8.51,8.51,0,0,1-2.72-.44q-3.77-1.25-7.85-2.39A8.6,8.6,0,1,1,385.7,334c3,.83,5.89,1.72,8.64,2.64a8.6,8.6,0,0,1-2.71,16.76ZM255,345.11A8.6,8.6,0,0,1,253.68,328c2.87-.44,5.81-.85,8.8-1.23a8.61,8.61,0,1,1,2.12,17.09c-2.82.34-5.58.73-8.29,1.14A7.5,7.5,0,0,1,255,345.11Zm94.58-1a8.83,8.83,0,0,1-1.14-.07c-2.73-.36-5.5-.67-8.32-1A8.61,8.61,0,1,1,341.87,326c3,.3,5.92.65,8.82,1a8.61,8.61,0,0,1-1.12,17.14Zm-51.64-2.67a8.61,8.61,0,0,1-.18-17.21q3.92-.07,7.89-.08h.91a8.61,8.61,0,1,1,0,17.21h-.91q-3.81,0-7.54.08Z"/><path class="cls-2" d="M305.88,106c-114.06,0-200.09,41.37-200.09,96.25V409.51c0,54.87,86,96.24,200.09,96.24S506,464.38,506,409.51V202.22C506,147.34,419.94,106,305.88,106Zm0,29.62c100.44,0,170.45,35.12,170.45,66.63s-70,66.63-170.45,66.63-170.44-35.13-170.44-66.63S205.44,135.59,305.88,135.59Zm0,340.55c-100.44,0-170.44-35.12-170.44-66.63V254c34.62,27.1,96.63,44.42,170.44,44.42S441.7,281.12,476.33,254V409.51C476.33,441,406.32,476.14,305.88,476.14Z"/></g></svg>