<svg id="Layer_1" data-name="Layer 1" xmlns="http://www.w3.org/2000/svg" xmlns:xlink="http://www.w3.org/1999/xlink" viewBox="0 0 612 612"><defs><style>.cls-1{stroke:#232323;stroke-miterlimit:10;fill:url(#linear-gradient);}</style><linearGradient id="linear-gradient" x1="301.82" y1="107.1" x2="301.82" y2="507.37" gradientUnits="userSpaceOnUse"><stop offset="0" stop-color="#fff"/><stop offset="0.6" stop-color="#e2e2e2"/><stop offset="1" stop-color="#ccc"/></linearGradient></defs><path id="CrossHair" class="cls-1" d="M487.08,292.41h-36A150.3,150.3,0,0,0,316.64,157.89v-36a14.82,14.82,0,0,0-29.64,0v36A150.31,150.31,0,0,0,152.52,292.41h-36a14.83,14.83,0,0,0,0,29.65h36C159.52,393,216.07,449.6,287,456.58v36a14.82,14.82,0,1,0,29.64,0v-36A150.33,150.33,0,0,0,451.13,322.06h35.95a14.83,14.83,0,0,0,0-29.65ZM387,322.06h34.19A120.55,120.55,0,0,1,316.64,426.68v-34.2a14.82,14.82,0,1,0-29.64,0v34.2A120.57,120.57,0,0,1,182.41,322.06H216.6a14.83,14.83,0,0,0,0-29.65H182.41A120.57,120.57,0,0,1,287,187.79V222a14.82,14.82,0,1,0,29.64,0v-34.2A120.55,120.55,0,0,1,421.23,292.41H387a14.83,14.83,0,0,0,0,29.65ZM301.82,288a19.23,19.23,0,1,0,19.23,19.22A19.23,19.23,0,0,0,301.82,288Z"/></svg>