<svg id="Layer_1" data-name="Layer 1" xmlns="http://www.w3.org/2000/svg" xmlns:xlink="http://www.w3.org/1999/xlink" viewBox="0 0 612 612"><defs><style>.cls-1{stroke:#232323;stroke-miterlimit:10;stroke-width:1.31px;fill:url(#linear-gradient);}</style><linearGradient id="linear-gradient" x1="301.82" y1="32.86" x2="301.82" y2="579.14" gradientUnits="userSpaceOnUse"><stop offset="0" stop-color="#fafafa"/><stop offset="1" stop-color="#ebebeb"/></linearGradient></defs><path id="CrossHair" class="cls-1" d="M554.66,285.77H505.59C496,188.94,418.85,111.7,322.05,102.18V53.09a20.23,20.23,0,1,0-40.45,0v49.09c-96.81,9.55-174,86.76-183.54,183.59H49a20.23,20.23,0,1,0,0,40.46H98.06c9.54,96.84,86.73,174.07,183.54,183.6v49.08a20.23,20.23,0,1,0,40.45,0V509.83c96.81-9.55,174-86.76,183.54-183.6h49.07a20.23,20.23,0,0,0,0-40.46ZM418.13,326.23h46.66A164.53,164.53,0,0,1,322.05,469V422.34a20.23,20.23,0,0,0-40.46,0V469A164.54,164.54,0,0,1,138.85,326.23h46.67a20.23,20.23,0,0,0,0-40.46H138.85A164.54,164.54,0,0,1,281.59,143v46.68a20.23,20.23,0,1,0,40.46,0V143A164.53,164.53,0,0,1,464.79,285.77H418.13a20.23,20.23,0,0,0,0,40.46ZM301.82,279.76A26.24,26.24,0,1,0,328.06,306,26.24,26.24,0,0,0,301.82,279.76Z"/></svg>