<svg xmlns="http://www.w3.org/2000/svg" xmlns:xlink="http://www.w3.org/1999/xlink" viewBox="0 0 612 612"><defs><style>.cls-1,.cls-2,.cls-3,.cls-4,.cls-5,.cls-6{stroke:#232323;stroke-miterlimit:10;}.cls-1{fill:url(#linear-gradient);}.cls-2{fill:url(#linear-gradient-2);}.cls-3{fill:url(#linear-gradient-3);}.cls-4{fill:url(#linear-gradient-4);}.cls-5{fill:url(#linear-gradient-5);}.cls-6{fill:url(#linear-gradient-6);}</style><linearGradient id="linear-gradient" x1="352.9" y1="155.07" x2="352.9" y2="267.16" gradientUnits="userSpaceOnUse"><stop offset="0" stop-color="#fff"/><stop offset="0.6" stop-color="#e2e2e2"/><stop offset="1" stop-color="#ccc"/></linearGradient><linearGradient id="linear-gradient-2" x1="399.87" y1="178.36" x2="399.87" y2="243.8" xlink:href="#linear-gradient"/><linearGradient id="linear-gradient-3" x1="306.01" y1="178.37" x2="306.01" y2="243.8" xlink:href="#linear-gradient"/><linearGradient id="linear-gradient-4" x1="306" y1="337.13" x2="306" y2="456.93" xlink:href="#linear-gradient"/><linearGradient id="linear-gradient-5" x1="399.88" y1="359.31" x2="399.88" y2="431.54" xlink:href="#linear-gradient"/><linearGradient id="linear-gradient-6" x1="212.15" y1="362.59" x2="212.15" y2="431.77" xlink:href="#linear-gradient"/></defs><g id="Layer_2" data-name="Layer 2"><path class="cls-1" d="M506,167.4v87.41a12.29,12.29,0,1,1-24.58,0V223.6H224.44v31.21a12.29,12.29,0,1,1-24.58,0V167.4a12.29,12.29,0,1,1,24.58,0v31.52H481.37V167.4a12.32,12.32,0,0,1,3.6-8.72,12.28,12.28,0,0,1,21,8.72Z"/><rect class="cls-2" x="387.57" y="178.36" width="24.59" height="65.44" rx="12.29"/><rect class="cls-3" x="293.72" y="178.37" width="24.59" height="65.42" rx="12.29"/><path class="cls-4" d="M506,349.35V444.7a12.24,12.24,0,0,1-24.47,0V409.41H318.25v25.48a12.24,12.24,0,1,1-24.47,0V409.41H130.52v35.28a12.24,12.24,0,1,1-24.47,0V349.4a12.24,12.24,0,1,1,24.47,0V385H293.78v-25.6a12.24,12.24,0,1,1,24.47,0V385H481.48v-35.6a12.24,12.24,0,1,1,24.47,0Z"/><rect class="cls-5" x="387.64" y="359.31" width="24.47" height="72.23" rx="12.23"/><rect class="cls-6" x="199.92" y="362.59" width="24.47" height="69.18" rx="12.23"/></g></svg>