<svg id="Layer_1" data-name="Layer 1" xmlns="http://www.w3.org/2000/svg" xmlns:xlink="http://www.w3.org/1999/xlink" viewBox="0 0 612 612"><defs><style>.cls-1,.cls-2{stroke:#232323;stroke-miterlimit:10;stroke-width:1.31px;}.cls-1{fill:url(#linear-gradient);}.cls-2{fill:url(#linear-gradient-2);}</style><linearGradient id="linear-gradient" x1="306" y1="115.8" x2="306" y2="496.2" gradientUnits="userSpaceOnUse"><stop offset="0" stop-color="#fafafa"/><stop offset="1" stop-color="#ebebeb"/></linearGradient><linearGradient id="linear-gradient-2" x1="306" y1="32.51" x2="306" y2="579.49" xlink:href="#linear-gradient"/></defs><path class="cls-1" d="M306,496.2c-105.34,0-191-85.31-191-190.2s85.68-190.2,191-190.2S497,201.11,497,306a24.92,24.92,0,0,1-49.83,0c0-77.52-63.33-140.58-141.19-140.58S164.81,228.48,164.81,306,228.14,446.58,306,446.58a24.81,24.81,0,1,1,0,49.62Z"/><path class="cls-2" d="M508.48,579.49h-405a71,71,0,0,1-70.87-70.91V103.42a71,71,0,0,1,70.87-70.91h405a71,71,0,0,1,70.87,70.91V508.59A71,71,0,0,1,508.48,579.49ZM103.36,60.23c-16.75,0-42.92,24.85-42.92,41.6V520.6c0,16.75,15.27,37,32,37H510.57c16.74,0,44.1-29,42.66-46.83l.34-411.9c0-16.76-23.25-38.6-40-38.6Z"/></svg>