<svg id="Layer_1" data-name="Layer 1" xmlns="http://www.w3.org/2000/svg" xmlns:xlink="http://www.w3.org/1999/xlink" viewBox="0 0 612 612"><defs><style>.cls-1,.cls-2{stroke:#232323;stroke-miterlimit:10;}.cls-1{opacity:0.6;isolation:isolate;fill:url(#linear-gradient);}.cls-2{fill:url(#linear-gradient-2);}</style><linearGradient id="linear-gradient" x1="301.98" y1="101.64" x2="301.98" y2="501.68" gradientUnits="userSpaceOnUse"><stop offset="0" stop-color="#fff"/><stop offset="0.6" stop-color="#e2e2e2"/><stop offset="1" stop-color="#ccc"/></linearGradient><linearGradient id="linear-gradient-2" x1="302.18" y1="162.96" x2="302.18" y2="442" xlink:href="#linear-gradient"/></defs><g id="Curve"><path class="cls-1" d="M487.25,416.49a14.83,14.83,0,0,0-14.82,14.82v40.74H431.67a14.82,14.82,0,1,0,0,29.63h55.58a14.82,14.82,0,0,0,14.82-14.81V431.3A14.82,14.82,0,0,0,487.25,416.49Zm-142,55.56H258.75a14.82,14.82,0,1,0,0,29.63H345.2a14.82,14.82,0,1,0,0-29.63Zm-172.9,0H131.54V431.31a14.82,14.82,0,1,0-29.64,0v55.56a14.82,14.82,0,0,0,14.82,14.81H172.3a14.82,14.82,0,1,0,0-29.63ZM116.72,359.68a14.82,14.82,0,0,0,14.82-14.81V258.44a14.82,14.82,0,0,0-29.64,0v86.43A14.81,14.81,0,0,0,116.72,359.68Zm55.58-258H116.72a14.82,14.82,0,0,0-14.82,14.81V172a14.82,14.82,0,0,0,29.64,0V131.27H172.3a14.82,14.82,0,1,0,0-29.63Zm172.9,0H258.75a14.82,14.82,0,1,0,0,29.63H345.2a14.82,14.82,0,1,0,0-29.63Zm142.05,0H431.67a14.82,14.82,0,1,0,0,29.63h40.76V172a14.82,14.82,0,1,0,29.64,0V116.45A14.82,14.82,0,0,0,487.25,101.64Zm0,142a14.83,14.83,0,0,0-14.82,14.82v86.43a14.82,14.82,0,0,0,29.64,0V258.44A14.83,14.83,0,0,0,487.25,243.62Z"/><path class="cls-2" d="M302.18,442c-77.27,0-140.12-62.58-140.12-139.52S224.91,163,302.18,163,442.3,225.54,442.3,302.48a18.28,18.28,0,0,1-36.56,0c0-56.86-46.45-103.12-103.56-103.12S198.61,245.62,198.61,302.48s46.46,103.13,103.57,103.13a18.2,18.2,0,1,1,0,36.39Z"/></g></svg>