<svg id="Layer_1" data-name="Layer 1" xmlns="http://www.w3.org/2000/svg" xmlns:xlink="http://www.w3.org/1999/xlink" viewBox="0 0 612 612"><defs><style>.cls-1{stroke:#232323;stroke-miterlimit:10;fill:url(#linear-gradient);}</style><linearGradient id="linear-gradient" x1="305.78" y1="105.96" x2="305.78" y2="506.92" gradientUnits="userSpaceOnUse"><stop offset="0" stop-color="#fff"/><stop offset="0.6" stop-color="#e2e2e2"/><stop offset="1" stop-color="#ccc"/></linearGradient></defs><path id="CustomLayout" class="cls-1" d="M270.58,106H120.5a14.84,14.84,0,0,0-14.82,14.85V308.3a14.85,14.85,0,0,0,14.82,14.85H270.58A14.85,14.85,0,0,0,285.4,308.3V120.81A14.84,14.84,0,0,0,270.58,106ZM255.76,293.45H135.32V135.66H255.76V293.45ZM270.58,364H120.5a14.85,14.85,0,0,0-14.82,14.86V492.07a14.84,14.84,0,0,0,14.82,14.85H270.58a14.84,14.84,0,0,0,14.82-14.85V378.84A14.85,14.85,0,0,0,270.58,364ZM255.76,477.22H135.32V393.69H255.76v83.53ZM491.06,106H341a14.84,14.84,0,0,0-14.83,14.85V234.05A14.84,14.84,0,0,0,341,248.89H491.06a14.84,14.84,0,0,0,14.82-14.84V120.81A14.84,14.84,0,0,0,491.06,106ZM476.24,219.2H355.81V135.66H476.24Zm14.82,70.53H341a14.85,14.85,0,0,0-14.83,14.85V492.07A14.84,14.84,0,0,0,341,506.92H491.06a14.84,14.84,0,0,0,14.82-14.85V304.58A14.85,14.85,0,0,0,491.06,289.73ZM476.24,477.22H355.81V319.44H476.24Z"/></svg>