<?xml version="1.0" encoding="iso-8859-1"?>
<!-- Generator: Adobe Illustrator 21.1.0, SVG Export Plug-In . SVG Version: 6.00 Build 0)  -->
<svg version="1.1" xmlns="http://www.w3.org/2000/svg" xmlns:xlink="http://www.w3.org/1999/xlink" x="0px" y="0px"
	 viewBox="0 0 50 50" style="enable-background:new 0 0 50 50;" xml:space="preserve">
<g id="CustomLayout">
	<path style="fill:#5280DF;" d="M25,50C11.215,50,0,38.785,0,25C0,11.215,11.215,0,25,0c13.785,0,25,11.215,25,25
		C50,38.785,38.785,50,25,50z M25,1.905C12.265,1.905,1.905,12.265,1.905,25S12.265,48.095,25,48.095S48.095,37.735,48.095,25
		S37.735,1.905,25,1.905z"/>
	<path style="fill:#5280DF;" d="M22.738,26.071h-9.643c-0.526,0-0.952-0.426-0.952-0.952V13.095c0-0.526,0.426-0.952,0.952-0.952
		h9.643c0.526,0,0.952,0.426,0.952,0.952v12.024C23.69,25.645,23.264,26.071,22.738,26.071z M14.048,24.167h7.738V14.048h-7.738
		V24.167z"/>
	<path style="fill:#5280DF;" d="M22.738,37.857h-9.643c-0.526,0-0.952-0.426-0.952-0.952v-7.262c0-0.526,0.426-0.952,0.952-0.952
		h9.643c0.526,0,0.952,0.426,0.952,0.952v7.262C23.69,37.431,23.264,37.857,22.738,37.857z M14.048,35.952h7.738v-5.357h-7.738
		V35.952z"/>
	<path style="fill:#5280DF;" d="M36.905,21.31h-9.643c-0.526,0-0.952-0.426-0.952-0.952v-7.262c0-0.526,0.426-0.952,0.952-0.952
		h9.643c0.526,0,0.952,0.426,0.952,0.952v7.262C37.857,20.883,37.431,21.31,36.905,21.31z M28.214,19.405h7.738v-5.357h-7.738
		V19.405z"/>
	<path style="fill:#5280DF;" d="M36.905,37.857h-9.643c-0.526,0-0.952-0.426-0.952-0.952V24.881c0-0.526,0.426-0.952,0.952-0.952
		h9.643c0.526,0,0.952,0.426,0.952,0.952v12.024C37.857,37.431,37.431,37.857,36.905,37.857z M28.214,35.952h7.738V25.833h-7.738
		V35.952z"/>
</g>
<g id="Layer_1">
</g>
</svg>
