<?xml version="1.0" encoding="iso-8859-1"?>
<!-- Generator: Adobe Illustrator 21.1.0, SVG Export Plug-In . SVG Version: 6.00 Build 0)  -->
<svg version="1.1" xmlns="http://www.w3.org/2000/svg" xmlns:xlink="http://www.w3.org/1999/xlink" x="0px" y="0px"
	 viewBox="0 0 50 50" style="enable-background:new 0 0 50 50;" xml:space="preserve">
<g id="DeleteSeriesLayout">
	<path style="fill:#5280DF;" d="M25,50C11.215,50,0,38.785,0,25C0,11.215,11.215,0,25,0c13.785,0,25,11.215,25,25
		C50,38.785,38.785,50,25,50z M25,1.905C12.265,1.905,1.905,12.265,1.905,25S12.265,48.095,25,48.095S48.095,37.735,48.095,25
		S37.735,1.905,25,1.905z"/>
	<path style="fill:#5280DF;" d="M22.738,23.69h-9.643c-0.526,0-0.952-0.426-0.952-0.952v-9.643c0-0.526,0.426-0.952,0.952-0.952
		h9.643c0.526,0,0.952,0.426,0.952,0.952v9.643C23.69,23.264,23.264,23.69,22.738,23.69z M14.048,21.786h7.738v-7.738h-7.738V21.786
		z"/>
	<path style="fill:#5280DF;" d="M22.713,37.857H13.07c-0.526,0-0.952-0.426-0.952-0.952v-9.643c0-0.526,0.426-0.952,0.952-0.952
		h9.643c0.526,0,0.952,0.426,0.952,0.952v9.643C23.665,37.431,23.239,37.857,22.713,37.857z M14.023,35.952h7.738v-7.738h-7.738
		V35.952z"/>
	<path style="fill:#5280DF;" d="M36.905,23.69h-9.643c-0.526,0-0.952-0.426-0.952-0.952v-9.643c0-0.526,0.426-0.952,0.952-0.952
		h9.643c0.526,0,0.952,0.426,0.952,0.952v9.643C37.857,23.264,37.431,23.69,36.905,23.69z M28.214,21.786h7.738v-7.738h-7.738
		V21.786z"/>
	<path style="fill:#5280DF;" d="M27.247,37.857c-0.244,0-0.487-0.093-0.673-0.279c-0.372-0.372-0.372-0.975,0-1.347l9.673-9.673
		c0.372-0.372,0.975-0.372,1.347,0c0.372,0.372,0.372,0.975,0,1.347l-9.673,9.673C27.734,37.764,27.491,37.857,27.247,37.857z"/>
	<path style="fill:#5280DF;" d="M36.92,37.857c-0.244,0-0.487-0.093-0.673-0.279l-9.673-9.673c-0.372-0.372-0.372-0.975,0-1.347
		c0.372-0.372,0.975-0.372,1.347,0l9.673,9.673c0.372,0.372,0.372,0.975,0,1.347C37.407,37.764,37.163,37.857,36.92,37.857z"/>
</g>
<g id="Layer_1">
</g>
</svg>
