<svg id="Layer_1" data-name="Layer 1" xmlns="http://www.w3.org/2000/svg" xmlns:xlink="http://www.w3.org/1999/xlink" viewBox="0 0 612 612"><defs><style>.cls-1{opacity:0.6;}.cls-2,.cls-3{stroke:#232323;stroke-miterlimit:10;}.cls-2{fill:url(#linear-gradient);}.cls-3{fill:url(#linear-gradient-2);}</style><linearGradient id="linear-gradient" x1="306.2" y1="106.3" x2="306.2" y2="506.17" gradientUnits="userSpaceOnUse"><stop offset="0" stop-color="#fff"/><stop offset="0.6" stop-color="#e2e2e2"/><stop offset="1" stop-color="#ccc"/></linearGradient><linearGradient id="linear-gradient-2" x1="306.2" y1="223.54" x2="306.2" y2="388.92" xlink:href="#linear-gradient"/></defs><g id="DeleteTemplate"><g class="cls-1"><path class="cls-2" d="M454.38,506.17H158a51.91,51.91,0,0,1-51.86-51.83V158.13A51.91,51.91,0,0,1,158,106.3H454.38a51.9,51.9,0,0,1,51.86,51.83V454.34A51.9,51.9,0,0,1,454.38,506.17ZM208.23,193.66a14.71,14.71,0,0,0-14.69,14.69V404.13a14.71,14.71,0,0,0,14.69,14.69H404.09a14.71,14.71,0,0,0,14.69-14.69V208.35a14.71,14.71,0,0,0-14.69-14.69Z"/></g><path class="cls-3" d="M327.15,306.23l57.43-57.4a14.81,14.81,0,1,0-20.95-20.94l-57.43,57.4-57.44-57.4a14.81,14.81,0,0,0-20.95,20.94l57.43,57.4-57.43,57.41a14.81,14.81,0,0,0,20.95,20.94l57.44-57.41,57.43,57.41a14.81,14.81,0,1,0,21-20.94Z"/></g></svg>