<?xml version="1.0" encoding="iso-8859-1"?>
<!-- Generator: Adobe Illustrator 21.1.0, SVG Export Plug-In . SVG Version: 6.00 Build 0)  -->
<svg version="1.1" xmlns="http://www.w3.org/2000/svg" xmlns:xlink="http://www.w3.org/1999/xlink" x="0px" y="0px"
	 viewBox="0 0 50 50" style="enable-background:new 0 0 50 50;" xml:space="preserve">
<g id="DeleteStudyLayout">
	<path style="fill:#5280DF;" d="M25,50C11.215,50,0,38.785,0,25C0,11.215,11.215,0,25,0c13.785,0,25,11.215,25,25
		C50,38.785,38.785,50,25,50z M25,1.905C12.265,1.905,1.905,12.265,1.905,25S12.265,48.095,25,48.095S48.095,37.735,48.095,25
		S37.735,1.905,25,1.905z"/>
	<path style="fill:#5280DF;" d="M23.214,31.012H13.095c-0.526,0-0.952-0.426-0.952-0.952V13.095c0-0.526,0.426-0.952,0.952-0.952
		H30.06c0.526,0,0.952,0.426,0.952,0.952v10.119c0,0.526-0.426,0.952-0.952,0.952c-0.526,0-0.952-0.426-0.952-0.952v-9.167h-15.06
		v15.06h9.167c0.526,0,0.952,0.426,0.952,0.952C24.167,30.585,23.74,31.012,23.214,31.012z"/>
	<path style="fill:#5280DF;" d="M20.446,31.012h-7.351c-0.526,0-0.952-0.426-0.952-0.952v-7.351c0-0.526,0.426-0.952,0.952-0.952
		h7.351c0.526,0,0.952,0.426,0.952,0.952v7.351C21.399,30.585,20.972,31.012,20.446,31.012z M14.048,29.107h5.446v-5.446h-5.446
		V29.107z"/>
	<path style="fill:#5280DF;" d="M30.06,37.857c-4.3,0-7.798-3.498-7.798-7.798s3.498-7.798,7.798-7.798s7.798,3.498,7.798,7.798
		S34.359,37.857,30.06,37.857z M30.06,24.167c-3.249,0-5.893,2.644-5.893,5.893c0,3.249,2.644,5.893,5.893,5.893
		c3.249,0,5.893-2.644,5.893-5.893C35.952,26.81,33.309,24.167,30.06,24.167z"/>
	<path style="fill:#5280DF;" d="M32.44,33.393c-0.244,0-0.487-0.093-0.673-0.279l-4.762-4.762c-0.372-0.372-0.372-0.975,0-1.347
		c0.372-0.372,0.975-0.372,1.347,0l4.762,4.762c0.372,0.372,0.372,0.975,0,1.347C32.928,33.3,32.684,33.393,32.44,33.393z"/>
	<path style="fill:#5280DF;" d="M27.679,33.393c-0.244,0-0.487-0.093-0.673-0.279c-0.372-0.372-0.372-0.975,0-1.347l4.762-4.762
		c0.372-0.372,0.975-0.372,1.347,0c0.372,0.372,0.372,0.975,0,1.347l-4.762,4.762C28.166,33.3,27.922,33.393,27.679,33.393z"/>
</g>
<g id="Layer_1">
</g>
</svg>
