<svg id="Layer_1" data-name="Layer 1" xmlns="http://www.w3.org/2000/svg" xmlns:xlink="http://www.w3.org/1999/xlink" viewBox="0 0 612 612"><defs><style>.cls-1,.cls-2{stroke:#232323;stroke-miterlimit:10;}.cls-1{opacity:0.6;isolation:isolate;fill:url(#linear-gradient);}.cls-2{fill:url(#linear-gradient-2);}</style><linearGradient id="linear-gradient" x1="306.09" y1="106" x2="306.09" y2="506.17" gradientUnits="userSpaceOnUse"><stop offset="0" stop-color="#fff"/><stop offset="0.6" stop-color="#e2e2e2"/><stop offset="1" stop-color="#ccc"/></linearGradient><linearGradient id="linear-gradient-2" x1="378.86" y1="319.31" x2="378.86" y2="438.66" xlink:href="#linear-gradient"/></defs><g id="DeleteSeriesLayout"><path class="cls-1" d="M271.11,106h-150a14.83,14.83,0,0,0-14.82,14.82V270.88a14.83,14.83,0,0,0,14.82,14.83h150a14.82,14.82,0,0,0,14.81-14.83V120.82A14.82,14.82,0,0,0,271.11,106ZM256.29,256.06H135.92V135.64H256.29V256.06Zm14.42,70.4h-150a14.83,14.83,0,0,0-14.82,14.82V491.35a14.83,14.83,0,0,0,14.82,14.82h150a14.82,14.82,0,0,0,14.81-14.82V341.28A14.82,14.82,0,0,0,270.71,326.46ZM255.89,476.53H135.52V356.1H255.89V476.53ZM491.49,106h-150a14.82,14.82,0,0,0-14.81,14.82V270.88a14.82,14.82,0,0,0,14.81,14.83h150a14.82,14.82,0,0,0,14.81-14.83V120.82A14.82,14.82,0,0,0,491.49,106ZM476.67,256.06H356.3V135.64H476.67V256.06Z"/><path class="cls-2" d="M392.76,379l43-42.92a9.82,9.82,0,0,0-13.9-13.88l-43,42.91-43-42.91A9.82,9.82,0,0,0,322,336.07L365,379,322,421.9a9.82,9.82,0,0,0,13.89,13.89l43-42.92,43,42.92a9.83,9.83,0,1,0,13.9-13.89Z"/></g></svg>