<svg id="Layer_1" data-name="Layer 1" xmlns="http://www.w3.org/2000/svg" xmlns:xlink="http://www.w3.org/1999/xlink" viewBox="0 0 612 612"><defs><style>.cls-1{stroke:#232323;stroke-miterlimit:10;fill:url(#linear-gradient);}</style><linearGradient id="linear-gradient" x1="306.43" y1="105.75" x2="306.43" y2="505.91" gradientUnits="userSpaceOnUse"><stop offset="0" stop-color="#fff"/><stop offset="0.6" stop-color="#e2e2e2"/><stop offset="1" stop-color="#ccc"/></linearGradient></defs><path id="DeleteCell" class="cls-1" d="M306.43,105.75c-110.33,0-200.08,89.75-200.08,200.08S196.1,505.91,306.43,505.91s200.09-89.75,200.09-200.08S416.76,105.75,306.43,105.75Zm0,370.52c-94,0-170.44-76.46-170.44-170.44s76.46-170.44,170.44-170.44,170.44,76.46,170.44,170.44S400.41,476.27,306.43,476.27Zm78.42-248.84a14.8,14.8,0,0,0-21,0l-57.46,57.44L249,227.43a14.82,14.82,0,1,0-21,20.95l57.44,57.45L228,363.28a14.82,14.82,0,0,0,21,21l57.44-57.44,57.45,57.44a14.81,14.81,0,1,0,20.95-21l-57.44-57.45,57.44-57.45A14.81,14.81,0,0,0,384.85,227.43Z"/></svg>