<svg id="Layer_1" data-name="Layer 1" xmlns="http://www.w3.org/2000/svg" xmlns:xlink="http://www.w3.org/1999/xlink" viewBox="0 0 612 612"><defs><style>.cls-1{opacity:0.6;}.cls-2,.cls-3{stroke:#232323;stroke-miterlimit:10;stroke-width:1.31px;}.cls-2{fill:url(#linear-gradient);}.cls-3{fill:url(#linear-gradient-2);}</style><linearGradient id="linear-gradient" x1="306" y1="32.94" x2="306" y2="579.06" gradientUnits="userSpaceOnUse"><stop offset="0" stop-color="#fafafa"/><stop offset="1" stop-color="#ebebeb"/></linearGradient><linearGradient id="linear-gradient-2" x1="306" y1="193.07" x2="306" y2="418.93" xlink:href="#linear-gradient"/></defs><g id="DeleteTemplate"><g class="cls-1"><path class="cls-2" d="M508.38,579.06H103.62a70.88,70.88,0,0,1-70.83-70.79V103.73a70.88,70.88,0,0,1,70.83-70.79H508.38a70.88,70.88,0,0,1,70.83,70.79V508.27A70.88,70.88,0,0,1,508.38,579.06ZM172.2,152.26a20.08,20.08,0,0,0-20.06,20.05V439.7a20.08,20.08,0,0,0,20.06,20.06H439.7a20.08,20.08,0,0,0,20.06-20.06V172.31a20.08,20.08,0,0,0-20.06-20.05Z"/></g><path class="cls-3" d="M334.62,306l78.44-78.4A20.23,20.23,0,0,0,384.44,199L306,277.4,227.56,199a20.23,20.23,0,0,0-28.62,28.6L277.38,306l-78.44,78.4A20.23,20.23,0,0,0,227.56,413L306,334.6,384.44,413a20.23,20.23,0,0,0,28.62-28.6Z"/></g></svg>