<svg id="Layer_1" data-name="Layer 1" xmlns="http://www.w3.org/2000/svg" xmlns:xlink="http://www.w3.org/1999/xlink" viewBox="0 0 612 612"><defs><style>.cls-1{opacity:0.6;}.cls-2,.cls-3{stroke:#232323;stroke-miterlimit:10;}.cls-2{fill:url(#linear-gradient);}.cls-3{fill:url(#linear-gradient-2);}</style><linearGradient id="linear-gradient" x1="341.3" y1="106.14" x2="341.3" y2="447.32" gradientUnits="userSpaceOnUse"><stop offset="0" stop-color="#fff"/><stop offset="0.6" stop-color="#e2e2e2"/><stop offset="1" stop-color="#ccc"/></linearGradient><linearGradient id="linear-gradient-2" x1="270.94" y1="164.75" x2="270.94" y2="505.92" xlink:href="#linear-gradient"/></defs><g id="DeleteAnn"><g class="cls-1"><path class="cls-2" d="M491.27,447.32H420.91a14.81,14.81,0,1,1,0-29.62h55.55V135.76H206.13v43.79a14.81,14.81,0,0,1-29.62,0V121a14.82,14.82,0,0,1,14.81-14.81h300A14.82,14.82,0,0,1,506.08,121V432.51A14.82,14.82,0,0,1,491.27,447.32Z"/></g><path class="cls-3" d="M420.91,164.75H121a14.81,14.81,0,0,0-14.81,14.8V491.11A14.82,14.82,0,0,0,121,505.92h300a14.82,14.82,0,0,0,14.82-14.81V179.55A14.82,14.82,0,0,0,420.91,164.75ZM406.1,476.31H135.78V194.36H406.1v282Zm-204.26-71.9a14.8,14.8,0,0,0,20.94,0l48.16-48.14,48.16,48.14A14.81,14.81,0,1,0,340,383.47l-48.16-48.14L340,287.2a14.81,14.81,0,0,0-20.94-20.94L270.94,314.4l-48.15-48.14a14.81,14.81,0,0,0-20.95,20.94L250,335.33l-48.15,48.14A14.79,14.79,0,0,0,201.84,404.41Z"/></g></svg>