<?xml version="1.0" encoding="iso-8859-1"?>
<!-- Generator: Adobe Illustrator 21.1.0, SVG Export Plug-In . SVG Version: 6.00 Build 0)  -->
<svg version="1.1" xmlns="http://www.w3.org/2000/svg" xmlns:xlink="http://www.w3.org/1999/xlink" x="0px" y="0px"
	 viewBox="0 0 50 50" style="enable-background:new 0 0 50 50;" xml:space="preserve">
<g id="DeleteCell">
	<path style="fill:#5280DF;" d="M25,50C11.215,50,0,38.785,0,25C0,11.215,11.215,0,25,0c13.785,0,25,11.215,25,25
		C50,38.785,38.785,50,25,50z M25,1.905C12.265,1.905,1.905,12.265,1.905,25S12.265,48.095,25,48.095S48.095,37.735,48.095,25
		S37.735,1.905,25,1.905z"/>
	<path style="fill:#5280DF;" d="M25,37.857c-7.089,0-12.857-5.768-12.857-12.857S17.911,12.143,25,12.143S37.857,17.911,37.857,25
		S32.089,37.857,25,37.857z M25,14.048c-6.039,0-10.952,4.913-10.952,10.952c0,6.039,4.913,10.952,10.952,10.952
		c6.039,0,10.952-4.913,10.952-10.952C35.952,18.961,31.039,14.048,25,14.048z"/>
	<path style="fill:#5280DF;" d="M20.635,30.318c-0.244,0-0.488-0.093-0.673-0.279c-0.372-0.372-0.372-0.975,0-1.347l8.73-8.73
		c0.372-0.372,0.975-0.372,1.347,0c0.372,0.372,0.372,0.975,0,1.347l-8.73,8.73C21.123,30.225,20.879,30.318,20.635,30.318z"/>
	<path style="fill:#5280DF;" d="M29.365,30.318c-0.244,0-0.487-0.093-0.673-0.279l-8.73-8.73c-0.372-0.372-0.372-0.975,0-1.347
		c0.372-0.372,0.975-0.372,1.347,0l8.73,8.73c0.372,0.372,0.372,0.975,0,1.347C29.853,30.225,29.609,30.318,29.365,30.318z"/>
</g>
<g id="Layer_1">
</g>
</svg>
