<svg id="Layer_1" data-name="Layer 1" xmlns="http://www.w3.org/2000/svg" xmlns:xlink="http://www.w3.org/1999/xlink" viewBox="0 0 612 612"><defs><style>.cls-1,.cls-2{stroke:#232323;stroke-miterlimit:10;}.cls-1{opacity:0.6;isolation:isolate;fill:url(#linear-gradient);}.cls-2{fill:url(#linear-gradient-2);}</style><linearGradient id="linear-gradient" x1="305.88" y1="106.04" x2="305.88" y2="506.5" gradientUnits="userSpaceOnUse"><stop offset="0" stop-color="#fff"/><stop offset="0.6" stop-color="#e2e2e2"/><stop offset="1" stop-color="#ccc"/></linearGradient><linearGradient id="linear-gradient-2" x1="305.88" y1="223.46" x2="305.88" y2="389.08" xlink:href="#linear-gradient"/></defs><g id="DeleteTemplateBox"><path class="cls-1" d="M491.14,106H120.63a14.84,14.84,0,0,0-14.83,14.83V265.48a14.85,14.85,0,0,0,14.83,14.84H191a14.84,14.84,0,0,0,0-29.67H135.45v-115H476.32v115H420.74a14.84,14.84,0,0,0,0,29.67h70.4A14.84,14.84,0,0,0,506,265.48V120.87A14.83,14.83,0,0,0,491.14,106Zm0,226.19h-70.4a14.83,14.83,0,0,0,0,29.66h55.58v115H135.45V361.89H191a14.83,14.83,0,0,0,0-29.66H120.63a14.84,14.84,0,0,0-14.83,14.83V491.67a14.84,14.84,0,0,0,14.83,14.83H491.14A14.83,14.83,0,0,0,506,491.67V347.06A14.83,14.83,0,0,0,491.14,332.23Z"/><path class="cls-2" d="M326.84,306.27l57.44-57.49a14.82,14.82,0,0,0-21-21L305.88,285.3l-57.44-57.49a14.82,14.82,0,0,0-21,21l57.45,57.49-57.45,57.49a14.82,14.82,0,1,0,21,21l57.44-57.49,57.44,57.49a14.82,14.82,0,0,0,21-21Z"/></g></svg>