<svg id="Layer_1" data-name="Layer 1" xmlns="http://www.w3.org/2000/svg" xmlns:xlink="http://www.w3.org/1999/xlink" viewBox="0 0 612 612"><defs><style>.cls-1,.cls-2{stroke:#232323;stroke-miterlimit:10;stroke-width:1.31px;}.cls-1{opacity:0.6;isolation:isolate;fill:url(#linear-gradient);}.cls-2{fill:url(#linear-gradient-2);}</style><linearGradient id="linear-gradient" x1="306" y1="32.02" x2="306" y2="579.98" gradientUnits="userSpaceOnUse"><stop offset="0" stop-color="#fafafa"/><stop offset="1" stop-color="#ebebeb"/></linearGradient><linearGradient id="linear-gradient-2" x1="306" y1="192.69" x2="306" y2="419.31" xlink:href="#linear-gradient"/></defs><g id="DeleteTemplateBox"><path class="cls-1" d="M559.49,32h-507A20.3,20.3,0,0,0,32.23,52.31V250.19a20.3,20.3,0,0,0,20.28,20.3h96.33a20.3,20.3,0,0,0,0-40.6h-76V72.61H539.21V229.89h-76a20.3,20.3,0,0,0,0,40.59h96.32a20.29,20.29,0,0,0,20.28-20.29V52.31A20.3,20.3,0,0,0,559.49,32Zm0,309.5H463.16a20.3,20.3,0,0,0,0,40.59h76.05V539.39H72.79V382.11h76.05a20.3,20.3,0,0,0,0-40.59H52.51a20.3,20.3,0,0,0-20.28,20.29V559.69A20.3,20.3,0,0,0,52.51,580h507a20.3,20.3,0,0,0,20.28-20.29V361.81A20.3,20.3,0,0,0,559.49,341.52Z"/><path class="cls-2" d="M334.68,306l78.6-78.66a20.29,20.29,0,0,0-28.68-28.7L306,277.31l-78.6-78.67a20.29,20.29,0,0,0-28.68,28.7L277.32,306l-78.6,78.66a20.29,20.29,0,1,0,28.68,28.7L306,334.7l78.6,78.66a20.29,20.29,0,0,0,28.68-28.7Z"/></g></svg>