<svg id="Layer_1" data-name="Layer 1" xmlns="http://www.w3.org/2000/svg" xmlns:xlink="http://www.w3.org/1999/xlink" viewBox="0 0 612 612"><defs><style>.cls-1,.cls-2{stroke:#232323;stroke-miterlimit:10;}.cls-1{opacity:0.6;isolation:isolate;fill:url(#linear-gradient);}.cls-2{fill:url(#linear-gradient-2);}</style><linearGradient id="linear-gradient" x1="252.72" y1="106.15" x2="252.72" y2="399.73" gradientUnits="userSpaceOnUse"><stop offset="0" stop-color="#fff"/><stop offset="0.6" stop-color="#e2e2e2"/><stop offset="1" stop-color="#ccc"/></linearGradient><linearGradient id="linear-gradient-2" x1="384.63" y1="263.6" x2="384.63" y2="506.25" xlink:href="#linear-gradient"/></defs><g id="DeleteStudyLayout"><path class="cls-1" d="M384.63,106.15H120.8A14.83,14.83,0,0,0,106,121v264a14.82,14.82,0,0,0,14.82,14.81H278.17a14.82,14.82,0,0,0,0-29.63H249.94V270.53a14.82,14.82,0,0,0-14.81-14.82H135.61V135.77H369.83V278.4a14.81,14.81,0,1,0,29.62,0V121A14.83,14.83,0,0,0,384.63,106.15ZM220.32,285.36v84.75H135.61V285.36Z"/><path class="cls-2" d="M384.63,263.6c-66.88,0-121.28,54.43-121.28,121.33A121.42,121.42,0,0,0,384.63,506.25c66.87,0,121.28-54.43,121.28-121.32S451.5,263.6,384.63,263.6Zm0,213a91.7,91.7,0,1,1,91.65-91.69A91.78,91.78,0,0,1,384.63,476.62Zm47.5-139.23a14.79,14.79,0,0,0-20.94,0L384.63,364l-26.56-26.57a14.82,14.82,0,0,0-20.95,21l26.56,26.57-26.56,26.57a14.81,14.81,0,1,0,20.95,20.95l26.56-26.57,26.56,26.57a14.81,14.81,0,0,0,20.94-20.95l-26.56-26.57,26.56-26.57A14.82,14.82,0,0,0,432.13,337.39Z"/></g></svg>