<svg id="Layer_1" data-name="Layer 1" xmlns="http://www.w3.org/2000/svg" xmlns:xlink="http://www.w3.org/1999/xlink" viewBox="0 0 612 612"><defs><style>.cls-1{stroke:#232323;stroke-miterlimit:10;fill:url(#linear-gradient);}</style><linearGradient id="linear-gradient" x1="305.93" y1="106.29" x2="305.93" y2="506.04" gradientUnits="userSpaceOnUse"><stop offset="0" stop-color="#fff"/><stop offset="0.6" stop-color="#e2e2e2"/><stop offset="1" stop-color="#ccc"/></linearGradient></defs><path id="Dentin" class="cls-1" d="M487.26,151.18C445.82,99.72,377.54,92.07,304,130.47c-24.61-13.2-53.73-23.26-84.54-22.33-34,1-63.66,15.32-88.1,42.4C91.47,194.72,106.93,240,121.9,283.68c8,23.43,16.3,47.66,16.3,72.15,0,103.76,43,150.21,85.7,150.21,48.62,0,56.25-50.28,63-94.66,3.69-24.29,9.27-61,21.84-61s18.34,36.73,22.14,61.05c6.9,44.34,14.74,94.6,63.31,94.6,42.64,0,85.7-46.44,85.7-150.21,0-25.57,6.8-51.91,13.39-77.4C505.29,231.75,516.68,187.69,487.26,151.18Zm-27.2,120.74c-7,27.06-14.2,55-14.2,83.9,0,83.19-30.21,120.6-51.68,120.6-18.85,0-24.8-38.24-29.6-69-6.33-40.63-13.51-86.65-55.85-86.65s-49.4,46.07-55.57,86.71c-4.66,30.71-10.48,68.92-29.26,68.92-21.45,0-51.68-37.41-51.68-120.6,0-28.8-9-55.13-17.73-80.59-14.2-41.5-25.41-74.28,3.61-106.41,18.24-20.19,38.68-30.36,62.55-31.09,36.29-1.26,81.35,20.85,120.86,58.74,6.33,6,17.06,6.51,24,1s7.48-14.85,1.17-20.9a311.12,311.12,0,0,0-32.3-26.94c36-15.83,88.47-26.79,125,18.53C480.19,194,470.85,230.09,460.06,271.92ZM219.39,161.18a65.76,65.76,0,0,0-37.78,31.7c-12.77,24.47-9.66,56.59,9.26,95.43,2.75,5.64,9,9,15.66,9a19.49,19.49,0,0,0,6.64-1.17c8.65-3.19,12.69-11.87,9-19.4-14.63-30-18.08-54.6-9.95-71a33.46,33.46,0,0,1,18-16.56c8.76-2.63,13.51-10.92,10.6-18.61S228.32,158.62,219.39,161.18Z"/></svg>