<?xml version="1.0" encoding="iso-8859-1"?>
<!-- Generator: Adobe Illustrator 21.1.0, SVG Export Plug-In . SVG Version: 6.00 Build 0)  -->
<svg version="1.1" xmlns="http://www.w3.org/2000/svg" xmlns:xlink="http://www.w3.org/1999/xlink" x="0px" y="0px"
	 viewBox="0 0 50 50" style="enable-background:new 0 0 50 50;" xml:space="preserve">
<g id="Dentin">
	<path style="fill:#5280DF;" d="M25,50C11.215,50,0,38.785,0,25C0,11.215,11.215,0,25,0c13.785,0,25,11.215,25,25
		C50,38.785,38.785,50,25,50z M25,1.905C12.265,1.905,1.905,12.265,1.905,25S12.265,48.095,25,48.095S48.095,37.735,48.095,25
		S37.735,1.905,25,1.905z"/>
	<path style="fill:#5280DF;" d="M29.942,37.857c-2.719,0-3.158-3.234-3.544-6.088c-0.212-1.564-0.532-3.928-1.239-3.928
		c-0.704,0-1.016,2.362-1.223,3.925c-0.378,2.855-0.805,6.091-3.527,6.091c-2.388,0-4.798-2.989-4.798-9.666
		c0-1.576-0.464-3.135-0.913-4.642c-0.838-2.814-1.704-5.725,0.53-8.568c1.369-1.743,3.028-2.66,4.933-2.728
		c1.725-0.06,3.355,0.588,4.733,1.437c4.118-2.471,7.941-1.979,10.26,1.333c1.646,2.349,1.009,5.185,0.335,8.187
		c-0.368,1.64-0.749,3.336-0.749,4.981C34.74,34.868,32.33,37.857,29.942,37.857z M25.158,25.937c2.37,0,2.772,2.963,3.127,5.577
		c0.268,1.978,0.602,4.439,1.657,4.439c1.201,0,2.893-2.408,2.893-7.761c0-1.856,0.405-3.657,0.796-5.399
		c0.605-2.692,1.127-5.017-0.036-6.677c-2.043-2.916-4.983-2.211-6.997-1.192c0.783,0.651,1.404,1.288,1.809,1.733
		c0.353,0.389,0.324,0.992-0.066,1.345c-0.39,0.354-0.991,0.324-1.345-0.065c-2.213-2.439-4.735-3.861-6.767-3.78
		c-1.336,0.047-2.482,0.702-3.502,2.001c-1.625,2.068-0.997,4.177-0.202,6.848c0.488,1.638,0.992,3.333,0.992,5.186
		c0,5.353,1.692,7.761,2.893,7.761c1.052,0,1.377-2.46,1.639-4.435C22.393,28.901,22.785,25.937,25.158,25.937z"/>
	<path style="fill:#5280DF;" d="M19.438,24.429c-0.371,0-0.724-0.218-0.878-0.581c-1.059-2.5-1.234-4.567-0.519-6.141
		c0.698-1.537,1.972-1.993,2.115-2.04c0.499-0.165,1.038,0.108,1.202,0.607c0.163,0.495-0.103,1.028-0.593,1.197
		c-0.048,0.019-0.665,0.268-1.009,1.066c-0.455,1.054-0.262,2.634,0.557,4.567c0.205,0.484-0.021,1.043-0.505,1.249
		C19.688,24.404,19.562,24.429,19.438,24.429z"/>
</g>
<g id="Layer_1">
</g>
</svg>
