<svg id="Layer_1" data-name="Layer 1" xmlns="http://www.w3.org/2000/svg" xmlns:xlink="http://www.w3.org/1999/xlink" viewBox="0 0 612 612"><defs><style>.cls-1{stroke:#232323;stroke-miterlimit:10;fill:url(#linear-gradient);}</style><linearGradient id="linear-gradient" x1="305.99" y1="105.99" x2="305.99" y2="506.01" gradientUnits="userSpaceOnUse"><stop offset="0" stop-color="#fff"/><stop offset="0.6" stop-color="#e2e2e2"/><stop offset="1" stop-color="#ccc"/></linearGradient></defs><path id="DrawTemplateBox" class="cls-1" d="M201.35,425.45H270a14.8,14.8,0,0,0,10.47-4.34L492.4,209.22a46.46,46.46,0,0,0,0-65.69l-24-24h0a46.53,46.53,0,0,0-65.7,0L190.88,331.47A14.79,14.79,0,0,0,186.53,342v68.68A14.82,14.82,0,0,0,201.35,425.45ZM423.71,140.54a16.81,16.81,0,0,1,23.78,0l24,24a16.8,16.8,0,0,1,0,23.78L452.82,206.9l-47.73-47.74Zm-5.23,73.91,13.39,13.4-168,168H237.12ZM216.17,348.08l168-168,13.39,13.39L216.17,374.86Zm275,128.3H120.79a14.82,14.82,0,0,0,0,29.63h370.4a14.82,14.82,0,1,0,0-29.63Z"/></svg>