<?xml version="1.0" encoding="iso-8859-1"?>
<!-- Generator: Adobe Illustrator 21.1.0, SVG Export Plug-In . SVG Version: 6.00 Build 0)  -->
<svg version="1.1" xmlns="http://www.w3.org/2000/svg" xmlns:xlink="http://www.w3.org/1999/xlink" x="0px" y="0px"
	 viewBox="0 0 50 50" style="enable-background:new 0 0 50 50;" xml:space="preserve">
<g id="DrawTemplateBox">
	<path style="fill:#5280DF;" d="M25,50C11.215,50,0,38.785,0,25C0,11.215,11.215,0,25,0c13.785,0,25,11.215,25,25
		C50,38.785,38.785,50,25,50z M25,1.905C12.265,1.905,1.905,12.265,1.905,25S12.265,48.095,25,48.095S48.095,37.735,48.095,25
		S37.735,1.905,25,1.905z"/>
	<path style="fill:#5280DF;" d="M22.689,32.679h-4.415c-0.526,0-0.952-0.426-0.952-0.952v-4.415c0-0.253,0.1-0.495,0.279-0.673
		l13.62-13.62c1.164-1.164,3.058-1.164,4.222,0v0l1.54,1.54c0.564,0.564,0.875,1.314,0.875,2.111c0,0.798-0.311,1.547-0.875,2.111
		L23.363,32.4C23.184,32.578,22.942,32.679,22.689,32.679z M19.226,30.774h3.068l13.341-13.341c0.204-0.204,0.317-0.476,0.317-0.765
		c0-0.289-0.113-0.56-0.317-0.764l-1.54-1.54c-0.421-0.422-1.108-0.422-1.529,0L19.226,27.705V30.774z"/>
	<path style="fill:#5280DF;" d="M34.439,20.929c-0.244,0-0.487-0.093-0.673-0.279l-4.415-4.415c-0.372-0.372-0.372-0.975,0-1.347
		c0.372-0.372,0.975-0.372,1.347,0l4.415,4.415c0.372,0.372,0.372,0.975,0,1.347C34.926,20.836,34.682,20.929,34.439,20.929z"/>
	<path style="fill:#5280DF;" d="M36.905,37.857h-23.81c-0.526,0-0.952-0.426-0.952-0.952s0.426-0.952,0.952-0.952h23.81
		c0.526,0,0.952,0.426,0.952,0.952S37.431,37.857,36.905,37.857z"/>
	<path style="fill:#5280DF;" d="M18.571,32.381c-0.244,0-0.487-0.093-0.673-0.279c-0.372-0.372-0.372-0.975,0-1.347l13.659-13.66
		c0.372-0.372,0.975-0.372,1.347,0c0.372,0.372,0.372,0.975,0,1.347l-13.659,13.66C19.059,32.288,18.815,32.381,18.571,32.381z"/>
</g>
<g id="Layer_1">
</g>
</svg>
