<svg id="Layer_1" data-name="Layer 1" xmlns="http://www.w3.org/2000/svg" xmlns:xlink="http://www.w3.org/1999/xlink" viewBox="0 0 612 612"><defs><style>.cls-1{stroke:#232323;stroke-miterlimit:10;fill:url(#linear-gradient);}</style><linearGradient id="linear-gradient" x1="306" y1="106" x2="306" y2="506" gradientUnits="userSpaceOnUse"><stop offset="0" stop-color="#fff"/><stop offset="0.6" stop-color="#e2e2e2"/><stop offset="1" stop-color="#ccc"/></linearGradient></defs><path id="EdgeEnhancment" class="cls-1" d="M306,106c-52.71,0-103.88,20.23-141.09,59.15-6.2,6.22-6.2,15.56,0,20.23s15.51,6.22,20.16,0c32.56-32.69,74.42-49.81,119.38-49.81,93,0,170.54,76.27,170.54,171.21,0,15.56-1.55,31.13-6.2,46.69-1.55,7.79,1.55,15.57,10.85,18.68h4.65a14.9,14.9,0,0,0,14-10.89c4.65-18.68,7.75-35.8,7.75-54.48C506,196.27,416.08,106,306,106ZM155.61,386.16c-3.1-7.79-12.4-9.34-20.15-6.23s-9.3,12.45-6.2,20.23c10.85,21.79,26.35,40.47,43.41,56,3.1,3.11,6.2,3.11,9.3,3.11a14,14,0,0,0,10.85-4.67,13.33,13.33,0,0,0-1.55-20.23A215.49,215.49,0,0,1,155.61,386.16ZM137,320.79v-14c0-15.57,1.55-31.13,6.2-46.69,1.55-7.79-1.55-15.57-10.85-18.68-7.76-1.56-15.51,1.55-18.61,10.89C109.1,271,106,288.1,106,306.78v15.56c0,7.78,7.75,14,14,14h1.55A15.57,15.57,0,0,0,137,320.79ZM425.38,426.62c-13.95,14-31,26.46-49.61,34.24C368,464,364.91,473.32,368,481.1c3.1,4.67,7.75,9.34,14,9.34,1.55,0,4.65,0,6.2-1.56,21.71-9.34,40.31-23.35,57.36-40.47,6.2-6.23,6.2-15.56,0-20.23C440.88,422,431.58,422,425.38,426.62ZM310.65,476.43a203.7,203.7,0,0,1-60.46-9.34c-7.76-3.11-15.51,1.56-18.61,9.34s1.55,15.56,9.3,18.68C261,502.89,282.74,506,306,506h6.2c7.75,0,13.95-7.78,13.95-15.56S320,476.43,310.65,476.43Z"/></svg>