<?xml version="1.0" encoding="iso-8859-1"?>
<!-- Generator: Adobe Illustrator 21.1.0, SVG Export Plug-In . SVG Version: 6.00 Build 0)  -->
<svg version="1.1" id="Layer_1" xmlns="http://www.w3.org/2000/svg" xmlns:xlink="http://www.w3.org/1999/xlink" x="0px" y="0px"
	 viewBox="0 0 50 50" style="enable-background:new 0 0 50 50;" xml:space="preserve">
<path style="fill:#5280DF;" d="M25,12.143c-3.434,0-6.663,1.337-9.091,3.766c-0.372,0.372-0.372,0.975,0,1.347
	c0.372,0.372,0.975,0.372,1.347,0c2.069-2.068,4.819-3.208,7.745-3.208c6.039,0,10.952,4.913,10.952,10.952
	c0,1.018-0.143,2.033-0.424,3.017c-0.145,0.505,0.148,1.033,0.654,1.177c0.087,0.025,0.175,0.037,0.262,0.037
	c0.414,0,0.796-0.272,0.915-0.691c0.33-1.154,0.498-2.345,0.498-3.54C37.857,17.911,32.089,12.143,25,12.143z M15.287,30.066
	c-0.244-0.466-0.819-0.645-1.285-0.403c-0.466,0.244-0.647,0.819-0.403,1.285c0.718,1.373,1.668,2.595,2.826,3.632
	c0.182,0.163,0.409,0.243,0.635,0.243c0.261,0,0.522-0.107,0.71-0.317c0.351-0.392,0.318-0.994-0.074-1.345
	C16.709,32.278,15.898,31.236,15.287,30.066z M14.083,25.887c-0.023-0.294-0.035-0.592-0.035-0.887c0-1.017,0.143-2.032,0.424-3.017
	c0.145-0.506-0.148-1.033-0.654-1.177c-0.506-0.146-1.033,0.148-1.177,0.654c-0.33,1.155-0.498,2.346-0.498,3.54
	c0,0.345,0.014,0.694,0.041,1.038c0.04,0.499,0.457,0.877,0.948,0.877c0.025,0,0.051-0.001,0.077-0.003
	C13.734,26.87,14.125,26.411,14.083,25.887z M32.745,32.745c-0.927,0.927-1.998,1.672-3.184,2.216
	c-0.478,0.219-0.688,0.785-0.469,1.263c0.16,0.349,0.505,0.555,0.866,0.555c0.133,0,0.268-0.028,0.397-0.087
	c1.392-0.639,2.649-1.514,3.736-2.601c0.372-0.372,0.372-0.975,0-1.347C33.719,32.373,33.117,32.373,32.745,32.745z M25.326,35.948
	c-1.319,0.033-2.637-0.159-3.879-0.584c-0.498-0.173-1.039,0.094-1.21,0.592c-0.17,0.498,0.095,1.039,0.592,1.21
	c1.338,0.458,2.741,0.692,4.17,0.692c0.127,0,0.253-0.002,0.379-0.006c0.526-0.014,0.94-0.453,0.926-0.978
	C26.29,36.348,25.863,35.928,25.326,35.948z"/>
<path style="fill:#5280DF;" d="M25,50C11.215,50,0,38.785,0,25C0,11.215,11.215,0,25,0c13.785,0,25,11.215,25,25
	C50,38.785,38.785,50,25,50z M25,1.905C12.265,1.905,1.905,12.265,1.905,25S12.265,48.095,25,48.095S48.095,37.735,48.095,25
	S37.735,1.905,25,1.905z"/>
</svg>
