<svg id="Layer_1" data-name="Layer 1" xmlns="http://www.w3.org/2000/svg" xmlns:xlink="http://www.w3.org/1999/xlink" viewBox="0 0 612 612"><defs><style>.cls-1,.cls-2{stroke:#232323;stroke-miterlimit:10;}.cls-1{opacity:0.6;isolation:isolate;fill:url(#linear-gradient);}.cls-2{fill:url(#linear-gradient-2);}</style><linearGradient id="linear-gradient" x1="306.05" y1="106.21" x2="306.05" y2="506.5" gradientUnits="userSpaceOnUse"><stop offset="0" stop-color="#fff"/><stop offset="0.6" stop-color="#e2e2e2"/><stop offset="1" stop-color="#ccc"/></linearGradient><linearGradient id="linear-gradient-2" x1="306.05" y1="200.08" x2="306.05" y2="412.6" xlink:href="#linear-gradient"/></defs><g id="Ellipse"><path class="cls-1" d="M491.06,421.26a14.82,14.82,0,0,0-14.8,14.82v40.77h-40.7a14.83,14.83,0,0,0,0,29.65h55.5a14.82,14.82,0,0,0,14.81-14.82v-55.6A14.82,14.82,0,0,0,491.06,421.26ZM349.21,476.85H262.88a14.83,14.83,0,0,0,0,29.65h86.33a14.83,14.83,0,0,0,0-29.65Zm-172.67,0h-40.7V436.08a14.81,14.81,0,1,0-29.61,0v55.6A14.82,14.82,0,0,0,121,506.5h55.5a14.83,14.83,0,0,0,0-29.65ZM121,364.41a14.82,14.82,0,0,0,14.8-14.82V263.11a14.8,14.8,0,1,0-29.6,0v86.48A14.8,14.8,0,0,0,121,364.41Zm55.5-258.2H121A14.82,14.82,0,0,0,106.23,121v55.6a14.81,14.81,0,1,0,29.61,0V135.86h40.7a14.83,14.83,0,0,0,0-29.65Zm172.67,0H262.88a14.83,14.83,0,0,0,0,29.65h86.33a14.83,14.83,0,0,0,0-29.65Zm141.85,0h-55.5a14.83,14.83,0,0,0,0,29.65h40.7v40.77a14.81,14.81,0,1,0,29.61,0V121A14.82,14.82,0,0,0,491.06,106.21Zm0,142.07a14.82,14.82,0,0,0-14.8,14.83v86.48a14.81,14.81,0,1,0,29.61,0V263.11A14.83,14.83,0,0,0,491.06,248.28Z"/><path class="cls-2" d="M306.05,412.6c-70.73,0-128.28-47.67-128.28-106.26s57.55-106.26,128.28-106.26,128.28,47.67,128.28,106.26S376.78,412.6,306.05,412.6Zm0-182.85c-54.41,0-98.68,34.36-98.68,76.6S251.64,383,306.05,383s98.68-34.37,98.68-76.61S360.46,229.75,306.05,229.75Z"/></g></svg>