<svg id="Layer_1" data-name="Layer 1" xmlns="http://www.w3.org/2000/svg" xmlns:xlink="http://www.w3.org/1999/xlink" viewBox="0 0 612 612"><defs><style>.cls-1,.cls-2{stroke:#232323;stroke-miterlimit:10;stroke-width:1.31px;}.cls-1{fill:url(#linear-gradient);}.cls-2{fill:url(#linear-gradient-2);}</style><linearGradient id="linear-gradient" x1="306" y1="132.6" x2="306" y2="479.4" gradientUnits="userSpaceOnUse"><stop offset="0" stop-color="#fafafa"/><stop offset="1" stop-color="#ebebeb"/></linearGradient><linearGradient id="linear-gradient-2" x1="306" y1="31.32" x2="306" y2="580.68" xlink:href="#linear-gradient"/></defs><path class="cls-1" d="M306,479.4C190.57,479.4,96.66,401.62,96.66,306S190.57,132.6,306,132.6,515.34,210.38,515.34,306,421.43,479.4,306,479.4ZM306,181c-88.79,0-161,56.08-161,125s72.25,125,161,125S467,375,467,306,394.79,181,306,181Z"/><path class="cls-2" d="M509.36,580.68H102.64a71.27,71.27,0,0,1-71.18-71.21V102.53a71.28,71.28,0,0,1,71.18-71.21H509.36a71.28,71.28,0,0,1,71.18,71.21V509.47A71.28,71.28,0,0,1,509.36,580.68ZM102.48,59.16c-16.82,0-43.11,25-43.11,41.79V505.18c0,31.89,21.84,53.47,49.67,53.47H511.46c16.82,0,44.29-29.15,42.84-47l.34-413.7c0-16.82-23.34-38.76-40.16-38.76Z"/></svg>