<?xml version="1.0" encoding="iso-8859-1"?>
<!-- Generator: Adobe Illustrator 21.1.0, SVG Export Plug-In . SVG Version: 6.00 Build 0)  -->
<svg version="1.1" xmlns="http://www.w3.org/2000/svg" xmlns:xlink="http://www.w3.org/1999/xlink" x="0px" y="0px"
	 viewBox="0 0 50 50" style="enable-background:new 0 0 50 50;" xml:space="preserve">
<g id="Ellipse">
	<path style="fill:#5280DF;" d="M25,50C11.215,50,0,38.785,0,25C0,11.215,11.215,0,25,0c13.785,0,25,11.215,25,25
		C50,38.785,38.785,50,25,50z M25,1.905C12.265,1.905,1.905,12.265,1.905,25S12.265,48.095,25,48.095S48.095,37.735,48.095,25
		S37.735,1.905,25,1.905z"/>
	<path style="fill:#5280DF;" d="M36.905,37.857h-3.571c-0.526,0-0.952-0.426-0.952-0.952s0.426-0.952,0.952-0.952h2.619v-2.619
		c0-0.526,0.426-0.952,0.952-0.952s0.952,0.426,0.952,0.952v3.571C37.857,37.431,37.431,37.857,36.905,37.857z"/>
	<path style="fill:#5280DF;" d="M27.778,37.857h-5.555c-0.526,0-0.952-0.426-0.952-0.952s0.426-0.952,0.952-0.952h5.555
		c0.526,0,0.952,0.426,0.952,0.952S28.304,37.857,27.778,37.857z"/>
	<path style="fill:#5280DF;" d="M16.667,37.857h-3.571c-0.526,0-0.952-0.426-0.952-0.952v-3.571c0-0.526,0.426-0.952,0.952-0.952
		c0.526,0,0.952,0.426,0.952,0.952v2.619h2.619c0.526,0,0.952,0.426,0.952,0.952S17.193,37.857,16.667,37.857z"/>
	<path style="fill:#5280DF;" d="M13.095,28.73c-0.526,0-0.952-0.426-0.952-0.952v-5.555c0-0.526,0.426-0.952,0.952-0.952
		c0.526,0,0.952,0.426,0.952,0.952v5.555C14.048,28.304,13.621,28.73,13.095,28.73z"/>
	<path style="fill:#5280DF;" d="M13.095,17.619c-0.526,0-0.952-0.426-0.952-0.952v-3.571c0-0.526,0.426-0.952,0.952-0.952h3.571
		c0.526,0,0.952,0.426,0.952,0.952c0,0.526-0.426,0.952-0.952,0.952h-2.619v2.619C14.048,17.193,13.621,17.619,13.095,17.619z"/>
	<path style="fill:#5280DF;" d="M27.778,14.048h-5.555c-0.526,0-0.952-0.426-0.952-0.952c0-0.526,0.426-0.952,0.952-0.952h5.555
		c0.526,0,0.952,0.426,0.952,0.952C28.73,13.621,28.304,14.048,27.778,14.048z"/>
	<path style="fill:#5280DF;" d="M36.905,17.619c-0.526,0-0.952-0.426-0.952-0.952v-2.619h-2.619c-0.526,0-0.952-0.426-0.952-0.952
		c0-0.526,0.426-0.952,0.952-0.952h3.571c0.526,0,0.952,0.426,0.952,0.952v3.571C37.857,17.193,37.431,17.619,36.905,17.619z"/>
	<path style="fill:#5280DF;" d="M36.905,28.73c-0.526,0-0.952-0.426-0.952-0.952v-5.555c0-0.526,0.426-0.952,0.952-0.952
		s0.952,0.426,0.952,0.952v5.555C37.857,28.304,37.431,28.73,36.905,28.73z"/>
	<path style="fill:#5280DF;" d="M25,31.825c-4.551,0-8.254-3.062-8.254-6.825s3.703-6.825,8.254-6.825s8.254,3.062,8.254,6.825
		S29.551,31.825,25,31.825z M25,20.079c-3.501,0-6.349,2.207-6.349,4.921c0,2.713,2.848,4.92,6.349,4.92
		c3.501,0,6.349-2.207,6.349-4.92C31.349,22.287,28.501,20.079,25,20.079z"/>
</g>
<g id="Layer_1">
</g>
</svg>
