<svg id="Layer_1" data-name="Layer 1" xmlns="http://www.w3.org/2000/svg" xmlns:xlink="http://www.w3.org/1999/xlink" viewBox="0 0 612 612"><defs><style>.cls-1,.cls-2{stroke:#232323;stroke-miterlimit:10;stroke-width:1.31px;}.cls-1{fill:url(#linear-gradient);}.cls-2{fill:url(#linear-gradient-2);}</style><linearGradient id="linear-gradient" x1="306" y1="159.46" x2="306" y2="453.02" gradientUnits="userSpaceOnUse"><stop offset="0" stop-color="#fafafa"/><stop offset="1" stop-color="#ebebeb"/></linearGradient><linearGradient id="linear-gradient-2" x1="306" y1="31.8" x2="306" y2="580.68" xlink:href="#linear-gradient"/></defs><path class="cls-1" d="M438.35,187.29c-31.47-39.06-76.74-29.62-107.74-16a267.4,267.4,0,0,1,27.85,23.22c5.44,5.22,5,13.28-1,18a16.27,16.27,0,0,1-20.71-.88C302.66,179,263.81,160,232.53,161c-20.57.64-38.2,9.4-53.92,26.8-25,27.7-15.36,56-3.11,91.73,7.51,21.95,15.28,44.65,15.28,69.48,0,71.71,26.06,104,44.55,104,16.19,0,21.21-32.95,25.22-59.42,5.33-35,11.37-74.75,47.92-74.75s42.68,39.68,48.14,74.7c4.13,26.5,9.27,59.47,25.51,59.47,18.51,0,44.55-32.26,44.55-104,0-24.88,6.23-49,12.25-72.33C448.22,240.66,456.27,209.52,438.35,187.29ZM240.82,205.44a28.81,28.81,0,0,0-15.53,14.27c-7,14.13-4,35.3,8.57,61.19,3.16,6.49-.32,14-7.78,16.73a16.79,16.79,0,0,1-5.72,1c-5.7,0-11.13-2.93-13.51-7.78-16.31-33.49-19-61.18-8-82.28a56.59,56.59,0,0,1,32.57-27.32c7.7-2.21,16,1.44,18.5,8.14S248.37,203.17,240.82,205.44Z"/><path class="cls-2" d="M509.18,580.68H102.82A71.22,71.22,0,0,1,31.7,509.53V103A71.22,71.22,0,0,1,102.82,31.8H509.18A71.22,71.22,0,0,1,580.3,103V509.53A71.23,71.23,0,0,1,509.18,580.68ZM102.65,59.62c-16.8,0-43.06,24.93-43.06,41.75V505.24c0,31.87,21.82,53.43,49.63,53.43H511.28c16.8,0,44.26-29.13,42.81-47l.34-413.33c0-16.81-23.33-38.73-40.14-38.73Z"/></svg>