<svg id="Layer_1" data-name="Layer 1" xmlns="http://www.w3.org/2000/svg" xmlns:xlink="http://www.w3.org/1999/xlink" viewBox="0 0 612 612"><defs><style>.cls-1{stroke:#232323;stroke-miterlimit:10;fill:url(#linear-gradient);}</style><linearGradient id="linear-gradient" x1="306.04" y1="106.05" x2="306.04" y2="505.87" gradientUnits="userSpaceOnUse"><stop offset="0" stop-color="#fff"/><stop offset="0.6" stop-color="#e2e2e2"/><stop offset="1" stop-color="#ccc"/></linearGradient></defs><path id="Endo" class="cls-1" d="M305.16,203.13c-11.77-6.66-25.51-11.49-40-11-17.83.64-33.93,9.45-46.54,25.5-21,26.64-12.8,54-5.61,78.08,3.79,12.75,7.37,24.8,7.37,37,0,64.93,25.38,88,47.11,88,28.84,0,33.2-33,36.38-57.07.82-6.14,2-15,3.54-21.29,1.59,6.28,2.79,15.18,3.63,21.34,3.26,24.06,7.73,57,36.53,57,21.73,0,47.11-23,47.11-88,0-13.06,3.11-26.92,6.13-40.32,5.73-25.54,11.67-52-3.88-74.14C376.12,188.62,341.35,183.07,305.16,203.13Zm66.73,82.79c-3.38,15-6.85,30.48-6.85,46.83,0,43.77-13.78,58.35-16.9,58.64-3.88-3.19-6.4-21.71-7.75-31.66-3.18-23.49-7.14-52.72-33-52.72s-29.77,29.26-32.88,52.76c-1.28,9.64-3.62,27.35-7.29,31.3-4.06-.66-17.22-15.59-17.22-58.32,0-16.56-4.57-31.93-8.62-45.48-7-23.47-10.41-37.43.52-51.34,7.26-9.24,15.21-13.87,24.31-14.2,17.75-.77,38.24,14.84,51.55,29.51a14.81,14.81,0,0,0,22-19.88c-2-2.21-4.63-5-7.75-8,14.11-4.81,29.43-4.17,40.71,11.9C380.68,246.74,376.61,264.91,371.89,285.92Zm82.28-179.87H157.9a51.89,51.89,0,0,0-51.84,51.83V454a51.89,51.89,0,0,0,51.84,51.83H454.17A51.9,51.9,0,0,0,506,454V157.88A51.9,51.9,0,0,0,454.17,106.05ZM476.4,454a22.24,22.24,0,0,1-22.23,22.21H157.9A22.24,22.24,0,0,1,135.68,454V157.88a22.24,22.24,0,0,1,22.22-22.21H454.17a22.24,22.24,0,0,1,22.23,22.21Z"/></svg>