<svg id="Layer_1" data-name="Layer 1" xmlns="http://www.w3.org/2000/svg" xmlns:xlink="http://www.w3.org/1999/xlink" viewBox="0 0 612 612"><defs><style>.cls-1,.cls-2{stroke:#232323;stroke-miterlimit:10;stroke-width:1.31px;}.cls-1{fill:url(#linear-gradient);}.cls-2{fill:url(#linear-gradient-2);}</style><linearGradient id="linear-gradient" x1="297.59" y1="64.24" x2="297.59" y2="580.06" gradientUnits="userSpaceOnUse"><stop offset="0" stop-color="#fafafa"/><stop offset="1" stop-color="#ebebeb"/></linearGradient><linearGradient id="linear-gradient-2" x1="470.56" y1="31.94" x2="470.56" y2="239.42" xlink:href="#linear-gradient"/></defs><path class="cls-1" d="M555.63,513.19V299.3a19.12,19.12,0,0,0-38.23,0V513.19a28.7,28.7,0,0,1-28.67,28.66H106.44a28.71,28.71,0,0,1-28.67-28.66V131.11a28.71,28.71,0,0,1,28.67-28.66H307.15a19.11,19.11,0,1,0,0-38.21H106.44a67,67,0,0,0-66.9,66.87V513.19a67,67,0,0,0,66.9,66.87H488.73A67,67,0,0,0,555.63,513.19Z"/><path class="cls-2" d="M568.15,40.41a19.31,19.31,0,0,0-2.57-3A20.27,20.27,0,0,0,562.46,35a20.71,20.71,0,0,0-2.36-1.17c-.35-.17-.71-.4-1.1-.55a19.86,19.86,0,0,0-2.81-.78c-.31-.07-.61-.19-.92-.24a18.22,18.22,0,0,0-3.89-.29h-161a20,20,0,0,0-19.46,20.43A19.75,19.75,0,0,0,391.2,71.72l113,1.3-130,132.81a19.84,19.84,0,1,0,28.73,27.38L533,100.4l-.27,114.2A19.75,19.75,0,0,0,553,234a20,20,0,0,0,19.46-20.43l-.74-162.21a21,21,0,0,0-.48-3.87c-.06-.31-.2-.6-.28-.91a23.8,23.8,0,0,0-.92-2.78c-.17-.37-.41-.69-.61-1.06A18.7,18.7,0,0,0,568.15,40.41Z"/></svg>