<svg id="Layer_1" data-name="Layer 1" xmlns="http://www.w3.org/2000/svg" xmlns:xlink="http://www.w3.org/1999/xlink" viewBox="0 0 612 612"><defs><style>.cls-1{stroke:#232323;stroke-miterlimit:10;fill:url(#linear-gradient);}</style><linearGradient id="linear-gradient" x1="306.03" y1="106.08" x2="306.03" y2="521.45" gradientUnits="userSpaceOnUse"><stop offset="0" stop-color="#fff"/><stop offset="0.6" stop-color="#e2e2e2"/><stop offset="1" stop-color="#ccc"/></linearGradient></defs><path id="ExportTemplates" class="cls-1" d="M454.21,106.08H157.85A51.91,51.91,0,0,0,106,157.92V454.13A51.9,51.9,0,0,0,157.85,506H313.44a14.81,14.81,0,1,0,0-29.62H157.85a22.25,22.25,0,0,1-22.23-22.22V157.92a22.24,22.24,0,0,1,22.23-22.21H454.21a22.25,22.25,0,0,1,22.23,22.21V323.74a14.82,14.82,0,0,0,29.63,0V157.92A51.91,51.91,0,0,0,454.21,106.08Zm51,328c-.11-.3-.15-.61-.28-.9a16,16,0,0,0-1.06-2c-.13-.21-.22-.44-.36-.64a16.05,16.05,0,0,0-1.92-2.34l-67.38-67a15.5,15.5,0,0,0-21.87,0,15.3,15.3,0,0,0,0,21.75l41,40.77H305a15.39,15.39,0,1,0,0,30.77H453.27l-41,40.77a15.32,15.32,0,0,0,0,21.75,15.52,15.52,0,0,0,21.88,0l67.38-67a15,15,0,0,0,1.92-2.34c.14-.2.23-.43.36-.64a16.61,16.61,0,0,0,1.06-2,8.57,8.57,0,0,0,.28-.91,16.87,16.87,0,0,0,.6-1.95,15.62,15.62,0,0,0,.31-3.05,14.82,14.82,0,0,0-.31-3A16,16,0,0,0,505.16,434Z"/></svg>