<svg id="Layer_1" data-name="Layer 1" xmlns="http://www.w3.org/2000/svg" xmlns:xlink="http://www.w3.org/1999/xlink" viewBox="0 0 612 612"><defs><style>.cls-1{stroke:#232323;stroke-miterlimit:10;fill:url(#linear-gradient);}</style><linearGradient id="linear-gradient" x1="295.83" y1="110.58" x2="295.83" y2="510.69" gradientUnits="userSpaceOnUse"><stop offset="0" stop-color="#fff"/><stop offset="0.6" stop-color="#e2e2e2"/><stop offset="1" stop-color="#ccc"/></linearGradient></defs><path id="Export" class="cls-1" d="M359.31,411.39,310.64,460.1V325.46a14.81,14.81,0,1,0-29.62,0V460.1l-48.67-48.71a14.81,14.81,0,0,0-20.93,21l73.93,74a13.73,13.73,0,0,0,2.25,1.83,6.21,6.21,0,0,0,.62.35,14.17,14.17,0,0,0,1.93,1c.28.11.59.18.87.26a13.9,13.9,0,0,0,7.74.58,11.72,11.72,0,0,0,1.88-.58c.3-.1.6-.14.88-.26a14.66,14.66,0,0,0,1.92-1,6.21,6.21,0,0,0,.62-.35,15.33,15.33,0,0,0,2.26-1.83l73.93-74a14.81,14.81,0,0,0-20.94-21Zm84.6-300.81H147.76a51.91,51.91,0,0,0-51.83,51.87V458.83a51.9,51.9,0,0,0,51.83,51.86h39.8a14.82,14.82,0,0,0,0-29.64h-39.8a22.24,22.24,0,0,1-22.21-22.22V267.41a22.24,22.24,0,0,1,22.21-22.23H443.91a22.24,22.24,0,0,1,22.2,22.23V458.83a22.25,22.25,0,0,1-22.2,22.23H404.1a14.82,14.82,0,0,0,0,29.63h39.81a51.9,51.9,0,0,0,51.82-51.86V162.45A51.91,51.91,0,0,0,443.91,110.58Zm22.21,110.05a51.4,51.4,0,0,0-22.21-5.09H147.76a51.49,51.49,0,0,0-22.21,5.07V162.43a22.25,22.25,0,0,1,22.21-22.23H443.91a22.25,22.25,0,0,1,22.21,22.23v58.2Zm-136.63-57a14.24,14.24,0,1,0,14.23,14.24A14.23,14.23,0,0,0,329.49,163.65Zm49.63,0a14.24,14.24,0,1,0,14.23,14.24A14.24,14.24,0,0,0,379.12,163.65Zm49.64,0A14.24,14.24,0,1,0,443,177.89,14.24,14.24,0,0,0,428.76,163.65Z"/></svg>