<?xml version="1.0" encoding="iso-8859-1"?>
<!-- Generator: Adobe Illustrator 21.1.0, SVG Export Plug-In . SVG Version: 6.00 Build 0)  -->
<svg version="1.1" xmlns="http://www.w3.org/2000/svg" xmlns:xlink="http://www.w3.org/1999/xlink" x="0px" y="0px"
	 viewBox="0 0 50 50" style="enable-background:new 0 0 50 50;" xml:space="preserve">
<g id="ExportTemplates">
	<path style="fill:#5280DF;" d="M25,50C11.215,50,0,38.785,0,25C0,11.215,11.215,0,25,0c13.785,0,25,11.215,25,25
		C50,38.785,38.785,50,25,50z M25,1.905C12.265,1.905,1.905,12.265,1.905,25S12.265,48.095,25,48.095S48.095,37.735,48.095,25
		S37.735,1.905,25,1.905z"/>
	<path style="fill:#5280DF;" d="M25.476,37.857h-10c-1.838,0-3.333-1.496-3.333-3.333V15.476c0-1.838,1.495-3.333,3.333-3.333
		h19.048c1.838,0,3.333,1.495,3.333,3.333v10.663c0,0.526-0.426,0.952-0.952,0.952s-0.952-0.426-0.952-0.952V15.476
		c0-0.788-0.641-1.429-1.429-1.429H15.476c-0.788,0-1.429,0.641-1.429,1.429v19.048c0,0.788,0.641,1.429,1.429,1.429h10
		c0.526,0,0.952,0.426,0.952,0.952S26.002,37.857,25.476,37.857z"/>
	<path style="fill:#5280DF;" d="M32.755,37.857c-0.244,0-0.487-0.093-0.673-0.279c-0.372-0.372-0.372-0.975,0-1.347l3.477-3.477
		l-3.477-3.476c-0.372-0.372-0.372-0.975,0-1.347s0.975-0.372,1.347,0l4.15,4.149c0.179,0.179,0.279,0.421,0.279,0.673
		s-0.1,0.495-0.279,0.673l-4.15,4.15C33.242,37.764,32.999,37.857,32.755,37.857z"/>
	<path style="fill:#5280DF;" d="M36.905,33.707H25.476c-0.526,0-0.952-0.426-0.952-0.952s0.426-0.952,0.952-0.952h11.429
		c0.526,0,0.952,0.426,0.952,0.952S37.431,33.707,36.905,33.707z"/>
</g>
<g id="Layer_1">
</g>
</svg>
