<?xml version="1.0" encoding="iso-8859-1"?>
<!-- Generator: Adobe Illustrator 21.1.0, SVG Export Plug-In . SVG Version: 6.00 Build 0)  -->
<svg version="1.1" xmlns="http://www.w3.org/2000/svg" xmlns:xlink="http://www.w3.org/1999/xlink" x="0px" y="0px"
	 viewBox="0 0 50 50" style="enable-background:new 0 0 50 50;" xml:space="preserve">
<g id="Export">
	<path style="fill:#5280DF;" d="M25,50C11.215,50,0,38.785,0,25C0,11.215,11.215,0,25,0c13.785,0,25,11.215,25,25
		C50,38.785,38.785,50,25,50z M25,1.905C12.265,1.905,1.905,12.265,1.905,25S12.265,48.095,25,48.095S48.095,37.735,48.095,25
		S37.735,1.905,25,1.905z"/>
	<path style="fill:#5280DF;" d="M25,37.857L25,37.857c-0.253,0-0.495-0.1-0.673-0.279l-4.756-4.756
		c-0.372-0.372-0.372-0.975,0-1.347c0.372-0.372,0.975-0.372,1.347,0L25,35.558l4.083-4.083c0.372-0.372,0.975-0.372,1.347,0
		c0.372,0.372,0.372,0.975,0,1.347l-4.756,4.756C25.495,37.757,25.253,37.857,25,37.857z"/>
	<path style="fill:#5280DF;" d="M25,37.857c-0.526,0-0.952-0.426-0.952-0.952V25.952C24.048,25.426,24.474,25,25,25
		s0.952,0.426,0.952,0.952v10.952C25.952,37.431,25.526,37.857,25,37.857z"/>
	<path style="fill:#5280DF;" d="M34.524,37.857h-2.56c-0.526,0-0.952-0.426-0.952-0.952s0.426-0.952,0.952-0.952h2.56
		c0.788,0,1.429-0.641,1.429-1.429V15.476c0-0.788-0.641-1.429-1.429-1.429H15.476c-0.788,0-1.429,0.641-1.429,1.429v19.048
		c0,0.788,0.641,1.429,1.429,1.429h2.56c0.526,0,0.952,0.426,0.952,0.952s-0.426,0.952-0.952,0.952h-2.56
		c-1.838,0-3.333-1.496-3.333-3.333V15.476c0-1.838,1.495-3.333,3.333-3.333h19.048c1.838,0,3.333,1.495,3.333,3.333v19.048
		C37.857,36.362,36.362,37.857,34.524,37.857z"/>
	<path style="fill:#5280DF;" d="M36.905,23.175c-0.526,0-0.952-0.426-0.952-0.952c0-0.788-0.641-1.429-1.429-1.429H15.476
		c-0.788,0-1.429,0.641-1.429,1.429c0,0.526-0.426,0.952-0.952,0.952c-0.526,0-0.952-0.426-0.952-0.952
		c0-1.838,1.495-3.333,3.333-3.333h19.048c1.838,0,3.333,1.495,3.333,3.333C37.857,22.748,37.431,23.175,36.905,23.175z"/>
	<circle style="fill:#5280DF;" cx="27.165" cy="16.468" r="0.915"/>
	<circle style="fill:#5280DF;" cx="30.357" cy="16.468" r="0.915"/>
	<circle style="fill:#5280DF;" cx="33.549" cy="16.468" r="0.915"/>
</g>
<g id="Layer_1">
</g>
</svg>
