<svg id="Layer_1" data-name="Layer 1" xmlns="http://www.w3.org/2000/svg" xmlns:xlink="http://www.w3.org/1999/xlink" viewBox="0 0 612 612"><defs><style>.cls-1{stroke:#232323;stroke-miterlimit:10;fill:url(#linear-gradient);}</style><linearGradient id="linear-gradient" x1="306.02" y1="106.01" x2="306.02" y2="505.99" gradientUnits="userSpaceOnUse"><stop offset="0" stop-color="#fff"/><stop offset="0.6" stop-color="#e2e2e2"/><stop offset="1" stop-color="#ccc"/></linearGradient></defs><path id="FitImage" class="cls-1" d="M244.92,144.16A14.82,14.82,0,0,0,230.11,159v50.15l-98.79-98.77a14.81,14.81,0,0,0-20.95,21l98.79,98.77H159a14.82,14.82,0,0,0,0,29.63h85.93a14.87,14.87,0,0,0,2.9-.3c.45-.09.85-.25,1.26-.37s1-.27,1.5-.46.93-.49,1.41-.74a12.57,12.57,0,0,0,1.14-.62,14.59,14.59,0,0,0,4.1-4.11c.24-.35.4-.75.61-1.12s.53-.92.74-1.42a13,13,0,0,0,.46-1.5,11.49,11.49,0,0,0,.37-1.27,15,15,0,0,0,.3-2.9V159A14.79,14.79,0,0,0,244.92,144.16ZM353,249.06c.14.5.26,1,.45,1.49a14.94,14.94,0,0,0,.75,1.43,12,12,0,0,0,.6,1.12,14.89,14.89,0,0,0,4.11,4.11c.35.23.72.39,1.09.59s.95.55,1.45.77,1,.31,1.49.46.84.29,1.28.38a14.3,14.3,0,0,0,2.91.3h85.92a14.82,14.82,0,1,0,0-29.63H402.89l98.79-98.77a14.81,14.81,0,1,0-20.95-21l-98.79,98.78V159a14.81,14.81,0,1,0-29.62,0V244.9a14.86,14.86,0,0,0,.29,2.9C352.71,248.23,352.88,248.64,353,249.06Zm49.91,132.86h50.16a14.82,14.82,0,0,0,0-29.63H367.14a14.87,14.87,0,0,0-2.9.3c-.44.09-.86.25-1.29.38s-1,.27-1.48.46a15.44,15.44,0,0,0-1.45.77c-.37.21-.74.36-1.1.6a14.68,14.68,0,0,0-4.1,4.1,9.71,9.71,0,0,0-.59,1.1c-.27.47-.55.94-.78,1.45a14.88,14.88,0,0,0-.45,1.48,11.29,11.29,0,0,0-.39,1.29,14.87,14.87,0,0,0-.3,2.9V453a14.82,14.82,0,0,0,29.63,0V402.88l98.79,98.77a14.81,14.81,0,1,0,20.95-20.94Zm-143.86-19a13.3,13.3,0,0,0-.46-1.48,11.16,11.16,0,0,0-.77-1.45c-.2-.37-.35-.74-.59-1.1a14.55,14.55,0,0,0-4.1-4.1,12.19,12.19,0,0,0-1.17-.64,14,14,0,0,0-1.38-.73,15.1,15.1,0,0,0-1.53-.47c-.41-.12-.81-.28-1.24-.37a15,15,0,0,0-2.9-.3H159a14.82,14.82,0,1,0,0,29.63h50.16l-98.78,98.77a14.81,14.81,0,1,0,20.94,20.95l98.79-98.78V453a14.82,14.82,0,0,0,29.63,0V367.1a14.13,14.13,0,0,0-.3-2.9A7.73,7.73,0,0,0,259.05,362.93Zm47-89.11A32.18,32.18,0,1,0,338.21,306,32.18,32.18,0,0,0,306,273.82Z"/></svg>