<svg id="Layer_1" data-name="Layer 1" xmlns="http://www.w3.org/2000/svg" xmlns:xlink="http://www.w3.org/1999/xlink" viewBox="0 0 612 612"><defs><style>.cls-1{stroke:#232323;stroke-miterlimit:10;fill:url(#linear-gradient);}</style><linearGradient id="linear-gradient" x1="306.03" y1="106.1" x2="306.03" y2="505.75" gradientUnits="userSpaceOnUse"><stop offset="0" stop-color="#fff"/><stop offset="0.6" stop-color="#e2e2e2"/><stop offset="1" stop-color="#ccc"/></linearGradient></defs><path id="Flip" class="cls-1" d="M343.06,320.73a14.8,14.8,0,1,0,0-29.6H269a14.8,14.8,0,1,0,0,29.6Zm148.14-29.6H417.13a14.8,14.8,0,1,0,0,29.6H491.2a14.8,14.8,0,1,0,0-29.6Zm-296.27,0H120.87a14.8,14.8,0,1,0,0,29.6h74.06a14.8,14.8,0,1,0,0-29.6Zm159-126.57-33,33V120.9a14.82,14.82,0,0,0-29.63,0v76.67l-33-33a14.81,14.81,0,0,0-20.95,20.93l58.32,58.27a15,15,0,0,0,2.27,1.86c.37.25.77.41,1.14.62s.91.53,1.4.74,1,.31,1.5.46.83.28,1.26.36a14.17,14.17,0,0,0,5.8,0,12,12,0,0,0,1.3-.38c.48-.15,1-.27,1.48-.46a14.42,14.42,0,0,0,1.45-.77c.37-.21.74-.35,1.09-.59a15.14,15.14,0,0,0,2.27-1.85l58.32-58.27a14.81,14.81,0,1,0-21-20.92ZM316.51,368.08a14.81,14.81,0,0,0-20.95,0l-58.33,58.27a14.8,14.8,0,1,0,20.94,20.93l33-33V491a14.81,14.81,0,0,0,29.62,0V414.27l33,33a14.81,14.81,0,1,0,20.95-20.93Z"/></svg>