<?xml version="1.0" encoding="iso-8859-1"?>
<!-- Generator: Adobe Illustrator 21.1.0, SVG Export Plug-In . SVG Version: 6.00 Build 0)  -->
<svg version="1.1" xmlns="http://www.w3.org/2000/svg" xmlns:xlink="http://www.w3.org/1999/xlink" x="0px" y="0px"
	 viewBox="0 0 50 50" style="enable-background:new 0 0 50 50;" xml:space="preserve">
<g id="Flip">
	<path style="fill:#5280DF;" d="M25,50C11.215,50,0,38.785,0,25C0,11.215,11.215,0,25,0c13.785,0,25,11.215,25,25
		C50,38.785,38.785,50,25,50z M25,1.905C12.265,1.905,1.905,12.265,1.905,25S12.265,48.095,25,48.095S48.095,37.735,48.095,25
		S37.735,1.905,25,1.905z"/>
	<path style="fill:#5280DF;" d="M36.905,25.952h-4.762c-0.526,0-0.952-0.426-0.952-0.952s0.426-0.952,0.952-0.952h4.762
		c0.526,0,0.952,0.426,0.952,0.952S37.431,25.952,36.905,25.952z M27.381,25.952h-4.762c-0.526,0-0.952-0.426-0.952-0.952
		s0.426-0.952,0.952-0.952h4.762c0.526,0,0.952,0.426,0.952,0.952S27.907,25.952,27.381,25.952z M17.857,25.952h-4.762
		c-0.526,0-0.952-0.426-0.952-0.952s0.426-0.952,0.952-0.952h4.762c0.526,0,0.952,0.426,0.952,0.952S18.383,25.952,17.857,25.952z"
		/>
	<path style="fill:#5280DF;" d="M25,21.28c-0.244,0-0.488-0.093-0.673-0.279l-3.75-3.75c-0.372-0.372-0.372-0.975,0-1.347
		c0.372-0.372,0.975-0.372,1.347,0L25,18.98l3.077-3.076c0.372-0.372,0.975-0.372,1.347,0c0.372,0.372,0.372,0.975,0,1.347
		l-3.75,3.75C25.487,21.187,25.244,21.28,25,21.28z"/>
	<path style="fill:#5280DF;" d="M28.75,34.375c-0.244,0-0.487-0.093-0.673-0.279L25,31.019l-3.077,3.077
		c-0.372,0.372-0.975,0.372-1.347,0c-0.372-0.372-0.372-0.975,0-1.347l3.75-3.75c0.372-0.372,0.975-0.372,1.347,0l3.75,3.75
		c0.372,0.372,0.372,0.975,0,1.347C29.237,34.282,28.994,34.375,28.75,34.375z"/>
	<path style="fill:#5280DF;" d="M25,21.28c-0.526,0-0.952-0.426-0.952-0.952v-7.232c0-0.526,0.426-0.952,0.952-0.952
		s0.952,0.426,0.952,0.952v7.232C25.952,20.853,25.526,21.28,25,21.28z"/>
	<path style="fill:#5280DF;" d="M25,37.857c-0.526,0-0.952-0.426-0.952-0.952v-7.098c0-0.526,0.426-0.952,0.952-0.952
		s0.952,0.426,0.952,0.952v7.098C25.952,37.431,25.526,37.857,25,37.857z"/>
</g>
<g id="Layer_1">
</g>
</svg>
