<svg id="Layer_1" data-name="Layer 1" xmlns="http://www.w3.org/2000/svg" xmlns:xlink="http://www.w3.org/1999/xlink" viewBox="0 0 612 612"><defs><style>.cls-1,.cls-2,.cls-3,.cls-4,.cls-5,.cls-6,.cls-7,.cls-8{stroke:#232323;stroke-miterlimit:10;stroke-width:1.31px;}.cls-1{fill:url(#linear-gradient);}.cls-2{fill:url(#linear-gradient-2);}.cls-3{fill:url(#linear-gradient-3);}.cls-4{fill:url(#linear-gradient-4);}.cls-5{fill:url(#linear-gradient-5);}.cls-6{fill:url(#linear-gradient-6);}.cls-7{fill:url(#linear-gradient-7);}.cls-8{fill:url(#linear-gradient-8);}</style><linearGradient id="linear-gradient" x1="432.65" y1="293.03" x2="432.65" y2="318.78" gradientUnits="userSpaceOnUse"><stop offset="0" stop-color="#fafafa"/><stop offset="1" stop-color="#ebebeb"/></linearGradient><linearGradient id="linear-gradient-2" x1="513.81" y1="293.03" x2="513.81" y2="318.78" xlink:href="#linear-gradient"/><linearGradient id="linear-gradient-3" x1="351.48" y1="293.03" x2="351.48" y2="318.78" xlink:href="#linear-gradient"/><linearGradient id="linear-gradient-4" x1="179.35" y1="293.22" x2="179.35" y2="318.97" xlink:href="#linear-gradient"/><linearGradient id="linear-gradient-5" x1="260.52" y1="293.22" x2="260.52" y2="318.97" xlink:href="#linear-gradient"/><linearGradient id="linear-gradient-6" x1="98.19" y1="293.22" x2="98.19" y2="318.97" xlink:href="#linear-gradient"/><linearGradient id="linear-gradient-7" x1="306.38" y1="361.87" x2="306.38" y2="580.62" xlink:href="#linear-gradient"/><linearGradient id="linear-gradient-8" x1="305.67" y1="31.38" x2="305.67" y2="250.39" xlink:href="#linear-gradient"/></defs><path class="cls-1" d="M452.94,318.78c4.48,0,8.11-5.77,8.11-12.87S457.42,293,452.94,293H412.36c-4.48,0-8.12,5.77-8.12,12.88s3.64,12.87,8.12,12.87Z"/><path class="cls-2" d="M534.1,293H493.52c-4.48,0-8.11,5.77-8.11,12.88s3.63,12.87,8.11,12.87H534.1c4.48,0,8.12-5.77,8.12-12.87S538.58,293,534.1,293Z"/><path class="cls-3" d="M371.77,293H331.19c-4.48,0-8.12,5.77-8.12,12.88s3.64,12.87,8.12,12.87h40.58c4.48,0,8.12-5.77,8.12-12.87S376.25,293,371.77,293Z"/><path class="cls-4" d="M199.64,319c4.48,0,8.12-5.77,8.12-12.88s-3.64-12.87-8.12-12.87H159.06c-4.48,0-8.11,5.77-8.11,12.87S154.58,319,159.06,319Z"/><path class="cls-5" d="M280.81,293.22H240.23c-4.48,0-8.12,5.77-8.12,12.87S235.75,319,240.23,319h40.58c4.48,0,8.12-5.77,8.12-12.88S285.29,293.22,280.81,293.22Z"/><path class="cls-6" d="M118.48,293.22H77.9c-4.48,0-8.12,5.77-8.12,12.87S73.42,319,77.9,319h40.58c4.48,0,8.12-5.77,8.12-12.88S123,293.22,118.48,293.22Z"/><path class="cls-7" d="M316.27,366.89l16.92,22.95L459.5,561.33c5.91,8,.08,19.19-9.95,19.2l-50.44,0H363.26l-170,0-30.08,0a12.09,12.09,0,0,1-10-19.2L296.35,366.88A12.4,12.4,0,0,1,316.27,366.89Z"/><path class="cls-8" d="M448.81,31.38l-30.08.08-170,.36-35.84.07L162.47,32c-10,0-15.84,11.24-9.92,19.23L279.19,222.48l16.95,22.92a12.41,12.41,0,0,0,19.92,0L458.82,50.56C464.69,42.54,458.85,31.36,448.81,31.38ZM406.28,72,313.41,198.78a8.07,8.07,0,0,1-13,0l-11-14.92L207,72.44a7.86,7.86,0,0,1,6.46-12.5l32.82-.08,23.32,0,110.6-.24,19.56,0A7.87,7.87,0,0,1,406.28,72Z"/></svg>