<svg id="Layer_1" data-name="Layer 1" xmlns="http://www.w3.org/2000/svg" xmlns:xlink="http://www.w3.org/1999/xlink" viewBox="0 0 612 612"><defs><style>.cls-1{stroke:#232323;stroke-miterlimit:10;stroke-width:1.31px;fill:url(#linear-gradient);}</style><linearGradient id="linear-gradient" x1="306" y1="31.74" x2="306" y2="580.26" gradientUnits="userSpaceOnUse"><stop offset="0" stop-color="#fafafa"/><stop offset="1" stop-color="#ebebeb"/></linearGradient></defs><path id="FMX18" class="cls-1" d="M164,146.28v-20c0-5.74-4.07-10.4-9.08-10.4H83.55c-2.5,0-4.53-2.33-4.53-5.19v-33c0-2.89,2-5.19,4.53-5.19h82.76c5,0,9.07-4.66,9.07-10.4v-20c0-5.73-4.06-10.39-9.07-10.39H48.93c-5,0-9.07,4.64-9.07,10.39V225.18c0,5.73,4.06,10.39,9.07,10.39h21c5,0,9.08-4.64,9.08-10.39v-63.3c0-2.87,2-5.2,4.54-5.2h71.31C159.88,156.68,164,152,164,146.28Zm131.11,43.31a.92.92,0,0,0,.78-.48l47.34-82.24c.74-1.31,2.5-.69,2.5.85V225.2c0,5.74,4.07,10.39,9.08,10.39h20.75c5,0,9.08-4.63,9.08-10.39v-183c0-5.74-4.07-10.4-9.08-10.4H351.46c-5.63,0-10.9,3.35-13.87,8.84L298,113.54a2.64,2.64,0,0,1-4.79,0L253.58,40.6c-3-5.49-8.24-8.84-13.87-8.84H215.66c-5,0-9.08,4.64-9.08,10.4v183c0,5.74,4.06,10.39,9.08,10.39H235.9c5,0,9.08-4.63,9.08-10.39V108.6c0-1.54,1.76-2.17,2.5-.86l46.81,81.37A.94.94,0,0,0,295.06,189.59Zm205.79-19.54,32.47,56.83c3.08,5.41,8.4,8.69,14,8.69H575c3.87,0,6.14-4.92,4-8.58l-54.38-91.37a8.56,8.56,0,0,1,0-8.56L576.4,40.35c2.18-3.66-.11-8.59-4-8.59H546.1c-5.65,0-11,3.27-14.07,8.69L501.6,93.52a2.76,2.76,0,0,1-4.94,0l-29.76-53c-3-5.44-8.33-8.75-14-8.75H425.31c-3.85,0-6.14,4.93-4,8.59l51.85,87.29a8.57,8.57,0,0,1,0,8.58L418.82,227c-2.17,3.63.1,8.56,3.94,8.56h26.37c5.64,0,10.94-3.28,14.07-8.69l32.68-56.83A2.78,2.78,0,0,1,500.85,170.05ZM419.25,435c-1.57-1-2.42-3.45-.93-4.59C432.81,419.3,442,404.21,442,380.11v-.71c0-37-29.36-65.81-73.68-65.81s-73.67,29.14-73.67,65.81v.71c0,24.1,9.22,39.19,23.69,50.27,1.47,1.14.51,3.49-1.07,4.45-19.55,11.6-29.81,28.35-29.81,55.67v.71c0,41.82,34.44,69.24,80.86,69.24s80.85-26.07,80.85-70.6v-.7C449.2,462.42,438.17,447.22,419.25,435Zm-80.83-50.09c0-14.74,11.07-27.76,30-27.76s29.93,13.37,29.93,28.13v.66c0,16.82-11.67,29.17-29.93,29.17s-30-12.68-30-29.5ZM404.6,487.07c0,16.82-13.48,29.83-36.24,29.83s-36.24-13.39-36.24-29.83v-.68c0-18.51,15.27-29.48,36.24-29.48s36.24,11,36.24,29.48ZM127.91,330.91a11.83,11.83,0,0,0,2.36-14.58L120.1,298.79c-2.76-4.76-8.2-6.55-12.51-3.64C57.52,329,32.21,374.25,32.21,437S57.5,545.07,107.59,578.85c4.31,2.91,9.77,1.12,12.51-3.64l10.17-17.54a11.85,11.85,0,0,0-2.36-14.57C92.69,512.89,77.42,482.33,77.42,437S92.69,361.11,127.91,330.91ZM237.6,315.3H224.06a53.6,53.6,0,0,0-17.52,2.93l-43,14.72c-4.79,1.62-7.61,7.29-6.37,12.84l5.17,23.37c1.22,5.49,6.08,8.83,10.9,7.46L196.68,370c2.21-.63,4.34,1.31,4.34,3.91V546.79c0,5.66,4,10.25,8.95,10.25h27.61c4.94,0,8.95-4.57,8.95-10.25V325.54C246.55,319.87,242.54,315.3,237.6,315.3Zm265.2-20.15c-4.31-2.91-9.77-1.12-12.51,3.64l-10.17,17.54a11.86,11.86,0,0,0,2.36,14.58C517.7,361.11,533,391.67,533,437s-15.27,75.9-50.49,106.08a11.86,11.86,0,0,0-2.36,14.58l10.17,17.54c2.76,4.76,8.21,6.55,12.51,3.64C552.87,545,578.18,499.75,578.18,437S552.87,329,502.8,295.15Z"/></svg>