<svg id="Layer_1" data-name="Layer 1" xmlns="http://www.w3.org/2000/svg" xmlns:xlink="http://www.w3.org/1999/xlink" viewBox="0 0 612 612"><defs><style>.cls-1{stroke:#232323;stroke-miterlimit:10;fill:url(#linear-gradient);}</style><linearGradient id="linear-gradient" x1="307.95" y1="105.99" x2="307.95" y2="505.69" gradientUnits="userSpaceOnUse"><stop offset="0" stop-color="#fff"/><stop offset="0.6" stop-color="#e2e2e2"/><stop offset="1" stop-color="#ccc"/></linearGradient></defs><path id="FMX18" class="cls-1" d="M204.44,189.46V174.9c0-4.18-3-7.58-6.62-7.58h-52a3.57,3.57,0,0,1-3.31-3.78v-24a3.56,3.56,0,0,1,3.31-3.79h60.3c3.65,0,6.61-3.39,6.61-7.58V113.56c0-4.18-3-7.57-6.61-7.57H120.63c-3.65,0-6.62,3.38-6.62,7.57V246.94c0,4.18,3,7.57,6.62,7.57h15.31c3.65,0,6.61-3.37,6.61-7.57V200.82a3.58,3.58,0,0,1,3.31-3.79h52C201.47,197,204.44,193.63,204.44,189.46ZM300,221a.69.69,0,0,0,.57-.35L335,160.73c.54-.95,1.82-.5,1.82.63V247c0,4.18,3,7.57,6.62,7.57H358.6c3.65,0,6.61-3.38,6.61-7.57V113.58c0-4.18-3-7.58-6.61-7.58H341.07A11.69,11.69,0,0,0,331,112.44L302.1,165.6a1.93,1.93,0,0,1-3.49,0l-28.86-53.16a11.66,11.66,0,0,0-10.1-6.44H242.12c-3.65,0-6.62,3.38-6.62,7.58V247c0,4.18,3,7.57,6.62,7.57h14.75c3.65,0,6.61-3.38,6.61-7.57V162a1,1,0,0,1,1.83-.62l34.1,59.29A.7.7,0,0,0,300,221Zm150-14.24,23.65,41.42a12,12,0,0,0,10.24,6.33H504c2.82,0,4.47-3.59,2.89-6.26l-39.63-66.58a6.21,6.21,0,0,1,0-6.24L505,112.26c1.59-2.67-.07-6.26-2.88-6.26H482.9a12,12,0,0,0-10.25,6.34L450.48,151a2,2,0,0,1-3.6,0L425.2,112.38A11.85,11.85,0,0,0,415,106H394.89c-2.81,0-4.48,3.59-2.9,6.26l37.78,63.61a6.26,6.26,0,0,1,0,6.25l-39.6,66.17c-1.59,2.65.07,6.24,2.87,6.24h19.21a12,12,0,0,0,10.26-6.33l23.81-41.41A2,2,0,0,1,449.94,206.77Zm-59.47,193c-1.14-.74-1.76-2.52-.67-3.35,10.55-8.07,17.27-19.07,17.27-36.63v-.51c0-27-21.39-48-53.68-48s-53.69,21.23-53.69,48v.51c0,17.56,6.72,28.56,17.27,36.63,1.07.83.37,2.55-.78,3.24-14.25,8.45-21.73,20.66-21.73,40.57v.51c0,30.48,25.1,50.46,58.93,50.46s58.91-19,58.91-51.44v-.52C412.3,419.81,404.26,408.74,390.47,399.82Zm-58.9-36.51c0-10.74,8.07-20.22,21.83-20.22s21.81,9.74,21.81,20.49v.49c0,12.25-8.5,21.25-21.81,21.25s-21.83-9.24-21.83-21.49Zm48.22,74.47c0,12.26-9.81,21.74-26.4,21.74S327,449.76,327,437.78v-.5c0-13.48,11.13-21.48,26.41-21.48s26.4,8,26.4,21.48ZM178.18,324a8.62,8.62,0,0,0,1.72-10.62l-7.41-12.79c-2-3.47-6-4.77-9.12-2.65-36.48,24.63-54.93,57.64-54.93,103.37S126.87,480,163.37,504.66c3.14,2.12,7.12.82,9.12-2.65l7.41-12.79a8.63,8.63,0,0,0-1.72-10.61c-25.67-22-36.79-44.28-36.79-77.31S152.51,346,178.18,324Zm79.93-11.38h-9.87a39.08,39.08,0,0,0-12.77,2.14l-31.36,10.72c-3.5,1.18-5.55,5.32-4.65,9.36l3.77,17c.89,4,4.43,6.44,7.94,5.44l17.12-4.84a2.67,2.67,0,0,1,3.16,2.85v126c0,4.12,2.91,7.47,6.52,7.47H258.1c3.59,0,6.52-3.33,6.52-7.47V320.08C264.63,315.94,261.71,312.61,258.11,312.61Zm193.24-14.68c-3.13-2.12-7.11-.82-9.11,2.65l-7.41,12.79A8.64,8.64,0,0,0,436.55,324c25.67,22,36.79,44.27,36.79,77.3s-11.13,55.31-36.79,77.3a8.63,8.63,0,0,0-1.72,10.62L442.24,502c2,3.47,6,4.77,9.11,2.65C487.84,480,506.28,447,506.28,401.29S487.84,322.56,451.35,297.93Z"/></svg>