<?xml version="1.0" encoding="iso-8859-1"?>
<!-- Generator: Adobe Illustrator 21.1.0, SVG Export Plug-In . SVG Version: 6.00 Build 0)  -->
<svg version="1.1" xmlns="http://www.w3.org/2000/svg" xmlns:xlink="http://www.w3.org/1999/xlink" x="0px" y="0px"
	 viewBox="0 0 50 50" style="enable-background:new 0 0 50 50;" xml:space="preserve">
<g id="FMX18">
	<path style="fill:#5280DF;" d="M25,50C11.215,50,0,38.785,0,25C0,11.215,11.215,0,25,0c13.785,0,25,11.215,25,25
		C50,38.785,38.785,50,25,50z M25,1.905C12.265,1.905,1.905,12.265,1.905,25S12.265,48.095,25,48.095S48.095,37.735,48.095,25
		S37.735,1.905,25,1.905z"/>
	<path style="fill:#5280DF;" d="M18.041,18.944c0-0.132,0.106-0.238,0.238-0.238h3.079c0.132,0,0.238,0.106,0.238,0.238v0.458
		c0,0.132-0.107,0.238-0.238,0.238h-2.171c-0.066,0-0.119,0.053-0.119,0.119v0.756c0,0.066,0.053,0.119,0.119,0.119h1.87
		c0.132,0,0.238,0.106,0.238,0.238v0.458c0,0.132-0.106,0.238-0.238,0.238h-1.87c-0.066,0-0.119,0.054-0.119,0.119v1.45
		c0,0.132-0.106,0.238-0.238,0.238h-0.551c-0.132,0-0.238-0.106-0.238-0.238V18.944z"/>
	<path style="fill:#5280DF;" d="M22.414,18.944c0-0.132,0.107-0.238,0.238-0.238h0.631c0.148,0,0.286,0.077,0.364,0.202l1.039,1.671
		c0.029,0.046,0.097,0.046,0.126,0l1.039-1.671c0.078-0.126,0.216-0.202,0.364-0.202h0.631c0.132,0,0.238,0.106,0.238,0.238v4.193
		c0,0.132-0.106,0.238-0.238,0.238H26.3c-0.132,0-0.238-0.106-0.238-0.238v-2.691c0-0.035-0.046-0.049-0.065-0.02l-1.241,1.884
		c-0.004,0.007-0.012,0.011-0.02,0.011s-0.016-0.004-0.02-0.011l-1.228-1.864c-0.02-0.03-0.066-0.016-0.066,0.02v2.671
		c0,0.132-0.106,0.238-0.238,0.238h-0.531c-0.132,0-0.238-0.106-0.238-0.238V18.944z"/>
	<path style="fill:#5280DF;" d="M32.01,18.706c0.101,0,0.161,0.113,0.104,0.197l-1.359,1.986c-0.04,0.059-0.04,0.137,0,0.196
		l1.426,2.093c0.057,0.084-0.003,0.197-0.104,0.197h-0.724c-0.148,0-0.287-0.075-0.369-0.199l-0.852-1.302
		c-0.031-0.047-0.1-0.047-0.131,0l-0.857,1.302c-0.082,0.124-0.221,0.199-0.369,0.199h-0.691c-0.101,0-0.16-0.113-0.103-0.196
		l1.425-2.08c0.041-0.059,0.041-0.137,0-0.197l-1.36-1.999c-0.057-0.084,0.003-0.197,0.104-0.197h0.724
		c0.148,0,0.287,0.076,0.367,0.2l0.781,1.214c0.03,0.047,0.099,0.047,0.13,0.001l0.798-1.216c0.081-0.124,0.221-0.199,0.369-0.199
		H32.01z"/>
	<path style="fill:#5280DF;" d="M17.841,27.989c0-1.438,0.663-2.475,1.977-3.249c0.113-0.066,0.256-0.026,0.328,0.083l0.267,0.402
		c0.072,0.109,0.043,0.255-0.062,0.334c-0.924,0.692-1.324,1.392-1.324,2.43s0.4,1.738,1.324,2.43
		c0.105,0.079,0.135,0.225,0.062,0.334l-0.267,0.402c-0.072,0.109-0.215,0.15-0.328,0.083
		C18.504,30.464,17.841,29.426,17.841,27.989z"/>
	<path style="fill:#5280DF;" d="M22.268,26.543c0-0.06-0.056-0.104-0.114-0.089l-0.616,0.152c-0.126,0.031-0.254-0.045-0.286-0.171
		l-0.136-0.535c-0.032-0.127,0.042-0.257,0.167-0.294l1.129-0.337c0.149-0.044,0.304-0.067,0.46-0.067h0.355
		c0.13,0,0.235,0.105,0.235,0.235v5.068c0,0.13-0.105,0.235-0.235,0.235h-0.725c-0.13,0-0.235-0.105-0.235-0.235V26.543z"/>
	<path style="fill:#5280DF;" d="M24.537,29.23v-0.016c0-0.626,0.269-1.01,0.782-1.275c0.041-0.022,0.067-0.076,0.028-0.102
		c-0.38-0.254-0.622-0.6-0.622-1.152v-0.016c0-0.84,0.77-1.508,1.933-1.508c1.162,0,1.932,0.66,1.932,1.508v0.016
		c0,0.552-0.242,0.898-0.622,1.152c-0.039,0.027-0.017,0.082,0.024,0.105c0.496,0.281,0.786,0.629,0.786,1.24v0.016
		c0,1.02-0.903,1.617-2.12,1.617C25.44,30.816,24.537,30.188,24.537,29.23z M27.608,29.136V29.12c0-0.424-0.4-0.675-0.95-0.675
		c-0.55,0-0.951,0.251-0.951,0.675v0.016c0,0.377,0.353,0.684,0.951,0.684C27.254,29.819,27.608,29.521,27.608,29.136z
		 M27.443,26.818v-0.015c0-0.338-0.291-0.644-0.785-0.644c-0.495,0-0.786,0.298-0.786,0.636v0.016c0,0.385,0.306,0.676,0.786,0.676
		C27.136,27.486,27.443,27.203,27.443,26.818z"/>
	<path style="fill:#5280DF;" d="M29.588,30.753c-0.072-0.109-0.043-0.255,0.062-0.334c0.924-0.692,1.324-1.392,1.324-2.43
		s-0.4-1.738-1.324-2.43c-0.105-0.078-0.135-0.225-0.062-0.334l0.267-0.402c0.072-0.109,0.215-0.15,0.328-0.083
		c1.313,0.774,1.977,1.812,1.977,3.249s-0.664,2.475-1.977,3.249c-0.113,0.067-0.256,0.026-0.328-0.083L29.588,30.753z"/>
</g>
<g id="Layer_1">
</g>
</svg>
