<svg id="Layer_1" data-name="Layer 1" xmlns="http://www.w3.org/2000/svg" xmlns:xlink="http://www.w3.org/1999/xlink" viewBox="0 0 612 612"><defs><style>.cls-1{stroke:#232323;stroke-miterlimit:10;fill:url(#linear-gradient);}</style><linearGradient id="linear-gradient" x1="308.69" y1="104.76" x2="308.69" y2="505.68" gradientUnits="userSpaceOnUse"><stop offset="0" stop-color="#fff"/><stop offset="0.6" stop-color="#e2e2e2"/><stop offset="1" stop-color="#ccc"/></linearGradient></defs><path id="FMX20" class="cls-1" d="M120.76,259.91h15.35c3.66,0,6.63-3.54,6.63-7.91V203.81c0-2.19,1.49-4,3.31-4h52.07c3.66,0,6.63-3.53,6.63-7.91v-15.2c0-4.37-3-7.92-6.63-7.92H146.05c-1.82,0-3.31-1.77-3.31-3.95V139.76c0-2.2,1.49-4,3.31-4h60.44c3.66,0,6.63-3.54,6.63-7.91V112.67c0-4.36-3-7.91-6.63-7.91H120.76c-3.66,0-6.63,3.53-6.63,7.91V252C114.13,256.37,117.08,259.91,120.76,259.91Zm216.71-97.32V252c0,4.37,3,7.91,6.63,7.91h15.17c3.66,0,6.63-3.54,6.63-7.91V112.69c0-4.37-3-7.91-6.63-7.91H341.69c-4.12,0-8,2.54-10.13,6.72L302.64,167a1.9,1.9,0,0,1-3.5,0L270.22,111.5c-2.16-4.18-6-6.72-10.12-6.72H242.53c-3.66,0-6.63,3.52-6.63,7.91V252c0,4.37,3,7.91,6.63,7.91h14.78c3.66,0,6.63-3.54,6.63-7.91V163.26c0-1.18,1.29-1.65,1.83-.65L300,224.53a.66.66,0,0,0,.57.37.69.69,0,0,0,.58-.37l34.56-62.59C336.19,161,337.47,161.4,337.47,162.59Zm56.31,97.32H413c4.13,0,8-2.5,10.27-6.61L447.16,210a2,2,0,0,1,3.63,0l23.72,43.26c2.26,4.11,6.13,6.61,10.25,6.61h20.17c2.81,0,4.48-3.75,2.9-6.53l-39.72-69.54a6.69,6.69,0,0,1,0-6.52l37.84-66c1.58-2.79-.08-6.54-2.89-6.54H483.83c-4.14,0-8,2.49-10.26,6.62L451.35,151.8a2,2,0,0,1-3.61,0L426,111.45c-2.23-4.14-6.1-6.66-10.21-6.66H395.64c-2.83,0-4.48,3.75-2.91,6.54l37.86,66.43a6.76,6.76,0,0,1,0,6.54l-39.69,69.11C389.31,256.15,391,259.91,393.78,259.91Zm-113,181.73H233.31c-1.07,0-1.54-1.63-.69-2.4l18.81-17.34C274.76,400.35,286,387.34,286,361.08v-.44c0-29.4-18.05-48.48-45.33-48.48-20.59,0-32.8,8.76-44.23,25.09-2.61,3.73-2.89,9.38.29,12.42l10,9.6c2.63,2.52,6.49,3,8.71-.07,8-10.92,14.47-16.08,23.35-16.08,10.34,0,17.69,7.17,17.69,20.43,0,13-6.39,21.55-22.76,37.7L195,439.11A18.24,18.24,0,0,0,189.9,452v11.55c0,4.37,3,7.91,6.63,7.91h84.18c3.66,0,6.63-3.54,6.63-7.91v-14C287.37,445.19,284.4,441.64,280.74,441.64Zm85.94-130c-35,0-58.68,35.7-58.68,81.27v.42c0,45.57,23.13,80.81,58.3,80.81S425,438.48,425,393v-.46C425,346.9,401.47,311.68,366.68,311.68Zm28.59,81.69c0,28.51-11.1,49.6-28.59,49.6s-29-21.31-29-50v-.46c0-28.74,11.28-49.61,28.58-49.61s29,21.55,29,50.08v.41ZM178.83,315.9a9.26,9.26,0,0,0,1.72-11.09l-7.42-13.35c-2-3.62-6-5-9.13-2.77-36.57,25.73-55,60.2-55,108s18.46,82.24,55.05,108c3.14,2.22,7.13.86,9.13-2.77l7.42-13.35a9.28,9.28,0,0,0-1.72-11.09c-25.72-23-36.87-46.25-36.87-80.74S153.11,338.89,178.83,315.9Zm273.78-27.21c-3.14-2.21-7.13-.85-9.14,2.77l-7.42,13.36a9.29,9.29,0,0,0,1.72,11.09c25.72,23,36.87,46.24,36.87,80.74s-11.15,57.76-36.87,80.74a9.28,9.28,0,0,0-1.72,11.09l7.42,13.35c2,3.63,6,5,9.14,2.77,36.57-25.73,55.05-60.19,55.05-108S489.18,314.42,452.61,288.69Z"/></svg>