<svg id="Layer_1" data-name="Layer 1" xmlns="http://www.w3.org/2000/svg" xmlns:xlink="http://www.w3.org/1999/xlink" viewBox="0 0 612 612"><defs><style>.cls-1,.cls-2{stroke:#232323;stroke-miterlimit:10;stroke-width:1.31px;}.cls-1{fill:url(#linear-gradient);}.cls-2{fill:url(#linear-gradient-2);}</style><linearGradient id="linear-gradient" x1="306" y1="129.93" x2="306" y2="482.08" gradientUnits="userSpaceOnUse"><stop offset="0" stop-color="#fafafa"/><stop offset="1" stop-color="#ebebeb"/></linearGradient><linearGradient id="linear-gradient-2" y1="32.24" y2="579.76" xlink:href="#linear-gradient"/></defs><path class="cls-1" d="M302.29,482.07A59.72,59.72,0,0,0,345.2,464.8L476,336.86A20.16,20.16,0,1,0,447.77,308L317,436c-7.58,7.42-20.82,7.28-28.24-.31a20.1,20.1,0,0,1,.31-28.38l82.35-80.57a60.4,60.4,0,0,0-84.48-86.36L234.1,292a20,20,0,1,1-27.94-28.55l30.63-30a60.41,60.41,0,0,0-84.49-86.36L136,163.1a20.16,20.16,0,1,0,28.2,28.83l16.42-16.06a20,20,0,0,1,27.93,28.55l-30.62,30a60.4,60.4,0,1,0,84.48,86.36l52.84-51.69a20,20,0,0,1,27.93,28.56l-82.49,80.7a60.37,60.37,0,0,0-.94,85.42A59.12,59.12,0,0,0,302.29,482.07Z"/><path class="cls-2" d="M508.68,579.76H103.32a71,71,0,0,1-70.94-71V103.22a71,71,0,0,1,70.94-71H508.68a71,71,0,0,1,70.94,71V508.79A71,71,0,0,1,508.68,579.76ZM103.16,60c-16.77,0-43,24.87-43,41.64V504.51c0,31.79,21.76,53.3,49.5,53.3H510.77c16.76,0,44.15-29,42.71-46.87l.33-412.32c0-16.77-23.27-38.63-40-38.63Z"/></svg>