<svg id="Layer_1" data-name="Layer 1" xmlns="http://www.w3.org/2000/svg" xmlns:xlink="http://www.w3.org/1999/xlink" viewBox="0 0 612 612"><defs><style>.cls-1,.cls-2{stroke:#232323;stroke-miterlimit:10;}.cls-1{opacity:0.6;isolation:isolate;fill:url(#linear-gradient);}.cls-2{fill:url(#linear-gradient-2);}</style><linearGradient id="linear-gradient" x1="305.35" y1="106.7" x2="305.35" y2="506.5" gradientUnits="userSpaceOnUse"><stop offset="0" stop-color="#fff"/><stop offset="0.6" stop-color="#e2e2e2"/><stop offset="1" stop-color="#ccc"/></linearGradient><linearGradient id="linear-gradient-2" x1="299.75" y1="176.22" x2="299.75" y2="433.4" xlink:href="#linear-gradient"/></defs><g id="Freehand"><path class="cls-1" d="M490.5,421.4a14.77,14.77,0,0,0-14.8,14.8v40.7H435a14.8,14.8,0,0,0,0,29.6h55.5a14.77,14.77,0,0,0,14.8-14.8V436.2A14.83,14.83,0,0,0,490.5,421.4Zm-142,55.5H262.1a14.8,14.8,0,0,0,0,29.6h86.4a14.8,14.8,0,0,0,0-29.6Zm-172.7,0H135V436.2a14.8,14.8,0,1,0-29.6,0v55.5a14.77,14.77,0,0,0,14.8,14.8h55.5a14.8,14.8,0,0,0,.1-29.6ZM120.2,364.6A14.77,14.77,0,0,0,135,349.8V263.4a14.8,14.8,0,0,0-29.6,0v86.4A14.83,14.83,0,0,0,120.2,364.6Zm55.6-257.9H120.3a14.77,14.77,0,0,0-14.8,14.8V177a14.8,14.8,0,1,0,29.6,0V136.3h40.7a14.8,14.8,0,0,0,0-29.6Zm172.7,0H262.1a14.8,14.8,0,0,0,0,29.6h86.4a14.8,14.8,0,1,0,0-29.6Zm142,0H435a14.8,14.8,0,0,0,0,29.6h40.7V177a14.8,14.8,0,0,0,29.6,0V121.5A14.9,14.9,0,0,0,490.5,106.7Zm0,141.9a14.77,14.77,0,0,0-14.8,14.8v86.4a14.8,14.8,0,1,0,29.6,0V263.4A14.9,14.9,0,0,0,490.5,248.6Z"/><path class="cls-2" d="M300.6,433.4a43.78,43.78,0,0,1-31.3-13l-94.8-94.8a14.78,14.78,0,1,1,20.9-20.9l94.8,94.8a15,15,0,0,0,20.7,0,14.73,14.73,0,0,0,0-20.8L251.2,319a44.26,44.26,0,0,1,62.6-62.6l38.3,38.3A14.64,14.64,0,1,0,372.8,274l-22.2-22.2a44.26,44.26,0,1,1,62.6-62.6L425,201a14.78,14.78,0,0,1-20.9,20.9L392.2,210a14.64,14.64,0,0,0-20.7,20.7l22.2,22.2a44.26,44.26,0,0,1-62.6,62.6l-38.3-38.3a14.64,14.64,0,0,0-20.7,20.7l59.8,59.8a44.24,44.24,0,0,1,0,62.6A43.31,43.31,0,0,1,300.6,433.4Z"/></g></svg>