<svg id="Layer_1" data-name="Layer 1" xmlns="http://www.w3.org/2000/svg" xmlns:xlink="http://www.w3.org/1999/xlink" viewBox="0 0 612 612"><defs><style>.cls-1{stroke:#232323;stroke-miterlimit:10;fill:url(#linear-gradient);}</style><linearGradient id="linear-gradient" x1="307.36" y1="107.23" x2="307.36" y2="505.75" gradientUnits="userSpaceOnUse"><stop offset="0" stop-color="#fff"/><stop offset="0.6" stop-color="#e2e2e2"/><stop offset="1" stop-color="#ccc"/></linearGradient></defs><path id="FullScreen" class="cls-1" d="M507.94,119.11c-.09-.44-.25-.84-.37-1.26s-.27-1-.46-1.49a13.68,13.68,0,0,0-.75-1.42c-.21-.37-.37-.77-.61-1.12a14.72,14.72,0,0,0-4.12-4.09,9.71,9.71,0,0,0-1.1-.59,15.61,15.61,0,0,0-1.46-.77c-.49-.19-1-.31-1.49-.46s-.84-.29-1.29-.38a15.15,15.15,0,0,0-2.92-.3H383.63a14.76,14.76,0,1,0,0,29.52h73.82L345.21,248.08a14.66,14.66,0,0,0,0,20.87,14.94,14.94,0,0,0,21,0L478.49,157.62v73.22a14.88,14.88,0,0,0,29.76,0V122A14.92,14.92,0,0,0,507.94,119.11ZM248.47,344,136.23,455.36V382.14a14.88,14.88,0,0,0-29.76,0V491a14.13,14.13,0,0,0,.3,2.9c.09.44.25.85.38,1.28s.27,1,.47,1.48a12.63,12.63,0,0,0,.77,1.45c.21.36.36.73.59,1.09a14.76,14.76,0,0,0,4.13,4.09c.37.25.77.41,1.14.62a14.45,14.45,0,0,0,1.41.73,13.78,13.78,0,0,0,1.51.46c.43.12.83.28,1.26.37a15.14,15.14,0,0,0,2.92.29H231.09a14.76,14.76,0,1,0,0-29.52H157.27L269.51,364.9a14.66,14.66,0,0,0,0-20.87A15,15,0,0,0,248.47,344Z"/></svg>