<?xml version="1.0" encoding="iso-8859-1"?>
<!-- Generator: Adobe Illustrator 21.1.0, SVG Export Plug-In . SVG Version: 6.00 Build 0)  -->
<svg version="1.1" xmlns="http://www.w3.org/2000/svg" xmlns:xlink="http://www.w3.org/1999/xlink" x="0px" y="0px"
	 viewBox="0 0 50 50" style="enable-background:new 0 0 50 50;" xml:space="preserve">
<g id="FullScreen">
	<path style="fill:#5280DF;" d="M25,50C11.215,50,0,38.785,0,25C0,11.215,11.215,0,25,0c13.785,0,25,11.215,25,25
		C50,38.785,38.785,50,25,50z M25,1.905C12.265,1.905,1.905,12.265,1.905,25S12.265,48.095,25,48.095S48.095,37.735,48.095,25
		S37.735,1.905,25,1.905z"/>
	<path style="fill:#5280DF;" d="M36.905,21.071c-0.526,0-0.952-0.426-0.952-0.952v-6.071h-6.071c-0.526,0-0.952-0.426-0.952-0.952
		c0-0.526,0.426-0.952,0.952-0.952h7.024c0.526,0,0.952,0.426,0.952,0.952v7.024C37.857,20.645,37.431,21.071,36.905,21.071z"/>
	<path style="fill:#5280DF;" d="M28.095,22.857c-0.244,0-0.487-0.093-0.673-0.279c-0.372-0.372-0.372-0.975,0-1.347l8.81-8.81
		c0.372-0.372,0.975-0.372,1.347,0c0.372,0.372,0.372,0.975,0,1.347l-8.81,8.81C28.583,22.764,28.339,22.857,28.095,22.857z"/>
	<path style="fill:#5280DF;" d="M20.119,37.857h-7.024c-0.526,0-0.952-0.426-0.952-0.952v-7.024c0-0.526,0.426-0.952,0.952-0.952
		c0.526,0,0.952,0.426,0.952,0.952v6.071h6.071c0.526,0,0.952,0.426,0.952,0.952S20.645,37.857,20.119,37.857z"/>
	<path style="fill:#5280DF;" d="M13.095,37.857c-0.244,0-0.488-0.093-0.673-0.279c-0.372-0.372-0.372-0.975,0-1.347l8.81-8.81
		c0.372-0.372,0.975-0.372,1.347,0c0.372,0.372,0.372,0.975,0,1.347l-8.81,8.81C13.583,37.764,13.339,37.857,13.095,37.857z"/>
</g>
<g id="Layer_1">
</g>
</svg>
