<svg id="Layer_1" data-name="Layer 1" xmlns="http://www.w3.org/2000/svg" xmlns:xlink="http://www.w3.org/1999/xlink" viewBox="0 0 612 612"><defs><style>.cls-1{stroke:#232323;stroke-miterlimit:10;fill:url(#linear-gradient);}</style><linearGradient id="linear-gradient" x1="306.53" y1="105.56" x2="306.53" y2="504.87" gradientUnits="userSpaceOnUse"><stop offset="0" stop-color="#fff"/><stop offset="0.6" stop-color="#e2e2e2"/><stop offset="1" stop-color="#ccc"/></linearGradient></defs><path id="Highlight" class="cls-1" d="M491.69,475.25H200.91c29.07-17.89,67.51-9.54,67.91-9.44.06,0,.12,0,.18,0a15.27,15.27,0,0,0,3.18.37,5.52,5.52,0,0,0,.58,0c.18,0,.36-.06.55-.07s.58-.09.88-.12a14.1,14.1,0,0,0,3.54-.93c.21-.09.42-.14.61-.22a15,15,0,0,0,3.44-2.24c.24-.21.46-.43.7-.65a12.26,12.26,0,0,0,1-.93L494.4,214.47a46.65,46.65,0,0,0-1.41-64.8l-30.46-30.4c-17.83-17.8-46.37-18.41-65.34-1L166,345.31a4.18,4.18,0,0,0-.34.42,7.43,7.43,0,0,0-.52.62A14.09,14.09,0,0,0,163,349.6c-.06.12-.14.23-.2.36a14.59,14.59,0,0,0-1.05,4c0,.3-.07.59-.09.89s-.1.64-.1,1A15.75,15.75,0,0,0,162,359c0,.06,0,.12,0,.19.12.49,11.17,49.56-18.21,78.87l-33.15,33.08a14.78,14.78,0,0,0,7.55,25l41.53,8.42.06,0h0a14.07,14.07,0,0,0,2.95.3h329a14.81,14.81,0,1,0,0-29.62ZM417.64,139.66a17.26,17.26,0,0,1,23.91.51L472,170.56c6.57,6.56,6.79,17,.16,24.26L271.31,429.6l-7.12-7.1-66.72-66.58Z"/></svg>