<svg xmlns="http://www.w3.org/2000/svg" xmlns:xlink="http://www.w3.org/1999/xlink" viewBox="0 0 612 612"><defs><style>.cls-1,.cls-10,.cls-11,.cls-12,.cls-2,.cls-3,.cls-4,.cls-5,.cls-6,.cls-7,.cls-8,.cls-9{stroke:#232323;stroke-miterlimit:10;stroke-width:1.31px;}.cls-1{fill:url(#linear-gradient);}.cls-2{fill:url(#linear-gradient-2);}.cls-3{fill:url(#linear-gradient-3);}.cls-4{fill:url(#linear-gradient-4);}.cls-5{fill:url(#linear-gradient-5);}.cls-6{fill:url(#linear-gradient-6);}.cls-7{fill:url(#linear-gradient-7);}.cls-8{fill:url(#linear-gradient-8);}.cls-9{fill:url(#linear-gradient-9);}.cls-10{fill:url(#linear-gradient-10);}.cls-11{fill:url(#linear-gradient-11);}.cls-12{fill:url(#linear-gradient-12);}</style><linearGradient id="linear-gradient" x1="148.65" y1="249.84" x2="148.65" y2="515.73" gradientTransform="translate(297.13 765.64) rotate(-179.97)" gradientUnits="userSpaceOnUse"><stop offset="0" stop-color="#fafafa"/><stop offset="1" stop-color="#ebebeb"/></linearGradient><linearGradient id="linear-gradient-2" x1="385.76" y1="320.7" x2="385.76" y2="515.62" gradientTransform="translate(771.33 836.5) rotate(-179.97)" xlink:href="#linear-gradient"/><linearGradient id="linear-gradient-3" x1="267.25" y1="366.6" x2="267.25" y2="515.67" gradientTransform="translate(534.29 882.4) rotate(-179.97)" xlink:href="#linear-gradient"/><linearGradient id="linear-gradient-4" x1="504.29" y1="445.29" x2="504.29" y2="515.38" gradientTransform="translate(1008.36 960.9) rotate(-179.97)" xlink:href="#linear-gradient"/><linearGradient id="linear-gradient-5" x1="445.21" y1="237.76" x2="445.21" y2="333.2" gradientTransform="translate(949.36 125.63) rotate(129.74)" xlink:href="#linear-gradient"/><linearGradient id="linear-gradient-6" x1="207.61" y1="165.66" x2="207.61" y2="261.1" gradientTransform="translate(504.42 190.14) rotate(129.74)" xlink:href="#linear-gradient"/><linearGradient id="linear-gradient-7" x1="326.22" y1="223.88" x2="326.22" y2="275.34" gradientTransform="translate(480.22 630.41) rotate(-149.44)" xlink:href="#linear-gradient"/><linearGradient id="linear-gradient-8" x1="504.49" y1="308.59" x2="504.49" y2="406.53" gradientTransform="matrix(1, 0, 0, 1, 0, 0)" xlink:href="#linear-gradient"/><linearGradient id="linear-gradient-9" x1="385.92" y1="164.33" x2="385.92" y2="262.27" gradientTransform="matrix(1, 0, 0, 1, 0, 0)" xlink:href="#linear-gradient"/><linearGradient id="linear-gradient-10" x1="267.43" y1="236.54" x2="267.43" y2="334.48" gradientTransform="matrix(1, 0, 0, 1, 0, 0)" xlink:href="#linear-gradient"/><linearGradient id="linear-gradient-11" x1="148.69" y1="92.43" x2="148.69" y2="190.37" gradientTransform="matrix(1, 0, 0, 1, 0, 0)" xlink:href="#linear-gradient"/><linearGradient id="linear-gradient-12" x1="306" y1="70.32" x2="306" y2="541.68" gradientTransform="matrix(1, 0, 0, 1, 0, 0)" xlink:href="#linear-gradient"/></defs><g id="Layer_2" data-name="Layer 2"><rect class="cls-1" x="134.3" y="249.84" width="28.71" height="265.89" rx="14.36" transform="translate(297.49 765.5) rotate(179.97)"/><rect class="cls-2" x="371.41" y="320.7" width="28.71" height="194.91" rx="14.36" transform="translate(771.72 836.14) rotate(179.97)"/><rect class="cls-3" x="252.9" y="366.6" width="28.71" height="149.07" rx="14.36" transform="translate(534.71 882.15) rotate(179.97)"/><rect class="cls-4" x="489.55" y="445.29" width="29.49" height="70.09" rx="14.75" transform="translate(1008.81 960.43) rotate(179.97)"/><rect class="cls-5" x="395.44" y="270.69" width="99.54" height="29.57" transform="translate(510.31 810.34) rotate(-129.74)"/><rect class="cls-6" x="157.85" y="198.59" width="99.54" height="29.57" transform="translate(176.26 509.44) rotate(-129.74)"/><rect class="cls-7" x="300.63" y="234.84" width="51.18" height="29.54" transform="translate(734.04 298.69) rotate(149.44)"/><path class="cls-8" d="M455.53,357.58a49,49,0,1,0,48.94-49A49,49,0,0,0,455.53,357.58Zm28.47,0a20.49,20.49,0,1,1,20.5,20.48A20.49,20.49,0,0,1,484,357.57Z"/><path class="cls-9" d="M337,213.32a49,49,0,1,0,48.94-49A49,49,0,0,0,337,213.32Zm28.48,0a20.49,20.49,0,1,1,20.5,20.48A20.48,20.48,0,0,1,365.44,213.31Z"/><path class="cls-10" d="M218.47,285.53a49,49,0,1,0,48.94-49A49,49,0,0,0,218.47,285.53Zm28.48,0A20.49,20.49,0,1,1,267.45,306,20.49,20.49,0,0,1,247,285.52Z"/><path class="cls-11" d="M99.73,141.42a49,49,0,1,0,48.94-49A49,49,0,0,0,99.73,141.42Zm28.48,0a20.48,20.48,0,1,1,20.5,20.48A20.49,20.49,0,0,1,128.21,141.41Z"/><polygon class="cls-12" points="579.51 530.68 579.51 541.68 32.49 541.68 32.49 70.32 43.49 70.32 43.49 530.68 579.51 530.68"/></g></svg>