<svg xmlns="http://www.w3.org/2000/svg" viewBox="0 0 50 50"><defs><style>.cls-1{fill:#5280df;}.cls-2,.cls-3{fill:none;stroke:#5280df;stroke-miterlimit:10;stroke-width:2px;}.cls-3{stroke-linecap:round;}</style></defs><g id="Layer_2" data-name="Layer 2"><g id="Layer_1-2" data-name="Layer 1"><path class="cls-1" d="M25,50A25,25,0,1,1,50,25,25,25,0,0,1,25,50ZM25,1.9A23.1,23.1,0,1,0,48.1,25,23.14,23.14,0,0,0,25,1.9Z"/><circle class="cls-2" cx="11.41" cy="27.95" r="2.33"/><circle class="cls-2" cx="19.36" cy="18.27" r="2.33"/><circle class="cls-2" cx="27.31" cy="23.11" r="2.33"/><circle class="cls-2" cx="35.27" cy="13.44" r="2.33"/><line class="cls-2" x1="13.21" y1="25.76" x2="17.88" y2="20.07"/><line class="cls-2" x1="21.35" y1="19.48" x2="25.33" y2="21.9"/><line class="cls-2" x1="28.85" y1="21.24" x2="33.79" y2="15.23"/><line class="cls-3" x1="11.41" y1="34.78" x2="11.41" y2="37.5"/><line class="cls-3" x1="19.36" y1="26.41" x2="19.36" y2="37.5"/><line class="cls-3" x1="27.31" y1="29.52" x2="27.31" y2="37.5"/><line class="cls-3" x1="35.27" y1="21.63" x2="35.27" y2="37.5"/></g></g></svg>