<svg xmlns="http://www.w3.org/2000/svg" xmlns:xlink="http://www.w3.org/1999/xlink" viewBox="0 0 612 612"><defs><style>.cls-1{fill:none;stroke:#5280df;stroke-width:28.1px;}.cls-1,.cls-10,.cls-11,.cls-12,.cls-2,.cls-3,.cls-4,.cls-5,.cls-6,.cls-7,.cls-8,.cls-9{stroke-miterlimit:10;}.cls-10,.cls-11,.cls-12,.cls-2,.cls-3,.cls-4,.cls-5,.cls-6,.cls-7,.cls-8,.cls-9{stroke:#232323;}.cls-2{stroke-width:0.91px;fill:url(#linear-gradient);}.cls-3{stroke-width:0.78px;fill:url(#linear-gradient-2);}.cls-4{stroke-width:0.68px;fill:url(#linear-gradient-3);}.cls-5{stroke-width:0.48px;fill:url(#linear-gradient-4);}.cls-6,.cls-7{stroke-width:0.62px;}.cls-6{fill:url(#linear-gradient-5);}.cls-7{fill:url(#linear-gradient-6);}.cls-8{stroke-width:0.45px;fill:url(#linear-gradient-7);}.cls-10,.cls-11,.cls-12,.cls-9{stroke-width:0.98px;}.cls-9{fill:url(#linear-gradient-8);}.cls-10{fill:url(#linear-gradient-9);}.cls-11{fill:url(#linear-gradient-10);}.cls-12{fill:url(#linear-gradient-11);}</style><linearGradient id="linear-gradient" x1="473.53" y1="255.06" x2="473.53" y2="505.65" gradientUnits="userSpaceOnUse"><stop offset="0" stop-color="#fff"/><stop offset="0.6" stop-color="#e2e2e2"/><stop offset="1" stop-color="#ccc"/></linearGradient><linearGradient id="linear-gradient-2" x1="250.08" y1="321.95" x2="250.08" y2="505.65" xlink:href="#linear-gradient"/><linearGradient id="linear-gradient-3" x1="361.78" y1="365.15" x2="361.78" y2="505.65" xlink:href="#linear-gradient"/><linearGradient id="linear-gradient-4" x1="138.4" y1="439.41" x2="138.4" y2="505.47" xlink:href="#linear-gradient"/><linearGradient id="linear-gradient-5" x1="292.76" y1="222.3" x2="138.97" y2="309.67" gradientTransform="translate(83.19 89.21) scale(0.51 0.75)" xlink:href="#linear-gradient"/><linearGradient id="linear-gradient-6" x1="672.64" y1="393.5" x2="518.84" y2="480.86" gradientTransform="translate(111.68 -107.6) scale(0.51 0.75)" xlink:href="#linear-gradient"/><linearGradient id="linear-gradient-7" x1="238.63" y1="225.66" x2="389.4" y2="315.66" gradientTransform="translate(223.31 52.07) scale(0.26 0.75)" xlink:href="#linear-gradient"/><linearGradient id="linear-gradient-8" x1="138.4" y1="311.07" x2="138.4" y2="403.37" xlink:href="#linear-gradient"/><linearGradient id="linear-gradient-9" x1="250.08" y1="175.05" x2="250.08" y2="267.35" xlink:href="#linear-gradient"/><linearGradient id="linear-gradient-10" x1="361.78" y1="243.06" x2="361.78" y2="335.36" xlink:href="#linear-gradient"/><linearGradient id="linear-gradient-11" x1="473.63" y1="107.19" x2="473.63" y2="199.49" xlink:href="#linear-gradient"/></defs><g id="Layer_2" data-name="Layer 2"><circle class="cls-1" cx="138.37" cy="357.22" r="32.74"/><circle class="cls-1" cx="250.08" cy="221.2" r="32.74"/><circle class="cls-1" cx="361.78" cy="289.21" r="32.74"/><circle class="cls-1" cx="473.63" cy="153.34" r="32.74"/><line class="cls-1" x1="163.66" y1="326.44" x2="229.28" y2="246.49"/><line class="cls-1" x1="278.04" y1="238.2" x2="333.96" y2="272.21"/><line class="cls-1" x1="383.42" y1="262.93" x2="452.83" y2="178.49"/><rect class="cls-2" x="460" y="255.06" width="27.06" height="250.59" rx="13.53"/><rect class="cls-3" x="236.55" y="321.95" width="27.06" height="183.7" rx="13.53"/><rect class="cls-4" x="348.25" y="365.15" width="27.06" height="140.49" rx="13.53"/><rect class="cls-5" x="124.5" y="439.41" width="27.79" height="66.06" rx="13.9"/><rect class="cls-6" x="147.32" y="275.32" width="93.81" height="27.87" transform="translate(-152.39 253.86) rotate(-50.29)"/><rect class="cls-7" x="371.22" y="207.27" width="93.81" height="27.87" transform="translate(-19.19 401.52) rotate(-50.29)"/><rect class="cls-8" x="282.24" y="241.48" width="48.23" height="27.84" transform="translate(172.23 -120.23) rotate(30.53)"/><path class="cls-9" d="M138.39,311.07a46.15,46.15,0,1,0,46.15,46.15A46.15,46.15,0,0,0,138.39,311.07Zm0,65.46a19.31,19.31,0,1,1,19.31-19.31A19.31,19.31,0,0,1,138.39,376.53Z"/><path class="cls-10" d="M250.07,175.05a46.15,46.15,0,1,0,46.15,46.15A46.15,46.15,0,0,0,250.07,175.05Zm0,65.46a19.31,19.31,0,1,1,19.31-19.31A19.31,19.31,0,0,1,250.07,240.51Z"/><path class="cls-11" d="M361.78,243.06a46.15,46.15,0,1,0,46.15,46.15A46.15,46.15,0,0,0,361.78,243.06Zm0,65.46a19.31,19.31,0,1,1,19.31-19.31A19.31,19.31,0,0,1,361.78,308.52Z"/><path class="cls-12" d="M473.62,107.19a46.15,46.15,0,1,0,46.15,46.15A46.15,46.15,0,0,0,473.62,107.19Zm0,65.46a19.31,19.31,0,1,1,19.31-19.31A19.31,19.31,0,0,1,473.62,172.65Z"/></g></svg>