<?xml version="1.0" encoding="iso-8859-1"?>
<!-- Generator: Adobe Illustrator 21.1.0, SVG Export Plug-In . SVG Version: 6.00 Build 0)  -->
<svg version="1.1" xmlns="http://www.w3.org/2000/svg" xmlns:xlink="http://www.w3.org/1999/xlink" x="0px" y="0px"
	 viewBox="0 0 50 50" style="enable-background:new 0 0 50 50;" xml:space="preserve">
<g id="HSL">
	<path style="fill:#5280DF;" d="M25,50C11.215,50,0,38.785,0,25C0,11.215,11.215,0,25,0c13.785,0,25,11.215,25,25
		C50,38.785,38.785,50,25,50z M25,1.905C12.265,1.905,1.905,12.265,1.905,25S12.265,48.095,25,48.095S48.095,37.735,48.095,25
		S37.735,1.905,25,1.905z"/>
	<path style="fill:#5280DF;" d="M25.179,20.714c-0.526,0-0.952-0.426-0.952-0.952v-6.667c0-0.526,0.426-0.952,0.952-0.952
		c0.526,0,0.952,0.426,0.952,0.952v6.667C26.131,20.288,25.705,20.714,25.179,20.714z"/>
	<path style="fill:#5280DF;" d="M19.167,29.286c-0.526,0-0.952-0.426-0.952-0.952v-6.667c0-0.526,0.426-0.952,0.952-0.952
		c0.526,0,0.952,0.426,0.952,0.952v6.667C20.119,28.859,19.693,29.286,19.167,29.286z"/>
	<path style="fill:#5280DF;" d="M28.81,37.857c-0.526,0-0.952-0.426-0.952-0.952v-6.667c0-0.526,0.426-0.952,0.952-0.952
		c0.526,0,0.952,0.426,0.952,0.952v6.667C29.762,37.431,29.335,37.857,28.81,37.857z"/>
	<path style="fill:#5280DF;" d="M19.167,25.952h-6.071c-0.526,0-0.952-0.426-0.952-0.952s0.426-0.952,0.952-0.952h6.071
		c0.526,0,0.952,0.426,0.952,0.952S19.693,25.952,19.167,25.952z"/>
	<path style="fill:#5280DF;" d="M36.905,25.952H23.929c-0.526,0-0.952-0.426-0.952-0.952s0.426-0.952,0.952-0.952h12.976
		c0.526,0,0.952,0.426,0.952,0.952S37.431,25.952,36.905,25.952z"/>
	<path style="fill:#5280DF;" d="M25.179,17.381H13.095c-0.526,0-0.952-0.426-0.952-0.952c0-0.526,0.426-0.952,0.952-0.952h12.083
		c0.526,0,0.952,0.426,0.952,0.952C26.131,16.955,25.705,17.381,25.179,17.381z"/>
	<path style="fill:#5280DF;" d="M36.905,17.381H29.94c-0.526,0-0.952-0.426-0.952-0.952c0-0.526,0.426-0.952,0.952-0.952h6.964
		c0.526,0,0.952,0.426,0.952,0.952C37.857,16.955,37.431,17.381,36.905,17.381z"/>
	<path style="fill:#5280DF;" d="M28.81,34.524H13.095c-0.526,0-0.952-0.426-0.952-0.952c0-0.526,0.426-0.952,0.952-0.952H28.81
		c0.526,0,0.952,0.426,0.952,0.952C29.762,34.097,29.335,34.524,28.81,34.524z"/>
	<path style="fill:#5280DF;" d="M36.905,34.524h-3.333c-0.526,0-0.952-0.426-0.952-0.952c0-0.526,0.426-0.952,0.952-0.952h3.333
		c0.526,0,0.952,0.426,0.952,0.952C37.857,34.097,37.431,34.524,36.905,34.524z"/>
</g>
<g id="Layer_1">
</g>
</svg>
