<svg id="Layer_1" data-name="Layer 1" xmlns="http://www.w3.org/2000/svg" xmlns:xlink="http://www.w3.org/1999/xlink" viewBox="0 0 612 612"><defs><style>.cls-1{stroke:#232323;stroke-miterlimit:10;fill:url(#linear-gradient);}</style><linearGradient id="linear-gradient" x1="306.99" y1="107.25" x2="306.99" y2="507.75" gradientUnits="userSpaceOnUse"><stop offset="0" stop-color="#fff"/><stop offset="0.6" stop-color="#e2e2e2"/><stop offset="1" stop-color="#ccc"/></linearGradient></defs><path id="HSL" class="cls-1" d="M366.47,374.25a14.86,14.86,0,0,0-14.87,14.83v37.09H121.11a14.84,14.84,0,1,0,0,29.67H351.6v37.08a14.87,14.87,0,0,0,29.74,0V389.08A14.86,14.86,0,0,0,366.47,374.25ZM121.11,322.33H201v37.09a14.87,14.87,0,0,0,29.74,0V255.58a14.87,14.87,0,0,0-29.74,0v37.09H121.11a14.83,14.83,0,1,0,0,29.66Zm371.76-29.66H290.26a14.83,14.83,0,1,0,0,29.66H492.87a14.83,14.83,0,1,0,0-29.66ZM121.11,188.83h173.8v37.09a14.87,14.87,0,0,0,29.74,0V122.08a14.87,14.87,0,0,0-29.74,0v37.09H121.11a14.83,14.83,0,1,0,0,29.66Zm263,0H492.87a14.83,14.83,0,1,0,0-29.66H384.12a14.83,14.83,0,1,0,0,29.66ZM492.87,426.17H440.82a14.84,14.84,0,1,0,0,29.67h52.05a14.84,14.84,0,1,0,0-29.67Z"/></svg>