<svg id="Layer_1" data-name="Layer 1" xmlns="http://www.w3.org/2000/svg" xmlns:xlink="http://www.w3.org/1999/xlink" viewBox="0 0 612 612"><defs><style>.cls-1{stroke:#232323;stroke-miterlimit:10;stroke-width:1.31px;fill:url(#linear-gradient);}</style><linearGradient id="linear-gradient" x1="306" y1="28.24" x2="306" y2="583.76" gradientUnits="userSpaceOnUse"><stop offset="0" stop-color="#fafafa"/><stop offset="1" stop-color="#ebebeb"/></linearGradient></defs><path id="HSL" class="cls-1" d="M388.51,398.59a20.61,20.61,0,0,0-20.63,20.57V470.6H48.17a20.58,20.58,0,1,0,0,41.15H367.88v51.44a20.63,20.63,0,0,0,41.25,0v-144A20.61,20.61,0,0,0,388.51,398.59Zm-340.34-72H159V378a20.63,20.63,0,0,0,41.25,0V234A20.63,20.63,0,0,0,159,234v51.43H48.17a20.58,20.58,0,1,0,0,41.16Zm515.66-41.16h-281a20.58,20.58,0,1,0,0,41.16h281a20.58,20.58,0,1,0,0-41.16ZM48.17,141.4H289.25v51.44a20.63,20.63,0,0,0,41.25,0v-144a20.63,20.63,0,0,0-41.25,0v51.44H48.17a20.58,20.58,0,1,0,0,41.15Zm364.82,0H563.83a20.58,20.58,0,1,0,0-41.15H413a20.58,20.58,0,1,0,0,41.15ZM563.83,470.6H491.64a20.58,20.58,0,1,0,0,41.15h72.19a20.58,20.58,0,1,0,0-41.15Z"/></svg>