<svg id="Layer_1" data-name="Layer 1" xmlns="http://www.w3.org/2000/svg" xmlns:xlink="http://www.w3.org/1999/xlink" viewBox="0 0 612 612"><defs><style>.cls-1{stroke:#232323;stroke-miterlimit:10;fill:url(#linear-gradient);}</style><linearGradient id="linear-gradient" x1="305.49" y1="107.25" x2="305.49" y2="503.76" gradientUnits="userSpaceOnUse"><stop offset="0" stop-color="#fff"/><stop offset="0.6" stop-color="#e2e2e2"/><stop offset="1" stop-color="#ccc"/></linearGradient></defs><path id="ImportTemplates" class="cls-1" d="M453.82,107.25H157.15c-28.63,0-51.92,23.05-51.92,51.4v293.7c0,28.35,23.29,51.4,51.92,51.4H257.28a14.69,14.69,0,1,0,0-29.37H157.15a22.17,22.17,0,0,1-22.25-22V158.65a22.16,22.16,0,0,1,22.25-22H453.82a22.16,22.16,0,0,1,22.25,22V361.1a14.84,14.84,0,0,0,29.67,0V158.65C505.74,130.3,482.45,107.25,453.82,107.25ZM490.91,410.4H348.71L388,371.48a14.57,14.57,0,0,0,0-20.77,14.92,14.92,0,0,0-21,0l-64.63,64a13.15,13.15,0,0,0-1.84,2.23c-.13.19-.22.41-.34.61a15.27,15.27,0,0,0-1,1.91c-.11.28-.17.59-.26.87a15.39,15.39,0,0,0-.58,1.86,14.26,14.26,0,0,0,0,5.82,11.8,11.8,0,0,0,.58,1.86c.1.3.14.59.26.87a16.69,16.69,0,0,0,1,1.91c.12.2.21.42.34.61a15.89,15.89,0,0,0,1.84,2.24l64.63,64a14.91,14.91,0,0,0,21,0,14.56,14.56,0,0,0,0-20.76l-39.31-38.92h142.2a14.69,14.69,0,1,0,0-29.37Z"/></svg>