<?xml version="1.0" encoding="iso-8859-1"?>
<!-- Generator: Adobe Illustrator 21.1.0, SVG Export Plug-In . SVG Version: 6.00 Build 0)  -->
<svg version="1.1" xmlns="http://www.w3.org/2000/svg" xmlns:xlink="http://www.w3.org/1999/xlink" x="0px" y="0px"
	 viewBox="0 0 50 50" style="enable-background:new 0 0 50 50;" xml:space="preserve">
<g id="Invert">
	<path style="fill:#5280DF;" d="M25,50C11.215,50,0,38.785,0,25C0,11.215,11.215,0,25,0c13.785,0,25,11.215,25,25
		C50,38.785,38.785,50,25,50z M25,1.905C12.265,1.905,1.905,12.265,1.905,25S12.265,48.095,25,48.095S48.095,37.735,48.095,25
		S37.735,1.905,25,1.905z"/>
	<path style="fill:#5280DF;" d="M25,32.013L25,32.013c-0.323,0-0.624-0.164-0.799-0.434L16.961,20.41
		c-0.19-0.293-0.204-0.666-0.038-0.973c0.167-0.307,0.488-0.498,0.837-0.498H32.24c0.349,0,0.67,0.191,0.837,0.498
		c0.167,0.307,0.153,0.68-0.037,0.973l-7.24,11.168C25.624,31.849,25.323,32.013,25,32.013z M19.513,20.844L25,29.309l5.487-8.465
		H19.513z"/>
	<polygon style="fill:#5280DF;" points="25,31.06 25,19.892 17.761,19.892 	"/>
	<path style="fill:#5280DF;" d="M34.524,37.857H15.476c-1.838,0-3.333-1.496-3.333-3.333V15.476c0-1.838,1.495-3.333,3.333-3.333
		h19.048c1.838,0,3.333,1.495,3.333,3.333v19.048C37.857,36.362,36.362,37.857,34.524,37.857z M15.476,14.048
		c-0.788,0-1.429,0.641-1.429,1.429v19.048c0,0.788,0.641,1.429,1.429,1.429h19.048c0.788,0,1.429-0.641,1.429-1.429V15.476
		c0-0.788-0.641-1.429-1.429-1.429H15.476z"/>
</g>
<g id="Layer_1">
</g>
</svg>
