<?xml version="1.0" encoding="iso-8859-1"?>
<!-- Generator: Adobe Illustrator 21.1.0, SVG Export Plug-In . SVG Version: 6.00 Build 0)  -->
<svg version="1.1" xmlns="http://www.w3.org/2000/svg" xmlns:xlink="http://www.w3.org/1999/xlink" x="0px" y="0px"
	 viewBox="0 0 50 50" style="enable-background:new 0 0 50 50;" xml:space="preserve">
<g id="InvertColor">
	<path style="fill:#5280DF;" d="M25,50C11.215,50,0,38.785,0,25C0,11.215,11.215,0,25,0c13.785,0,25,11.215,25,25
		C50,38.785,38.785,50,25,50z M25,1.905C12.265,1.905,1.905,12.265,1.905,25S12.265,48.095,25,48.095S48.095,37.735,48.095,25
		S37.735,1.905,25,1.905z"/>
	<path style="fill:#5280DF;" d="M25,37.857c-7.089,0-12.857-5.768-12.857-12.857S17.911,12.143,25,12.143S37.857,17.911,37.857,25
		S32.089,37.857,25,37.857z M25,14.048c-6.039,0-10.952,4.913-10.952,10.952c0,6.039,4.913,10.952,10.952,10.952
		c6.039,0,10.952-4.913,10.952-10.952C35.952,18.961,31.039,14.048,25,14.048z"/>
	<path style="fill:#5280DF;" d="M25,36.905c-6.575,0-11.905-5.33-11.905-11.905S18.425,13.095,25,13.095V36.905z"/>
	<path style="fill:#5280DF;" d="M25.952,37.857H25c-7.089,0-12.857-5.768-12.857-12.857S17.911,12.143,25,12.143h0.952V37.857z
		 M24.048,14.089c-5.595,0.484-10,5.193-10,10.911s4.405,10.427,10,10.911V14.089z"/>
</g>
<g id="Layer_1">
</g>
</svg>
