<svg id="Layer_1" data-name="Layer 1" xmlns="http://www.w3.org/2000/svg" xmlns:xlink="http://www.w3.org/1999/xlink" viewBox="0 0 612 612"><defs><style>.cls-1,.cls-3{stroke:#232323;stroke-miterlimit:10;stroke-width:1.31px;}.cls-1{fill:url(#linear-gradient);}.cls-2{opacity:0.6;}.cls-3{fill:url(#linear-gradient-2);}</style><linearGradient id="linear-gradient" x1="306" y1="176.45" x2="306" y2="455.91" gradientUnits="userSpaceOnUse"><stop offset="0" stop-color="#fafafa"/><stop offset="1" stop-color="#ebebeb"/></linearGradient><linearGradient id="linear-gradient-2" x1="306" y1="31.14" x2="306" y2="580.86" xlink:href="#linear-gradient"/></defs><g id="Invert"><path class="cls-1" d="M477.37,187.07a20.18,20.18,0,0,0-17.74-10.62H152.39a20.2,20.2,0,0,0-17.76,10.62,20.42,20.42,0,0,0,.81,20.79L289.05,446.63a20.12,20.12,0,0,0,33.9,0L476.58,207.86A20.49,20.49,0,0,0,477.37,187.07ZM306,398.13v-181H422.44Z"/><g class="cls-2"><path class="cls-3" d="M508.09,580.86H103.91c-39,0-70.73-32-70.73-71.26V102.4c0-39.3,31.73-71.26,70.73-71.26H508.09c39,0,70.73,32,70.73,71.26V509.61C578.82,548.9,547.09,580.86,508.09,580.86Zm-404.18-509A30.46,30.46,0,0,0,73.6,102.4V509.61a30.47,30.47,0,0,0,30.31,30.54H508.09a30.47,30.47,0,0,0,30.31-30.54V102.4a30.46,30.46,0,0,0-30.31-30.54Z"/></g></g></svg>