<svg id="Layer_1" data-name="Layer 1" xmlns="http://www.w3.org/2000/svg" xmlns:xlink="http://www.w3.org/1999/xlink" viewBox="0 0 612 612"><defs><style>.cls-1,.cls-3{stroke:#232323;stroke-miterlimit:10;}.cls-1{fill:url(#linear-gradient);}.cls-2{opacity:0.6;}.cls-3{fill:url(#linear-gradient-2);}</style><linearGradient id="linear-gradient" x1="306.99" y1="211.91" x2="306.99" y2="417.04" gradientUnits="userSpaceOnUse"><stop offset="0" stop-color="#fff"/><stop offset="0.6" stop-color="#e2e2e2"/><stop offset="1" stop-color="#ccc"/></linearGradient><linearGradient id="linear-gradient-2" x1="306.99" y1="105.25" x2="306.99" y2="508.75" xlink:href="#linear-gradient"/></defs><g id="Invert"><path class="cls-1" d="M432.78,219.71a14.8,14.8,0,0,0-13-7.8H194.24a14.84,14.84,0,0,0-13,7.8,15,15,0,0,0,.59,15.26L294.54,410.22a14.76,14.76,0,0,0,24.89,0L432.2,235A15.06,15.06,0,0,0,432.78,219.71ZM307,374.63V241.8h85.47Z"/><g class="cls-2"><path class="cls-3" d="M455.32,508.75H158.65c-28.63,0-51.92-23.46-51.92-52.3V157.55c0-28.84,23.29-52.3,51.92-52.3H455.32c28.63,0,51.92,23.46,51.92,52.3v298.9C507.24,485.29,484,508.75,455.32,508.75ZM158.65,135.14a22.35,22.35,0,0,0-22.25,22.41v298.9a22.36,22.36,0,0,0,22.25,22.41H455.32a22.36,22.36,0,0,0,22.25-22.41V157.55a22.35,22.35,0,0,0-22.25-22.41Z"/></g></g></svg>