<svg id="Layer_1" data-name="Layer 1" xmlns="http://www.w3.org/2000/svg" xmlns:xlink="http://www.w3.org/1999/xlink" viewBox="0 0 612 612"><defs><style>.cls-1,.cls-2{stroke:#232323;stroke-miterlimit:10;}.cls-1{fill:url(#linear-gradient);}.cls-2{fill:url(#linear-gradient-2);}</style><linearGradient id="linear-gradient" x1="306" y1="281" x2="306" y2="331" gradientUnits="userSpaceOnUse"><stop offset="0" stop-color="#fff"/><stop offset="0.6" stop-color="#e2e2e2"/><stop offset="1" stop-color="#ccc"/></linearGradient><linearGradient id="linear-gradient-2" y1="293.25" y2="318.75" xlink:href="#linear-gradient"/></defs><g id="LastFrameButton"><path class="cls-1" d="M331,327.67a3.33,3.33,0,0,1-3.33,3.33H284.33a3.33,3.33,0,0,1-3.33-3.33V284.33a3.33,3.33,0,0,1,3.33-3.33h43.34a3.33,3.33,0,0,1,3.33,3.33Z"/><path class="cls-2" d="M313.06,293.25a1.67,1.67,0,0,0-1.67,1.67v8.66l-12.46-10.15a1.23,1.23,0,0,0-1.86,1.06v23a1.23,1.23,0,0,0,1.86,1.07l12.46-10.16v8.67a1.77,1.77,0,0,0,1.88,1.66,1.66,1.66,0,0,0,1.66-1.66V294.92A1.77,1.77,0,0,0,313.06,293.25Z"/></g></svg>