<svg id="Layer_1" data-name="Layer 1" xmlns="http://www.w3.org/2000/svg" xmlns:xlink="http://www.w3.org/1999/xlink" viewBox="0 0 612 612"><defs><style>.cls-1,.cls-2{stroke:#232323;stroke-miterlimit:10;stroke-width:1.31px;}.cls-1{fill:url(#linear-gradient);}.cls-2{fill:url(#linear-gradient-2);}</style><linearGradient id="linear-gradient" x1="306" y1="117.42" x2="306" y2="494.58" gradientUnits="userSpaceOnUse"><stop offset="0" stop-color="#fafafa"/><stop offset="1" stop-color="#ebebeb"/></linearGradient><linearGradient id="linear-gradient-2" x1="306" y1="31" x2="306" y2="581" xlink:href="#linear-gradient"/></defs><path class="cls-1" d="M139.05,494.58A20.24,20.24,0,0,1,124.75,460l333.9-336.69A20.23,20.23,0,1,1,487.25,152L153.35,488.65A20.13,20.13,0,0,1,139.05,494.58Z"/><path class="cls-2" d="M509.59,581H102.4a71.35,71.35,0,0,1-71.25-71.3V102.3A71.35,71.35,0,0,1,102.4,31H509.59a71.35,71.35,0,0,1,71.26,71.3V509.71A71.35,71.35,0,0,1,509.59,581ZM102.24,58.87c-16.84,0-43.15,25-43.15,41.84v404.7C59.09,537.34,81,559,108.81,559H511.7c16.83,0,44.34-29.19,42.89-47.09l.34-414.18c0-16.84-23.37-38.81-40.21-38.81Z"/></svg>