<svg id="Layer_1" data-name="Layer 1" xmlns="http://www.w3.org/2000/svg" xmlns:xlink="http://www.w3.org/1999/xlink" viewBox="0 0 612 612"><defs><style>.cls-1,.cls-2{stroke:#232323;stroke-miterlimit:10;stroke-width:1.31px;}.cls-1{fill:url(#linear-gradient);}.cls-2{fill:url(#linear-gradient-2);}</style><linearGradient id="linear-gradient" x1="305.39" y1="32.33" x2="305.39" y2="580.13" gradientUnits="userSpaceOnUse"><stop offset="0" stop-color="#fafafa"/><stop offset="1" stop-color="#ebebeb"/></linearGradient><linearGradient id="linear-gradient-2" x1="461.88" y1="32.32" x2="461.88" y2="143.12" xlink:href="#linear-gradient"/></defs><path class="cls-1" d="M396.46,183.77a30.43,30.43,0,0,1-30.35-30.42v-121H164.4a71,71,0,0,0-70.81,71V509.12a71,71,0,0,0,70.81,71h282a71,71,0,0,0,70.85-71V183.77Zm22.21,259.14L361.76,507A79.37,79.37,0,0,1,242.77,402l80.08-90.25a41.12,41.12,0,0,0-3.54-58.18A41.43,41.43,0,0,0,261,257.08l-56.9,64.11A19,19,0,1,1,175.53,296l56.9-64.1a79.69,79.69,0,0,1,112.18-6.83,79.08,79.08,0,0,1,6.82,111.89l-80.1,90.25a41.28,41.28,0,0,0,61.89,54.63l56.89-64.12a19,19,0,1,1,28.56,25.21Z"/><path class="cls-2" d="M517.19,143.12H406.58V32.32h0C477.41,103.34,449.54,75.29,517.19,143.12Z"/></svg>