<svg id="Layer_1" data-name="Layer 1" xmlns="http://www.w3.org/2000/svg" xmlns:xlink="http://www.w3.org/1999/xlink" viewBox="0 0 612 612"><defs><style>.cls-1{stroke:#232323;stroke-miterlimit:10;fill:url(#linear-gradient);}</style><linearGradient id="linear-gradient" x1="306.49" y1="108.25" x2="306.49" y2="507.75" gradientUnits="userSpaceOnUse"><stop offset="0" stop-color="#fff"/><stop offset="0.6" stop-color="#e2e2e2"/><stop offset="1" stop-color="#ccc"/></linearGradient></defs><path id="LineProfile" class="cls-1" d="M369.11,217.33a14.78,14.78,0,0,0-20.87,20.92l47,47.08a32.15,32.15,0,0,1,0,45.34,31.93,31.93,0,0,1-45.23,0l-66.1-66.28a61.58,61.58,0,0,0-87,87.2l47,47.08a14.78,14.78,0,1,0,20.87-20.92l-47-47.08A32,32,0,1,1,263,285.33l66.11,66.28a61.37,61.37,0,0,0,87,0,61.82,61.82,0,0,0,0-87.2Zm85-109.08H158.89A51.79,51.79,0,0,0,107.23,160V456a51.78,51.78,0,0,0,51.66,51.78H454.08A51.78,51.78,0,0,0,505.74,456V160A51.78,51.78,0,0,0,454.08,108.25ZM476.22,456a22.19,22.19,0,0,1-22.14,22.19H158.89A22.2,22.2,0,0,1,136.75,456V160a22.2,22.2,0,0,1,22.14-22.2H454.08A22.19,22.19,0,0,1,476.22,160Z"/></svg>