<svg id="Layer_1" data-name="Layer 1" xmlns="http://www.w3.org/2000/svg" xmlns:xlink="http://www.w3.org/1999/xlink" viewBox="0 0 612 612"><defs><style>.cls-1,.cls-2{stroke:#232323;stroke-miterlimit:10;}.cls-1{opacity:0.6;isolation:isolate;fill:url(#linear-gradient);}.cls-2{fill:url(#linear-gradient-2);}</style><linearGradient id="linear-gradient" x1="306.49" y1="106.25" x2="306.49" y2="504.75" gradientUnits="userSpaceOnUse"><stop offset="0" stop-color="#fff"/><stop offset="0.6" stop-color="#e2e2e2"/><stop offset="1" stop-color="#ccc"/></linearGradient><linearGradient id="linear-gradient-2" x1="306.49" y1="206.48" x2="306.49" y2="404.51" xlink:href="#linear-gradient"/></defs><g id="Line"><path class="cls-1" d="M491,419.89a14.76,14.76,0,0,0-14.76,14.76v40.59H435.63a14.76,14.76,0,1,0,0,29.51H491A14.76,14.76,0,0,0,505.74,490V434.65A14.76,14.76,0,0,0,491,419.89ZM349.53,475.23h-86.1a14.76,14.76,0,0,0,0,29.52h86.1a14.76,14.76,0,1,0,0-29.52Zm-172.19,0H136.75V434.64a14.76,14.76,0,0,0-29.52,0V490A14.77,14.77,0,0,0,122,504.75h55.35a14.76,14.76,0,1,0,0-29.52ZM122,363.3a14.76,14.76,0,0,0,14.76-14.76V262.45a14.76,14.76,0,0,0-29.52,0v86.09A14.76,14.76,0,0,0,122,363.3Zm55.35-257H122A14.77,14.77,0,0,0,107.23,121v55.35a14.76,14.76,0,0,0,29.52,0V135.77h40.59a14.76,14.76,0,0,0,0-29.52Zm172.19,0h-86.1a14.76,14.76,0,0,0,0,29.52h86.1a14.76,14.76,0,1,0,0-29.52Zm141.45,0H435.63a14.76,14.76,0,1,0,0,29.52h40.59v40.59a14.76,14.76,0,0,0,29.52,0V121A14.76,14.76,0,0,0,491,106.25Zm0,141.44a14.76,14.76,0,0,0-14.76,14.76v86.09a14.76,14.76,0,0,0,29.52,0V262.45A14.76,14.76,0,0,0,491,247.69Z"/><path class="cls-2" d="M222.24,404.51a14.77,14.77,0,0,1-10.43-25.2L380.32,210.8a14.75,14.75,0,0,1,20.86,20.87L232.67,400.18A14.68,14.68,0,0,1,222.24,404.51Z"/></g></svg>