<svg id="Layer_1" data-name="Layer 1" xmlns="http://www.w3.org/2000/svg" xmlns:xlink="http://www.w3.org/1999/xlink" viewBox="0 0 612 612"><defs><style>.cls-1{stroke:#232323;stroke-miterlimit:10;fill:url(#linear-gradient);}</style><linearGradient id="linear-gradient" x1="306.48" y1="108.29" x2="306.48" y2="506.71" gradientUnits="userSpaceOnUse"><stop offset="0" stop-color="#fff"/><stop offset="0.6" stop-color="#e2e2e2"/><stop offset="1" stop-color="#ccc"/></linearGradient></defs><path id="Linked" class="cls-1" d="M310.57,423.41l-29.26,29a86.43,86.43,0,0,1-121.18,0,84.32,84.32,0,0,1,0-120l29.27-29a14.65,14.65,0,0,0,0-20.88,15,15,0,0,0-21.08,0l-29.27,29a113.66,113.66,0,0,0,0,161.71,116.45,116.45,0,0,0,163.34,0l29.26-29a14.64,14.64,0,0,0,0-20.87A15,15,0,0,0,310.57,423.41ZM473.92,141.73c-45-44.59-118.31-44.58-163.33,0l-29.27,29a14.65,14.65,0,0,0,0,20.88,15,15,0,0,0,21.08,0l29.27-29c33.41-33.06,87.77-33.08,121.16,0a84.35,84.35,0,0,1,0,120l-29.27,29a14.64,14.64,0,0,0,0,20.87,15,15,0,0,0,21.08,0l29.27-29A113.67,113.67,0,0,0,473.92,141.73ZM350.74,242.82,241.16,351.31a14.64,14.64,0,0,0,0,20.87,15,15,0,0,0,21.08,0L371.82,263.69a14.64,14.64,0,0,0,0-20.87A15,15,0,0,0,350.74,242.82Z"/></svg>