<svg id="Layer_1" data-name="Layer 1" xmlns="http://www.w3.org/2000/svg" xmlns:xlink="http://www.w3.org/1999/xlink" viewBox="0 0 612 612"><defs><style>.cls-1,.cls-2{stroke:#232323;stroke-miterlimit:10;}.cls-1{opacity:0.6;isolation:isolate;fill:url(#linear-gradient);}.cls-2{fill:url(#linear-gradient-2);}</style><linearGradient id="linear-gradient" x1="256.8" y1="107.25" x2="256.8" y2="505.75" gradientUnits="userSpaceOnUse"><stop offset="0" stop-color="#fff"/><stop offset="0.6" stop-color="#e2e2e2"/><stop offset="1" stop-color="#ccc"/></linearGradient><linearGradient id="linear-gradient-2" x1="399.65" y1="291.74" x2="399.65" y2="505.75" xlink:href="#linear-gradient"/></defs><g id="LinkStudies"><path class="cls-1" d="M393.45,107.25H120.14A14.83,14.83,0,0,0,105.24,122V491a14.83,14.83,0,0,0,14.9,14.75h114.3a14.76,14.76,0,1,0,0-29.51H135.05V136.77H378.54V241.93a14.91,14.91,0,0,0,29.82,0V122A14.83,14.83,0,0,0,393.45,107.25ZM238.17,291.74H175.44a14.84,14.84,0,0,0-14.91,14.76v62.11a14.85,14.85,0,0,0,14.91,14.76h62.73a14.84,14.84,0,0,0,14.91-14.76V306.5A14.84,14.84,0,0,0,238.17,291.74Zm-14.91,62.11H190.34V321.26h32.92v32.59ZM338.17,167.51H175.42a14.76,14.76,0,1,0,0,29.52H338.17a14.76,14.76,0,1,0,0-29.52Zm0,62.12H175.42a14.76,14.76,0,1,0,0,29.52H338.17a14.76,14.76,0,1,0,0-29.52Zm0,62.11H289.09a14.76,14.76,0,1,0,0,29.52h49.08a14.76,14.76,0,1,0,0-29.52ZM238.17,416H175.44a14.76,14.76,0,1,0,0,29.51h62.73a14.76,14.76,0,1,0,0-29.51Z"/><path class="cls-2" d="M395.64,444.6l-30.35,30.06a5.41,5.41,0,0,1-3.83,1.56,5.48,5.48,0,0,1-3.85-1.58L323,440.37a5.36,5.36,0,0,1,0-7.62l30.35-30.05a14.64,14.64,0,0,0,0-20.87,15,15,0,0,0-21.08,0l-30.36,30.08a34.62,34.62,0,0,0,0,49.36l34.61,34.26a35.5,35.5,0,0,0,49.85,0l30.36-30.06a14.64,14.64,0,0,0,0-20.87A15,15,0,0,0,395.64,444.6ZM497.41,336.24,462.8,302A35.48,35.48,0,0,0,413,302l-30.36,30a14.64,14.64,0,0,0,0,20.87,15,15,0,0,0,21.08,0L434,322.84a5.39,5.39,0,0,1,3.84-1.57,5.48,5.48,0,0,1,3.85,1.58l34.62,34.28a5.34,5.34,0,0,1,0,7.6l-30.35,30a14.64,14.64,0,0,0,0,20.87,15,15,0,0,0,21.08,0l30.33-30a34.69,34.69,0,0,0,0-49.37Zm-83.87,27.9-48.82,48.33a14.64,14.64,0,0,0,0,20.87,15,15,0,0,0,21.08,0L434.62,385a14.65,14.65,0,0,0,0-20.88A15,15,0,0,0,413.54,364.14Z"/></g></svg>