<?xml version="1.0" encoding="iso-8859-1"?>
<!-- Generator: Adobe Illustrator 21.1.0, SVG Export Plug-In . SVG Version: 6.00 Build 0)  -->
<svg version="1.1" xmlns="http://www.w3.org/2000/svg" xmlns:xlink="http://www.w3.org/1999/xlink" x="0px" y="0px"
	 viewBox="0 0 50 50" style="enable-background:new 0 0 50 50;" xml:space="preserve">
<g id="LoadAnn">
	<path style="fill:#5280DF;" d="M25,50C11.215,50,0,38.785,0,25C0,11.215,11.215,0,25,0c13.785,0,25,11.215,25,25
		C50,38.785,38.785,50,25,50z M25,1.905C12.265,1.905,1.905,12.265,1.905,25S12.265,48.095,25,48.095S48.095,37.735,48.095,25
		S37.735,1.905,25,1.905z"/>
	<path style="fill:#5280DF;" d="M36.905,35.714h-23.81c-0.526,0-0.952-0.426-0.952-0.952V15.238c0-0.526,0.426-0.952,0.952-0.952
		h9.166c0.891,0,1.728,0.347,2.357,0.976l2.199,2.199c0.266,0.266,0.634,0.419,1.011,0.419h9.076c0.526,0,0.952,0.426,0.952,0.952
		v15.93C37.857,35.288,37.431,35.714,36.905,35.714z M14.048,33.81h21.905V19.784h-8.124c-0.891,0-1.728-0.347-2.357-0.977
		l-2.199-2.199c-0.27-0.27-0.629-0.418-1.01-0.418h-8.214V33.81z"/>
	<path style="fill:#5280DF;" d="M36.905,24.399h-23.81c-0.526,0-0.952-0.426-0.952-0.952c0-0.526,0.426-0.952,0.952-0.952h23.81
		c0.526,0,0.952,0.426,0.952,0.952C37.857,23.973,37.431,24.399,36.905,24.399z"/>
	<rect x="17.192" y="27.337" style="fill:#5280DF;" width="6.171" height="3.659"/>
	<path style="fill:#5280DF;" d="M23.363,31.472h-6.171c-0.263,0-0.476-0.213-0.476-0.476v-3.659c0-0.263,0.213-0.476,0.476-0.476
		h6.171c0.263,0,0.476,0.213,0.476,0.476v3.659C23.839,31.259,23.626,31.472,23.363,31.472z M17.669,30.52h5.218v-2.706h-5.218
		V30.52z"/>
</g>
<g id="Layer_1">
</g>
</svg>
