<svg id="Layer_1" data-name="Layer 1" xmlns="http://www.w3.org/2000/svg" xmlns:xlink="http://www.w3.org/1999/xlink" viewBox="0 0 612 612"><defs><style>.cls-1,.cls-2{stroke:#232323;stroke-miterlimit:10;stroke-width:1.31px;}.cls-1{fill:url(#linear-gradient);}.cls-2{fill:url(#linear-gradient-2);}</style><linearGradient id="linear-gradient" x1="339.97" y1="80.79" x2="339.97" y2="466.64" gradientUnits="userSpaceOnUse"><stop offset="0" stop-color="#fafafa"/><stop offset="1" stop-color="#ebebeb"/></linearGradient><linearGradient id="linear-gradient-2" x1="272.03" y1="145.36" x2="272.03" y2="531.21" xlink:href="#linear-gradient"/></defs><path id="LoadAnn" class="cls-1" d="M565.1,145.5H393.47A27.93,27.93,0,0,1,374.36,138l-41.59-39.6A64.26,64.26,0,0,0,288.2,80.79H114.85c-9.94,0-18,7.69-18,17.15V449.48c0,9.47,8.06,17.16,18,17.16H565.1c9.94,0,18-7.69,18-17.16V162.64C583.11,153.16,575,145.5,565.1,145.5ZM509.92,382.28H166.37V265H509.92V382.28Zm0-141H166.37V162.7H295.2a25.5,25.5,0,0,1,15.85,5.21l34.49,27.41c9.87,7.84,23,12.16,37,12.16H509.92v33.78ZM215.69,353.16h96.78c4.12,0,7.47-2.66,7.47-5.94v-45.6c0-3.28-3.35-5.93-7.47-5.93H215.69c-4.12,0-7.47,2.66-7.47,5.93v45.6C208.22,350.5,211.57,353.16,215.69,353.16Z"/><path class="cls-2" d="M515.17,495.89v18.16c0,9.47-8.07,17.16-18,17.16H46.9c-9.94,0-18-7.69-18-17.16V162.51c0-9.47,8.07-17.15,18-17.15h19V478.73c0,9.47,8.07,17.16,18,17.16Z"/></svg>