<svg id="Layer_1" data-name="Layer 1" xmlns="http://www.w3.org/2000/svg" xmlns:xlink="http://www.w3.org/1999/xlink" viewBox="0 0 612 612"><defs><style>.cls-1{stroke:#232323;stroke-miterlimit:10;fill:url(#linear-gradient);}</style><linearGradient id="linear-gradient" x1="307.49" y1="142.3" x2="307.49" y2="458.5" gradientUnits="userSpaceOnUse"><stop offset="0" stop-color="#fff"/><stop offset="0.6" stop-color="#e2e2e2"/><stop offset="1" stop-color="#ccc"/></linearGradient></defs><path id="LoadAnn" class="cls-1" d="M492,195.32H351.32a22.85,22.85,0,0,1-15.66-6.17l-34.08-32.44a52.65,52.65,0,0,0-36.53-14.41H123c-8.14,0-14.76,6.3-14.76,14v288.1c0,7.75,6.62,14.05,14.76,14.05H492c8.15,0,14.76-6.3,14.76-14.05V209.38C506.74,201.61,500.13,195.32,492,195.32ZM446.76,389.37H165.22V293.26H446.76v96.11Zm0-115.56H165.22V209.42H270.8a20.9,20.9,0,0,1,13,4.27l28.27,22.46c8.09,6.43,18.85,10,30.29,10H446.76v27.69ZM205.64,365.5H285c3.37,0,6.12-2.18,6.12-4.86V323.27c0-2.69-2.75-4.86-6.12-4.86H205.64c-3.38,0-6.12,2.17-6.12,4.86v37.37C199.52,363.32,202.26,365.5,205.64,365.5Z"/></svg>