<svg id="Layer_1" data-name="Layer 1" xmlns="http://www.w3.org/2000/svg" xmlns:xlink="http://www.w3.org/1999/xlink" viewBox="0 0 612 612"><defs><style>.cls-1{stroke:#232323;stroke-miterlimit:10;fill:url(#linear-gradient);}</style><linearGradient id="linear-gradient" x1="305.49" y1="107.25" x2="305.49" y2="508.75" gradientUnits="userSpaceOnUse"><stop offset="0" stop-color="#fff"/><stop offset="0.6" stop-color="#e2e2e2"/><stop offset="1" stop-color="#ccc"/></linearGradient></defs><path id="Magnify" class="cls-1" d="M501.39,483.37l-76-76.19a181.56,181.56,0,0,0,43.26-117.77C468.66,189,387.15,107.25,287,107.25S105.23,189,105.23,289.41,186.74,471.58,287,471.58a180.55,180.55,0,0,0,117.48-43.37l76,76.19a14.85,14.85,0,0,0,21-21Zm-97-97.26-96.46-96.7,96.46-96.7a152.39,152.39,0,0,1,0,193.4Zm-21-214.43-96.46,96.71L190.48,171.7a151.44,151.44,0,0,1,192.91,0Zm-213.88,21L266,289.4l-96.45,96.7a152.38,152.38,0,0,1,0-193.39Zm21,214.43L287,310.44l96.46,96.7a151.43,151.43,0,0,1-192.93,0Z"/></svg>