<svg id="Layer_1" data-name="Layer 1" xmlns="http://www.w3.org/2000/svg" xmlns:xlink="http://www.w3.org/1999/xlink" viewBox="0 0 612 612"><defs><style>.cls-1,.cls-2{stroke:#232323;stroke-miterlimit:10;}.cls-1{fill:url(#linear-gradient);}.cls-2{opacity:0.6;isolation:isolate;fill:url(#linear-gradient-2);}</style><linearGradient id="linear-gradient" x1="307.99" y1="230.55" x2="307.99" y2="381.45" gradientUnits="userSpaceOnUse"><stop offset="0" stop-color="#fff"/><stop offset="0.6" stop-color="#e2e2e2"/><stop offset="1" stop-color="#ccc"/></linearGradient><linearGradient id="linear-gradient-2" x1="307.99" y1="107.23" x2="307.99" y2="504.75" xlink:href="#linear-gradient"/></defs><path class="cls-1" d="M368.72,381.45H247.26a14.72,14.72,0,0,1-14.72-14.72V245.27a14.72,14.72,0,0,1,14.72-14.72H368.72a14.73,14.73,0,0,1,14.72,14.72V366.73A14.73,14.73,0,0,1,368.72,381.45ZM262,352h92V260H262Z"/><path class="cls-2" d="M159.5,136.69h49.85a14.72,14.72,0,0,0,0-29.44H124a14.76,14.76,0,0,0-2.89.29c-.43.09-.82.25-1.24.37s-1,.27-1.5.47-.93.47-1.38.72-.78.39-1.15.64a14.41,14.41,0,0,0-4.08,4.08c-.23.35-.4.75-.6,1.11s-.53.92-.74,1.42a12.63,12.63,0,0,0-.45,1.48,11.49,11.49,0,0,0-.37,1.27,14.77,14.77,0,0,0-.3,2.89v85.39a14.73,14.73,0,0,0,29.45,0V157.53l98.17,98.17a14.72,14.72,0,0,0,20.82-20.82Zm346.94-17.61c-.08-.44-.25-.83-.36-1.26s-.27-1-.46-1.49-.49-.94-.74-1.41-.37-.77-.6-1.12a14.81,14.81,0,0,0-4.08-4.08,11.46,11.46,0,0,0-1.09-.59c-.47-.26-.94-.54-1.44-.76s-1-.31-1.47-.46-.84-.29-1.28-.38a14.84,14.84,0,0,0-2.89-.3H406.64a14.73,14.73,0,0,0,0,29.45h49.85l-98.17,98.17a14.72,14.72,0,1,0,20.82,20.81l98.17-98.17v49.85a14.72,14.72,0,1,0,29.44,0V122A14.82,14.82,0,0,0,506.44,119.08ZM492,389.92a14.73,14.73,0,0,0-14.73,14.72v49.85l-98.16-98.17a14.72,14.72,0,0,0-20.82,20.82l98.17,98.17H406.63a14.72,14.72,0,1,0,0,29.44H492a14.65,14.65,0,0,0,2.88-.29c.44-.09.86-.25,1.28-.38s1-.27,1.48-.46a13.27,13.27,0,0,0,1.44-.77c.37-.2.73-.35,1.09-.59a14.77,14.77,0,0,0,4.08-4.07c.23-.36.39-.72.58-1.09a15.27,15.27,0,0,0,.77-1.44c.19-.49.31-1,.46-1.48s.29-.84.38-1.28a14.66,14.66,0,0,0,.3-2.88V404.63A14.76,14.76,0,0,0,492,389.92Zm-255.17-33.6-98.17,98.17V404.64a14.73,14.73,0,0,0-29.45,0V490a14.84,14.84,0,0,0,.3,2.89c.09.44.25.85.38,1.28s.27,1,.46,1.47a15.19,15.19,0,0,0,.76,1.44c.21.37.36.74.59,1.09a14.68,14.68,0,0,0,4.08,4.08c.37.25.77.41,1.13.62a15.52,15.52,0,0,0,1.4.73,13.46,13.46,0,0,0,1.49.46c.43.12.82.28,1.25.37a14.76,14.76,0,0,0,2.89.29h85.39a14.73,14.73,0,0,0,0-29.45H159.5l98.16-98.16a14.72,14.72,0,0,0-20.81-20.82Z"/></svg>