<svg id="Layer_1" data-name="Layer 1" xmlns="http://www.w3.org/2000/svg" xmlns:xlink="http://www.w3.org/1999/xlink" viewBox="0 0 612 612"><defs><style>.cls-1{stroke:#232323;stroke-miterlimit:10;fill:url(#linear-gradient);}</style><linearGradient id="linear-gradient" x1="307.49" y1="107.24" x2="307.49" y2="504.76" gradientUnits="userSpaceOnUse"><stop offset="0" stop-color="#fff"/><stop offset="0.6" stop-color="#e2e2e2"/><stop offset="1" stop-color="#ccc"/></linearGradient></defs><path id="MakeSameHeight" class="cls-1" d="M492,107.25H366.53A14.74,14.74,0,0,0,351.77,122V490a14.74,14.74,0,0,0,14.76,14.72H492A14.74,14.74,0,0,0,506.74,490V122A14.74,14.74,0,0,0,492,107.25ZM477.22,475.31H381.28V136.69h95.94ZM152.51,276.55H123a14.75,14.75,0,0,0-14.76,14.73v29.44a14.76,14.76,0,0,0,29.51,0V306h14.76a14.73,14.73,0,1,0,0-29.45Zm95.94,0H218.93a14.73,14.73,0,1,0,0,29.45h14.76v14.72a14.76,14.76,0,0,0,29.52,0V291.28A14.75,14.75,0,0,0,248.45,276.55Zm0,169.31a14.75,14.75,0,0,0-14.76,14.73v14.72H218.93a14.73,14.73,0,1,0,0,29.45h29.52A14.75,14.75,0,0,0,263.21,490V460.59A14.75,14.75,0,0,0,248.45,445.86Zm-95.94,29.45H137.75V460.59a14.76,14.76,0,0,0-29.51,0V490A14.74,14.74,0,0,0,123,504.75h29.51a14.72,14.72,0,1,0,0-29.44Zm88.56-279.73a14.72,14.72,0,0,0,10.44-25.13l-59-58.89a14.78,14.78,0,0,0-20.87,0l-59,58.89a14.74,14.74,0,1,0,20.87,20.82l33.84-33.76v70.65a14.76,14.76,0,0,0,29.52,0V157.51l33.85,33.76A14.71,14.71,0,0,0,241.07,195.58ZM123,416.42a14.75,14.75,0,0,0,14.75-14.72V379.61a14.76,14.76,0,0,0-29.51,0V401.7A14.75,14.75,0,0,0,123,416.42Zm121.76,0a14.75,14.75,0,0,0,14.76-14.72V379.61a14.76,14.76,0,0,0-29.52,0V401.7A14.75,14.75,0,0,0,244.76,416.42Z"/></svg>