<svg id="Layer_1" data-name="Layer 1" xmlns="http://www.w3.org/2000/svg" xmlns:xlink="http://www.w3.org/1999/xlink" viewBox="0 0 612 612"><defs><style>.cls-1{stroke:#232323;stroke-miterlimit:10;fill:url(#linear-gradient);}</style><linearGradient id="linear-gradient" x1="307.49" y1="104.25" x2="307.49" y2="506.75" gradientUnits="userSpaceOnUse"><stop offset="0" stop-color="#fff"/><stop offset="0.6" stop-color="#e2e2e2"/><stop offset="1" stop-color="#ccc"/></linearGradient></defs><path id="MakeSameWidth" class="cls-1" d="M493.83,350.22H121.14a14.92,14.92,0,0,0-14.91,14.91V491.85a14.91,14.91,0,0,0,14.91,14.9H493.83a14.91,14.91,0,0,0,14.91-14.9V365.13A14.92,14.92,0,0,0,493.83,350.22ZM478.92,476.94H136.05V380H478.92ZM292.58,260.78h29.81a14.92,14.92,0,0,0,14.91-14.91V216.06a14.91,14.91,0,1,0-29.81,0V231H292.58a14.91,14.91,0,1,0,0,29.82Zm0-126.72h14.91V149a14.91,14.91,0,1,0,29.81,0V119.16a14.92,14.92,0,0,0-14.91-14.91H292.58a14.91,14.91,0,1,0,0,29.81ZM121.14,260.78H151A14.91,14.91,0,0,0,151,231H136.05v-14.9a14.91,14.91,0,0,0-29.82,0v29.81A14.92,14.92,0,0,0,121.14,260.78Zm0-96.9A14.92,14.92,0,0,0,136.05,149V134.06H151a14.91,14.91,0,1,0,0-29.81H121.14a14.91,14.91,0,0,0-14.9,14.9V149A14.9,14.9,0,0,0,121.14,163.88ZM386.3,193.69h71.55l-34.19,34.19A14.91,14.91,0,0,0,444.74,249l59.63-59.63a14.89,14.89,0,0,0,0-21.08l-59.63-59.63a14.91,14.91,0,0,0-21.08,21.08l34.19,34.18H386.3a14.91,14.91,0,0,0,0,29.81ZM210.59,134.06H233a14.91,14.91,0,1,0,0-29.81H210.59a14.91,14.91,0,1,0,0,29.81Zm0,123H233a14.91,14.91,0,1,0,0-29.82H210.59a14.91,14.91,0,1,0,0,29.82Z"/></svg>