<?xml version="1.0" encoding="iso-8859-1"?>
<!-- Generator: Adobe Illustrator 21.1.0, SVG Export Plug-In . SVG Version: 6.00 Build 0)  -->
<svg version="1.1" xmlns="http://www.w3.org/2000/svg" xmlns:xlink="http://www.w3.org/1999/xlink" x="0px" y="0px"
	 viewBox="0 0 50 50" style="enable-background:new 0 0 50 50;" xml:space="preserve">
<g id="MakeSameWidth">
	<path style="fill:#5280DF;" d="M25,50C11.215,50,0,38.785,0,25C0,11.215,11.215,0,25,0c13.785,0,25,11.215,25,25
		C50,38.785,38.785,50,25,50z M25,1.905C12.265,1.905,1.905,12.265,1.905,25S12.265,48.095,25,48.095S48.095,37.735,48.095,25
		S37.735,1.905,25,1.905z"/>
	<path style="fill:#5280DF;" d="M36.905,37.857h-23.81c-0.526,0-0.952-0.426-0.952-0.952V28.81c0-0.526,0.426-0.952,0.952-0.952
		h23.81c0.526,0,0.952,0.426,0.952,0.952v8.095C37.857,37.431,37.431,37.857,36.905,37.857z M14.048,35.952h21.905v-6.19H14.048
		V35.952z"/>
	<path style="fill:#5280DF;" d="M13.095,15.952c-0.526,0-0.952-0.426-0.952-0.952v-1.905c0-0.526,0.426-0.952,0.952-0.952H15
		c0.526,0,0.952,0.426,0.952,0.952c0,0.526-0.426,0.952-0.952,0.952h-0.952V15C14.048,15.526,13.621,15.952,13.095,15.952z"/>
	<path style="fill:#5280DF;" d="M15,22.143h-1.905c-0.526,0-0.952-0.426-0.952-0.952v-1.905c0-0.526,0.426-0.952,0.952-0.952
		c0.526,0,0.952,0.426,0.952,0.952v0.952H15c0.526,0,0.952,0.426,0.952,0.952C15.952,21.716,15.526,22.143,15,22.143z"/>
	<path style="fill:#5280DF;" d="M25.952,22.143h-1.905c-0.526,0-0.952-0.426-0.952-0.952c0-0.526,0.426-0.952,0.952-0.952H25v-0.952
		c0-0.526,0.426-0.952,0.952-0.952c0.526,0,0.952,0.426,0.952,0.952v1.905C26.905,21.716,26.478,22.143,25.952,22.143z"/>
	<path style="fill:#5280DF;" d="M25.952,15.952C25.426,15.952,25,15.526,25,15v-0.952h-0.952c-0.526,0-0.952-0.426-0.952-0.952
		c0-0.526,0.426-0.952,0.952-0.952h1.905c0.526,0,0.952,0.426,0.952,0.952V15C26.905,15.526,26.478,15.952,25.952,15.952z"/>
	<path style="fill:#5280DF;" d="M33.095,21.667c-0.244,0-0.487-0.093-0.673-0.279c-0.372-0.372-0.372-0.975,0-1.347l3.136-3.136
		l-3.136-3.136c-0.372-0.372-0.372-0.975,0-1.347c0.372-0.372,0.975-0.372,1.347,0l3.81,3.81c0.372,0.372,0.372,0.975,0,1.347
		l-3.81,3.81C33.583,21.574,33.339,21.667,33.095,21.667z"/>
	<path style="fill:#5280DF;" d="M36.215,17.857h-6.179c-0.526,0-0.952-0.426-0.952-0.952c0-0.526,0.426-0.952,0.952-0.952h6.179
		c0.526,0,0.952,0.426,0.952,0.952C37.167,17.431,36.741,17.857,36.215,17.857z"/>
	<path style="fill:#5280DF;" d="M20.238,14.048H18.81c-0.526,0-0.952-0.426-0.952-0.952c0-0.526,0.426-0.952,0.952-0.952h1.429
		c0.526,0,0.952,0.426,0.952,0.952C21.19,13.621,20.764,14.048,20.238,14.048z"/>
	<path style="fill:#5280DF;" d="M20.238,21.905H18.81c-0.526,0-0.952-0.426-0.952-0.952c0-0.526,0.426-0.952,0.952-0.952h1.429
		c0.526,0,0.952,0.426,0.952,0.952C21.19,21.478,20.764,21.905,20.238,21.905z"/>
</g>
<g id="Layer_1">
</g>
</svg>
