<?xml version="1.0" encoding="iso-8859-1"?>
<!-- Generator: Adobe Illustrator 21.1.0, SVG Export Plug-In . SVG Version: 6.00 Build 0)  -->
<svg version="1.1" xmlns="http://www.w3.org/2000/svg" xmlns:xlink="http://www.w3.org/1999/xlink" x="0px" y="0px"
	 viewBox="0 0 50 50" style="enable-background:new 0 0 50 50;" xml:space="preserve">
<g id="MakeSameHeight">
	<path style="fill:#5280DF;" d="M25,50C11.215,50,0,38.785,0,25C0,11.215,11.215,0,25,0c13.785,0,25,11.215,25,25
		C50,38.785,38.785,50,25,50z M25,1.905C12.265,1.905,1.905,12.265,1.905,25S12.265,48.095,25,48.095S48.095,37.735,48.095,25
		S37.735,1.905,25,1.905z"/>
	<path style="fill:#5280DF;" d="M36.905,37.857H28.81c-0.526,0-0.952-0.426-0.952-0.952v-23.81c0-0.526,0.426-0.952,0.952-0.952
		h8.095c0.526,0,0.952,0.426,0.952,0.952v23.81C37.857,37.431,37.431,37.857,36.905,37.857z M29.762,35.952h6.19V14.048h-6.19
		V35.952z"/>
	<path style="fill:#5280DF;" d="M15,37.857h-1.905c-0.526,0-0.952-0.426-0.952-0.952V35c0-0.526,0.426-0.952,0.952-0.952
		c0.526,0,0.952,0.426,0.952,0.952v0.952H15c0.526,0,0.952,0.426,0.952,0.952S15.526,37.857,15,37.857z"/>
	<path style="fill:#5280DF;" d="M21.19,37.857h-1.905c-0.526,0-0.952-0.426-0.952-0.952s0.426-0.952,0.952-0.952h0.952V35
		c0-0.526,0.426-0.952,0.952-0.952c0.526,0,0.952,0.426,0.952,0.952v1.905C22.143,37.431,21.716,37.857,21.19,37.857z"/>
	<path style="fill:#5280DF;" d="M21.19,26.905c-0.526,0-0.952-0.426-0.952-0.952V25h-0.952c-0.526,0-0.952-0.426-0.952-0.952
		c0-0.526,0.426-0.952,0.952-0.952h1.905c0.526,0,0.952,0.426,0.952,0.952v1.905C22.143,26.478,21.716,26.905,21.19,26.905z"/>
	<path style="fill:#5280DF;" d="M13.095,26.905c-0.526,0-0.952-0.426-0.952-0.952v-1.905c0-0.526,0.426-0.952,0.952-0.952H15
		c0.526,0,0.952,0.426,0.952,0.952C15.952,24.574,15.526,25,15,25h-0.952v0.952C14.048,26.478,13.621,26.905,13.095,26.905z"/>
	<path style="fill:#5280DF;" d="M20.714,17.857c-0.244,0-0.488-0.093-0.673-0.279l-3.136-3.136l-3.136,3.136
		c-0.372,0.372-0.975,0.372-1.347,0c-0.372-0.372-0.372-0.975,0-1.347l3.81-3.81c0.372-0.372,0.975-0.372,1.347,0l3.81,3.81
		c0.372,0.372,0.372,0.975,0,1.347C21.202,17.764,20.958,17.857,20.714,17.857z"/>
	<path style="fill:#5280DF;" d="M16.905,20.917c-0.526,0-0.952-0.426-0.952-0.952v-6.18c0-0.526,0.426-0.952,0.952-0.952
		c0.526,0,0.952,0.426,0.952,0.952v6.18C17.857,20.491,17.431,20.917,16.905,20.917z"/>
	<path style="fill:#5280DF;" d="M13.095,32.143c-0.526,0-0.952-0.426-0.952-0.952v-1.429c0-0.526,0.426-0.952,0.952-0.952
		c0.526,0,0.952,0.426,0.952,0.952v1.429C14.048,31.716,13.621,32.143,13.095,32.143z"/>
	<path style="fill:#5280DF;" d="M20.952,32.143c-0.526,0-0.952-0.426-0.952-0.952v-1.429c0-0.526,0.426-0.952,0.952-0.952
		c0.526,0,0.952,0.426,0.952,0.952v1.429C21.905,31.716,21.478,32.143,20.952,32.143z"/>
</g>
<g id="Layer_1">
</g>
</svg>
