<?xml version="1.0" encoding="iso-8859-1"?>
<!-- Generator: Adobe Illustrator 21.1.0, SVG Export Plug-In . SVG Version: 6.00 Build 0)  -->
<svg version="1.1" xmlns="http://www.w3.org/2000/svg" xmlns:xlink="http://www.w3.org/1999/xlink" x="0px" y="0px"
	 viewBox="0 0 50 50" style="enable-background:new 0 0 50 50;" xml:space="preserve">
<g id="MakeSameSize">
	<path style="fill:#5280DF;" d="M25,50C11.215,50,0,38.785,0,25C0,11.215,11.215,0,25,0c13.785,0,25,11.215,25,25
		C50,38.785,38.785,50,25,50z M25,1.905C12.265,1.905,1.905,12.265,1.905,25S12.265,48.095,25,48.095S48.095,37.735,48.095,25
		S37.735,1.905,25,1.905z"/>
	<path style="fill:#5280DF;" d="M28.929,29.881h-7.857c-0.526,0-0.952-0.426-0.952-0.952v-7.857c0-0.526,0.426-0.952,0.952-0.952
		h7.857c0.526,0,0.952,0.426,0.952,0.952v7.857C29.881,29.455,29.455,29.881,28.929,29.881z M22.024,27.976h5.952v-5.952h-5.952
		V27.976z"/>
	<path style="fill:#5280DF;" d="M13.095,19.571c-0.526,0-0.952-0.426-0.952-0.952v-5.524c0-0.526,0.426-0.952,0.952-0.952h5.524
		c0.526,0,0.952,0.426,0.952,0.952c0,0.526-0.426,0.952-0.952,0.952h-4.571v4.571C14.048,19.145,13.621,19.571,13.095,19.571z"/>
	<path style="fill:#5280DF;" d="M21.071,22.024c-0.244,0-0.488-0.093-0.673-0.279l-7.976-7.976c-0.372-0.372-0.372-0.975,0-1.347
		c0.372-0.372,0.975-0.372,1.347,0l7.976,7.976c0.372,0.372,0.372,0.975,0,1.347C21.559,21.931,21.315,22.024,21.071,22.024z"/>
	<path style="fill:#5280DF;" d="M36.905,19.571c-0.526,0-0.952-0.426-0.952-0.952v-4.571h-4.571c-0.526,0-0.952-0.426-0.952-0.952
		c0-0.526,0.426-0.952,0.952-0.952h5.524c0.526,0,0.952,0.426,0.952,0.952v5.524C37.857,19.145,37.431,19.571,36.905,19.571z"/>
	<path style="fill:#5280DF;" d="M28.929,22.024c-0.244,0-0.487-0.093-0.673-0.279c-0.372-0.372-0.372-0.975,0-1.347l7.976-7.976
		c0.372-0.372,0.975-0.372,1.347,0c0.372,0.372,0.372,0.975,0,1.347l-7.976,7.976C29.416,21.931,29.172,22.024,28.929,22.024z"/>
	<path style="fill:#5280DF;" d="M36.905,37.857h-5.524c-0.526,0-0.952-0.426-0.952-0.952s0.426-0.952,0.952-0.952h4.571v-4.571
		c0-0.526,0.426-0.952,0.952-0.952s0.952,0.426,0.952,0.952v5.524C37.857,37.431,37.431,37.857,36.905,37.857z"/>
	<path style="fill:#5280DF;" d="M36.905,37.857c-0.244,0-0.487-0.093-0.673-0.279l-7.976-7.976c-0.372-0.372-0.372-0.975,0-1.347
		c0.372-0.372,0.975-0.372,1.347,0l7.976,7.976c0.372,0.372,0.372,0.975,0,1.347C37.392,37.764,37.148,37.857,36.905,37.857z"/>
	<path style="fill:#5280DF;" d="M18.619,37.857h-5.524c-0.526,0-0.952-0.426-0.952-0.952v-5.524c0-0.526,0.426-0.952,0.952-0.952
		c0.526,0,0.952,0.426,0.952,0.952v4.571h4.571c0.526,0,0.952,0.426,0.952,0.952S19.145,37.857,18.619,37.857z"/>
	<path style="fill:#5280DF;" d="M13.095,37.857c-0.244,0-0.488-0.093-0.673-0.279c-0.372-0.372-0.372-0.975,0-1.347l7.976-7.976
		c0.372-0.372,0.975-0.372,1.347,0c0.372,0.372,0.372,0.975,0,1.347l-7.976,7.976C13.583,37.764,13.339,37.857,13.095,37.857z"/>
</g>
<g id="Layer_1">
</g>
</svg>
