<svg id="Layer_1" data-name="Layer 1" xmlns="http://www.w3.org/2000/svg" xmlns:xlink="http://www.w3.org/1999/xlink" viewBox="0 0 612 612"><defs><style>.cls-1,.cls-2{stroke:#232323;stroke-miterlimit:10;stroke-width:1.31px;}.cls-1{fill:url(#linear-gradient);}.cls-2{opacity:0.6;isolation:isolate;fill:url(#linear-gradient-2);}</style><linearGradient id="linear-gradient" x1="305.99" y1="201.84" x2="305.99" y2="410.18" gradientUnits="userSpaceOnUse"><stop offset="0" stop-color="#fafafa"/><stop offset="1" stop-color="#ebebeb"/></linearGradient><linearGradient id="linear-gradient-2" x1="306" y1="31.59" x2="306" y2="580.41" xlink:href="#linear-gradient"/></defs><path class="cls-1" d="M389.83,410.18H222.15a20.34,20.34,0,0,1-20.33-20.33V222.17a20.34,20.34,0,0,1,20.33-20.33H389.83a20.34,20.34,0,0,1,20.33,20.33V389.85A20.34,20.34,0,0,1,389.83,410.18ZM242.47,369.53h127v-127h-127Z"/><path class="cls-2" d="M101,72.26h68.83a20.33,20.33,0,0,0,0-40.65H51.92a19.79,19.79,0,0,0-4,.41c-.59.12-1.14.34-1.71.51a17.1,17.1,0,0,0-2.07.65c-.67.28-1.28.65-1.91,1a16.28,16.28,0,0,0-1.58.88A19.86,19.86,0,0,0,35,40.68c-.33.49-.55,1-.84,1.54s-.73,1.26-1,2a16.33,16.33,0,0,0-.63,2.06A14.51,14.51,0,0,0,32,48a19.87,19.87,0,0,0-.41,4V169.85a20.33,20.33,0,0,0,40.65,0V101L207.82,236.56a20.32,20.32,0,0,0,28.74-28.74ZM580,48c-.12-.61-.34-1.15-.51-1.75a21.08,21.08,0,0,0-.63-2.05c-.28-.69-.67-1.3-1-1.95s-.51-1.06-.84-1.55A20.39,20.39,0,0,0,571.36,35c-.49-.32-1-.54-1.5-.81s-1.3-.75-2-1.05-1.35-.43-2-.63a17,17,0,0,0-1.77-.53,19.87,19.87,0,0,0-4-.41H442.19a20.33,20.33,0,1,0,0,40.65H511L375.48,207.77a20.32,20.32,0,1,0,28.74,28.74L539.75,101V169.8a20.33,20.33,0,1,0,40.66,0V51.91A22.31,22.31,0,0,0,580,48ZM560.06,421.87a20.33,20.33,0,0,0-20.32,20.32V511L404.2,375.49a20.32,20.32,0,0,0-28.74,28.74L511,539.76H442.17a20.33,20.33,0,0,0,0,40.65H560.06a20.61,20.61,0,0,0,4-.4c.61-.13,1.18-.35,1.76-.53s1.37-.37,2-.63a21,21,0,0,0,2-1.06c.51-.29,1-.49,1.5-.82a20.12,20.12,0,0,0,5.63-5.63,14.54,14.54,0,0,0,.82-1.5c.36-.65.75-1.3,1.05-2s.43-1.34.64-2a18,18,0,0,0,.52-1.77,19.79,19.79,0,0,0,.41-4V442.17A20.36,20.36,0,0,0,560.06,421.87ZM207.77,375.48,72.24,511V442.19a20.33,20.33,0,1,0-40.65,0V560.08a19.87,19.87,0,0,0,.41,4,15.48,15.48,0,0,0,.53,1.76c.2.67.36,1.36.63,2a18.89,18.89,0,0,0,1.05,2c.29.5.49,1,.81,1.5A20.29,20.29,0,0,0,40.65,577c.51.34,1.06.56,1.57.85s1.26.73,1.93,1a18.63,18.63,0,0,0,2.05.63c.59.16,1.14.39,1.73.51a20.54,20.54,0,0,0,4,.41H169.81a20.33,20.33,0,0,0,0-40.66H101L236.51,404.22a20.32,20.32,0,0,0-28.74-28.74Z"/></svg>