<svg id="Layer_1" data-name="Layer 1" xmlns="http://www.w3.org/2000/svg" xmlns:xlink="http://www.w3.org/1999/xlink" viewBox="0 0 612 612"><defs><style>.cls-1,.cls-2,.cls-3,.cls-4{stroke:#232323;stroke-miterlimit:10;}.cls-1{fill:url(#linear-gradient);}.cls-2{fill:url(#linear-gradient-2);}.cls-3{fill:url(#linear-gradient-3);}.cls-4{fill:url(#linear-gradient-4);}</style><linearGradient id="linear-gradient" x1="301.86" y1="69.18" x2="301.86" y2="373.13" gradientUnits="userSpaceOnUse"><stop offset="0" stop-color="#fff"/><stop offset="0.6" stop-color="#e2e2e2"/><stop offset="1" stop-color="#ccc"/></linearGradient><linearGradient id="linear-gradient-2" x1="222.5" y1="423.9" x2="222.5" y2="542.9" xlink:href="#linear-gradient"/><linearGradient id="linear-gradient-3" x1="323.5" y1="423.9" x2="323.5" y2="542.9" xlink:href="#linear-gradient"/><linearGradient id="linear-gradient-4" x1="407.3" y1="423.9" x2="407.3" y2="542.9" xlink:href="#linear-gradient"/></defs><g id="MIP"><path class="cls-1" d="M434.3,149.4a12.19,12.19,0,0,0,0-2.7v-1.5a7.71,7.71,0,0,0-3.1-3.1L305.1,70.3a8.22,8.22,0,0,0-8.3,0l-124.3,72h0l-1.3,1.3a4.46,4.46,0,0,0-2.2,3.7,8.1,8.1,0,0,0,0,2.2V292.8a8.4,8.4,0,0,0,4.1,7.2l125,72a8.22,8.22,0,0,0,8.3,0h0l124.3-72a8.36,8.36,0,0,0,4.1-7.1V149.7h0ZM292.9,350.3l-108.5-62v-124l108.3,62.4Zm8.2-138.5-80.2-46.2-28.1-16.2L301.1,87l108.3,62.4Zm116.2,76.6L309.6,350.8v-124l107.1-62.1h0Z"/><path class="cls-2" d="M261.4,542.9V459.6l-33.7,83.3H216.6l-33.8-83.3v83.3H157.4v-119h35.8l29,71.8,29-71.8h36.4v119Z"/><path class="cls-3" d="M310.8,542.9v-119h25.4v119Z"/><path class="cls-4" d="M360,542.9v-119h56a38.4,38.4,0,1,1,0,76.8H386.1v42.2Zm70.2-80.7a15.9,15.9,0,0,0-15.8-16.1,12.1,12.1,0,0,0-1.9.1H385.4v32.1h27.1a16.16,16.16,0,0,0,17.6-14.5A8.6,8.6,0,0,0,430.2,462.2Z"/></g></svg>