<svg id="Layer_1" data-name="Layer 1" xmlns="http://www.w3.org/2000/svg" xmlns:xlink="http://www.w3.org/1999/xlink" viewBox="0 0 612 612"><defs><style>.cls-1,.cls-10,.cls-11,.cls-12,.cls-13,.cls-2,.cls-3,.cls-4,.cls-5,.cls-6,.cls-7,.cls-8,.cls-9{stroke:#232323;stroke-miterlimit:10;stroke-width:1.31px;}.cls-1{fill:url(#linear-gradient);}.cls-2{fill:url(#linear-gradient-2);}.cls-3{fill:url(#linear-gradient-3);}.cls-4{fill:url(#linear-gradient-4);}.cls-5{fill:url(#linear-gradient-5);}.cls-6{fill:url(#linear-gradient-6);}.cls-7{fill:url(#linear-gradient-7);}.cls-8{fill:url(#linear-gradient-8);}.cls-9{fill:url(#linear-gradient-9);}.cls-10{fill:url(#linear-gradient-10);}.cls-11{fill:url(#linear-gradient-11);}.cls-12{fill:url(#linear-gradient-12);}.cls-13{fill:url(#linear-gradient-13);}</style><linearGradient id="linear-gradient" x1="227.71" y1="185.61" x2="227.71" y2="188.1" gradientUnits="userSpaceOnUse"><stop offset="0" stop-color="#fafafa"/><stop offset="1" stop-color="#ebebeb"/></linearGradient><linearGradient id="linear-gradient-2" x1="307.33" y1="52.25" x2="307.33" y2="216.74" xlink:href="#linear-gradient"/><linearGradient id="linear-gradient-3" x1="98.05" y1="401.82" x2="98.05" y2="525" xlink:href="#linear-gradient"/><linearGradient id="linear-gradient-4" x1="513.65" y1="401.82" x2="513.65" y2="524.28" xlink:href="#linear-gradient"/><linearGradient id="linear-gradient-5" x1="495.95" y1="357.34" x2="495.95" y2="364.45" xlink:href="#linear-gradient"/><linearGradient id="linear-gradient-6" x1="529.18" y1="357.74" x2="529.18" y2="364.05" xlink:href="#linear-gradient"/><linearGradient id="linear-gradient-7" x1="85.65" y1="357.34" x2="85.65" y2="364.45" xlink:href="#linear-gradient"/><linearGradient id="linear-gradient-8" x1="118.84" y1="357.46" x2="118.84" y2="364.33" xlink:href="#linear-gradient"/><linearGradient id="linear-gradient-9" x1="428.09" y1="467.46" x2="428.09" y2="468.97" xlink:href="#linear-gradient"/><linearGradient id="linear-gradient-10" x1="307.33" y1="154.94" x2="307.33" y2="559.75" xlink:href="#linear-gradient"/><linearGradient id="linear-gradient-11" x1="386.06" y1="185.22" x2="386.06" y2="188.06" xlink:href="#linear-gradient"/><linearGradient id="linear-gradient-12" x1="172.27" y1="497.89" x2="172.27" y2="501.24" xlink:href="#linear-gradient"/><linearGradient id="linear-gradient-13" x1="186.04" y1="468.64" x2="186.04" y2="470.79" xlink:href="#linear-gradient"/></defs><path class="cls-1" d="M230.44,185.61A17.22,17.22,0,0,1,225,188.1Z"/><path class="cls-2" d="M307.32,52.25a42.75,42.75,0,0,0-9,84.54v71a9,9,0,1,0,18,0V136.82a42.76,42.76,0,0,0-8.93-84.57Zm0,68.82A26.07,26.07,0,1,1,333.39,95,26.06,26.06,0,0,1,307.32,121.07Z"/><path class="cls-3" d="M38.28,509.37a42.76,42.76,0,0,0,71.1-46.63l54.87-45a9,9,0,0,0-11.4-13.89L98,448.83a42.76,42.76,0,0,0-59.73,60.54Zm53.21-43.65a26.06,26.06,0,1,1-36.68-3.63A26.07,26.07,0,0,1,91.49,465.72Z"/><path class="cls-4" d="M574,508.32a42.75,42.75,0,0,0-60.19-60l-55.29-44.49a9,9,0,1,0-11.26,14l55.26,44.48A42.75,42.75,0,0,0,574,508.32Zm-53.61-43.14a26.06,26.06,0,1,1,4,36.64A26.06,26.06,0,0,1,520.36,465.18Z"/><path class="cls-5" d="M496.14,357.34v7.11a16.82,16.82,0,0,1,0-7.11Z"/><path class="cls-6" d="M529.33,360.89a16.36,16.36,0,0,1-.31,3.16v-6.31A16.41,16.41,0,0,1,529.33,360.89Z"/><path class="cls-7" d="M85.46,360.89a16.64,16.64,0,0,1,.38-3.55v7.11A16.67,16.67,0,0,1,85.46,360.89Z"/><path class="cls-8" d="M119,360.89a16.86,16.86,0,0,1-.35,3.44v-6.87A17,17,0,0,1,119,360.89Z"/><path class="cls-9" d="M429.74,467.46,426.45,469A16.13,16.13,0,0,1,429.74,467.46Z"/><path class="cls-10" d="M529,226.74V364.05a16.78,16.78,0,0,1-32.88.4V252.28l-34.65,15.84L322.84,331.45l.41,186.29L426.36,469l.09,0,3.29-1.51a16.78,16.78,0,0,1,16,28.84l-7.87,3.6L313.75,558.25c-.48.22-1,.32-1.5.49a9.72,9.72,0,0,1-1.22.41,15.32,15.32,0,0,1-4.12.6,16.16,16.16,0,0,1-4.12-.6c-.41-.09-.79-.26-1.2-.38a11.61,11.61,0,0,1-1.54-.52l-124.15-57-7.27-3.35A16.77,16.77,0,0,1,179.08,468a16.43,16.43,0,0,1,4.62.65l4.67,2.14,102,46.85,0-14.17-.38-172-145.61-67.1-25.93-11.95.21,112a16.78,16.78,0,0,1-32.83.12l-.2-137.7h0v0s0-.08,0-.12a16.73,16.73,0,0,1,.62-4.26c.14-.48.37-.9.55-1.37a15.52,15.52,0,0,1,1.2-2.62A13.93,13.93,0,0,1,89,217a16.62,16.62,0,0,1,1.73-2,18,18,0,0,1,1.4-1.16c.36-.28.65-.62,1-.88s.79-.35,1.16-.55.55-.41.86-.56l112.51-51.7,9.7-4.66a0,0,0,0,1,0,0,17.14,17.14,0,0,1,3.38-.34,16.78,16.78,0,0,1,9.6,30.55L225,188.1l-83.58,38.68,165,76.06,166.71-76.16-84-38.62L383,185.22a16.78,16.78,0,0,1,10-30.28,15.63,15.63,0,0,1,3.83.45l6.07,2.78,116.61,53.61c.32.15.55.39.84.54s.8.34,1.19.57.7.61,1.06.89a17.16,17.16,0,0,1,1.38,1.15,19.85,19.85,0,0,1,1.75,2c.33.47.67.89,1,1.37a17.83,17.83,0,0,1,1.22,2.67c.16.47.38.88.52,1.34A17.33,17.33,0,0,1,529,226.74Z"/><line class="cls-11" x1="382.96" y1="185.22" x2="389.15" y2="188.06"/><path class="cls-12" d="M175.91,501.24a16.51,16.51,0,0,1-7.28-3.35Z"/><path class="cls-13" d="M188.37,470.79l-4.66-2.15A16.77,16.77,0,0,1,188.37,470.79Z"/></svg>