<svg id="Layer_1" data-name="Layer 1" xmlns="http://www.w3.org/2000/svg" xmlns:xlink="http://www.w3.org/1999/xlink" viewBox="0 0 612 612"><defs><style>.cls-1{stroke:#232323;stroke-miterlimit:10;fill:url(#linear-gradient);}</style><linearGradient id="linear-gradient" x1="305.49" y1="105.23" x2="305.49" y2="507.72" gradientUnits="userSpaceOnUse"><stop offset="0" stop-color="#fff"/><stop offset="0.6" stop-color="#e2e2e2"/><stop offset="1" stop-color="#ccc"/></linearGradient></defs><path id="MPR" class="cls-1" d="M495.74,261.47l-65.25-17.68V191a14.92,14.92,0,0,0-11-14.38l-26.15-7.13V120.14a14.91,14.91,0,0,0-22.3-13l-66.62,38L198,116.24a14.89,14.89,0,0,0-18.82,14.38V249.24l-67.39,38.17a14.9,14.9,0,0,0,3.46,27.35l63.93,17.31v87.54a14.92,14.92,0,0,0,11,14.39L217,441.3v51.51a14.92,14.92,0,0,0,22.3,13l69.22-39.52,103.16,28.1a15.35,15.35,0,0,0,3.92.52A14.93,14.93,0,0,0,430.49,480V327.75l68.69-38.91a14.91,14.91,0,0,0-3.44-27.37ZM340,344.76,271.5,326.21l37-20.94,68.44,18.54Zm-48.4-64.15L246.8,306V212.5l44.75-25.56Zm109.11,18.77L321.35,277.9V180.77l79.31,21.6ZM363.52,145.84v15.52l-18.39-5Zm-95.73,20.32-43.3,24.72A14.9,14.9,0,0,0,217,203.82v44.87l-8-2.16V150.15ZM196.1,274,217,279.61v31.86l-58.92-16ZM209,408.27V340.2l8,2.16v68.08Zm37.8-57.85,44.75,12.12v79.08l-44.75,25.56V350.42ZM400.66,460.49l-79.31-21.6V370.62l16.71,4.53h0a17.89,17.89,0,0,0,1.79.24,13.53,13.53,0,0,0,2.07.28l.17,0a14.89,14.89,0,0,0,4.14-.69c.48-.15.91-.36,1.36-.55a15.9,15.9,0,0,0,1.67-.69l51.35-29.09V460.49Zm29.81-167v-18.8l22.45,6.08Z"/></svg>