<svg id="Layer_1" data-name="Layer 1" xmlns="http://www.w3.org/2000/svg" xmlns:xlink="http://www.w3.org/1999/xlink" viewBox="0 0 612 612"><defs><style>.cls-1,.cls-2,.cls-3,.cls-4,.cls-5,.cls-6,.cls-7{stroke:#232323;stroke-miterlimit:10;}.cls-1{fill:url(#linear-gradient);}.cls-2{fill:url(#linear-gradient-2);}.cls-3{fill:url(#linear-gradient-3);}.cls-4{fill:url(#linear-gradient-4);}.cls-5{fill:url(#linear-gradient-5);}.cls-6{fill:url(#linear-gradient-6);}.cls-7{fill:url(#linear-gradient-7);}</style><linearGradient id="linear-gradient" x1="305.3" y1="69.88" x2="305.3" y2="373.83" gradientUnits="userSpaceOnUse"><stop offset="0" stop-color="#fff"/><stop offset="0.6" stop-color="#e2e2e2"/><stop offset="1" stop-color="#ccc"/></linearGradient><linearGradient id="linear-gradient-2" x1="189.5" y1="423.4" x2="189.5" y2="542.1" xlink:href="#linear-gradient"/><linearGradient id="linear-gradient-3" x1="326.49" y1="423.33" x2="326.49" y2="542.1" xlink:href="#linear-gradient"/><linearGradient id="linear-gradient-4" x1="438.4" y1="423.17" x2="438.4" y2="542.1" xlink:href="#linear-gradient"/><linearGradient id="linear-gradient-5" x1="304.3" y1="87.7" x2="304.3" y2="212.5" xlink:href="#linear-gradient"/><linearGradient id="linear-gradient-6" x1="241.25" y1="165" x2="241.25" y2="351.1" xlink:href="#linear-gradient"/><linearGradient id="linear-gradient-7" x1="367.35" y1="165.4" x2="367.35" y2="351.5" xlink:href="#linear-gradient"/></defs><g id="MPRVolume"><path class="cls-1" d="M439.8,149.34a11.16,11.16,0,0,0-.2-1.91,4.79,4.79,0,0,0-.6-1.53,7.71,7.71,0,0,0-3.1-3.1L308.4,71a8.4,8.4,0,0,0-8.4,0L174.3,143h0a14.86,14.86,0,0,0-1.27.86,5.47,5.47,0,0,0-2.23,4c0,.8,0,1.58,0,2.33V293.5a8.28,8.28,0,0,0,4.2,7.2l126.5,72a8.4,8.4,0,0,0,8.4,0h0l125.7-72a8.24,8.24,0,0,0,4.2-7.1V150.4h0ZM296.1,351.1l-109.7-62V165l109.5,62.4Zm8.2-138.6-81.1-46.2-28.4-16.2L304.3,87.7l109.5,62.4Zm117.5,76.6L312.9,351.5v-124l108.3-62.1h0Z"/><path class="cls-2" d="M229.3,542.1V459l-33.6,83.1H184.5L151,459v83.1H124.9V423.4h35.6l28.9,71.7,28.9-71.7h35.8V542.1Z"/><path class="cls-3" d="M278.4,542.1V423.4h55.3a38.28,38.28,0,1,1,0,76.4H303.9V542Zm70.2-80.4a15.88,15.88,0,0,0-15.7-16.1,12.1,12.1,0,0,0-1.9.1H303.9v32.1h26.8a16.14,16.14,0,0,0,17.8-14.1A14.08,14.08,0,0,0,348.6,461.7Z"/><path class="cls-4" d="M457.5,542.1l-23.4-42.3H415.5V542H390.1V423.3h55.8a37,37,0,0,1,40,33.8,38.82,38.82,0,0,1-26,39.8l26.8,44.5Zm2.5-80.4a16.2,16.2,0,0,0-16.3-16.1,8.6,8.6,0,0,0-1.6.1H415.4v32.1h26.7a16.26,16.26,0,0,0,17.8-14.5,9.15,9.15,0,0,0,.1-1.6Z"/><polygon class="cls-5" points="194.8 150.1 304.3 87.7 413.8 150.1 304.3 212.5 194.8 150.1"/></g><polygon class="cls-6" points="186.4 165 295.9 227.4 296.1 351.1 186.4 289.1 186.4 165"/><polygon class="cls-7" points="312.9 227.5 421.2 165.4 421.8 289.1 312.9 351.5 312.9 227.5"/></svg>