<?xml version="1.0" encoding="iso-8859-1"?>
<!-- Generator: Adobe Illustrator 21.1.0, SVG Export Plug-In . SVG Version: 6.00 Build 0)  -->
<svg version="1.1" xmlns="http://www.w3.org/2000/svg" xmlns:xlink="http://www.w3.org/1999/xlink" x="0px" y="0px"
	 viewBox="0 0 50 50" style="enable-background:new 0 0 50 50;" xml:space="preserve">
<g id="MPRVolume">
	<path style="fill:#5280DF;" d="M25,50C11.215,50,0,38.785,0,25C0,11.215,11.215,0,25,0c13.785,0,25,11.215,25,25
		C50,38.785,38.785,50,25,50z M25,1.905C12.265,1.905,1.905,12.265,1.905,25S12.265,48.095,25,48.095S48.095,37.735,48.095,25
		S37.735,1.905,25,1.905z"/>
	<path style="fill:#5280DF;" d="M24.854,37.857c-0.167,0-0.333-0.044-0.482-0.131c-0.294-0.173-0.474-0.49-0.47-0.831l0.105-9.654
		c0.004-0.337,0.185-0.646,0.476-0.815l11.945-6.896c0.295-0.17,0.658-0.17,0.952,0c0.295,0.17,0.476,0.485,0.476,0.825v9.654
		c0,0.341-0.183,0.657-0.479,0.826l-12.05,6.896C25.181,37.815,25.018,37.857,24.854,37.857z M25.906,27.805l-0.081,7.447
		l10.127-5.796v-7.452L25.906,27.805z"/>
	<path style="fill:#5280DF;" d="M24.854,37.857c-0.174,0-0.347-0.047-0.5-0.142l-11.759-7.26c-0.281-0.173-0.452-0.48-0.452-0.811
		v-9.653c0-0.345,0.186-0.662,0.487-0.831c0.301-0.169,0.669-0.162,0.963,0.018l11.864,7.259c0.286,0.175,0.459,0.487,0.455,0.823
		l-0.105,9.654c-0.004,0.344-0.192,0.658-0.493,0.824C25.171,37.818,25.013,37.857,24.854,37.857z M14.048,29.114l9.873,6.095
		l0.081-7.427l-9.954-6.09V29.114z"/>
	<path style="fill:#5280DF;" d="M24.96,28.204c-0.172,0-0.345-0.047-0.497-0.14l-11.864-7.259c-0.286-0.175-0.459-0.489-0.455-0.824
		c0.004-0.336,0.185-0.645,0.476-0.813l11.945-6.897c0.302-0.174,0.675-0.17,0.973,0.012l11.864,7.259
		c0.286,0.175,0.459,0.489,0.455,0.824c-0.004,0.336-0.185,0.645-0.476,0.813l-11.945,6.897
		C25.288,28.161,25.124,28.204,24.96,28.204z M14.959,20.016l10.015,6.128l10.068-5.813l-10.015-6.128L14.959,20.016z"/>
	<path style="fill:#5280DF;" d="M18.086,25.482l-0.003,0.886l-1.18,0.615c0.63,0.491,1.25,1.229,1.247,2.23
		c-0.003,1.024-0.646,1.396-1.687,0.795c-0.841-0.486-1.416-1.198-1.815-1.976l0.708-0.363c0.319,0.599,0.649,1.02,1.125,1.295
		c0.386,0.223,0.662,0.128,0.663-0.274c0.001-0.449-0.338-0.893-0.914-1.225l-0.426-0.246l-0.158-0.846l1.12-0.644l-1.837-1.061
		l0.003-1.007L18.086,25.482z"/>
	<path style="fill:#5280DF;" d="M20.935,27.127c1.467,0.847,2.475,2.587,2.471,4.095l0,0.017c-0.004,1.513-1.019,2.097-2.486,1.25
		l-1.822-1.052l0.015-5.362L20.935,27.127z M22.334,30.637l0-0.017c0.003-0.949-0.561-1.943-1.402-2.429l-0.796-0.46l-0.009,3.233
		l0.796,0.46C21.764,31.91,22.332,31.586,22.334,30.637"/>
	<path style="fill:#5280DF;" d="M29.04,17.87c0.41-0.134,0.741-0.096,1.132,0.131l1.746,1.015l-0.787,0.454l-1.729-1.005
		c-0.231-0.134-0.436-0.131-0.663,0l-0.355,0.205l2.06,1.197l-0.793,0.458l-5.138-2.986l1.303-0.752
		c0.643-0.371,1.278-0.368,1.917,0.003l0.969,0.563C29.153,17.415,29.213,17.636,29.04,17.87z M28.063,17.7l-1.09-0.634
		c-0.198-0.115-0.386-0.115-0.586,0l-0.382,0.221l1.696,0.986l0.355-0.205C28.277,17.94,28.272,17.822,28.063,17.7"/>
	<polygon style="fill:#5280DF;" points="23.501,22.254 20.272,19.787 21.447,19.108 26.585,22.094 25.809,22.542 21.905,20.273 
		25.244,22.869 24.468,23.317 19.948,21.345 23.902,23.643 23.22,24.037 18.082,21.051 19.263,20.369 	"/>
	<path style="fill:#5280DF;" d="M23.16,18.119c0.643-0.371,1.278-0.368,1.917,0.003l1.366,0.794
		c0.633,0.368,0.637,0.736-0.006,1.107l-0.449,0.259l1.861,1.082l-0.793,0.458l-5.138-2.986L23.16,18.119z M25.617,19.348
		l-1.294-0.752c-0.204-0.118-0.397-0.115-0.597,0l-0.322,0.186l1.894,1.101l0.322-0.186C25.82,19.582,25.821,19.467,25.617,19.348"
		/>
</g>
<g id="Layer_1">
</g>
</svg>
