<svg id="Layer_1" data-name="Layer 1" xmlns="http://www.w3.org/2000/svg" xmlns:xlink="http://www.w3.org/1999/xlink" viewBox="0 0 612 612"><defs><style>.cls-1{stroke:#232323;stroke-miterlimit:10;fill:url(#linear-gradient);}</style><linearGradient id="linear-gradient" x1="305.48" y1="107.25" x2="305.48" y2="505.75" gradientUnits="userSpaceOnUse"><stop offset="0" stop-color="#fff"/><stop offset="0.6" stop-color="#e2e2e2"/><stop offset="1" stop-color="#ccc"/></linearGradient></defs><path id="NextImage" class="cls-1" d="M504.45,303.58a14.64,14.64,0,0,0-.58-1.88c-.1-.29-.14-.59-.26-.87a14.66,14.66,0,0,0-1-1.92c-.12-.2-.21-.42-.34-.62a15.83,15.83,0,0,0-1.83-2.24l-73.7-73.69a14.76,14.76,0,0,0-20.87,20.87l48.52,48.51H253.83a14.76,14.76,0,0,0,0,29.52H454.35l-48.51,48.52a14.76,14.76,0,0,0,20.87,20.87l73.7-73.7a14.66,14.66,0,0,0,1.83-2.24c.13-.19.22-.41.34-.62a15.91,15.91,0,0,0,1-1.92c.12-.28.18-.59.27-.87a16.88,16.88,0,0,0,.58-1.87,15.15,15.15,0,0,0,0-5.85ZM386.67,476.23H135.75V136.77H386.67a14.76,14.76,0,0,0,0-29.52H121A14.77,14.77,0,0,0,106.23,122V491A14.77,14.77,0,0,0,121,505.75H386.67a14.76,14.76,0,1,0,0-29.52Z"/></svg>