<svg id="Layer_1" data-name="Layer 1" xmlns="http://www.w3.org/2000/svg" xmlns:xlink="http://www.w3.org/1999/xlink" viewBox="0 0 612 612"><defs><style>.cls-1{stroke:#232323;stroke-miterlimit:10;stroke-width:1.31px;fill:url(#linear-gradient);}</style><linearGradient id="linear-gradient" x1="306" y1="31.61" x2="306" y2="580.39" gradientUnits="userSpaceOnUse"><stop offset="0" stop-color="#fafafa"/><stop offset="1" stop-color="#ebebeb"/></linearGradient></defs><path id="NextPoint" class="cls-1" d="M490.31,214.54c-50.81,0-92.16,41-92.16,91.46s41.35,91.46,92.16,91.46,92.15-41,92.15-91.46S541.11,214.54,490.31,214.54Zm0,142.27c-28.22,0-51.2-22.8-51.2-50.81s23-50.81,51.2-50.81S541.5,278,541.5,306,518.52,356.81,490.31,356.81ZM29.54,306A20.42,20.42,0,0,0,50,326.33H283.23l-38.65,38.35a20.21,20.21,0,0,0,0,28.74,20.59,20.59,0,0,0,29,0l73.6-73.05a19.89,19.89,0,0,0,2.54-3.09c.18-.26.31-.57.47-.85a19.74,19.74,0,0,0,1.41-2.65,10.85,10.85,0,0,0,.37-1.19,21.37,21.37,0,0,0,.8-2.58,20,20,0,0,0,0-8.05,17.29,17.29,0,0,0-.8-2.59c-.14-.4-.2-.81-.37-1.19a19.74,19.74,0,0,0-1.41-2.65c-.16-.28-.29-.59-.47-.85a22.21,22.21,0,0,0-2.54-3.09l-73.6-73a20.57,20.57,0,0,0-29,0,20.19,20.19,0,0,0,0,28.74l38.64,38.35H50A20.48,20.48,0,0,0,29.54,306ZM562,448.27A20.42,20.42,0,0,0,541.5,468.6v40.65a30.64,30.64,0,0,1-30.72,30.49H101.22A30.64,30.64,0,0,1,70.5,509.25V417.79a20.48,20.48,0,0,0-41,0v91.46c0,39.23,32.16,71.14,71.68,71.14H510.78c39.53,0,71.68-31.91,71.68-71.14V468.6A20.42,20.42,0,0,0,562,448.27ZM510.78,31.61H101.22c-39.52,0-71.68,31.92-71.68,71.14v91.46a20.48,20.48,0,0,0,41,0V102.75a30.64,30.64,0,0,1,30.72-30.49H510.78a30.64,30.64,0,0,1,30.72,30.49V143.4a20.48,20.48,0,0,0,41,0V102.75C582.46,63.52,550.31,31.61,510.78,31.61Z"/></svg>