<svg id="Layer_1" data-name="Layer 1" xmlns="http://www.w3.org/2000/svg" xmlns:xlink="http://www.w3.org/1999/xlink" viewBox="0 0 612 612"><defs><style>.cls-1,.cls-2{stroke:#232323;stroke-miterlimit:10;stroke-width:1.31px;}.cls-1{fill:url(#linear-gradient);}.cls-2{fill:url(#linear-gradient-2);}</style><linearGradient id="linear-gradient" x1="306" y1="281" x2="306" y2="331" gradientUnits="userSpaceOnUse"><stop offset="0" stop-color="#fafafa"/><stop offset="1" stop-color="#ebebeb"/></linearGradient><linearGradient id="linear-gradient-2" x1="307.83" y1="293.25" x2="307.83" y2="318.75" xlink:href="#linear-gradient"/></defs><g id="NextFrameButton"><path class="cls-1" d="M331,327.67a3.33,3.33,0,0,1-3.33,3.33H284.33a3.33,3.33,0,0,1-3.33-3.33V284.33a3.33,3.33,0,0,1,3.33-3.33h43.34a3.33,3.33,0,0,1,3.33,3.33Z"/><path class="cls-2" d="M322.56,304.84a1.5,1.5,0,0,1,0,2.33l-14,11.41a1.24,1.24,0,0,1-1.87-1.07V310a.66.66,0,0,0-1.08-.52l-11.2,9.12a1.23,1.23,0,0,1-1.86-1.07v-23a1.23,1.23,0,0,1,1.86-1.06l11.2,9.11a.66.66,0,0,0,1.08-.52v-7.53a1.23,1.23,0,0,1,1.87-1.06Z"/></g></svg>