<?xml version="1.0" encoding="iso-8859-1"?>
<!-- Generator: Adobe Illustrator 21.1.0, SVG Export Plug-In . SVG Version: 6.00 Build 0)  -->
<svg version="1.1" xmlns="http://www.w3.org/2000/svg" xmlns:xlink="http://www.w3.org/1999/xlink" x="0px" y="0px"
	 viewBox="0 0 50 50" style="enable-background:new 0 0 50 50;" xml:space="preserve">
<g id="NextFrameButton">
	<g>
		<path style="fill:#C7CEDD;" d="M50,46.667C50,48.509,48.509,50,46.667,50H3.333C1.491,50,0,48.509,0,46.667V3.333
			C0,1.494,1.491,0,3.333,0h43.333C48.509,0,50,1.494,50,3.333V46.667z"/>
		<path style="fill:#333333;" d="M41.562,23.839c0.737,0.6,0.737,1.725,0,2.326L27.555,37.578c-0.824,0.488-1.862-0.104-1.862-1.065
			V28.98c0-0.562-0.652-0.872-1.088-0.517l-11.191,9.115c-0.827,0.488-1.865-0.104-1.865-1.065V13.49
			c0-0.96,1.039-1.556,1.865-1.064l11.191,9.115c0.436,0.355,1.088,0.045,1.088-0.517V13.49c0-0.96,1.038-1.556,1.862-1.064
			L41.562,23.839z"/>
	</g>
</g>
<g id="Layer_1">
</g>
</svg>
