<svg id="Layer_1" data-name="Layer 1" xmlns="http://www.w3.org/2000/svg" xmlns:xlink="http://www.w3.org/1999/xlink" viewBox="0 0 612 612"><defs><style>.cls-1{stroke:#232323;stroke-miterlimit:10;fill:url(#linear-gradient);}</style><linearGradient id="linear-gradient" x1="307.49" y1="108.25" x2="307.49" y2="505.75" gradientUnits="userSpaceOnUse"><stop offset="0" stop-color="#fff"/><stop offset="0.6" stop-color="#e2e2e2"/><stop offset="1" stop-color="#ccc"/></linearGradient></defs><path id="NextPoint" class="cls-1" d="M441,240.75c-36.8,0-66.75,29.73-66.75,66.25s29.95,66.25,66.75,66.25,66.75-29.72,66.75-66.25S477.79,240.75,441,240.75Zm0,103.06A36.81,36.81,0,1,1,478.07,307,37,37,0,0,1,441,343.81ZM107.23,307a14.78,14.78,0,0,0,14.84,14.72H291l-28,27.79a14.62,14.62,0,0,0,0,20.81,14.92,14.92,0,0,0,21,0l53.31-52.91a14.72,14.72,0,0,0,1.84-2.24c.13-.19.22-.41.34-.62a14.54,14.54,0,0,0,1-1.91c.12-.28.18-.59.27-.87a13.76,13.76,0,0,0,.58-7.7,13.08,13.08,0,0,0-.58-1.87c-.1-.29-.15-.59-.27-.87a15.2,15.2,0,0,0-1-1.91c-.12-.21-.21-.43-.34-.62a15.89,15.89,0,0,0-1.84-2.24L284,243.65a14.9,14.9,0,0,0-21,0,14.63,14.63,0,0,0,0,20.82l28,27.78H122.07A14.83,14.83,0,0,0,107.23,307ZM492.91,410.06a14.78,14.78,0,0,0-14.84,14.72v29.45a22.19,22.19,0,0,1-22.25,22.08H159.15a22.19,22.19,0,0,1-22.25-22.08V388a14.84,14.84,0,0,0-29.67,0v66.26c0,28.41,23.29,51.52,51.92,51.52H455.82c28.63,0,51.92-23.11,51.92-51.52V424.78A14.78,14.78,0,0,0,492.91,410.06ZM455.82,108.25H159.15c-28.63,0-51.92,23.11-51.92,51.53V226a14.84,14.84,0,0,0,29.67,0V159.78a22.2,22.2,0,0,1,22.25-22.09H455.82a22.2,22.2,0,0,1,22.25,22.09v29.44a14.84,14.84,0,0,0,29.67,0V159.78C507.74,131.36,484.45,108.25,455.82,108.25Z"/></svg>