<?xml version="1.0" encoding="iso-8859-1"?>
<!-- Generator: Adobe Illustrator 21.1.0, SVG Export Plug-In . SVG Version: 6.00 Build 0)  -->
<svg version="1.1" xmlns="http://www.w3.org/2000/svg" xmlns:xlink="http://www.w3.org/1999/xlink" x="0px" y="0px"
	 viewBox="0 0 50 50" style="enable-background:new 0 0 50 50;" xml:space="preserve">
<g id="NextPoint">
	<path style="fill:#5280DF;" d="M25,50C11.215,50,0,38.785,0,25C0,11.215,11.215,0,25,0c13.785,0,25,11.215,25,25
		C50,38.785,38.785,50,25,50z M25,1.905C12.265,1.905,1.905,12.265,1.905,25S12.265,48.095,25,48.095S48.095,37.735,48.095,25
		S37.735,1.905,25,1.905z"/>
	<path style="fill:#5280DF;" d="M33.571,29.286c-2.363,0-4.286-1.922-4.286-4.286c0-2.363,1.922-4.286,4.286-4.286
		s4.286,1.923,4.286,4.286C37.857,27.363,35.935,29.286,33.571,29.286z M33.571,22.619c-1.313,0-2.381,1.068-2.381,2.381
		s1.068,2.381,2.381,2.381c1.313,0,2.381-1.068,2.381-2.381S34.884,22.619,33.571,22.619z"/>
	<path style="fill:#5280DF;" d="M26.241,25.952H13.095c-0.526,0-0.952-0.426-0.952-0.952s0.426-0.952,0.952-0.952h13.145
		c0.526,0,0.952,0.426,0.952,0.952S26.767,25.952,26.241,25.952z"/>
	<path style="fill:#5280DF;" d="M22.817,29.375c-0.244,0-0.488-0.093-0.673-0.279c-0.372-0.372-0.372-0.975,0-1.347l2.75-2.75
		l-2.75-2.75c-0.372-0.372-0.372-0.975,0-1.347c0.372-0.372,0.975-0.372,1.347,0l3.423,3.423c0.179,0.179,0.279,0.421,0.279,0.673
		s-0.1,0.495-0.279,0.673l-3.423,3.423C23.305,29.282,23.061,29.375,22.817,29.375z"/>
	<path style="fill:#5280DF;" d="M34.524,37.857H15.476c-1.838,0-3.333-1.496-3.333-3.333v-4.286c0-0.526,0.426-0.952,0.952-0.952
		c0.526,0,0.952,0.426,0.952,0.952v4.286c0,0.788,0.641,1.429,1.429,1.429h19.048c0.788,0,1.429-0.641,1.429-1.429v-1.905
		c0-0.526,0.426-0.952,0.952-0.952s0.952,0.426,0.952,0.952v1.905C37.857,36.362,36.362,37.857,34.524,37.857z"/>
	<path style="fill:#5280DF;" d="M13.095,20.714c-0.526,0-0.952-0.426-0.952-0.952v-4.286c0-1.838,1.495-3.333,3.333-3.333h19.048
		c1.838,0,3.333,1.495,3.333,3.333v1.905c0,0.526-0.426,0.952-0.952,0.952s-0.952-0.426-0.952-0.952v-1.905
		c0-0.788-0.641-1.429-1.429-1.429H15.476c-0.788,0-1.429,0.641-1.429,1.429v4.286C14.048,20.288,13.621,20.714,13.095,20.714z"/>
</g>
<g id="Layer_1">
</g>
</svg>
