<svg id="Layer_1" data-name="Layer 1" xmlns="http://www.w3.org/2000/svg" xmlns:xlink="http://www.w3.org/1999/xlink" viewBox="0 0 612 612"><defs><style>.cls-1{stroke:#232323;stroke-miterlimit:10;fill:url(#linear-gradient);}</style><linearGradient id="linear-gradient" x1="305.49" y1="106.25" x2="305.49" y2="507.75" gradientUnits="userSpaceOnUse"><stop offset="0" stop-color="#fff"/><stop offset="0.6" stop-color="#e2e2e2"/><stop offset="1" stop-color="#ccc"/></linearGradient></defs><path id="Note" class="cls-1" d="M315.42,196.39H196.15a14.87,14.87,0,1,0,0,29.74H315.42a14.87,14.87,0,1,0,0-29.74Zm0,80.87H196.15a14.87,14.87,0,1,0,0,29.74H315.42a14.87,14.87,0,1,0,0-29.74Zm169,81.79H231a22.36,22.36,0,0,0-22.36,22.3v59.49a37.27,37.27,0,0,1-74.54,0V136H377.54V292.13a14.91,14.91,0,0,0,29.81,0v-171a14.89,14.89,0,0,0-14.91-14.87H119.14a14.89,14.89,0,0,0-14.9,14.87V440.84a67.07,67.07,0,0,0,67.08,66.91H439.66a67.08,67.08,0,0,0,67.08-66.91V381.35A22.36,22.36,0,0,0,484.38,359.05Zm-7.46,81.79A37.26,37.26,0,0,1,439.66,478H227.07a66.33,66.33,0,0,0,11.33-37.17v-52H476.92v52Z"/></svg>