<svg id="Layer_1" data-name="Layer 1" xmlns="http://www.w3.org/2000/svg" xmlns:xlink="http://www.w3.org/1999/xlink" viewBox="0 0 612 612"><defs><style>.cls-1{stroke:#232323;stroke-miterlimit:10;fill:url(#linear-gradient);}</style><linearGradient id="linear-gradient" x1="307.99" y1="109.25" x2="307.99" y2="504.75" gradientUnits="userSpaceOnUse"><stop offset="0" stop-color="#fff"/><stop offset="0.6" stop-color="#e2e2e2"/><stop offset="1" stop-color="#ccc"/></linearGradient></defs><path id="OneToOne" class="cls-1" d="M123,109.25a14.73,14.73,0,0,0-14.8,14.65V490.1a14.8,14.8,0,0,0,29.6,0V123.89A14.73,14.73,0,0,0,123,109.25Zm369.91,0a14.73,14.73,0,0,0-14.79,14.65V490.1a14.8,14.8,0,0,0,29.59,0V123.89A14.73,14.73,0,0,0,492.94,109.25Zm-175.5,37H298.53c-28.56,0-51.79,23-51.79,51.27v18.72c0,28.27,23.23,51.27,51.79,51.27h18.91c28.56,0,51.79-23,51.79-51.27V197.52C369.23,169.25,346,146.25,317.44,146.25Zm22.2,70a22.11,22.11,0,0,1-22.19,22H298.53a22.11,22.11,0,0,1-22.19-22V197.52a22.11,22.11,0,0,1,22.19-22h18.92a22.11,22.11,0,0,1,22.19,22Zm-22.2,130.25H298.53c-28.56,0-51.79,23-51.79,51.27v18.72c0,28.28,23.23,51.27,51.79,51.27h18.91c28.56,0,51.79-23,51.79-51.27V397.76C369.23,369.49,346,346.49,317.44,346.49Zm22.2,70a22.11,22.11,0,0,1-22.19,22H298.53a22.11,22.11,0,0,1-22.19-22V397.76a22.11,22.11,0,0,1,22.19-22h18.92a22.11,22.11,0,0,1,22.19,22Z"/></svg>