<svg id="Layer_1" data-name="Layer 1" xmlns="http://www.w3.org/2000/svg" xmlns:xlink="http://www.w3.org/1999/xlink" viewBox="0 0 612 612"><defs><style>.cls-1{stroke:#232323;stroke-miterlimit:10;fill:url(#linear-gradient);}</style><linearGradient id="linear-gradient" x1="307.99" y1="105.24" x2="307.99" y2="508.75" gradientUnits="userSpaceOnUse"><stop offset="0" stop-color="#fff"/><stop offset="0.6" stop-color="#e2e2e2"/><stop offset="1" stop-color="#ccc"/></linearGradient></defs><path id="Pan" class="cls-1" d="M491.35,377.21c.69-6.11,2-17.18,3.61-30.77,3.9-33.13,9.81-83.19,12.59-109.57,1.72-16.08-8.51-31-23.76-34.7A30.45,30.45,0,0,0,457,208.41l1.29-12.7a38.07,38.07,0,0,0-29.37-40.6A34,34,0,0,0,402.61,160a35.17,35.17,0,0,0-5.68,4.66v-18c0-22.79-18.33-41.37-40.85-41.41H356a40.18,40.18,0,0,0-28.77,12.07,41.33,41.33,0,0,0-12,29.38l.11,33-2.23-8.81c-4.4-19-23.29-31.13-42.14-27-18.65,4.06-31.31,22.27-28.83,41.54l16,116.56c-2.85-2.63-6-5.61-9.48-9a38.09,38.09,0,0,0-51.92-1.42l-11.35,9.85a23.51,23.51,0,0,0-3.62,31.22c12.35,17.86,35,50.2,47.74,66,11.07,13.73,28,25.83,39.75,33.16,2.56,2.51,6.64,14.56,6.64,21.23v5.72a37.36,37.36,0,0,0-17.49,31.64v3.42a14.8,14.8,0,1,0,29.59,0v-3.42a7.38,7.38,0,0,1,7.3-7.47H458.55a7.38,7.38,0,0,1,7.3,7.47v3.42a14.8,14.8,0,1,0,29.59,0v-3.42a37.4,37.4,0,0,0-17.34-31.56c.71-25.22,4.29-39.86,7.78-54C488.09,395.92,490.18,387.49,491.35,377.21Zm-25.78-34.29c-1.6,13.61-2.91,24.73-3.61,30.86-1,8.35-2.74,15.51-4.79,23.82-3.49,14.14-7.4,29.87-8.51,55.43H305.5c0-9-4.75-36.56-20-46.2-14.65-9.23-26.35-18.84-33-27.08-11.39-14.12-32.14-43.65-43.23-59.64l6.8-5.9a8.86,8.86,0,0,1,12.09.25c17.67,17.22,28.68,25.81,35.91,30.29l2.19,16a14.8,14.8,0,1,0,29.32-4.09l-3-21.78a15.79,15.79,0,0,0-.51-3.7L271.52,181.44a7.54,7.54,0,0,1,5.75-8.35,6.11,6.11,0,0,1,7.15,4.9l28.41,111.92a16.46,16.46,0,0,0,32.52-3.84l-.47-139.49a11.5,11.5,0,0,1,3.31-8.16,10.94,10.94,0,0,1,7.84-3.31h0a11.44,11.44,0,0,1,11.3,11.53v113A16.32,16.32,0,0,0,382,276a16.16,16.16,0,0,0,17.49-12.7l17.12-75.07A5,5,0,0,1,418.8,185a4.7,4.7,0,0,1,3.74-.69,8.13,8.13,0,0,1,6.27,8.57l-9.13,90.43a16.76,16.76,0,0,0,13,17.91,16.55,16.55,0,0,0,19-10.31l23.49-58c.11-.25.21-.52.3-.77a1.23,1.23,0,0,1,1.42-.84,2.25,2.25,0,0,1,1.26,2.47C475.35,259.91,469.46,309.86,465.57,342.92Zm-327.74-77c0-72.1,58.07-130.76,129.47-130.76a14.95,14.95,0,0,0,0-29.89c-87.7,0-159.07,72.08-159.07,160.65a160.65,160.65,0,0,0,30.26,94.29,14.72,14.72,0,0,0,20.67,3.33,15.05,15.05,0,0,0,3.29-20.88A130.71,130.71,0,0,1,137.83,265.9Zm55-1.22a96.46,96.46,0,0,1,24.44-51.53,15.06,15.06,0,0,0-.81-21.12,14.69,14.69,0,0,0-20.91.83,126.39,126.39,0,0,0-32,67.47,14.94,14.94,0,0,0,12.49,17,14.5,14.5,0,0,0,2.16.17A14.86,14.86,0,0,0,192.86,264.68Z"/></svg>