<svg id="Layer_1" data-name="Layer 1" xmlns="http://www.w3.org/2000/svg" xmlns:xlink="http://www.w3.org/1999/xlink" viewBox="0 0 612 612"><defs><style>.cls-1{stroke:#232323;stroke-miterlimit:10;fill:url(#linear-gradient);}</style><linearGradient id="linear-gradient" x1="306" y1="106" x2="306" y2="506" gradientUnits="userSpaceOnUse"><stop offset="0" stop-color="#fff"/><stop offset="0.6" stop-color="#e2e2e2"/><stop offset="1" stop-color="#ccc"/></linearGradient></defs><path id="Panoramic" class="cls-1" d="M506,375.77c0-15.51-3-27.91-9.13-35.66q4.56-4.65,4.56-13.95C503,321.5,509,275,490.79,256.39c-1.52-1.55-4.57-3.1-7.61-4.65,1.52-4.65,1.52-7.75,0-14,0,0-7.6-54.26-36.5-62-1.52,0-3,0-4.56-1.55-1.52-6.2-3-12.41-7.61-17.06l-3-3.1c-9.12-10.85-19.77-24.8-36.5-26.35-3,0-7.6,0-10.65,1.55-1.52-3.1-1.52-4.65-3-6.21-7.6-10.85-24.33-17-42.58-17-10.65,0-22.82,1.55-31.94,7.75-9.13-6.2-19.77-7.75-31.94-7.75-18.25,0-35,6.2-42.58,17-1.53,1.55-1.53,3.11-3.05,6.21-3-1.55-7.6-1.55-10.64-1.55-15.21,1.55-25.86,14-36.5,26.35l-3.05,3.1c-4.56,6.21-7.6,12.41-7.6,17.06a11.31,11.31,0,0,0-6.08,1.55c-28.9,7.75-36.51,62-36.51,62v14c-3,1.55-4.56,3.1-7.6,4.65C103,275,110.56,320,110.56,326.16q2.3,7,4.57,13.95C109,347.86,106,360.26,106,375.77c0,18.6,3,32.56,7.61,40.31C109,423.83,106,436.23,106,450.19c0,48.06,21.29,55.81,33.46,55.81h16.73c28.9,0,28.9-38.76,28.9-52.71,0-15.51-3-26.36-7.61-35.66,7.61-12.4,7.61-31,7.61-40.31q0-25.59-9.13-37.21c7.61-15.51,12.17-37.21,9.13-58.92,0-4.65-1.52-7.75-3-10.85,15.2-12.4,24.33-37.21,25.85-52.71v-1.55c16.73-6.2,35-20.16,41.07-35.66,4.56,0,9.12,1.55,13.68,1.55,12.17,0,25.86-3.1,31.94-4.65,3.05-1.55,6.09-3.1,7.61-4.65,3,1.55,4.56,3.1,7.6,4.65,7.61,3.1,19.77,4.65,31.94,4.65,4.56,0,9.12,0,13.69-1.55,7.6,15.5,24.33,29.46,41.06,35.66v1.55c1.52,15.5,10.65,40.31,25.86,52.71-1.52,3.1-3.05,7.75-3.05,10.85-3,21.71,0,43.41,9.13,58.92-6.08,9.3-9.13,20.15-9.13,37.21,0,9.3,0,27.9,7.61,40.31-4.57,7.75-7.61,20.15-7.61,35.66,0,13.95,0,52.71,28.9,52.71h16.73c12.17,0,33.46-7.75,33.46-55.81,0-15.51-3-26.36-7.6-34.11C501.43,408.33,506,395.92,506,375.77ZM455.81,287.4c0-4.66,3-7.76,7.6-9.31H468c1.52,0,3,0,4.57,1.55,3,4.66,4.56,24.81,3,43.41A4.89,4.89,0,0,1,471,327.7h-7.61C455.81,318.4,454.29,304.45,455.81,287.4Zm3,114.72c-1.52-3.1-1.52-9.3-1.52-23.25,0-23.26,3-23.26,12.17-23.26H471c3,0,6.08,3.1,6.08,18.61,0,18.6-3,24.8-4.56,26.35C472.54,402.12,458.85,402.12,458.85,402.12Zm-1.52-159.69a12,12,0,0,1-3,7.76h-1.52c-4.57,0-16.73-18.61-18.25-34.11,0-4.65,1.52-7.75,3-10.85a4.66,4.66,0,0,1,3-1.55h1.52C446.68,208.33,454.29,228.48,457.33,242.43Zm-279.85-37.2H179c1.52,0,3,0,3,1.55,3.05,1.55,3.05,6.2,3.05,10.85-1.52,15.5-13.69,34.11-18.25,34.11h-1.52c-1.53-1.55-4.57-4.65-3-7.75C165.31,228.48,172.92,208.33,177.48,205.23ZM147.06,402.12c0-1.55-4.56-7.75-4.56-26.35,0-20.15,4.56-20.15,7.61-20.15,9.12,0,12.16,0,12.16,23.25,0,13.95-1.52,20.15-1.52,23.26Zm3.05-74.42h0a4.9,4.9,0,0,1-4.57-4.65c-3-18.6-1.52-38.75,3-43.41a6.63,6.63,0,0,1,4.57-1.55h4.56c4.56,1.55,6.08,4.65,7.6,9.31,1.53,17.05,0,31-4.56,40.31Zm10.64,150.39H147.06c-1.52-1.55-4.56-7.75-4.56-26.35,0-20.16,4.56-20.16,7.61-20.16,9.12,0,12.16,0,12.16,23.26C163.79,468.79,162.27,475,160.75,478.09Zm45.63-288.37c0-1.55-1.52-1.55-3-3.1,0-3.1,0-6.2,3-9.3l3-3.1c4.56-4.65,12.17-15.51,15.21-15.51h0a4.66,4.66,0,0,1,3,1.55c1.52,1.55,3,3.11,3,7.76C230.71,174.22,218.55,183.52,206.38,189.72Zm88.21-41.86c0,1.55-1.52,1.55-3,3.1-9.13,3.1-25.86,4.65-31.94,3.1V143.21c1.52-1.55,7.61-4.65,18.25-4.65s15.21,1.55,15.21,3.1C294.59,141.66,296.11,144.76,294.59,147.86Zm33.46,3.1c-1.52,0-1.52-1.55-3-3.1-1.52-3.1,0-6.2,0-7.75s4.56-3.1,15.21-3.1,16.73,3.1,18.25,4.65v10.85C353.91,154.06,337.18,154.06,328.05,151Zm60.84,18.61c0-4.65,1.52-7.76,3-7.76a4.66,4.66,0,0,1,3-1.55h0c3,0,10.65,9.31,15.21,15.51l3,3.1c1.52,3.1,3,6.2,1.52,9.3-1.52,1.55-1.52,1.55-1.52,3.1C401.06,183.52,388.89,174.22,388.89,169.57Zm83.65,308.52H458.85c-1.52-3.1-1.52-9.3-1.52-23.25,0-23.26,3-23.26,12.16-23.26,3.05,0,7.61,0,7.61,20.16C477.1,470.34,472.54,476.54,472.54,478.09Z"/></svg>