<?xml version="1.0" encoding="iso-8859-1"?>
<!-- Generator: Adobe Illustrator 21.1.0, SVG Export Plug-In . SVG Version: 6.00 Build 0)  -->
<svg version="1.1" id="Layer_1" xmlns="http://www.w3.org/2000/svg" xmlns:xlink="http://www.w3.org/1999/xlink" x="0px" y="0px"
	 viewBox="0 0 50 50" style="enable-background:new 0 0 50 50;" xml:space="preserve">
<path style="fill:#5280DF;" d="M25,50C11.215,50,0,38.785,0,25S11.215,0,25,0s25,11.215,25,25S38.785,50,25,50z M25,1.905
	C12.265,1.905,1.905,12.265,1.905,25S12.265,48.095,25,48.095S48.095,37.735,48.095,25S37.735,1.905,25,1.905z"/>
<path style="fill:#5280DF;" d="M37.857,29.42c0-1.009-0.192-1.772-0.564-2.298c0.159-0.245,0.286-0.531,0.343-0.875
	c0.055-0.332,0.504-3.273-0.682-4.462c-0.135-0.135-0.293-0.247-0.464-0.339c0.066-0.258,0.093-0.544,0.049-0.858
	c-0.005-0.035-0.538-3.523-2.407-3.996c-0.116-0.03-0.233-0.047-0.349-0.058c-0.075-0.373-0.231-0.772-0.533-1.133l-0.16-0.193
	c-0.617-0.747-1.316-1.594-2.355-1.662c-0.23-0.016-0.46,0.02-0.685,0.082c-0.055-0.152-0.123-0.284-0.204-0.391
	c-0.512-0.685-1.554-1.094-2.787-1.094c-0.717,0-1.474,0.075-2.059,0.456c-0.584-0.38-1.341-0.456-2.059-0.456
	c-1.232,0-2.274,0.409-2.787,1.093c-0.081,0.108-0.148,0.239-0.204,0.391c-0.224-0.062-0.454-0.097-0.685-0.081
	c-1.04,0.069-1.739,0.915-2.355,1.662l-0.159,0.193c-0.302,0.361-0.457,0.76-0.533,1.133c-0.117,0.012-0.233,0.029-0.35,0.058
	c-1.869,0.473-2.402,3.961-2.407,3.996c-0.043,0.314-0.017,0.6,0.049,0.858c-0.172,0.093-0.33,0.204-0.465,0.34
	c-1.186,1.189-0.737,4.131-0.682,4.462c0.057,0.344,0.184,0.63,0.343,0.875c-0.372,0.526-0.565,1.289-0.565,2.298
	c0,1.248,0.218,2.067,0.529,2.607c-0.347,0.524-0.529,1.265-0.529,2.238c0,3.126,1.355,3.593,2.163,3.593h1.092
	c1.885,0,1.885-2.452,1.885-3.375c0-0.973-0.157-1.723-0.478-2.269c0.476-0.8,0.478-1.993,0.478-2.576
	c0-1.057-0.186-1.852-0.565-2.405c0.533-0.993,0.75-2.379,0.557-3.801c-0.035-0.254-0.102-0.495-0.198-0.718
	c1.013-0.835,1.627-2.426,1.702-3.404c0.003-0.036,0.001-0.071,0.002-0.106c1.08-0.425,2.253-1.279,2.709-2.278
	c0.276,0.049,0.566,0.071,0.857,0.071c0.845,0,1.686-0.175,2.141-0.346c0.187-0.071,0.355-0.171,0.512-0.284
	c0.157,0.113,0.324,0.213,0.512,0.284c0.454,0.172,1.296,0.346,2.141,0.346c0.291,0,0.581-0.022,0.857-0.071
	c0.456,0.999,1.629,1.853,2.709,2.278c0.002,0.036,0,0.07,0.002,0.106c0.074,0.978,0.689,2.569,1.702,3.404
	c-0.096,0.223-0.163,0.463-0.197,0.718c-0.193,1.423,0.024,2.808,0.556,3.801c-0.379,0.554-0.565,1.348-0.565,2.405
	c0,0.583,0.001,1.776,0.478,2.576c-0.32,0.545-0.478,1.296-0.478,2.269c0,0.923,0,3.375,1.885,3.375h1.092
	c0.808,0,2.163-0.467,2.163-3.593c0-0.973-0.182-1.714-0.529-2.238C37.64,31.487,37.857,30.667,37.857,29.42z M34.613,23.688
	c0.04-0.295,0.194-0.489,0.457-0.579c0.026-0.009,0.05-0.013,0.075-0.019c0.005-0.001,0.01-0.002,0.015-0.004
	c0.062-0.014,0.122-0.022,0.175-0.022c0.14,0,0.241,0.038,0.269,0.065c0.23,0.258,0.349,1.63,0.153,2.806
	c-0.03,0.181-0.16,0.28-0.257,0.333c-0.016,0-0.028-0.004-0.044-0.004c-0.183,0-0.354,0.013-0.519,0.034
	C34.643,25.729,34.465,24.78,34.613,23.688z M34.767,31.108c-0.059-0.18-0.146-0.595-0.146-1.47c0-1.469,0.244-1.469,0.834-1.469
	c0.029,0,0.058,0,0.087,0.002c0.002,0,0.004,0,0.006,0c0.212,0.017,0.404,0.156,0.404,1.249c0,1.207-0.229,1.599-0.297,1.688H34.767
	z M34.651,20.848c0.024,0.173-0.119,0.36-0.226,0.47c-0.034,0.012-0.066,0.028-0.1,0.041c-0.317-0.039-1.129-1.196-1.205-2.195
	c-0.021-0.282,0.057-0.527,0.209-0.655c0.071-0.06,0.15-0.088,0.23-0.088c0.027,0,0.055,0.003,0.083,0.01
	C33.974,18.599,34.521,19.909,34.651,20.848z M16.336,18.438c0.038-0.01,0.074-0.014,0.108-0.014c0.084,0,0.158,0.028,0.226,0.085
	c0.153,0.128,0.231,0.373,0.209,0.655c-0.076,1-0.888,2.157-1.204,2.196c-0.034-0.013-0.066-0.029-0.1-0.041
	c-0.107-0.111-0.251-0.297-0.227-0.47C15.479,19.909,16.026,18.599,16.336,18.438z M14.345,31.108
	c-0.067-0.089-0.297-0.481-0.297-1.688c0-1.251,0.253-1.251,0.497-1.251c0.59,0,0.834,0,0.834,1.469c0,0.875-0.087,1.29-0.146,1.47
	H14.345z M14.544,26.263c-0.016,0-0.03,0.004-0.046,0.004c-0.09-0.049-0.225-0.148-0.255-0.333
	c-0.196-1.175-0.077-2.548,0.151-2.804c0.028-0.028,0.131-0.066,0.271-0.066c0.078,0,0.168,0.012,0.264,0.045
	c0.263,0.09,0.417,0.285,0.457,0.579c0.148,1.092-0.03,2.042-0.324,2.61C14.899,26.277,14.728,26.263,14.544,26.263z M15.233,35.952
	h-0.888c-0.067-0.089-0.297-0.481-0.297-1.688c0-1.252,0.253-1.252,0.497-1.252c0.59,0,0.834,0,0.834,1.47
	C15.379,35.357,15.291,35.772,15.233,35.952z M18.214,17.382c-0.048-0.06-0.098-0.118-0.152-0.172
	c-0.006-0.186,0.019-0.43,0.151-0.588l0.167-0.201c0.277-0.336,0.792-0.96,1.011-0.974c0.003,0,0.006,0,0.009,0
	c0.049,0,0.125,0.025,0.2,0.097c0.072,0.069,0.191,0.229,0.185,0.532C19.76,16.356,19.026,17.032,18.214,17.382z M23.991,14.696
	c-0.035,0.089-0.085,0.137-0.175,0.171c-0.619,0.233-1.703,0.278-2.138,0.157c-0.002-0.272,0.014-0.543,0.043-0.685
	c0.13-0.099,0.513-0.293,1.22-0.293c0.71,0,1.008,0.092,1.05,0.178C24.028,14.301,24.06,14.523,23.991,14.696z M26.184,14.868
	c-0.091-0.034-0.14-0.083-0.176-0.172c-0.069-0.173-0.037-0.395,0-0.471c0.042-0.086,0.34-0.178,1.05-0.178
	c0.709,0,1.091,0.194,1.22,0.292c0.028,0.142,0.045,0.41,0.043,0.685C27.886,15.146,26.804,15.101,26.184,14.868z M30.215,16.077
	c-0.006-0.305,0.113-0.466,0.185-0.534c0.075-0.072,0.151-0.097,0.2-0.097c0.003,0,0.006,0,0.009,0
	c0.219,0.014,0.734,0.639,1.011,0.974l0.167,0.201c0.131,0.157,0.154,0.399,0.148,0.591c-0.053,0.054-0.102,0.111-0.149,0.169
	C30.974,17.032,30.24,16.356,30.215,16.077z M35.656,35.952h-0.888c-0.059-0.18-0.146-0.595-0.146-1.47
	c0-1.47,0.244-1.47,0.834-1.47c0.244,0,0.497,0,0.497,1.252C35.952,35.471,35.723,35.864,35.656,35.952z"/>
</svg>
