<svg id="Layer_1" data-name="Layer 1" xmlns="http://www.w3.org/2000/svg" xmlns:xlink="http://www.w3.org/1999/xlink" viewBox="0 0 612 612"><defs><style>.cls-1{stroke:#232323;stroke-miterlimit:10;fill:url(#linear-gradient);}</style><linearGradient id="linear-gradient" x1="306.48" y1="106.25" x2="306.48" y2="507.75" gradientUnits="userSpaceOnUse"><stop offset="0" stop-color="#fff"/><stop offset="0.6" stop-color="#e2e2e2"/><stop offset="1" stop-color="#ccc"/></linearGradient></defs><path id="Perio" class="cls-1" d="M454.83,106.25H405.38a51.67,51.67,0,0,0-37.08,15.69,51.65,51.65,0,0,0-37.08-15.69H281.76a51.65,51.65,0,0,0-37.08,15.69,51.68,51.68,0,0,0-37.09-15.69H158.15a52,52,0,0,0-51.92,52V431a76.79,76.79,0,0,0,76.62,76.8h.05a76.43,76.43,0,0,0,61.78-31.57,76.42,76.42,0,0,0,61.78,31.57h0a76.44,76.44,0,0,0,61.79-31.57,76.41,76.41,0,0,0,61.78,31.57h0A76.79,76.79,0,0,0,506.73,431V158.29A52,52,0,0,0,454.83,106.25ZM182.9,478h-.05A47.06,47.06,0,0,1,135.9,431V158.29A22.3,22.3,0,0,1,158.15,136h49.44a22.3,22.3,0,0,1,22.25,22.3V431A47.05,47.05,0,0,1,182.9,478Zm123.62,0h0a47.06,47.06,0,0,1-47-47.06V158.29A22.3,22.3,0,0,1,281.78,136h49.44a22.3,22.3,0,0,1,22.25,22.3V431A47.08,47.08,0,0,1,306.52,478ZM477.08,431A47.07,47.07,0,0,1,430.13,478h-.05A47.06,47.06,0,0,1,383.14,431V158.29A22.3,22.3,0,0,1,405.38,136h49.45a22.31,22.31,0,0,1,22.25,22.3Z"/></svg>