<svg id="Layer_1" data-name="Layer 1" xmlns="http://www.w3.org/2000/svg" xmlns:xlink="http://www.w3.org/1999/xlink" viewBox="0 0 612 612"><defs><style>.cls-1{stroke:#232323;stroke-miterlimit:10;stroke-width:1.31px;fill:url(#linear-gradient);}</style><linearGradient id="linear-gradient" x1="306" y1="31.75" x2="306" y2="580.25" gradientUnits="userSpaceOnUse"><stop offset="0" stop-color="#fafafa"/><stop offset="1" stop-color="#ebebeb"/></linearGradient></defs><path id="Perio" class="cls-1" d="M508.65,31.75H441.11a70.6,70.6,0,0,0-50.66,21.44,70.59,70.59,0,0,0-50.66-21.44H272.23a70.59,70.59,0,0,0-50.66,21.44,70.59,70.59,0,0,0-50.66-21.44H103.37a71.09,71.09,0,0,0-70.92,71.1V475.32c0,57.86,47,104.93,104.66,104.93h.06a104.45,104.45,0,0,0,84.4-43.13A104.42,104.42,0,0,0,306,580.25H306a104.45,104.45,0,0,0,84.4-43.13,104.42,104.42,0,0,0,84.4,43.13h.06c57.71,0,104.66-47.07,104.66-104.93V102.85A71.05,71.05,0,0,0,508.65,31.75ZM137.17,539.62h-.06A64.3,64.3,0,0,1,73,475.32V102.85a30.47,30.47,0,0,1,30.4-30.47h67.54a30.47,30.47,0,0,1,30.4,30.47V475.32A64.3,64.3,0,0,1,137.17,539.62Zm168.88,0H306a64.29,64.29,0,0,1-64.13-64.3V102.85a30.46,30.46,0,0,1,30.39-30.47h67.54a30.47,30.47,0,0,1,30.4,30.47V475.32A64.33,64.33,0,0,1,306.05,539.62Zm233-64.3a64.3,64.3,0,0,1-64.14,64.3h-.06a64.29,64.29,0,0,1-64.13-64.3V102.85a30.46,30.46,0,0,1,30.39-30.47h67.54a30.47,30.47,0,0,1,30.4,30.47Z"/></svg>