<?xml version="1.0" encoding="iso-8859-1"?>
<!-- Generator: Adobe Illustrator 21.1.0, SVG Export Plug-In . SVG Version: 6.00 Build 0)  -->
<svg version="1.1" xmlns="http://www.w3.org/2000/svg" xmlns:xlink="http://www.w3.org/1999/xlink" x="0px" y="0px"
	 viewBox="0 0 50 50" style="enable-background:new 0 0 50 50;" xml:space="preserve">
<g id="Perio">
	<path style="fill:#5280DF;" d="M25,50C11.215,50,0,38.785,0,25C0,11.215,11.215,0,25,0c13.785,0,25,11.215,25,25
		C50,38.785,38.785,50,25,50z M25,1.905C12.265,1.905,1.905,12.265,1.905,25S12.265,48.095,25,48.095S48.095,37.735,48.095,25
		S37.735,1.905,25,1.905z"/>
	<path style="fill:#5280DF;" d="M17.065,37.857h-0.003c-2.712,0-4.919-2.207-4.919-4.919V15.476c0-1.838,1.495-3.333,3.333-3.333
		h3.175c1.838,0,3.333,1.495,3.333,3.333v17.462C21.984,35.651,19.777,37.857,17.065,37.857z M15.476,14.048
		c-0.788,0-1.429,0.641-1.429,1.429v17.462c0,1.662,1.352,3.014,3.014,3.014h0.003c1.662,0,3.014-1.352,3.014-3.014V15.476
		c0-0.788-0.641-1.429-1.429-1.429H15.476z"/>
	<path style="fill:#5280DF;" d="M25.002,37.857h-0.003c-2.712,0-4.919-2.207-4.919-4.919V15.476c0-1.838,1.495-3.333,3.333-3.333
		h3.175c1.838,0,3.333,1.495,3.333,3.333v17.462C29.92,35.651,27.714,37.857,25.002,37.857z M23.413,14.048
		c-0.788,0-1.429,0.641-1.429,1.429v17.462c0,1.662,1.352,3.014,3.014,3.014h0.003c1.662,0,3.014-1.352,3.014-3.014V15.476
		c0-0.788-0.641-1.429-1.429-1.429H23.413z"/>
	<path style="fill:#5280DF;" d="M32.938,37.857h-0.003c-2.713,0-4.919-2.207-4.919-4.919V15.476c0-1.838,1.496-3.333,3.333-3.333
		h3.175c1.838,0,3.333,1.495,3.333,3.333v17.462C37.857,35.651,35.651,37.857,32.938,37.857z M31.349,14.048
		c-0.788,0-1.429,0.641-1.429,1.429v17.462c0,1.662,1.352,3.014,3.014,3.014h0.003c1.662,0,3.014-1.352,3.014-3.014V15.476
		c0-0.788-0.641-1.429-1.429-1.429H31.349z"/>
</g>
<g id="Layer_1">
</g>
</svg>
