<svg id="Layer_1" data-name="Layer 1" xmlns="http://www.w3.org/2000/svg" xmlns:xlink="http://www.w3.org/1999/xlink" viewBox="0 0 612 612"><defs><style>.cls-1{stroke:#232323;stroke-miterlimit:10;fill:url(#linear-gradient);}</style><linearGradient id="linear-gradient" x1="307.99" y1="106.25" x2="307.99" y2="505.75" gradientUnits="userSpaceOnUse"><stop offset="0" stop-color="#fff"/><stop offset="0.6" stop-color="#e2e2e2"/><stop offset="1" stop-color="#ccc"/></linearGradient></defs><path id="Point" class="cls-1" d="M308,106.25c-110.7,0-200.76,89.61-200.76,199.75S197.29,505.75,308,505.75,508.74,416.15,508.74,306,418.68,106.25,308,106.25Zm0,369.91c-94.3,0-171-76.33-171-170.16s76.71-170.16,171-170.16S479,212.17,479,306,402.28,476.16,308,476.16Zm0-210.85A40.69,40.69,0,1,0,348.88,306,40.79,40.79,0,0,0,308,265.31Z"/></svg>