<svg id="Layer_1" data-name="Layer 1" xmlns="http://www.w3.org/2000/svg" xmlns:xlink="http://www.w3.org/1999/xlink" viewBox="0 0 612 612"><defs><style>.cls-1{stroke:#232323;stroke-miterlimit:10;stroke-width:1.31px;fill:url(#linear-gradient);}</style><linearGradient id="linear-gradient" x1="306" y1="31.55" x2="306" y2="580.45" gradientUnits="userSpaceOnUse"><stop offset="0" stop-color="#fafafa"/><stop offset="1" stop-color="#ebebeb"/></linearGradient></defs><path id="Point" class="cls-1" d="M306,31.55C153.91,31.55,30.18,154.67,30.18,306S153.91,580.45,306,580.45,581.82,457.33,581.82,306,458.09,31.55,306,31.55Zm0,508.24C176.45,539.79,71,434.91,71,306S176.45,72.21,306,72.21,541,177.09,541,306,435.55,539.79,306,539.79Zm0-289.69A55.9,55.9,0,1,0,362.19,306,56,56,0,0,0,306,250.1Z"/></svg>