<?xml version="1.0" encoding="iso-8859-1"?>
<!-- Generator: Adobe Illustrator 21.1.0, SVG Export Plug-In . SVG Version: 6.00 Build 0)  -->
<svg version="1.1" xmlns="http://www.w3.org/2000/svg" xmlns:xlink="http://www.w3.org/1999/xlink" x="0px" y="0px"
	 viewBox="0 0 50 50" style="enable-background:new 0 0 50 50;" xml:space="preserve">
<g id="Polygon">
	<path style="fill:#5280DF;" d="M25,50C11.215,50,0,38.785,0,25C0,11.215,11.215,0,25,0c13.785,0,25,11.215,25,25
		C50,38.785,38.785,50,25,50z M25,1.905C12.265,1.905,1.905,12.265,1.905,25S12.265,48.095,25,48.095S48.095,37.735,48.095,25
		S37.735,1.905,25,1.905z"/>
	<path style="fill:#5280DF;" d="M36.905,37.857h-3.571c-0.526,0-0.952-0.426-0.952-0.952s0.426-0.952,0.952-0.952h2.619v-2.619
		c0-0.526,0.426-0.952,0.952-0.952s0.952,0.426,0.952,0.952v3.571C37.857,37.431,37.431,37.857,36.905,37.857z"/>
	<path style="fill:#5280DF;" d="M27.778,37.857h-5.555c-0.526,0-0.952-0.426-0.952-0.952s0.426-0.952,0.952-0.952h5.555
		c0.526,0,0.952,0.426,0.952,0.952S28.304,37.857,27.778,37.857z"/>
	<path style="fill:#5280DF;" d="M16.667,37.857h-3.571c-0.526,0-0.952-0.426-0.952-0.952v-3.571c0-0.526,0.426-0.952,0.952-0.952
		c0.526,0,0.952,0.426,0.952,0.952v2.619h2.619c0.526,0,0.952,0.426,0.952,0.952S17.193,37.857,16.667,37.857z"/>
	<path style="fill:#5280DF;" d="M13.095,28.73c-0.526,0-0.952-0.426-0.952-0.952v-5.555c0-0.526,0.426-0.952,0.952-0.952
		c0.526,0,0.952,0.426,0.952,0.952v5.555C14.048,28.304,13.621,28.73,13.095,28.73z"/>
	<path style="fill:#5280DF;" d="M13.095,17.619c-0.526,0-0.952-0.426-0.952-0.952v-3.571c0-0.526,0.426-0.952,0.952-0.952h3.571
		c0.526,0,0.952,0.426,0.952,0.952c0,0.526-0.426,0.952-0.952,0.952h-2.619v2.619C14.048,17.193,13.621,17.619,13.095,17.619z"/>
	<path style="fill:#5280DF;" d="M27.778,14.048h-5.555c-0.526,0-0.952-0.426-0.952-0.952c0-0.526,0.426-0.952,0.952-0.952h5.555
		c0.526,0,0.952,0.426,0.952,0.952C28.73,13.621,28.304,14.048,27.778,14.048z"/>
	<path style="fill:#5280DF;" d="M36.905,17.619c-0.526,0-0.952-0.426-0.952-0.952v-2.619h-2.619c-0.526,0-0.952-0.426-0.952-0.952
		c0-0.526,0.426-0.952,0.952-0.952h3.571c0.526,0,0.952,0.426,0.952,0.952v3.571C37.857,17.193,37.431,17.619,36.905,17.619z"/>
	<path style="fill:#5280DF;" d="M36.905,28.73c-0.526,0-0.952-0.426-0.952-0.952v-5.555c0-0.526,0.426-0.952,0.952-0.952
		s0.952,0.426,0.952,0.952v5.555C37.857,28.304,37.431,28.73,36.905,28.73z"/>
	<path style="fill:#5280DF;" d="M30.053,32.619H19.947c-0.476,0-0.878-0.351-0.944-0.822l-1.123-8.14
		c-0.045-0.324,0.08-0.648,0.331-0.859l6.175-5.193c0.354-0.298,0.871-0.298,1.226,0l6.176,5.193
		c0.251,0.211,0.375,0.535,0.331,0.859l-1.123,8.14C30.931,32.268,30.528,32.619,30.053,32.619z M20.778,30.714h8.445l0.938-6.797
		L25,19.578l-5.16,4.339L20.778,30.714z"/>
</g>
<g id="Layer_1">
</g>
</svg>
