<svg id="Layer_1" data-name="Layer 1" xmlns="http://www.w3.org/2000/svg" xmlns:xlink="http://www.w3.org/1999/xlink" viewBox="0 0 612 612"><defs><style>.cls-1,.cls-2{stroke:#232323;stroke-miterlimit:10;}.cls-1{opacity:0.6;isolation:isolate;fill:url(#linear-gradient);}.cls-2{fill:url(#linear-gradient-2);}</style><linearGradient id="linear-gradient" x1="306.49" y1="108.25" x2="306.49" y2="507.75" gradientUnits="userSpaceOnUse"><stop offset="0" stop-color="#fff"/><stop offset="0.6" stop-color="#e2e2e2"/><stop offset="1" stop-color="#ccc"/></linearGradient><linearGradient id="linear-gradient-2" x1="306.5" y1="185.72" x2="306.5" y2="430.26" xlink:href="#linear-gradient"/></defs><g id="Polyline"><path class="cls-1" d="M491.91,422.67a14.83,14.83,0,0,0-14.84,14.8v40.69H436.28a14.8,14.8,0,1,0,0,29.59h55.63A14.81,14.81,0,0,0,506.74,493V437.47A14.82,14.82,0,0,0,491.91,422.67ZM349.74,478.16H263.22a14.8,14.8,0,1,0,0,29.59h86.52a14.8,14.8,0,1,0,0-29.59Zm-173,0H135.9V437.47a14.84,14.84,0,0,0-29.67,0V493a14.82,14.82,0,0,0,14.84,14.79h55.62a14.8,14.8,0,1,0,0-29.59ZM121.07,365.94a14.81,14.81,0,0,0,14.83-14.79V264.84a14.84,14.84,0,0,0-29.67,0v86.31A14.81,14.81,0,0,0,121.07,365.94Zm55.62-257.69H121.07A14.82,14.82,0,0,0,106.23,123v55.49a14.84,14.84,0,0,0,29.67,0V137.84h40.79a14.8,14.8,0,1,0,0-29.59Zm173.05,0H263.22a14.8,14.8,0,1,0,0,29.59h86.52a14.8,14.8,0,1,0,0-29.59Zm142.17,0H436.28a14.8,14.8,0,1,0,0,29.59h40.79v40.69a14.84,14.84,0,0,0,29.67,0V123A14.82,14.82,0,0,0,491.91,108.25Zm0,141.79a14.83,14.83,0,0,0-14.84,14.8v86.31a14.84,14.84,0,0,0,29.67,0V264.84A14.82,14.82,0,0,0,491.91,250Z"/><path class="cls-2" d="M375,430.26a14.78,14.78,0,0,1-10.49-4.33l-137-136.65a14.78,14.78,0,0,1,0-20.92l78.5-78.3a14.86,14.86,0,0,1,10.49-4.34h0A14.84,14.84,0,0,1,327,190.06l55.74,55.6a14.81,14.81,0,1,1-21,20.92L316.5,221.44,259,278.81,385.48,405A14.81,14.81,0,0,1,375,430.26Z"/></g></svg>