<svg id="Layer_1" data-name="Layer 1" xmlns="http://www.w3.org/2000/svg" xmlns:xlink="http://www.w3.org/1999/xlink" viewBox="0 0 612 612"><defs><style>.cls-1,.cls-2{stroke:#232323;stroke-miterlimit:10;}.cls-1{opacity:0.6;isolation:isolate;fill:url(#linear-gradient);}.cls-2{fill:url(#linear-gradient-2);}</style><linearGradient id="linear-gradient" x1="306.49" y1="108.25" x2="306.49" y2="506.75" gradientUnits="userSpaceOnUse"><stop offset="0" stop-color="#fff"/><stop offset="0.6" stop-color="#e2e2e2"/><stop offset="1" stop-color="#ccc"/></linearGradient><linearGradient id="linear-gradient-2" x1="306.48" y1="189.43" x2="306.48" y2="425.58" xlink:href="#linear-gradient"/></defs><g id="Polygon"><path class="cls-1" d="M491,421.89a14.76,14.76,0,0,0-14.76,14.76v40.59H435.63a14.76,14.76,0,1,0,0,29.51H491A14.76,14.76,0,0,0,505.74,492V436.65A14.76,14.76,0,0,0,491,421.89ZM349.53,477.23h-86.1a14.76,14.76,0,0,0,0,29.52h86.1a14.76,14.76,0,1,0,0-29.52Zm-172.19,0H136.75V436.64a14.76,14.76,0,0,0-29.52,0V492A14.77,14.77,0,0,0,122,506.75h55.35a14.76,14.76,0,1,0,0-29.52ZM122,365.3a14.76,14.76,0,0,0,14.76-14.76V264.45a14.76,14.76,0,0,0-29.52,0v86.09A14.76,14.76,0,0,0,122,365.3Zm55.35-257H122A14.77,14.77,0,0,0,107.23,123v55.35a14.76,14.76,0,0,0,29.52,0V137.77h40.59a14.76,14.76,0,0,0,0-29.52Zm172.19,0h-86.1a14.76,14.76,0,0,0,0,29.52h86.1a14.76,14.76,0,1,0,0-29.52Zm141.45,0H435.63a14.76,14.76,0,1,0,0,29.52h40.59v40.59a14.76,14.76,0,0,0,29.52,0V123A14.76,14.76,0,0,0,491,108.25Zm0,141.44a14.76,14.76,0,0,0-14.76,14.76v86.09a14.76,14.76,0,0,0,29.52,0V264.45A14.76,14.76,0,0,0,491,249.69Z"/><path class="cls-2" d="M384.79,425.58H228.19a14.78,14.78,0,0,1-14.63-12.74l-17.4-126.15a14.76,14.76,0,0,1,5.12-13.31L297,192.89a14.76,14.76,0,0,1,19,0l95.7,80.49a14.76,14.76,0,0,1,5.12,13.31L399.4,412.84A14.75,14.75,0,0,1,384.79,425.58ZM241,396.06H371.92l14.54-105.34-80-67.24-80,67.24Z"/></g></svg>