<?xml version="1.0" encoding="iso-8859-1"?>
<!-- Generator: Adobe Illustrator 21.1.0, SVG Export Plug-In . SVG Version: 6.00 Build 0)  -->
<svg version="1.1" xmlns="http://www.w3.org/2000/svg" xmlns:xlink="http://www.w3.org/1999/xlink" x="0px" y="0px"
	 viewBox="0 0 50 50" style="enable-background:new 0 0 50 50;" xml:space="preserve">
<g id="Polyline">
	<path style="fill:#5280DF;" d="M25,50C11.215,50,0,38.785,0,25C0,11.215,11.215,0,25,0c13.785,0,25,11.215,25,25
		C50,38.785,38.785,50,25,50z M25,1.905C12.265,1.905,1.905,12.265,1.905,25S12.265,48.095,25,48.095S48.095,37.735,48.095,25
		S37.735,1.905,25,1.905z"/>
	<path style="fill:#5280DF;" d="M36.905,37.857h-3.571c-0.526,0-0.952-0.426-0.952-0.952s0.426-0.952,0.952-0.952h2.619v-2.619
		c0-0.526,0.426-0.952,0.952-0.952s0.952,0.426,0.952,0.952v3.571C37.857,37.431,37.431,37.857,36.905,37.857z"/>
	<path style="fill:#5280DF;" d="M27.778,37.857h-5.555c-0.526,0-0.952-0.426-0.952-0.952s0.426-0.952,0.952-0.952h5.555
		c0.526,0,0.952,0.426,0.952,0.952S28.304,37.857,27.778,37.857z"/>
	<path style="fill:#5280DF;" d="M16.667,37.857h-3.571c-0.526,0-0.952-0.426-0.952-0.952v-3.571c0-0.526,0.426-0.952,0.952-0.952
		c0.526,0,0.952,0.426,0.952,0.952v2.619h2.619c0.526,0,0.952,0.426,0.952,0.952S17.193,37.857,16.667,37.857z"/>
	<path style="fill:#5280DF;" d="M13.095,28.73c-0.526,0-0.952-0.426-0.952-0.952v-5.555c0-0.526,0.426-0.952,0.952-0.952
		c0.526,0,0.952,0.426,0.952,0.952v5.555C14.048,28.304,13.621,28.73,13.095,28.73z"/>
	<path style="fill:#5280DF;" d="M13.095,17.619c-0.526,0-0.952-0.426-0.952-0.952v-3.571c0-0.526,0.426-0.952,0.952-0.952h3.571
		c0.526,0,0.952,0.426,0.952,0.952c0,0.526-0.426,0.952-0.952,0.952h-2.619v2.619C14.048,17.193,13.621,17.619,13.095,17.619z"/>
	<path style="fill:#5280DF;" d="M27.778,14.048h-5.555c-0.526,0-0.952-0.426-0.952-0.952c0-0.526,0.426-0.952,0.952-0.952h5.555
		c0.526,0,0.952,0.426,0.952,0.952C28.73,13.621,28.304,14.048,27.778,14.048z"/>
	<path style="fill:#5280DF;" d="M36.905,17.619c-0.526,0-0.952-0.426-0.952-0.952v-2.619h-2.619c-0.526,0-0.952-0.426-0.952-0.952
		c0-0.526,0.426-0.952,0.952-0.952h3.571c0.526,0,0.952,0.426,0.952,0.952v3.571C37.857,17.193,37.431,17.619,36.905,17.619z"/>
	<path style="fill:#5280DF;" d="M36.905,28.73c-0.526,0-0.952-0.426-0.952-0.952v-5.555c0-0.526,0.426-0.952,0.952-0.952
		s0.952,0.426,0.952,0.952v5.555C37.857,28.304,37.431,28.73,36.905,28.73z"/>
	<path style="fill:#5280DF;" d="M29.398,32.87c-0.244,0-0.487-0.093-0.673-0.279l-8.796-8.795c-0.179-0.179-0.279-0.421-0.279-0.673
		c0-0.253,0.1-0.495,0.279-0.673l5.04-5.04c0.179-0.179,0.421-0.279,0.673-0.279l0,0c0.253,0,0.495,0.1,0.673,0.279l3.579,3.579
		c0.372,0.372,0.372,0.975,0,1.347c-0.372,0.372-0.975,0.372-1.347,0l-2.906-2.906l-3.693,3.693l8.122,8.122
		c0.372,0.372,0.372,0.975,0,1.347C29.885,32.777,29.641,32.87,29.398,32.87z"/>
</g>
<g id="Layer_1">
</g>
</svg>
