<svg id="Layer_1" data-name="Layer 1" xmlns="http://www.w3.org/2000/svg" xmlns:xlink="http://www.w3.org/1999/xlink" viewBox="0 0 612 612"><defs><style>.cls-1{stroke:#232323;stroke-miterlimit:10;fill:url(#linear-gradient);}</style><linearGradient id="linear-gradient" x1="306.97" y1="105.25" x2="306.97" y2="505.75" gradientUnits="userSpaceOnUse"><stop offset="0" stop-color="#fff"/><stop offset="0.6" stop-color="#e2e2e2"/><stop offset="1" stop-color="#ccc"/></linearGradient></defs><path id="PolyRuler" class="cls-1" d="M491,105.25H123a14.78,14.78,0,0,0-14.73,14.83V490.92A14.78,14.78,0,0,0,123,505.75H247.48a14.78,14.78,0,0,0,14.73-14.83V260.38H491.1a14.78,14.78,0,0,0,14.52-13h0a.08.08,0,0,1,0-.06v-.07a.66.66,0,0,1,0-.14v0a.32.32,0,0,1,0-.13v-.18h0c0-.4,0-.8,0-1.21V120.1A14.73,14.73,0,0,0,491,105.25ZM476.3,230.69H440.41v-28a14.73,14.73,0,1,0-29.45,0v28H381V174.1a14.73,14.73,0,1,0-29.45,0v56.59h-30v-28a14.72,14.72,0,1,0-29.44,0v28h-30V174.1a14.73,14.73,0,1,0-29.45,0v56.59H176.57a14.84,14.84,0,0,0,0,29.67h56.17v30.19h-27.8a14.83,14.83,0,0,0,0,29.66h27.8V350.4H176.57a14.84,14.84,0,0,0,0,29.67h56.17v30.18h-27.8a14.84,14.84,0,0,0,0,29.67h27.8v36.17H137.66V134.91H476.28v95.78Z"/></svg>