<svg id="Layer_1" data-name="Layer 1" xmlns="http://www.w3.org/2000/svg" xmlns:xlink="http://www.w3.org/1999/xlink" viewBox="0 0 612 612"><defs><style>.cls-1{stroke:#232323;stroke-miterlimit:10;fill:url(#linear-gradient);}</style><linearGradient id="linear-gradient" x1="305.01" y1="108.25" x2="305.01" y2="505.75" gradientUnits="userSpaceOnUse"><stop offset="0" stop-color="#fff"/><stop offset="0.6" stop-color="#e2e2e2"/><stop offset="1" stop-color="#ccc"/></linearGradient></defs><path id="PopupCapture" class="cls-1" d="M466.93,181.86H423.07L376,114.53a14.75,14.75,0,0,0-12.06-6.28H246.11a14.71,14.71,0,0,0-12.06,6.28l-47.13,67.33H143.07a36.86,36.86,0,0,0-36.81,36.8V469a36.86,36.86,0,0,0,36.81,36.8H467A36.86,36.86,0,0,0,503.77,469V218.67A36.91,36.91,0,0,0,466.93,181.86ZM474.29,469a7.37,7.37,0,0,1-7.36,7.36H143a7.37,7.37,0,0,1-7.37-7.36V218.67A7.37,7.37,0,0,1,143,211.3h51.52A14.71,14.71,0,0,0,206.62,205l47.13-67.33H356.2L403.33,205a14.73,14.73,0,0,0,12.06,6.28h51.53a7.37,7.37,0,0,1,7.36,7.37V469ZM305,242A104.52,104.52,0,1,0,409.5,346.49,104.64,104.64,0,0,0,305,242Zm0,179.59a75.07,75.07,0,1,1,75.07-75.07A75.16,75.16,0,0,1,305,421.56ZM305,309a37.54,37.54,0,1,0,37.53,37.53A37.58,37.58,0,0,0,305,309ZM257.14,211.3h95.69a14.72,14.72,0,1,0,0-29.44H257.14a14.72,14.72,0,1,0,0,29.44Z"/></svg>