<svg id="Layer_1" data-name="Layer 1" xmlns="http://www.w3.org/2000/svg" xmlns:xlink="http://www.w3.org/1999/xlink" viewBox="0 0 612 612"><defs><style>.cls-1{stroke:#232323;stroke-miterlimit:10;stroke-width:1.31px;fill:url(#linear-gradient);}</style><linearGradient id="linear-gradient" x1="306" y1="92.44" x2="306" y2="519.56" gradientUnits="userSpaceOnUse"><stop offset="0" stop-color="#fafafa"/><stop offset="1" stop-color="#ebebeb"/></linearGradient></defs><path class="cls-1" d="M520.75,308.94v-172A44.58,44.58,0,0,0,476.3,92.44H138.1a44.58,44.58,0,0,0-44.45,44.45V307.35L31.18,397.68v90.53a31.43,31.43,0,0,0,31.33,31.35h487a31.46,31.46,0,0,0,31.35-31.35v-87.8ZM397.9,162.75a11.32,11.32,0,0,1,11.28-11.28h39.65a11.31,11.31,0,0,1,11.26,11.28V202.4a11.31,11.31,0,0,1-11.26,11.26H409.18A11.31,11.31,0,0,1,397.9,202.4Zm-91,19.58A62.63,62.63,0,1,1,244.23,245,62.61,62.61,0,0,1,306.86,182.33ZM486.69,472.59c-2.89,4.69-6.87,7.6-11.26,7.6H139.63c-8.75,0-15.9-11.66-15.9-25.9A35.33,35.33,0,0,1,128.4,436c2.89-4.69,6.87-7.6,11.23-7.6h335.8c8.76,0,15.93,11.62,15.93,25.85A35.5,35.5,0,0,1,486.69,472.59Z"/></svg>