<svg id="Layer_1" data-name="Layer 1" xmlns="http://www.w3.org/2000/svg" xmlns:xlink="http://www.w3.org/1999/xlink" viewBox="0 0 612 612"><defs><style>.cls-1{stroke:#232323;stroke-miterlimit:10;fill:url(#linear-gradient);}</style><linearGradient id="linear-gradient" x1="306.5" y1="107.25" x2="306.5" y2="508.75" gradientUnits="userSpaceOnUse"><stop offset="0" stop-color="#fff"/><stop offset="0.6" stop-color="#e2e2e2"/><stop offset="1" stop-color="#ccc"/></linearGradient></defs><path id="PreviousImage" class="cls-1" d="M156.87,322.87H358.4a14.87,14.87,0,0,0,0-29.74H156.87l48.76-48.88a14.85,14.85,0,0,0-21-21l-74.06,74.25a14.42,14.42,0,0,0-1.85,2.28c-.24.35-.4.75-.61,1.13a14.69,14.69,0,0,0-.74,1.42,13.78,13.78,0,0,0-.46,1.51,11.05,11.05,0,0,0-.37,1.28,14.67,14.67,0,0,0,0,5.83c.08.44.25.84.37,1.27s.26,1,.46,1.51.49.95.74,1.42.37.78.61,1.13a15.23,15.23,0,0,0,1.85,2.28l74.06,74.25a14.85,14.85,0,0,0,21-21Zm335-215.62h-267a14.87,14.87,0,0,0,0,29.74H477.07V479H224.9a14.87,14.87,0,0,0,0,29.74h267a14.86,14.86,0,0,0,14.83-14.87V122.12A14.85,14.85,0,0,0,491.91,107.25Z"/></svg>