<svg id="Layer_1" data-name="Layer 1" xmlns="http://www.w3.org/2000/svg" xmlns:xlink="http://www.w3.org/1999/xlink" viewBox="0 0 612 612"><defs><style>.cls-1{stroke:#232323;stroke-miterlimit:10;fill:url(#linear-gradient);}</style><linearGradient id="linear-gradient" x1="304.49" y1="109.25" x2="304.49" y2="507.75" gradientUnits="userSpaceOnUse"><stop offset="0" stop-color="#fff"/><stop offset="0.6" stop-color="#e2e2e2"/><stop offset="1" stop-color="#ccc"/></linearGradient></defs><path id="PreviousPoint" class="cls-1" d="M171.65,374.92a66.42,66.42,0,1,0-66.42-66.42A66.5,66.5,0,0,0,171.65,374.92Zm0-103.32a36.9,36.9,0,1,1-36.9,36.9A37,37,0,0,1,171.65,271.6ZM489,293.74H320.89l27.85-27.85A14.76,14.76,0,1,0,327.87,245l-53.05,53a15.27,15.27,0,0,0-1.84,2.26c-.24.36-.4.76-.61,1.12s-.53.92-.74,1.42a13.4,13.4,0,0,0-.45,1.49,11.49,11.49,0,0,0-.37,1.27,14.47,14.47,0,0,0,0,5.79c.09.44.25.84.37,1.27s.26,1,.45,1.49.49.94.74,1.41.37.77.61,1.13a14.33,14.33,0,0,0,1.84,2.25L327.87,372a14.76,14.76,0,0,0,20.87-20.87l-27.85-27.85H489a14.78,14.78,0,0,0,0-29.55Zm-36.9-184.49H156.89a51.72,51.72,0,0,0-51.66,51.66v29.52a14.76,14.76,0,0,0,29.52,0V160.91a22.17,22.17,0,0,1,22.14-22.14H452.08a22.16,22.16,0,0,1,22.14,22.14v66.41a14.76,14.76,0,0,0,29.52,0V160.91A51.71,51.71,0,0,0,452.08,109.25ZM489,374.92a14.76,14.76,0,0,0-14.76,14.76V456.1a22.17,22.17,0,0,1-22.14,22.14H156.89a22.17,22.17,0,0,1-22.14-22.14V426.57a14.76,14.76,0,0,0-29.52,0V456.1a51.71,51.71,0,0,0,51.66,51.65H452.08a51.71,51.71,0,0,0,51.66-51.65V389.68A14.76,14.76,0,0,0,489,374.92Z"/></svg>