<?xml version="1.0" encoding="iso-8859-1"?>
<!-- Generator: Adobe Illustrator 21.1.0, SVG Export Plug-In . SVG Version: 6.00 Build 0)  -->
<svg version="1.1" xmlns="http://www.w3.org/2000/svg" xmlns:xlink="http://www.w3.org/1999/xlink" x="0px" y="0px"
	 viewBox="0 0 50 50" style="enable-background:new 0 0 50 50;" xml:space="preserve">
<g id="PreviousPoint">
	<path style="fill:#5280DF;" d="M25,50C11.215,50,0,38.785,0,25C0,11.215,11.215,0,25,0c13.785,0,25,11.215,25,25
		C50,38.785,38.785,50,25,50z M25,1.905C12.265,1.905,1.905,12.265,1.905,25S12.265,48.095,25,48.095S48.095,37.735,48.095,25
		S37.735,1.905,25,1.905z"/>
	<path style="fill:#5280DF;" d="M16.429,29.286c-2.363,0-4.286-1.922-4.286-4.286c0-2.363,1.923-4.286,4.286-4.286
		s4.286,1.923,4.286,4.286C20.714,27.363,18.792,29.286,16.429,29.286z M16.429,22.619c-1.313,0-2.381,1.068-2.381,2.381
		s1.068,2.381,2.381,2.381S18.81,26.313,18.81,25S17.741,22.619,16.429,22.619z"/>
	<path style="fill:#5280DF;" d="M36.905,25.952H23.759c-0.526,0-0.952-0.426-0.952-0.952s0.426-0.952,0.952-0.952h13.145
		c0.526,0,0.952,0.426,0.952,0.952S37.431,25.952,36.905,25.952z"/>
	<path style="fill:#5280DF;" d="M27.182,29.375c-0.244,0-0.487-0.093-0.673-0.279l-3.423-3.423c-0.372-0.372-0.372-0.975,0-1.347
		l3.423-3.423c0.372-0.372,0.975-0.372,1.347,0c0.372,0.372,0.372,0.975,0,1.347L25.106,25l2.749,2.75
		c0.372,0.372,0.372,0.975,0,1.347C27.67,29.282,27.426,29.375,27.182,29.375z"/>
	<path style="fill:#5280DF;" d="M36.905,20.714c-0.526,0-0.952-0.426-0.952-0.952v-4.286c0-0.788-0.641-1.429-1.429-1.429H15.476
		c-0.788,0-1.429,0.641-1.429,1.429v1.905c0,0.526-0.426,0.952-0.952,0.952c-0.526,0-0.952-0.426-0.952-0.952v-1.905
		c0-1.838,1.495-3.333,3.333-3.333h19.048c1.838,0,3.333,1.495,3.333,3.333v4.286C37.857,20.288,37.431,20.714,36.905,20.714z"/>
	<path style="fill:#5280DF;" d="M34.524,37.857H15.476c-1.838,0-3.333-1.496-3.333-3.333v-1.905c0-0.526,0.426-0.952,0.952-0.952
		c0.526,0,0.952,0.426,0.952,0.952v1.905c0,0.788,0.641,1.429,1.429,1.429h19.048c0.788,0,1.429-0.641,1.429-1.429v-4.286
		c0-0.526,0.426-0.952,0.952-0.952s0.952,0.426,0.952,0.952v4.286C37.857,36.362,36.362,37.857,34.524,37.857z"/>
</g>
<g id="Layer_1">
</g>
</svg>
