<svg id="Layer_1" data-name="Layer 1" xmlns="http://www.w3.org/2000/svg" xmlns:xlink="http://www.w3.org/1999/xlink" viewBox="0 0 612 612"><defs><style>.cls-1{stroke:#232323;stroke-miterlimit:10;stroke-width:1.31px;fill:url(#linear-gradient);}</style><linearGradient id="linear-gradient" x1="306" y1="32.22" x2="306" y2="579.78" gradientUnits="userSpaceOnUse"><stop offset="0" stop-color="#fafafa"/><stop offset="1" stop-color="#ebebeb"/></linearGradient></defs><path id="PreviousPoint" class="cls-1" d="M123.48,397.26A91.26,91.26,0,1,0,32.22,306,91.36,91.36,0,0,0,123.48,397.26Zm0-142A50.7,50.7,0,1,1,72.78,306,50.77,50.77,0,0,1,123.48,255.3Zm436,30.42h-231l38.27-38.27a20.27,20.27,0,1,0-28.67-28.67l-72.89,72.88a21,21,0,0,0-2.54,3.1c-.32.49-.54,1-.83,1.55a20.91,20.91,0,0,0-1,1.94,16.7,16.7,0,0,0-.63,2.05,17.54,17.54,0,0,0-.51,1.75,20,20,0,0,0,0,7.94c.12.61.35,1.16.51,1.75a11.93,11.93,0,0,0,1.64,4c.29.51.51,1.06.83,1.55a21.18,21.18,0,0,0,2.54,3.1l72.89,72.88a20.27,20.27,0,0,0,28.67-28.67l-38.27-38.27h231a20.3,20.3,0,0,0,0-40.6ZM508.8,32.22H103.2a71.06,71.06,0,0,0-71,71v40.56a20.28,20.28,0,0,0,40.56,0V103.2A30.46,30.46,0,0,1,103.2,72.78H508.8a30.46,30.46,0,0,1,30.42,30.42v91.26a20.28,20.28,0,1,0,40.56,0V103.2A71.06,71.06,0,0,0,508.8,32.22Zm50.7,365a20.29,20.29,0,0,0-20.29,20.28V508.8a30.46,30.46,0,0,1-30.42,30.42H103.2A30.46,30.46,0,0,1,72.78,508.8V468.24a20.28,20.28,0,0,0-40.56,0V508.8a71.06,71.06,0,0,0,71,71H508.79a71.06,71.06,0,0,0,71-71V417.54A20.27,20.27,0,0,0,559.5,397.26Z"/></svg>