<?xml version="1.0" encoding="iso-8859-1"?>
<!-- Generator: Adobe Illustrator 21.1.0, SVG Export Plug-In . SVG Version: 6.00 Build 0)  -->
<svg version="1.1" xmlns="http://www.w3.org/2000/svg" xmlns:xlink="http://www.w3.org/1999/xlink" x="0px" y="0px"
	 viewBox="0 0 50 50" style="enable-background:new 0 0 50 50;" xml:space="preserve">
<g id="PreviousFrameButton">
	<g>
		<path style="fill:#C7CEDD;" d="M50,46.667C50,48.509,48.507,50,46.667,50H3.333C1.493,50,0,48.509,0,46.667V3.333
			C0,1.494,1.493,0,3.333,0h43.333C48.507,0,50,1.494,50,3.333V46.667z"/>
		<path style="fill:#333333;" d="M22.445,12.406c0.828-0.488,1.87,0.107,1.87,1.068v7.546c0,0.562,0.652,0.872,1.088,0.517
			l11.199-9.13c0.828-0.488,1.87,0.107,1.87,1.068V36.53c0,0.957-1.042,1.553-1.87,1.065l-11.199-9.127
			c-0.436-0.355-1.088-0.045-1.088,0.517v7.546c0,0.957-1.042,1.553-1.87,1.065L8.421,26.163c-0.736-0.6-0.736-1.725,0-2.325
			L22.445,12.406z"/>
	</g>
</g>
<g id="Layer_1">
</g>
</svg>
