<svg id="Layer_1" data-name="Layer 1" xmlns="http://www.w3.org/2000/svg" xmlns:xlink="http://www.w3.org/1999/xlink" viewBox="0 0 612 612"><defs><style>.cls-1{stroke:#232323;stroke-miterlimit:10;fill:url(#linear-gradient);}</style><linearGradient id="linear-gradient" x1="305.99" y1="106.25" x2="305.99" y2="508.76" gradientUnits="userSpaceOnUse"><stop offset="0" stop-color="#fff"/><stop offset="0.6" stop-color="#e2e2e2"/><stop offset="1" stop-color="#ccc"/></linearGradient></defs><path id="PrintCurrentView" class="cls-1" d="M467.93,244.14H439.71V210.29a15.36,15.36,0,0,0-.28-2.88v0a14.73,14.73,0,0,0-1.26-3.61c-.15-.29-.3-.58-.46-.86a15.81,15.81,0,0,0-2.31-3.16l-88-89.13a15.11,15.11,0,0,0-3.12-2.35l-.84-.46a14.42,14.42,0,0,0-3.56-1.28h-.06a14.79,14.79,0,0,0-2.81-.28H187a14.82,14.82,0,0,0-14.73,14.9v123H144c-20.29,0-36.81,16.73-36.81,37.27V423c0,20.54,16.52,37.27,36.81,37.27h28.22v33.54A14.83,14.83,0,0,0,187,508.76H425a14.82,14.82,0,0,0,14.72-14.91V460.31h28.22c20.29,0,36.81-16.73,36.81-37.27V281.41C504.74,260.87,488.22,244.14,467.93,244.14Zm-116.24-87,37.76,38.24H351.69Zm-150-21.08H322.24v74.23A14.82,14.82,0,0,0,337,225.19h73.31v18.95H201.71ZM172.26,430.49H144a7.41,7.41,0,0,1-7.36-7.46V375.51h35.58v55Zm238,48.45H201.71V375.51H410.27Zm65-55.91a7.42,7.42,0,0,1-7.37,7.46H439.71v-55H475.3V423Zm0-77.34H136.68V281.4a7.41,7.41,0,0,1,7.36-7.46H467.93a7.42,7.42,0,0,1,7.37,7.46v64.29ZM441.1,292a16.62,16.62,0,1,0,16.4,16.62A16.53,16.53,0,0,0,441.1,292ZM238.51,465.58h135a14.91,14.91,0,0,0,0-29.81h-135a14.91,14.91,0,0,0,0,29.81Zm0-46.9h135a14.91,14.91,0,0,0,0-29.81h-135a14.91,14.91,0,0,0,0,29.81Zm73-123.3H187a14.91,14.91,0,0,0,0,29.81H311.51a14.91,14.91,0,0,0,0-29.81Z"/></svg>