<?xml version="1.0" encoding="iso-8859-1"?>
<!-- Generator: Adobe Illustrator 21.1.0, SVG Export Plug-In . SVG Version: 6.00 Build 0)  -->
<svg version="1.1" xmlns="http://www.w3.org/2000/svg" xmlns:xlink="http://www.w3.org/1999/xlink" x="0px" y="0px"
	 viewBox="0 0 50 50" style="enable-background:new 0 0 50 50;" xml:space="preserve">
<g id="Print">
	<path style="fill:#5280DF;" d="M25,50C11.215,50,0,38.785,0,25C0,11.215,11.215,0,25,0c13.785,0,25,11.215,25,25
		C50,38.785,38.785,50,25,50z M25,1.905C12.265,1.905,1.905,12.265,1.905,25S12.265,48.095,25,48.095S48.095,37.735,48.095,25
		S37.735,1.905,25,1.905z"/>
	<path style="fill:#5280DF;" d="M35.476,37.857H14.524c-1.313,0-2.381-1.068-2.381-2.381v-9.048c0-1.313,1.068-2.381,2.381-2.381
		h20.952c1.313,0,2.381,1.068,2.381,2.381v9.048C37.857,36.789,36.789,37.857,35.476,37.857z M14.524,25.952
		c-0.263,0-0.476,0.213-0.476,0.476v9.048c0,0.263,0.214,0.476,0.476,0.476h20.952c0.263,0,0.476-0.213,0.476-0.476v-9.048
		c0-0.263-0.213-0.476-0.476-0.476H14.524z"/>
	<path style="fill:#5280DF;" d="M32.699,37.857H17.302c-0.526,0-0.952-0.426-0.952-0.952v-2.857c0-1.838,1.495-3.333,3.333-3.333
		h10.635c1.838,0,3.333,1.496,3.333,3.333v2.857C33.651,37.431,33.225,37.857,32.699,37.857z M18.254,35.952h13.492v-1.905
		c0-0.788-0.641-1.429-1.429-1.429H19.683c-0.788,0-1.429,0.641-1.429,1.429V35.952z"/>
	<path style="fill:#5280DF;" d="M32.699,25.952H17.302c-0.526,0-0.952-0.426-0.952-0.952V13.095c0-0.526,0.426-0.952,0.952-0.952
		h9.702c0.253,0,0.495,0.1,0.673,0.279l5.695,5.695c0.179,0.179,0.279,0.421,0.279,0.673V25
		C33.651,25.526,33.225,25.952,32.699,25.952z M18.254,24.048h13.492v-4.863l-5.137-5.137h-8.355V24.048z"/>
	<path style="fill:#5280DF;" d="M32.699,19.742h-5.695c-0.526,0-0.952-0.426-0.952-0.952v-5.695c0-0.385,0.232-0.732,0.588-0.88
		c0.356-0.147,0.765-0.066,1.038,0.206l5.695,5.695c0.273,0.272,0.354,0.682,0.206,1.038C33.431,19.51,33.084,19.742,32.699,19.742z
		 M27.956,17.837h2.443l-2.443-2.443V17.837z"/>
	<path style="fill:#5280DF;" d="M33.74,29.226c-0.585,0-1.062-0.476-1.062-1.062c0-0.585,0.476-1.061,1.062-1.061
		c0.585,0,1.061,0.476,1.061,1.061C34.801,28.75,34.325,29.226,33.74,29.226z M33.74,27.321c-0.465,0-0.844,0.378-0.844,0.843
		c0,0.465,0.379,0.844,0.844,0.844s0.843-0.379,0.843-0.844C34.583,27.699,34.205,27.321,33.74,27.321z"/>
	<path style="fill:#5280DF;" d="M25,29.117h-7.698c-0.526,0-0.952-0.426-0.952-0.952c0-0.526,0.426-0.952,0.952-0.952H25
		c0.526,0,0.952,0.426,0.952,0.952C25.952,28.69,25.526,29.117,25,29.117z"/>
</g>
<g id="Layer_1">
</g>
</svg>
