<?xml version="1.0" encoding="iso-8859-1"?>
<!-- Generator: Adobe Illustrator 21.1.0, SVG Export Plug-In . SVG Version: 6.00 Build 0)  -->
<svg version="1.1" xmlns="http://www.w3.org/2000/svg" xmlns:xlink="http://www.w3.org/1999/xlink" x="0px" y="0px"
	 viewBox="0 0 50 50" style="enable-background:new 0 0 50 50;" xml:space="preserve">
<g id="PrintCurrentView">
	<path style="fill:#5280DF;" d="M25,50C11.215,50,0,38.785,0,25C0,11.215,11.215,0,25,0c13.785,0,25,11.215,25,25
		C50,38.785,38.785,50,25,50z M25,1.905C12.265,1.905,1.905,12.265,1.905,25S12.265,48.095,25,48.095S48.095,37.735,48.095,25
		S37.735,1.905,25,1.905z"/>
	<path style="fill:#5280DF;" d="M35.476,34.762h-2.778c-0.526,0-0.952-0.426-0.952-0.952s0.426-0.952,0.952-0.952h2.778
		c0.263,0,0.476-0.213,0.476-0.476v-9.048c0-0.263-0.213-0.476-0.476-0.476H14.524c-0.263,0-0.476,0.214-0.476,0.476v9.048
		c0,0.263,0.214,0.476,0.476,0.476h2.778c0.526,0,0.952,0.426,0.952,0.952s-0.426,0.952-0.952,0.952h-2.778
		c-1.313,0-2.381-1.068-2.381-2.381v-9.048c0-1.313,1.068-2.381,2.381-2.381h20.952c1.313,0,2.381,1.068,2.381,2.381v9.048
		C37.857,33.694,36.789,34.762,35.476,34.762z"/>
	<path style="fill:#5280DF;" d="M32.699,22.857H17.302c-0.526,0-0.952-0.426-0.952-0.952v-8.81c0-0.526,0.426-0.952,0.952-0.952
		h9.702c0.253,0,0.495,0.1,0.673,0.279l5.695,5.695c0.179,0.179,0.279,0.421,0.279,0.673v3.115
		C33.651,22.431,33.225,22.857,32.699,22.857z M18.254,20.952h13.492v-1.768l-5.137-5.137h-8.355V20.952z"/>
	<path style="fill:#5280DF;" d="M32.699,37.857H17.302c-0.526,0-0.952-0.426-0.952-0.952v-8.512c0-0.526,0.426-0.952,0.952-0.952
		h15.397c0.526,0,0.952,0.426,0.952,0.952v8.512C33.651,37.431,33.225,37.857,32.699,37.857z M18.254,35.952h13.492v-6.607H18.254
		V35.952z"/>
	<path style="fill:#5280DF;" d="M32.699,19.742h-5.695c-0.526,0-0.952-0.426-0.952-0.952v-5.695c0-0.385,0.232-0.732,0.588-0.88
		c0.356-0.147,0.765-0.066,1.038,0.206l5.695,5.695c0.273,0.272,0.354,0.682,0.206,1.038C33.431,19.51,33.084,19.742,32.699,19.742z
		 M27.956,17.837h2.443l-2.443-2.443V17.837z"/>
	<path style="fill:#5280DF;" d="M33.74,26.131c-0.585,0-1.062-0.476-1.062-1.061c0-0.585,0.476-1.062,1.062-1.062
		c0.585,0,1.061,0.476,1.061,1.062C34.801,25.655,34.325,26.131,33.74,26.131z M33.74,24.226c-0.465,0-0.844,0.378-0.844,0.843
		c0,0.465,0.379,0.843,0.844,0.843s0.843-0.379,0.843-0.843C34.583,24.604,34.205,24.226,33.74,24.226z"/>
	<path style="fill:#5280DF;" d="M29.365,35.099h-8.73c-0.526,0-0.952-0.426-0.952-0.952c0-0.526,0.426-0.952,0.952-0.952h8.73
		c0.526,0,0.952,0.426,0.952,0.952C30.318,34.673,29.891,35.099,29.365,35.099z"/>
	<path style="fill:#5280DF;" d="M29.365,32.103h-8.73c-0.526,0-0.952-0.426-0.952-0.952c0-0.526,0.426-0.952,0.952-0.952h8.73
		c0.526,0,0.952,0.426,0.952,0.952C30.318,31.677,29.891,32.103,29.365,32.103z"/>
	<path style="fill:#5280DF;" d="M36.905,29.345h-23.81c-0.526,0-0.952-0.426-0.952-0.952c0-0.526,0.426-0.952,0.952-0.952h23.81
		c0.526,0,0.952,0.426,0.952,0.952C37.857,28.919,37.431,29.345,36.905,29.345z"/>
	<path style="fill:#5280DF;" d="M25.357,26.131h-8.055c-0.526,0-0.952-0.426-0.952-0.952c0-0.526,0.426-0.952,0.952-0.952h8.055
		c0.526,0,0.952,0.426,0.952,0.952C26.31,25.705,25.883,26.131,25.357,26.131z"/>
</g>
<g id="Layer_1">
</g>
</svg>
