<svg id="Layer_1" data-name="Layer 1" xmlns="http://www.w3.org/2000/svg" xmlns:xlink="http://www.w3.org/1999/xlink" viewBox="0 0 612 612"><defs><style>.cls-1{stroke:#232323;stroke-miterlimit:10;fill:url(#linear-gradient);}</style><linearGradient id="linear-gradient" x1="307.24" y1="107.75" x2="307.24" y2="507.75" gradientUnits="userSpaceOnUse"><stop offset="0" stop-color="#fff"/><stop offset="0.6" stop-color="#e2e2e2"/><stop offset="1" stop-color="#ccc"/></linearGradient></defs><path id="Print" class="cls-1" d="M469.39,292.94H441.13v-81.8a15.23,15.23,0,0,0-.28-2.86v0a14.54,14.54,0,0,0-1.27-3.58c-.15-.3-.29-.58-.46-.86a15,15,0,0,0-2.31-3.14l-88.13-88.58a14.73,14.73,0,0,0-3.13-2.33l-.84-.46a14.47,14.47,0,0,0-3.57-1.27h-.06a14.79,14.79,0,0,0-2.81-.28H188.09a14.78,14.78,0,0,0-14.74,14.81V292.94H145.09a37,37,0,0,0-36.86,37V470.72a37,37,0,0,0,36.86,37h324.3a37,37,0,0,0,36.85-37V330A37,37,0,0,0,469.39,292.94ZM353,158.33l37.82,38H353Zm-150.16-21H323.51v73.76A14.79,14.79,0,0,0,338.25,226h73.4v67H202.83V137.38ZM411.65,478.12H202.83V448.49a22.19,22.19,0,0,1,22.11-22.22h164.6a22.2,22.2,0,0,1,22.11,22.22v29.63Zm65.11-7.41a7.39,7.39,0,0,1-7.37,7.41H441.13V448.49a51.78,51.78,0,0,0-51.59-51.85H224.94a51.78,51.78,0,0,0-51.59,51.85v29.63H145.09a7.39,7.39,0,0,1-7.37-7.41V330a7.38,7.38,0,0,1,7.37-7.4h324.3a7.38,7.38,0,0,1,7.37,7.4ZM442.52,340.46A16.52,16.52,0,1,0,458.94,357,16.49,16.49,0,0,0,442.52,340.46Zm-135.28,1.71H188.09a14.81,14.81,0,0,0,0,29.62H307.24a14.81,14.81,0,0,0,0-29.62Z"/></svg>