<?xml version="1.0" encoding="iso-8859-1"?>
<!-- Generator: Adobe Illustrator 21.1.0, SVG Export Plug-In . SVG Version: 6.00 Build 0)  -->
<svg version="1.1" xmlns="http://www.w3.org/2000/svg" xmlns:xlink="http://www.w3.org/1999/xlink" x="0px" y="0px"
	 viewBox="0 0 50 50" style="enable-background:new 0 0 50 50;" xml:space="preserve">
<g id="ProbeTool">
	<path style="fill:#5280DF;" d="M25,50C11.215,50,0,38.785,0,25C0,11.215,11.215,0,25,0c13.785,0,25,11.215,25,25
		C50,38.785,38.785,50,25,50z M25,1.905C12.265,1.905,1.905,12.265,1.905,25S12.265,48.095,25,48.095S48.095,37.735,48.095,25
		S37.735,1.905,25,1.905z"/>
	<path style="fill:#5280DF;" d="M20.729,34.634h-4.411c-0.526,0-0.952-0.426-0.952-0.952V29.27c0-0.878,0.356-1.736,0.976-2.357
		l11.392-11.392c0.179-0.179,0.421-0.279,0.673-0.279l0,0c0.253,0,0.495,0.1,0.673,0.279l5.397,5.397
		c0.372,0.372,0.372,0.975,0,1.347L23.086,33.657C22.456,34.287,21.619,34.634,20.729,34.634z M17.271,32.729h3.458
		c0.381,0,0.74-0.149,1.01-0.419l10.718-10.718l-4.05-4.05L17.689,28.26c-0.266,0.266-0.418,0.634-0.418,1.01V32.729z"/>
	<path style="fill:#5280DF;" d="M36.905,19.444c-0.244,0-0.487-0.093-0.673-0.279l-5.397-5.397c-0.372-0.372-0.372-0.975,0-1.347
		c0.372-0.372,0.975-0.372,1.347,0l5.397,5.397c0.372,0.372,0.372,0.975,0,1.347C37.392,19.351,37.148,19.444,36.905,19.444z"/>
	<path style="fill:#5280DF;" d="M13.095,37.857c-0.244,0-0.488-0.093-0.673-0.279c-0.372-0.372-0.372-0.975,0-1.347l3.224-3.224
		c0.372-0.372,0.975-0.372,1.347,0c0.372,0.372,0.372,0.975,0,1.347l-3.224,3.224C13.583,37.764,13.339,37.857,13.095,37.857z"/>
</g>
<g id="Layer_1">
</g>
</svg>
