<svg id="Layer_1" data-name="Layer 1" xmlns="http://www.w3.org/2000/svg" xmlns:xlink="http://www.w3.org/1999/xlink" viewBox="0 0 612 612"><defs><style>.cls-1{stroke:#232323;stroke-miterlimit:10;fill:url(#linear-gradient);}</style><linearGradient id="linear-gradient" x1="306.99" y1="109.23" x2="306.99" y2="507.75" gradientUnits="userSpaceOnUse"><stop offset="0" stop-color="#fff"/><stop offset="0.6" stop-color="#e2e2e2"/><stop offset="1" stop-color="#ccc"/></linearGradient></defs><path id="ProbeTool" class="cls-1" d="M370.4,161.62a14.8,14.8,0,0,0-20.92,0l-177,176.53a51.9,51.9,0,0,0-15.17,36.53v62.24l-45.75,45.64a14.78,14.78,0,0,0,20.92,20.87l45.75-45.64h62.4a51.54,51.54,0,0,0,36.62-15.13l177-176.53a14.71,14.71,0,0,0,0-20.87ZM256.34,421.78a22.07,22.07,0,0,1-15.7,6.49H186.91V374.68a22.29,22.29,0,0,1,6.5-15.66l166.53-166.1,62.92,62.76ZM502.4,197.2l-83.85-83.64a14.78,14.78,0,0,0-20.92,20.87l83.85,83.64A14.78,14.78,0,0,0,502.4,197.2Z"/></svg>