<svg id="Layer_1" data-name="Layer 1" xmlns="http://www.w3.org/2000/svg" xmlns:xlink="http://www.w3.org/1999/xlink" viewBox="0 0 612 612"><defs><style>.cls-1,.cls-2,.cls-3{stroke:#232323;stroke-miterlimit:10;stroke-width:1.31px;}.cls-1{fill:url(#linear-gradient);}.cls-2{fill:url(#linear-gradient-2);}.cls-3{fill:url(#linear-gradient-3);}</style><linearGradient id="linear-gradient" x1="464.22" y1="70.99" x2="464.22" y2="226.07" gradientUnits="userSpaceOnUse"><stop offset="0" stop-color="#fafafa"/><stop offset="1" stop-color="#ebebeb"/></linearGradient><linearGradient id="linear-gradient-2" x1="513.37" y1="32.54" x2="513.37" y2="165.26" xlink:href="#linear-gradient"/><linearGradient id="linear-gradient-3" x1="260.99" y1="123.21" x2="260.99" y2="579.46" xlink:href="#linear-gradient"/></defs><path id="ProbeTool" class="cls-1" d="M536,191.54,421.1,76.92a20.25,20.25,0,1,0-28.67,28.6L507.34,220.14A20.25,20.25,0,0,0,536,191.54Z"/><path id="ProbeTool-2" data-name="ProbeTool" class="cls-2" d="M574,130.73l-92.5-92.26a20.25,20.25,0,0,0-28.67,28.6l92.5,92.26A20.25,20.25,0,0,0,574,130.73Z"/><path class="cls-3" d="M483.93,272.35,265.1,490.26A70.61,70.61,0,0,1,214.92,511H129.41L66.72,573.54a20.25,20.25,0,0,1-28.67-28.6l62.69-62.54V397.11a71.14,71.14,0,0,1,20.79-50.06L340.37,129.14a20.29,20.29,0,0,1,28.67,0L483.93,243.76A20.14,20.14,0,0,1,483.93,272.35Z"/></svg>