<svg id="Layer_1" data-name="Layer 1" xmlns="http://www.w3.org/2000/svg" xmlns:xlink="http://www.w3.org/1999/xlink" viewBox="0 0 612 612"><defs><style>.cls-1{stroke:#232323;stroke-miterlimit:10;fill:url(#linear-gradient);}</style><linearGradient id="linear-gradient" x1="305.98" y1="108.23" x2="305.98" y2="504.75" gradientUnits="userSpaceOnUse"><stop offset="0" stop-color="#fff"/><stop offset="0.6" stop-color="#e2e2e2"/><stop offset="1" stop-color="#ccc"/></linearGradient></defs><path id="Protractor" class="cls-1" d="M226.21,226.49a91.25,91.25,0,0,0,0,128.83,14.62,14.62,0,0,0,20.71,0l107.8-108.06a14.71,14.71,0,0,0,0-20.77A90.8,90.8,0,0,0,226.21,226.49Zm11.58,96.44a61.65,61.65,0,0,1,84.59-84.79ZM499.45,242.1l-80.2-80.35a180.85,180.85,0,0,0-128.82-53.52h0A182.77,182.77,0,0,0,161.61,420.08l80.16,80.37a14.62,14.62,0,0,0,20.71,0l41.66-41.77h0l76.75-76.93v0h0l38.33-38.44h0s0,0,0,0l38.35-38.45a0,0,0,0,0,0,0s0,0,0,0l41.76-41.86a14.76,14.76,0,0,0,0-20.8Zm-52.13,31.51-19.5-19.55a14.67,14.67,0,0,0-20.71,20.77l19.49,19.54-17.66,17.71-19.5-19.54a14.66,14.66,0,0,0-20.71,20.76l19.5,19.55-17.67,17.71-30.18-30.24a14.67,14.67,0,1,0-20.71,20.77l30.18,30.23L332.18,389l-19.5-19.54A14.66,14.66,0,0,0,292,390.25l19.5,19.55L293.8,427.51,274.3,408a14.67,14.67,0,0,0-20.71,20.77l19.5,19.56-20.95,21-69.8-70A153.09,153.09,0,1,1,398.55,182.5h0l69.83,70Z"/></svg>