<?xml version="1.0" encoding="iso-8859-1"?>
<!-- Generator: Adobe Illustrator 21.1.0, SVG Export Plug-In . SVG Version: 6.00 Build 0)  -->
<svg version="1.1" xmlns="http://www.w3.org/2000/svg" xmlns:xlink="http://www.w3.org/1999/xlink" x="0px" y="0px"
	 viewBox="0 0 50 50" style="enable-background:new 0 0 50 50;" xml:space="preserve">
<g id="Protractor">
	<path style="fill:#5280DF;" d="M25,50C11.215,50,0,38.785,0,25C0,11.215,11.215,0,25,0c13.785,0,25,11.215,25,25
		C50,38.785,38.785,50,25,50z M25,1.905C12.265,1.905,1.905,12.265,1.905,25S12.265,48.095,25,48.095S48.095,37.735,48.095,25
		S37.735,1.905,25,1.905z"/>
	<path style="fill:#5280DF;" d="M21.498,37.857L21.498,37.857c-0.253,0-0.495-0.1-0.674-0.279l-5.211-5.212
		c-2.238-2.237-3.471-5.213-3.471-8.377c0-3.164,1.232-6.139,3.471-8.377c2.237-2.237,5.211-3.469,8.375-3.469c0,0,0,0,0,0
		c3.164,0,6.139,1.233,8.376,3.47l5.214,5.211c0.179,0.179,0.279,0.421,0.279,0.673c0,0.253-0.1,0.495-0.279,0.674L22.172,37.578
		C21.993,37.757,21.751,37.857,21.498,37.857z M23.989,14.048c-2.655,0-5.151,1.034-7.028,2.912
		c-1.878,1.878-2.913,4.375-2.913,7.03c0,2.656,1.034,5.152,2.913,7.03l4.538,4.539l14.059-14.06l-4.54-4.538v0
		C29.14,15.082,26.644,14.048,23.989,14.048z"/>
	<path style="fill:#5280DF;" d="M20.485,28.445L20.485,28.445c-0.253,0-0.495-0.1-0.674-0.279c-1.116-1.116-1.73-2.6-1.73-4.177
		c0-1.578,0.615-3.061,1.732-4.177c2.3-2.303,6.048-2.303,8.353,0c0.179,0.179,0.279,0.421,0.279,0.674
		c0,0.253-0.1,0.495-0.279,0.674l-7.008,7.008C20.98,28.344,20.738,28.445,20.485,28.445z M23.989,19.988
		c-1.025,0-2.049,0.39-2.828,1.17c-0.757,0.757-1.174,1.762-1.174,2.831c0,0.744,0.202,1.457,0.579,2.076l5.5-5.499
		C25.43,20.181,24.709,19.988,23.989,19.988z"/>
	<path style="fill:#5280DF;" d="M34.189,25.166c-0.244,0-0.487-0.093-0.673-0.279l-1.941-1.941c-0.372-0.372-0.372-0.975,0-1.347
		c0.372-0.372,0.975-0.372,1.347,0l1.941,1.941c0.372,0.372,0.372,0.975,0,1.347C34.676,25.073,34.433,25.166,34.189,25.166z"/>
	<path style="fill:#5280DF;" d="M31.694,27.662c-0.244,0-0.487-0.093-0.673-0.279l-1.941-1.941c-0.372-0.372-0.372-0.975,0-1.347
		c0.372-0.372,0.975-0.372,1.347,0l1.941,1.941c0.372,0.372,0.372,0.975,0,1.347C32.181,27.569,31.937,27.662,31.694,27.662z"/>
	<path style="fill:#5280DF;" d="M26.702,32.653c-0.244,0-0.487-0.093-0.673-0.279l-1.941-1.941c-0.372-0.372-0.372-0.975,0-1.347
		c0.372-0.372,0.975-0.372,1.347,0l1.941,1.941c0.372,0.372,0.372,0.975,0,1.347C27.19,32.56,26.946,32.653,26.702,32.653z"/>
	<path style="fill:#5280DF;" d="M24.207,35.148c-0.244,0-0.488-0.093-0.674-0.279l-1.941-1.942c-0.372-0.372-0.372-0.975,0-1.347
		c0.372-0.372,0.975-0.372,1.347,0l1.941,1.942c0.372,0.372,0.372,0.975,0,1.347C24.694,35.055,24.451,35.148,24.207,35.148z"/>
	<path style="fill:#5280DF;" d="M29.198,30.157c-0.244,0-0.487-0.093-0.673-0.279l-2.635-2.635c-0.372-0.372-0.372-0.975,0-1.347
		c0.372-0.372,0.975-0.372,1.347,0l2.635,2.635c0.372,0.372,0.372,0.975,0,1.347C29.686,30.064,29.442,30.157,29.198,30.157z"/>
</g>
<g id="Layer_1">
</g>
</svg>
