<svg id="Layer_1" data-name="Layer 1" xmlns="http://www.w3.org/2000/svg" xmlns:xlink="http://www.w3.org/1999/xlink" viewBox="0 0 612 612"><defs><style>.cls-1,.cls-2{stroke:#232323;stroke-miterlimit:10;}.cls-1{opacity:0.6;isolation:isolate;fill:url(#linear-gradient);}.cls-2{fill:url(#linear-gradient-2);}</style><linearGradient id="linear-gradient" x1="306.4" y1="110.65" x2="306.4" y2="508.17" gradientUnits="userSpaceOnUse"><stop offset="0" stop-color="#fff"/><stop offset="0.6" stop-color="#e2e2e2"/><stop offset="1" stop-color="#ccc"/></linearGradient><linearGradient id="linear-gradient-2" x1="306.4" y1="205.13" x2="306.4" y2="413.69" xlink:href="#linear-gradient"/></defs><g id="Rectangle"><path class="cls-1" d="M489.05,423.51a14.68,14.68,0,0,0-14.62,14.73v40.49H434.25a14.72,14.72,0,0,0,0,29.44h54.8a14.67,14.67,0,0,0,14.61-14.72V438.24A14.68,14.68,0,0,0,489.05,423.51ZM349,478.73H263.77a14.72,14.72,0,0,0,0,29.44H349a14.72,14.72,0,0,0,0-29.44Zm-170.47,0H138.36V438.24a14.61,14.61,0,1,0-29.22,0v55.21a14.66,14.66,0,0,0,14.61,14.72h54.79a14.72,14.72,0,0,0,0-29.44ZM123.75,367.07a14.68,14.68,0,0,0,14.61-14.73V266.46a14.61,14.61,0,1,0-29.22,0v85.88A14.67,14.67,0,0,0,123.75,367.07Zm54.79-256.42H123.75a14.67,14.67,0,0,0-14.61,14.72v55.21a14.61,14.61,0,1,0,29.22,0V140.09h40.18a14.72,14.72,0,0,0,0-29.44Zm170.47,0H263.77a14.72,14.72,0,0,0,0,29.44H349a14.72,14.72,0,0,0,0-29.44Zm140,0h-54.8a14.72,14.72,0,0,0,0,29.44h40.18v40.49a14.62,14.62,0,1,0,29.23,0V125.37A14.68,14.68,0,0,0,489.05,110.65Zm0,141.09a14.67,14.67,0,0,0-14.62,14.72v85.88a14.62,14.62,0,1,0,29.23,0V266.46A14.67,14.67,0,0,0,489.05,251.74Z"/><path class="cls-2" d="M395.28,413.69H217.51A14.67,14.67,0,0,1,202.9,399V219.85a14.67,14.67,0,0,1,14.61-14.72H395.28a14.66,14.66,0,0,1,14.61,14.72V399A14.65,14.65,0,0,1,395.28,413.69ZM232.13,384.25H380.67V234.57H232.13Z"/></g></svg>