<svg id="Layer_1" data-name="Layer 1" xmlns="http://www.w3.org/2000/svg" xmlns:xlink="http://www.w3.org/1999/xlink" viewBox="0 0 612 612"><defs><style>.cls-1,.cls-2{stroke:#232323;stroke-miterlimit:10;}.cls-1{opacity:0.6;isolation:isolate;fill:url(#linear-gradient);}.cls-2{fill:url(#linear-gradient-2);}</style><linearGradient id="linear-gradient" x1="306.21" y1="106.23" x2="306.21" y2="506.13" gradientUnits="userSpaceOnUse"><stop offset="0" stop-color="#fff"/><stop offset="0.6" stop-color="#e2e2e2"/><stop offset="1" stop-color="#ccc"/></linearGradient><linearGradient id="linear-gradient-2" x1="306.2" y1="291.37" x2="306.2" y2="320.99" xlink:href="#linear-gradient"/></defs><g id="ReferenceLine"><path class="cls-1" d="M491.25,383.94a14.82,14.82,0,0,0-14.81,14.81v77.76H398.72a14.81,14.81,0,0,0,0,29.62h92.52a14.81,14.81,0,0,0,14.81-14.81V398.75A14.81,14.81,0,0,0,491.25,383.94ZM213.68,476.51H136V398.75a14.81,14.81,0,1,0-29.61,0v92.57a14.81,14.81,0,0,0,14.8,14.81h92.52a14.81,14.81,0,0,0,0-29.62Zm0-370.28H121.16A14.81,14.81,0,0,0,106.36,121v92.57a14.81,14.81,0,1,0,29.61,0V135.85h77.71a14.81,14.81,0,1,0,0-29.62Zm277.57,0H398.73a14.81,14.81,0,0,0,0,29.62h77.71v77.76a14.81,14.81,0,1,0,29.61,0V121A14.81,14.81,0,0,0,491.25,106.23Z"/><path class="cls-2" d="M491.25,321H121.16a14.81,14.81,0,0,1,0-29.62H491.25a14.81,14.81,0,0,1,0,29.62Z"/></g></svg>