<svg id="Layer_1" data-name="Layer 1" xmlns="http://www.w3.org/2000/svg" xmlns:xlink="http://www.w3.org/1999/xlink" viewBox="0 0 612 612"><defs><style>.cls-1,.cls-2{stroke:#232323;stroke-miterlimit:10;stroke-width:1.31px;}.cls-1{opacity:0.6;isolation:isolate;fill:url(#linear-gradient);}.cls-2{fill:url(#linear-gradient-2);}</style><linearGradient id="linear-gradient" x1="306" y1="32.76" x2="306" y2="579.24" gradientUnits="userSpaceOnUse"><stop offset="0" stop-color="#fafafa"/><stop offset="1" stop-color="#ebebeb"/></linearGradient><linearGradient id="linear-gradient-2" x1="306" y1="285.75" x2="306" y2="326.24" xlink:href="#linear-gradient"/></defs><g id="ReferenceLine"><path class="cls-1" d="M558.86,412.26a20.25,20.25,0,0,0-20.23,20.24V538.76H432.43a20.24,20.24,0,0,0,0,40.48H558.86A20.24,20.24,0,0,0,579.09,559V432.5A20.24,20.24,0,0,0,558.86,412.26ZM179.57,538.76H73.36V432.5a20.23,20.23,0,1,0-40.46,0V559a20.25,20.25,0,0,0,20.23,20.24H179.57a20.24,20.24,0,0,0,0-40.48Zm0-506H53.13A20.25,20.25,0,0,0,32.9,53V179.5a20.23,20.23,0,1,0,40.46,0V73.24H179.57a20.24,20.24,0,0,0,0-40.48Zm379.29,0H432.43a20.24,20.24,0,0,0,0,40.48h106.2V179.5a20.24,20.24,0,1,0,40.47,0V53A20.26,20.26,0,0,0,558.86,32.76Z"/><path class="cls-2" d="M558.86,326.24H53.13a20.25,20.25,0,0,1,0-40.49H558.86a20.25,20.25,0,0,1,0,40.49Z"/></g></svg>