<svg id="Layer_1" data-name="Layer 1" xmlns="http://www.w3.org/2000/svg" xmlns:xlink="http://www.w3.org/1999/xlink" viewBox="0 0 612 612"><defs><style>.cls-1{stroke:#232323;stroke-miterlimit:10;fill:url(#linear-gradient);}</style><linearGradient id="linear-gradient" x1="305.99" y1="140.74" x2="305.99" y2="471.25" gradientUnits="userSpaceOnUse"><stop offset="0" stop-color="#fff"/><stop offset="0.6" stop-color="#e2e2e2"/><stop offset="1" stop-color="#ccc"/></linearGradient></defs><path id="Reload" class="cls-1" d="M252.23,393a87,87,0,0,1,0-174H272.7l-32.85,32.87a12.24,12.24,0,0,0,17.31,17.31l53.75-53.75a12.57,12.57,0,0,0,1.53-1.88c.19-.29.33-.62.5-.93a13,13,0,0,0,.61-1.17,11.06,11.06,0,0,0,.38-1.24c.1-.35.24-.68.31-1a12.12,12.12,0,0,0,0-4.8c-.07-.36-.21-.7-.31-1s-.22-.83-.38-1.24a13,13,0,0,0-.61-1.17c-.17-.31-.31-.64-.5-.93a12.6,12.6,0,0,0-1.53-1.87l-53.75-53.75a12.24,12.24,0,0,0-17.31,17.3l32.85,32.87H252.23a111.49,111.49,0,1,0,0,223,12.24,12.24,0,1,0,0-24.48Zm219-87A111.62,111.62,0,0,0,359.75,194.51a12.24,12.24,0,0,0,0,24.48,87,87,0,0,1,0,174H339.27l32.87-32.87a12.24,12.24,0,0,0-17.31-17.31l-53.75,53.75a11.44,11.44,0,0,0-1.53,1.88,8.78,8.78,0,0,0-.49.9,7,7,0,0,0-1,2.43c-.11.35-.24.69-.32,1.06a12.5,12.5,0,0,0,0,4.8c.08.36.21.71.32,1.06s.22.82.38,1.23a11.53,11.53,0,0,0,.64,1.2c.17.3.29.61.49.9a11.56,11.56,0,0,0,1.53,1.87l53.75,53.76a12.24,12.24,0,1,0,17.3-17.31l-32.86-32.87h20.48A111.61,111.61,0,0,0,471.24,306Z"/></svg>