<?xml version="1.0" encoding="iso-8859-1"?>
<!-- Generator: Adobe Illustrator 21.1.0, SVG Export Plug-In . SVG Version: 6.00 Build 0)  -->
<svg version="1.1" xmlns="http://www.w3.org/2000/svg" xmlns:xlink="http://www.w3.org/1999/xlink" x="0px" y="0px"
	 viewBox="0 0 50 50" style="enable-background:new 0 0 50 50;" xml:space="preserve">
<g id="ReloadAll">
	<path style="fill:#5280DF;" d="M25,50C11.215,50,0,38.785,0,25C0,11.215,11.215,0,25,0c13.785,0,25,11.215,25,25
		C50,38.785,38.785,50,25,50z M25,1.905C12.265,1.905,1.905,12.265,1.905,25S12.265,48.095,25,48.095S48.095,37.735,48.095,25
		S37.735,1.905,25,1.905z"/>
	<path style="fill:#5280DF;" d="M22.622,37.857c-0.244,0-0.488-0.093-0.673-0.279c-0.372-0.372-0.372-0.975,0-1.347l5.993-5.993
		l-5.993-5.993c-0.372-0.372-0.372-0.975,0-1.347c0.372-0.372,0.975-0.372,1.347,0l6.667,6.667c0.372,0.372,0.372,0.975,0,1.347
		l-6.667,6.667C23.109,37.764,22.866,37.857,22.622,37.857z"/>
	<path style="fill:#5280DF;" d="M36.905,37.857c-0.526,0-0.952-0.426-0.952-0.952V23.413c0-5.164-4.201-9.365-9.365-9.365h-4.92
		c-4.201,0-7.619,3.418-7.619,7.619s3.418,7.619,7.619,7.619h5.711c0.526,0,0.952,0.426,0.952,0.952
		c0,0.526-0.426,0.952-0.952,0.952h-5.711c-5.251,0-9.524-4.272-9.524-9.524c0-5.251,4.272-9.524,9.524-9.524h4.92
		c6.214,0,11.27,5.056,11.27,11.27v13.492C37.857,37.431,37.431,37.857,36.905,37.857z"/>
</g>
<g id="Layer_1">
</g>
</svg>
