<svg id="Layer_1" data-name="Layer 1" xmlns="http://www.w3.org/2000/svg" xmlns:xlink="http://www.w3.org/1999/xlink" viewBox="0 0 612 612"><defs><style>.cls-1{stroke:#232323;stroke-miterlimit:10;fill:url(#linear-gradient);}</style><linearGradient id="linear-gradient" x1="306.19" y1="106.23" x2="306.19" y2="506.13" gradientUnits="userSpaceOnUse"><stop offset="0" stop-color="#fff"/><stop offset="0.6" stop-color="#e2e2e2"/><stop offset="1" stop-color="#ccc"/></linearGradient></defs><path id="ReloadAll" class="cls-1" d="M330.87,106.23H254.38c-81.62,0-148,66.44-148,148.11s66.41,148.11,148,148.11h82.74l-78.36,78.39a14.81,14.81,0,1,0,20.94,21L383.32,398.11a14.79,14.79,0,0,0,0-20.94L279.7,273.49a14.81,14.81,0,0,0-20.94,20.94l78.36,78.4H254.38c-65.3,0-118.43-53.16-118.43-118.49s53.13-118.49,118.43-118.49h76.49c80.26,0,145.56,65.33,145.56,145.64V491.32a14.81,14.81,0,1,0,29.61,0V281.49C506.05,184.85,427.46,106.23,330.87,106.23Z"/></svg>