<svg id="Layer_1" data-name="Layer 1" xmlns="http://www.w3.org/2000/svg" xmlns:xlink="http://www.w3.org/1999/xlink" viewBox="0 0 612 612"><defs><style>.cls-1{opacity:0.5;}.cls-2,.cls-3{stroke:#232323;stroke-miterlimit:10;}.cls-2{fill:url(#linear-gradient);}.cls-3{fill:url(#linear-gradient-2);}</style><linearGradient id="linear-gradient" x1="306" y1="106.05" x2="306" y2="505.95" gradientUnits="userSpaceOnUse"><stop offset="0" stop-color="#fff"/><stop offset="0.6" stop-color="#e2e2e2"/><stop offset="1" stop-color="#ccc"/></linearGradient><linearGradient id="linear-gradient-2" x1="308.29" y1="171.88" x2="308.29" y2="442.74" xlink:href="#linear-gradient"/></defs><g id="RenameTemplate"><g class="cls-1"><path class="cls-2" d="M454,506H158a51.89,51.89,0,0,1-51.82-51.84V157.89A51.89,51.89,0,0,1,158,106.05H454a51.89,51.89,0,0,1,51.82,51.84V454.11A51.89,51.89,0,0,1,454,506ZM158,135.67a22.24,22.24,0,0,0-22.21,22.22V454.11A22.24,22.24,0,0,0,158,476.33H454a22.24,22.24,0,0,0,22.21-22.22V157.89A22.24,22.24,0,0,0,454,135.67Z"/></g><path class="cls-3" d="M246.86,206.86a68.93,68.93,0,0,1,21.48-8.28,13.51,13.51,0,0,0-5.86-26.37,96.58,96.58,0,0,0-29.85,11.69,45.93,45.93,0,0,0-9.44,7.79,46.58,46.58,0,0,0-9.44-7.79,96,96,0,0,0-29.85-11.7A13.5,13.5,0,0,0,178,198.56a69.18,69.18,0,0,1,21.48,8.28c6.28,3.88,10.17,11.38,10.17,19.52V388.23c0,8.16-3.89,15.65-10.17,19.54A69.48,69.48,0,0,1,178,416.05a13.5,13.5,0,1,0,5.86,26.36,96.14,96.14,0,0,0,29.85-11.7,45.93,45.93,0,0,0,9.44-7.79,46.46,46.46,0,0,0,9.44,7.79,96.14,96.14,0,0,0,29.85,11.7,13.5,13.5,0,1,0,5.86-26.36,69.48,69.48,0,0,1-21.48-8.28c-6.27-3.9-10.17-11.38-10.17-19.54V226.38C236.69,218.23,240.58,210.73,246.86,206.86Zm77,209.08a13.27,13.27,0,1,0,13.27,13.27A13.27,13.27,0,0,0,323.88,415.94Zm56,0a13.27,13.27,0,1,0,13.27,13.27A13.27,13.27,0,0,0,379.85,415.94Zm56,0a13.27,13.27,0,1,0,13.27,13.27A13.27,13.27,0,0,0,435.84,415.94Z"/></g></svg>