<?xml version="1.0" encoding="iso-8859-1"?>
<!-- Generator: Adobe Illustrator 21.1.0, SVG Export Plug-In . SVG Version: 6.00 Build 0)  -->
<svg version="1.1" xmlns="http://www.w3.org/2000/svg" xmlns:xlink="http://www.w3.org/1999/xlink" x="0px" y="0px"
	 viewBox="0 0 50 50" style="enable-background:new 0 0 50 50;" xml:space="preserve">
<g id="Reverse">
	<path style="fill:#5280DF;" d="M25,50C11.215,50,0,38.785,0,25C0,11.215,11.215,0,25,0c13.785,0,25,11.215,25,25
		C50,38.785,38.785,50,25,50z M25,1.905C12.265,1.905,1.905,12.265,1.905,25S12.265,48.095,25,48.095S48.095,37.735,48.095,25
		S37.735,1.905,25,1.905z"/>
	<path style="fill:#5280DF;" d="M25,37.857c-0.526,0-0.952-0.426-0.952-0.952v-4.762c0-0.526,0.426-0.952,0.952-0.952
		s0.952,0.426,0.952,0.952v4.762C25.952,37.431,25.526,37.857,25,37.857z M25,28.333c-0.526,0-0.952-0.426-0.952-0.952v-4.762
		c0-0.526,0.426-0.952,0.952-0.952s0.952,0.426,0.952,0.952v4.762C25.952,27.907,25.526,28.333,25,28.333z M25,18.81
		c-0.526,0-0.952-0.426-0.952-0.952v-4.762c0-0.526,0.426-0.952,0.952-0.952s0.952,0.426,0.952,0.952v4.762
		C25.952,18.383,25.526,18.81,25,18.81z"/>
	<path style="fill:#5280DF;" d="M16.577,29.702c-0.244,0-0.488-0.093-0.673-0.279c-0.372-0.372-0.372-0.975,0-1.347L18.98,25
		l-3.076-3.077c-0.372-0.372-0.372-0.975,0-1.347c0.372-0.372,0.975-0.372,1.347,0l3.75,3.75c0.372,0.372,0.372,0.975,0,1.347
		l-3.75,3.75C17.065,29.609,16.821,29.702,16.577,29.702z"/>
	<path style="fill:#5280DF;" d="M33.423,29.702c-0.244,0-0.487-0.093-0.673-0.279l-3.75-3.75c-0.372-0.372-0.372-0.975,0-1.347
		l3.75-3.75c0.372-0.372,0.975-0.372,1.347,0c0.372,0.372,0.372,0.975,0,1.347L31.019,25l3.077,3.077
		c0.372,0.372,0.372,0.975,0,1.347C33.91,29.609,33.666,29.702,33.423,29.702z"/>
	<path style="fill:#5280DF;" d="M20.327,25.952h-7.232c-0.526,0-0.952-0.426-0.952-0.952s0.426-0.952,0.952-0.952h7.232
		c0.526,0,0.952,0.426,0.952,0.952S20.853,25.952,20.327,25.952z"/>
	<path style="fill:#5280DF;" d="M36.905,25.952h-7.098c-0.526,0-0.952-0.426-0.952-0.952s0.426-0.952,0.952-0.952h7.098
		c0.526,0,0.952,0.426,0.952,0.952S37.431,25.952,36.905,25.952z"/>
</g>
<g id="Layer_1">
</g>
</svg>
