<svg id="Layer_1" data-name="Layer 1" xmlns="http://www.w3.org/2000/svg" xmlns:xlink="http://www.w3.org/1999/xlink" viewBox="0 0 612 612"><defs><style>.cls-1{stroke:#232323;stroke-miterlimit:10;fill:url(#linear-gradient);}</style><linearGradient id="linear-gradient" x1="305.99" y1="140.75" x2="305.99" y2="471.26" gradientUnits="userSpaceOnUse"><stop offset="0" stop-color="#fff"/><stop offset="0.6" stop-color="#e2e2e2"/><stop offset="1" stop-color="#ccc"/></linearGradient></defs><path id="Reverse" class="cls-1" d="M306,385.57a12.24,12.24,0,0,0-12.24,12.24V459a12.24,12.24,0,1,0,24.48,0v-61.2A12.25,12.25,0,0,0,306,385.57Zm0-122.41a12.24,12.24,0,0,0-12.24,12.24v61.2a12.24,12.24,0,1,0,24.48,0V275.4A12.25,12.25,0,0,0,306,263.16Zm0-122.41A12.24,12.24,0,0,0,293.75,153v61.2a12.24,12.24,0,1,0,24.48,0V153A12.25,12.25,0,0,0,306,140.75ZM257.61,302.56c-.12-.42-.22-.83-.38-1.24a13,13,0,0,0-.61-1.17c-.17-.31-.31-.64-.5-.93a13.35,13.35,0,0,0-1.53-1.88l-48.2-48.19a12.24,12.24,0,0,0-17.3,17.31l27.29,27.29H153a12.25,12.25,0,0,0,0,24.49h63.41l-27.29,27.29a12.24,12.24,0,1,0,17.3,17.31l48.2-48.19a13.14,13.14,0,0,0,1.53-1.87c.19-.3.33-.63.5-.93a13.16,13.16,0,0,0,.61-1.18,10.46,10.46,0,0,0,.38-1.24c.1-.35.24-.68.31-1.05a12.5,12.5,0,0,0,0-4.8A8.44,8.44,0,0,0,257.61,302.56ZM459,293.76H395.59l27.3-27.3a12.24,12.24,0,1,0-17.31-17.31l-48.21,48.21a12.24,12.24,0,0,0,0,17.31l48.21,48.2a12.24,12.24,0,1,0,17.31-17.31l-27.3-27.29H459a12.26,12.26,0,0,0,0-24.51Z"/></svg>