<?xml version="1.0" encoding="iso-8859-1"?>
<!-- Generator: Adobe Illustrator 21.1.0, SVG Export Plug-In . SVG Version: 6.00 Build 0)  -->
<svg version="1.1" xmlns="http://www.w3.org/2000/svg" xmlns:xlink="http://www.w3.org/1999/xlink" x="0px" y="0px"
	 viewBox="0 0 50 50" style="enable-background:new 0 0 50 50;" xml:space="preserve">
<g id="RotateCounterClock">
	<path style="fill:#5280DF;" d="M25,50C11.215,50,0,38.785,0,25C0,11.215,11.215,0,25,0c13.785,0,25,11.215,25,25
		C50,38.785,38.785,50,25,50z M25,1.905C12.265,1.905,1.905,12.265,1.905,25S12.265,48.095,25,48.095S48.095,37.735,48.095,25
		S37.735,1.905,25,1.905z"/>
	<path style="fill:#5280DF;" d="M25.229,37.857c-4.465,0-8.643-2.439-10.902-6.366c-0.262-0.456-0.106-1.038,0.35-1.301
		c0.456-0.262,1.038-0.105,1.3,0.35c1.921,3.338,5.466,5.412,9.252,5.412c5.913,0,10.723-4.913,10.723-10.952
		c0-6.039-4.81-10.952-10.723-10.952c-4.558,0-8.674,2.819-10.243,7.014c-0.184,0.492-0.732,0.743-1.226,0.559
		c-0.493-0.184-0.743-0.733-0.559-1.226c1.845-4.936,6.678-8.252,12.027-8.252c6.963,0,12.628,5.768,12.628,12.857
		S32.192,37.857,25.229,37.857z"/>
	<path style="fill:#5280DF;" d="M14.093,21.681c-0.471,0-0.88-0.349-0.943-0.829l-0.999-7.633c-0.068-0.522,0.299-1,0.821-1.068
		c0.523-0.068,1,0.299,1.068,0.821l0.876,6.689l6.689-0.876c0.523-0.069,1,0.299,1.068,0.821c0.068,0.522-0.299,1-0.821,1.068
		l-7.633,0.999C14.176,21.678,14.135,21.681,14.093,21.681z"/>
</g>
<g id="Layer_1">
</g>
</svg>
