<svg id="Layer_1" data-name="Layer 1" xmlns="http://www.w3.org/2000/svg" xmlns:xlink="http://www.w3.org/1999/xlink" viewBox="0 0 612 612"><defs><style>.cls-1,.cls-2{stroke:#232323;stroke-miterlimit:10;}.cls-1{opacity:0.6;isolation:isolate;fill:url(#linear-gradient);}.cls-2{fill:url(#linear-gradient-2);}</style><linearGradient id="linear-gradient" x1="305.8" y1="148.92" x2="305.8" y2="319.81" gradientUnits="userSpaceOnUse"><stop offset="0" stop-color="#fff"/><stop offset="0.6" stop-color="#e2e2e2"/><stop offset="1" stop-color="#ccc"/></linearGradient><linearGradient id="linear-gradient-2" x1="305.79" y1="108.43" x2="305.79" y2="506.69" xlink:href="#linear-gradient"/></defs><g id="Rotate3D"><path class="cls-1" d="M214.11,306.44l-3.5,1.81a6.12,6.12,0,1,0,5.63,10.87l3.5-1.81a6.12,6.12,0,1,0-5.63-10.87Zm69.71-36.16-7.75,4a6.12,6.12,0,0,0,5.63,10.87l7.75-4a6.12,6.12,0,1,0-5.63-10.87ZM237.34,294.4l-7.75,4a6.12,6.12,0,1,0,5.63,10.87l7.75-4a6.12,6.12,0,1,0-5.63-10.86Zm23.25-12.06-7.75,4a6.12,6.12,0,1,0,5.63,10.87l7.75-4a6.12,6.12,0,0,0-5.63-10.87ZM312,262.24l-3.5-1.81a6.15,6.15,0,0,0-5.63,0l-3.5,1.81a6.12,6.12,0,0,0,2.81,11.55,6.26,6.26,0,0,0,2.82-.68l.68-.36.69.36A6.12,6.12,0,1,0,312,262.24Zm23.32,12.06-7.77-4a6.12,6.12,0,1,0-5.62,10.88l7.77,4a6.12,6.12,0,1,0,5.62-10.88Zm46.65,24.11-7.77-4a6.12,6.12,0,0,0-5.62,10.88l7.77,4a6,6,0,0,0,2.81.69,6.13,6.13,0,0,0,2.81-11.57ZM358.6,286.35l-7.77-4a6.12,6.12,0,0,0-5.63,10.87l7.77,4a6,6,0,0,0,2.81.69,6.12,6.12,0,0,0,2.82-11.56ZM401,308.25l-3.5-1.81a6.12,6.12,0,1,0-5.62,10.87l3.5,1.81a6,6,0,0,0,2.81.69A6.12,6.12,0,0,0,401,308.25ZM305.63,165.11a6.13,6.13,0,0,0,6.12-6.12v-4a6.12,6.12,0,1,0-12.24,0v4A6.13,6.13,0,0,0,305.63,165.11Zm0,23.93a6.12,6.12,0,0,0,6.12-6.12v-8a6.12,6.12,0,1,0-12.24,0v8A6.13,6.13,0,0,0,305.63,189Zm0,47.87a6.12,6.12,0,0,0,6.12-6.12v-8a6.12,6.12,0,0,0-12.24,0v8A6.12,6.12,0,0,0,305.63,236.91Zm0-23.93a6.12,6.12,0,0,0,6.12-6.12v-8a6.12,6.12,0,0,0-12.24,0v8A6.12,6.12,0,0,0,305.63,213Zm0,43.84a6.13,6.13,0,0,0,6.12-6.12v-3.95a6.12,6.12,0,0,0-12.24,0v3.95A6.13,6.13,0,0,0,305.63,256.82Z"/><path class="cls-2" d="M433.48,253.2l-.9-.39V181.1a14.26,14.26,0,0,0-.55-3.91c-.12-.44-.35-.83-.5-1.26a14.61,14.61,0,0,0-1-2.29c-.27-.46-.64-.85-.95-1.28a14.45,14.45,0,0,0-1.44-1.77,12.09,12.09,0,0,0-1.3-1c-.46-.35-.86-.79-1.36-1.1-.16-.1-.34-.13-.5-.22s-.26-.21-.4-.28l-111.9-57.87a14.82,14.82,0,0,0-13.62,0L187.54,168c-.15.08-.25.2-.4.29s-.32.12-.49.2c-.5.31-.9.74-1.37,1.1a12,12,0,0,0-1.31,1,15.54,15.54,0,0,0-1.45,1.79,14.09,14.09,0,0,0-.93,1.26,14.64,14.64,0,0,0-1,2.33,13.19,13.19,0,0,0-.5,1.23,15,15,0,0,0-.55,3.91V252.6c-.28.13-.58.25-.84.38-46.37,22.09-72.95,55.34-72.95,91.21,0,57.4,69.29,106.53,160.6,118.4l-21.08,18a14.81,14.81,0,1,0,19.23,22.52l48.4-41.38c.12-.1.21-.23.33-.34a12.61,12.61,0,0,0,1.12-1.19c.28-.32.58-.65.83-1A12.89,12.89,0,0,0,316,458a10.68,10.68,0,0,0,.67-1.19c.21-.44.35-.9.52-1.36a13.7,13.7,0,0,0,.43-1.33c.1-.45.16-.89.24-1.35a13.29,13.29,0,0,0,.17-1.56c0-.14.05-.28.05-.43,0-.3-.06-.58-.08-.87a14.93,14.93,0,0,0-.13-1.62c-.07-.46-.18-.9-.28-1.35a14.59,14.59,0,0,0-.42-1.43,12,12,0,0,0-.57-1.34c-.21-.43-.41-.84-.65-1.26s-.58-.85-.89-1.29a7.71,7.71,0,0,0-.52-.75l-41.36-48.44a14.81,14.81,0,1,0-22.52,19.23l18.2,21.32c-74.27-10.22-133.53-47.82-133.53-88.79,0-21.19,15.94-42,44.19-58.23v31.83a14.82,14.82,0,0,0,8,13.16L299,388.77a15.71,15.71,0,0,0,1.94.73c.39.13.76.32,1.14.43a14.82,14.82,0,0,0,3.73.5,15.37,15.37,0,0,0,3.74-.5c.39-.11.78-.3,1.18-.44a13.84,13.84,0,0,0,1.89-.71l111.9-57.87a14.76,14.76,0,0,0,8-13.15V286.21c28,16.23,43.73,36.91,43.73,58,0,32.95-39.69,64.87-98.77,79.43a14.81,14.81,0,0,0,7.07,28.77c73.68-18.18,121.28-60.64,121.28-108.22C505.9,308.45,479.51,275.29,433.48,253.2ZM291.06,351.27l-81.91-42.51V205.47L291.06,248v103.3Zm14.82-129L226.5,181.1l79.38-41.19,79.65,41.19ZM403,308.74l-82.3,42.57V248l36.22-18.74L403,205.42V308.74Z"/></g></svg>