<svg id="Layer_1" data-name="Layer 1" xmlns="http://www.w3.org/2000/svg" xmlns:xlink="http://www.w3.org/1999/xlink" viewBox="0 0 612 612"><defs><style>.cls-1{stroke:#232323;stroke-miterlimit:10;fill:url(#linear-gradient);}</style><linearGradient id="linear-gradient" x1="306" y1="106.04" x2="306" y2="505.96" gradientUnits="userSpaceOnUse"><stop offset="0" stop-color="#fff"/><stop offset="0.6" stop-color="#e2e2e2"/><stop offset="1" stop-color="#ccc"/></linearGradient></defs><path id="RotateClock" class="cls-1" d="M493,106.18A14.78,14.78,0,0,0,476.37,119l-9.52,72.7a200.88,200.88,0,0,0-164.41-85.59c-108.23,0-196.28,89.7-196.28,200s88.05,200,196.28,200c69.4,0,134.34-37.94,169.46-99a14.8,14.8,0,1,0-25.66-14.77c-29.85,51.9-84.95,84.16-143.8,84.16-91.9,0-166.67-76.41-166.67-170.33s74.77-170.33,166.67-170.33c62,0,118.77,33.59,148.3,85.72l-92-12.05a14.81,14.81,0,0,0-3.84,29.38l118.64,15.53a6.77,6.77,0,0,0,.89.06c.23,0,.45.05.68.05s.26,0,.39,0c.44,0,.87-.08,1.3-.12s.77-.05,1.16-.11a13.45,13.45,0,0,0,2.34-.62c.11,0,.23,0,.35-.09h0a14.42,14.42,0,0,0,2.52-1.25c.29-.17.54-.4.83-.6a14,14,0,0,0,1.37-1.07c.28-.27.53-.55.8-.83s.74-.8,1.07-1.23.41-.61.6-.92a16.16,16.16,0,0,0,.85-1.45c.16-.32.29-.67.43-1a15.7,15.7,0,0,0,.53-1.55q.15-.6.27-1.2c.06-.28.14-.55.19-.85l15.53-118.71A14.79,14.79,0,0,0,493,106.18Z"/></svg>