<svg xmlns="http://www.w3.org/2000/svg" xmlns:xlink="http://www.w3.org/1999/xlink" viewBox="0 0 612 612"><defs><style>.cls-1{stroke:#232323;stroke-miterlimit:10;fill:url(#linear-gradient);}</style><linearGradient id="linear-gradient" x1="306" y1="107.74" x2="306" y2="504.26" gradientUnits="userSpaceOnUse"><stop offset="0" stop-color="#fff"/><stop offset="0.6" stop-color="#e2e2e2"/><stop offset="1" stop-color="#ccc"/></linearGradient></defs><g id="Layer_2" data-name="Layer 2"><path class="cls-1" d="M289.12,406.91a11.73,11.73,0,0,0-12.37,10.94,11.58,11.58,0,0,0,10.74,12.36h19.7c111,0,199.29-53.91,199.29-122.71S419,185.43,307.19,185.43a319.64,319.64,0,0,0-72.61,8.08c18.23-39,45.5-64.37,75.3-64.37a65.68,65.68,0,0,1,44.87,20l-15.85-1.58a11.73,11.73,0,1,0-2.38,23.3l45.5,4.44h1.11a9.34,9.34,0,0,0,3.65,0h0l2.38-1.11H390l.79-.79v-.79l.79-1.11v-4.29h0l3.18-45.5a11.73,11.73,0,1,0-23.15-3.83,11.26,11.26,0,0,0-.16,2.09l-1.27,15.85a89.29,89.29,0,0,0-62.62-28.06c-45,0-83.72,38.37-104.8,96.55-58.66,21.09-97.19,60.25-97.19,105.91a87.83,87.83,0,0,0,28.06,62.15l-15.85,1.27a11.57,11.57,0,0,0-10.8,12.3c0,.07,0,.15,0,.22a11.73,11.73,0,0,0,11.57,10.94h1l45.5-3.17h6.82l.79-.79h0v-2.06a3.45,3.45,0,0,1,0-1.11v-4l-4.43-45.51A11.9,11.9,0,0,0,155.3,330a11.58,11.58,0,0,0-10.49,12.56l0,.28,1.59,17a64.85,64.85,0,0,1-20-44.56c0-30.44,25.68-58,65.16-76.41A315.93,315.93,0,0,0,188.28,305c0,111,53.43,199.29,121.6,199.29,30.44,0,59.3-17.92,81.5-50.58A11.74,11.74,0,0,0,373.05,439a13.66,13.66,0,0,0-1,1.5,79.24,79.24,0,0,1-62.15,40.27c-53.27,0-97.82-80.69-97.82-175.82a285.38,285.38,0,0,1,12.37-83.87,282,282,0,0,1,82.76-12.21c95.13,0,175.82,45.5,175.82,99.25s-80.69,99.25-175.82,99.25Q298.15,407.39,289.12,406.91ZM416,366.48h1.9a11.58,11.58,0,0,0,11.58-9.67A314.53,314.53,0,0,0,433.07,305a306.54,306.54,0,0,0-3.48-47.56,11.73,11.73,0,0,0-23.15,3.48,280.8,280.8,0,0,1,3.17,43.45,298.31,298.31,0,0,1-3.81,47.56,11.74,11.74,0,0,0,8.35,14.34,11,11,0,0,0,1.17.24Z"/></g></svg>