<?xml version="1.0" encoding="iso-8859-1"?>
<!-- Generator: Adobe Illustrator 21.1.0, SVG Export Plug-In . SVG Version: 6.00 Build 0)  -->
<svg version="1.1" xmlns="http://www.w3.org/2000/svg" xmlns:xlink="http://www.w3.org/1999/xlink" x="0px" y="0px"
	 viewBox="0 0 50 50" style="enable-background:new 0 0 50 50;" xml:space="preserve">
<g id="RotateClock">
	<path style="fill:#5280DF;" d="M25,50C11.215,50,0,38.785,0,25C0,11.215,11.215,0,25,0c13.785,0,25,11.215,25,25
		C50,38.785,38.785,50,25,50z M25,1.905C12.265,1.905,1.905,12.265,1.905,25S12.265,48.095,25,48.095S48.095,37.735,48.095,25
		S37.735,1.905,25,1.905z"/>
	<path style="fill:#5280DF;" d="M24.771,37.857c-6.963,0-12.628-5.768-12.628-12.857s5.665-12.857,12.628-12.857
		c5.349,0,10.182,3.316,12.027,8.252c0.184,0.493-0.066,1.041-0.559,1.226c-0.492,0.184-1.042-0.066-1.225-0.559
		c-1.568-4.195-5.684-7.014-10.243-7.014c-5.913,0-10.723,4.913-10.723,10.952c0,6.039,4.81,10.952,10.723,10.952
		c3.786,0,7.331-2.074,9.251-5.411c0.263-0.456,0.844-0.612,1.3-0.351c0.456,0.262,0.613,0.844,0.351,1.3
		C33.414,35.418,29.236,37.857,24.771,37.857z"/>
	<path style="fill:#5280DF;" d="M35.907,21.681c-0.041,0-0.083-0.003-0.125-0.008l-7.633-0.999
		c-0.521-0.068-0.889-0.546-0.821-1.068c0.068-0.522,0.549-0.89,1.068-0.821l6.689,0.876l0.876-6.689
		c0.068-0.522,0.548-0.892,1.068-0.821c0.521,0.068,0.889,0.546,0.821,1.068l-0.999,7.633
		C36.787,21.332,36.377,21.681,35.907,21.681z"/>
</g>
<g id="Layer_1">
</g>
</svg>
