<svg id="Layer_1" data-name="Layer 1" xmlns="http://www.w3.org/2000/svg" xmlns:xlink="http://www.w3.org/1999/xlink" viewBox="0 0 612 612"><defs><style>.cls-1{stroke:#232323;stroke-miterlimit:10;fill:url(#linear-gradient);}</style><linearGradient id="linear-gradient" x1="306" y1="106.05" x2="306" y2="505.95" gradientUnits="userSpaceOnUse"><stop offset="0" stop-color="#fff"/><stop offset="0.6" stop-color="#e2e2e2"/><stop offset="1" stop-color="#ccc"/></linearGradient></defs><path id="RotateCounterClock" class="cls-1" d="M309.54,106.06a200.84,200.84,0,0,0-164.4,85.59l-9.52-72.71a14.81,14.81,0,0,0-29.36,3.84l15.53,118.71a6.46,6.46,0,0,0,.18.76c.09.46.18.9.31,1.35a13.64,13.64,0,0,0,.49,1.4c.15.39.31.76.49,1.13a14.07,14.07,0,0,0,.78,1.36c.21.34.41.67.65,1a12.76,12.76,0,0,0,1,1.17c.29.3.54.59.85.88a15.17,15.17,0,0,0,1.33,1c.3.21.56.45.87.64a15.12,15.12,0,0,0,2.52,1.24s0,0,0,0l.35.09a14.34,14.34,0,0,0,2.34.6,9.57,9.57,0,0,0,1.19.11c.43,0,.84.12,1.29.12l.37,0c.23,0,.47,0,.71,0a6.18,6.18,0,0,0,.85-.06l118.65-15.53a14.81,14.81,0,0,0-3.83-29.37l-92,12c29.53-52.14,86.29-85.71,148.3-85.71,91.9,0,166.67,76.41,166.67,170.33S401.47,476.32,309.57,476.32c-58.84,0-113.94-32.24-143.8-84.15A14.8,14.8,0,1,0,140.12,407c35.12,61.06,100,99,169.47,99,108.22,0,196.27-89.7,196.27-199.95S417.77,106.06,309.54,106.06Z"/></svg>