<svg id="Layer_1" data-name="Layer 1" xmlns="http://www.w3.org/2000/svg" xmlns:xlink="http://www.w3.org/1999/xlink" viewBox="0 0 612 612"><defs><style>.cls-1{stroke:#232323;stroke-miterlimit:10;stroke-width:1.31px;fill:url(#linear-gradient);}</style><linearGradient id="linear-gradient" x1="306" y1="31.9" x2="306" y2="580.1" gradientUnits="userSpaceOnUse"><stop offset="0" stop-color="#fafafa"/><stop offset="1" stop-color="#ebebeb"/></linearGradient></defs><path class="cls-1" d="M414.48,38.43l-62,63.92L433,180.54a21.4,21.4,0,0,1-29.81,30.72l-80.57-78.18-79.57,82,52.12,50.57a21.4,21.4,0,0,1-29.81,30.72l-52.12-50.57-79.47,81.88,80.61,78.25a21.4,21.4,0,0,1-29.81,30.72L104,358.41l-62.16,64a21.33,21.33,0,0,0,.34,30.16L167.35,574.14a21.35,21.35,0,0,0,30.17-.57l372.68-384a21.33,21.33,0,0,0-.34-30.16L444.65,37.86A21.35,21.35,0,0,0,414.48,38.43Z"/></svg>