<svg id="Layer_1" data-name="Layer 1" xmlns="http://www.w3.org/2000/svg" xmlns:xlink="http://www.w3.org/1999/xlink" viewBox="0 0 612 612"><defs><style>.cls-1{stroke:#232323;stroke-miterlimit:10;fill:url(#linear-gradient);}</style><linearGradient id="linear-gradient" x1="306" y1="106.13" x2="306" y2="505.87" gradientUnits="userSpaceOnUse"><stop offset="0" stop-color="#fff"/><stop offset="0.6" stop-color="#e2e2e2"/><stop offset="1" stop-color="#ccc"/></linearGradient></defs><path id="Ruler" class="cls-1" d="M501.51,201.82,410,110.3a15.24,15.24,0,0,0-20.93,0L342.7,156.73l-.05,0a.13.13,0,0,1,0,.05l-46.38,46.4v0h0l-92.83,92.88v0h0L157,342.56l0,0a.13.13,0,0,0,0,.05l-46.41,46.43a14.81,14.81,0,0,0,0,20.95L202,501.53a14.79,14.79,0,0,0,20.93,0L501.51,222.77A14.82,14.82,0,0,0,501.51,201.82ZM212.43,470.11l-70.54-70.58L167.39,374l21.68,21.69A14.81,14.81,0,1,0,210,374.75l-21.67-21.68,25.5-25.52,21.68,21.67a14.8,14.8,0,0,0,20.93-20.94l-21.67-21.67,25.5-25.52L299,319.83a14.8,14.8,0,1,0,20.93-20.94L281.2,260.15l25.51-25.52,21.66,21.68a14.8,14.8,0,1,0,20.93-20.94l-21.66-21.69,25.51-25.52,21.67,21.69a14.81,14.81,0,0,0,20.93-20.95l-21.67-21.68,25.51-25.52,70.53,70.58Z"/></svg>