<svg id="Layer_1" data-name="Layer 1" xmlns="http://www.w3.org/2000/svg" xmlns:xlink="http://www.w3.org/1999/xlink" viewBox="0 0 612 612"><defs><style>.cls-1{stroke:#232323;stroke-miterlimit:10;fill:url(#linear-gradient);}</style><linearGradient id="linear-gradient" x1="306" y1="106.05" x2="306" y2="505.95" gradientUnits="userSpaceOnUse"><stop offset="0" stop-color="#fff"/><stop offset="0.6" stop-color="#e2e2e2"/><stop offset="1" stop-color="#ccc"/></linearGradient></defs><path id="SaveHangingProtocol" class="cls-1" d="M489.32,198.09l-83.95-78.15a51.65,51.65,0,0,0-35.29-13.89H121a14.82,14.82,0,0,0-14.81,14.81V491.14A14.82,14.82,0,0,0,121,506H491a14.82,14.82,0,0,0,14.81-14.81V236A52.06,52.06,0,0,0,489.32,198.09ZM238.45,135.67H351.33v93.5H238.45ZM407.77,476.33H204.23V335.62H407.77Zm68.47,0H437.38V320.81A14.81,14.81,0,0,0,422.58,306H189.42a14.81,14.81,0,0,0-14.8,14.81V476.33H135.76V135.67h27.76V244a14.82,14.82,0,0,0,14.8,14.82H366.15A14.82,14.82,0,0,0,381,244V138.59a22.92,22.92,0,0,1,4.28,3h0l83.95,78.15A22.29,22.29,0,0,1,476.25,236v240.3ZM276.82,458.6a10.18,10.18,0,0,0,10.26-10.27v-28h37.85v28a10.26,10.26,0,1,0,20.52,0V373.94a10.26,10.26,0,1,0-20.52,0V401.4H287.1V373.94a10.26,10.26,0,1,0-20.52,0v74.39A10.15,10.15,0,0,0,276.82,458.6Z"/></svg>