<svg id="Layer_1" data-name="Layer 1" xmlns="http://www.w3.org/2000/svg" xmlns:xlink="http://www.w3.org/1999/xlink" viewBox="0 0 612 612"><defs><style>.cls-1,.cls-2,.cls-3,.cls-4,.cls-5,.cls-6{stroke:#232323;stroke-miterlimit:10;}.cls-1{fill:url(#linear-gradient);}.cls-2{fill:url(#linear-gradient-2);}.cls-3{fill:url(#linear-gradient-3);}.cls-4{fill:url(#linear-gradient-4);}.cls-5{fill:url(#linear-gradient-5);}.cls-6{fill:url(#linear-gradient-6);}</style><linearGradient id="linear-gradient" x1="306" y1="106" x2="306" y2="506" gradientUnits="userSpaceOnUse"><stop offset="0" stop-color="#fff"/><stop offset="0.6" stop-color="#e2e2e2"/><stop offset="1" stop-color="#ccc"/></linearGradient><linearGradient id="linear-gradient-2" x1="306" y1="306" x2="306" xlink:href="#linear-gradient"/><linearGradient id="linear-gradient-3" x1="272.67" x2="272.67" y2="259.49" xlink:href="#linear-gradient"/><linearGradient id="linear-gradient-4" x1="201.35" x2="201.35" y2="259.48" xlink:href="#linear-gradient"/><linearGradient id="linear-gradient-5" x1="306.77" y1="361.81" x2="306.77" y2="456.78" xlink:href="#linear-gradient"/><linearGradient id="linear-gradient-6" x1="304.51" y1="361.81" x2="304.51" y2="461.04" xlink:href="#linear-gradient"/></defs><path class="cls-1" d="M490.5,506h-369A15.53,15.53,0,0,1,106,490.5v-369A15.53,15.53,0,0,1,121.5,106H369.57c12.4,0,26.35,4.65,35.65,14L489,197.47A49.53,49.53,0,0,1,506,234.68V489C506,498.25,498.25,506,490.5,506Zm-355-29.46H476.54V236.23c0-6.2-3.1-12.4-7.75-15.5l-83.72-77.52h0c-4.65-3.1-9.3-6.2-15.5-6.2H135.46Z"/><path class="cls-2" d="M422.28,506H189.72a15.53,15.53,0,0,1-15.5-15.5v-169a15.53,15.53,0,0,1,15.5-15.5H422.28a15.53,15.53,0,0,1,15.5,15.5V492.05C437.78,498.25,430,506,422.28,506Zm-217-29.46h203.1V337H205.23Z"/><path class="cls-3" d="M366.47,259.49H178.87A15.54,15.54,0,0,1,163.36,244V121.5A15.54,15.54,0,0,1,178.87,106h187.6A15.53,15.53,0,0,1,382,121.5V244C380.42,251.74,374.22,259.49,366.47,259.49ZM192.82,230H351V137H192.82Z"/><path class="cls-4" d="M223.83,106h-45a15.53,15.53,0,0,0-15.5,15.5V244a15.53,15.53,0,0,0,15.5,15.5h45c7.75,0,15.51-7.75,15.51-15.5V121.5A15.54,15.54,0,0,0,223.83,106Zm-15.5,124H192.82V137h15.51Z"/><path class="cls-5" d="M273.44,447.08a11.82,11.82,0,0,1-3.1-7.75c0-4.65,4.65-9.3,9.3-9.3,3.1,0,4.65,1.55,6.2,1.55,7.76,4.65,15.51,7.75,23.26,7.75s13.95-3.1,13.95-9.3h0c0-4.65-3.1-7.75-18.6-12.4-18.61-4.65-31-9.31-31-27.91h0c0-17.05,13.95-27.91,32.56-27.91a59.43,59.43,0,0,1,29.46,7.76c1.55,1.55,4.65,4.65,4.65,7.75,0,4.65-4.65,9.3-9.31,9.3-1.55,0-3.1,0-4.65-1.55-6.2-4.65-12.4-6.2-20.15-6.2s-12.4,3.1-12.4,7.75h0c0,6.2,4.65,7.75,20.15,12.4,18.6,4.65,29.46,12.41,29.46,27.91h0c0,18.6-13.95,29.46-34.11,29.46C295.15,457.94,282.74,454.84,273.44,447.08Z"/><path class="cls-6" d="M307.55,461c-12.4,0-26.36-4.65-35.66-10.86-3.1-1.54-4.65-6.2-4.65-9.3A10.59,10.59,0,0,1,278.09,430c3.11,0,4.65,0,6.21,1.55,7.75,4.65,15.5,7.75,23.25,7.75s10.85-3.1,10.85-6.2-1.54-6.2-17-10.85c-17.05-4.65-32.56-9.31-32.56-31,0-18.61,14-29.46,34.11-29.46a70.6,70.6,0,0,1,31,7.75q4.65,2.32,4.65,9.31a10.59,10.59,0,0,1-10.85,10.85c-1.55,0-4.65,0-6.21-1.55a29.79,29.79,0,0,0-18.6-6.2c-6.2,0-10.85,3.1-10.85,6.2,0,4.65,1.55,6.2,18.6,10.85,18.61,4.65,31,12.41,31,29.46C343.21,448.64,329.26,461,307.55,461Zm-29.46-29.46a7.32,7.32,0,0,0-7.75,7.75c0,3.1,1.55,4.65,3.1,6.2h0c9.3,7.76,21.71,10.86,34.11,10.86,20.16,0,32.56-10.86,32.56-26.36,0-13.95-7.75-21.7-27.91-26.35-15.5-4.65-21.7-6.21-21.7-14,0-4.65,3.1-10.85,13.95-10.85,6.2,0,12.41,1.55,20.16,6.2,1.55,1.55,3.1,1.55,4.65,1.55a7.32,7.32,0,0,0,7.75-7.75c0-4.65-3.1-6.2-3.1-6.2A58,58,0,0,0,306,364.92c-18.6,0-31,10.85-31,26.35,0,17.06,9.31,21.71,29.46,26.36,15.5,4.65,20.16,7.75,20.16,13.95s-6.2,10.85-15.51,10.85-17.05-3.1-24.8-9.3C281.19,433.13,279.64,431.58,278.09,431.58Z"/></svg>