<svg id="Layer_1" data-name="Layer 1" xmlns="http://www.w3.org/2000/svg" xmlns:xlink="http://www.w3.org/1999/xlink" viewBox="0 0 612 612"><defs><style>.cls-1,.cls-2{stroke:#232323;stroke-miterlimit:10;}.cls-1{opacity:0.6;isolation:isolate;fill:url(#linear-gradient);}.cls-2{fill:url(#linear-gradient-2);}</style><linearGradient id="linear-gradient" x1="306" y1="106.05" x2="306" y2="505.95" gradientUnits="userSpaceOnUse"><stop offset="0" stop-color="#fff"/><stop offset="0.6" stop-color="#e2e2e2"/><stop offset="1" stop-color="#ccc"/></linearGradient><linearGradient id="linear-gradient-2" x1="305.99" y1="285.63" x2="305.99" y2="465.22" xlink:href="#linear-gradient"/></defs><g id="SaveLayout"><path class="cls-1" d="M489.32,198.09l-83.95-78.15a51.65,51.65,0,0,0-35.29-13.89H121a14.82,14.82,0,0,0-14.81,14.81V491.14A14.82,14.82,0,0,0,121,506H491a14.82,14.82,0,0,0,14.81-14.81V236A52.06,52.06,0,0,0,489.32,198.09ZM238.45,135.67H351.33v93.5H238.45ZM476.24,476.33H452.8V343a37.07,37.07,0,0,0-37-37H381a14.81,14.81,0,0,0,0,29.62h34.84A7.41,7.41,0,0,1,423.2,343v133.3H188.8V343a7.41,7.41,0,0,1,7.4-7.41h34.85a14.81,14.81,0,0,0,0-29.62H196.2a37.06,37.06,0,0,0-37,37v133.3H135.76V135.67h27.76V244a14.82,14.82,0,0,0,14.8,14.82H366.15A14.82,14.82,0,0,0,381,244V138.59a22.92,22.92,0,0,1,4.28,3h0l83.94,78.15A22.26,22.26,0,0,1,476.25,236v240.3Z"/><path class="cls-2" d="M380.93,465.22H231.05a14.81,14.81,0,0,1-14.8-14.81v-150a14.82,14.82,0,0,1,14.8-14.82H380.93a14.82,14.82,0,0,1,14.81,14.82v150A14.81,14.81,0,0,1,380.93,465.22ZM245.85,435.6H366.13V315.26H245.85Z"/></g></svg>