<svg id="Layer_1" data-name="Layer 1" xmlns="http://www.w3.org/2000/svg" xmlns:xlink="http://www.w3.org/1999/xlink" viewBox="0 0 612 612"><defs><style>.cls-1{stroke:#232323;stroke-miterlimit:10;stroke-width:1.31px;fill:url(#linear-gradient);}</style><linearGradient id="linear-gradient" x1="306" y1="30.5" x2="306" y2="581.5" gradientUnits="userSpaceOnUse"><stop offset="0" stop-color="#fafafa"/><stop offset="1" stop-color="#ebebeb"/></linearGradient></defs><path id="SaveHangingProtocol" class="cls-1" d="M558.59,157.31,442.92,49.64A71.12,71.12,0,0,0,394.3,30.5H51a20.41,20.41,0,0,0-20.4,20.4V561.09A20.41,20.41,0,0,0,51,581.5H561a20.41,20.41,0,0,0,20.4-20.41V209.59A71.67,71.67,0,0,0,558.59,157.31Zm-345.66-86H368.46V200.14H212.93Zm233.3,469.38H165.77V346.82H446.23Zm94.33,0H487V326.41A20.41,20.41,0,0,0,466.62,306H145.37A20.41,20.41,0,0,0,125,326.41V540.69H71.44V71.31h38.24V220.55A20.41,20.41,0,0,0,130.08,241H388.87a20.41,20.41,0,0,0,20.4-20.41V75.33a30.75,30.75,0,0,1,5.89,4.18h0L530.83,187.19a30.67,30.67,0,0,1,9.75,22.41V540.69ZM265.8,516.26a14,14,0,0,0,14.13-14.15V463.53h52.16v38.58a14.14,14.14,0,1,0,28.27,0V399.61a14.14,14.14,0,1,0-28.27,0v37.83H280V399.61a14.14,14.14,0,1,0-28.27,0v102.5A14,14,0,0,0,265.8,516.26Z"/></svg>