<svg id="Layer_1" data-name="Layer 1" xmlns="http://www.w3.org/2000/svg" xmlns:xlink="http://www.w3.org/1999/xlink" viewBox="0 0 612 612"><defs><style>.cls-1{stroke:#232323;stroke-miterlimit:10;fill:url(#linear-gradient);}</style><linearGradient id="linear-gradient" x1="306" y1="106.05" x2="306" y2="505.95" gradientUnits="userSpaceOnUse"><stop offset="0" stop-color="#fff"/><stop offset="0.6" stop-color="#e2e2e2"/><stop offset="1" stop-color="#ccc"/></linearGradient></defs><path id="SaveStudyLayout" class="cls-1" d="M489.32,198.09l-83.95-78.15a51.65,51.65,0,0,0-35.29-13.89H121a14.82,14.82,0,0,0-14.81,14.81V491.14A14.82,14.82,0,0,0,121,506H491a14.82,14.82,0,0,0,14.81-14.81V236A52.06,52.06,0,0,0,489.32,198.09ZM238.45,135.67H351.33v93.5H238.45ZM407.77,476.33H204.23V335.62H407.77Zm68.47,0H437.38V320.81A14.81,14.81,0,0,0,422.58,306H189.42a14.81,14.81,0,0,0-14.8,14.81V476.33H135.76V135.67h27.76V244a14.82,14.82,0,0,0,14.8,14.82H366.15A14.82,14.82,0,0,0,381,244V138.59a22.92,22.92,0,0,1,4.28,3h0l83.95,78.15A22.29,22.29,0,0,1,476.25,236v240.3ZM308.15,439.15c-8,0-15.41-2.64-22.8-8.07a11.72,11.72,0,0,0-6.93-2.19A11.25,11.25,0,0,0,267,440.2a11.4,11.4,0,0,0,4.63,9.24A62.4,62.4,0,0,0,307.73,461c21.94,0,36.1-12.08,36.1-31,0-18-12.37-25-31-29.8-16.52-4.24-18.72-5.94-18.72-10.74,0-3.82,4-6.28,10.14-6.28,5.76,0,11.68,1.91,18.65,6a11.54,11.54,0,0,0,6.15,1.72,11.35,11.35,0,0,0,6.05-21,56,56,0,0,0-30.57-8.56c-20.31,0-34.51,12.33-34.51,30.26,0,20.41,14.64,25.8,32.32,30.31,16.22,4.16,17.39,6.58,17.39,10.34C319.75,436.54,315.42,439.15,308.15,439.15Z"/></svg>