<?xml version="1.0" encoding="iso-8859-1"?>
<!-- Generator: Adobe Illustrator 21.1.0, SVG Export Plug-In . SVG Version: 6.00 Build 0)  -->
<svg version="1.1" xmlns="http://www.w3.org/2000/svg" xmlns:xlink="http://www.w3.org/1999/xlink" x="0px" y="0px"
	 viewBox="0 0 50 50" style="enable-background:new 0 0 50 50;" xml:space="preserve">
<g id="SaveLayout">
	<path style="fill:#5280DF;" d="M25,50C11.215,50,0,38.785,0,25C0,11.215,11.215,0,25,0c13.785,0,25,11.215,25,25
		C50,38.785,38.785,50,25,50z M25,1.905C12.265,1.905,1.905,12.265,1.905,25S12.265,48.095,25,48.095S48.095,37.735,48.095,25
		S37.735,1.905,25,1.905z"/>
	<path style="fill:#5280DF;" d="M36.905,37.857h-23.81c-0.526,0-0.952-0.426-0.952-0.952v-23.81c0-0.526,0.426-0.952,0.952-0.952
		h16.028c0.846,0,1.652,0.317,2.271,0.893l5.401,5.025c0.675,0.629,1.063,1.518,1.063,2.44v16.404
		C37.857,37.431,37.431,37.857,36.905,37.857z M14.048,35.952h21.905V20.501c0-0.395-0.166-0.777-0.455-1.046l-5.401-5.025v0
		c-0.265-0.247-0.611-0.382-0.973-0.382H14.048V35.952z"/>
	<path style="fill:#5280DF;" d="M33.492,37.857H16.508c-0.526,0-0.952-0.426-0.952-0.952v-9.524c0-1.313,1.068-2.381,2.381-2.381
		h2.242c0.526,0,0.952,0.426,0.952,0.952c0,0.526-0.426,0.952-0.952,0.952h-2.242c-0.263,0-0.476,0.213-0.476,0.476v8.571H32.54
		v-8.571c0-0.263-0.213-0.476-0.476-0.476h-2.242c-0.526,0-0.952-0.426-0.952-0.952c0-0.526,0.426-0.952,0.952-0.952h2.242
		c1.313,0,2.381,1.068,2.381,2.381v9.524C34.444,37.431,34.018,37.857,33.492,37.857z"/>
	<path style="fill:#5280DF;" d="M28.869,21.964H16.786c-0.526,0-0.952-0.426-0.952-0.952v-7.917c0-0.526,0.426-0.952,0.952-0.952
		h12.083c0.526,0,0.952,0.426,0.952,0.952v7.917C29.821,21.538,29.395,21.964,28.869,21.964z M17.738,20.06h10.179v-6.012H17.738
		V20.06z"/>
	<rect x="16.786" y="13.095" style="fill:#5280DF;" width="2.917" height="7.917"/>
	<path style="fill:#5280DF;" d="M19.702,21.964h-2.917c-0.526,0-0.952-0.426-0.952-0.952v-7.917c0-0.526,0.426-0.952,0.952-0.952
		h2.917c0.526,0,0.952,0.426,0.952,0.952v7.917C20.655,21.538,20.228,21.964,19.702,21.964z M17.738,20.06h1.012v-6.012h-1.012
		V20.06z"/>
	<path style="fill:#5280DF;" d="M29.821,35.238h-9.643c-0.526,0-0.952-0.426-0.952-0.952v-9.643c0-0.526,0.426-0.952,0.952-0.952
		h9.643c0.526,0,0.952,0.426,0.952,0.952v9.643C30.774,34.812,30.347,35.238,29.821,35.238z M21.131,33.333h7.738v-7.738h-7.738
		V33.333z"/>
</g>
<g id="Layer_1">
</g>
</svg>
