<svg id="Layer_1" data-name="Layer 1" xmlns="http://www.w3.org/2000/svg" xmlns:xlink="http://www.w3.org/1999/xlink" viewBox="0 0 612 612"><defs><style>.cls-1{stroke:#232323;stroke-miterlimit:10;fill:url(#linear-gradient);}</style><linearGradient id="linear-gradient" x1="306" y1="106.05" x2="306" y2="505.95" gradientUnits="userSpaceOnUse"><stop offset="0" stop-color="#fff"/><stop offset="0.6" stop-color="#e2e2e2"/><stop offset="1" stop-color="#ccc"/></linearGradient></defs><path id="SaveTemplate" class="cls-1" d="M204.23,394.87V335.62h33.3a14.81,14.81,0,0,0,0-29.62H189.42a14.81,14.81,0,0,0-14.8,14.81v74.06a14.81,14.81,0,1,0,29.61,0ZM491,338.39a14.82,14.82,0,0,0-14.8,14.82v123.1H437.38V394.85a14.81,14.81,0,1,0-29.61,0v81.46H330.59a14.82,14.82,0,0,0,0,29.63H491a14.81,14.81,0,0,0,14.8-14.81V353.2A14.81,14.81,0,0,0,491,338.39ZM178.32,258.78H366.15A14.81,14.81,0,0,0,381,244V138.58a22.47,22.47,0,0,1,4.28,3L412.51,167a14.8,14.8,0,1,0,20.16-21.68l-27.28-25.39a51.59,51.59,0,0,0-35.29-13.89H121a14.82,14.82,0,0,0-14.81,14.81V491.14A14.82,14.82,0,0,0,121,506H151.5a14.81,14.81,0,0,0,0-29.62H135.76V135.67h27.76V244A14.8,14.8,0,0,0,178.32,258.78Zm60.13-123.11H351.33v93.51H238.45ZM464.17,300.5l31.12-30.95a36.29,36.29,0,0,0,0-51.22l-15.12-15.1a36.17,36.17,0,0,0-51.2-.06l-31.1,31h0l0,0L215.91,416.33a14.81,14.81,0,0,0-3.73,6.29L193.27,487a14.81,14.81,0,0,0,14.2,19,14.23,14.23,0,0,0,4.17-.61L276,486.42a14.81,14.81,0,0,0,6.29-3.74L464.17,300.52ZM268.27,454.77,243.81,430.3,408.29,265.6l24.47,24.46Zm161-210.09,20.63-20.56a6.65,6.65,0,0,1,9.3,0l15.18,15.17a6.23,6.23,0,0,1,1.87,4.69,6.44,6.44,0,0,1-1.89,4.6l-20.62,20.53Z"/></svg>