<svg id="Layer_1" data-name="Layer 1" xmlns="http://www.w3.org/2000/svg" xmlns:xlink="http://www.w3.org/1999/xlink" viewBox="0 0 612 612"><defs><style>.cls-1{stroke:#232323;stroke-miterlimit:10;fill:url(#linear-gradient);}</style><linearGradient id="linear-gradient" x1="306" y1="113.46" x2="306" y2="498.54" gradientUnits="userSpaceOnUse"><stop offset="0" stop-color="#fff"/><stop offset="0.6" stop-color="#e2e2e2"/><stop offset="1" stop-color="#ccc"/></linearGradient></defs><path id="ScrollFrame" class="cls-1" d="M491,113.46H121a14.82,14.82,0,0,0-14.81,14.82V372.66A14.82,14.82,0,0,0,121,387.47H491a14.82,14.82,0,0,0,14.81-14.81V128.27A14.83,14.83,0,0,0,491,113.46Zm-14.8,244.39H135.76V143.09H476.24V357.85ZM306,423.56a37.49,37.49,0,1,0,37.47,37.49A37.47,37.47,0,0,0,306,423.56ZM191.73,437.63a23.44,23.44,0,1,0,23.42,23.44A23.42,23.42,0,0,0,191.73,437.63Zm228.54,0a23.44,23.44,0,1,0,23.41,23.44A23.42,23.42,0,0,0,420.27,437.63Z"/></svg>