<svg id="Layer_1" data-name="Layer 1" xmlns="http://www.w3.org/2000/svg" xmlns:xlink="http://www.w3.org/1999/xlink" viewBox="0 0 612 612"><defs><style>.cls-1{stroke:#232323;stroke-miterlimit:10;fill:url(#linear-gradient);}</style><linearGradient id="linear-gradient" x1="306" y1="106.05" x2="306" y2="505.95" gradientUnits="userSpaceOnUse"><stop offset="0" stop-color="#fff"/><stop offset="0.6" stop-color="#e2e2e2"/><stop offset="1" stop-color="#ccc"/></linearGradient></defs><path id="ScrollRow" class="cls-1" d="M121,106.05a14.82,14.82,0,0,0-14.81,14.81V491.14a14.81,14.81,0,1,0,29.61,0V120.86A14.81,14.81,0,0,0,121,106.05Zm370.08,0a14.81,14.81,0,0,0-14.8,14.81V491.14a14.81,14.81,0,1,0,29.61,0V120.86A14.83,14.83,0,0,0,491,106.05ZM389.87,372h-132l23.08-23.09A14.81,14.81,0,0,0,260,328l-48.33,48.36a15.12,15.12,0,0,0-1.84,2.24c-.16.25-.28.52-.43.78a14.24,14.24,0,0,0-.94,1.77c-.14.34-.21.69-.33,1.05a13.71,13.71,0,0,0-.52,1.72,14.46,14.46,0,0,0,0,5.86,12.83,12.83,0,0,0,.58,1.88c.1.3.15.6.27.88a14.66,14.66,0,0,0,1,1.92,5.49,5.49,0,0,0,.34.63,15.78,15.78,0,0,0,1.83,2.25L260,445.68a14.81,14.81,0,1,0,20.94-20.94l-23.08-23.09h132a14.81,14.81,0,0,0,0-29.62ZM222.11,240h132l-23.08,23.09A14.81,14.81,0,0,0,352,284l48.34-48.36a15.54,15.54,0,0,0,1.85-2.27c.23-.35.4-.75.6-1.12s.54-.92.75-1.43a12.79,12.79,0,0,0,.45-1.49,11.49,11.49,0,0,0,.37-1.27,14.57,14.57,0,0,0,0-5.81c-.09-.44-.25-.85-.37-1.27s-.27-1-.45-1.5-.5-1-.75-1.42-.37-.77-.6-1.13a15.58,15.58,0,0,0-1.85-2.26L352,166.32a14.8,14.8,0,1,0-20.93,20.94l23.08,23.09h-132a14.81,14.81,0,0,0,0,29.62Z"/></svg>