<svg id="Layer_1" data-name="Layer 1" xmlns="http://www.w3.org/2000/svg" xmlns:xlink="http://www.w3.org/1999/xlink" viewBox="0 0 612 612"><defs><style>.cls-1{stroke:#232323;stroke-miterlimit:10;fill:url(#linear-gradient);}</style><linearGradient id="linear-gradient" x1="306" y1="106.05" x2="306" y2="505.95" gradientUnits="userSpaceOnUse"><stop offset="0" stop-color="#fff"/><stop offset="0.6" stop-color="#e2e2e2"/><stop offset="1" stop-color="#ccc"/></linearGradient></defs><path id="ScrollPage" class="cls-1" d="M332.2,145.55H279.8a73.13,73.13,0,0,0-73,73.06V393.38a73.14,73.14,0,0,0,73,73.08h52.4a73.13,73.13,0,0,0,73-73.08V218.61A73.13,73.13,0,0,0,332.2,145.55Zm43.42,247.84a43.48,43.48,0,0,1-43.42,43.45H279.8a43.48,43.48,0,0,1-43.42-43.45V218.61a43.48,43.48,0,0,1,43.42-43.44h52.4a43.48,43.48,0,0,1,43.42,43.44ZM306,213.1a14.82,14.82,0,0,0-14.8,14.82v44.49a14.8,14.8,0,1,0,29.6,0V227.92A14.82,14.82,0,0,0,306,213.1ZM158,135.67h21a14.81,14.81,0,1,0,0-29.62H158a51.89,51.89,0,0,0-51.82,51.84V454.11A51.89,51.89,0,0,0,158,506h21a14.82,14.82,0,0,0,0-29.63H158a22.23,22.23,0,0,1-22.21-22.21V157.89A22.24,22.24,0,0,1,158,135.67ZM454,106.05h-21a14.81,14.81,0,0,0,0,29.62h21a22.24,22.24,0,0,1,22.21,22.22V454.11A22.24,22.24,0,0,1,454,476.33h-21a14.81,14.81,0,1,0,0,29.62h21a51.89,51.89,0,0,0,51.82-51.84V157.89A51.89,51.89,0,0,0,454,106.05Z"/></svg>