<svg id="Layer_1" data-name="Layer 1" xmlns="http://www.w3.org/2000/svg" xmlns:xlink="http://www.w3.org/1999/xlink" viewBox="0 0 612 612"><defs><style>.cls-1{stroke:#232323;stroke-miterlimit:10;fill:url(#linear-gradient);}</style><linearGradient id="linear-gradient" x1="306" y1="106.05" x2="306" y2="505.95" gradientUnits="userSpaceOnUse"><stop offset="0" stop-color="#fff"/><stop offset="0.6" stop-color="#e2e2e2"/><stop offset="1" stop-color="#ccc"/></linearGradient></defs><path id="ScrollColumn" class="cls-1" d="M121,135.67H491a14.81,14.81,0,1,0,0-29.62H121a14.81,14.81,0,0,0,0,29.62ZM491,476.33H121A14.81,14.81,0,1,0,121,506H491a14.81,14.81,0,1,0,0-29.62ZM386.8,207.25A14.82,14.82,0,0,0,372,222.06V354.17l-23.07-23.1A14.81,14.81,0,1,0,328,352l48.34,48.36a14.84,14.84,0,0,0,2.26,1.85c.36.23.73.4,1.1.59a14.29,14.29,0,0,0,1.45.77c.49.19,1,.31,1.48.46a11.71,11.71,0,0,0,1.28.38,14.22,14.22,0,0,0,5.81,0,11.71,11.71,0,0,0,1.28-.38c.49-.15,1-.27,1.48-.46a12.54,12.54,0,0,0,1.45-.77c.37-.21.74-.36,1.1-.59a16.22,16.22,0,0,0,2.27-1.85L445.61,352a14.81,14.81,0,0,0-20.93-20.95l-23.08,23.1V222.06A14.81,14.81,0,0,0,386.8,207.25ZM225.2,404.73A14.82,14.82,0,0,0,240,389.92V257.82l23.07,23.09A14.81,14.81,0,0,0,284,260l-48.34-48.36a14.33,14.33,0,0,0-2.25-1.84c-.19-.13-.41-.22-.62-.34a14.66,14.66,0,0,0-1.92-1,8.94,8.94,0,0,0-.88-.27,16.38,16.38,0,0,0-1.88-.57,14.46,14.46,0,0,0-5.86,0,13.18,13.18,0,0,0-1.88.57c-.29.11-.59.15-.87.27a15.45,15.45,0,0,0-1.93,1c-.2.12-.42.21-.62.34a16.57,16.57,0,0,0-2.25,1.84L166.39,260a14.8,14.8,0,1,0,20.93,20.94l23.08-23.09v132.1A14.79,14.79,0,0,0,225.2,404.73Z"/></svg>