<?xml version="1.0" encoding="iso-8859-1"?>
<!-- Generator: Adobe Illustrator 21.1.0, SVG Export Plug-In . SVG Version: 6.00 Build 0)  -->
<svg version="1.1" xmlns="http://www.w3.org/2000/svg" xmlns:xlink="http://www.w3.org/1999/xlink" x="0px" y="0px"
	 viewBox="0 0 50 50" style="enable-background:new 0 0 50 50;" xml:space="preserve">
<g id="ScrollPage">
	<path style="fill:#5280DF;" d="M25,50C11.215,50,0,38.785,0,25C0,11.215,11.215,0,25,0c13.785,0,25,11.215,25,25
		C50,38.785,38.785,50,25,50z M25,1.905C12.265,1.905,1.905,12.265,1.905,25S12.265,48.095,25,48.095S48.095,37.735,48.095,25
		S37.735,1.905,25,1.905z"/>
	<path style="fill:#5280DF;" d="M26.686,35.318h-3.371c-2.591,0-4.698-2.108-4.698-4.699V19.381c0-2.591,2.108-4.698,4.698-4.698
		h3.371c2.591,0,4.698,2.108,4.698,4.698v11.238C31.384,33.21,29.276,35.318,26.686,35.318z M23.314,16.587
		c-1.54,0-2.794,1.253-2.794,2.794v11.238c0,1.541,1.253,2.794,2.794,2.794h3.371c1.54,0,2.793-1.253,2.793-2.794V19.381
		c0-1.54-1.253-2.794-2.793-2.794H23.314z"/>
	<path style="fill:#5280DF;" d="M25,23.792c-0.526,0-0.952-0.426-0.952-0.952v-2.861c0-0.526,0.426-0.952,0.952-0.952
		s0.952,0.426,0.952,0.952v2.861C25.952,23.366,25.526,23.792,25,23.792z"/>
	<path style="fill:#5280DF;" d="M16.825,37.857h-1.349c-1.838,0-3.333-1.496-3.333-3.333V15.476c0-1.838,1.495-3.333,3.333-3.333
		h1.349c0.526,0,0.952,0.426,0.952,0.952c0,0.526-0.426,0.952-0.952,0.952h-1.349c-0.788,0-1.429,0.641-1.429,1.429v19.048
		c0,0.788,0.641,1.429,1.429,1.429h1.349c0.526,0,0.952,0.426,0.952,0.952S17.351,37.857,16.825,37.857z"/>
	<path style="fill:#5280DF;" d="M34.524,37.857h-1.349c-0.526,0-0.952-0.426-0.952-0.952s0.426-0.952,0.952-0.952h1.349
		c0.788,0,1.429-0.641,1.429-1.429V15.476c0-0.788-0.641-1.429-1.429-1.429h-1.349c-0.526,0-0.952-0.426-0.952-0.952
		c0-0.526,0.426-0.952,0.952-0.952h1.349c1.838,0,3.333,1.495,3.333,3.333v19.048C37.857,36.362,36.362,37.857,34.524,37.857z"/>
</g>
<g id="Layer_1">
</g>
</svg>
