<svg id="Layer_1" data-name="Layer 1" xmlns="http://www.w3.org/2000/svg" xmlns:xlink="http://www.w3.org/1999/xlink" viewBox="0 0 612 612"><defs><style>.cls-1,.cls-2,.cls-3,.cls-4{stroke:#232323;stroke-miterlimit:10;stroke-width:1.79px;}.cls-1{fill:url(#linear-gradient);}.cls-2{fill:url(#linear-gradient-2);}.cls-3{fill:url(#linear-gradient-3);}.cls-4{fill:url(#linear-gradient-4);}</style><linearGradient id="linear-gradient" x1="50.65" y1="33.07" x2="50.65" y2="441.76" gradientUnits="userSpaceOnUse"><stop offset="0" stop-color="#fafafa"/><stop offset="1" stop-color="#ebebeb"/></linearGradient><linearGradient id="linear-gradient-2" x1="554.82" y1="169.35" x2="554.82" y2="578.03" xlink:href="#linear-gradient"/><linearGradient id="linear-gradient-3" x1="279.66" y1="112.23" x2="279.66" y2="284.39" xlink:href="#linear-gradient"/><linearGradient id="linear-gradient-4" x1="325.8" y1="326.88" x2="325.8" y2="499.04" xlink:href="#linear-gradient"/></defs><path class="cls-1" d="M50.65,33.07c-11.13,0-20.17,6.78-20.17,15.14V426.62c0,8.36,9,15.14,20.17,15.14S70.81,435,70.81,426.62V48.21C70.81,39.85,61.78,33.07,50.65,33.07Z"/><path class="cls-2" d="M554.82,169.35c-11.13,0-20.17,6.78-20.17,15.13V562.9c0,8.35,9,15.13,20.17,15.13S575,571.25,575,562.9V184.48C575,176.13,566,169.35,554.82,169.35Z"/><path class="cls-3" d="M228.2,218.49H375L343.6,250a20.17,20.17,0,1,0,28.52,28.53L438,212.6a20.13,20.13,0,0,0,2.52-3.09c.33-.48.55-1,.83-1.53s.72-1.25,1-1.94a17.79,17.79,0,0,0,.62-2c.16-.58.4-1.13.51-1.73a20.25,20.25,0,0,0,0-7.91c-.12-.6-.35-1.15-.51-1.73s-.36-1.38-.62-2-.67-1.29-1-1.94c-.28-.5-.5-1.05-.83-1.53A20.35,20.35,0,0,0,438,184l-65.84-65.88a20.17,20.17,0,0,0-28.52,28.53L375,178.14H195.17c-63.16-.1-99.86,80.79-68,91.57C150.44,277.57,149.32,216.66,228.2,218.49Z"/><path class="cls-4" d="M377.26,392.78H230.42l31.44-31.46a20.17,20.17,0,1,0-28.51-28.53L167.5,398.67a21.38,21.38,0,0,0-2.52,3.09c-.32.48-.54,1-.82,1.53a19.81,19.81,0,0,0-1,1.94,17.83,17.83,0,0,0-.63,2A17.12,17.12,0,0,0,162,409a19.87,19.87,0,0,0,0,7.91c.12.61.34,1.15.5,1.74s.37,1.37.63,2a19.65,19.65,0,0,0,1,1.93c.28.51.5,1.05.82,1.54a21.42,21.42,0,0,0,2.52,3.08l65.85,65.88a20.17,20.17,0,1,0,28.51-28.53l-31.44-31.46H410.29c63.17.11,99.87-80.79,68-91.57C455,333.71,456.15,394.61,377.26,392.78Z"/></svg>