<svg id="Layer_1" data-name="Layer 1" xmlns="http://www.w3.org/2000/svg" xmlns:xlink="http://www.w3.org/1999/xlink" viewBox="0 0 612 612"><defs><style>.cls-1,.cls-2,.cls-3{stroke:#232323;stroke-miterlimit:10;stroke-width:1.8px;}.cls-1{fill:url(#linear-gradient);}.cls-2{fill:url(#linear-gradient-2);}.cls-3{fill:url(#linear-gradient-3);}</style><linearGradient id="linear-gradient" x1="114.57" y1="31.7" x2="114.57" y2="580.3" gradientUnits="userSpaceOnUse"><stop offset="0" stop-color="#fafafa"/><stop offset="1" stop-color="#ebebeb"/></linearGradient><linearGradient id="linear-gradient-2" x1="497.43" y1="31.7" x2="497.43" y2="580.3" xlink:href="#linear-gradient"/><linearGradient id="linear-gradient-3" x1="306" y1="163.8" x2="306" y2="448.2" xlink:href="#linear-gradient"/></defs><path class="cls-1" d="M177.26,31.7H102.71a71.21,71.21,0,0,0-71.15,71.12V509.18a71.21,71.21,0,0,0,71.15,71.12h74.55a20.32,20.32,0,1,0,0-40.64H102.71a30.52,30.52,0,0,1-30.49-30.48V102.82a30.53,30.53,0,0,1,30.49-30.48h74.55a20.32,20.32,0,1,0,0-40.64Z"/><path class="cls-2" d="M509.29,31.7H434.74a20.32,20.32,0,1,0,0,40.64h74.55a30.52,30.52,0,0,1,30.49,30.48V509.18a30.52,30.52,0,0,1-30.49,30.48H434.74a20.32,20.32,0,1,0,0,40.64h74.55a71.21,71.21,0,0,0,71.15-71.12V102.82A71.21,71.21,0,0,0,509.29,31.7Z"/><path class="cls-3" d="M449,308V193.4a29.69,29.69,0,0,0-29.6-29.6H194.2a29.68,29.68,0,0,0-29.59,29.6V306.9L123,367v60.28a20.93,20.93,0,0,0,20.86,20.88H468.11A21,21,0,0,0,489,427.32V368.86Zm-81.8-97.33a7.54,7.54,0,0,1,7.51-7.52h26.4a7.54,7.54,0,0,1,7.5,7.52V237a7.53,7.53,0,0,1-7.5,7.49H374.7a7.53,7.53,0,0,1-7.51-7.49Zm-60.62,13a41.7,41.7,0,1,1-41.7,41.7A41.69,41.69,0,0,1,306.57,223.65ZM426.31,416.93c-1.92,3.12-4.57,5.05-7.49,5.05H195.22c-5.83,0-10.59-7.76-10.59-17.24a23.48,23.48,0,0,1,3.11-12.15c1.92-3.13,4.58-5.06,7.48-5.06h223.6c5.83,0,10.6,7.74,10.6,17.21A23.61,23.61,0,0,1,426.31,416.93Z"/></svg>