<svg id="Layer_1" data-name="Layer 1" xmlns="http://www.w3.org/2000/svg" xmlns:xlink="http://www.w3.org/1999/xlink" viewBox="0 0 612 612"><defs><style>.cls-1{stroke:#232323;stroke-miterlimit:10;fill:url(#linear-gradient);}</style><linearGradient id="linear-gradient" x1="306" y1="106.05" x2="306" y2="505.95" gradientUnits="userSpaceOnUse"><stop offset="0" stop-color="#fff"/><stop offset="0.6" stop-color="#e2e2e2"/><stop offset="1" stop-color="#ccc"/></linearGradient></defs><path id="SecondaryCapture" class="cls-1" d="M418.92,212.9a159.6,159.6,0,0,0-225.84,0l-82.59,82.63a14.81,14.81,0,0,0,0,20.94l82.59,82.63a159.8,159.8,0,0,0,225.84,0l82.59-82.63a14.8,14.8,0,0,0,0-20.94ZM398,378.16a130.21,130.21,0,0,1-184,0L141.89,306,214,233.84a130.05,130.05,0,0,1,184,0L470.11,306ZM306,241.29A64.71,64.71,0,1,0,370.68,306,64.77,64.77,0,0,0,306,241.29Zm0,99.8A35.09,35.09,0,1,1,341.07,306,35.13,35.13,0,0,1,306,341.09ZM491,385a14.81,14.81,0,0,0-14.8,14.81v54.31A22.24,22.24,0,0,1,454,476.33H158a22.24,22.24,0,0,1-22.21-22.22V399.8a14.81,14.81,0,1,0-29.61,0v54.31A51.89,51.89,0,0,0,158,506H454a51.89,51.89,0,0,0,51.82-51.84V399.8A14.82,14.82,0,0,0,491,385ZM454,106.05H158a51.89,51.89,0,0,0-51.82,51.84V212.2a14.81,14.81,0,1,0,29.61,0V157.89A22.24,22.24,0,0,1,158,135.67H454a22.24,22.24,0,0,1,22.21,22.22V212.2a14.81,14.81,0,1,0,29.61,0V157.89A51.89,51.89,0,0,0,454,106.05Z"/></svg>