<svg id="Layer_1" data-name="Layer 1" xmlns="http://www.w3.org/2000/svg" xmlns:xlink="http://www.w3.org/1999/xlink" viewBox="0 0 612 612"><defs><style>.cls-1,.cls-2{stroke:#232323;stroke-miterlimit:10;}.cls-1{opacity:0.6;isolation:isolate;fill:url(#linear-gradient);}.cls-2{fill:url(#linear-gradient-2);}</style><linearGradient id="linear-gradient" x1="306" y1="106.05" x2="306" y2="505.95" gradientUnits="userSpaceOnUse"><stop offset="0" stop-color="#fff"/><stop offset="0.6" stop-color="#e2e2e2"/><stop offset="1" stop-color="#ccc"/></linearGradient><linearGradient id="linear-gradient-2" y1="178.88" y2="433.13" xlink:href="#linear-gradient"/></defs><g id="SelectTemplateBox"><path class="cls-1" d="M491,420.79a14.81,14.81,0,0,0-14.8,14.81v40.73H435.53a14.81,14.81,0,1,0,0,29.62H491a14.82,14.82,0,0,0,14.81-14.81V435.6A14.82,14.82,0,0,0,491,420.79ZM349.17,476.33H262.82a14.81,14.81,0,0,0,0,29.62h86.35a14.81,14.81,0,0,0,0-29.62Zm-172.7,0H135.76V435.6a14.81,14.81,0,1,0-29.61,0v55.54A14.82,14.82,0,0,0,121,506h55.51a14.81,14.81,0,0,0,0-29.62ZM121,364a14.81,14.81,0,0,0,14.8-14.81V262.8a14.81,14.81,0,1,0-29.61,0v86.39A14.81,14.81,0,0,0,121,364Zm55.51-257.95H121a14.82,14.82,0,0,0-14.81,14.81V176.4a14.81,14.81,0,1,0,29.61,0V135.67h40.71a14.81,14.81,0,0,0,0-29.62Zm172.7,0H262.82a14.81,14.81,0,0,0,0,29.62h86.35a14.81,14.81,0,0,0,0-29.62Zm141.87,0H435.53a14.81,14.81,0,1,0,0,29.62h40.71V176.4a14.81,14.81,0,1,0,29.61,0V120.86A14.83,14.83,0,0,0,491,106.05ZM491,248a14.82,14.82,0,0,0-14.8,14.82v86.39a14.81,14.81,0,1,0,29.61,0V262.8A14.83,14.83,0,0,0,491,248Z"/><path class="cls-2" d="M418.25,178.88H193.75a14.82,14.82,0,0,0-14.81,14.81v80.2a14.82,14.82,0,0,0,14.81,14.81h224.5a14.82,14.82,0,0,0,14.81-14.81v-80.2A14.8,14.8,0,0,0,418.25,178.88Zm-14.8,80.2H208.55V208.5h194.9Zm14.8,64.22H193.75a14.82,14.82,0,0,0-14.81,14.81v80.2a14.82,14.82,0,0,0,14.81,14.82h224.5a14.82,14.82,0,0,0,14.81-14.82v-80.2A14.8,14.8,0,0,0,418.25,323.3Zm-14.8,80.2H208.55V352.92h194.9Z"/></g></svg>