<svg id="Layer_1" data-name="Layer 1" xmlns="http://www.w3.org/2000/svg" xmlns:xlink="http://www.w3.org/1999/xlink" viewBox="0 0 612 612"><defs><style>.cls-1,.cls-2{stroke:#232323;stroke-miterlimit:10;stroke-width:1.81px;}.cls-1{fill:url(#linear-gradient);}.cls-2{fill:url(#linear-gradient-2);}</style><linearGradient id="linear-gradient" x1="306" y1="131.02" x2="306" y2="480.98" gradientUnits="userSpaceOnUse"><stop offset="0" stop-color="#fafafa"/><stop offset="1" stop-color="#ebebeb"/></linearGradient><linearGradient id="linear-gradient-2" x1="306" y1="29.86" x2="306" y2="582.14" xlink:href="#linear-gradient"/></defs><path class="cls-1" d="M460.51,131h-309a20.39,20.39,0,0,0-20.38,20.38V261.8a20.4,20.4,0,0,0,20.38,20.39h309a20.39,20.39,0,0,0,20.38-20.39V151.4A20.36,20.36,0,0,0,460.51,131ZM440.14,241.41H171.86V171.79H440.14Zm20.37,88.4h-309a20.39,20.39,0,0,0-20.38,20.39V460.59A20.39,20.39,0,0,0,151.49,481h309a20.39,20.39,0,0,0,20.38-20.39V350.2A20.38,20.38,0,0,0,460.51,329.81ZM440.14,440.2H171.86V370.59H440.14Z"/><path class="cls-2" d="M510.44,582.14H101.56A71.65,71.65,0,0,1,30,510.55V101.45a71.65,71.65,0,0,1,71.56-71.59H510.44A71.65,71.65,0,0,1,582,101.45v409.1A71.65,71.65,0,0,1,510.44,582.14Zm-409-524.29c-16.91,0-43.33,25.09-43.33,42V522.68c0,16.91,15.41,37.32,32.32,37.32H512.55c16.91,0,44.53-29.31,43.08-47.29L556,96.82c0-16.92-23.47-39-40.38-39Z"/></svg>