<svg id="Layer_1" data-name="Layer 1" xmlns="http://www.w3.org/2000/svg" xmlns:xlink="http://www.w3.org/1999/xlink" viewBox="0 0 612 612"><defs><style>.cls-1{stroke:#232323;stroke-miterlimit:10;fill:url(#linear-gradient);}</style><linearGradient id="linear-gradient" x1="306" y1="106.05" x2="306" y2="505.95" gradientUnits="userSpaceOnUse"><stop offset="0" stop-color="#fff"/><stop offset="0.6" stop-color="#e2e2e2"/><stop offset="1" stop-color="#ccc"/></linearGradient></defs><path id="SeriesLayout" class="cls-1" d="M270.84,106.05H121a14.82,14.82,0,0,0-14.81,14.81v150A14.82,14.82,0,0,0,121,285.63H270.84a14.82,14.82,0,0,0,14.81-14.81v-150A14.83,14.83,0,0,0,270.84,106.05ZM256,256H135.76V135.67H256Zm14.8,70.35H121a14.82,14.82,0,0,0-14.81,14.82v150A14.82,14.82,0,0,0,121,506H270.84a14.82,14.82,0,0,0,14.81-14.81v-150A14.83,14.83,0,0,0,270.84,326.36Zm-14.8,150H135.76V356H256ZM491,106.05H341.16a14.82,14.82,0,0,0-14.81,14.81v150a14.82,14.82,0,0,0,14.81,14.81H491a14.82,14.82,0,0,0,14.81-14.81v-150A14.83,14.83,0,0,0,491,106.05Zm-14.8,150H356V135.67H476.24ZM491,326.36H341.16a14.82,14.82,0,0,0-14.81,14.82v150A14.82,14.82,0,0,0,341.16,506H491a14.82,14.82,0,0,0,14.81-14.81v-150A14.83,14.83,0,0,0,491,326.36Zm-14.8,150H356V356H476.24Z"/></svg>