<svg id="Layer_1" data-name="Layer 1" xmlns="http://www.w3.org/2000/svg" xmlns:xlink="http://www.w3.org/1999/xlink" viewBox="0 0 612 612"><defs><style>.cls-1,.cls-2{stroke:#232323;stroke-miterlimit:10;}.cls-1{opacity:0.6;isolation:isolate;fill:url(#linear-gradient);}.cls-2{fill:url(#linear-gradient-2);}</style><linearGradient id="linear-gradient" x1="305.98" y1="154.58" x2="305.98" y2="454.61" gradientUnits="userSpaceOnUse"><stop offset="0" stop-color="#fff"/><stop offset="0.6" stop-color="#e2e2e2"/><stop offset="1" stop-color="#ccc"/></linearGradient><linearGradient id="linear-gradient-2" x1="306" y1="106.04" x2="306" y2="505.96" xlink:href="#linear-gradient"/></defs><g id="Settings3D"><path class="cls-1" d="M389,172.48a7.26,7.26,0,0,0,3.06-.67l6.74-3.08a7.4,7.4,0,1,0-6.15-13.46l-6.73,3.08A7.4,7.4,0,0,0,389,172.48ZM250.6,220.12l-12.3,5.62a7.41,7.41,0,0,0,3.08,14.14,7.53,7.53,0,0,0,3.06-.66l12.3-5.62a7.41,7.41,0,0,0-6.14-13.48Zm101.46-30.79a7.56,7.56,0,0,0,3.06-.66l12.3-5.62a7.4,7.4,0,1,0-6.14-13.46L349,175.2a7.4,7.4,0,0,0,3.08,14.13ZM213.71,237,207,240.06a7.41,7.41,0,0,0-4.32,6.74v7.41a7.4,7.4,0,0,0,14.8,0v-2.64l2.4-1.1A7.41,7.41,0,0,0,213.71,237ZM210,313.06a7.4,7.4,0,0,0-7.4,7.41v13.27a6.83,6.83,0,0,0,.37,1.85l-5-2.28a7.4,7.4,0,0,0-6.17,13.46L205.31,353a6.68,6.68,0,0,0,2.05.45,7.34,7.34,0,0,0-4.71,6.85v13.26a7.4,7.4,0,1,0,14.8,0V360.25a7.32,7.32,0,0,0-6.36-7.2,7.2,7.2,0,0,0,4-3.74,7.29,7.29,0,0,0-2.19-8.76,7.39,7.39,0,0,0,4.5-6.81V320.47A7.41,7.41,0,0,0,210,313.06Zm0-39.76a7.4,7.4,0,0,0-7.4,7.4V294a7.4,7.4,0,0,0,14.8,0V280.7A7.39,7.39,0,0,0,210,273.3Zm0,119.33a7.4,7.4,0,0,0-7.4,7.4v13.26a7.4,7.4,0,1,0,14.8,0V400A7.38,7.38,0,0,0,210,392.63Zm0,39.77a7.4,7.4,0,0,0-7.4,7.4v7.41a7.4,7.4,0,0,0,14.8,0V439.8A7.4,7.4,0,0,0,210,432.4Zm9.81-274.07-6.73-3.08A7.4,7.4,0,0,0,207,168.72l6.74,3.08a7.4,7.4,0,0,0,6.14-13.47Zm36.89,16.86-12.3-5.62A7.4,7.4,0,0,0,238.3,183l12.3,5.61a7.26,7.26,0,0,0,3.06.67,7.4,7.4,0,0,0,3.08-14.13Zm107.61,64.69a7.4,7.4,0,0,0,3.07-14.14l-12.3-5.61A7.4,7.4,0,1,0,349,233.6l12.3,5.62A7.54,7.54,0,0,0,364.35,239.88ZM293.63,192l-12.3-5.62a7.4,7.4,0,0,0-6.14,13.47l9.84,4.49-9.84,4.5a7.4,7.4,0,1,0,6.15,13.47l12.31-5.61a7.41,7.41,0,0,0,3.65-9.82,7.3,7.3,0,0,0-2-2.55,7.22,7.22,0,0,0,2-2.53A7.42,7.42,0,0,0,293.63,192Zm18.45,24.72,12.3,5.61a7.26,7.26,0,0,0,3.06.67,7.41,7.41,0,0,0,3.08-14.15l-9.85-4.5,9.85-4.5a7.41,7.41,0,0,0-6.15-13.48L312.07,192a7.4,7.4,0,0,0-3.65,9.81,7.24,7.24,0,0,0,2,2.52,7.13,7.13,0,0,0-2,2.55A7.44,7.44,0,0,0,312.08,216.75Zm76.19,37.44a7.4,7.4,0,1,0,14.8,0v-7.4a7.4,7.4,0,0,0-4.32-6.74L392,237a7.4,7.4,0,1,0-6.14,13.46l2.41,1.1v2.66Zm7.4,138.44a7.4,7.4,0,0,0-7.4,7.4v13.26a7.4,7.4,0,1,0,14.8,0V400A7.38,7.38,0,0,0,395.67,392.63Zm0-119.33a7.4,7.4,0,0,0-7.4,7.4V294a7.4,7.4,0,0,0,14.8,0V280.7A7.39,7.39,0,0,0,395.67,273.3Zm0,159.1a7.4,7.4,0,0,0-7.4,7.4v7.41a7.4,7.4,0,1,0,14.8,0V439.8A7.4,7.4,0,0,0,395.67,432.4Zm-264.88-130L124,299.28a7.4,7.4,0,0,0-6.17,13.46l6.76,3.11a7.4,7.4,0,1,0,6.17-13.46Zm40.36,18.55-13.46-6.19a7.4,7.4,0,0,0-6.19,13.45L165,334.39a7.4,7.4,0,1,0,6.19-13.45Zm195.64,33.79-13.47,6.16A7.4,7.4,0,0,0,356.4,375a7.65,7.65,0,0,0,3.07-.66L373,368.21a7.41,7.41,0,0,0-6.16-13.48Zm40.38-18.49-6.85,3.14a7.31,7.31,0,0,0,2.77-5.64V320.47a7.41,7.41,0,1,0-14.81,0v13.27a7.41,7.41,0,0,0,7.4,7.41,7.2,7.2,0,0,0,1.41-.29l-3.36,1.54a7.43,7.43,0,0,0-3.65,9.82,7.52,7.52,0,0,0,1.46,2.06,7.27,7.27,0,0,0-3.26,6v13.26a7.41,7.41,0,0,0,14.81,0V360.25a7.28,7.28,0,0,0-2-4.94l12.23-5.6a7.41,7.41,0,1,0-6.18-13.47Zm40.39-18.48-13.46,6.16a7.41,7.41,0,0,0,3.08,14.15,7.74,7.74,0,0,0,3.08-.67l13.45-6.16a7.41,7.41,0,0,0-6.15-13.48Zm50.18-14.84a7.39,7.39,0,0,0-9.81-3.66l-13.46,6.16a7.41,7.41,0,0,0,3.08,14.15,7.74,7.74,0,0,0,3.08-.67l13.45-6.16A7.41,7.41,0,0,0,497.74,302.92ZM292.21,376.6l-13.46-6.19a7.4,7.4,0,0,0-6.18,13.45L286,390.05a7.4,7.4,0,1,0,6.19-13.45Zm-40.35-18.55-13.46-6.18a7.4,7.4,0,0,0-6.17,13.46l13.45,6.18a7.41,7.41,0,1,0,6.18-13.46Zm74.54,15.18-13.47,6.16A7.41,7.41,0,0,0,316,393.53a7.73,7.73,0,0,0,3.08-.66l13.47-6.17a7.41,7.41,0,1,0-6.16-13.47Z"/><path class="cls-2" d="M505.24,201.8c-.11-.41-.32-.78-.47-1.2a15.39,15.39,0,0,0-1.1-2.41c-.26-.43-.58-.82-.87-1.23a17.14,17.14,0,0,0-1.57-1.84,12.31,12.31,0,0,0-1.24-1,10.56,10.56,0,0,0-1-.8c-.34-.23-.72-.33-1.06-.52s-.47-.36-.75-.49L312.53,107.4a14.75,14.75,0,0,0-12.33,0l-185.42,84.9c-.28.13-.5.35-.77.5a8.47,8.47,0,0,0-1.05.51,10.38,10.38,0,0,0-.95.78,16.3,16.3,0,0,0-1.26,1.05,14.69,14.69,0,0,0-1.55,1.81,13.06,13.06,0,0,0-.91,1.26,15,15,0,0,0-1.08,2.37,10.8,10.8,0,0,0-.48,1.23,15.29,15.29,0,0,0-.57,3.83s0,.08,0,.12v0h0V406.25a14.82,14.82,0,0,0,8.63,13.47l184.65,84.9a10.88,10.88,0,0,0,1.4.45c.37.12.71.27,1.08.36a15.11,15.11,0,0,0,3.71.53,14.78,14.78,0,0,0,3.72-.53c.37-.11.72-.24,1.09-.37s.92-.25,1.35-.44l185.43-84.9a14.8,14.8,0,0,0,8.64-13.46V205.76A15.88,15.88,0,0,0,505.24,201.8ZM306.35,137.15l149.13,68.56L305.19,274.36,156.42,205.8ZM135.74,396.75V228.88l23.37,10.77,131.26,60.48.34,155.09,0,12.77Zm340.47,0L320.35,468.09,320,300.16l125-57.09,31.25-14.28Z"/></g></svg>