<svg id="Layer_1" data-name="Layer 1" xmlns="http://www.w3.org/2000/svg" xmlns:xlink="http://www.w3.org/1999/xlink" viewBox="0 0 612 612"><defs><style>.cls-1{stroke:#232323;stroke-miterlimit:10;fill:url(#linear-gradient);}</style><linearGradient id="linear-gradient" x1="306" y1="106.05" x2="306" y2="505.95" gradientUnits="userSpaceOnUse"><stop offset="0" stop-color="#fff"/><stop offset="0.6" stop-color="#e2e2e2"/><stop offset="1" stop-color="#ccc"/></linearGradient></defs><path id="ShowDicom" class="cls-1" d="M294.36,506H121a14.82,14.82,0,0,1-14.81-14.81V120.86A14.82,14.82,0,0,1,121,106.05H294.36c122.54,0,211.48,83.65,211.48,198.9V306C505.85,421.85,416.91,506,294.36,506ZM135.77,476.33H294.36c105.38,0,181.87-71.63,181.87-170.33V305c0-98.08-76.48-169.28-181.87-169.28H135.77Zm158.59-43.9h-92a14.81,14.81,0,0,1-14.8-14.81V194.38a14.81,14.81,0,0,1,14.8-14.81h92c74.41,0,126.37,52,126.37,126.43v1.05C420.73,380.87,368.77,432.43,294.36,432.43Zm-77.19-29.62h77.19c57.88,0,96.77-38.48,96.77-95.76V306c0-57.9-38.89-96.8-96.77-96.8H217.17V402.81Z"/></svg>