<?xml version="1.0" encoding="iso-8859-1"?>
<!-- Generator: Adobe Illustrator 21.1.0, SVG Export Plug-In . SVG Version: 6.00 Build 0)  -->
<svg version="1.1" xmlns="http://www.w3.org/2000/svg" xmlns:xlink="http://www.w3.org/1999/xlink" x="0px" y="0px"
	 viewBox="0 0 50 50" style="enable-background:new 0 0 50 50;" xml:space="preserve">
<g id="ShowFirstLast">
	<path style="fill:#5280DF;" d="M25,50C11.215,50,0,38.785,0,25C0,11.215,11.215,0,25,0c13.785,0,25,11.215,25,25
		C50,38.785,38.785,50,25,50z M25,1.905C12.265,1.905,1.905,12.265,1.905,25S12.265,48.095,25,48.095S48.095,37.735,48.095,25
		S37.735,1.905,25,1.905z"/>
	<path style="fill:#5280DF;" d="M32.56,33.512H17.44c-0.526,0-0.952-0.426-0.952-0.952V17.44c0-0.526,0.426-0.952,0.952-0.952H32.56
		c0.526,0,0.952,0.426,0.952,0.952V32.56C33.512,33.085,33.085,33.512,32.56,33.512z M18.393,31.607h13.214V18.393H18.393V31.607z"
		/>
	<path style="fill:#5280DF;" d="M36.905,19.206c-0.526,0-0.952-0.426-0.952-0.952v-4.206h-4.206c-0.526,0-0.952-0.426-0.952-0.952
		c0-0.526,0.426-0.952,0.952-0.952h5.159c0.526,0,0.952,0.426,0.952,0.952v5.159C37.857,18.78,37.431,19.206,36.905,19.206z"/>
	<path style="fill:#5280DF;" d="M18.254,37.857h-5.159c-0.526,0-0.952-0.426-0.952-0.952v-5.159c0-0.526,0.426-0.952,0.952-0.952
		c0.526,0,0.952,0.426,0.952,0.952v4.206h4.206c0.526,0,0.952,0.426,0.952,0.952S18.78,37.857,18.254,37.857z"/>
</g>
<g id="Layer_1">
</g>
</svg>
