<svg id="Layer_1" data-name="Layer 1" xmlns="http://www.w3.org/2000/svg" xmlns:xlink="http://www.w3.org/1999/xlink" viewBox="0 0 612 612"><defs><style>.cls-1{stroke:#232323;stroke-miterlimit:10;fill:url(#linear-gradient);}</style><linearGradient id="linear-gradient" x1="306" y1="106.05" x2="306" y2="505.95" gradientUnits="userSpaceOnUse"><stop offset="0" stop-color="#fff"/><stop offset="0.6" stop-color="#e2e2e2"/><stop offset="1" stop-color="#ccc"/></linearGradient></defs><path id="ShowHide" class="cls-1" d="M419.45,213.43l82.06-82.1a14.8,14.8,0,0,0-20.93-20.94l-143,143.05-.22.18L304.5,286.56l-194,194.11a14.8,14.8,0,1,0,20.93,20.94l83.91-83.95A158.75,158.75,0,0,0,418.9,399.1l82.59-82.63a14.8,14.8,0,0,0,0-20.94ZM398,378.16a129.36,129.36,0,0,1-161.24,18.07l28.42-28.44A74.07,74.07,0,0,0,367.76,265.15l30.76-30.77L470.11,306Zm-225.52.34a14.81,14.81,0,0,0,20.94-20.94L141.89,306,214,233.86A129.93,129.93,0,0,1,354.23,205a14.81,14.81,0,0,0,11-27.52,159.54,159.54,0,0,0-172.11,35.46l-82.59,82.63a14.81,14.81,0,0,0,0,20.94ZM232,303.69A14.81,14.81,0,0,0,246.36,319h.46a14.82,14.82,0,0,0,14.79-14.35,44.46,44.46,0,0,1,43-43,14.81,14.81,0,1,0-.92-29.6A74.14,74.14,0,0,0,232,303.69Z"/></svg>