<svg id="Layer_1" data-name="Layer 1" xmlns="http://www.w3.org/2000/svg" xmlns:xlink="http://www.w3.org/1999/xlink" viewBox="0 0 612 612"><defs><style>.cls-1{stroke:#232323;stroke-miterlimit:10;fill:url(#linear-gradient);}</style><linearGradient id="linear-gradient" x1="306" y1="106.05" x2="306" y2="505.95" gradientUnits="userSpaceOnUse"><stop offset="0" stop-color="#fff"/><stop offset="0.6" stop-color="#e2e2e2"/><stop offset="1" stop-color="#ccc"/></linearGradient></defs><path id="ShowFirstLast" class="cls-1" d="M423.49,173.62h-235a14.81,14.81,0,0,0-14.8,14.81V423.56a14.81,14.81,0,0,0,14.8,14.81h235a14.82,14.82,0,0,0,14.81-14.81V188.43A14.8,14.8,0,0,0,423.49,173.62Zm-14.8,235.12H203.29V203.24h205.4ZM491,106.05H410.85a14.81,14.81,0,0,0,0,29.62h65.39v65.42a14.81,14.81,0,1,0,29.61,0V120.86A14.83,14.83,0,0,0,491,106.05ZM201.15,476.33H135.76V410.91a14.81,14.81,0,1,0-29.61,0v80.23A14.82,14.82,0,0,0,121,506h80.19a14.81,14.81,0,0,0,0-29.62Z"/></svg>