<svg id="Layer_1" data-name="Layer 1" xmlns="http://www.w3.org/2000/svg" xmlns:xlink="http://www.w3.org/1999/xlink" viewBox="0 0 612 612"><defs><style>.cls-1{stroke:#232323;stroke-miterlimit:10;fill:url(#linear-gradient);}</style><linearGradient id="linear-gradient" x1="306" y1="113.48" x2="306" y2="498.52" gradientUnits="userSpaceOnUse"><stop offset="0" stop-color="#fff"/><stop offset="0.6" stop-color="#e2e2e2"/><stop offset="1" stop-color="#ccc"/></linearGradient></defs><path id="ShutterObject" class="cls-1" d="M498.4,213.16c0-.2-.06-.4-.08-.62a7.35,7.35,0,0,0-.55-2c-.06-.13,0-.27-.11-.38s-.11-.12-.14-.2a7.15,7.15,0,0,0-1.6-2,3.83,3.83,0,0,0-.39-.27,8,8,0,0,0-1.18-.82L370.56,144.9h0L309.3,114.26c-.07,0-.14,0-.22-.06a4.19,4.19,0,0,0-.49-.2,7.18,7.18,0,0,0-1.24-.26,6.3,6.3,0,0,0-1.12-.21c-.08,0-.15,0-.23,0s-.14,0-.22,0a6.3,6.3,0,0,0-1.12.21,6,6,0,0,0-1.26.28l-.49.19c-.07,0-.15,0-.22.06l-61.26,30.64h0l-123.78,61.9a8,8,0,0,0-1.17.8,2.86,2.86,0,0,0-.4.28,7.64,7.64,0,0,0-1.59,2c0,.07-.12.12-.14.19s0,.27-.11.39a7.44,7.44,0,0,0-.55,2,5.82,5.82,0,0,0-.08.62c0,.09,0,.18,0,.26V398.55a1.28,1.28,0,0,0,0,.27,4.58,4.58,0,0,0,.08.62,7.16,7.16,0,0,0,.55,2c.06.13.05.27.11.4a1.31,1.31,0,0,0,.19.27,8.4,8.4,0,0,0,.62.89,9.33,9.33,0,0,0,.64.77,16,16,0,0,0,1.62,1.21,1.64,1.64,0,0,0,.26.16l185,92.57c.06,0,.13,0,.2.05a5.59,5.59,0,0,0,.57.22,7.2,7.2,0,0,0,2.51.51h0a7.16,7.16,0,0,0,2.51-.51,5.25,5.25,0,0,0,.55-.22c.07,0,.13,0,.21-.05l185-92.56c.09-.05.16-.12.25-.18a6.31,6.31,0,0,0,.86-.6,6.53,6.53,0,0,0,.77-.62,7.25,7.25,0,0,0,.62-.75,10.18,10.18,0,0,0,.62-.89c.06-.11.14-.18.19-.28s0-.27.11-.4a7,7,0,0,0,.54-2c0-.21.08-.41.09-.62s0-.18,0-.27V213.4C498.45,213.34,498.42,213.27,498.4,213.16ZM298.6,294l-37.73-18.88,37.73-18.88Zm14.81-37.75,37.73,18.87L313.41,294Zm-24,49.73-37.74,18.88V287.13Zm9.14,12v37.73l-37.72-18.87Zm14.81.39L350.81,337l-37.4,18.71Zm8.76-12.18,38.12-19.08V325.2Zm.39-61.92,37.73-18.87v37.74Zm-70.84,18.87V225.41l37.74,18.87Zm-14.8,61.71L199.2,306l37.72-18.87Zm52.54,42.84L251.72,386.6V348.85Zm70.83-18.87V386.6l-37.73-18.88Zm14.8-61.72L412.81,306l-37.72,18.87V287.13Zm9.15-12L422,256.29V294Zm-9.15-12V225.41l37.75,18.89Zm-61.68-30.87V194.56l37.73,18.87Zm-14.81,0-37.73-18.88,37.73-18.88Zm-61.68,30.87L199.19,244.3l37.73-18.89v37.77Zm-9.15,12L190.07,294V256.29Zm0,61.71-37.74,18.87V318Zm9.13,12V386.6L199.2,367.73ZM298.6,379.7v37.75l-37.73-18.86Zm14.81,0,37.73,18.89-37.73,18.88Zm61.68-30.59,37.56,18.71L375.09,386.6ZM384,337l38-19v37.91Zm52.79-80.72,37.72,18.87L436.76,294Zm-52.5-42.85,37.89-19,.62,38.23Zm-61.7-30.85,37.73-18.87v37.74Zm-70.84,18.87V163.69l37.74,18.87ZM190.05,232.3V194.58l37.71,18.87ZM175.25,294l-37.74-18.88,37.74-18.88Zm-9.15,12L128.37,324.9V287.14Zm9.15,12v37.75l-37.74-18.88Zm52.52,80.58-37.72,18.87V379.72Zm61.69,30.86-37.74,18.87V410.55Zm70.83-18.87v37.75l-37.73-18.87ZM422,379.72v37.73l-37.72-18.87ZM436.76,318l37.72,18.87-37.72,18.86Zm9.15-12,37.74-18.87V324.9Zm0-61.71,37.74-18.87v37.74Zm-8.33-12.38L437,194.67l37.53,18.76Zm-62.49-30.46V163.71l37.72,18.87Zm-61.68-30.88V132.86l37.7,18.87Zm-14.81,0-37.72-18.87,37.72-18.87Zm-61.68,30.85L199.2,182.58l37.72-18.87Zm-61.67,30.86-37.74-18.88,37.74-18.87Zm-9.17,12-37.71,18.87V225.43ZM128.37,348.86l37.73,18.87L128.37,386.6Zm46.88,30.86v37.75L137.51,398.6Zm61.67,30.85v37.74L199.2,429.44Zm61.68,30.86v37.74L260.88,460.3Zm14.81,0,37.72,18.87-37.72,18.86Zm61.68-30.85,37.72,18.87-37.72,18.87V410.57Zm61.67-30.74,37.69,18.77-37.69,18.85Zm9.05-12.05,37.84-18.93v37.77Z"/></svg>