<svg id="Layer_1" data-name="Layer 1" xmlns="http://www.w3.org/2000/svg" xmlns:xlink="http://www.w3.org/1999/xlink" viewBox="0 0 612 612"><defs><style>.cls-1,.cls-2{stroke:#232323;stroke-miterlimit:10;}.cls-1{opacity:0.6;isolation:isolate;fill:url(#linear-gradient);}.cls-2{fill:url(#linear-gradient-2);}</style><linearGradient id="linear-gradient" x1="306.46" y1="105.59" x2="306.46" y2="505.49" gradientUnits="userSpaceOnUse"><stop offset="0" stop-color="#fff"/><stop offset="0.6" stop-color="#e2e2e2"/><stop offset="1" stop-color="#ccc"/></linearGradient><linearGradient id="linear-gradient-2" x1="183.1" y1="351.52" x2="183.1" y2="506.41" xlink:href="#linear-gradient"/></defs><g id="SnapToGrid"><path class="cls-1" d="M491.5,105.59H121.42a14.82,14.82,0,0,0-14.81,14.81V490.68a14.82,14.82,0,0,0,14.81,14.81H491.5a14.81,14.81,0,0,0,14.8-14.81V120.4A14.81,14.81,0,0,0,491.5,105.59ZM476.7,352.43H383v-93.8H476.7v93.8Zm0-123.42H383v-93.8H476.7V229Zm-123.37,0H259.58v-93.8h93.75ZM230,135.21V229H136.22v-93.8ZM136.22,382.06h45.95a14.82,14.82,0,0,0,0-29.63H136.22v-93.8H230v46a14.81,14.81,0,1,0,29.61,0v-46h93.75v93.8H307.38a14.82,14.82,0,0,0,0,29.63h45.95v93.79H259.58v-46a14.81,14.81,0,1,0-29.61,0v46H136.22V382.06Zm246.71,93.81v-93.8h93.75v93.8Z"/><path class="cls-2" d="M183.1,351.52A77.45,77.45,0,1,0,260.51,429,77.51,77.51,0,0,0,183.1,351.52Zm0,125.28A47.83,47.83,0,1,1,230.9,429,47.87,47.87,0,0,1,183.1,476.8Zm0-70.05A22.22,22.22,0,1,0,205.31,429,22.22,22.22,0,0,0,183.1,406.75Z"/></g></svg>