<?xml version="1.0" encoding="iso-8859-1"?>
<!-- Generator: Adobe Illustrator 21.1.0, SVG Export Plug-In . SVG Version: 6.00 Build 0)  -->
<svg version="1.1" xmlns="http://www.w3.org/2000/svg" xmlns:xlink="http://www.w3.org/1999/xlink" x="0px" y="0px"
	 viewBox="0 0 50 50" style="enable-background:new 0 0 50 50;" xml:space="preserve">
<g id="SnapToGrid">
	<path style="fill:#5280DF;" d="M25,50C11.215,50,0,38.785,0,25C0,11.215,11.215,0,25,0c13.785,0,25,11.215,25,25
		C50,38.785,38.785,50,25,50z M25,1.905C12.265,1.905,1.905,12.265,1.905,25S12.265,48.095,25,48.095S48.095,37.735,48.095,25
		S37.735,1.905,25,1.905z"/>
	<path style="fill:#5280DF;" d="M36.905,37.857h-23.81c-0.526,0-0.952-0.426-0.952-0.952v-23.81c0-0.526,0.426-0.952,0.952-0.952
		h23.81c0.526,0,0.952,0.426,0.952,0.952v23.81C37.857,37.431,37.431,37.857,36.905,37.857z M14.048,35.952h21.905V14.048H14.048
		V35.952z"/>
	<path style="fill:#5280DF;" d="M17.004,29.92h-3.909c-0.526,0-0.952-0.426-0.952-0.952c0-0.526,0.426-0.952,0.952-0.952h3.909
		c0.526,0,0.952,0.426,0.952,0.952C17.956,29.494,17.53,29.92,17.004,29.92z"/>
	<path style="fill:#5280DF;" d="M36.905,29.92H25.06c-0.526,0-0.952-0.426-0.952-0.952c0-0.526,0.426-0.952,0.952-0.952h11.845
		c0.526,0,0.952,0.426,0.952,0.952C37.857,29.494,37.431,29.92,36.905,29.92z"/>
	<path style="fill:#5280DF;" d="M36.905,21.984h-23.81c-0.526,0-0.952-0.426-0.952-0.952c0-0.526,0.426-0.952,0.952-0.952h23.81
		c0.526,0,0.952,0.426,0.952,0.952C37.857,21.558,37.431,21.984,36.905,21.984z"/>
	<path style="fill:#5280DF;" d="M28.968,37.857c-0.526,0-0.952-0.426-0.952-0.952v-23.81c0-0.526,0.426-0.952,0.952-0.952
		c0.526,0,0.952,0.426,0.952,0.952v23.81C29.92,37.431,29.494,37.857,28.968,37.857z"/>
	<path style="fill:#5280DF;" d="M21.032,25.893c-0.526,0-0.952-0.426-0.952-0.952V13.095c0-0.526,0.426-0.952,0.952-0.952
		c0.526,0,0.952,0.426,0.952,0.952V24.94C21.984,25.466,21.558,25.893,21.032,25.893z"/>
	<path style="fill:#5280DF;" d="M21.032,37.798c-0.526,0-0.952-0.426-0.952-0.952v-3.849c0-0.526,0.426-0.952,0.952-0.952
		c0.526,0,0.952,0.426,0.952,0.952v3.849C21.984,37.371,21.558,37.798,21.032,37.798z"/>
	<path style="fill:#5280DF;" d="M21.032,33.949c-2.746,0-4.98-2.234-4.98-4.98c0-2.746,2.234-4.98,4.98-4.98s4.98,2.234,4.98,4.98
		C26.012,31.715,23.778,33.949,21.032,33.949z M21.032,25.893c-1.696,0-3.075,1.38-3.075,3.075c0,1.696,1.38,3.076,3.075,3.076
		c1.696,0,3.075-1.38,3.075-3.076C24.107,27.273,22.727,25.893,21.032,25.893z"/>
	<circle style="fill:#5280DF;" cx="21.032" cy="28.968" r="1.429"/>
</g>
<g id="Layer_1">
</g>
</svg>
