<svg id="Layer_1" data-name="Layer 1" xmlns="http://www.w3.org/2000/svg" xmlns:xlink="http://www.w3.org/1999/xlink" viewBox="0 0 612 612"><defs><style>.cls-1,.cls-3,.cls-5{stroke:#232323;stroke-miterlimit:10;}.cls-1{fill:url(#linear-gradient);}.cls-2{opacity:0.8;}.cls-3{fill:url(#linear-gradient-2);}.cls-4{opacity:0.5;}.cls-5{fill:url(#linear-gradient-3);}</style><linearGradient id="linear-gradient" x1="357.85" y1="209.7" x2="357.85" y2="505.9" gradientUnits="userSpaceOnUse"><stop offset="0" stop-color="#fff"/><stop offset="0.6" stop-color="#e2e2e2"/><stop offset="1" stop-color="#ccc"/></linearGradient><linearGradient id="linear-gradient-2" x1="311.3" y1="158.4" x2="311.3" y2="464.3" xlink:href="#linear-gradient"/><linearGradient id="linear-gradient-3" x1="264.65" y1="106.1" x2="264.65" y2="423.6" xlink:href="#linear-gradient"/></defs><g id="SortSeries"><path class="cls-1" d="M490.9,371.7a14.77,14.77,0,0,0-14.8,14.8v68.8L307.4,286.6a14.78,14.78,0,0,0-20.9,20.9L455.2,476.3H386.4a14.8,14.8,0,1,0,0,29.6H491a14.28,14.28,0,0,0,2.9-.3c.4-.1.9-.3,1.3-.4a8.8,8.8,0,0,0,1.5-.5,10.93,10.93,0,0,0,1.5-.8c.4-.2.7-.4,1.1-.6a16,16,0,0,0,4.1-4.1c.2-.4.4-.7.6-1.1s.5-.9.8-1.5.3-1,.5-1.5.3-.8.4-1.3a14.28,14.28,0,0,0,.3-2.9V386.5A15.29,15.29,0,0,0,490.9,371.7Zm0-162H224.5a14.77,14.77,0,0,0-14.8,14.8V491.1a14.77,14.77,0,0,0,14.8,14.8h59.4a14.8,14.8,0,1,0,0-29.6H239.3v-237H476.2V284a14.8,14.8,0,0,0,29.6,0V224.5A15,15,0,0,0,490.9,209.7Z"/><g class="cls-2"><path class="cls-3" d="M211.8,464.3H173.2a14.77,14.77,0,0,1-14.8-14.8V173.2a14.77,14.77,0,0,1,14.8-14.8H449.4a14.77,14.77,0,0,1,14.8,14.8v39.5a14.8,14.8,0,0,1-29.6,0V188H187.9V434.7h23.8a14.8,14.8,0,0,1,.1,29.6Z"/></g><g class="cls-4"><path class="cls-5" d="M120.8,423.6A14.77,14.77,0,0,1,106,408.8V120.9a14.77,14.77,0,0,1,14.8-14.8H408.5a14.8,14.8,0,1,1,0,29.6H135.6V408.8A14.83,14.83,0,0,1,120.8,423.6Z"/></g></g></svg>