<?xml version="1.0" encoding="iso-8859-1"?>
<!-- Generator: Adobe Illustrator 21.1.0, SVG Export Plug-In . SVG Version: 6.00 Build 0)  -->
<svg version="1.1" xmlns="http://www.w3.org/2000/svg" xmlns:xlink="http://www.w3.org/1999/xlink" x="0px" y="0px"
	 viewBox="0 0 50 50" style="enable-background:new 0 0 50 50;" xml:space="preserve">
<g id="SpyglassWindowLevel">
	<path style="fill:#5280DF;" d="M25,50C11.215,50,0,38.785,0,25C0,11.215,11.215,0,25,0c13.785,0,25,11.215,25,25
		C50,38.785,38.785,50,25,50z M25,1.905C12.265,1.905,1.905,12.265,1.905,25S12.265,48.095,25,48.095S48.095,37.735,48.095,25
		S37.735,1.905,25,1.905z"/>
	<path style="fill:#5280DF;" d="M23.81,35.476c-6.433,0-11.667-5.233-11.667-11.667c0-6.433,5.234-11.667,11.667-11.667
		c6.433,0,11.667,5.234,11.667,11.667C35.476,30.243,30.243,35.476,23.81,35.476z M23.81,14.048c-5.383,0-9.762,4.379-9.762,9.762
		s4.379,9.762,9.762,9.762s9.762-4.379,9.762-9.762S29.192,14.048,23.81,14.048z"/>
	<path style="fill:#5280DF;" d="M36.905,37.857c-0.244,0-0.487-0.093-0.673-0.279l-5.519-5.519c-0.372-0.372-0.372-0.975,0-1.347
		c0.372-0.372,0.975-0.372,1.347,0l5.519,5.519c0.372,0.372,0.372,0.975,0,1.347C37.392,37.764,37.148,37.857,36.905,37.857z"/>
	<path style="fill:#5280DF;" d="M23.81,31.718c-0.526,0-0.952-0.426-0.952-0.952v-1.826c0-0.526,0.426-0.952,0.952-0.952
		c0.526,0,0.952,0.426,0.952,0.952v1.826C24.762,31.291,24.335,31.718,23.81,31.718z"/>
	<path style="fill:#5280DF;" d="M23.81,19.632c-0.526,0-0.952-0.426-0.952-0.952v-1.826c0-0.526,0.426-0.952,0.952-0.952
		c0.526,0,0.952,0.426,0.952,0.952v1.826C24.762,19.206,24.335,19.632,23.81,19.632z"/>
	<path style="fill:#5280DF;" d="M20.182,21.134c-0.244,0-0.488-0.093-0.673-0.279l-1.291-1.291c-0.372-0.372-0.372-0.975,0-1.347
		c0.372-0.372,0.975-0.372,1.347,0l1.291,1.291c0.372,0.372,0.372,0.975,0,1.347C20.67,21.041,20.426,21.134,20.182,21.134z"/>
	<path style="fill:#5280DF;" d="M28.728,29.681c-0.244,0-0.487-0.093-0.673-0.279l-1.292-1.292c-0.372-0.372-0.372-0.975,0-1.347
		s0.975-0.372,1.347,0l1.292,1.292c0.372,0.372,0.372,0.975,0,1.347C29.215,29.588,28.972,29.681,28.728,29.681z"/>
	<path style="fill:#5280DF;" d="M27.437,21.134c-0.244,0-0.487-0.093-0.673-0.279c-0.372-0.372-0.372-0.975,0-1.347l1.291-1.291
		c0.372-0.372,0.975-0.372,1.347,0c0.372,0.372,0.372,0.975,0,1.347l-1.291,1.291C27.925,21.041,27.681,21.134,27.437,21.134z"/>
	<path style="fill:#5280DF;" d="M18.891,29.681c-0.244,0-0.488-0.093-0.674-0.279c-0.372-0.372-0.372-0.975,0-1.347l1.291-1.291
		c0.372-0.372,0.975-0.372,1.347,0c0.372,0.372,0.372,0.975,0,1.347l-1.291,1.291C19.378,29.588,19.135,29.681,18.891,29.681z"/>
	<path style="fill:#5280DF;" d="M30.765,24.762H28.94c-0.526,0-0.952-0.426-0.952-0.952c0-0.526,0.426-0.952,0.952-0.952h1.826
		c0.526,0,0.952,0.426,0.952,0.952C31.718,24.335,31.291,24.762,30.765,24.762z"/>
	<path style="fill:#5280DF;" d="M18.68,24.762h-1.826c-0.526,0-0.952-0.426-0.952-0.952c0-0.526,0.426-0.952,0.952-0.952h1.826
		c0.526,0,0.952,0.426,0.952,0.952C19.632,24.335,19.205,24.762,18.68,24.762z"/>
	<path style="fill:#5280DF;" d="M23.81,29.035c-2.881,0-5.225-2.344-5.225-5.225c0-2.881,2.344-5.225,5.225-5.225
		c2.881,0,5.225,2.344,5.225,5.225C29.035,26.691,26.691,29.035,23.81,29.035z M23.81,20.489c-1.831,0-3.32,1.489-3.32,3.32
		c0,1.831,1.489,3.32,3.32,3.32c1.831,0,3.32-1.489,3.32-3.32C27.13,21.979,25.64,20.489,23.81,20.489z"/>
	<path style="fill:#5280DF;" d="M28.082,23.81c0,2.36-1.913,4.273-4.273,4.273s-4.273-1.913-4.273-4.273H28.082z"/>
	<path style="fill:#5280DF;" d="M23.81,29.035c-2.881,0-5.225-2.344-5.225-5.225c0-0.526,0.426-0.952,0.952-0.952h8.545
		c0.526,0,0.952,0.426,0.952,0.952C29.035,26.691,26.691,29.035,23.81,29.035z M20.628,24.762c0.41,1.368,1.681,2.368,3.181,2.368
		c1.5,0,2.771-1,3.181-2.368H20.628z"/>
</g>
<g id="Layer_1">
</g>
</svg>
