<svg id="Layer_1" data-name="Layer 1" xmlns="http://www.w3.org/2000/svg" xmlns:xlink="http://www.w3.org/1999/xlink" viewBox="0 0 612 612"><defs><style>.cls-1,.cls-2{stroke:#232323;stroke-miterlimit:10;stroke-width:1.31px;}.cls-1{fill:url(#linear-gradient);}.cls-2{fill:url(#linear-gradient-2);}</style><linearGradient id="linear-gradient" x1="306" y1="30.19" x2="306" y2="581.81" gradientUnits="userSpaceOnUse"><stop offset="0" stop-color="#fafafa"/><stop offset="1" stop-color="#ebebeb"/></linearGradient><linearGradient id="linear-gradient-2" x1="235.47" y1="114.25" x2="235.47" y2="351.41" xlink:href="#linear-gradient"/></defs><path class="cls-1" d="M580.75,520.77a63.37,63.37,0,0,1-99,50.07L458.06,541l-110-138.49,9.76-7.74a205.61,205.61,0,0,1-24.12,16h0c-1.74,1-3.52,1.94-5.29,2.87-.89.48-1.79,1-2.7,1.39s-1.93,1-2.92,1.45a1.8,1.8,0,0,1-.34.17l-2,1-.51.24c-1.36.63-2.71,1.26-4.08,1.85-1.55.69-3.11,1.34-4.67,2-2.22.93-4.45,1.79-6.72,2.62,0,0,0,0,0,0A202.76,202.76,0,0,1,135,410.74c-1.85-1-3.68-2.12-5.5-3.22a17,17,0,0,1,15.79-29.22q3.63,2.26,7.37,4.3a169.66,169.66,0,0,0,196-23.35c2-1.85,4-3.72,5.91-5.66a169.51,169.51,0,0,0,15.95-18.41c.68-.89,1.32-1.77,2-2.68a169.14,169.14,0,0,0,31.86-99c0-93.8-76.26-170.09-170-170.09a169.29,169.29,0,0,0-108.06,38.86,0,0,0,0,0,0,0c-2.09,1.73-4.15,3.52-6.15,5.34s-4,3.72-5.92,5.64a172.27,172.27,0,0,0-13.54,15.28,169.8,169.8,0,0,0-13.47,190v0c.6,1.05,1.22,2.1,1.86,3.13a17,17,0,0,1-26.72,19.84c-1.88-3-3.68-6-5.42-9.09h0a203.26,203.26,0,0,1,46.15-254,194.26,194.26,0,0,1,15.56-12c1.79-1.25,3.61-2.46,5.44-3.67,1.23-.78,2.46-1.57,3.71-2.35s2.26-1.38,3.4-2.06l.35-.2c1.26-.74,2.52-1.49,3.78-2.19a1.05,1.05,0,0,0,.11-.07c1.25-.69,2.49-1.37,3.75-2q2.73-1.47,5.48-2.82c1.29-.66,2.6-1.29,3.91-1.88q4.9-2.3,9.92-4.34a202.4,202.4,0,0,1,75.87-14.68c112,0,203.19,91.18,203.19,203.29A202.41,202.41,0,0,1,389.18,364.9l.06.06a207.8,207.8,0,0,1-23.46,23.45l0,0c-1.14,1-2.29,1.93-3.46,2.86l12.31-9.76,86.09,108.4,9,11.3,38.63,48.64a.71.71,0,0,0,.53.16,40.11,40.11,0,0,0,40.11-40.64v0L501,470.51l-11.38-9.22L381.9,374.11l21.27-26.29,138,111.74,28.67,23.21.29.43A63.12,63.12,0,0,1,580.75,520.77Z"/><path id="InvertColor" class="cls-2" d="M319.27,316.63c44.22-44.22,46.27-114.82,6.16-161.33l.26-.25-6.21-6.21c-46.2-46.2-121.47-46.11-167.79.21s-46.41,121.59-.21,167.79l6.21,6.2.25-.25C204.45,362.9,275.05,360.85,319.27,316.63ZM182.43,297,300.06,179.37A83.49,83.49,0,0,1,182.43,297Z"/></svg>