<svg id="Layer_1" data-name="Layer 1" xmlns="http://www.w3.org/2000/svg" xmlns:xlink="http://www.w3.org/1999/xlink" viewBox="0 0 612 612"><defs><style>.cls-1,.cls-2{stroke:#232323;stroke-miterlimit:10;stroke-width:1.31px;}.cls-1{fill:url(#linear-gradient);}.cls-2{fill:url(#linear-gradient-2);}</style><linearGradient id="linear-gradient" x1="235.19" y1="104.26" x2="235.19" y2="366.21" gradientUnits="userSpaceOnUse"><stop offset="0" stop-color="#fafafa"/><stop offset="1" stop-color="#ebebeb"/></linearGradient><linearGradient id="linear-gradient-2" x1="306" y1="30.72" x2="306" y2="581.28" xlink:href="#linear-gradient"/></defs><path class="cls-1" d="M350.32,219.46H320.17a86.34,86.34,0,0,0-13.75-33.2l21.33-21.34a15.77,15.77,0,1,0-22.3-22.3L284.13,164a86.25,86.25,0,0,0-33.19-13.76V120a15.77,15.77,0,1,0-31.53,0V150.2A86,86,0,0,0,186.24,164l-21.33-21.34a15.76,15.76,0,1,0-22.29,22.3L164,186.26a86.34,86.34,0,0,0-13.75,33.2H120A15.77,15.77,0,0,0,120,251H150.2A86.14,86.14,0,0,0,164,284.21l-21.33,21.34a15.76,15.76,0,1,0,22.29,22.3l21.33-21.34a86,86,0,0,0,33.17,13.75v30.18a15.77,15.77,0,1,0,31.53,0V320.26a86,86,0,0,0,33.19-13.75l21.32,21.34a15.76,15.76,0,1,0,22.29-22.3l-21.32-21.34A86.31,86.31,0,0,0,320.16,251h30.16a15.77,15.77,0,0,0,0-31.54Zm-167.76,0a54.91,54.91,0,0,1,105.24,0Z"/><path class="cls-2" d="M580.22,520.35a63.26,63.26,0,0,1-98.78,50l-23.68-29.82L348,402.3l9.75-7.73a206.09,206.09,0,0,1-24.08,15.94h0c-1.74,1-3.52,1.94-5.29,2.87-.88.47-1.78.95-2.68,1.39s-1.93,1-2.92,1.44a1.8,1.8,0,0,1-.34.17l-2,1q-.26.14-.51.24c-1.36.63-2.7,1.26-4.07,1.85q-2.32,1-4.66,2c-2.22.93-4.44,1.78-6.7,2.61a0,0,0,0,0,0,0,202.43,202.43,0,0,1-169.13-13.49c-1.84-1-3.67-2.12-5.49-3.22a17,17,0,0,1,15.76-29.16c2.42,1.5,4.88,2.93,7.36,4.29a169.32,169.32,0,0,0,195.67-23.31c2-1.84,4-3.71,5.9-5.64a172,172,0,0,0,15.92-18.37c.67-.89,1.31-1.78,1.95-2.68a168.84,168.84,0,0,0,31.8-98.83c0-93.62-76.12-169.76-169.69-169.76a168.94,168.94,0,0,0-107.85,38.79,0,0,0,0,0,0,0c-2.08,1.73-4.14,3.51-6.14,5.33s-4,3.71-5.9,5.63a173,173,0,0,0-13.52,15.24A169.47,169.47,0,0,0,87.64,318.54h0c.6,1.06,1.21,2.1,1.86,3.13a17,17,0,0,1-26.68,19.8q-2.8-4.46-5.4-9.07h0A202.92,202.92,0,0,1,103.48,78.9,195.22,195.22,0,0,1,119,67c1.79-1.25,3.6-2.46,5.43-3.66l3.7-2.35c1.12-.68,2.26-1.38,3.4-2l.35-.2c1.25-.75,2.51-1.49,3.77-2.19a1.05,1.05,0,0,0,.11-.07c1.25-.69,2.49-1.37,3.75-2,1.81-1,3.64-1.91,5.47-2.81,1.29-.66,2.59-1.29,3.9-1.88q4.89-2.3,9.9-4.33a202,202,0,0,1,75.72-14.66c111.82,0,202.79,91,202.79,202.9A202,202,0,0,1,389,364.79l.06.06a207,207,0,0,1-23.42,23.4l0,0c-1.15,1-2.29,1.93-3.46,2.85l12.29-9.74,85.91,108.19,9,11.28,38.55,48.55a.76.76,0,0,0,.53.15,40,40,0,0,0,40-40.56s0,0,0,0L500.6,470.19,489.24,461,381.75,374,403,347.74,540.74,459.26l28.62,23.16c.1.15.2.29.28.43A63,63,0,0,1,580.22,520.35Z"/></svg>