<svg id="Layer_1" data-name="Layer 1" xmlns="http://www.w3.org/2000/svg" xmlns:xlink="http://www.w3.org/1999/xlink" viewBox="0 0 612 612"><defs><style>.cls-1{stroke:#232323;stroke-miterlimit:10;fill:url(#linear-gradient);}</style><linearGradient id="linear-gradient" x1="306" y1="106.05" x2="306" y2="505.95" gradientUnits="userSpaceOnUse"><stop offset="0" stop-color="#fff"/><stop offset="0.6" stop-color="#e2e2e2"/><stop offset="1" stop-color="#ccc"/></linearGradient></defs><path id="Spyglass" class="cls-1" d="M501.51,480.67l-75.84-75.88a180.66,180.66,0,0,0,43.16-117.3c0-100.05-81.34-181.44-181.34-181.44S106.15,187.44,106.15,287.49,187.5,468.92,287.49,468.92a180.36,180.36,0,0,0,117.25-43.19l75.83,75.88a14.81,14.81,0,0,0,20.94-20.94Zm-214-41.37c-83.66,0-151.73-68.1-151.73-151.81s68.07-151.82,151.73-151.82,151.74,68.11,151.74,151.82S371.16,439.3,287.49,439.3ZM408.35,281.64c-1.32-3.06-33.19-74.89-120.86-74.89S168,278.58,166.64,281.64a14.82,14.82,0,0,0-.41,10.65c1.06,3.09,27,75.95,121.25,75.95s120.2-72.84,121.25-75.94A14.79,14.79,0,0,0,408.35,281.64Zm-120.86,57c-59.79,0-83.84-36.51-90.87-50.56,8.15-14.13,35.08-51.68,90.87-51.68,56,0,82.71,37.34,90.88,51.63C371.32,302,347.12,338.6,287.49,338.6Zm0-94.16a43,43,0,1,0,43,43.05A43.07,43.07,0,0,0,287.49,244.44Zm0,56.47a13.42,13.42,0,1,1,13.42-13.42A13.43,13.43,0,0,1,287.49,300.91Z"/></svg>