<?xml version="1.0" encoding="iso-8859-1"?>
<!-- Generator: Adobe Illustrator 21.1.0, SVG Export Plug-In . SVG Version: 6.00 Build 0)  -->
<svg version="1.1" xmlns="http://www.w3.org/2000/svg" xmlns:xlink="http://www.w3.org/1999/xlink" x="0px" y="0px"
	 viewBox="0 0 50 50" style="enable-background:new 0 0 50 50;" xml:space="preserve">
<g id="SpyglassCLAHE">
	<path style="fill:#5280DF;" d="M25,50C11.215,50,0,38.785,0,25C0,11.215,11.215,0,25,0c13.785,0,25,11.215,25,25
		C50,38.785,38.785,50,25,50z M25,1.905C12.265,1.905,1.905,12.265,1.905,25S12.265,48.095,25,48.095S48.095,37.735,48.095,25
		S37.735,1.905,25,1.905z"/>
	<path style="fill:#5280DF;" d="M23.81,35.476c-6.433,0-11.667-5.233-11.667-11.667c0-6.433,5.234-11.667,11.667-11.667
		c6.433,0,11.667,5.234,11.667,11.667C35.476,30.243,30.243,35.476,23.81,35.476z M23.81,14.048c-5.383,0-9.762,4.379-9.762,9.762
		s4.379,9.762,9.762,9.762s9.762-4.379,9.762-9.762S29.192,14.048,23.81,14.048z"/>
	<path style="fill:#5280DF;" d="M36.905,37.857c-0.244,0-0.487-0.093-0.673-0.279l-5.519-5.519c-0.372-0.372-0.372-0.975,0-1.347
		c0.372-0.372,0.975-0.372,1.347,0l5.519,5.519c0.372,0.372,0.372,0.975,0,1.347C37.392,37.764,37.148,37.857,36.905,37.857z"/>
	<path style="fill:#5280DF;" d="M20.91,25.053v1.189c0,0.773-0.626,1.399-1.399,1.399h-1.114c-0.773,0-1.399-0.626-1.399-1.399
		v-4.864c0-0.773,0.626-1.399,1.399-1.399h1.103c0.767,0,1.388,0.621,1.388,1.388v0.974c0,0.312-0.253,0.565-0.565,0.565h-0.001
		c-0.312,0-0.565-0.253-0.565-0.565v-0.91c0-0.301-0.14-0.441-0.43-0.441h-0.737c-0.301,0-0.441,0.14-0.441,0.441v4.757
		c0,0.301,0.14,0.441,0.441,0.441h0.759c0.29,0,0.43-0.14,0.43-0.441v-1.135c0-0.312,0.253-0.565,0.565-0.565l0,0
		C20.657,24.488,20.91,24.741,20.91,25.053z"/>
	<path style="fill:#5280DF;" d="M19.512,27.879h-1.114c-0.903,0-1.637-0.735-1.637-1.637v-4.864c0-0.903,0.735-1.637,1.637-1.637
		h1.104c0.897,0,1.626,0.729,1.626,1.626v0.974c0,0.443-0.36,0.803-0.803,0.803c-0.443,0-0.804-0.36-0.804-0.803v-0.91
		c0-0.178-0.041-0.203-0.192-0.203h-0.737c-0.17,0-0.203,0.032-0.203,0.203v4.757c0,0.171,0.032,0.203,0.203,0.203h0.759
		c0.151,0,0.192-0.025,0.192-0.203v-1.135c0-0.443,0.36-0.803,0.803-0.803c0.443,0,0.803,0.36,0.803,0.803v1.189
		C21.148,27.144,20.414,27.879,19.512,27.879z M18.398,20.216c-0.64,0-1.161,0.521-1.161,1.161v4.864
		c0,0.64,0.521,1.161,1.161,1.161h1.114c0.64,0,1.16-0.521,1.16-1.161v-1.189c0-0.18-0.146-0.327-0.327-0.327
		c-0.18,0-0.327,0.147-0.327,0.327v1.135c0,0.432-0.244,0.679-0.668,0.679h-0.759c-0.432,0-0.679-0.247-0.679-0.679v-4.757
		c0-0.432,0.247-0.679,0.679-0.679h0.737c0.425,0,0.668,0.248,0.668,0.679v0.91c0,0.18,0.146,0.327,0.327,0.327
		c0.18,0,0.327-0.146,0.327-0.327v-0.974c0-0.634-0.516-1.15-1.15-1.15H18.398z"/>
	<path style="fill:#5280DF;" d="M23.788,20.565v5.967h1.291c0.288,0,0.522,0.234,0.522,0.522l0,0c0,0.288-0.234,0.522-0.522,0.522
		h-1.921c-0.288,0-0.522-0.234-0.522-0.522v-6.489c0-0.288,0.234-0.522,0.522-0.522h0.107
		C23.554,20.043,23.788,20.277,23.788,20.565z"/>
	<path style="fill:#5280DF;" d="M25.079,27.814h-1.921c-0.419,0-0.76-0.341-0.76-0.76v-6.489c0-0.419,0.341-0.76,0.76-0.76h0.107
		c0.419,0,0.76,0.341,0.76,0.76v5.729h1.053c0.419,0,0.76,0.341,0.76,0.76C25.839,27.473,25.499,27.814,25.079,27.814z
		 M23.158,20.281c-0.156,0-0.284,0.127-0.284,0.284v6.489c0,0.156,0.127,0.284,0.284,0.284h1.921c0.156,0,0.284-0.127,0.284-0.284
		c0-0.157-0.127-0.284-0.284-0.284H23.55v-6.205c0-0.156-0.127-0.284-0.284-0.284H23.158z"/>
	<path style="fill:#5280DF;" d="M29.469,23.218v-2.599c0-0.318,0.258-0.576,0.576-0.576h0c0.318,0,0.576,0.258,0.576,0.576v6.382
		c0,0.318-0.258,0.576-0.576,0.576h0c-0.318,0-0.576-0.258-0.576-0.576v-2.739h-1.652v2.739c0,0.318-0.258,0.576-0.576,0.576l0,0
		c-0.318,0-0.576-0.258-0.576-0.576v-6.382c0-0.318,0.258-0.576,0.576-0.576l0,0c0.318,0,0.576,0.258,0.576,0.576v2.599H29.469z"/>
	<path style="fill:#5280DF;" d="M30.045,27.814c-0.449,0-0.814-0.365-0.814-0.814V24.5h-1.176v2.501
		c0,0.449-0.365,0.814-0.814,0.814s-0.814-0.365-0.814-0.814v-6.382c0-0.449,0.365-0.814,0.814-0.814s0.814,0.365,0.814,0.814v2.361
		h1.176v-2.361c0-0.449,0.365-0.814,0.814-0.814s0.814,0.365,0.814,0.814v6.382C30.858,27.449,30.493,27.814,30.045,27.814z
		 M27.579,24.024h2.128v2.977c0,0.186,0.152,0.338,0.338,0.338s0.338-0.152,0.338-0.338v-6.382c0-0.186-0.152-0.338-0.338-0.338
		s-0.338,0.151-0.338,0.338v2.837h-2.128v-2.837c0-0.186-0.152-0.338-0.338-0.338s-0.338,0.151-0.338,0.338v6.382
		c0,0.186,0.152,0.338,0.338,0.338s0.338-0.152,0.338-0.338V24.024z"/>
</g>
<g id="Layer_1">
</g>
</svg>
