<svg id="Layer_1" data-name="Layer 1" xmlns="http://www.w3.org/2000/svg" xmlns:xlink="http://www.w3.org/1999/xlink" viewBox="0 0 612 612"><defs><style>.cls-1{stroke:#232323;stroke-miterlimit:10;fill:url(#linear-gradient);}</style><linearGradient id="linear-gradient" x1="306" y1="106.05" x2="306" y2="505.95" gradientUnits="userSpaceOnUse"><stop offset="0" stop-color="#fff"/><stop offset="0.6" stop-color="#e2e2e2"/><stop offset="1" stop-color="#ccc"/></linearGradient></defs><path id="SpyglassWindowLevel" class="cls-1" d="M501.51,480.67l-75.84-75.88a180.66,180.66,0,0,0,43.16-117.3c0-100.05-81.34-181.44-181.34-181.44S106.15,187.44,106.15,287.49,187.5,468.92,287.49,468.92a180.36,180.36,0,0,0,117.25-43.19l75.83,75.88a14.81,14.81,0,0,0,20.94-20.94Zm-214-41.37c-83.66,0-151.73-68.1-151.73-151.81s68.07-151.82,151.73-151.82,151.74,68.11,151.74,151.82S371.16,439.3,287.49,439.3ZM395.62,272.68H367.3a80.67,80.67,0,0,0-12.91-31.17l20-20a14.8,14.8,0,1,0-20.93-20.94l-20,20a80.82,80.82,0,0,0-31.16-12.92V179.32a14.81,14.81,0,1,0-29.61,0v28.33a80.82,80.82,0,0,0-31.15,12.92l-20-20a14.81,14.81,0,0,0-20.94,20.94l20,20a81.13,81.13,0,0,0-12.91,31.17H179.38a14.81,14.81,0,0,0,0,29.62H207.7a81.09,81.09,0,0,0,12.91,31.18l-20,20a14.8,14.8,0,1,0,20.93,20.94l20-20a80.8,80.8,0,0,0,31.15,12.91v28.34a14.81,14.81,0,1,0,29.61,0V367.33a80.63,80.63,0,0,0,31.16-12.91l20,20a14.8,14.8,0,1,0,20.93-20.94l-20-20A81,81,0,0,0,367.3,302.3h28.32a14.81,14.81,0,0,0,0-29.62Zm-157.54,0a51.57,51.57,0,0,1,98.83,0Z"/></svg>