<svg id="Layer_1" data-name="Layer 1" xmlns="http://www.w3.org/2000/svg" xmlns:xlink="http://www.w3.org/1999/xlink" viewBox="0 0 612 612"><defs><style>.cls-1{stroke:#232323;stroke-miterlimit:10;fill:url(#linear-gradient);}</style><linearGradient id="linear-gradient" x1="306" y1="106.05" x2="306" y2="505.95" gradientUnits="userSpaceOnUse"><stop offset="0" stop-color="#fff"/><stop offset="0.6" stop-color="#e2e2e2"/><stop offset="1" stop-color="#ccc"/></linearGradient></defs><path id="SpyglassCLAHE" class="cls-1" d="M501.51,480.67l-75.84-75.88a180.66,180.66,0,0,0,43.16-117.3c0-100.05-81.34-181.44-181.34-181.44S106.15,187.44,106.15,287.49,187.5,468.92,287.49,468.92a180.36,180.36,0,0,0,117.25-43.19l75.83,75.88a14.81,14.81,0,0,0,20.94-20.94Zm-214-41.37c-83.66,0-151.73-68.1-151.73-151.81s68.07-151.82,151.73-151.82,151.74,68.11,151.74,151.82S371.16,439.3,287.49,439.3Zm-53.84-145a12.5,12.5,0,0,0-12.48,12.49v17.65c0,2.77-.63,3.16-3,3.16H206.39c-2.65,0-3.16-.51-3.16-3.16v-74c0-2.65.51-3.15,3.16-3.15h11.45c2.36,0,3,.4,3,3.15v14.14a12.49,12.49,0,1,0,25,0V249.48a25.31,25.31,0,0,0-25.29-25.29H203.37a25.48,25.48,0,0,0-25.45,25.46v75.64a25.48,25.48,0,0,0,25.45,25.46h17.32a25.48,25.48,0,0,0,25.44-25.46V306.8A12.49,12.49,0,0,0,233.65,294.33Zm73.58,31.8H290.85V237A11.83,11.83,0,0,0,279,225.21h-1.67A11.83,11.83,0,0,0,265.55,237V338a11.83,11.83,0,0,0,11.82,11.82h29.86a11.82,11.82,0,0,0,0-23.64Zm77.18-100.92a12.65,12.65,0,0,0-12.64,12.64v36.72H353.5V237.85a12.64,12.64,0,0,0-25.28,0V337.1a12.64,12.64,0,1,0,25.28,0V298.21h18.27V337.1a12.65,12.65,0,1,0,25.29,0V237.85A12.67,12.67,0,0,0,384.41,225.21Z"/></svg>