<svg id="Layer_1" data-name="Layer 1" xmlns="http://www.w3.org/2000/svg" xmlns:xlink="http://www.w3.org/1999/xlink" viewBox="0 0 612 612"><defs><style>.cls-1{stroke:#232323;stroke-miterlimit:10;fill:url(#linear-gradient);}</style><linearGradient id="linear-gradient" x1="306" y1="106.05" x2="306" y2="505.95" gradientUnits="userSpaceOnUse"><stop offset="0" stop-color="#fff"/><stop offset="0.6" stop-color="#e2e2e2"/><stop offset="1" stop-color="#ccc"/></linearGradient></defs><path id="SpyglassInvert" class="cls-1" d="M501.51,480.67l-75.84-75.88a180.66,180.66,0,0,0,43.16-117.3c0-100.05-81.34-181.44-181.34-181.44S106.15,187.44,106.15,287.49,187.5,468.92,287.49,468.92a180.36,180.36,0,0,0,117.25-43.19l75.83,75.88a14.81,14.81,0,0,0,20.94-20.94Zm-214-41.37c-83.66,0-151.73-68.1-151.73-151.81s68.07-151.82,151.73-151.82,151.74,68.11,151.74,151.82S371.16,439.3,287.49,439.3Zm0-256.14A104.33,104.33,0,1,0,391.77,287.49,104.42,104.42,0,0,0,287.49,183.16Zm0,179V212.78a74.71,74.71,0,0,1,0,149.41Z"/></svg>