<svg id="Layer_1" data-name="Layer 1" xmlns="http://www.w3.org/2000/svg" xmlns:xlink="http://www.w3.org/1999/xlink" viewBox="0 0 612 612"><defs><style>.cls-1{stroke:#232323;stroke-miterlimit:10;stroke-width:1.31px;fill:url(#linear-gradient);}</style><linearGradient id="linear-gradient" x1="306.11" y1="31.08" x2="306.11" y2="581.46" gradientUnits="userSpaceOnUse"><stop offset="0" stop-color="#fafafa"/><stop offset="1" stop-color="#ebebeb"/></linearGradient></defs><path id="SSD" class="cls-1" d="M143.6,488.28c-26.27-6.73-32.77-10-32.77-20v-.41c0-7.39,6.73-13.24,19.52-13.24s26,5.63,39.5,15l17.36-25.18c-15.42-12.38-34.28-19.31-56.42-19.31-31,0-53.16,18.24-53.16,45.81v.42c0,30.18,19.76,38.65,50.34,46.46,25.38,6.51,30.59,10.86,30.59,19.31v.44c0,8.9-8.25,14.33-21.93,14.33-17.35,0-31.68-7.16-45.34-18.45L71.53,557.12A96.72,96.72,0,0,0,136,581.46c32.75,0,55.77-17,55.77-47.11v-.43C191.77,507.4,174.4,496.32,143.6,488.28Zm155.41,0c-26.26-6.73-32.75-10-32.75-20v-.41c0-7.39,6.73-13.24,19.52-13.24s26,5.63,39.52,15l17.35-25.18c-15.4-12.38-34.27-19.31-56.42-19.31-31,0-53.16,18.24-53.16,45.81v.42c0,30.18,19.76,38.65,50.34,46.46,25.39,6.51,30.6,10.86,30.6,19.31v.44c0,8.9-8.25,14.33-21.92,14.33-17.36,0-31.69-7.16-45.36-18.45L227,557.12a96.68,96.68,0,0,0,64.45,24.34c32.74,0,55.76-17,55.76-47.11v-.43C347.19,507.4,329.82,496.32,299,488.28Zm160.92-61H400.71v152h59.22c47.74,0,80.74-33.22,80.74-76v-.43C540.67,460.08,507.68,427.27,459.93,427.27Zm45.8,76.42c0,26.92-18.44,45.38-45.8,45.38H434.11V457.45h25.82c27.36,0,45.8,18.9,45.8,45.82Zm-401-345.49,188,109.31a28.08,28.08,0,0,0,25.57,0L507.4,158.28c7.16-4.15,7.09-10.74.08-14.81l-188-109.31a25.9,25.9,0,0,0-12.77-3.08,26.2,26.2,0,0,0-12.8,3.08L104.83,143.4C97.68,147.52,97.75,154.13,104.75,158.2Zm202-89.61L448,150.76,305.54,233.08,164.23,150.91ZM80.6,364.2H276.66a9,9,0,0,0,9-9.05V314.09a9.07,9.07,0,0,0-4.54-7.85l-196.83-113a11.5,11.5,0,0,0-5.68-1.72c-4.19,0-7.09,3.33-7.09,9.2V355.13A9,9,0,0,0,80.6,364.2Zm27.14-115.75,141.78,81.37H107.74Zm425.83-56.88a11.59,11.59,0,0,0-5.67,1.72l-196.83,113a9.1,9.1,0,0,0-4.54,7.86v41.06a9,9,0,0,0,9.05,9.05H531.64a9.05,9.05,0,0,0,9.05-9.05V200.78C540.67,194.9,537.77,191.57,533.57,191.57ZM504.48,329.82H362.7l141.78-81.37Z"/></svg>