<svg id="Layer_1" data-name="Layer 1" xmlns="http://www.w3.org/2000/svg" xmlns:xlink="http://www.w3.org/1999/xlink" viewBox="0 0 612 612"><defs><style>.cls-1{stroke:#232323;stroke-miterlimit:10;fill:url(#linear-gradient);}</style><linearGradient id="linear-gradient" x1="306.1" y1="80.86" x2="306.1" y2="531.14" gradientUnits="userSpaceOnUse"><stop offset="0" stop-color="#fff"/><stop offset="0.6" stop-color="#e2e2e2"/><stop offset="1" stop-color="#ccc"/></linearGradient></defs><path id="SSD" class="cls-1" d="M173.14,454.91c-21.49-5.51-26.81-8.17-26.81-16.34v-.34c0-6,5.51-10.82,16-10.82s21.31,4.6,32.32,12.25l14.2-20.61c-12.62-10.13-28-15.8-46.16-15.8-25.39,0-43.49,14.93-43.49,37.49v.34c0,24.69,16.16,31.62,41.18,38,20.77,5.33,25,8.89,25,15.81v.35c0,7.29-6.75,11.73-17.94,11.73-14.2,0-25.92-5.86-37.1-15.09l-16.16,19.36a79.14,79.14,0,0,0,52.73,19.9c26.79,0,45.62-13.86,45.62-38.53v-.36C212.55,470.55,198.34,461.49,173.14,454.91Zm127.15,0c-21.48-5.51-26.8-8.17-26.8-16.34v-.34c0-6,5.51-10.82,16-10.82s21.3,4.6,32.33,12.25L336,419.05c-12.6-10.13-28-15.8-46.16-15.8-25.38,0-43.49,14.93-43.49,37.49v.34c0,24.69,16.17,31.62,41.19,38,20.76,5.33,25,8.89,25,15.81v.35c0,7.29-6.75,11.73-17.93,11.73-14.21,0-25.93-5.86-37.11-15.09l-16.17,19.36a79.18,79.18,0,0,0,52.73,19.9c26.8,0,45.63-13.86,45.63-38.53v-.36C339.71,470.55,325.5,461.49,300.29,454.91ZM432,405H383.5V529.34H432c39.05,0,66.05-27.18,66.05-62.16v-.36C498,431.84,471,405,432,405Zm37.46,62.52c0,22-15.08,37.13-37.46,37.13H410.82v-75H432c22.38,0,37.46,15.46,37.46,37.49Zm-328-282.66,153.79,89.43a23,23,0,0,0,20.92,0l154.71-89.37c5.86-3.39,5.8-8.78.07-12.11L317,83.38a22.95,22.95,0,0,0-20.91,0L141.42,172.75C135.57,176.12,135.63,181.53,141.36,184.86Zm165.22-73.31,115.63,67.22L305.63,246.12,190,178.89ZM121.6,353.4H282a7.41,7.41,0,0,0,7.41-7.41V312.4a7.44,7.44,0,0,0-3.72-6.43l-161-92.42a9.49,9.49,0,0,0-4.65-1.41c-3.43,0-5.8,2.73-5.8,7.53V346A7.39,7.39,0,0,0,121.6,353.4Zm22.2-94.71,116,66.58h-116Zm348.4-46.53a9.51,9.51,0,0,0-4.65,1.41L326.52,306a7.41,7.41,0,0,0-3.72,6.43V346a7.4,7.4,0,0,0,7.4,7.4H490.61A7.4,7.4,0,0,0,498,346V219.7C498,214.88,495.63,212.16,492.2,212.16ZM468.39,325.27h-116l116-66.58Z"/></svg>