<svg id="Layer_1" data-name="Layer 1" xmlns="http://www.w3.org/2000/svg" xmlns:xlink="http://www.w3.org/1999/xlink" viewBox="0 0 612 612"><defs><style>.cls-1{stroke:#232323;stroke-miterlimit:10;fill:url(#linear-gradient);}</style><linearGradient id="linear-gradient" x1="305.96" y1="106.06" x2="305.96" y2="505.97" gradientUnits="userSpaceOnUse"><stop offset="0" stop-color="#fff"/><stop offset="0.6" stop-color="#e2e2e2"/><stop offset="1" stop-color="#ccc"/></linearGradient></defs><path id="Stack" class="cls-1" d="M113.48,240.91,297.93,348.15a14.81,14.81,0,0,0,14.83,0L498.43,240.92a14.8,14.8,0,0,0,0-25.61L314,108.07a14.75,14.75,0,0,0-14.84,0L113.51,215.3a14.79,14.79,0,0,0,0,25.61ZM306.56,138l155,90.1-156.1,90.17-155-90.08ZM498.47,293.19l-29.74-17.28a14.81,14.81,0,0,0-14.88,25.6l7.64,4.45-156.1,90.17L150.45,306l7.77-4.49a14.81,14.81,0,0,0-14.81-25.65L113.5,293.18a14.82,14.82,0,0,0,0,25.64L297.92,426.06a14.81,14.81,0,0,0,14.83,0L498.41,318.83a14.84,14.84,0,0,0,.06-25.64Zm0,77.89L468.73,353.8a14.81,14.81,0,0,0-14.88,25.6l7.64,4.45L305.39,474,150.46,383.94l7.77-4.49a14.81,14.81,0,0,0-14.8-25.65l-29.92,17.28a14.82,14.82,0,0,0,0,25.64L297.93,504a14.85,14.85,0,0,0,7.43,2,14.68,14.68,0,0,0,7.4-2L498.43,396.73a14.83,14.83,0,0,0,0-25.65Z"/></svg>