<svg id="Layer_1" data-name="Layer 1" xmlns="http://www.w3.org/2000/svg" xmlns:xlink="http://www.w3.org/1999/xlink" viewBox="0 0 612 612"><defs><style>.cls-1{stroke:#232323;stroke-miterlimit:10;fill:url(#linear-gradient);}</style><linearGradient id="linear-gradient" x1="305.97" y1="106.07" x2="305.97" y2="505.95" gradientUnits="userSpaceOnUse"><stop offset="0" stop-color="#fff"/><stop offset="0.6" stop-color="#e2e2e2"/><stop offset="1" stop-color="#ccc"/></linearGradient></defs><path id="StretchHistogram" class="cls-1" d="M120.32,383.92l.62,0a14.81,14.81,0,0,0,14.78-14.19c0-.76,3.73-75.7,53.69-75.7,24.72,0,33.68,13.85,46.24,36.45,10.69,19.23,24,43.16,55.25,43.16,53.63,0,65.85-66.34,77.67-130.49,9.73-52.84,19.8-107.48,49.65-107.48,58,0,58,155.71,58,222.21a14.8,14.8,0,1,0,29.6,0c0-88,0-251.83-87.59-251.83-54.52,0-66.85,67-78.76,131.74C329.83,290,319.89,344.05,290.9,344.05c-12.6,0-18.34-8.07-29.37-27.92-12.13-21.81-28.72-51.69-72.12-51.69-62.44,0-81.78,68.09-83.27,104.1A14.81,14.81,0,0,0,120.32,383.92ZM463,403.52A14.81,14.81,0,0,0,442,424.46l13.28,13.29H156.68L170,424.46A14.8,14.8,0,0,0,149,403.52l-38.55,38.57a14.54,14.54,0,0,0-1.84,2.23c-.16.25-.28.52-.43.79a14.12,14.12,0,0,0-.94,1.76c-.14.34-.21.69-.33,1.05a14.23,14.23,0,0,0-.52,1.72,14.51,14.51,0,0,0,0,5.87,13.21,13.21,0,0,0,.58,1.88c.1.3.15.59.27.87a14.78,14.78,0,0,0,1,1.93,4.65,4.65,0,0,0,.34.62,15.25,15.25,0,0,0,1.83,2.25L149,501.62a14.81,14.81,0,0,0,20.93-20.95l-13.28-13.28H455.28L442,480.67a14.81,14.81,0,0,0,20.93,20.95l38.55-38.57a14.79,14.79,0,0,0,0-20.94Z"/></svg>