<?xml version="1.0" encoding="iso-8859-1"?>
<!-- Generator: Adobe Illustrator 21.1.0, SVG Export Plug-In . SVG Version: 6.00 Build 0)  -->
<svg version="1.1" xmlns="http://www.w3.org/2000/svg" xmlns:xlink="http://www.w3.org/1999/xlink" x="0px" y="0px"
	 viewBox="0 0 50 50" style="enable-background:new 0 0 50 50;" xml:space="preserve">
<g id="StretchHistogram">
	<path style="fill:#5280DF;" d="M25,50C11.215,50,0,38.785,0,25C0,11.215,11.215,0,25,0c13.785,0,25,11.215,25,25
		C50,38.785,38.785,50,25,50z M25,1.905C12.265,1.905,1.905,12.265,1.905,25S12.265,48.095,25,48.095S48.095,37.735,48.095,25
		S37.735,1.905,25,1.905z"/>
	<path style="fill:#5280DF;" d="M13.096,30.012c-0.013,0-0.027,0-0.04-0.001c-0.525-0.022-0.934-0.465-0.912-0.991
		c0.096-2.315,1.34-6.694,5.358-6.694c2.792,0,3.86,1.921,4.64,3.324c0.709,1.276,1.079,1.795,1.89,1.795
		c1.865,0,2.505-3.473,3.124-6.831c0.767-4.165,1.561-8.471,5.068-8.471c5.635,0,5.635,10.534,5.635,16.193
		c0,0.526-0.426,0.952-0.952,0.952s-0.952-0.426-0.952-0.952c0-4.276,0-14.289-3.73-14.289c-1.922,0-2.569,3.514-3.195,6.912
		c-0.76,4.125-1.546,8.391-4.997,8.391c-2.011,0-2.867-1.538-3.554-2.775c-0.808-1.453-1.384-2.344-2.975-2.344
		c-3.214,0-3.453,4.82-3.455,4.868C14.026,29.611,13.604,30.012,13.096,30.012z"/>
	<path style="fill:#5280DF;" d="M15.575,37.857c-0.244,0-0.487-0.093-0.673-0.279l-2.48-2.48c-0.179-0.179-0.279-0.421-0.279-0.673
		s0.1-0.495,0.279-0.673l2.48-2.48c0.372-0.372,0.975-0.372,1.347,0c0.372,0.372,0.372,0.975,0,1.347l-1.807,1.807l1.807,1.807
		c0.372,0.372,0.372,0.975,0,1.347C16.063,37.764,15.819,37.857,15.575,37.857z"/>
	<path style="fill:#5280DF;" d="M34.425,37.857c-0.244,0-0.487-0.093-0.673-0.279c-0.372-0.372-0.372-0.975,0-1.347l1.807-1.807
		l-1.807-1.807c-0.372-0.372-0.372-0.975,0-1.347c0.372-0.372,0.975-0.372,1.347,0l2.48,2.48c0.372,0.372,0.372,0.975,0,1.347
		l-2.48,2.48C34.912,37.764,34.668,37.857,34.425,37.857z"/>
	<path style="fill:#5280DF;" d="M36.538,35.377H13.095c-0.526,0-0.952-0.426-0.952-0.952s0.426-0.952,0.952-0.952h23.443
		c0.526,0,0.952,0.426,0.952,0.952S37.064,35.377,36.538,35.377z"/>
</g>
<g id="Layer_1">
</g>
</svg>
