<svg id="Layer_1" data-name="Layer 1" xmlns="http://www.w3.org/2000/svg" xmlns:xlink="http://www.w3.org/1999/xlink" viewBox="0 0 612 612"><defs><style>.cls-1{stroke:#232323;stroke-miterlimit:10;fill:url(#linear-gradient);}</style><linearGradient id="linear-gradient" x1="305.99" y1="106.05" x2="305.99" y2="505.95" gradientUnits="userSpaceOnUse"><stop offset="0" stop-color="#fff"/><stop offset="0.6" stop-color="#e2e2e2"/><stop offset="1" stop-color="#ccc"/></linearGradient></defs><path id="StudyTimeLine" class="cls-1" d="M306,320.81H491A14.81,14.81,0,0,0,505.83,306V209.73A14.81,14.81,0,0,0,491,194.92H306a14.81,14.81,0,0,0-14.8,14.81v33.33H135.75V120.86a14.81,14.81,0,1,0-29.61,0V443a14.8,14.8,0,0,0,14.8,14.8H291.18v33.33A14.81,14.81,0,0,0,306,506H491a14.81,14.81,0,0,0,14.8-14.81V394.87A14.81,14.81,0,0,0,491,380.06H306a14.81,14.81,0,0,0-14.8,14.81v33.32H135.75V272.68H291.18V306A14.81,14.81,0,0,0,306,320.81Zm14.81,88.87H476.22v66.65H320.79V409.68Zm0-185.14H476.22v66.65H320.79V224.54Z"/></svg>