<svg id="Layer_1" data-name="Layer 1" xmlns="http://www.w3.org/2000/svg" xmlns:xlink="http://www.w3.org/1999/xlink" viewBox="0 0 612 612"><defs><style>.cls-1,.cls-2{stroke:#232323;stroke-miterlimit:10;}.cls-1{fill:url(#linear-gradient);}.cls-2{opacity:0.6;isolation:isolate;fill:url(#linear-gradient-2);}</style><linearGradient id="linear-gradient" x1="320.89" y1="181.88" x2="320.89" y2="456.13" gradientUnits="userSpaceOnUse"><stop offset="0" stop-color="#fff"/><stop offset="0.6" stop-color="#e2e2e2"/><stop offset="1" stop-color="#ccc"/></linearGradient><linearGradient id="linear-gradient-2" x1="308.79" y1="109.89" x2="308.79" y2="506.96" xlink:href="#linear-gradient"/></defs><g id="Synchronization"><path class="cls-1" d="M389.62,246.7a14.81,14.81,0,0,0,10.32-25.42A123.26,123.26,0,0,0,247.36,205.6l.62-7.72a14.8,14.8,0,1,0-29.51-2.37L215,238.85a14.8,14.8,0,0,0,13.57,16l43.32,3.48c.4,0,.8,0,1.2,0a14.81,14.81,0,0,0,1.17-29.57l-6.92-.57a93.47,93.47,0,0,1,112,14.29A14.65,14.65,0,0,0,389.62,246.7ZM283.69,377A14.8,14.8,0,1,0,257,389.75l3,6.27a93.59,93.59,0,0,1-43.61-104.16,14.8,14.8,0,1,0-28.69-7.29,123.37,123.37,0,0,0,62.72,140l-7,3.32a14.82,14.82,0,0,0,6.36,28.2,14.65,14.65,0,0,0,6.34-1.44L295.31,436a14.82,14.82,0,0,0,7-19.74Zm167.92-86.79-35.77-24.68a14.8,14.8,0,0,0-20.59,3.78l-24.68,35.78a14.8,14.8,0,1,0,24.37,16.81l3.93-5.71a93.54,93.54,0,0,1-68.34,89.85,14.82,14.82,0,0,0,4,29.08,15.11,15.11,0,0,0,4-.56,123.36,123.36,0,0,0,89.86-124.37l6.36,4.4a14.81,14.81,0,0,0,16.83-24.38Z"/><path class="cls-2" d="M316.2,507a14.81,14.81,0,0,1-.67-29.61c4.53-.21,9.09-.6,13.58-1.17a14.82,14.82,0,0,1,3.71,29.4c-5.24.67-10.6,1.13-15.91,1.38Zm-72.68-11a14.78,14.78,0,0,1-5.1-.92c-5-1.82-9.92-3.87-14.77-6.1A14.81,14.81,0,0,1,236,462c4.15,1.9,8.38,3.66,12.61,5.2a14.82,14.82,0,0,1-5.1,28.74Zm157.07-13.79a14.81,14.81,0,0,1-7.46-27.61c3.94-2.29,7.8-4.75,11.5-7.31a14.8,14.8,0,0,1,16.87,24.33c-4.33,3-8.87,5.88-13.48,8.58A14.65,14.65,0,0,1,400.59,482.12ZM170.48,446.84A14.71,14.71,0,0,1,159.54,442c-3.59-3.92-7.07-8-10.31-12.22a14.81,14.81,0,1,1,23.38-18.17c2.76,3.56,5.71,7.06,8.77,10.43a14.8,14.8,0,0,1-10.9,24.79ZM464,421.14a14.8,14.8,0,0,1-12.5-22.72c2.46-3.88,4.75-7.85,6.82-11.8a14.81,14.81,0,1,1,26.19,13.82c-2.46,4.63-5.14,9.28-8,13.81A14.73,14.73,0,0,1,464,421.14ZM128.33,369.63A14.81,14.81,0,0,1,114,358.58c-1.35-5.11-2.5-10.38-3.43-15.64a14.8,14.8,0,1,1,29.14-5.17c.79,4.48,1.78,9,2.92,13.27a14.82,14.82,0,0,1-10.55,18.1A15,15,0,0,1,128.33,369.63ZM491.86,337.7c-.4,0-.8,0-1.2-.05a14.81,14.81,0,0,1-13.58-15.95c.36-4.46.54-9,.54-13.6,0-1.73,0-3.46-.08-5.18a14.82,14.82,0,0,1,14.35-15.26A15,15,0,0,1,507.13,302q.09,3,.09,6.1c0,5.35-.2,10.72-.63,16A14.78,14.78,0,0,1,491.86,337.7ZM127,281.65a14.67,14.67,0,0,1-3.33-.38,14.83,14.83,0,0,1-11.12-17.75c1.2-5.2,2.62-10.39,4.22-15.45a14.8,14.8,0,1,1,28.21,9c-1.36,4.28-2.56,8.7-3.58,13.11A14.81,14.81,0,0,1,127,281.65Zm348.44-35.93A14.83,14.83,0,0,1,462,237.16c-1.93-4.13-4-8.21-6.22-12.12a14.8,14.8,0,1,1,25.76-14.59c2.59,4.58,5.05,9.37,7.31,14.21a14.79,14.79,0,0,1-13.42,21.06ZM166.74,203.17a14.82,14.82,0,0,1-11.22-24.47c3.45-4,7.11-7.94,10.9-11.69a14.81,14.81,0,0,1,20.84,21c-3.22,3.19-6.35,6.54-9.28,10A14.84,14.84,0,0,1,166.74,203.17Zm253.72-26.11a14.74,14.74,0,0,1-9-3.09c-3.54-2.72-7.27-5.37-11.1-7.86a14.8,14.8,0,0,1,16.13-24.82c4.5,2.93,8.9,6,13.06,9.25a14.79,14.79,0,0,1-9.06,26.52ZM238.29,152a14.81,14.81,0,0,1-5.51-28.55c4.9-2,10-3.77,15.06-5.35a14.81,14.81,0,0,1,8.79,28.29c-4.34,1.35-8.64,2.89-12.83,4.56A15.26,15.26,0,0,1,238.29,152ZM340,141.51a16.27,16.27,0,0,1-2.59-.22c-4.47-.79-9-1.41-13.5-1.84A14.81,14.81,0,0,1,326.75,110c5.27.5,10.59,1.23,15.83,2.15a14.81,14.81,0,0,1-2.56,29.4Z"/></g></svg>