<svg id="Layer_1" data-name="Layer 1" xmlns="http://www.w3.org/2000/svg" xmlns:xlink="http://www.w3.org/1999/xlink" viewBox="0 0 612 612"><defs><style>.cls-1,.cls-2{stroke:#232323;stroke-miterlimit:10;stroke-width:1.31px;}.cls-1{fill:url(#linear-gradient);}.cls-2{opacity:0.6;isolation:isolate;fill:url(#linear-gradient-2);}</style><linearGradient id="linear-gradient" x1="322.66" y1="131.77" x2="322.66" y2="509.37" gradientUnits="userSpaceOnUse"><stop offset="0" stop-color="#fafafa"/><stop offset="1" stop-color="#ebebeb"/></linearGradient><linearGradient id="linear-gradient-2" x1="306" y1="32.64" x2="306" y2="579.36" xlink:href="#linear-gradient"/></defs><g id="Synchronization"><path class="cls-1" d="M417.29,221a20.39,20.39,0,0,0,14.21-35,169.67,169.67,0,0,0-210.08-21.6l.85-10.62a20.39,20.39,0,1,0-40.64-3.27l-4.79,59.67a20.39,20.39,0,0,0,18.69,22L255.17,237q.83.06,1.65.06a20.4,20.4,0,0,0,1.61-40.73l-9.52-.77A128.66,128.66,0,0,1,403,215.2,20.29,20.29,0,0,0,417.29,221ZM271.43,400.45A20.38,20.38,0,1,0,234.63,418l4.09,8.64a128.87,128.87,0,0,1-60.05-143.42,20.38,20.38,0,1,0-39.5-10A169.88,169.88,0,0,0,225.53,466l-9.62,4.57a20.41,20.41,0,0,0,8.77,38.83,20.09,20.09,0,0,0,8.72-2l54-25.68a20.41,20.41,0,0,0,9.67-27.18ZM502.63,281l-49.24-34a20.39,20.39,0,0,0-28.36,5.2l-34,49.27a20.38,20.38,0,1,0,33.55,23.15l5.42-7.88a128.84,128.84,0,0,1-94.11,123.73,20.4,20.4,0,0,0,5.53,40,20.85,20.85,0,0,0,5.54-.77A169.85,169.85,0,0,0,470.71,308.46l8.76,6.05A20.39,20.39,0,0,0,502.63,281Z"/><path class="cls-2" d="M316.19,579.36a20.4,20.4,0,0,1-.91-40.77c6.24-.29,12.52-.83,18.69-1.61a20.4,20.4,0,0,1,5.11,40.48c-7.21.92-14.59,1.55-21.9,1.9ZM216.12,564.14a20.09,20.09,0,0,1-7-1.26c-6.83-2.51-13.66-5.32-20.34-8.4a20.39,20.39,0,0,1,17-37.06c5.71,2.61,11.54,5,17.37,7.16a20.41,20.41,0,0,1-7,39.56Zm216.27-19a20.4,20.4,0,0,1-10.27-38c5.42-3.16,10.74-6.54,15.84-10.07a20.38,20.38,0,0,1,23.21,33.51c-5.94,4.14-12.2,8.1-18.54,11.8A20.06,20.06,0,0,1,432.39,545.16ZM115.55,496.58a20.3,20.3,0,0,1-15.06-6.64c-4.93-5.41-9.72-11.06-14.19-16.83a20.39,20.39,0,1,1,32.19-25c3.81,4.89,7.86,9.72,12.08,14.35a20.38,20.38,0,0,1-15,34.14Zm404.1-35.38a20.39,20.39,0,0,1-17.2-31.28c3.38-5.35,6.54-10.81,9.39-16.26a20.39,20.39,0,1,1,36.06,19c-3.39,6.39-7.08,12.79-11,19A20.34,20.34,0,0,1,519.65,461.2ZM57.52,390.27a20.38,20.38,0,0,1-19.69-15.21c-1.85-7-3.44-14.3-4.73-21.54a20.38,20.38,0,1,1,40.14-7.11c1.08,6.16,2.44,12.31,4,18.27A20.41,20.41,0,0,1,62.72,389.6,20.73,20.73,0,0,1,57.52,390.27Zm500.53-44c-.54,0-1.1,0-1.65-.05a20.4,20.4,0,0,1-18.69-22c.49-6.14.74-12.44.74-18.72q0-3.58-.11-7.14a20.38,20.38,0,0,1,19.76-21,20.62,20.62,0,0,1,21,19.76q.12,4.19.12,8.4c0,7.36-.28,14.77-.88,22A20.32,20.32,0,0,1,558.05,346.3ZM55.73,269.14a20.22,20.22,0,0,1-4.59-.53,20.42,20.42,0,0,1-15.31-24.44c1.66-7.15,3.61-14.31,5.81-21.26a20.38,20.38,0,1,1,38.85,12.35c-1.87,5.9-3.52,12-4.93,18.05A20.4,20.4,0,0,1,55.73,269.14Zm479.76-49.48A20.41,20.41,0,0,1,517,207.87c-2.65-5.68-5.52-11.29-8.56-16.67a20.38,20.38,0,1,1,35.46-20.09c3.57,6.3,7,12.89,10.07,19.56a20.42,20.42,0,0,1-9.86,27.1A20.71,20.71,0,0,1,535.49,219.66ZM110.41,161.08A20.4,20.4,0,0,1,95,127.39c4.74-5.53,9.78-10.93,15-16.09a20.38,20.38,0,0,1,28.7,29c-4.45,4.41-8.75,9-12.78,13.75A20.44,20.44,0,0,1,110.41,161.08Zm349.34-36a20.32,20.32,0,0,1-12.44-4.24c-4.87-3.75-10-7.4-15.28-10.83a20.38,20.38,0,0,1,22.21-34.18c6.2,4,12.25,8.32,18,12.75a20.36,20.36,0,0,1-12.47,36.5ZM208.92,90.56a20.39,20.39,0,0,1-7.58-39.32c6.75-2.71,13.74-5.18,20.73-7.36a20.39,20.39,0,0,1,12.11,38.95c-6,1.85-11.91,4-17.67,6.28A21.12,21.12,0,0,1,208.92,90.56ZM349,76.18a21.8,21.8,0,0,1-3.57-.31c-6.15-1.08-12.39-1.94-18.58-2.53a20.39,20.39,0,0,1,3.89-40.6c7.25.69,14.57,1.69,21.78,3A20.4,20.4,0,0,1,349,76.18Z"/></g></svg>