<svg id="Layer_1" data-name="Layer 1" xmlns="http://www.w3.org/2000/svg" xmlns:xlink="http://www.w3.org/1999/xlink" viewBox="0 0 612 612"><defs><style>.cls-1{stroke:#232323;stroke-miterlimit:10;fill:url(#linear-gradient);}</style><linearGradient id="linear-gradient" x1="306" y1="106.05" x2="306" y2="505.95" gradientUnits="userSpaceOnUse"><stop offset="0" stop-color="#fff"/><stop offset="0.6" stop-color="#e2e2e2"/><stop offset="1" stop-color="#ccc"/></linearGradient></defs><path id="Text" class="cls-1" d="M491.05,106.05H121a14.82,14.82,0,0,0-14.81,14.81v80.42a14.81,14.81,0,1,0,29.61,0V135.67H291.2V476.33H234.83a14.81,14.81,0,0,0,0,29.62H377.17a14.81,14.81,0,0,0,0-29.62H320.79V135.67H476.23v65.61a14.81,14.81,0,1,0,29.61,0V120.86A14.8,14.8,0,0,0,491.05,106.05Z"/></svg>