<svg id="Layer_1" data-name="Layer 1" xmlns="http://www.w3.org/2000/svg" xmlns:xlink="http://www.w3.org/1999/xlink" viewBox="0 0 612 612"><defs><style>.cls-1{stroke:#232323;stroke-miterlimit:10;fill:url(#linear-gradient);}</style><linearGradient id="linear-gradient" x1="305.99" y1="106.05" x2="305.99" y2="505.97" gradientUnits="userSpaceOnUse"><stop offset="0" stop-color="#fff"/><stop offset="0.6" stop-color="#e2e2e2"/><stop offset="1" stop-color="#ccc"/></linearGradient></defs><path id="TextPointer" class="cls-1" d="M281,337.39H251.36V135.67h86v22.59a14.81,14.81,0,1,0,29.61,0v-37.4a14.81,14.81,0,0,0-14.8-14.81H120.94a14.81,14.81,0,0,0-14.8,14.81v37.4a14.81,14.81,0,1,0,29.61,0V135.67h86V337.38H192.07a14.82,14.82,0,0,0,0,29.63H281a14.81,14.81,0,0,0,0-29.62ZM501.49,480.67,387.89,367h54a14.82,14.82,0,0,0,0-29.63H352.16a14.87,14.87,0,0,0-2.9.3,11.29,11.29,0,0,0-1.29.39c-.49.14-1,.26-1.48.45a12.6,12.6,0,0,0-1.45.78c-.37.2-.74.35-1.1.59a14.82,14.82,0,0,0-4.1,4.1,10.65,10.65,0,0,0-.59,1.1,15.44,15.44,0,0,0-.77,1.45c-.19.49-.31,1-.46,1.48a11.88,11.88,0,0,0-.38,1.29,14.13,14.13,0,0,0-.3,2.9V442A14.81,14.81,0,1,0,367,442V388l113.6,113.66a14.81,14.81,0,0,0,20.94-21Z"/></svg>