<svg id="Layer_1" data-name="Layer 1" xmlns="http://www.w3.org/2000/svg" xmlns:xlink="http://www.w3.org/1999/xlink" viewBox="0 0 612 612"><defs><style>.cls-1,.cls-2{stroke:#232323;stroke-miterlimit:10;stroke-width:1.31px;}.cls-1{fill:url(#linear-gradient);}.cls-2{fill:url(#linear-gradient-2);}</style><linearGradient id="linear-gradient" x1="274.61" y1="48.99" x2="274.61" y2="540.68" gradientUnits="userSpaceOnUse"><stop offset="0" stop-color="#fafafa"/><stop offset="1" stop-color="#ebebeb"/></linearGradient><linearGradient id="linear-gradient-2" x1="403.33" y1="71.32" x2="403.33" y2="563.01" xlink:href="#linear-gradient"/></defs><path id="ToggleTags" class="cls-1" d="M332.87,176.86c0,1.48.08,3,.2,4.45a58.33,58.33,0,0,0,116.44-4.4c0-.42,0-.84,0-1.27a58.39,58.39,0,0,0-58.93-57.7h0A58.4,58.4,0,0,0,332.87,176.86ZM369.18,174a22.14,22.14,0,0,1,39.18-11.69,22.11,22.11,0,0,1-12.71,35.66,21.62,21.62,0,0,1-4.21.44A22.15,22.15,0,0,1,369.18,174Zm-36.31,2.89c0,1.48.08,3,.2,4.45a58.33,58.33,0,0,0,116.44-4.4c0-.42,0-.84,0-1.27a58.39,58.39,0,0,0-58.93-57.7h0A58.4,58.4,0,0,0,332.87,176.86ZM369.18,174a22.14,22.14,0,0,1,39.18-11.69,22.11,22.11,0,0,1-12.71,35.66,21.62,21.62,0,0,1-4.21.44A22.15,22.15,0,0,1,369.18,174ZM31.08,366.1a45.71,45.71,0,0,0,13.65,32.24l131,129.11a45.88,45.88,0,0,0,65.08-.58l12.78-13L507.67,254.47a36.49,36.49,0,0,0,10.47-26.05L516.62,85.27a36.2,36.2,0,0,0-2.8-13.64A36.63,36.63,0,0,0,479.58,49L336.36,50.51a36.49,36.49,0,0,0-25.81,11L44.17,333.46A45.78,45.78,0,0,0,31.08,366.1ZM70,358.78,336.38,86.84l34.41-.4L480,85.19l.31,23,.55,38.59,1.14,82-27.51,28.11L227.86,488.43,215,501.55a9.78,9.78,0,0,1-13.85.11L94.7,396.75l-24.57-24.2A9.8,9.8,0,0,1,70,358.78ZM332.87,176.86c0,1.48.08,3,.2,4.45a58.33,58.33,0,0,0,116.44-4.4c0-.42,0-.84,0-1.27a58.39,58.39,0,0,0-58.93-57.7h0A58.4,58.4,0,0,0,332.87,176.86ZM369.18,174a22.14,22.14,0,0,1,39.18-11.69,22.11,22.11,0,0,1-12.71,35.66,21.62,21.62,0,0,1-4.21.44A22.15,22.15,0,0,1,369.18,174Z"/><path class="cls-2" d="M225.73,537.14l12.82,12.64a45.94,45.94,0,0,0,65.08-.58L570.44,276.8a36.41,36.41,0,0,0,10.48-26.05L579.41,107.6a36.69,36.69,0,0,0-37-36.27l-28.54.3a36.2,36.2,0,0,1,2.8,13.64l.24,22.55,25.86-.3,2,143.62L277.81,523.88A9.79,9.79,0,0,1,264,524l-10.33-10.17-12.78,13A45.56,45.56,0,0,1,225.73,537.14Z"/></svg>