<svg id="Layer_1" data-name="Layer 1" xmlns="http://www.w3.org/2000/svg" xmlns:xlink="http://www.w3.org/1999/xlink" viewBox="0 0 612 612"><defs><style>.cls-1{stroke:#232323;stroke-miterlimit:10;stroke-width:1.31px;fill:url(#linear-gradient);}</style><linearGradient id="linear-gradient" x1="306" y1="30.66" x2="306" y2="581.34" gradientUnits="userSpaceOnUse"><stop offset="0" stop-color="#fafafa"/><stop offset="1" stop-color="#ebebeb"/></linearGradient></defs><path id="ToggleCinePaused" class="cls-1" d="M380.75,173.43a20.4,20.4,0,0,0-20.38,20.4V418.18a20.38,20.38,0,1,0,40.76,0V193.83A20.38,20.38,0,0,0,380.75,173.43Zm-149.5,0a20.4,20.4,0,0,0-20.38,20.4V418.18a20.38,20.38,0,1,0,40.76,0V193.83A20.4,20.4,0,0,0,231.25,173.43ZM306,30.66C154.26,30.66,30.81,154.18,30.81,306S154.26,581.34,306,581.34,581.19,457.82,581.19,306,457.74,30.66,306,30.66Zm0,509.89C176.74,540.55,71.58,435.33,71.58,306S176.74,71.46,306,71.46,540.42,176.68,540.42,306,435.26,540.55,306,540.55Z"/></svg>