<svg id="Layer_1" data-name="Layer 1" xmlns="http://www.w3.org/2000/svg" xmlns:xlink="http://www.w3.org/1999/xlink" viewBox="0 0 612 612"><defs><style>.cls-1{stroke:#232323;stroke-miterlimit:10;fill:url(#linear-gradient);}</style><linearGradient id="linear-gradient" x1="306" y1="106.07" x2="306" y2="505.93" gradientUnits="userSpaceOnUse"><stop offset="0" stop-color="#fff"/><stop offset="0.6" stop-color="#e2e2e2"/><stop offset="1" stop-color="#ccc"/></linearGradient></defs><path id="ToggleCinePaused" class="cls-1" d="M360.28,209.74a14.81,14.81,0,0,0-14.8,14.81V387.46a14.8,14.8,0,1,0,29.6,0V224.54A14.79,14.79,0,0,0,360.28,209.74Zm-108.56,0a14.81,14.81,0,0,0-14.8,14.81V387.46a14.8,14.8,0,1,0,29.6,0V224.54A14.8,14.8,0,0,0,251.72,209.74ZM306,106.07c-110.19,0-199.83,89.68-199.83,199.93S195.81,505.93,306,505.93,505.83,416.25,505.83,306,416.19,106.07,306,106.07Zm0,370.24c-93.86,0-170.22-76.4-170.22-170.31S212.14,135.69,306,135.69,476.22,212.09,476.22,306,399.86,476.31,306,476.31Z"/></svg>