<svg id="Layer_1" data-name="Layer 1" xmlns="http://www.w3.org/2000/svg" xmlns:xlink="http://www.w3.org/1999/xlink" viewBox="0 0 612 612"><defs><style>.cls-1{stroke:#232323;stroke-miterlimit:10;fill:url(#linear-gradient);}</style><linearGradient id="linear-gradient" x1="305.98" y1="106.05" x2="305.98" y2="505.95" gradientUnits="userSpaceOnUse"><stop offset="0" stop-color="#fff"/><stop offset="0.6" stop-color="#e2e2e2"/><stop offset="1" stop-color="#ccc"/></linearGradient></defs><path id="ToggleCine" class="cls-1" d="M381.67,294.29,276.3,212.83a14.8,14.8,0,0,0-23.84,11.73V387.48a14.8,14.8,0,0,0,23.84,11.73l105.37-81.46a14.82,14.82,0,0,0,0-23.46Zm-99.61,63V254.7L348.41,306ZM306,106.05c-110.19,0-199.84,89.7-199.84,200S195.79,506,306,506,505.83,416.25,505.83,306,416.18,106.05,306,106.05Zm0,370.28c-93.86,0-170.23-76.41-170.23-170.33S212.12,135.67,306,135.67,476.22,212.08,476.22,306,399.85,476.33,306,476.33Z"/></svg>