<svg id="Layer_1" data-name="Layer 1" xmlns="http://www.w3.org/2000/svg" xmlns:xlink="http://www.w3.org/1999/xlink" viewBox="0 0 612 612"><defs><style>.cls-1,.cls-2,.cls-3{stroke:#232323;stroke-miterlimit:10;stroke-width:1.31px;}.cls-1{fill:url(#linear-gradient);}.cls-2{fill:url(#linear-gradient-2);}.cls-3{fill:url(#linear-gradient-3);}</style><linearGradient id="linear-gradient" x1="203.22" y1="59.36" x2="203.22" y2="552.64" gradientUnits="userSpaceOnUse"><stop offset="0" stop-color="#fafafa"/><stop offset="1" stop-color="#ebebeb"/></linearGradient><linearGradient id="linear-gradient-2" x1="461.22" y1="82.92" x2="461.22" y2="526.24" xlink:href="#linear-gradient"/><linearGradient id="linear-gradient-3" x1="559.72" y1="82.92" x2="559.72" y2="526.24" xlink:href="#linear-gradient"/></defs><path class="cls-1" d="M361.35,276,91.43,67.29A37.91,37.91,0,0,0,30.34,97.34V514.69a37.92,37.92,0,0,0,61.09,30L361.35,336.06a38,38,0,0,0,0-60.1Z"/><path class="cls-2" d="M482.86,104.73l.3,399.72a21.8,21.8,0,0,1-43.59,0l-.3-399.71a21.8,21.8,0,1,1,43.59,0Z"/><path class="cls-3" d="M581.36,104.73l.3,399.72a21.79,21.79,0,1,1-43.58,0l-.3-399.71a21.79,21.79,0,1,1,43.58,0Z"/></svg>