<svg id="Layer_1" data-name="Layer 1" xmlns="http://www.w3.org/2000/svg" xmlns:xlink="http://www.w3.org/1999/xlink" viewBox="0 0 612 612"><defs><style>.cls-1{stroke:#232323;stroke-miterlimit:10;fill:url(#linear-gradient);}</style><linearGradient id="linear-gradient" x1="306.2" y1="106.23" x2="306.2" y2="506.13" gradientUnits="userSpaceOnUse"><stop offset="0" stop-color="#fff"/><stop offset="0.6" stop-color="#e2e2e2"/><stop offset="1" stop-color="#ccc"/></linearGradient></defs><path id="ToggleGrid" class="cls-1" d="M491.25,106.23H121.16A14.81,14.81,0,0,0,106.36,121V491.32a14.81,14.81,0,0,0,14.8,14.81H491.25a14.81,14.81,0,0,0,14.8-14.81V121A14.81,14.81,0,0,0,491.25,106.23Zm-224,238.53V267.23h77.52v77.53Zm77.52,24.48v77.52H267.22V369.24Zm-179.52-102h77.52v77.52H165.22Zm102-24.48V165.23h77.52v77.52Zm102,24.48h77.52v77.52H369.23V267.23Zm77.53-24.48H369.24V165.23h77.52Zm-204-77.52v77.52H165.22V165.23Zm-77.52,204h77.52v77.52H165.22Zm204,77.53V369.25h77.52v77.52Z"/></svg>