<svg id="Layer_1" data-name="Layer 1" xmlns="http://www.w3.org/2000/svg" xmlns:xlink="http://www.w3.org/1999/xlink" viewBox="0 0 612 612"><defs><style>.cls-1{stroke:#232323;stroke-miterlimit:10;fill:url(#linear-gradient);}</style><linearGradient id="linear-gradient" x1="306.22" y1="106.24" x2="306.22" y2="506.09" gradientUnits="userSpaceOnUse"><stop offset="0" stop-color="#fff"/><stop offset="0.6" stop-color="#e2e2e2"/><stop offset="1" stop-color="#ccc"/></linearGradient></defs><path id="ToggleTags" class="cls-1" d="M106.4,136.22V253.34a29.86,29.86,0,0,0,8.79,21.22L335.82,495.08a37.59,37.59,0,0,0,53.24-.08L495.14,388.25a37.65,37.65,0,0,0-.11-53.08L274.78,115a29.81,29.81,0,0,0-21.21-8.78H136.39A30,30,0,0,0,106.4,136.22ZM253.86,136,474.12,356.11a8,8,0,0,1,0,11.25L368.06,474.11a8,8,0,0,1-11.34,0L136,253.34l.4-117.5Zm3.66,73.62a47.73,47.73,0,1,0-47.72,47.71A47.78,47.78,0,0,0,257.52,209.58Zm-65.86,0a18.12,18.12,0,1,1,18.12,18.1A18.13,18.13,0,0,1,191.66,209.58Z"/></svg>