<svg id="Layer_1" data-name="Layer 1" xmlns="http://www.w3.org/2000/svg" xmlns:xlink="http://www.w3.org/1999/xlink" viewBox="0 0 612 612"><defs><style>.cls-1{stroke:#232323;stroke-miterlimit:10;fill:url(#linear-gradient);}</style><linearGradient id="linear-gradient" x1="306.26" y1="106.25" x2="306.26" y2="506.21" gradientUnits="userSpaceOnUse"><stop offset="0" stop-color="#fff"/><stop offset="0.6" stop-color="#e2e2e2"/><stop offset="1" stop-color="#ccc"/></linearGradient></defs><path id="Tools" class="cls-1" d="M495.83,416.3a7.87,7.87,0,0,0-.57-.59L379.48,300l9.44-9.44c17.6,4.27,55.48,7.9,89.17-25.8,44.94-44.94,22.61-96.42,21.63-98.58a14.78,14.78,0,0,0-24-4.4l-31.41,31.44L419.07,168l31.29-31.52a14.82,14.82,0,0,0-4.51-24c-2.17-1-53.57-23-98.47,22-33.7,33.69-29.95,71.45-25.61,89.06l-9,9a14.76,14.76,0,0,0-16.64,2.94L287.55,244,221,177.25,211.18,147a14.9,14.9,0,0,0-6.27-8l-49.12-30.51a14.81,14.81,0,0,0-18.28,2.12L110.7,137.44a14.82,14.82,0,0,0-2.1,18.29l30.52,49.13a14.79,14.79,0,0,0,8,6.28l30.17,9.78,66.6,66.81-8.65,8.65a14.79,14.79,0,0,0-4.33,10.47,14.57,14.57,0,0,0,1.39,6.16L118,427.35a42.92,42.92,0,0,0-10.51,19.35c-2.12,8.71-3,26,14.64,43.64,11.56,11.57,23.55,15.81,34.24,15.79a41.43,41.43,0,0,0,28.73-11.64L299.92,379.64,415.71,495.33l.56.54c5.63,5.05,15.86,10.35,28.53,10.34,12.24,0,26.75-4.94,41.58-19.76C516.55,456.28,505.74,427.37,495.83,416.3ZM349,238.14a14.82,14.82,0,0,0,3.15-16.29c-.15-.35-14.68-35.64,16.15-66.47,14-14,28.76-18.56,40.74-19.36l-21.39,21.55a14.83,14.83,0,0,0,0,20.91l46.17,46.2a15.24,15.24,0,0,0,20.95,0l21.56-21.6c-.72,12-5.22,26.78-19.21,40.78-30.44,30.44-65.33,16.88-66.71,16.35a14.78,14.78,0,0,0-16.19,3.19l-15.72,15.72-3.66-3.65a14.79,14.79,0,0,0-10.46-4.33H334.14V258.57a14.94,14.94,0,0,0-.83-4.7ZM164.23,473.55c-2,2-9.4,7.57-21.12-4.15-10.12-10.11-7.72-17.16-4.15-21.1l98.19-98.25a14.75,14.75,0,0,0,8.81,3h12.58v10.28a14.83,14.83,0,0,0,4.34,10.47l.52.52Zm301.23-8C449.3,481.69,439,476.08,436.23,474L300.61,338.46v-19a14.8,14.8,0,0,0-14.8-14.8h0l-17,0,6.44-6.44s0,0,.06-.06L298,275.46h0l6.49-6.49,0,17a14.82,14.82,0,0,0,14.81,14.82h19l9.61,9.6c.06.06.1.13.16.19l.19.16L473.79,436.14C476.2,439.32,481.35,449.6,465.46,465.52Zm-127.34-144a11.11,11.11,0,0,0-15.69,15.73L440.91,455.57a11.11,11.11,0,0,0,15.69-15.73Z"/></svg>