<?xml version="1.0" encoding="iso-8859-1"?>
<!-- Generator: Adobe Illustrator 21.1.0, SVG Export Plug-In . SVG Version: 6.00 Build 0)  -->
<svg version="1.1" xmlns="http://www.w3.org/2000/svg" xmlns:xlink="http://www.w3.org/1999/xlink" x="0px" y="0px"
	 viewBox="0 0 50 50" style="enable-background:new 0 0 50 50;" xml:space="preserve">
<g id="TrueSizeDisplay">
	<path style="fill:#5280DF;" d="M25,50C11.215,50,0,38.785,0,25C0,11.215,11.215,0,25,0c13.785,0,25,11.215,25,25
		C50,38.785,38.785,50,25,50z M25,1.905C12.265,1.905,1.905,12.265,1.905,25S12.265,48.095,25,48.095S48.095,37.735,48.095,25
		S37.735,1.905,25,1.905z"/>
	<path style="fill:#5280DF;" d="M34.524,37.857H15.476c-1.838,0-3.333-1.496-3.333-3.333V15.476c0-1.838,1.495-3.333,3.333-3.333
		h19.048c1.838,0,3.333,1.495,3.333,3.333v19.048C37.857,36.362,36.362,37.857,34.524,37.857z M15.476,14.048
		c-0.788,0-1.429,0.641-1.429,1.429v19.048c0,0.788,0.641,1.429,1.429,1.429h19.048c0.788,0,1.429-0.641,1.429-1.429V15.476
		c0-0.788-0.641-1.429-1.429-1.429H15.476z"/>
	<path style="fill:#5280DF;" d="M20.298,32.103c-0.526,0-0.952-0.426-0.952-0.952V18.849c0-0.526,0.426-0.952,0.952-0.952
		c0.526,0,0.952,0.426,0.952,0.952v12.302C21.25,31.677,20.824,32.103,20.298,32.103z"/>
	<path style="fill:#5280DF;" d="M29.702,32.103c-0.526,0-0.952-0.426-0.952-0.952V18.849c0-0.526,0.426-0.952,0.952-0.952
		c0.526,0,0.952,0.426,0.952,0.952v12.302C30.655,31.677,30.228,32.103,29.702,32.103z"/>
	<path style="fill:#5280DF;" d="M25.504,22.924h-1.008c-0.433,0-0.783-0.351-0.783-0.783v-1.008c0-0.433,0.351-0.783,0.783-0.783
		h1.008c0.433,0,0.783,0.351,0.783,0.783v1.008C26.287,22.573,25.936,22.924,25.504,22.924z"/>
	<path style="fill:#5280DF;" d="M25.504,29.65h-1.008c-0.433,0-0.783-0.351-0.783-0.783v-1.008c0-0.433,0.351-0.783,0.783-0.783
		h1.008c0.433,0,0.783,0.351,0.783,0.783v1.008C26.287,29.3,25.936,29.65,25.504,29.65z"/>
</g>
<g id="Layer_1">
</g>
</svg>
