<svg id="Layer_1" data-name="Layer 1" xmlns="http://www.w3.org/2000/svg" xmlns:xlink="http://www.w3.org/1999/xlink" viewBox="0 0 612 612"><defs><style>.cls-1{stroke:#232323;stroke-miterlimit:10;fill:url(#linear-gradient);}</style><linearGradient id="linear-gradient" x1="306" y1="106.05" x2="306" y2="505.95" gradientUnits="userSpaceOnUse"><stop offset="0" stop-color="#fff"/><stop offset="0.6" stop-color="#e2e2e2"/><stop offset="1" stop-color="#ccc"/></linearGradient></defs><path id="TrueSizeDisplay" class="cls-1" d="M454,106.05H158a51.89,51.89,0,0,0-51.82,51.84V454.11A51.89,51.89,0,0,0,158,506H454a51.89,51.89,0,0,0,51.82-51.84V157.89A51.89,51.89,0,0,0,454,106.05Zm22.21,348.06A22.25,22.25,0,0,1,454,476.33H158a22.24,22.24,0,0,1-22.21-22.22V157.89A22.24,22.24,0,0,1,158,135.67H454a22.25,22.25,0,0,1,22.21,22.22ZM232.9,195.54a14.81,14.81,0,0,0-14.8,14.81V401.67a14.8,14.8,0,1,0,29.6,0V210.35A14.79,14.79,0,0,0,232.9,195.54Zm146.18,0a14.81,14.81,0,0,0-14.8,14.81V401.67a14.81,14.81,0,1,0,29.61,0V210.35A14.8,14.8,0,0,0,379.08,195.54ZM318.6,338.29H293.39a7.4,7.4,0,0,0-7.4,7.4v25.23a7.4,7.4,0,0,0,7.4,7.4H318.6a7.4,7.4,0,0,0,7.4-7.4V345.69A7.4,7.4,0,0,0,318.6,338.29Zm0-104.61H293.39a7.4,7.4,0,0,0-7.4,7.4v25.23a7.4,7.4,0,0,0,7.4,7.4H318.6a7.41,7.41,0,0,0,7.4-7.4V241.08A7.39,7.39,0,0,0,318.6,233.68Z"/></svg>