<svg id="Layer_1" data-name="Layer 1" xmlns="http://www.w3.org/2000/svg" xmlns:xlink="http://www.w3.org/1999/xlink" viewBox="0 0 612 612"><defs><style>.cls-1{stroke:#232323;stroke-miterlimit:10;stroke-width:1.31px;fill:url(#linear-gradient);}</style><linearGradient id="linear-gradient" x1="306" y1="30.66" x2="306" y2="581.34" gradientUnits="userSpaceOnUse"><stop offset="0" stop-color="#fafafa"/><stop offset="1" stop-color="#ebebeb"/></linearGradient></defs><path id="TrueSizeDisplay" class="cls-1" d="M509.85,30.66H102.15a71.44,71.44,0,0,0-71.34,71.39V510a71.44,71.44,0,0,0,71.34,71.38h407.7A71.44,71.44,0,0,0,581.19,510V102.05A71.44,71.44,0,0,0,509.85,30.66ZM540.42,510a30.62,30.62,0,0,1-30.57,30.59H102.15A30.62,30.62,0,0,1,71.58,510V102.05a30.62,30.62,0,0,1,30.57-30.6h407.7a30.63,30.63,0,0,1,30.57,30.6ZM205.34,153.89A20.4,20.4,0,0,0,185,174.29V437.74a20.39,20.39,0,1,0,40.77,0V174.29A20.38,20.38,0,0,0,205.34,153.89Zm201.3,0a20.41,20.41,0,0,0-20.39,20.4V437.74a20.39,20.39,0,1,0,40.77,0V174.29A20.37,20.37,0,0,0,406.64,153.89ZM323.35,350.46H288.63a10.2,10.2,0,0,0-10.19,10.2v34.73a10.2,10.2,0,0,0,10.19,10.2h34.72a10.2,10.2,0,0,0,10.19-10.2V360.66A10.19,10.19,0,0,0,323.35,350.46Zm0-144H288.63a10.2,10.2,0,0,0-10.19,10.19v34.74a10.2,10.2,0,0,0,10.19,10.2h34.72a10.2,10.2,0,0,0,10.19-10.2V216.61A10.19,10.19,0,0,0,323.35,206.41Z"/></svg>