<?xml version="1.0" encoding="iso-8859-1"?>
<!-- Generator: Adobe Illustrator 21.1.0, SVG Export Plug-In . SVG Version: 6.00 Build 0)  -->
<svg version="1.1" xmlns="http://www.w3.org/2000/svg" xmlns:xlink="http://www.w3.org/1999/xlink" x="0px" y="0px"
	 viewBox="0 0 50 50" style="enable-background:new 0 0 50 50;" xml:space="preserve">
<g id="UnLinked">
	<path style="fill:#5280DF;" d="M25,50C11.215,50,0,38.785,0,25C0,11.215,11.215,0,25,0c13.785,0,25,11.215,25,25
		C50,38.785,38.785,50,25,50z M25,1.905C12.265,1.905,1.905,12.265,1.905,25S12.265,48.095,25,48.095S48.095,37.735,48.095,25
		S37.735,1.905,25,1.905z"/>
	<path style="fill:#5280DF;" d="M19.52,36.894c-1.713,0-3.324-0.667-4.535-1.879s-1.879-2.822-1.879-4.535
		c0-1.713,0.667-3.324,1.879-4.535l1.589-1.589c0.372-0.372,0.975-0.372,1.347,0c0.372,0.372,0.372,0.975,0,1.347l-1.589,1.589
		c-0.851,0.852-1.321,1.984-1.321,3.189c0,1.205,0.469,2.337,1.321,3.189c0.852,0.852,1.984,1.321,3.189,1.321
		c1.205,0,2.337-0.469,3.189-1.321l1.589-1.589c0.372-0.372,0.975-0.372,1.347,0c0.372,0.372,0.372,0.975,0,1.347l-1.589,1.589
		C22.844,36.227,21.233,36.894,19.52,36.894z"/>
	<path style="fill:#5280DF;" d="M32.753,25.924c-0.244,0-0.487-0.093-0.673-0.279c-0.372-0.372-0.372-0.975,0-1.347l1.589-1.589
		c1.758-1.758,1.758-4.619,0-6.378c-0.851-0.852-1.984-1.321-3.189-1.321c-1.204,0-2.337,0.469-3.189,1.321l-1.589,1.589
		c-0.372,0.372-0.975,0.372-1.347,0c-0.372-0.372-0.372-0.975,0-1.347l1.589-1.589c1.211-1.211,2.822-1.879,4.535-1.879
		c1.714,0,3.324,0.667,4.535,1.879c2.501,2.501,2.501,6.57,0,9.071l-1.589,1.589C33.24,25.831,32.997,25.924,32.753,25.924z"/>
	<path style="fill:#5280DF;" d="M21.5,29.452c-0.244,0-0.488-0.093-0.673-0.279c-0.372-0.372-0.372-0.975,0-1.347l7-7
		c0.372-0.372,0.975-0.372,1.347,0c0.372,0.372,0.372,0.975,0,1.347l-7,7C21.988,29.359,21.744,29.452,21.5,29.452z"/>
	<path style="fill:#5280DF;" d="M31.261,37.857c-0.343,0-0.673-0.185-0.844-0.509l-2.234-4.247c-0.245-0.465-0.066-1.041,0.4-1.286
		c0.466-0.245,1.041-0.065,1.286,0.4l2.234,4.247c0.245,0.465,0.066,1.041-0.4,1.286C31.562,37.822,31.41,37.857,31.261,37.857z"/>
	<path style="fill:#5280DF;" d="M20.975,18.298c-0.342,0-0.673-0.185-0.844-0.509l-2.235-4.25c-0.245-0.465-0.066-1.041,0.4-1.286
		c0.465-0.244,1.041-0.066,1.286,0.4l2.235,4.25c0.245,0.465,0.066,1.041-0.4,1.286C21.277,18.262,21.125,18.298,20.975,18.298z"/>
	<path style="fill:#5280DF;" d="M17.342,21.926c-0.15,0-0.301-0.035-0.442-0.11l-4.248-2.234c-0.466-0.245-0.645-0.821-0.4-1.286
		c0.245-0.466,0.821-0.645,1.286-0.4l4.248,2.234c0.466,0.245,0.645,0.821,0.4,1.286C18.015,21.741,17.685,21.926,17.342,21.926z"/>
	<path style="fill:#5280DF;" d="M36.904,32.213c-0.149,0-0.301-0.035-0.442-0.109l-4.246-2.233c-0.465-0.245-0.645-0.821-0.4-1.286
		c0.245-0.465,0.82-0.645,1.286-0.4l4.246,2.233c0.465,0.245,0.645,0.821,0.4,1.286C37.577,32.028,37.247,32.213,36.904,32.213z"/>
</g>
<g id="Layer_1">
</g>
</svg>
