<svg id="Layer_1" data-name="Layer 1" xmlns="http://www.w3.org/2000/svg" xmlns:xlink="http://www.w3.org/1999/xlink" viewBox="0 0 612 612"><defs><style>.cls-1{stroke:#232323;stroke-miterlimit:10;fill:url(#linear-gradient);}</style><linearGradient id="linear-gradient" x1="306.2" y1="106.25" x2="306.2" y2="506.13" gradientUnits="userSpaceOnUse"><stop offset="0" stop-color="#fff"/><stop offset="0.6" stop-color="#e2e2e2"/><stop offset="1" stop-color="#ccc"/></linearGradient></defs><path id="UnLinked" class="cls-1" d="M295.3,416.28,270.59,441a70.11,70.11,0,0,1-99.13-99.18l24.71-24.7a14.81,14.81,0,1,0-20.93-20.95l-24.71,24.72a99.72,99.72,0,1,0,141,141.06l24.71-24.7a14.81,14.81,0,0,0-20.93-21Zm21.81-220.19,24.7-24.72a70.11,70.11,0,1,1,99.12,99.18l-24.69,24.72a14.81,14.81,0,0,0,20.93,21l24.69-24.72a99.72,99.72,0,1,0-141-141.08l-24.71,24.72a14.81,14.81,0,0,0,20.94,21Zm33,45.18L241.34,350.14a14.8,14.8,0,1,0,20.93,20.94l108.8-108.86a14.81,14.81,0,0,0-20.93-21Zm31.75,177.1a14.81,14.81,0,1,0-26.21,13.79l34.71,66a14.8,14.8,0,1,0,26.2-13.79ZM230.53,194a14.81,14.81,0,0,0,26.22-13.78L222,114.16a14.8,14.8,0,1,0-26.2,13.78Zm-43.36,64.35a14.81,14.81,0,0,0,6.9-27.92l-66-34.73A14.81,14.81,0,0,0,114.28,222l66,34.73A14.76,14.76,0,0,0,187.17,258.38Zm311,132-66-34.73a14.81,14.81,0,0,0-13.78,26.23l66,34.73a14.81,14.81,0,0,0,13.78-26.23Z"/></svg>