<svg id="Layer_1" data-name="Layer 1" xmlns="http://www.w3.org/2000/svg" xmlns:xlink="http://www.w3.org/1999/xlink" viewBox="0 0 612 612"><defs><style>.cls-1,.cls-2,.cls-3,.cls-4{stroke:#232323;stroke-miterlimit:10;}.cls-1{fill:url(#linear-gradient);}.cls-2{fill:url(#linear-gradient-2);}.cls-3{fill:url(#linear-gradient-3);}.cls-4{fill:url(#linear-gradient-4);}</style><linearGradient id="linear-gradient" x1="311.36" y1="71.98" x2="311.36" y2="376" gradientUnits="userSpaceOnUse"><stop offset="0" stop-color="#fff"/><stop offset="0.6" stop-color="#e2e2e2"/><stop offset="1" stop-color="#ccc"/></linearGradient><linearGradient id="linear-gradient-2" x1="201.1" y1="421.9" x2="201.1" y2="540.7" xlink:href="#linear-gradient"/><linearGradient id="linear-gradient-3" x1="321.4" y1="421.71" x2="321.4" y2="540.7" xlink:href="#linear-gradient"/><linearGradient id="linear-gradient-4" x1="426.15" y1="421.9" x2="426.15" y2="540.7" xlink:href="#linear-gradient"/></defs><path class="cls-1" d="M445,152.2a6.15,6.15,0,0,0,0-2.7V148a7.71,7.71,0,0,0-3.1-3.1L314.4,73.1a8.4,8.4,0,0,0-8.4,0l-125.6,72h0l-1.3,1.3a4.46,4.46,0,0,0-2.2,3.7,8.1,8.1,0,0,0,0,2.2V295.6a8.28,8.28,0,0,0,4.2,7.2l126.4,72a7.87,7.87,0,0,0,4.2,1.2,8.68,8.68,0,0,0,4.2-1h0l125.8-72a8.24,8.24,0,0,0,4.2-7.1V152.7h0ZM302.2,353.3l-109.6-62V167.1L302,229.6Zm8.2-138.6-81.1-46.2-28.4-16.2L310.4,89.9l109.5,62.4Zm117.4,76.6L318.9,353.7v-124l108.3-62.2h0Z"/><g id="VRT"><path class="cls-2" d="M185.4,540.7,139.6,421.9h28.7l32.9,91.3,32.7-91.3h28.7L217,540.7Z"/><path class="cls-3" d="M340.7,540.7l-23.4-42.3H298.9v42.2H273.6V421.8H329a36.91,36.91,0,0,1,39.3,34.3c.1,1.4.1,2.8.1,4.1a34.16,34.16,0,0,1-25.9,35.3L369.2,540Zm2.5-80.5A16.11,16.11,0,0,0,327,444.1a9.15,9.15,0,0,0-1.6.1H298.9v32.1h26.5A16.22,16.22,0,0,0,343,461.7c0-.5.1-.9.1-1.4h.1Z"/><path class="cls-4" d="M412.8,540.7V444.2H378.9V421.9h94.5v22.3H438.9v96.5Z"/></g></svg>