<svg id="Layer_1" data-name="Layer 1" xmlns="http://www.w3.org/2000/svg" xmlns:xlink="http://www.w3.org/1999/xlink" viewBox="0 0 612 612"><defs><style>.cls-1{stroke:#232323;stroke-miterlimit:10;fill:url(#linear-gradient);}</style><linearGradient id="linear-gradient" x1="306.19" y1="106.23" x2="306.19" y2="506.13" gradientUnits="userSpaceOnUse"><stop offset="0" stop-color="#fff"/><stop offset="0.6" stop-color="#e2e2e2"/><stop offset="1" stop-color="#ccc"/></linearGradient></defs><path id="WaveformBasicAudio" class="cls-1" d="M296.66,107.19a14.82,14.82,0,0,0-16.33,4L181.12,222.87h-60a14.81,14.81,0,0,0-14.8,14.81v137a14.81,14.81,0,0,0,14.8,14.81h60l99.21,111.68a14.81,14.81,0,0,0,25.88-9.85V121A14.84,14.84,0,0,0,296.66,107.19ZM276.6,452.36l-77.76-87.52a14.84,14.84,0,0,0-11.06-5H136V252.5h51.81a14.74,14.74,0,0,0,11.06-5L276.6,160ZM359,111.4a14.81,14.81,0,0,0-6.69,28.85c74.28,17.24,124.19,83.92,124.19,165.91S426.51,454.87,352.22,472.09a14.81,14.81,0,0,0,3.31,29.24,14.33,14.33,0,0,0,3.36-.39C446.91,480.53,506,402.26,506,306.16S446.94,131.84,359,111.4Zm-6.73,283a14.81,14.81,0,0,0,3.33,29.24,14.39,14.39,0,0,0,3.36-.39c51.91-12,85.46-58,85.46-117s-33.55-105-85.44-117A14.81,14.81,0,0,0,352.24,218c38,8.81,62.53,43.43,62.53,88.19S390.22,385.55,352.22,394.36Z"/></svg>