<?xml version="1.0" encoding="iso-8859-1"?>
<!-- Generator: Adobe Illustrator 21.1.0, SVG Export Plug-In . SVG Version: 6.00 Build 0)  -->
<svg version="1.1" xmlns="http://www.w3.org/2000/svg" xmlns:xlink="http://www.w3.org/1999/xlink" x="0px" y="0px"
	 viewBox="0 0 50 50" style="enable-background:new 0 0 50 50;" xml:space="preserve">
<g id="WaveformBasicAudio">
	<path style="fill:#5280DF;" d="M25,50C11.215,50,0,38.785,0,25C0,11.215,11.215,0,25,0c13.785,0,25,11.215,25,25
		C50,38.785,38.785,50,25,50z M25,1.905C12.265,1.905,1.905,12.265,1.905,25S12.265,48.095,25,48.095S48.095,37.735,48.095,25
		S37.735,1.905,25,1.905z"/>
	<path style="fill:#5280DF;" d="M24.048,37.857c-0.267,0-0.528-0.112-0.712-0.319l-6.383-7.181h-3.858
		c-0.526,0-0.952-0.426-0.952-0.952v-8.81c0-0.526,0.426-0.952,0.952-0.952h3.858l6.383-7.18c0.263-0.296,0.68-0.398,1.05-0.258
		C24.756,12.346,25,12.7,25,13.095v23.81c0,0.395-0.244,0.75-0.614,0.89C24.276,37.837,24.161,37.857,24.048,37.857z M14.048,28.452
		h3.333c0.272,0,0.531,0.116,0.712,0.319l5.003,5.628V15.6l-5.003,5.628c-0.181,0.203-0.44,0.32-0.712,0.32h-3.333V28.452z"/>
	<path style="fill:#5280DF;" d="M28.174,37.55c-0.433,0-0.825-0.297-0.927-0.738c-0.119-0.512,0.2-1.024,0.713-1.143
		c4.78-1.108,7.992-5.396,7.992-10.67c0-5.273-3.211-9.56-7.99-10.669c-0.512-0.119-0.831-0.631-0.712-1.143
		c0.119-0.513,0.632-0.831,1.143-0.712c5.661,1.313,9.464,6.347,9.464,12.524c0,6.179-3.804,11.213-9.467,12.525
		C28.318,37.542,28.245,37.55,28.174,37.55z"/>
	<path style="fill:#5280DF;" d="M28.174,32.551c-0.433,0-0.825-0.297-0.927-0.737c-0.119-0.512,0.2-1.024,0.712-1.143
		c2.445-0.567,4.024-2.793,4.024-5.67c0-2.877-1.579-5.103-4.023-5.67c-0.512-0.119-0.831-0.631-0.712-1.143
		c0.119-0.513,0.631-0.83,1.143-0.712c3.339,0.775,5.497,3.729,5.497,7.526c0,3.797-2.158,6.752-5.499,7.526
		C28.318,32.543,28.245,32.551,28.174,32.551z"/>
</g>
<g id="Layer_1">
</g>
</svg>
