<?xml version="1.0" encoding="iso-8859-1"?>
<!-- Generator: Adobe Illustrator 21.1.0, SVG Export Plug-In . SVG Version: 6.00 Build 0)  -->
<svg version="1.1" xmlns="http://www.w3.org/2000/svg" xmlns:xlink="http://www.w3.org/1999/xlink" x="0px" y="0px"
	 viewBox="0 0 50 50" style="enable-background:new 0 0 50 50;" xml:space="preserve">
<g id="WindowLevel">
	<path style="fill:#5280DF;" d="M25,50C11.215,50,0,38.785,0,25C0,11.215,11.215,0,25,0c13.785,0,25,11.215,25,25
		C50,38.785,38.785,50,25,50z M25,1.905C12.265,1.905,1.905,12.265,1.905,25S12.265,48.095,25,48.095S48.095,37.735,48.095,25
		S37.735,1.905,25,1.905z"/>
	<path style="fill:#5280DF;" d="M25,37.857c-0.526,0-0.952-0.426-0.952-0.952v-3.125c0-0.526,0.426-0.952,0.952-0.952
		s0.952,0.426,0.952,0.952v3.125C25.952,37.431,25.526,37.857,25,37.857z"/>
	<path style="fill:#5280DF;" d="M25,17.173c-0.526,0-0.952-0.426-0.952-0.952v-3.125c0-0.526,0.426-0.952,0.952-0.952
		s0.952,0.426,0.952,0.952v3.125C25.952,16.746,25.526,17.173,25,17.173z"/>
	<path style="fill:#5280DF;" d="M18.792,19.744c-0.244,0-0.488-0.093-0.673-0.279l-2.21-2.21c-0.372-0.372-0.372-0.975,0-1.347
		c0.372-0.372,0.975-0.372,1.347,0l2.21,2.21c0.372,0.372,0.372,0.975,0,1.347C19.279,19.651,19.035,19.744,18.792,19.744z"/>
	<path style="fill:#5280DF;" d="M33.418,34.37c-0.244,0-0.487-0.093-0.673-0.279l-2.212-2.212c-0.372-0.372-0.372-0.975,0-1.347
		c0.372-0.372,0.975-0.372,1.347,0l2.212,2.212c0.372,0.372,0.372,0.975,0,1.347C33.905,34.277,33.662,34.37,33.418,34.37z"/>
	<path style="fill:#5280DF;" d="M31.208,19.744c-0.244,0-0.487-0.093-0.673-0.279c-0.372-0.372-0.372-0.975,0-1.347l2.21-2.21
		c0.372-0.372,0.975-0.372,1.347,0c0.372,0.372,0.372,0.975,0,1.347l-2.21,2.21C31.695,19.651,31.452,19.744,31.208,19.744z"/>
	<path style="fill:#5280DF;" d="M16.582,34.37c-0.244,0-0.488-0.093-0.673-0.279c-0.372-0.372-0.372-0.975,0-1.347l2.21-2.21
		c0.372-0.372,0.975-0.372,1.347,0c0.372,0.372,0.372,0.975,0,1.347l-2.21,2.21C17.07,34.277,16.826,34.37,16.582,34.37z"/>
	<path style="fill:#5280DF;" d="M36.905,25.952H33.78c-0.526,0-0.952-0.426-0.952-0.952s0.426-0.952,0.952-0.952h3.125
		c0.526,0,0.952,0.426,0.952,0.952S37.431,25.952,36.905,25.952z"/>
	<path style="fill:#5280DF;" d="M16.22,25.952h-3.125c-0.526,0-0.952-0.426-0.952-0.952s0.426-0.952,0.952-0.952h3.125
		c0.526,0,0.952,0.426,0.952,0.952S16.746,25.952,16.22,25.952z"/>
	<path style="fill:#5280DF;" d="M25,34.732c-5.366,0-9.732-4.366-9.732-9.732c0-5.366,4.366-9.732,9.732-9.732
		c5.366,0,9.732,4.366,9.732,9.732C34.732,30.366,30.366,34.732,25,34.732z M25,17.173c-4.316,0-7.827,3.511-7.827,7.827
		s3.511,7.827,7.827,7.827s7.827-3.511,7.827-7.827S29.316,17.173,25,17.173z"/>
	<path style="fill:#5280DF;" d="M30.556,25c0,3.068-2.487,5.556-5.556,5.556S19.444,28.068,19.444,25H30.556z"/>
	<path style="fill:#5280DF;" d="M25,31.508c-3.588,0-6.508-2.919-6.508-6.508c0-0.526,0.426-0.952,0.952-0.952h11.111
		c0.526,0,0.952,0.426,0.952,0.952C31.508,28.589,28.589,31.508,25,31.508z M20.496,25.952c0.44,2.083,2.292,3.651,4.504,3.651
		s4.064-1.568,4.504-3.651H20.496z"/>
</g>
<g id="Layer_1">
</g>
</svg>
