<svg id="Layer_1" data-name="Layer 1" xmlns="http://www.w3.org/2000/svg" xmlns:xlink="http://www.w3.org/1999/xlink" viewBox="0 0 612 612"><defs><style>.cls-1,.cls-2,.cls-3,.cls-4,.cls-5{stroke:#232323;stroke-miterlimit:10;stroke-width:1.31px;}.cls-1,.cls-2,.cls-3{isolation:isolate;}.cls-1{fill:url(#linear-gradient);}.cls-2{fill:url(#linear-gradient-2);}.cls-3{fill:url(#linear-gradient-3);}.cls-4{fill:url(#linear-gradient-4);}.cls-5{fill:url(#linear-gradient-5);}</style><linearGradient id="linear-gradient" x1="458.03" y1="532.56" x2="458.03" y2="573.35" gradientUnits="userSpaceOnUse"><stop offset="0" stop-color="#fafafa"/><stop offset="1" stop-color="#ebebeb"/></linearGradient><linearGradient id="linear-gradient-2" x1="486.3" y1="459.7" x2="486.3" y2="500.49" xlink:href="#linear-gradient"/><linearGradient id="linear-gradient-3" x1="514.58" y1="386.61" x2="514.58" y2="427.39" xlink:href="#linear-gradient"/><linearGradient id="linear-gradient-4" x1="231.24" y1="38.63" x2="231.24" y2="438.67" xlink:href="#linear-gradient"/><linearGradient id="linear-gradient-5" x1="230.63" y1="228.46" x2="230.63" y2="380.25" xlink:href="#linear-gradient"/></defs><path class="cls-1" d="M335.3,553a20.41,20.41,0,0,0,20.4,20.4H560.35a20.39,20.39,0,1,0,0-40.78H355.7A20.41,20.41,0,0,0,335.3,553Z"/><path class="cls-2" d="M391.85,480.09a20.41,20.41,0,0,0,20.4,20.4h148.1a20.39,20.39,0,1,0,0-40.78H412.25A20.41,20.41,0,0,0,391.85,480.09Z"/><path class="cls-3" d="M448.4,407a20.41,20.41,0,0,0,20.4,20.39h91.55a20.39,20.39,0,1,0,0-40.78H468.8A20.41,20.41,0,0,0,448.4,407Z"/><path id="WindowLevel" class="cls-4" d="M430.31,219h-.26a199.81,199.81,0,0,0-44.6-107.54l.11-.1a201,201,0,0,0-27.81-27.68l0,0q-5.61-4.6-11.53-8.81c-1-.7-2-1.39-3-2.06l-.57-.39A199.1,199.1,0,0,0,231.24,38.63c-110.46,0-200,89.56-200,200s89.56,200,200,200a199.1,199.1,0,0,0,111.39-33.86l.57-.38c1-.68,2-1.37,3-2.07,3.95-2.79,7.79-5.74,11.53-8.81l0,0a201,201,0,0,0,27.82-27.68l-.12-.11a199.75,199.75,0,0,0,44.6-107.53h.26q1-9.67.95-19.62T430.31,219ZM230.69,399.92h-.12c-88.85,0-161.13-72.36-161.13-161.27S141.72,77.39,230.59,77.38h.08c88.86,0,161.15,72.35,161.15,161.27S319.53,399.88,230.69,399.92Z"/><path class="cls-5" d="M91,247.84c0,73,62.64,132.41,139.64,132.41s139.64-59.39,139.64-132.41c0-10.69-9.16-19.38-20.44-19.38H111.43C100.13,228.47,91,237.15,91,247.84Z"/></svg>