<svg id="Layer_1" data-name="Layer 1" xmlns="http://www.w3.org/2000/svg" xmlns:xlink="http://www.w3.org/1999/xlink" viewBox="0 0 612 612"><defs><style>.cls-1,.cls-2,.cls-3,.cls-4,.cls-5,.cls-6,.cls-7{stroke:#232323;stroke-miterlimit:10;stroke-width:1.31px;}.cls-1,.cls-2,.cls-3,.cls-4,.cls-5{isolation:isolate;}.cls-1{fill:url(#linear-gradient);}.cls-2{fill:url(#linear-gradient-2);}.cls-3{fill:url(#linear-gradient-3);}.cls-4{fill:url(#linear-gradient-4);}.cls-5{fill:url(#linear-gradient-5);}.cls-6{fill:url(#linear-gradient-6);}.cls-7{fill:url(#linear-gradient-7);}</style><linearGradient id="linear-gradient" x1="522.03" y1="463.66" x2="522.03" y2="580.63" gradientUnits="userSpaceOnUse"><stop offset="0" stop-color="#fafafa"/><stop offset="1" stop-color="#ebebeb"/></linearGradient><linearGradient id="linear-gradient-2" x1="305.99" y1="539.95" x2="305.99" y2="580.63" xlink:href="#linear-gradient"/><linearGradient id="linear-gradient-3" x1="89.97" y1="463.66" x2="89.97" y2="580.63" xlink:href="#linear-gradient"/><linearGradient id="linear-gradient-4" x1="522.03" y1="31.37" x2="522.03" y2="148.34" xlink:href="#linear-gradient"/><linearGradient id="linear-gradient-5" x1="560.15" y1="226.31" x2="560.15" y2="385.67" xlink:href="#linear-gradient"/><linearGradient id="linear-gradient-6" x1="231.02" y1="32.58" x2="231.02" y2="431.52" xlink:href="#linear-gradient"/><linearGradient id="linear-gradient-7" x1="230.41" y1="221.89" x2="230.41" y2="373.26" xlink:href="#linear-gradient"/></defs><path class="cls-1" d="M560.15,463.66A20.34,20.34,0,0,0,539.82,484v56H483.91a20.34,20.34,0,0,0,0,40.68h76.24a20.34,20.34,0,0,0,20.34-20.34V484A20.34,20.34,0,0,0,560.15,463.66Z"/><path class="cls-2" d="M365.29,540H246.69a20.34,20.34,0,0,0,0,40.68h118.6a20.34,20.34,0,0,0,0-40.68Z"/><path class="cls-3" d="M128.09,540H72.18V484a20.34,20.34,0,1,0-40.67,0v76.29a20.34,20.34,0,0,0,20.33,20.34h76.25a20.34,20.34,0,0,0,0-40.68Z"/><path class="cls-4" d="M560.15,31.37H483.91a20.34,20.34,0,0,0,0,40.68h55.91v56a20.34,20.34,0,1,0,40.67,0V51.71A20.34,20.34,0,0,0,560.15,31.37Z"/><path class="cls-5" d="M560.15,226.31a20.35,20.35,0,0,0-20.33,20.35V365.32a20.34,20.34,0,1,0,40.67,0V246.66A20.35,20.35,0,0,0,560.15,226.31Z"/><path id="WindowLevel" class="cls-6" d="M429.54,212.48h-.26a199.22,199.22,0,0,0-44.47-107.24l.1-.1a199.81,199.81,0,0,0-27.73-27.6l0,0q-5.58-4.6-11.49-8.79c-1-.7-2-1.38-3-2.06l-.57-.38A198.51,198.51,0,0,0,231,32.58c-110.16,0-199.47,89.31-199.47,199.47S120.86,431.52,231,431.52a198.51,198.51,0,0,0,111.09-33.77l.57-.38c1-.67,2-1.36,3-2.06q5.91-4.19,11.49-8.79l0,0A201.06,201.06,0,0,0,384.93,359l-.12-.12a199,199,0,0,0,44.47-107.22h.26q1-9.66.95-19.57T429.54,212.48ZM230.47,392.88h-.12c-88.6,0-160.68-72.16-160.68-160.83S141.75,71.24,230.37,71.22h.08c88.62,0,160.71,72.15,160.71,160.83S319.07,392.84,230.47,392.88Z"/><path class="cls-7" d="M91.16,241.22c0,72.81,62.47,132,139.25,132s139.26-59.23,139.26-132c0-10.67-9.13-19.33-20.38-19.33H111.54C100.27,221.89,91.16,230.55,91.16,241.22Z"/></svg>