<svg id="Layer_1" data-name="Layer 1" xmlns="http://www.w3.org/2000/svg" xmlns:xlink="http://www.w3.org/1999/xlink" viewBox="0 0 612 612"><defs><style>.cls-1,.cls-2{stroke:#232323;stroke-miterlimit:10;}.cls-1{fill:url(#linear-gradient);}.cls-2{opacity:0.6;isolation:isolate;fill:url(#linear-gradient-2);}</style><linearGradient id="linear-gradient" x1="306" y1="185.59" x2="306" y2="442.64" gradientUnits="userSpaceOnUse"><stop offset="0" stop-color="#fff"/><stop offset="0.6" stop-color="#e2e2e2"/><stop offset="1" stop-color="#ccc"/></linearGradient><linearGradient id="linear-gradient-2" x1="306" y1="114.17" x2="306" y2="514.07" xlink:href="#linear-gradient"/></defs><g id="WindowLevelCustom"><path class="cls-1" d="M419.66,299.31H403.39a98,98,0,0,0-18.08-43.59l11.52-11.52a14.81,14.81,0,1,0-20.93-20.95l-11.53,11.51a97.85,97.85,0,0,0-43.57-18.08V200.4a14.8,14.8,0,1,0-29.6,0v16.28a98,98,0,0,0-43.57,18.08l-11.52-11.52a14.8,14.8,0,0,0-20.93,20.94L226.7,255.7a98.09,98.09,0,0,0-18.08,43.59H192.35a14.82,14.82,0,0,0,0,29.63h16.27a98.22,98.22,0,0,0,18.08,43.59l-11.53,11.54A14.8,14.8,0,1,0,236.1,405l11.52-11.52a97.81,97.81,0,0,0,43.56,18.08v16.28a14.81,14.81,0,1,0,29.61,0V411.55a98.07,98.07,0,0,0,43.58-18.08L375.89,405A14.81,14.81,0,0,0,396.82,384L385.3,372.52a98,98,0,0,0,18.08-43.6h16.26a14.81,14.81,0,0,0,0-29.61ZM306,383.17H306a69.05,69.05,0,0,1,0-138.1H306a69.05,69.05,0,0,1,0,138.1Zm37.09-83.86H268.87a14.81,14.81,0,0,0-14.8,14.81,51.93,51.93,0,1,0,103.86,0A14.81,14.81,0,0,0,343.13,299.31Z"/><path class="cls-2" d="M491,428.91a14.81,14.81,0,0,0-14.8,14.81v40.73H435.53a14.81,14.81,0,1,0,0,29.62H491a14.81,14.81,0,0,0,14.8-14.81V443.72A14.81,14.81,0,0,0,491,428.91ZM349.17,484.45H262.82a14.81,14.81,0,0,0,0,29.62h86.35a14.81,14.81,0,0,0,0-29.62Zm-172.7,0H135.76V443.72a14.8,14.8,0,1,0-29.6,0v55.54A14.81,14.81,0,0,0,121,514.07h55.51a14.81,14.81,0,0,0,0-29.62ZM121,372.12a14.81,14.81,0,0,0,14.8-14.81V270.92a14.8,14.8,0,1,0-29.6,0v86.39A14.79,14.79,0,0,0,121,372.12Zm55.51-257.95H121A14.81,14.81,0,0,0,106.16,129v55.54a14.8,14.8,0,1,0,29.6,0V143.79h40.71a14.81,14.81,0,0,0,0-29.62Zm172.7,0H262.82a14.81,14.81,0,0,0,0,29.62h86.35a14.81,14.81,0,0,0,0-29.62Zm141.87,0H435.53a14.81,14.81,0,1,0,0,29.62h40.71v40.73a14.8,14.8,0,1,0,29.6,0V129A14.81,14.81,0,0,0,491,114.17Zm0,141.93a14.82,14.82,0,0,0-14.8,14.82v86.39a14.8,14.8,0,1,0,29.6,0V270.92A14.82,14.82,0,0,0,491,256.1Z"/></g></svg>