<svg id="Layer_1" data-name="Layer 1" xmlns="http://www.w3.org/2000/svg" xmlns:xlink="http://www.w3.org/1999/xlink" viewBox="0 0 612 612"><defs><style>.cls-1{stroke:#232323;stroke-miterlimit:10;fill:url(#linear-gradient);}</style><linearGradient id="linear-gradient" x1="305.99" y1="106.05" x2="305.99" y2="505.95" gradientUnits="userSpaceOnUse"><stop offset="0" stop-color="#fff"/><stop offset="0.6" stop-color="#e2e2e2"/><stop offset="1" stop-color="#ccc"/></linearGradient></defs><path id="WindowLevel" class="cls-1" d="M491,291.19H456.51A150.62,150.62,0,0,0,422.84,210l24.46-24.47a14.81,14.81,0,1,0-20.94-20.95l-24.45,24.47a150.54,150.54,0,0,0-81.12-33.68V120.86a14.81,14.81,0,1,0-29.61,0V155.4a150.54,150.54,0,0,0-81.12,33.68l-24.45-24.47a14.81,14.81,0,1,0-20.94,20.95L189.13,210a150.61,150.61,0,0,0-33.66,81.16H120.94a14.81,14.81,0,0,0,0,29.62h34.53A150.67,150.67,0,0,0,189.13,402l-24.46,24.47a14.81,14.81,0,1,0,20.94,20.94l24.45-24.47a150.54,150.54,0,0,0,81.12,33.68v34.54a14.81,14.81,0,1,0,29.61,0V456.6a150.54,150.54,0,0,0,81.12-33.68l24.44,24.45a14.8,14.8,0,0,0,20.93-20.94L422.84,402a150.65,150.65,0,0,0,33.67-81.17H491a14.81,14.81,0,0,0,0-29.62ZM306,427.73h-.09c-67.06,0-121.62-54.62-121.62-121.73S238.88,184.28,306,184.27H306c67.08,0,121.64,54.61,121.64,121.73S373.09,427.7,306,427.73ZM204.83,306a101.16,101.16,0,1,0,202.31,0,14.82,14.82,0,0,0-14.81-14.81H219.64A14.81,14.81,0,0,0,204.83,306Z"/></svg>