<svg id="Layer_1" data-name="Layer 1" xmlns="http://www.w3.org/2000/svg" xmlns:xlink="http://www.w3.org/1999/xlink" viewBox="0 0 612 612"><defs><style>.cls-1{stroke:#232323;stroke-miterlimit:10;fill:url(#linear-gradient);}</style><linearGradient id="linear-gradient" x1="306.21" y1="106.23" x2="306.21" y2="506.13" gradientUnits="userSpaceOnUse"><stop offset="0" stop-color="#fff"/><stop offset="0.6" stop-color="#e2e2e2"/><stop offset="1" stop-color="#ccc"/></linearGradient></defs><path id="ZoomOut" class="cls-1" d="M501.71,480.85,425.87,405A180.64,180.64,0,0,0,469,287.66c0-100.05-81.34-181.43-181.34-181.43S106.36,187.61,106.36,287.66,187.7,469.1,287.7,469.1a180.31,180.31,0,0,0,117.24-43.19l75.84,75.88a14.8,14.8,0,1,0,20.93-20.94Zm-214-41.37C204,439.48,136,371.38,136,287.67S204,135.85,287.7,135.85,439.43,204,439.43,287.67,371.37,439.48,287.7,439.48Zm72.17-166.63H215.53a14.82,14.82,0,0,0,0,29.63H359.87a14.82,14.82,0,0,0,0-29.63Z"/></svg>