<?xml version="1.0" encoding="iso-8859-1"?>
<!-- Generator: Adobe Illustrator 21.1.0, SVG Export Plug-In . SVG Version: 6.00 Build 0)  -->
<svg version="1.1" xmlns="http://www.w3.org/2000/svg" xmlns:xlink="http://www.w3.org/1999/xlink" x="0px" y="0px"
	 viewBox="0 0 50 50" style="enable-background:new 0 0 50 50;" xml:space="preserve">
<g id="Zoom">
	<path style="fill:#5280DF;" d="M25,50C11.215,50,0,38.785,0,25C0,11.215,11.215,0,25,0c13.785,0,25,11.215,25,25
		C50,38.785,38.785,50,25,50z M25,1.905C12.265,1.905,1.905,12.265,1.905,25S12.265,48.095,25,48.095S48.095,37.735,48.095,25
		S37.735,1.905,25,1.905z"/>
	<path style="fill:#5280DF;" d="M36.905,37.857c-0.244,0-0.487-0.093-0.673-0.279l-5.446-5.446c-0.372-0.372-0.372-0.975,0-1.347
		c0.372-0.372,0.975-0.372,1.347,0l5.446,5.446c0.372,0.372,0.372,0.975,0,1.347C37.392,37.764,37.148,37.857,36.905,37.857z"/>
	<path style="fill:#5280DF;" d="M23.81,35.476c-6.433,0-11.667-5.233-11.667-11.667c0-6.433,5.234-11.667,11.667-11.667
		c6.433,0,11.667,5.234,11.667,11.667C35.476,30.243,30.243,35.476,23.81,35.476z M23.81,14.048c-5.383,0-9.762,4.379-9.762,9.762
		s4.379,9.762,9.762,9.762s9.762-4.379,9.762-9.762S29.192,14.048,23.81,14.048z"/>
</g>
<g id="Layer_1">
</g>
</svg>
