<svg id="Layer_1" data-name="Layer 1" xmlns="http://www.w3.org/2000/svg" xmlns:xlink="http://www.w3.org/1999/xlink" viewBox="0 0 612 612"><defs><style>.cls-1,.cls-2,.cls-3,.cls-4{stroke:#232323;stroke-miterlimit:10;}.cls-1{fill:url(#linear-gradient);}.cls-2{fill:url(#linear-gradient-2);}.cls-3{fill:url(#linear-gradient-3);}.cls-4{fill:url(#linear-gradient-4);}</style><linearGradient id="linear-gradient" x1="417.67" y1="323.7" x2="417.67" y2="473.2" gradientUnits="userSpaceOnUse"><stop offset="0" stop-color="#fff"/><stop offset="0.6" stop-color="#e2e2e2"/><stop offset="1" stop-color="#ccc"/></linearGradient><linearGradient id="linear-gradient-2" x1="417.6" y1="142.3" x2="417.6" y2="300.3" xlink:href="#linear-gradient"/><linearGradient id="linear-gradient-3" x1="236.2" y1="114.8" x2="236.2" y2="306.6" xlink:href="#linear-gradient"/><linearGradient id="linear-gradient-4" x1="236.18" y1="322.5" x2="236.18" y2="497.6" xlink:href="#linear-gradient"/></defs><g id="ZpeopleGroup"><path class="cls-1" d="M545.4,460.4c-.6,7.2-6,12.8-12.6,12.8H302.6c-6.5,0-11.9-5.4-12.6-12.5-.3-3.7-.5-7.4-.5-11.2a114.68,114.68,0,0,1,4.4-31.8c.1-.3.1-.5.2-.8a109.92,109.92,0,0,1,6.8-21.5c.1-.3.3-.6.4-.9a111.2,111.2,0,0,1,21.8-38.6l.1-.1c11.5-12.9,24.4-24.4,40-30.8a13.81,13.81,0,0,1,4.7-1.3h0c67,0,90.1.1,98,.2H469a8.52,8.52,0,0,1,2.3.3c.2.1.4.1.6.2a95,95,0,0,1,32.9,21.5,107.77,107.77,0,0,1,18.9,24.9c.2.3.1.1.1.2a115.92,115.92,0,0,1,10.4,20.1h0c6.5,13.6,10,29.4,10.9,44.4a1.48,1.48,0,0,0,.1.7A139.87,139.87,0,0,1,545.4,460.4Z"/><ellipse class="cls-2" cx="417.6" cy="221.3" rx="74.8" ry="79"/><ellipse class="cls-3" cx="236.2" cy="210.7" rx="87.1" ry="95.9"/><path class="cls-4" d="M405.6,482.8a16.63,16.63,0,0,1-16.7,14.8H83.6A16.69,16.69,0,0,1,66.9,483a117.28,117.28,0,0,1-.7-13.3A121.3,121.3,0,0,1,72,432.4l.3-.9a122.75,122.75,0,0,1,9-25.3,11.73,11.73,0,0,1,.5-1.1,124,124,0,0,1,28.9-44.6,4.35,4.35,0,0,0,.6-.7A129.27,129.27,0,0,1,164,323.4a15.25,15.25,0,0,1,1.9-.3h3l135.7-.6h.1a13.81,13.81,0,0,1,3.3.2,128.49,128.49,0,0,1,68.5,54.9v.1a123.25,123.25,0,0,1,13.4,23.6c.2.4.3.7.5,1.1a123.18,123.18,0,0,1,14.6,51c0,.3.1.6.1.9A129.27,129.27,0,0,1,405.6,482.8Z"/></g></svg>