<svg id="Layer_1" data-name="Layer 1" xmlns="http://www.w3.org/2000/svg" xmlns:xlink="http://www.w3.org/1999/xlink" viewBox="0 0 612 612"><defs><style>.cls-1,.cls-2,.cls-3,.cls-4{stroke:#232323;stroke-miterlimit:10;}.cls-1{fill:url(#linear-gradient);}.cls-2{fill:url(#linear-gradient-2);}.cls-3{fill:url(#linear-gradient-3);}.cls-4{fill:url(#linear-gradient-4);}</style><linearGradient id="linear-gradient" x1="263.23" y1="151.86" x2="263.23" y2="318.76" gradientUnits="userSpaceOnUse"><stop offset="0" stop-color="#fff"/><stop offset="0.6" stop-color="#e2e2e2"/><stop offset="1" stop-color="#ccc"/></linearGradient><linearGradient id="linear-gradient-2" x1="263.24" y1="307.81" x2="263.24" y2="476.62" xlink:href="#linear-gradient"/><linearGradient id="linear-gradient-3" x1="365.3" y1="130.36" x2="365.3" y2="297.16" xlink:href="#linear-gradient"/><linearGradient id="linear-gradient-4" x1="452.23" y1="286.3" x2="452.23" y2="449.87" xlink:href="#linear-gradient"/></defs><g id="ZpeopleGrouphv"><path class="cls-1" d="M263.23,151.86c-45.6,0-82.5,37.4-82.5,83.4a83.42,83.42,0,0,0,60.3,80.4,81.53,81.53,0,0,0,22.2,3.1c2.3,0,4.5-.1,6.7-.3a76.71,76.71,0,0,0,10.7-1.6h0c1.5-.3,2.9-.7,4.4-1.1a83.3,83.3,0,0,0,60.7-80.5C345.73,189.16,308.83,151.86,263.23,151.86ZM281,300.76l-3.6.9h0a62.93,62.93,0,0,1-8.7,1.3,49.64,49.64,0,0,1-5.5.2,68.35,68.35,0,0,1-18.2-2.5,67.42,67.42,0,1,1,36,.1Z"/><path class="cls-2" d="M420.63,445.56a13.82,13.82,0,0,1-10,14.2,13.32,13.32,0,0,1-1.9.5c-6.2,1.7-12.4,3.3-18.6,4.7-4,.9-8,1.8-12,2.5-102.2,19.9-209.3,1.6-229.5-1.2-5.4-.8-9.2-1.3-12.3-1.9-7-1.2-9.8-2-18.6-4.1-2-.5-4.2-1-6.9-1.6-1.9-2.4-3.1-4-5-6.4.1-3.1.2-6.1.5-9.2,3.5-46.7,25.3-87.5,57.2-113.2a132.41,132.41,0,0,1,39-21.7,2.75,2.75,0,0,1,3.4,1.5l3.9,8.5a2.71,2.71,0,0,1-1.5,3.7,131.07,131.07,0,0,0-33,19.5c-29.3,23.5-50.1,59.8-56,101.8a2.84,2.84,0,0,0,2.2,3.1q7.05,1.35,15.9,3c3.5.6,7.2,1.3,11.1,1.9a751.35,751.35,0,0,0,113,9.1c56.8,0,86.9-4.6,116.9-9.3,3.7-.6,7.3-1.2,10.8-1.9,2.8-.5,5.5-1,8.2-1.6a10.77,10.77,0,0,0,8.4-12.6c-10.2-52.5-43.8-95-87.7-112.6a2.76,2.76,0,0,1-1.5-3.6l3.7-9.1a2.76,2.76,0,0,1,3.4-1.6c52.4,17.7,91.6,70.3,96.7,134.1A33.19,33.19,0,0,0,420.63,445.56Z"/><path class="cls-3" d="M428.23,213.66a83.39,83.39,0,0,1-60.7,80.5c-1.4.4-2.9.8-4.4,1.1h0a74.54,74.54,0,0,1-10.7,1.6c-2.2.2-4.5.3-6.7.3-1.6,0-3.3,0-4.9-.1a.9.9,0,0,1-.9-1.1l2-13.5a1,1,0,0,1,1-.8c.9,0,1.8.1,2.8.1,1.8,0,3.7-.1,5.5-.2a60.74,60.74,0,0,0,8.7-1.3h0c1.2-.3,2.4-.5,3.6-.9a67.62,67.62,0,0,0-17.8-132.8,66.58,66.58,0,0,0-34.3,9.4,1,1,0,0,1-1.3-.3l-7.6-11.8a.86.86,0,0,1,.3-1.3,81.6,81.6,0,0,1,42.9-12.2C391.33,130.16,428.23,167.56,428.23,213.66Z"/><path class="cls-4" d="M495.33,438.16a14.62,14.62,0,0,1-2,.5c-6.3,1.7-12.6,3.3-19,4.7-4.1.9-8.2,1.8-12.3,2.5-8.2,1.6-16.4,2.9-24.6,4a1.39,1.39,0,0,1-1.6-1.1l-2.8-13.2a1.81,1.81,0,0,1,1.5-2.1c9.7-1.2,18.7-2.6,27.7-4,3.8-.6,7.4-1.2,11.1-1.9,2.8-.5,5.6-1,8.4-1.6a10.76,10.76,0,0,0,8.6-12.6c-10.4-52.5-44.8-95-89.7-112.6a2.76,2.76,0,0,1-1.5-3.6l3.8-9.1a2.78,2.78,0,0,1,3.5-1.6c53.6,17.7,93.6,70.3,98.9,134.1.1,1.1.2,2.2.2,3.2A13.88,13.88,0,0,1,495.33,438.16Z"/></g></svg>