<?xml version="1.0" encoding="utf-8"?>
<!-- Generator: Adobe Illustrator 23.0.0, SVG Export Plug-In . SVG Version: 6.00 Build 0)  -->
<svg version="1.1" id="Layer_1" xmlns="http://www.w3.org/2000/svg" xmlns:xlink="http://www.w3.org/1999/xlink" x="0px" y="0px"
	 viewBox="0 0 53 53" style="enable-background:new 0 0 53 53;" xml:space="preserve">
<style type="text/css">
	.st0{fill-rule:evenodd;clip-rule:evenodd;fill:url(#SVGID_1_);}
	.st1{fill-rule:evenodd;clip-rule:evenodd;fill:#C7C7C7;}
	.st2{fill-rule:evenodd;clip-rule:evenodd;fill:url(#SVGID_2_);}
	.st3{fill-rule:evenodd;clip-rule:evenodd;fill:url(#SVGID_3_);}
	.st4{fill-rule:evenodd;clip-rule:evenodd;fill:url(#SVGID_4_);}
	.st5{fill-rule:evenodd;clip-rule:evenodd;fill:#ECB324;}
</style>
<g>
	
		<radialGradient id="SVGID_1_" cx="295.1219" cy="54.3192" r="19.8016" gradientTransform="matrix(-1.2285 0 0 1.2305 396.7663 -39.812)" gradientUnits="userSpaceOnUse">
		<stop  offset="0" style="stop-color:#8DD5F6"/>
		<stop  offset="1" style="stop-color:#0763AE"/>
	</radialGradient>
	<path class="st0" d="M27.36,0.13c16.86,8.32,22.25,31.17,12.22,49.29c-3.85,2.21-8.31,3.47-13.07,3.47
		c-6.29,0-12.06-2.21-16.59-5.89C33.61,37.19,38.14,8.76,24.89,0.16c0.54-0.03,1.07-0.05,1.62-0.05C26.8,0.11,27.08,0.12,27.36,0.13
		z"/>
	<path class="st1" d="M39.58,49.41C49.61,31.29,44.22,8.44,27.36,0.13c0.88,0.03,1.76,0.1,2.61,0.21
		C44.34,7.07,52.23,32.23,39.58,49.41z"/>
	
		<radialGradient id="SVGID_2_" cx="304.5652" cy="51.5163" r="25.8567" gradientTransform="matrix(-1.2285 0 0 1.2305 396.7663 -39.812)" gradientUnits="userSpaceOnUse">
		<stop  offset="0" style="stop-color:#FFFFFF"/>
		<stop  offset="0.2063" style="stop-color:#FCFCFC"/>
		<stop  offset="0.3811" style="stop-color:#F1F1F1"/>
		<stop  offset="0.5444" style="stop-color:#E0E0E0"/>
		<stop  offset="0.7007" style="stop-color:#C7C7C8"/>
		<stop  offset="0.8506" style="stop-color:#A8A8A9"/>
		<stop  offset="0.9964" style="stop-color:#818283"/>
		<stop  offset="1" style="stop-color:#808182"/>
	</radialGradient>
	<path class="st2" d="M24.89,0.16C38.14,8.76,33.61,37.19,9.92,47c-5.95-4.84-9.76-12.22-9.76-20.5C0.16,12.47,11.1,1,24.89,0.16z"
		/>
	
		<radialGradient id="SVGID_3_" cx="286.0888" cy="51.7731" r="19.9727" gradientTransform="matrix(-1.2285 0 0 1.2305 396.7663 -39.812)" gradientUnits="userSpaceOnUse">
		<stop  offset="0" style="stop-color:#FFFFFF"/>
		<stop  offset="1" style="stop-color:#BABCBE"/>
	</radialGradient>
	<path class="st3" d="M39.58,49.41c12.65-17.18,4.76-42.34-9.6-49.08C45.05,2.58,52.86,15.38,52.86,26.5
		C52.86,37.62,46.69,45.09,39.58,49.41z"/>
	<radialGradient id="SVGID_4_" cx="26.9592" cy="42.5557" r="11.1804" gradientUnits="userSpaceOnUse">
		<stop  offset="0" style="stop-color:#F7EA30"/>
		<stop  offset="1" style="stop-color:#F59120"/>
	</radialGradient>
	<path class="st4" d="M38.69,32.22c0.75,6.94-0.25,13.28-2.99,19.02c-2.86,1.07-5.95,1.65-9.18,1.65c-4.13,0-8.04-0.95-11.52-2.65
		C24.17,48.2,32.07,42.2,38.69,32.22z"/>
	<path class="st5" d="M36.95,32.05l1.73,0.17C32.04,42.24,24.33,48.25,15.11,50.3c-0.66-0.32-1.41-0.72-2.04-1.1
		C23.92,47.35,32.7,38.98,36.95,32.05z"/>
</g>
</svg>
