<?xml version="1.0" encoding="iso-8859-1"?>
<!-- Generator: Adobe Illustrator 21.1.0, SVG Export Plug-In . SVG Version: 6.00 Build 0)  -->
<svg version="1.1" xmlns="http://www.w3.org/2000/svg" xmlns:xlink="http://www.w3.org/1999/xlink" x="0px" y="0px"
	 viewBox="0 0 50 50" style="enable-background:new 0 0 50 50;" xml:space="preserve">
<g id="copy">
	<path style="fill:#252830;" d="M50,47c0,1.657-1.343,3-3,3H3c-1.657,0-3-1.343-3-3V3c0-1.657,1.343-3,3-3h44c1.657,0,3,1.343,3,3
		V47z"/>
	<path style="fill:#8C96A5;" d="M36.464,16.249h-3.439v-2.713c0-0.506-0.411-0.917-0.917-0.917H13.536
		c-0.506,0-0.917,0.411-0.917,0.917v19.298c0,0.506,0.411,0.917,0.917,0.917h3.439v2.713c0,0.506,0.411,0.917,0.917,0.917h18.572
		c0.506,0,0.917-0.411,0.917-0.917V17.166C37.381,16.66,36.971,16.249,36.464,16.249z M14.453,31.917V14.453h16.738v1.796H17.892
		c-0.506,0-0.917,0.411-0.917,0.917v14.751H14.453z M35.547,35.547H18.809V18.083h16.738V35.547z"/>
</g>
<g id="Layer_1">
</g>
</svg>
