<?xml version="1.0" encoding="iso-8859-1"?>
<!-- Generator: Adobe Illustrator 21.1.0, SVG Export Plug-In . SVG Version: 6.00 Build 0)  -->
<svg version="1.1" xmlns="http://www.w3.org/2000/svg" xmlns:xlink="http://www.w3.org/1999/xlink" x="0px" y="0px"
	 viewBox="0 0 50 50" style="enable-background:new 0 0 50 50;" xml:space="preserve">
<g id="delete">
	<path style="fill:#252830;" d="M50,47c0,1.657-1.343,3-3,3H3c-1.657,0-3-1.343-3-3V3c0-1.657,1.343-3,3-3h44c1.657,0,3,1.343,3,3
		V47z"/>
	<path style="fill:#8C96A5;" d="M25,12.619c-6.827,0-12.381,5.554-12.381,12.381c0,3.307,1.288,6.416,3.626,8.754
		c2.338,2.339,5.447,3.626,8.754,3.626c0.002,0,0.003,0,0.004,0c3.306,0,6.414-1.288,8.753-3.626s3.626-5.447,3.626-8.754
		C37.381,18.174,31.827,12.619,25,12.619z M14.61,23.153c0.719-4.237,4.073-7.678,8.292-8.496c3.381-0.656,6.552,0.317,8.875,2.27
		L16.925,31.778C14.939,29.421,14.071,26.33,14.61,23.153z M30.06,34.28c-1.533,0.873-3.294,1.267-5.058,1.267h-0.003
		c-2.509,0-4.881-0.875-6.777-2.472l14.852-14.852c1.542,1.834,2.474,4.199,2.474,6.777C35.547,28.799,33.553,32.29,30.06,34.28z"/>
</g>
<g id="Layer_1">
</g>
</svg>
