<?xml version="1.0" encoding="iso-8859-1"?>
<!-- Generator: Adobe Illustrator 21.1.0, SVG Export Plug-In . SVG Version: 6.00 Build 0)  -->
<svg version="1.1" id="Layer_1" xmlns="http://www.w3.org/2000/svg" xmlns:xlink="http://www.w3.org/1999/xlink" x="0px" y="0px"
	 viewBox="0 0 86.045 10.178" style="enable-background:new 0 0 86.045 10.178;" xml:space="preserve">
<path style="fill-rule:evenodd;clip-rule:evenodd;fill:#689CD3;" d="M56.3,5.856c0.307-1.439,0.099-2.536-0.626-3.29
	c-0.726-0.755-1.936-1.134-3.632-1.137c-1.709-0.002-3.105,0.369-4.179,1.116c-1.077,0.745-1.766,1.815-2.064,3.207
	c-0.307,1.433-0.106,2.521,0.601,3.27c0.706,0.747,1.895,1.153,3.562,1.155c1.784,0.002,3.21-0.391,4.28-1.118
	C55.312,8.335,55.997,7.266,56.3,5.856z M53.36,5.921c-0.179,0.834-0.511,1.462-0.996,1.885c-0.484,0.422-1.118,0.633-1.899,0.631
	c-0.77,0-1.301-0.216-1.597-0.648c-0.294-0.43-0.348-1.074-0.165-1.93c0.184-0.864,0.529-1.535,1.032-2.009
	c0.504-0.475,1.12-0.713,1.842-0.711c0.778,0,1.317,0.239,1.619,0.712C53.499,4.325,53.554,5.016,53.36,5.921z M75.154,9.51
	c0.565,0.443,1.589,0.666,3.067,0.668c1.495,0.002,2.692-0.227,3.589-0.688c0.896-0.46,1.433-1.119,1.617-1.975
	c0.08-0.374,0.077-0.715-0.009-1.03c-0.085-0.31-0.247-0.572-0.484-0.775c-0.214-0.181-0.478-0.334-0.797-0.468
	c-0.318-0.131-0.869-0.289-1.648-0.474c-0.118-0.025-0.284-0.062-0.496-0.107c-1.098-0.249-1.609-0.547-1.534-0.899
	c0.043-0.198,0.185-0.349,0.425-0.455c0.238-0.108,0.56-0.161,0.957-0.16c0.516,0.001,0.89,0.077,1.126,0.228
	c0.233,0.151,0.32,0.368,0.256,0.658l-0.007,0.04l2.635,0.002l0.021-0.097c0.181-0.843-0.021-1.472-0.603-1.88
	c-0.582-0.407-1.569-0.612-2.961-0.615c-1.409,0-2.525,0.215-3.35,0.649c-0.825,0.434-1.328,1.065-1.506,1.896
	c-0.071,0.338-0.08,0.644-0.027,0.914c0.055,0.27,0.172,0.505,0.35,0.705c0.366,0.408,1.309,0.786,2.827,1.135
	c0.116,0.025,0.207,0.046,0.269,0.063c0.054,0.011,0.137,0.031,0.25,0.056c0.955,0.219,1.395,0.501,1.319,0.849
	c-0.05,0.227-0.214,0.408-0.495,0.54c-0.281,0.129-0.646,0.196-1.092,0.195C78.265,8.481,77.85,8.4,77.603,8.242
	c-0.245-0.162-0.333-0.405-0.263-0.733c0.011-0.051,0.035-0.128,0.072-0.235c0.003-0.011,0.005-0.018,0.006-0.023l-2.772-0.003
	l-0.026,0.124C74.411,8.352,74.587,9.064,75.154,9.51z M66.474,2.578c-0.725-0.756-1.937-1.133-3.63-1.135
	c-1.711-0.002-3.105,0.369-4.18,1.113c-1.077,0.748-1.765,1.817-2.063,3.208c-0.306,1.434-0.106,2.524,0.601,3.27
	c0.706,0.748,1.895,1.142,3.561,1.144c1.785,0.002,3.21-0.379,4.282-1.106c1.07-0.727,1.755-1.794,2.057-3.204
	C67.409,4.431,67.2,3.334,66.474,2.578z M64.16,5.934c-0.178,0.834-0.511,1.462-0.994,1.885c-0.486,0.422-1.12,0.631-1.9,0.63
	c-0.77,0-1.302-0.214-1.596-0.647c-0.294-0.432-0.349-1.076-0.166-1.933c0.186-0.862,0.53-1.533,1.035-2.009
	c0.502-0.476,1.117-0.711,1.839-0.711c0.779,0.001,1.318,0.24,1.62,0.713C64.3,4.338,64.355,5.03,64.16,5.934z M73.978,10.178
	l0.395-1.986l-4.398-0.004L71.387,1.6l-2.881-0.003L66.7,10.178H73.978z M85.232,1.211V1.208c0.145-0.059,0.209-0.176,0.209-0.331
	c0-0.2-0.15-0.366-0.388-0.366H84.34v1.324h0.292V1.317h0.29c0.146,0,0.2,0.061,0.221,0.2c0.016,0.106,0.01,0.233,0.046,0.318h0.291
	c-0.052-0.074-0.051-0.23-0.056-0.313C85.417,1.388,85.375,1.25,85.232,1.211z M84.949,1.109h-0.317V0.737h0.317
	c0.131,0,0.2,0.056,0.2,0.184C85.149,1.055,85.08,1.109,84.949,1.109z M84.871,0c-0.646,0-1.172,0.526-1.172,1.173
	c0,0.645,0.526,1.173,1.172,1.173s1.174-0.528,1.174-1.173C86.045,0.526,85.517,0,84.871,0z M84.871,2.19
	c-0.561,0-1.018-0.456-1.018-1.017c0-0.563,0.457-1.019,1.018-1.019c0.562,0,1.019,0.457,1.019,1.019
	C85.89,1.735,85.433,2.19,84.871,2.19z M46.755,3.386l0.4-1.878h-9.235l-0.402,1.869l3.168,0.003l-1.422,6.799h2.902l1.422-6.795
	L46.755,3.386z M21.488,1.543l-6.172,8.635h2.828l1.007-1.732l4.376,0.005l0.31,1.727h2.752l-2.361-8.632L21.488,1.543z
	 M20.385,6.609l2.084-3.06l0.693,3.063L20.385,6.609z M15.679,8.125L11.005,8.12l0.351-1.635l4.337,0.006l0.385-1.794l-4.337-0.005
	l0.288-1.34l4.691,0.005l0.389-1.818L9.595,1.529l-1.807,8.649h7.496L15.679,8.125z M7.766,8.117L3.563,8.112l1.411-6.587
	L2.095,1.521l-1.807,8.657h7.083L7.766,8.117z M35.673,8.934c0.982-0.705,1.618-1.728,1.906-3.076
	c0.299-1.398,0.088-2.463-0.635-3.198c-0.723-0.734-1.92-1.101-3.59-1.104L28.53,1.551l-1.806,8.627h5.09
	C33.407,10.181,34.693,9.635,35.673,8.934z M29.987,8.142l1.015-4.736l1.382,0.002c0.936,0.001,1.593,0.201,1.971,0.598
	c0.376,0.398,0.48,1,0.306,1.805c-0.175,0.82-0.522,1.412-1.044,1.781c-0.52,0.368-1.269,0.553-2.249,0.552L29.987,8.142z"/>
</svg>
