<?xml version="1.0" encoding="iso-8859-1"?>
<!-- Generator: Adobe Illustrator 21.1.0, SVG Export Plug-In . SVG Version: 6.00 Build 0)  -->
<svg version="1.1" xmlns="http://www.w3.org/2000/svg" xmlns:xlink="http://www.w3.org/1999/xlink" x="0px" y="0px"
	 viewBox="0 0 50 50" style="enable-background:new 0 0 50 50;" xml:space="preserve">
<g id="merge">
	<path style="fill:#252830;" d="M50,47c0,1.657-1.343,3-3,3H3c-1.657,0-3-1.343-3-3V3c0-1.657,1.343-3,3-3h44c1.657,0,3,1.343,3,3
		V47z"/>
	<path style="fill:#8C96A5;" d="M37.327,32.17c-0.006-0.018-0.01-0.037-0.017-0.054c-0.017-0.042-0.04-0.08-0.064-0.119
		c-0.008-0.013-0.013-0.026-0.021-0.039c-0.034-0.05-0.072-0.097-0.114-0.139l-3.996-3.995c-0.358-0.358-0.939-0.358-1.297,0
		c-0.358,0.358-0.358,0.939,0,1.297l2.431,2.43h-2.888c-1.329,0-2.557-0.721-3.204-1.882l-5.707-10.232
		c-0.971-1.741-2.812-2.822-4.806-2.822h-4.109c-0.506,0-0.917,0.411-0.917,0.917c0,0.506,0.411,0.917,0.917,0.917h4.109
		c1.329,0,2.557,0.721,3.204,1.881l5.707,10.232c0.971,1.741,2.812,2.823,4.806,2.823h2.888l-2.431,2.431
		c-0.358,0.358-0.358,0.939,0,1.297c0.179,0.179,0.414,0.269,0.648,0.269c0.235,0,0.469-0.09,0.648-0.269l3.996-3.996
		c0.042-0.042,0.081-0.089,0.114-0.139c0.008-0.012,0.013-0.026,0.021-0.039c0.023-0.038,0.046-0.077,0.064-0.119
		c0.007-0.018,0.011-0.036,0.017-0.054c0.013-0.038,0.027-0.076,0.036-0.117c0.012-0.059,0.018-0.12,0.018-0.181
		s-0.006-0.122-0.018-0.181C37.355,32.246,37.341,32.208,37.327,32.17z M23.013,27.671c-0.442-0.247-1.001-0.088-1.248,0.355
		l-0.917,1.643c-0.647,1.161-1.875,1.882-3.204,1.882h-4.109c-0.506,0-0.917,0.411-0.917,0.917c0,0.506,0.411,0.917,0.917,0.917
		h4.109c1.993,0,3.835-1.081,4.806-2.823l0.917-1.644C23.614,28.476,23.455,27.918,23.013,27.671z M25.98,22.352
		c0.142,0.079,0.295,0.116,0.446,0.116c0.322,0,0.634-0.17,0.802-0.47l0.931-1.667c0.647-1.161,1.875-1.881,3.204-1.881h2.888
		l-2.431,2.431c-0.358,0.358-0.358,0.939,0,1.297c0.179,0.179,0.414,0.269,0.648,0.269c0.235,0,0.469-0.09,0.648-0.269l3.996-3.995
		c0.042-0.042,0.081-0.089,0.114-0.139c0.008-0.012,0.013-0.026,0.021-0.039c0.023-0.038,0.046-0.077,0.064-0.119
		c0.007-0.018,0.011-0.036,0.017-0.054c0.013-0.038,0.027-0.076,0.036-0.117c0.012-0.059,0.018-0.12,0.018-0.181
		c0-0.061-0.006-0.122-0.018-0.181c-0.008-0.041-0.022-0.078-0.036-0.117c-0.006-0.018-0.01-0.037-0.017-0.054
		c-0.017-0.042-0.04-0.08-0.064-0.119c-0.008-0.013-0.013-0.026-0.021-0.039c-0.034-0.05-0.072-0.097-0.114-0.139l-3.996-3.995
		c-0.358-0.358-0.939-0.358-1.297,0c-0.358,0.358-0.358,0.939,0,1.297l2.431,2.431h-2.888c-1.994,0-3.835,1.081-4.806,2.822
		l-0.93,1.667C25.379,21.546,25.537,22.105,25.98,22.352z"/>
</g>
<g id="Layer_1">
</g>
</svg>
