<?xml version="1.0" encoding="iso-8859-1"?>
<!-- Generator: Adobe Illustrator 21.1.0, SVG Export Plug-In . SVG Version: 6.00 Build 0)  -->
<svg version="1.1" xmlns="http://www.w3.org/2000/svg" xmlns:xlink="http://www.w3.org/1999/xlink" x="0px" y="0px"
	 viewBox="0 0 50 50" style="enable-background:new 0 0 50 50;" xml:space="preserve">
<g id="pen">
	<g>
		<g>
			<path style="fill:#252830;" d="M50,2.5v45c0,1.381-1.119,2.5-2.5,2.5h-45C1.119,50,0,48.881,0,47.5v-45C0,1.119,1.119,0,2.5,0h45
				C48.881,0,50,1.119,50,2.5z"/>
		</g>
		<path style="fill:#8C96A5;" d="M19.174,26.857l-1.172,3.988c-0.094,0.326-0.003,0.674,0.234,0.911
			c0.173,0.173,0.407,0.267,0.648,0.267c0.088,0,0.173-0.013,0.26-0.036l3.988-1.175c0.146-0.046,0.28-0.124,0.387-0.231
			l10.479-10.475c0.173-0.173,0.27-0.407,0.27-0.651s-0.098-0.479-0.27-0.651l-2.819-2.813c-0.358-0.358-0.938-0.361-1.296,0.003
			L19.409,26.469C19.298,26.577,19.22,26.71,19.174,26.857z M30.532,17.941l1.52,1.514l-9.364,9.361
			c-0.048-0.297-0.166-0.625-0.527-0.986c-0.362-0.362-0.692-0.48-0.989-0.528L30.532,17.941z M36.736,14.194l-0.941-0.941
			c-0.85-0.85-2.331-0.843-3.174,0l-0.911,0.911c-0.361,0.358-0.361,0.938,0,1.296c0.358,0.365,0.937,0.365,1.296,0l0.911-0.911
			c0.153-0.146,0.426-0.153,0.579,0l0.944,0.947c0.078,0.075,0.117,0.173,0.117,0.286c0,0.137-0.068,0.234-0.12,0.29l-0.908,0.908
			c-0.361,0.358-0.361,0.938,0,1.296c0.179,0.182,0.413,0.27,0.648,0.27s0.469-0.088,0.648-0.27l0.915-0.911
			c0.423-0.426,0.654-0.99,0.654-1.582C37.394,15.177,37.159,14.611,36.736,14.194z M33.959,24.08c-0.508,0-0.918,0.41-0.918,0.918
			v10.57H14.443V16.945h10.549c0.508,0,0.918-0.41,0.918-0.918s-0.41-0.918-0.918-0.918H13.525c-0.508,0-0.918,0.41-0.918,0.918
			v20.459c0,0.508,0.41,0.918,0.918,0.918h20.435c0.508,0,0.918-0.41,0.918-0.918V24.998C34.877,24.49,34.467,24.08,33.959,24.08z"
			/>
	</g>
</g>
<g id="Layer_1">
</g>
</svg>
