<?xml version="1.0" encoding="iso-8859-1"?>
<!-- Generator: Adobe Illustrator 21.1.0, SVG Export Plug-In . SVG Version: 6.00 Build 0)  -->
<svg version="1.1" xmlns="http://www.w3.org/2000/svg" xmlns:xlink="http://www.w3.org/1999/xlink" x="0px" y="0px"
	 viewBox="0 0 50 50" style="enable-background:new 0 0 50 50;" xml:space="preserve">
<g id="plus">
	<g>
		<g>
			<path style="fill:#252830;" d="M50,47.5c0,1.381-1.119,2.5-2.5,2.5h-45C1.119,50,0,48.881,0,47.5v-45C0,1.119,1.119,0,2.5,0h45
				C48.881,0,50,1.119,50,2.5V47.5z"/>
		</g>
		<path style="fill:#8C96A5;" d="M36.486,24.083h-10.57v-10.57c0-0.508-0.41-0.918-0.918-0.918s-0.918,0.41-0.918,0.918v10.57
			H13.514c-0.508,0-0.918,0.41-0.918,0.918s0.41,0.918,0.918,0.918h10.566v10.566c0,0.508,0.41,0.918,0.918,0.918
			s0.918-0.41,0.918-0.918V25.919h10.57c0.508,0,0.918-0.41,0.918-0.918S36.994,24.083,36.486,24.083z"/>
	</g>
</g>
<g id="Layer_1">
</g>
</svg>
