<?xml version="1.0" encoding="iso-8859-1"?>
<!-- Generator: Adobe Illustrator 21.1.0, SVG Export Plug-In . SVG Version: 6.00 Build 0)  -->
<svg version="1.1" xmlns="http://www.w3.org/2000/svg" xmlns:xlink="http://www.w3.org/1999/xlink" x="0px" y="0px"
	 viewBox="0 0 50 50" style="enable-background:new 0 0 50 50;" xml:space="preserve">
<g id="reset">
	<path style="fill:#252830;" d="M50,47c0,1.657-1.343,3-3,3H3c-1.657,0-3-1.343-3-3V3c0-1.657,1.343-3,3-3h44c1.657,0,3,1.343,3,3
		V47z"/>
	<path style="fill:#8C96A5;" d="M36.583,12.627c-0.501-0.067-0.963,0.288-1.029,0.79l-0.589,4.502
		c-2.266-3.252-6.065-5.3-10.186-5.3c-6.705,0-12.16,5.554-12.16,12.381s5.455,12.381,12.16,12.381c4.3,0,8.323-2.349,10.498-6.131
		c0.253-0.439,0.102-1-0.338-1.252c-0.439-0.253-0.999-0.102-1.252,0.338c-1.849,3.214-5.263,5.211-8.909,5.211
		c-5.694,0-10.326-4.731-10.326-10.547c0-5.815,4.632-10.547,10.326-10.547c3.842,0,7.358,2.08,9.188,5.308l-5.697-0.746
		c-0.5-0.068-0.963,0.288-1.029,0.79c-0.065,0.502,0.288,0.963,0.79,1.028l7.351,0.962c0.02,0.003,0.039,0.003,0.059,0.004
		c0.012,0.001,0.024,0.002,0.035,0.002c0.009,0,0.018,0.002,0.026,0.002c0.03,0,0.058-0.005,0.088-0.008
		c0.021-0.002,0.042-0.002,0.064-0.006c0.051-0.009,0.1-0.022,0.148-0.039c0.007-0.002,0.014-0.003,0.02-0.005
		c0.001,0,0.001-0.001,0.002-0.001c0.055-0.021,0.107-0.047,0.156-0.077c0.018-0.011,0.034-0.025,0.051-0.037
		c0.029-0.021,0.058-0.042,0.085-0.066c0.018-0.016,0.033-0.034,0.049-0.051c0.023-0.025,0.046-0.049,0.066-0.076
		c0.014-0.018,0.025-0.037,0.038-0.056c0.019-0.029,0.036-0.059,0.052-0.09c0.01-0.02,0.019-0.041,0.027-0.063
		c0.013-0.031,0.024-0.063,0.033-0.096c0.007-0.025,0.012-0.049,0.017-0.074c0.003-0.018,0.009-0.034,0.012-0.052l0.962-7.351
		C37.439,13.153,37.085,12.692,36.583,12.627z"/>
</g>
<g id="Layer_1">
</g>
</svg>
