<?xml version="1.0" encoding="iso-8859-1"?>
<!-- Generator: Adobe Illustrator 21.1.0, SVG Export Plug-In . SVG Version: 6.00 Build 0)  -->
<svg version="1.1" xmlns="http://www.w3.org/2000/svg" xmlns:xlink="http://www.w3.org/1999/xlink" x="0px" y="0px"
	 viewBox="0 0 50 50" style="enable-background:new 0 0 50 50;" xml:space="preserve">
<g id="save">
	<path style="fill:#252830;" d="M50,47c0,1.657-1.343,3-3,3H3c-1.657,0-3-1.343-3-3V3c0-1.657,1.343-3,3-3h44c1.657,0,3,1.343,3,3
		V47z"/>
	<path style="fill:#8C96A5;" d="M37.112,19.021l-6.133-6.133c-0.172-0.172-0.405-0.269-0.648-0.269H13.536
		c-0.506,0-0.917,0.411-0.917,0.917v22.928c0,0.506,0.411,0.917,0.917,0.917h22.928c0.506,0,0.917-0.411,0.917-0.917V19.669
		C37.381,19.426,37.284,19.193,37.112,19.021z M18.007,14.453h10.26v6.706h-10.26V14.453z M31.305,35.547h-12.61v-4.471h12.61
		V35.547z M31.305,29.242h-12.61v-1.49h12.61V29.242z M35.547,35.547h-2.407v-8.713c0-0.506-0.411-0.917-0.917-0.917H17.778
		c-0.506,0-0.917,0.411-0.917,0.917v8.713h-2.407V14.453h1.72v7.624c0,0.506,0.411,0.917,0.917,0.917h12.095
		c0.506,0,0.917-0.411,0.917-0.917v-7.473l5.445,5.446V35.547z M25.688,15.714c-0.506,0-0.917,0.411-0.917,0.917v2.35
		c0,0.506,0.411,0.917,0.917,0.917s0.917-0.411,0.917-0.917v-2.35C26.605,16.125,26.194,15.714,25.688,15.714z"/>
</g>
<g id="Layer_1">
</g>
</svg>
