<?xml version="1.0" encoding="iso-8859-1"?>
<!-- Generator: Adobe Illustrator 21.1.0, SVG Export Plug-In . SVG Version: 6.00 Build 0)  -->
<svg version="1.1" id="Layer_1" xmlns="http://www.w3.org/2000/svg" xmlns:xlink="http://www.w3.org/1999/xlink" x="0px" y="0px"
	 viewBox="0 0 725.25 159.75" style="enable-background:new 0 0 725.25 159.75;" xml:space="preserve">
<path style="fill:#FF410B;" d="M76.688,70.75c-18.375-3.375-22.625-11.125-18.333-21.289c5.585-13.226,35.333-10.336,41.208,5.664
	l5.375-0.75c0,0-0.75-24.125-33.5-24.125s-33.5,26-33.5,30.125s2.125,20,21,24.5s28.375,5.25,28.375,17.75s-13.125,15.5-22.25,15.5
	s-19.5-5.625-25.75-18.625l-5.5,2.125c0,0,4,27.875,32.625,27.875s40.375-15,40.375-30.25S95.063,74.125,76.688,70.75z
	 M190.396,126.417h17.333V59.125h-17.333V126.417z M446.813,126.417h17.333V33.25h-17.333V126.417z M155.854,56.75
	c-11.323,0-18.09,5.65-22,11.135V33.25h-17.333v93.167h17.333V75.708c0,0,6.167-8.458,14.333-8.458
	c8.167,0,11.833,6.625,11.833,12.625v46.542h17.333V79.875C177.354,79.875,177.854,56.75,155.854,56.75z M640.283,56.75
	c-11.323,0-18.09,5.65-22,11.135V33.25H600.95v93.167h17.333V75.708c0,0,6.167-8.458,14.333-8.458
	c8.167,0,11.833,6.625,11.833,12.625v46.542h17.333V79.875C661.783,79.875,662.283,56.75,640.283,56.75z M199.063,30.75
	c-5.385,0-9.75,4.365-9.75,9.75s4.365,9.75,9.75,9.75s9.75-4.365,9.75-9.75S204.447,30.75,199.063,30.75z M259.354,55.75
	c-8.204,0-15.63,4.126-21,10.793V33.25h-17.333v93.167h17.333v-7.96c5.37,6.667,12.796,10.793,21,10.793
	c16.384,0,29.667-16.454,29.667-36.75S275.739,55.75,259.354,55.75z M252.103,118.625c-5.477,0-10.389-3.385-13.749-8.745V75.745
	c3.36-5.36,8.272-8.745,13.749-8.745c10.126,0,18.334,11.557,18.334,25.813S262.229,118.625,252.103,118.625z M336.604,55.75
	c-8.204,0-15.63,4.126-21,10.793V33.25h-17.333v93.167h17.333v-7.96c5.37,6.667,12.796,10.793,21,10.793
	c16.384,0,29.667-16.454,29.667-36.75S352.989,55.75,336.604,55.75z M329.353,118.625c-5.477,0-10.389-3.385-13.749-8.745V75.745
	c3.36-5.36,8.272-8.745,13.749-8.745c10.126,0,18.334,11.557,18.334,25.813S339.479,118.625,329.353,118.625z M404.354,56
	c-19.376,0-35.083,12.875-35.083,36.625s15.707,36.625,35.083,36.625c19.376,0,35.083-12.875,35.083-36.625S423.73,56,404.354,56z
	 M404.354,118.158c-9.297,0-16.833-8.976-16.833-25.533s7.537-25.533,16.833-25.533c9.297,0,16.833,8.976,16.833,25.533
	S413.651,118.158,404.354,118.158z M507.229,56c-19.721,0-35.708,12.875-35.708,36.625c0,0.606,0.017,1.2,0.038,1.792
	c0.787,22.602,16.452,34.833,35.67,34.833c17.208,0,27.462-7.236,32.886-20.862l-4.803-2.951
	c-10.125,13.313-18.833,12.786-23.282,12.786c-9.285,0-21.656-8.366-22.206-23.807h34.81H542.9c0.021-0.592,0.038-1.186,0.038-1.792
	C542.938,68.875,526.95,56,507.229,56z M490.531,84.25c2.181-11.226,8.83-17.224,16.698-17.224s14.517,5.998,16.698,17.224H490.531z
	 M593.345,119.21c-1.847,1.057-4.007,1.665-6.314,1.665c-6.817,0-12.344-5.303-12.344-11.844V69.375h15.375v-10.5h-15.375V40.25
	h-17.333v18.625h-10.792v10.5h10.792v40.833c0,10.516,9.672,19.042,21.604,19.042c6.366,0,12.09-2.427,16.043-6.289l-1.654-3.747
	L593.345,119.21z M681.807,107.218c-5.336,0-9.629,4.232-9.629,9.569c0,5.397,4.293,9.63,9.629,9.63c5.398,0,9.63-4.233,9.63-9.63
	C691.438,111.45,687.206,107.218,681.807,107.218z M681.81,125.102c-4.524,0-7.918-3.661-7.918-8.318
	c0-4.524,3.393-8.251,7.918-8.251c4.526,0,7.853,3.727,7.853,8.251C689.663,121.441,686.336,125.102,681.81,125.102z
	 M683.883,117.182v-0.141c1.141-0.422,2.09-1.337,2.09-2.604c0-1.056-0.443-1.901-1.013-2.323c-0.696-0.564-1.519-0.915-3.293-0.915
	c-1.583,0-2.722,0.211-3.546,0.422v10.912h2.09v-4.365h1.077c1.266,0,1.9,0.564,2.09,1.69c0.253,1.337,0.443,2.253,0.76,2.674h2.216
	c-0.19-0.351-0.381-1.056-0.697-2.674C685.341,118.379,684.897,117.534,683.883,117.182z M681.351,116.337h-1.077v-3.096
	c0.253-0.07,0.632-0.141,1.266-0.141c1.458,0,2.09,0.633,2.09,1.689C683.63,115.915,682.617,116.337,681.351,116.337z"/>
</svg>
