<?xml version="1.0" encoding="utf-8"?>
<!-- Generator: Adobe Illustrator 21.1.0, SVG Export Plug-In . SVG Version: 6.00 Build 0)  -->
<svg version="1.1" id="Layer_1" xmlns="http://www.w3.org/2000/svg" xmlns:xlink="http://www.w3.org/1999/xlink" x="0px" y="0px"
	 viewBox="0 0 50 50" style="enable-background:new 0 0 50 50;" xml:space="preserve">
<style type="text/css">
	.st0{fill:#252830;}
	.st1{fill:#5B616B;}
</style>
<path class="st0" d="M50,46.7c0,1.8-1.5,3.3-3.3,3.3H3.3C1.5,50,0,48.5,0,46.7V3.3C0,1.5,1.5,0,3.3,0h43.3C48.5,0,50,1.5,50,3.3
	V46.7z"/>
<path class="st1" d="M37.7,35.2c0,1.4-1.1,2.5-2.5,2.5H14.8c-1.4,0-2.5-1.1-2.5-2.5V14.8c0-1.4,1.1-2.5,2.5-2.5h20.4
	c1.4,0,2.5,1.1,2.5,2.5L37.7,35.2L37.7,35.2z"/>
</svg>
