<?xml version="1.0" encoding="iso-8859-1"?>
<!-- Generator: Adobe Illustrator 21.1.0, SVG Export Plug-In . SVG Version: 6.00 Build 0)  -->
<svg version="1.1" xmlns="http://www.w3.org/2000/svg" xmlns:xlink="http://www.w3.org/1999/xlink" x="0px" y="0px"
	 viewBox="0 0 50 50" style="enable-background:new 0 0 50 50;" xml:space="preserve">
<g id="tags">
	<g>
		<g>
			<path style="fill:#252830;" d="M50,47.5c0,1.381-1.119,2.5-2.5,2.5h-45C1.119,50,0,48.881,0,47.5v-45C0,1.119,1.119,0,2.5,0h45
				C48.881,0,50,1.119,50,2.5V47.5z"/>
		</g>
		<path style="fill:#8C96A5;" d="M36.48,25.949h-4.326c-0.005,0-0.008,0.005-0.012,0.005l3.069-3.068
			c0.173-0.169,0.27-0.404,0.27-0.648s-0.098-0.479-0.27-0.648l-6.8-6.8c-0.339-0.345-0.954-0.345-1.299,0l-3.057,3.06
			c0,0-0.001,0.006-0.003,0.008V13.52c0-0.508-0.41-0.918-0.918-0.918h-9.613c-0.508,0-0.918,0.41-0.918,0.918v18.151
			c0,1.576,0.641,3.006,1.675,4.042c0.001,0.001,0.001,0.003,0.002,0.004c0.506,0.508,1.097,0.898,1.733,1.18
			c0.032,0.014,0.06,0.036,0.093,0.05c0.284,0.12,0.582,0.203,0.884,0.275c0.066,0.016,0.128,0.045,0.195,0.059
			c0.373,0.075,0.756,0.116,1.145,0.116H36.48c0.508,0,0.918-0.41,0.918-0.918v-9.613C37.398,26.359,36.988,25.949,36.48,25.949z
			 M24.052,19.133c0.004,0.004,0.002,0.011,0.007,0.016c0,0,0.004,0.001,0.005,0.002l6.144,6.144l-6.156,6.156V19.133z
			 M22.216,31.671c0,1.131-0.503,2.13-1.276,2.841c-1.488,1.347-3.934,1.334-5.358-0.09l-0.001,0
			c-0.705-0.705-1.142-1.677-1.142-2.75V18.764h7.777V31.671z M22.216,16.928h-7.777v-2.49h7.777V16.928z M31.236,26.867v8.695
			h-8.704l8.71-8.707C31.241,26.859,31.236,26.861,31.236,26.867z M26.003,18.499l1.76-1.762l5.501,5.501l-1.761,1.761
			L26.003,18.499z M35.562,35.561h-2.49v-7.777h2.49V35.561z M18.329,33.071c0.771,0,1.396-0.628,1.396-1.4
			c0-0.771-0.625-1.396-1.396-1.396s-1.4,0.625-1.4,1.396C16.929,32.443,17.557,33.071,18.329,33.071z"/>
	</g>
</g>
<g id="Layer_1">
</g>
</svg>
