<svg id="Layer_1" data-name="Layer 1" xmlns="http://www.w3.org/2000/svg" xmlns:xlink="http://www.w3.org/1999/xlink" viewBox="0 0 612 612"><defs><style>.cls-1,.cls-2,.cls-3{stroke:#232323;stroke-miterlimit:10;stroke-width:1.31px;}.cls-1{fill:url(#linear-gradient);}.cls-2{fill:url(#linear-gradient-2);}.cls-3{fill:url(#linear-gradient-3);}</style><linearGradient id="linear-gradient" x1="560.21" y1="31.67" x2="560.21" y2="580.33" gradientUnits="userSpaceOnUse"><stop offset="0" stop-color="#fafafa"/><stop offset="1" stop-color="#ebebeb"/></linearGradient><linearGradient id="linear-gradient-2" x1="306" y1="330.12" x2="306" y2="459.67" xlink:href="#linear-gradient"/><linearGradient id="linear-gradient-3" x1="253.89" y1="152.32" x2="253.89" y2="281.85" xlink:href="#linear-gradient"/></defs><path id="AlignRight" class="cls-1" d="M560.2,31.67A20.33,20.33,0,0,0,539.87,52V560a20.34,20.34,0,0,0,40.68,0V52A20.34,20.34,0,0,0,560.2,31.67Z"/><path class="cls-2" d="M476.33,350.44v88.91A20.35,20.35,0,0,1,456,459.67H156a20.35,20.35,0,0,1-20.34-20.32V350.44A20.35,20.35,0,0,1,156,330.12H456A20.35,20.35,0,0,1,476.33,350.44Z"/><path class="cls-3" d="M476.33,172.64v88.89A20.34,20.34,0,0,1,456,281.85H51.78a20.33,20.33,0,0,1-20.33-20.32V172.64a20.33,20.33,0,0,1,20.33-20.32H456A20.34,20.34,0,0,1,476.33,172.64Z"/></svg>