<?xml version="1.0" encoding="iso-8859-1"?>
<!-- Generator: Adobe Illustrator 21.1.0, SVG Export Plug-In . SVG Version: 6.00 Build 0)  -->
<svg version="1.1" xmlns="http://www.w3.org/2000/svg" xmlns:xlink="http://www.w3.org/1999/xlink" x="0px" y="0px"
	 viewBox="0 0 50 50" style="enable-background:new 0 0 50 50;" xml:space="preserve">
<g id="AlignMiddle">
	<path style="fill:#E1EFFF;" d="M25,50C11.215,50,0,38.785,0,25C0,11.215,11.215,0,25,0c13.785,0,25,11.215,25,25
		C50,38.785,38.785,50,25,50z"/>
	<path style="fill:#1C1E21;" d="M36.905,25.952h-5.417c-0.526,0-0.952-0.426-0.952-0.952s0.426-0.952,0.952-0.952h5.417
		c0.526,0,0.952,0.426,0.952,0.952S37.431,25.952,36.905,25.952z"/>
	<path style="fill:#1C1E21;" d="M27.321,25.952H22.44c-0.526,0-0.952-0.426-0.952-0.952s0.426-0.952,0.952-0.952h4.881
		c0.526,0,0.952,0.426,0.952,0.952S27.847,25.952,27.321,25.952z"/>
	<path style="fill:#1C1E21;" d="M18.274,25.952h-5.179c-0.526,0-0.952-0.426-0.952-0.952s0.426-0.952,0.952-0.952h5.179
		c0.526,0,0.952,0.426,0.952,0.952S18.8,25.952,18.274,25.952z"/>
	<path style="fill:#1C1E21;" d="M22.44,37.857h-4.167c-0.526,0-0.952-0.426-0.952-0.952v-23.81c0-0.526,0.426-0.952,0.952-0.952
		h4.167c0.526,0,0.952,0.426,0.952,0.952v23.81C23.393,37.431,22.966,37.857,22.44,37.857z M19.226,35.952h2.262V14.048h-2.262
		V35.952z"/>
	<path style="fill:#1C1E21;" d="M31.488,32.976h-4.167c-0.526,0-0.952-0.426-0.952-0.952V17.976c0-0.526,0.426-0.952,0.952-0.952
		h4.167c0.526,0,0.952,0.426,0.952,0.952v14.048C32.44,32.55,32.014,32.976,31.488,32.976z M28.274,31.071h2.262V18.929h-2.262
		V31.071z"/>
</g>
<g id="Layer_1">
</g>
</svg>
