<?xml version="1.0" encoding="iso-8859-1"?>
<!-- Generator: Adobe Illustrator 21.1.0, SVG Export Plug-In . SVG Version: 6.00 Build 0)  -->
<svg version="1.1" xmlns="http://www.w3.org/2000/svg" xmlns:xlink="http://www.w3.org/1999/xlink" x="0px" y="0px"
	 viewBox="0 0 50 50" style="enable-background:new 0 0 50 50;" xml:space="preserve">
<g id="BrightnessContrast">
	<path style="fill:#E1EFFF;" d="M25,50C11.215,50,0,38.785,0,25C0,11.215,11.215,0,25,0c13.785,0,25,11.215,25,25
		C50,38.785,38.785,50,25,50z"/>
	<path style="fill:#1C1E21;" d="M25,37.857c-0.526,0-0.952-0.426-0.952-0.952v-3.125c0-0.526,0.426-0.952,0.952-0.952
		s0.952,0.426,0.952,0.952v3.125C25.952,37.431,25.526,37.857,25,37.857z"/>
	<path style="fill:#1C1E21;" d="M25,17.173c-0.526,0-0.952-0.426-0.952-0.952v-3.125c0-0.526,0.426-0.952,0.952-0.952
		s0.952,0.426,0.952,0.952v3.125C25.952,16.746,25.526,17.173,25,17.173z"/>
	<path style="fill:#1C1E21;" d="M18.792,19.744c-0.244,0-0.488-0.093-0.673-0.279l-2.21-2.21c-0.372-0.372-0.372-0.975,0-1.347
		c0.372-0.372,0.975-0.372,1.347,0l2.21,2.21c0.372,0.372,0.372,0.975,0,1.347C19.279,19.651,19.035,19.744,18.792,19.744z"/>
	<path style="fill:#1C1E21;" d="M33.418,34.37c-0.244,0-0.487-0.093-0.673-0.279l-2.212-2.212c-0.372-0.372-0.372-0.975,0-1.347
		c0.372-0.372,0.975-0.372,1.347,0l2.212,2.212c0.372,0.372,0.372,0.975,0,1.347C33.905,34.277,33.662,34.37,33.418,34.37z"/>
	<path style="fill:#1C1E21;" d="M31.208,19.744c-0.244,0-0.487-0.093-0.673-0.279c-0.372-0.372-0.372-0.975,0-1.347l2.21-2.21
		c0.372-0.372,0.975-0.372,1.347,0c0.372,0.372,0.372,0.975,0,1.347l-2.21,2.21C31.695,19.651,31.452,19.744,31.208,19.744z"/>
	<path style="fill:#1C1E21;" d="M16.582,34.37c-0.244,0-0.488-0.093-0.673-0.279c-0.372-0.372-0.372-0.975,0-1.347l2.21-2.21
		c0.372-0.372,0.975-0.372,1.347,0c0.372,0.372,0.372,0.975,0,1.347l-2.21,2.21C17.07,34.277,16.826,34.37,16.582,34.37z"/>
	<path style="fill:#1C1E21;" d="M36.905,25.952H33.78c-0.526,0-0.952-0.426-0.952-0.952s0.426-0.952,0.952-0.952h3.125
		c0.526,0,0.952,0.426,0.952,0.952S37.431,25.952,36.905,25.952z"/>
	<path style="fill:#1C1E21;" d="M16.22,25.952h-3.125c-0.526,0-0.952-0.426-0.952-0.952s0.426-0.952,0.952-0.952h3.125
		c0.526,0,0.952,0.426,0.952,0.952S16.746,25.952,16.22,25.952z"/>
	<path style="fill:#1C1E21;" d="M25,30.893c-3.249,0-5.893-2.644-5.893-5.893c0-3.249,2.643-5.893,5.893-5.893
		c3.249,0,5.893,2.643,5.893,5.893C30.893,28.249,28.249,30.893,25,30.893z M25,21.012c-2.199,0-3.988,1.789-3.988,3.988
		s1.789,3.988,3.988,3.988s3.988-1.789,3.988-3.988S27.199,21.012,25,21.012z"/>
</g>
<g id="Layer_1">
</g>
</svg>
