<?xml version="1.0" encoding="iso-8859-1"?>
<!-- Generator: Adobe Illustrator 21.1.0, SVG Export Plug-In . SVG Version: 6.00 Build 0)  -->
<svg version="1.1" xmlns="http://www.w3.org/2000/svg" xmlns:xlink="http://www.w3.org/1999/xlink" x="0px" y="0px"
	 viewBox="0 0 50 50" style="enable-background:new 0 0 50 50;" xml:space="preserve">
<g id="CinePlayer">
	<path style="fill:#E1EFFF;" d="M25,50C11.215,50,0,38.785,0,25C0,11.215,11.215,0,25,0c13.785,0,25,11.215,25,25
		C50,38.785,38.785,50,25,50z"/>
	<path style="fill:#1C1E21;" d="M36.905,37.857c-0.526,0-0.952-0.426-0.952-0.952v-23.81c0-0.526,0.426-0.952,0.952-0.952
		s0.952,0.426,0.952,0.952v23.81C37.857,37.431,37.431,37.857,36.905,37.857z"/>
	<path style="fill:#1C1E21;" d="M13.095,37.857c-0.526,0-0.952-0.426-0.952-0.952v-23.81c0-0.526,0.426-0.952,0.952-0.952
		c0.526,0,0.952,0.426,0.952,0.952v23.81C14.048,37.431,13.621,37.857,13.095,37.857z"/>
	<path style="fill:#1C1E21;" d="M32.202,37.857c-0.526,0-0.952-0.426-0.952-0.952v-23.81c0-0.526,0.426-0.952,0.952-0.952
		c0.526,0,0.952,0.426,0.952,0.952v23.81C33.155,37.431,32.728,37.857,32.202,37.857z"/>
	<path style="fill:#1C1E21;" d="M17.798,37.857c-0.526,0-0.952-0.426-0.952-0.952v-23.81c0-0.526,0.426-0.952,0.952-0.952
		c0.526,0,0.952,0.426,0.952,0.952v23.81C18.75,37.431,18.324,37.857,17.798,37.857z"/>
	<path style="fill:#1C1E21;" d="M17.798,23.125h-4.702c-0.526,0-0.952-0.426-0.952-0.952v-5.655c0-0.526,0.426-0.952,0.952-0.952
		h4.702c0.526,0,0.952,0.426,0.952,0.952v5.655C18.75,22.699,18.324,23.125,17.798,23.125z M14.048,21.22h2.798v-3.75h-2.798V21.22z
		"/>
	<path style="fill:#1C1E21;" d="M17.798,28.78h-4.702c-0.526,0-0.952-0.426-0.952-0.952v-5.655c0-0.526,0.426-0.952,0.952-0.952
		h4.702c0.526,0,0.952,0.426,0.952,0.952v5.655C18.75,28.353,18.324,28.78,17.798,28.78z M14.048,26.875h2.798v-3.75h-2.798V26.875z
		"/>
	<path style="fill:#1C1E21;" d="M17.798,34.435h-4.702c-0.526,0-0.952-0.426-0.952-0.952v-5.655c0-0.526,0.426-0.952,0.952-0.952
		h4.702c0.526,0,0.952,0.426,0.952,0.952v5.655C18.75,34.008,18.324,34.435,17.798,34.435z M14.048,32.53h2.798v-3.75h-2.798V32.53z
		"/>
	<path style="fill:#1C1E21;" d="M36.905,23.125h-4.702c-0.526,0-0.952-0.426-0.952-0.952v-5.655c0-0.526,0.426-0.952,0.952-0.952
		h4.702c0.526,0,0.952,0.426,0.952,0.952v5.655C37.857,22.699,37.431,23.125,36.905,23.125z M33.155,21.22h2.798v-3.75h-2.798V21.22
		z"/>
	<path style="fill:#1C1E21;" d="M36.905,28.78h-4.702c-0.526,0-0.952-0.426-0.952-0.952v-5.655c0-0.526,0.426-0.952,0.952-0.952
		h4.702c0.526,0,0.952,0.426,0.952,0.952v5.655C37.857,28.353,37.431,28.78,36.905,28.78z M33.155,26.875h2.798v-3.75h-2.798V26.875
		z"/>
	<path style="fill:#1C1E21;" d="M36.905,34.435h-4.702c-0.526,0-0.952-0.426-0.952-0.952v-5.655c0-0.526,0.426-0.952,0.952-0.952
		h4.702c0.526,0,0.952,0.426,0.952,0.952v5.655C37.857,34.008,37.431,34.435,36.905,34.435z M33.155,32.53h2.798v-3.75h-2.798V32.53
		z"/>
	<path style="fill:#1C1E21;" d="M32.202,15.952H17.798c-0.526,0-0.952-0.426-0.952-0.952s0.426-0.952,0.952-0.952h14.405
		c0.526,0,0.952,0.426,0.952,0.952S32.728,15.952,32.202,15.952z"/>
	<path style="fill:#1C1E21;" d="M32.202,35.952H17.798c-0.526,0-0.952-0.426-0.952-0.952s0.426-0.952,0.952-0.952h14.405
		c0.526,0,0.952,0.426,0.952,0.952S32.728,35.952,32.202,35.952z"/>
	<path style="fill:#1C1E21;" d="M32.202,25.952H17.798c-0.526,0-0.952-0.426-0.952-0.952s0.426-0.952,0.952-0.952h14.405
		c0.526,0,0.952,0.426,0.952,0.952S32.728,25.952,32.202,25.952z"/>
</g>
<g id="Layer_1">
</g>
</svg>
