<?xml version="1.0" encoding="iso-8859-1"?>
<!-- Generator: Adobe Illustrator 21.1.0, SVG Export Plug-In . SVG Version: 6.00 Build 0)  -->
<svg version="1.1" xmlns="http://www.w3.org/2000/svg" xmlns:xlink="http://www.w3.org/1999/xlink" x="0px" y="0px"
	 viewBox="0 0 50 50" style="enable-background:new 0 0 50 50;" xml:space="preserve">
<g id="ComposeLayout">
	<path style="fill:#E1EFFF;" d="M25,50C11.215,50,0,38.785,0,25C0,11.215,11.215,0,25,0c13.785,0,25,11.215,25,25
		C50,38.785,38.785,50,25,50z"/>
	<path style="fill:#1C1E21;" d="M19.337,37.857h-6.242c-0.526,0-0.952-0.426-0.952-0.952v-6.242c0-0.253,0.1-0.495,0.279-0.673
		L29.99,12.422c0.357-0.357,0.99-0.357,1.347,0l6.242,6.242c0.372,0.372,0.372,0.975,0,1.347L20.01,37.578
		C19.832,37.757,19.59,37.857,19.337,37.857z M14.048,35.952h4.895l16.616-16.615l-4.895-4.895L14.048,31.057V35.952z"/>
	<path style="fill:#1C1E21;" d="M32.228,24.966c-0.244,0-0.487-0.093-0.673-0.279l-6.242-6.242c-0.372-0.372-0.372-0.975,0-1.347
		c0.372-0.372,0.975-0.372,1.347,0l6.242,6.242c0.372,0.372,0.372,0.975,0,1.347C32.715,24.873,32.472,24.966,32.228,24.966z"/>
	<path style="fill:#1C1E21;" d="M36.905,37.857h-23.81c-0.526,0-0.952-0.426-0.952-0.952s0.426-0.952,0.952-0.952h23.81
		c0.526,0,0.952,0.426,0.952,0.952S37.431,37.857,36.905,37.857z"/>
</g>
<g id="Layer_1">
</g>
</svg>
