<svg id="Layer_1" data-name="Layer 1" xmlns="http://www.w3.org/2000/svg" xmlns:xlink="http://www.w3.org/1999/xlink" viewBox="0 0 612 612"><defs><style>.cls-1,.cls-2,.cls-3,.cls-4{stroke:#232323;stroke-miterlimit:10;stroke-width:1.31px;}.cls-1{fill:url(#linear-gradient);}.cls-2{fill:url(#linear-gradient-2);}.cls-3{fill:url(#linear-gradient-3);}.cls-4{fill:url(#linear-gradient-4);}</style><linearGradient id="linear-gradient" x1="175.65" y1="239.26" x2="175.65" y2="239.31" gradientUnits="userSpaceOnUse"><stop offset="0" stop-color="#fafafa"/><stop offset="1" stop-color="#ebebeb"/></linearGradient><linearGradient id="linear-gradient-2" x1="306" y1="31.49" x2="306" y2="580.51" xlink:href="#linear-gradient"/><linearGradient id="linear-gradient-3" x1="396.81" y1="113.54" x2="396.81" y2="315.55" xlink:href="#linear-gradient"/><linearGradient id="linear-gradient-4" x1="267.89" y1="268.09" x2="267.89" y2="268.58" xlink:href="#linear-gradient"/></defs><polygon class="cls-1" points="166.78 239.25 184.53 239.25 166.95 239.31 166.78 239.31 166.78 239.25"/><path class="cls-2" d="M509.52,31.49H272.07a71.28,71.28,0,0,0-71.23,71.17v37.28a20.36,20.36,0,0,0,40.71,0V102.66a30.54,30.54,0,0,1,30.52-30.49H509.52a30.54,30.54,0,0,1,30.54,30.49V339.9a30.55,30.55,0,0,1-30.54,30.5H272.07a30.55,30.55,0,0,1-30.52-30.5l-.64-1.57V240.46c0-21.55-17.77-39.16-40-39.54h-74.3l-24.11.07h-.23a71.2,71.2,0,0,0-71,71.11V509.34a71.28,71.28,0,0,0,71.24,71.17H339.93a71.28,71.28,0,0,0,71.24-71.17V411.07h98.37a71.27,71.27,0,0,0,71.22-71.17V102.66A71.28,71.28,0,0,0,509.52,31.49ZM370.46,509.34a30.56,30.56,0,0,1-30.53,30.5H102.48a30.57,30.57,0,0,1-30.54-30.5V272.13a30.56,30.56,0,0,1,30.29-30.5h99.15v.5l-.06,11-.48,86.81a71.28,71.28,0,0,0,71.24,71.17h98.38Z"/><path class="cls-3" d="M498.61,134l-.24,91.11a20.33,20.33,0,1,1-40.66-.05l.09-42L333.13,306.17l-6.19,6.1a20.41,20.41,0,0,1-11.16,3.28,20.76,20.76,0,0,1-17.23-32.35,0,0,0,0,0,0,0l5.84-5.76L429.14,154.31l-42-.09a20.34,20.34,0,1,1,.1-40.68l91.11.13A20.29,20.29,0,0,1,498.61,134Z"/><path class="cls-4" d="M267.89,268.58v-.49"/></svg>