<svg id="Layer_1" data-name="Layer 1" xmlns="http://www.w3.org/2000/svg" xmlns:xlink="http://www.w3.org/1999/xlink" viewBox="0 0 612 612"><defs><style>.cls-1{opacity:0.6;}.cls-2,.cls-3{stroke:#232323;stroke-miterlimit:10;stroke-width:1.31px;}.cls-2{fill:url(#linear-gradient);}.cls-3{fill:url(#linear-gradient-2);}</style><linearGradient id="linear-gradient" x1="354.33" y1="31.39" x2="354.33" y2="500.1" gradientUnits="userSpaceOnUse"><stop offset="0" stop-color="#fafafa"/><stop offset="1" stop-color="#ebebeb"/></linearGradient><linearGradient id="linear-gradient-2" x1="257.67" y1="111.91" x2="257.67" y2="580.61" xlink:href="#linear-gradient"/></defs><g id="DeleteAnn"><g class="cls-1"><path class="cls-2" d="M560.37,500.1H463.71a20.35,20.35,0,1,1,0-40.69H540V72.08H168.64v60.17a20.35,20.35,0,0,1-40.7,0V51.74a20.36,20.36,0,0,1,20.35-20.35H560.37a20.36,20.36,0,0,1,20.35,20.35v428A20.35,20.35,0,0,1,560.37,500.1Z"/></g><path class="cls-3" d="M463.71,111.91H51.63a20.35,20.35,0,0,0-20.35,20.34v428a20.36,20.36,0,0,0,20.35,20.34H463.71a20.36,20.36,0,0,0,20.35-20.34v-428A20.35,20.35,0,0,0,463.71,111.91Zm-20.35,428H72V152.59H443.36V539.93ZM162.74,441.15a20.35,20.35,0,0,0,28.78,0L257.67,375l66.16,66.13a20.34,20.34,0,1,0,28.77-28.76l-66.15-66.14,66.15-66.12a20.34,20.34,0,1,0-28.77-28.77l-66.16,66.13-66.15-66.13a20.35,20.35,0,0,0-28.78,28.77l66.16,66.12-66.16,66.14A20.3,20.3,0,0,0,162.74,441.15Z"/></g></svg>