<?xml version="1.0" encoding="iso-8859-1"?>
<!-- Generator: Adobe Illustrator 21.1.0, SVG Export Plug-In . SVG Version: 6.00 Build 0)  -->
<svg version="1.1" xmlns="http://www.w3.org/2000/svg" xmlns:xlink="http://www.w3.org/1999/xlink" x="0px" y="0px"
	 viewBox="0 0 50 50" style="enable-background:new 0 0 50 50;" xml:space="preserve">
<g id="DeleteTemplateBox">
	<path style="fill:#E1EFFF;" d="M25,50C11.215,50,0,38.785,0,25C0,11.215,11.215,0,25,0c13.785,0,25,11.215,25,25
		C50,38.785,38.785,50,25,50z"/>
	<path style="fill:#1C1E21;" d="M36.905,23.333h-4.524c-0.526,0-0.952-0.426-0.952-0.952c0-0.526,0.426-0.952,0.952-0.952h3.571
		v-7.381H14.048v7.381h3.571c0.526,0,0.952,0.426,0.952,0.952c0,0.526-0.426,0.952-0.952,0.952h-4.524
		c-0.526,0-0.952-0.426-0.952-0.952v-9.286c0-0.526,0.426-0.952,0.952-0.952h23.81c0.526,0,0.952,0.426,0.952,0.952v9.286
		C37.857,22.907,37.431,23.333,36.905,23.333z"/>
	<path style="fill:#1C1E21;" d="M36.905,37.857h-23.81c-0.526,0-0.952-0.426-0.952-0.952v-9.286c0-0.526,0.426-0.952,0.952-0.952
		h4.524c0.526,0,0.952,0.426,0.952,0.952c0,0.526-0.426,0.952-0.952,0.952h-3.571v7.381h21.905v-7.381h-3.571
		c-0.526,0-0.952-0.426-0.952-0.952c0-0.526,0.426-0.952,0.952-0.952h4.524c0.526,0,0.952,0.426,0.952,0.952v9.286
		C37.857,37.431,37.431,37.857,36.905,37.857z"/>
	<path style="fill:#1C1E21;" d="M20.635,30.318c-0.244,0-0.488-0.093-0.673-0.279c-0.372-0.372-0.372-0.975,0-1.347l8.73-8.73
		c0.372-0.372,0.975-0.372,1.347,0c0.372,0.372,0.372,0.975,0,1.347l-8.73,8.73C21.123,30.225,20.879,30.318,20.635,30.318z"/>
	<path style="fill:#1C1E21;" d="M29.365,30.318c-0.244,0-0.487-0.093-0.673-0.279l-8.73-8.73c-0.372-0.372-0.372-0.975,0-1.347
		c0.372-0.372,0.975-0.372,1.347,0l8.73,8.73c0.372,0.372,0.372,0.975,0,1.347C29.853,30.225,29.609,30.318,29.365,30.318z"/>
</g>
<g id="Layer_1">
</g>
</svg>
