<?xml version="1.0" encoding="iso-8859-1"?>
<!-- Generator: Adobe Illustrator 21.1.0, SVG Export Plug-In . SVG Version: 6.00 Build 0)  -->
<svg version="1.1" xmlns="http://www.w3.org/2000/svg" xmlns:xlink="http://www.w3.org/1999/xlink" x="0px" y="0px"
	 viewBox="0 0 50 50" style="enable-background:new 0 0 50 50;" xml:space="preserve">
<g id="DeleteAnn">
	<path style="fill:#E1EFFF;" d="M25,50C11.215,50,0,38.785,0,25C0,11.215,11.215,0,25,0c13.785,0,25,11.215,25,25
		C50,38.785,38.785,50,25,50z"/>
	<path style="fill:#1C1E21;" d="M32.381,37.857H13.095c-0.526,0-0.952-0.426-0.952-0.952v-20.04c0-0.526,0.426-0.952,0.952-0.952
		h19.286c0.526,0,0.952,0.426,0.952,0.952v20.04C33.333,37.431,32.907,37.857,32.381,37.857z M14.048,35.952h17.381V17.817H14.048
		V35.952z"/>
	<path style="fill:#1C1E21;" d="M36.905,34.088h-4.524c-0.526,0-0.952-0.426-0.952-0.952s0.426-0.952,0.952-0.952h3.571V14.048
		H18.571v2.817c0,0.526-0.426,0.952-0.952,0.952c-0.526,0-0.952-0.426-0.952-0.952v-3.77c0-0.526,0.426-0.952,0.952-0.952h19.286
		c0.526,0,0.952,0.426,0.952,0.952v20.04C37.857,33.661,37.431,34.088,36.905,34.088z"/>
	<path style="fill:#1C1E21;" d="M18.969,31.607c-0.244,0-0.488-0.093-0.673-0.279c-0.372-0.372-0.372-0.975,0-1.347l7.539-7.539
		c0.372-0.372,0.975-0.372,1.347,0c0.372,0.372,0.372,0.975,0,1.347l-7.539,7.539C19.456,31.514,19.212,31.607,18.969,31.607z"/>
	<path style="fill:#1C1E21;" d="M26.508,31.607c-0.244,0-0.487-0.093-0.673-0.279l-7.539-7.539c-0.372-0.372-0.372-0.975,0-1.347
		c0.372-0.372,0.975-0.372,1.347,0l7.539,7.539c0.372,0.372,0.372,0.975,0,1.347C26.995,31.514,26.751,31.607,26.508,31.607z"/>
</g>
<g id="Layer_1">
</g>
</svg>
