<svg id="Layer_1" data-name="Layer 1" xmlns="http://www.w3.org/2000/svg" xmlns:xlink="http://www.w3.org/1999/xlink" viewBox="0 0 612 612"><defs><style>.cls-1{stroke:#232323;stroke-miterlimit:10;stroke-width:1.31px;fill:url(#linear-gradient);}</style><linearGradient id="linear-gradient" x1="306" y1="30.84" x2="306" y2="581.16" gradientUnits="userSpaceOnUse"><stop offset="0" stop-color="#fafafa"/><stop offset="1" stop-color="#ebebeb"/></linearGradient></defs><path id="EdgeEnhancment" class="cls-1" d="M306,30.84c-72.52,0-142.91,27.83-194.11,81.37-8.53,8.57-8.53,21.41,0,27.84s21.33,8.56,27.73,0c44.8-45,102.39-68.53,164.25-68.53,128,0,234.63,104.93,234.63,235.55,0,21.42-2.13,42.83-8.53,64.24C527.84,382,532.1,392.73,544.9,397h6.4a20.51,20.51,0,0,0,19.2-15c6.4-25.7,10.66-49.25,10.66-74.95C581.16,155,457.45,30.84,306,30.84ZM99.1,416.28c-4.27-10.71-17.07-12.85-27.73-8.57s-12.8,17.13-8.54,27.84c14.94,30,36.27,55.67,59.73,77.09,4.27,4.28,8.53,4.28,12.8,4.28,6.4,0,10.66-2.15,14.93-6.43,8.53-8.56,6.4-21.41-2.14-27.83A296.69,296.69,0,0,1,99.1,416.28ZM73.5,326.34V307.07c0-21.41,2.13-42.83,8.53-64.24,2.13-10.71-2.13-21.41-14.93-25.7-10.66-2.14-21.33,2.14-25.6,15-6.4,25.7-10.66,49.25-10.66,74.95v21.41c0,10.71,10.66,19.28,19.2,19.28h2.13C65,347.76,73.5,337.05,73.5,326.34ZM470.24,472c-19.19,19.28-42.66,36.41-68.25,47.11-10.67,4.29-14.93,17.13-10.67,27.84,4.27,6.43,10.67,12.85,19.2,12.85,2.14,0,6.4,0,8.53-2.14,29.86-12.85,55.46-32.12,78.92-55.68,8.53-8.57,8.53-21.41,0-27.84C491.57,465.53,478.78,465.53,470.24,472ZM312.4,540.48a280.42,280.42,0,0,1-83.19-12.85c-10.66-4.28-21.33,2.14-25.6,12.85s2.14,21.41,12.8,25.69c27.73,10.71,57.59,15,89.59,15h8.53c10.66,0,19.2-10.7,19.2-21.41S325.2,540.48,312.4,540.48Z"/></svg>