<?xml version="1.0" encoding="iso-8859-1"?>
<!-- Generator: Adobe Illustrator 21.1.0, SVG Export Plug-In . SVG Version: 6.00 Build 0)  -->
<svg version="1.1" xmlns="http://www.w3.org/2000/svg" xmlns:xlink="http://www.w3.org/1999/xlink" x="0px" y="0px"
	 viewBox="0 0 50 50" style="enable-background:new 0 0 50 50;" xml:space="preserve">
<g id="Endo">
	<path style="fill:#E1EFFF;" d="M25,50C11.215,50,0,38.785,0,25C0,11.215,11.215,0,25,0c13.785,0,25,11.215,25,25
		C50,38.785,38.785,50,25,50z"/>
	<path style="fill:#1C1E21;" d="M27.669,32.381c-1.851,0-2.139-2.12-2.348-3.667c-0.053-0.396-0.131-0.969-0.233-1.373
		c-0.1,0.403-0.176,0.975-0.228,1.37c-0.205,1.549-0.485,3.67-2.339,3.67c-1.397,0-3.029-1.482-3.029-5.658
		c0-0.787-0.231-1.562-0.475-2.382c-0.462-1.551-0.985-3.308,0.361-5.022c0.811-1.032,1.846-1.6,2.993-1.64
		c0.932-0.031,1.815,0.279,2.572,0.708c2.327-1.29,4.562-0.933,5.898,0.975c1,1.427,0.618,3.126,0.25,4.768
		c-0.193,0.862-0.394,1.754-0.394,2.593C30.698,30.899,29.066,32.381,27.669,32.381z M25.086,25.067c1.663,0,1.918,1.88,2.122,3.391
		c0.087,0.64,0.248,1.831,0.498,2.036c0.201-0.018,1.087-0.957,1.087-3.771c0-1.051,0.224-2.047,0.44-3.011
		c0.304-1.352,0.566-2.52,0.049-3.258c-0.725-1.034-1.709-1.074-2.617-0.765c0.201,0.193,0.369,0.369,0.499,0.511
		c0.353,0.389,0.324,0.992-0.066,1.345c-0.389,0.354-0.991,0.324-1.345-0.065c-0.856-0.944-2.174-1.947-3.314-1.898
		c-0.585,0.021-1.096,0.319-1.563,0.913c-0.703,0.895-0.483,1.792-0.034,3.302c0.26,0.872,0.554,1.861,0.554,2.925
		c0,2.749,0.845,3.709,1.107,3.752c0.236-0.255,0.386-1.393,0.468-2.014C23.171,26.949,23.42,25.067,25.086,25.067z"/>
	<path style="fill:#1C1E21;" d="M34.524,37.857H15.476c-1.838,0-3.333-1.496-3.333-3.333V15.476c0-1.838,1.495-3.333,3.333-3.333
		h19.048c1.838,0,3.333,1.495,3.333,3.333v19.048C37.857,36.362,36.362,37.857,34.524,37.857z M15.476,14.048
		c-0.788,0-1.429,0.641-1.429,1.429v19.048c0,0.788,0.641,1.429,1.429,1.429h19.048c0.788,0,1.429-0.641,1.429-1.429V15.476
		c0-0.788-0.641-1.429-1.429-1.429H15.476z"/>
</g>
<g id="Layer_1">
</g>
</svg>
