<svg id="Layer_1" data-name="Layer 1" xmlns="http://www.w3.org/2000/svg" xmlns:xlink="http://www.w3.org/1999/xlink" viewBox="0 0 612 612"><defs><style>.cls-1{stroke:#232323;stroke-miterlimit:10;stroke-width:1.31px;fill:url(#linear-gradient);}</style><linearGradient id="linear-gradient" x1="306" y1="31.67" x2="306" y2="580.33" gradientUnits="userSpaceOnUse"><stop offset="0" stop-color="#fafafa"/><stop offset="1" stop-color="#ebebeb"/></linearGradient></defs><path id="Export" class="cls-1" d="M393,444.16,326.31,511V326.32a20.31,20.31,0,1,0-40.62,0V511L219,444.16a20.31,20.31,0,1,0-28.71,28.73L291.62,574.35a19.22,19.22,0,0,0,3.09,2.52,8.76,8.76,0,0,0,.85.47,19.57,19.57,0,0,0,2.64,1.4c.39.16.81.25,1.2.37a22.63,22.63,0,0,0,2.58.79,19.91,19.91,0,0,0,8,0,18.78,18.78,0,0,0,2.58-.79c.4-.14.81-.21,1.2-.37a19.57,19.57,0,0,0,2.64-1.4,8.76,8.76,0,0,0,.85-.47,21.94,21.94,0,0,0,3.09-2.52L421.76,472.89A20.31,20.31,0,0,0,393,444.16Zm116-412.49H103A71.18,71.18,0,0,0,31.89,102.8V509.2A71.17,71.17,0,0,0,103,580.32h54.57a20.32,20.32,0,0,0,0-40.63H103A30.51,30.51,0,0,1,72.5,509.2V246.73A30.51,30.51,0,0,1,103,216.24H509.05a30.51,30.51,0,0,1,30.45,30.49V509.2a30.51,30.51,0,0,1-30.45,30.49H454.47a20.32,20.32,0,0,0,0,40.64h54.58a71.18,71.18,0,0,0,71.06-71.13V102.8A71.18,71.18,0,0,0,509.05,31.67Zm30.45,150.9a70.52,70.52,0,0,0-30.45-7H103a70.52,70.52,0,0,0-30.46,7V102.78A30.51,30.51,0,0,1,103,72.29H509.05a30.51,30.51,0,0,1,30.45,30.49v79.79ZM352.15,104.44A19.53,19.53,0,1,0,371.67,124,19.51,19.51,0,0,0,352.15,104.44Zm68.06,0A19.53,19.53,0,1,0,439.73,124,19.53,19.53,0,0,0,420.21,104.44Zm68.06,0A19.53,19.53,0,1,0,507.79,124,19.53,19.53,0,0,0,488.27,104.44Z"/></svg>