<?xml version="1.0" encoding="iso-8859-1"?>
<!-- Generator: Adobe Illustrator 21.1.0, SVG Export Plug-In . SVG Version: 6.00 Build 0)  -->
<svg version="1.1" xmlns="http://www.w3.org/2000/svg" xmlns:xlink="http://www.w3.org/1999/xlink" x="0px" y="0px"
	 viewBox="0 0 50 50" style="enable-background:new 0 0 50 50;" xml:space="preserve">
<g id="FirstFrameButton">
	<g>
		<path style="fill:#C7CEDD;" d="M50,46.667C50,48.509,48.507,50,46.667,50H3.333C1.492,50,0,48.509,0,46.667V3.333
			C0,1.494,1.492,0,3.333,0h43.333C48.507,0,50,1.494,50,3.333V46.667z"/>
		<path style="fill:#333333;" d="M17.943,37.754c0.921,0,1.667-0.745,1.667-1.667v-8.662L32.07,37.578
			c0.823,0.488,1.862-0.108,1.862-1.065V13.49c0-0.96-1.038-1.556-1.862-1.064L19.609,22.578v-8.662c0-0.98-0.895-1.667-1.875-1.667
			c-0.921,0-1.667,0.746-1.667,1.667v22.171C16.068,37.067,16.963,37.754,17.943,37.754z"/>
	</g>
</g>
<g id="Layer_1">
</g>
</svg>
