<svg id="Layer_1" data-name="Layer 1" xmlns="http://www.w3.org/2000/svg" xmlns:xlink="http://www.w3.org/1999/xlink" viewBox="0 0 612 612"><defs><style>.cls-1,.cls-3,.cls-4,.cls-5,.cls-6{stroke:#232323;stroke-miterlimit:10;stroke-width:1.31px;}.cls-1{fill:url(#linear-gradient);}.cls-2{opacity:0.8;}.cls-3{fill:url(#linear-gradient-2);}.cls-4{fill:url(#linear-gradient-3);}.cls-5{fill:url(#linear-gradient-4);}.cls-6{fill:url(#linear-gradient-5);}</style><linearGradient id="linear-gradient" x1="308.36" y1="111.85" x2="308.36" y2="499.06" gradientUnits="userSpaceOnUse"><stop offset="0" stop-color="#fafafa"/><stop offset="1" stop-color="#ebebeb"/></linearGradient><linearGradient id="linear-gradient-2" x1="130.44" y1="30.48" x2="130.44" y2="203.53" xlink:href="#linear-gradient"/><linearGradient id="linear-gradient-3" x1="475.85" y1="30.48" x2="475.85" y2="203.53" xlink:href="#linear-gradient"/><linearGradient id="linear-gradient-4" x1="136.03" y1="408.03" x2="136.03" y2="581.21" xlink:href="#linear-gradient"/><linearGradient id="linear-gradient-5" x1="481.51" y1="408.47" x2="481.51" y2="581.52" xlink:href="#linear-gradient"/></defs><path class="cls-1" d="M502.54,341.29v138a19.16,19.16,0,0,1-.4,3.83c-.13.66-.4,1.19-.53,1.72s-.39,1.32-.66,2-.66,1.32-1.06,2-.52.92-.79,1.45a20.85,20.85,0,0,1-5.42,5.42c-.53.26-.92.53-1.45.79a13.64,13.64,0,0,1-2,1.06,11.79,11.79,0,0,1-2,.66c-.53.13-1.19.4-1.72.53a19.16,19.16,0,0,1-3.83.4H344.5a19.56,19.56,0,0,1,0-39.12h90.91l-54.7-54.74a18.9,18.9,0,0,1-4.38-3.32L153.29,179v90.91a19.56,19.56,0,1,1-39.11,0V131.67a18.46,18.46,0,0,1,.4-3.83c.13-.53.39-1.19.52-1.72a12.77,12.77,0,0,1,.66-2,16.75,16.75,0,0,1,1.06-2c.27-.52.53-.92.79-1.45a21.48,21.48,0,0,1,5.42-5.42c.53-.26.93-.53,1.46-.79s1.18-.66,2-1.06,1.32-.39,2-.66,1.06-.39,1.72-.53a19.15,19.15,0,0,1,3.83-.39H272a20.2,20.2,0,0,1,19.55,20A19.51,19.51,0,0,1,272,151.36H181l54.54,54.54a19.5,19.5,0,0,1,4.54,3.38L463,432.2V341.29a19.51,19.51,0,0,1,19.55-19.56A20.21,20.21,0,0,1,502.54,341.29Z"/><g class="cls-2"><path class="cls-3" d="M50.08,203.53A19.51,19.51,0,0,1,30.53,184V50A19.51,19.51,0,0,1,50.08,30.48H210.79a19.56,19.56,0,0,1,0,39.12H69.64V184A19.59,19.59,0,0,1,50.08,203.53Z"/></g><g class="cls-2"><path class="cls-4" d="M556.2,203.53A19.51,19.51,0,0,0,575.76,184V50A19.51,19.51,0,0,0,556.2,30.48H395.5a19.56,19.56,0,0,0,0,39.12H536.65V184A19.59,19.59,0,0,0,556.2,203.53Z"/></g><g class="cls-2"><path class="cls-5" d="M55.81,408a19.51,19.51,0,0,0-19.57,19.53L36.12,561.5a19.52,19.52,0,0,0,19.54,19.57l160.71.14a19.56,19.56,0,1,0,0-39.11L75.25,542l.1-114.38A19.59,19.59,0,0,0,55.81,408Z"/></g><g class="cls-2"><path class="cls-6" d="M561.93,408.47A19.51,19.51,0,0,1,581.47,428L581.35,562a19.5,19.5,0,0,1-19.57,19.54l-160.7-.14a19.56,19.56,0,0,1,0-39.12l141.15.13.1-114.38A19.59,19.59,0,0,1,561.93,408.47Z"/></g></svg>