<?xml version="1.0" encoding="iso-8859-1"?>
<!-- Generator: Adobe Illustrator 21.1.0, SVG Export Plug-In . SVG Version: 6.00 Build 0)  -->
<svg version="1.1" xmlns="http://www.w3.org/2000/svg" xmlns:xlink="http://www.w3.org/1999/xlink" x="0px" y="0px"
	 viewBox="0 0 50 50" style="enable-background:new 0 0 50 50;" xml:space="preserve">
<g id="FMX20">
	<path style="fill:#E1EFFF;" d="M25,50C11.215,50,0,38.785,0,25C0,11.215,11.215,0,25,0c13.785,0,25,11.215,25,25
		C50,38.785,38.785,50,25,50z"/>
	<path style="fill:#1C1E21;" d="M18.027,19.442c0-0.132,0.106-0.238,0.238-0.238h3.079c0.132,0,0.238,0.106,0.238,0.238V19.9
		c0,0.132-0.106,0.238-0.238,0.238h-2.171c-0.066,0-0.119,0.053-0.119,0.119v0.756c0,0.066,0.054,0.119,0.119,0.119h1.87
		c0.132,0,0.238,0.106,0.238,0.238v0.458c0,0.132-0.107,0.238-0.238,0.238h-1.87c-0.066,0-0.119,0.054-0.119,0.119v1.45
		c0,0.132-0.106,0.238-0.238,0.238h-0.551c-0.132,0-0.238-0.106-0.238-0.238V19.442z"/>
	<path style="fill:#1C1E21;" d="M22.4,19.442c0-0.132,0.106-0.238,0.238-0.238h0.631c0.148,0,0.286,0.077,0.364,0.202l1.039,1.671
		c0.029,0.046,0.097,0.046,0.126,0l1.039-1.671c0.078-0.126,0.216-0.202,0.364-0.202h0.631c0.132,0,0.238,0.106,0.238,0.238v4.193
		c0,0.132-0.107,0.238-0.238,0.238h-0.545c-0.132,0-0.238-0.106-0.238-0.238v-2.691c0-0.035-0.046-0.049-0.066-0.02l-1.241,1.884
		c-0.005,0.007-0.013,0.011-0.021,0.011c-0.008,0-0.016-0.004-0.021-0.011l-1.228-1.864c-0.02-0.03-0.066-0.016-0.066,0.02v2.671
		c0,0.132-0.106,0.238-0.238,0.238h-0.531c-0.132,0-0.238-0.106-0.238-0.238V19.442z"/>
	<path style="fill:#1C1E21;" d="M31.996,19.204c0.101,0,0.16,0.113,0.104,0.197l-1.359,1.986c-0.04,0.059-0.041,0.137-0.001,0.196
		l1.427,2.093c0.057,0.084-0.003,0.197-0.104,0.197h-0.724c-0.148,0-0.287-0.075-0.368-0.199l-0.852-1.302
		c-0.031-0.047-0.099-0.047-0.131,0l-0.857,1.302c-0.082,0.124-0.221,0.199-0.369,0.199H28.07c-0.101,0-0.16-0.113-0.104-0.196
		l1.426-2.08c0.04-0.059,0.041-0.137,0.001-0.197l-1.36-1.999c-0.057-0.084,0.003-0.197,0.104-0.197h0.725
		c0.148,0,0.287,0.076,0.367,0.2l0.781,1.214c0.03,0.047,0.099,0.047,0.129,0.001l0.798-1.216c0.081-0.124,0.22-0.199,0.369-0.199
		H31.996z"/>
	<path style="fill:#1C1E21;" d="M20.749,29.655c0-0.15,0.068-0.294,0.184-0.389l1.39-1.14c0.588-0.486,0.817-0.743,0.817-1.135
		c0-0.399-0.264-0.615-0.635-0.615c-0.319,0-0.551,0.155-0.838,0.484c-0.08,0.091-0.219,0.078-0.313,0.002l-0.358-0.289
		c-0.114-0.092-0.105-0.261-0.011-0.374c0.411-0.492,0.849-0.755,1.588-0.755c0.98,0,1.628,0.574,1.628,1.459v0.013
		c0,0.791-0.406,1.182-1.243,1.831l-0.676,0.522c-0.031,0.023-0.014,0.073,0.025,0.073h1.703c0.132,0,0.238,0.107,0.238,0.238v0.422
		c0,0.132-0.106,0.238-0.238,0.238h-3.023c-0.132,0-0.238-0.106-0.238-0.238V29.655z"/>
	<path style="fill:#1C1E21;" d="M24.989,27.89v-0.013c0-1.372,0.851-2.446,2.108-2.446c1.249,0,2.094,1.06,2.094,2.432v0.014
		c0,1.371-0.845,2.445-2.108,2.445C25.82,30.322,24.989,29.261,24.989,27.89z M28.124,27.89v-0.013c0-0.858-0.419-1.507-1.041-1.507
		c-0.622,0-1.027,0.628-1.027,1.493v0.014c0,0.864,0.412,1.506,1.041,1.506C27.725,29.383,28.124,28.748,28.124,27.89z"/>
	<path style="fill:#1C1E21;" d="M17.841,27.989c0-1.438,0.663-2.475,1.977-3.249c0.113-0.066,0.256-0.026,0.328,0.083l0.267,0.402
		c0.072,0.109,0.043,0.255-0.062,0.334c-0.924,0.692-1.324,1.392-1.324,2.43s0.4,1.738,1.324,2.43
		c0.105,0.079,0.135,0.225,0.062,0.334l-0.267,0.402c-0.072,0.109-0.215,0.15-0.328,0.083
		C18.504,30.464,17.841,29.426,17.841,27.989z"/>
	<path style="fill:#1C1E21;" d="M29.588,30.753c-0.072-0.109-0.043-0.255,0.062-0.334c0.924-0.692,1.324-1.392,1.324-2.43
		s-0.4-1.738-1.324-2.43c-0.105-0.078-0.135-0.225-0.062-0.334l0.267-0.402c0.072-0.109,0.215-0.15,0.328-0.083
		c1.313,0.774,1.977,1.812,1.977,3.249s-0.664,2.475-1.977,3.249c-0.113,0.067-0.256,0.026-0.328-0.083L29.588,30.753z"/>
</g>
<g id="Layer_1">
</g>
</svg>
