<?xml version="1.0" encoding="iso-8859-1"?>
<!-- Generator: Adobe Illustrator 21.1.0, SVG Export Plug-In . SVG Version: 6.00 Build 0)  -->
<svg version="1.1" xmlns="http://www.w3.org/2000/svg" xmlns:xlink="http://www.w3.org/1999/xlink" x="0px" y="0px"
	 viewBox="0 0 50 50" style="enable-background:new 0 0 50 50;" xml:space="preserve">
<g id="HeadOrientation">
	<path style="fill:#E1EFFF;" d="M25,50C11.215,50,0,38.785,0,25C0,11.215,11.215,0,25,0c13.785,0,25,11.215,25,25
		C50,38.785,38.785,50,25,50z"/>
	<path style="fill:#1C1E21;" d="M15,37.857c-0.526,0-0.952-0.426-0.952-0.952v-23.81c0-0.526,0.426-0.952,0.952-0.952
		s0.952,0.426,0.952,0.952v23.81C15.952,37.431,15.526,37.857,15,37.857z"/>
	<path style="fill:#1C1E21;" d="M35,37.857c-0.526,0-0.952-0.426-0.952-0.952v-23.81c0-0.526,0.426-0.952,0.952-0.952
		s0.952,0.426,0.952,0.952v23.81C35.952,37.431,35.526,37.857,35,37.857z"/>
	<path style="fill:#1C1E21;" d="M35,25.952H15c-0.526,0-0.952-0.426-0.952-0.952s0.426-0.952,0.952-0.952h20
		c0.526,0,0.952,0.426,0.952,0.952S35.526,25.952,35,25.952z"/>
</g>
<g id="Layer_1">
</g>
</svg>
