<?xml version="1.0" encoding="iso-8859-1"?>
<!-- Generator: Adobe Illustrator 21.1.0, SVG Export Plug-In . SVG Version: 6.00 Build 0)  -->
<svg version="1.1" xmlns="http://www.w3.org/2000/svg" xmlns:xlink="http://www.w3.org/1999/xlink" x="0px" y="0px"
	 viewBox="0 0 50 50" style="enable-background:new 0 0 50 50;" xml:space="preserve">
<g id="LastFrameButton">
	<g>
		<path style="fill:#C7CEDD;" d="M50,46.667C50,48.509,48.509,50,46.667,50H3.333C1.491,50,0,48.509,0,46.667V3.333
			C0,1.494,1.491,0,3.333,0h43.333C48.509,0,50,1.494,50,3.333V46.667z"/>
		<path style="fill:#333333;" d="M32.057,12.249c-0.921,0-1.667,0.746-1.667,1.667v8.662L17.93,12.425
			c-0.823-0.492-1.862,0.104-1.862,1.064v23.024c0,0.96,1.039,1.553,1.862,1.065l12.461-10.153v8.662
			c0,0.98,0.895,1.667,1.875,1.667c0.921,0,1.667-0.745,1.667-1.667V13.916C33.932,12.936,33.037,12.249,32.057,12.249z"/>
	</g>
</g>
<g id="Layer_1">
</g>
</svg>
