<?xml version="1.0" encoding="iso-8859-1"?>
<!-- Generator: Adobe Illustrator 21.1.0, SVG Export Plug-In . SVG Version: 6.00 Build 0)  -->
<svg version="1.1" xmlns="http://www.w3.org/2000/svg" xmlns:xlink="http://www.w3.org/1999/xlink" x="0px" y="0px"
	 viewBox="0 0 50 50" style="enable-background:new 0 0 50 50;" xml:space="preserve">
<g id="LineProfile">
	<path style="fill:#E1EFFF;" d="M25,50C11.215,50,0,38.785,0,25C0,11.215,11.215,0,25,0c13.785,0,25,11.215,25,25
		C50,38.785,38.785,50,25,50z"/>
	<path style="fill:#1C1E21;" d="M21.633,31.116c-0.244,0-0.488-0.093-0.673-0.279l-3.03-3.031c-1.547-1.547-1.547-4.065,0-5.612
		c1.548-1.547,4.065-1.547,5.612,0l4.265,4.265c0.39,0.39,0.908,0.605,1.459,0.605s1.069-0.215,1.459-0.605
		c0.805-0.805,0.805-2.114,0-2.919l-3.03-3.03c-0.372-0.372-0.372-0.975,0-1.347c0.372-0.372,0.975-0.372,1.347,0l3.03,3.03
		c1.547,1.547,1.547,4.065,0,5.612c-0.749,0.75-1.746,1.163-2.806,1.163s-2.056-0.413-2.806-1.163l-4.265-4.265
		c-0.804-0.804-2.114-0.805-2.918,0c-0.804,0.805-0.804,2.114,0,2.919l3.03,3.031c0.372,0.372,0.372,0.975,0,1.347
		C22.12,31.023,21.876,31.116,21.633,31.116z"/>
	<path style="fill:#1C1E21;" d="M34.524,37.857H15.476c-1.838,0-3.333-1.496-3.333-3.333V15.476c0-1.838,1.495-3.333,3.333-3.333
		h19.048c1.838,0,3.333,1.495,3.333,3.333v19.048C37.857,36.362,36.362,37.857,34.524,37.857z M15.476,14.048
		c-0.788,0-1.429,0.641-1.429,1.429v19.048c0,0.788,0.641,1.429,1.429,1.429h19.048c0.788,0,1.429-0.641,1.429-1.429V15.476
		c0-0.788-0.641-1.429-1.429-1.429H15.476z"/>
</g>
<g id="Layer_1">
</g>
</svg>
