<?xml version="1.0" encoding="iso-8859-1"?>
<!-- Generator: Adobe Illustrator 21.1.0, SVG Export Plug-In . SVG Version: 6.00 Build 0)  -->
<svg version="1.1" xmlns="http://www.w3.org/2000/svg" xmlns:xlink="http://www.w3.org/1999/xlink" x="0px" y="0px"
	 viewBox="0 0 50 50" style="enable-background:new 0 0 50 50;" xml:space="preserve">
<g id="Linked">
	<path style="fill:#E1EFFF;" d="M25,50C11.215,50,0,38.785,0,25C0,11.215,11.215,0,25,0c13.785,0,25,11.215,25,25
		C50,38.785,38.785,50,25,50z"/>
	<path style="fill:#1C1E21;" d="M19.521,37.853c-1.889,0-3.779-0.719-5.217-2.157c-2.877-2.877-2.877-7.557,0-10.434l1.87-1.87
		c0.372-0.372,0.975-0.372,1.347,0c0.372,0.372,0.372,0.975,0,1.347l-1.87,1.87c-2.134,2.134-2.134,5.606,0,7.74
		c2.134,2.134,5.606,2.133,7.741,0l1.87-1.87c0.372-0.372,0.975-0.372,1.347,0c0.372,0.372,0.372,0.975,0,1.347l-1.87,1.87
		C23.3,37.134,21.41,37.853,19.521,37.853z"/>
	<path style="fill:#1C1E21;" d="M33.153,26.887c-0.244,0-0.487-0.093-0.673-0.279c-0.372-0.372-0.372-0.975,0-1.347l1.87-1.87
		c2.134-2.134,2.134-5.606,0-7.741s-5.606-2.133-7.74,0l-1.87,1.87c-0.372,0.372-0.975,0.372-1.347,0
		c-0.372-0.372-0.372-0.975,0-1.347l1.87-1.87c2.876-2.876,7.557-2.877,10.434,0c2.877,2.877,2.877,7.558,0,10.434l-1.87,1.87
		C33.64,26.794,33.397,26.887,33.153,26.887z"/>
	<path style="fill:#1C1E21;" d="M21.5,29.452c-0.244,0-0.488-0.093-0.673-0.279c-0.372-0.372-0.372-0.975,0-1.347l7-7
		c0.372-0.372,0.975-0.372,1.347,0c0.372,0.372,0.372,0.975,0,1.347l-7,7C21.988,29.359,21.744,29.452,21.5,29.452z"/>
</g>
<g id="Layer_1">
</g>
</svg>
