<?xml version="1.0" encoding="iso-8859-1"?>
<!-- Generator: Adobe Illustrator 21.1.0, SVG Export Plug-In . SVG Version: 6.00 Build 0)  -->
<svg version="1.1" xmlns="http://www.w3.org/2000/svg" xmlns:xlink="http://www.w3.org/1999/xlink" x="0px" y="0px"
	 viewBox="0 0 50 50" style="enable-background:new 0 0 50 50;" xml:space="preserve">
<g id="LinkStudies">
	<path style="fill:#E1EFFF;" d="M25,50C11.215,50,0,38.785,0,25C0,11.215,11.215,0,25,0c13.785,0,25,11.215,25,25
		C50,38.785,38.785,50,25,50z"/>
	<path style="fill:#1C1E21;" d="M20.397,37.857h-7.302c-0.526,0-0.952-0.426-0.952-0.952v-23.81c0-0.526,0.426-0.952,0.952-0.952
		h17.46c0.526,0,0.952,0.426,0.952,0.952v7.738c0,0.526-0.426,0.952-0.952,0.952c-0.526,0-0.952-0.426-0.952-0.952v-6.786H14.048
		v21.905h6.349c0.526,0,0.952,0.426,0.952,0.952S20.923,37.857,20.397,37.857z"/>
	<path style="fill:#1C1E21;" d="M27.024,17.936H16.627c-0.526,0-0.952-0.426-0.952-0.952c0-0.526,0.426-0.952,0.952-0.952h10.397
		c0.526,0,0.952,0.426,0.952,0.952C27.976,17.51,27.55,17.936,27.024,17.936z"/>
	<path style="fill:#1C1E21;" d="M27.024,21.945H16.627c-0.526,0-0.952-0.426-0.952-0.952c0-0.526,0.426-0.952,0.952-0.952h10.397
		c0.526,0,0.952,0.426,0.952,0.952C27.976,21.518,27.55,21.945,27.024,21.945z"/>
	<path style="fill:#1C1E21;" d="M20.635,33.968h-4.008c-0.526,0-0.952-0.426-0.952-0.952c0-0.526,0.426-0.952,0.952-0.952h4.008
		c0.526,0,0.952,0.426,0.952,0.952C21.587,33.542,21.161,33.968,20.635,33.968z"/>
	<path style="fill:#1C1E21;" d="M27.024,25.952h-3.135c-0.526,0-0.952-0.426-0.952-0.952s0.426-0.952,0.952-0.952h3.135
		c0.526,0,0.952,0.426,0.952,0.952S27.55,25.952,27.024,25.952z"/>
	<path style="fill:#1C1E21;" d="M20.635,29.96h-4.008c-0.526,0-0.952-0.426-0.952-0.952V25c0-0.526,0.426-0.952,0.952-0.952h4.008
		c0.526,0,0.952,0.426,0.952,0.952v4.008C21.587,29.534,21.161,29.96,20.635,29.96z M17.579,28.056h2.103v-2.103h-2.103V28.056z"/>
	<path style="fill:#1C1E21;" d="M28.511,37.857c-0.602,0-1.167-0.234-1.593-0.66l-2.211-2.211c-0.426-0.425-0.66-0.991-0.66-1.592
		s0.234-1.167,0.66-1.592l1.939-1.939c0.372-0.372,0.975-0.372,1.347,0c0.372,0.372,0.372,0.975,0,1.347l-1.939,1.939
		c-0.089,0.088-0.102,0.192-0.102,0.246s0.013,0.157,0.101,0.246l2.212,2.211c0.089,0.089,0.192,0.102,0.246,0.102
		s0.157-0.013,0.245-0.101l1.939-1.939c0.372-0.372,0.975-0.372,1.347,0s0.372,0.975,0,1.347l-1.939,1.939
		C29.678,37.623,29.113,37.857,28.511,37.857z"/>
	<path style="fill:#1C1E21;" d="M34.585,32.321c-0.244,0-0.487-0.093-0.673-0.279c-0.372-0.372-0.372-0.975,0-1.347l1.939-1.939
		c0.089-0.089,0.102-0.192,0.102-0.246s-0.013-0.157-0.101-0.245l-2.212-2.212c-0.088-0.089-0.192-0.102-0.246-0.102
		s-0.157,0.013-0.246,0.101l-1.939,1.939c-0.372,0.372-0.975,0.372-1.347,0c-0.372-0.372-0.372-0.975,0-1.347l1.939-1.939
		c0.425-0.426,0.991-0.66,1.592-0.66s1.167,0.234,1.592,0.66l2.211,2.211c0.426,0.425,0.66,0.991,0.66,1.592
		c0,0.602-0.234,1.167-0.66,1.593l-1.938,1.938C35.073,32.228,34.829,32.321,34.585,32.321z"/>
	<path style="fill:#1C1E21;" d="M29.393,33.464c-0.244,0-0.487-0.093-0.673-0.279c-0.372-0.372-0.372-0.975,0-1.347l3.119-3.119
		c0.372-0.372,0.975-0.372,1.347,0c0.372,0.372,0.372,0.975,0,1.347l-3.119,3.119C29.88,33.371,29.636,33.464,29.393,33.464z"/>
</g>
<g id="Layer_1">
</g>
</svg>
