<svg id="Layer_1" data-name="Layer 1" xmlns="http://www.w3.org/2000/svg" xmlns:xlink="http://www.w3.org/1999/xlink" viewBox="0 0 612 612"><defs><style>.cls-1{stroke:#232323;stroke-miterlimit:10;stroke-width:1.31px;fill:url(#linear-gradient);}</style><linearGradient id="linear-gradient" x1="306" y1="30.55" x2="306" y2="581.45" gradientUnits="userSpaceOnUse"><stop offset="0" stop-color="#fafafa"/><stop offset="1" stop-color="#ebebeb"/></linearGradient></defs><path class="cls-1" d="M569.81,483l-.29-.42-28.64-23.18L403,347.77,381.8,374l107.56,87.07,11.36,9.21L548.58,509s0,0,0,0a40.07,40.07,0,0,1-40.06,40.59.76.76,0,0,1-.53-.16l-38.57-48.58-9-11.28-86-108.26-12.3,9.75c1.18-.93,2.32-1.89,3.46-2.86l.05,0a207.27,207.27,0,0,0,23.43-23.42l-.06-.06a202.13,202.13,0,0,0,48.31-131.25c0-112-91-203-202.92-203A202.06,202.06,0,0,0,158.7,45.22q-5,2-9.91,4.33c-1.31.59-2.61,1.22-3.9,1.88q-2.74,1.35-5.48,2.81c-1.25.66-2.5,1.35-3.74,2a.35.35,0,0,1-.12.07c-1.26.7-2.51,1.45-3.77,2.19l-.34.2c-1.15.67-2.29,1.37-3.41,2.06s-2.47,1.56-3.7,2.35c-1.83,1.2-3.65,2.41-5.43,3.66q-8.07,5.6-15.55,12A202.86,202.86,0,0,0,57.27,332.41v0q2.59,4.6,5.41,9.08a17,17,0,0,0,26.69-19.82c-.64-1-1.26-2.07-1.86-3.13v0A169.58,169.58,0,0,1,101,128.76c1.78-2.24,3.59-4.46,5.48-6.6a21.67,21.67,0,0,0,6.18,12.23L208.33,230l-75.47,75.07a21.89,21.89,0,0,0,31,30.94l75.46-75.07L335,356.56a21.8,21.8,0,0,0,10.1,5.73A169.39,169.39,0,0,1,152.87,382.5q-3.74-2-7.37-4.29a16.52,16.52,0,0,0-4.59-.63,17,17,0,0,0-11.18,29.81q2.73,1.65,5.49,3.22A202.58,202.58,0,0,0,304.46,424.1s0,0,0,0c2.26-.83,4.49-1.69,6.7-2.62,1.56-.63,3.12-1.29,4.66-2,1.38-.59,2.72-1.22,4.08-1.85l.51-.24,2-1a1.8,1.8,0,0,0,.34-.17c1-.47,2-.94,2.92-1.44s1.8-.92,2.69-1.39c1.77-.93,3.54-1.9,5.29-2.87h0a205.1,205.1,0,0,0,24.09-16L348,402.36,457.86,540.65l23.69,29.84a62.94,62.94,0,0,0,40.66,10.75A63.37,63.37,0,0,0,569.81,483ZM143.57,103.45a22,22,0,0,0-10.71-5.89,169.43,169.43,0,0,1,206.5,2.52,22.32,22.32,0,0,0-4.34,3.37l-95.73,95.63ZM270.26,230,366,134.39a21.43,21.43,0,0,0,3.22-4.07,169.61,169.61,0,0,1,3.25,202.15c-.4.56-.79,1.1-1.19,1.64a21.48,21.48,0,0,0-5.28-8.49Z"/></svg>