<?xml version="1.0" encoding="iso-8859-1"?>
<!-- Generator: Adobe Illustrator 21.1.0, SVG Export Plug-In . SVG Version: 6.00 Build 0)  -->
<svg version="1.1" xmlns="http://www.w3.org/2000/svg" xmlns:xlink="http://www.w3.org/1999/xlink" x="0px" y="0px"
	 viewBox="0 0 50 50" style="enable-background:new 0 0 50 50;" xml:space="preserve">
<g id="NewTemplate">
	<path style="fill:#E1EFFF;" d="M25,50C11.215,50,0,38.785,0,25C0,11.215,11.215,0,25,0c13.785,0,25,11.215,25,25
		C50,38.785,38.785,50,25,50z"/>
	<path style="fill:#1C1E21;" d="M36.905,20.952h-23.81c-0.526,0-0.952-0.426-0.952-0.952v-6.905c0-0.526,0.426-0.952,0.952-0.952
		h23.81c0.526,0,0.952,0.426,0.952,0.952V20C37.857,20.526,37.431,20.952,36.905,20.952z M14.048,19.048h21.905v-5H14.048V19.048z"
		/>
	<path style="fill:#1C1E21;" d="M22.302,37.857h-9.206c-0.526,0-0.952-0.426-0.952-0.952V20c0-0.526,0.426-0.952,0.952-0.952h9.206
		c0.526,0,0.952,0.426,0.952,0.952v16.905C23.254,37.431,22.828,37.857,22.302,37.857z M14.048,35.952h7.302v-15h-7.302V35.952z"/>
	<path style="fill:#1C1E21;" d="M36.905,37.857H22.302c-0.526,0-0.952-0.426-0.952-0.952V20c0-0.526,0.426-0.952,0.952-0.952h14.603
		c0.526,0,0.952,0.426,0.952,0.952v16.905C37.857,37.431,37.431,37.857,36.905,37.857z M23.254,35.952h12.698v-15H23.254V35.952z"/>
</g>
<g id="Layer_1">
</g>
</svg>
