<?xml version="1.0" encoding="iso-8859-1"?>
<!-- Generator: Adobe Illustrator 21.1.0, SVG Export Plug-In . SVG Version: 6.00 Build 0)  -->
<svg version="1.1" xmlns="http://www.w3.org/2000/svg" xmlns:xlink="http://www.w3.org/1999/xlink" x="0px" y="0px"
	 viewBox="0 0 50 50" style="enable-background:new 0 0 50 50;" xml:space="preserve">
<g id="NextImage">
	<path style="fill:#E1EFFF;" d="M25,50C11.215,50,0,38.785,0,25C0,11.215,11.215,0,25,0c13.785,0,25,11.215,25,25
		C50,38.785,38.785,50,25,50z"/>
	<path style="fill:#1C1E21;" d="M32.148,30.709c-0.244,0-0.487-0.093-0.673-0.279c-0.372-0.372-0.372-0.975,0-1.347L35.558,25
		l-4.083-4.083c-0.372-0.372-0.372-0.975,0-1.347c0.372-0.372,0.975-0.372,1.347,0l4.756,4.756c0.179,0.179,0.279,0.421,0.279,0.673
		s-0.1,0.495-0.279,0.673l-4.756,4.756C32.636,30.616,32.392,30.709,32.148,30.709z"/>
	<path style="fill:#1C1E21;" d="M36.905,25.952H21.667c-0.526,0-0.952-0.426-0.952-0.952s0.426-0.952,0.952-0.952h15.238
		c0.526,0,0.952,0.426,0.952,0.952S37.431,25.952,36.905,25.952z"/>
	<path style="fill:#1C1E21;" d="M30.238,37.857H13.095c-0.526,0-0.952-0.426-0.952-0.952v-23.81c0-0.526,0.426-0.952,0.952-0.952
		h17.143c0.526,0,0.952,0.426,0.952,0.952c0,0.526-0.426,0.952-0.952,0.952h-16.19v21.905h16.19c0.526,0,0.952,0.426,0.952,0.952
		S30.764,37.857,30.238,37.857z"/>
</g>
<g id="Layer_1">
</g>
</svg>
