<?xml version="1.0" encoding="iso-8859-1"?>
<!-- Generator: Adobe Illustrator 21.1.0, SVG Export Plug-In . SVG Version: 6.00 Build 0)  -->
<svg version="1.1" xmlns="http://www.w3.org/2000/svg" xmlns:xlink="http://www.w3.org/1999/xlink" x="0px" y="0px"
	 viewBox="0 0 50 50" style="enable-background:new 0 0 50 50;" xml:space="preserve">
<g id="OneToOne">
	<path style="fill:#E1EFFF;" d="M25,50C11.215,50,0,38.785,0,25C0,11.215,11.215,0,25,0c13.785,0,25,11.215,25,25
		C50,38.785,38.785,50,25,50z"/>
	<path style="fill:#1C1E21;" d="M36.905,37.857c-0.526,0-0.952-0.426-0.952-0.952v-23.81c0-0.526,0.426-0.952,0.952-0.952
		s0.952,0.426,0.952,0.952v23.81C37.857,37.431,37.431,37.857,36.905,37.857z"/>
	<path style="fill:#1C1E21;" d="M13.095,37.857c-0.526,0-0.952-0.426-0.952-0.952v-23.81c0-0.526,0.426-0.952,0.952-0.952
		c0.526,0,0.952,0.426,0.952,0.952v23.81C14.048,37.431,13.621,37.857,13.095,37.857z"/>
	<path style="fill:#1C1E21;" d="M27.619,23.512h-5.238c-0.526,0-0.952-0.426-0.952-0.952v-5.238c0-0.526,0.426-0.952,0.952-0.952
		h5.238c0.526,0,0.952,0.426,0.952,0.952v5.238C28.571,23.085,28.145,23.512,27.619,23.512z M23.333,21.607h3.333v-3.333h-3.333
		V21.607z"/>
	<path style="fill:#1C1E21;" d="M27.619,33.631h-5.238c-0.526,0-0.952-0.426-0.952-0.952V27.44c0-0.526,0.426-0.952,0.952-0.952
		h5.238c0.526,0,0.952,0.426,0.952,0.952v5.238C28.571,33.205,28.145,33.631,27.619,33.631z M23.333,31.726h3.333v-3.333h-3.333
		V31.726z"/>
</g>
<g id="Layer_1">
</g>
</svg>
