<?xml version="1.0" encoding="iso-8859-1"?>
<!-- Generator: Adobe Illustrator 21.1.0, SVG Export Plug-In . SVG Version: 6.00 Build 0)  -->
<svg version="1.1" xmlns="http://www.w3.org/2000/svg" xmlns:xlink="http://www.w3.org/1999/xlink" x="0px" y="0px"
	 viewBox="0 0 50 50" style="enable-background:new 0 0 50 50;" xml:space="preserve">
<g id="Pan">
	<path style="fill:#E1EFFF;" d="M25,50C11.215,50,0,38.785,0,25C0,11.215,11.215,0,25,0c13.785,0,25,11.215,25,25
		C50,38.785,38.785,50,25,50z"/>
	<path style="fill:#1C1E21;" d="M34.987,36.21H23.888c-0.526,0-0.952-0.426-0.952-0.952v-0.952c0-0.425-0.263-1.192-0.428-1.353
		c-0.755-0.468-1.845-1.238-2.558-2.114c-0.821-1.007-2.278-3.068-3.073-4.207c-0.445-0.638-0.345-1.493,0.234-1.99l0.731-0.628
		c0.981-0.843,2.418-0.803,3.342,0.091c0.224,0.216,0.427,0.406,0.61,0.573l-1.029-7.427c-0.16-1.228,0.655-2.388,1.855-2.647
		c1.213-0.263,2.43,0.509,2.713,1.721l0.144,0.561l-0.007-2.102c-0.003-0.707,0.271-1.372,0.77-1.872
		c0.495-0.496,1.153-0.77,1.853-0.77c0.001,0,0.003,0,0.004,0c1.45,0.002,2.63,1.186,2.63,2.639v1.144
		c0.11-0.11,0.232-0.21,0.366-0.297c0.504-0.328,1.105-0.439,1.691-0.309c1.187,0.261,2,1.373,1.891,2.588l-0.083,0.81
		c0.465-0.385,1.095-0.549,1.725-0.398c0.982,0.236,1.64,1.187,1.529,2.212c-0.179,1.681-0.559,4.871-0.81,6.983
		c-0.103,0.865-0.187,1.571-0.233,1.961c-0.076,0.655-0.21,1.192-0.352,1.761c-0.251,1.005-0.511,2.044-0.511,4.023
		C35.939,35.784,35.513,36.21,34.987,36.21z M24.84,34.306h9.215c0.072-1.629,0.323-2.632,0.548-3.532
		c0.132-0.529,0.246-0.986,0.308-1.518c0.045-0.39,0.129-1.099,0.233-1.967c0.251-2.107,0.63-5.29,0.808-6.96
		c0.007-0.073-0.029-0.144-0.081-0.157c-0.038-0.009-0.078,0.014-0.091,0.053c-0.006,0.017-0.012,0.033-0.019,0.05l-1.513,3.698
		c-0.189,0.488-0.707,0.769-1.222,0.657c-0.526-0.114-0.886-0.605-0.836-1.142l0.587-5.762c0.022-0.251-0.151-0.49-0.404-0.545
		c-0.108-0.025-0.19,0.01-0.241,0.044c-0.043,0.028-0.117,0.092-0.141,0.209l-1.102,4.784c-0.102,0.505-0.591,0.864-1.125,0.809
		c-0.538-0.054-0.943-0.502-0.943-1.042v-7.203c0-0.404-0.326-0.733-0.728-0.734c0,0-0.001,0-0.001,0
		c-0.191,0-0.37,0.075-0.505,0.21c-0.138,0.139-0.214,0.323-0.213,0.52l0.031,8.89c0,0.543-0.404,0.996-0.94,1.058
		c-0.541,0.06-1.031-0.289-1.154-0.814l-1.828-7.133c-0.053-0.225-0.256-0.357-0.46-0.313c-0.24,0.052-0.402,0.286-0.37,0.532
		l1.322,9.541c0.021,0.076,0.032,0.156,0.033,0.236l0.192,1.387c0.072,0.521-0.292,1.002-0.813,1.074
		c-0.523,0.07-1.002-0.292-1.074-0.813l-0.141-1.018c-0.466-0.286-1.174-0.833-2.311-1.93c-0.214-0.206-0.549-0.214-0.778-0.016
		l-0.438,0.376c0.714,1.018,2.05,2.901,2.783,3.801c0.427,0.525,1.181,1.137,2.124,1.725C24.534,31.976,24.84,33.735,24.84,34.306z
		 M27.152,23.425l0.009,0.035C27.158,23.448,27.155,23.436,27.152,23.425z M29.037,21.771c-0.004,0.014-0.007,0.029-0.01,0.043
		L29.037,21.771z"/>
	<path style="fill:#1C1E21;" d="M36.113,37.857c-0.526,0-0.952-0.426-0.952-0.952v-0.218c0-0.263-0.211-0.476-0.47-0.476H24.184
		c-0.259,0-0.469,0.213-0.469,0.476v0.218c0,0.526-0.426,0.952-0.952,0.952c-0.526,0-0.952-0.426-0.952-0.952v-0.218
		c0-1.313,1.065-2.381,2.374-2.381h10.507c1.309,0,2.374,1.068,2.374,2.381v0.218C37.065,37.431,36.639,37.857,36.113,37.857z"/>
	<path style="fill:#1C1E21;" d="M14.862,28.783c-0.295,0-0.585-0.136-0.771-0.393c-1.274-1.756-1.948-3.834-1.948-6.009
		c0-5.645,4.593-10.238,10.238-10.238c0.526,0,0.952,0.426,0.952,0.952c0,0.526-0.426,0.952-0.952,0.952
		c-4.595,0-8.333,3.738-8.333,8.333c0,1.77,0.548,3.461,1.585,4.89c0.309,0.426,0.214,1.021-0.211,1.33
		C15.252,28.723,15.056,28.783,14.862,28.783z"/>
	<path style="fill:#1C1E21;" d="M16.648,23.118c-0.046,0-0.093-0.003-0.139-0.01c-0.52-0.076-0.881-0.56-0.804-1.08
		c0.236-1.612,0.949-3.099,2.06-4.3c0.357-0.386,0.959-0.41,1.346-0.053c0.386,0.357,0.41,0.96,0.053,1.346
		c-0.849,0.918-1.393,2.054-1.573,3.283C17.52,22.777,17.113,23.118,16.648,23.118z"/>
</g>
<g id="Layer_1">
</g>
</svg>
