<svg id="Layer_1" data-name="Layer 1" xmlns="http://www.w3.org/2000/svg" xmlns:xlink="http://www.w3.org/1999/xlink" viewBox="0 0 612 612"><defs><style>.cls-1,.cls-2{stroke:#232323;stroke-miterlimit:10;stroke-width:1.31px;}.cls-1{fill:url(#linear-gradient);}.cls-2{fill:url(#linear-gradient-2);}</style><linearGradient id="linear-gradient" x1="306" y1="281" x2="306" y2="331" gradientUnits="userSpaceOnUse"><stop offset="0" stop-color="#fafafa"/><stop offset="1" stop-color="#ebebeb"/></linearGradient><linearGradient id="linear-gradient-2" x1="304.17" y1="293.23" x2="304.17" y2="318.77" xlink:href="#linear-gradient"/></defs><g id="PreviousFrameButton"><path class="cls-1" d="M331,327.67a3.33,3.33,0,0,1-3.33,3.33H284.33a3.33,3.33,0,0,1-3.33-3.33V284.33a3.33,3.33,0,0,1,3.33-3.33h43.34a3.33,3.33,0,0,1,3.33,3.33Z"/><path class="cls-2" d="M303.44,293.41a1.24,1.24,0,0,1,1.88,1.06V302a.66.66,0,0,0,1.08.52l11.2-9.13a1.24,1.24,0,0,1,1.87,1.07v23a1.24,1.24,0,0,1-1.87,1.06l-11.2-9.12a.66.66,0,0,0-1.08.51v7.55a1.25,1.25,0,0,1-1.88,1.07l-14-11.44a1.49,1.49,0,0,1,0-2.32Z"/></g></svg>