<svg id="Layer_1" data-name="Layer 1" xmlns="http://www.w3.org/2000/svg" xmlns:xlink="http://www.w3.org/1999/xlink" viewBox="0 0 612 612"><defs><style>.cls-1{stroke:#232323;stroke-miterlimit:10;stroke-width:1.31px;fill:url(#linear-gradient);}</style><linearGradient id="linear-gradient" x1="306" y1="33.14" x2="306" y2="578.86" gradientUnits="userSpaceOnUse"><stop offset="0" stop-color="#fafafa"/><stop offset="1" stop-color="#ebebeb"/></linearGradient></defs><path class="cls-1" d="M572.27,217.38,461.89,106.8a250.75,250.75,0,0,0-428,177.74,250,250,0,0,0,73.47,177.79L217.63,572.94a20.11,20.11,0,0,0,28.5,0l42.78-42.88-55-55.82a20.18,20.18,0,1,1,28.5-28.59l54.94,55.91,25.23-25.3L303.36,437.7a20.18,20.18,0,1,1,28.5-28.58l38.85,38.93,24.57-24.64-70.44-69.79A20.18,20.18,0,0,1,353.34,325l70.41,69.85,24.34-24.4L409,331.79a20.18,20.18,0,1,1,28.5-28.57l38.24,39.54,25.31-25.38-55.87-54.95a20.19,20.19,0,1,1,28.51-28.59l55.82,55L572.26,246a20.33,20.33,0,0,0,0-28.63Zm-172.94-14L207.72,395.4a26,26,0,0,1-36.83,0,162.15,162.15,0,0,1,.08-229c62.89-63.12,165.36-63.12,228.36,0a26.16,26.16,0,0,1,0,36.91Z"/></svg>