<svg xmlns="http://www.w3.org/2000/svg" xmlns:xlink="http://www.w3.org/1999/xlink" viewBox="0 0 612 612"><defs><style>.cls-1{stroke:#232323;stroke-miterlimit:10;stroke-width:1.31px;fill:url(#linear-gradient);}</style><linearGradient id="linear-gradient" x1="306" y1="32.45" x2="306" y2="579.55" gradientUnits="userSpaceOnUse"><stop offset="0" stop-color="#fafafa"/><stop offset="1" stop-color="#ebebeb"/></linearGradient></defs><g id="Layer_2" data-name="Layer 2"><path class="cls-1" d="M282.7,445.23a16.19,16.19,0,0,0-17.06,15.1,16,16,0,0,0,14.81,17l.28,0h26.91c153.12,0,275-74.37,275-169.31s-120.75-168.44-275-168.44A440.42,440.42,0,0,0,207.45,150.8C232.61,97,270.23,62,311.36,62a90.61,90.61,0,0,1,61.91,27.56l-21.88-2.19a16.19,16.19,0,1,0-5.1,32,15.81,15.81,0,0,0,1.82.19l62.78,6.12h1.53a12.9,12.9,0,0,0,5,0h0l3.28-1.53h1.1l1.09-1.09v-1.1l1.09-1.53v-5.9h0l4.38-62.79a16.19,16.19,0,1,0-32.16-2.4l-1.75,21.87a123.18,123.18,0,0,0-86.4-38.72c-62.13,0-115.5,52.94-144.59,133.22C82.55,194.77,29.39,248.8,29.39,311.8a121.19,121.19,0,0,0,38.72,85.75L46.24,399.3a16,16,0,0,0-14.9,17c0,.1,0,.2,0,.31a16.18,16.18,0,0,0,16,15.09h1.31l62.78-4.37h9.41l1.09-1.1h0v-2.84a4.37,4.37,0,0,1,0-1.53v-5.47l-6.12-62.78a16.41,16.41,0,0,0-17.72-14.44A16,16,0,0,0,83.6,356.47c0,.13,0,.26,0,.39l2.19,23.41A89.44,89.44,0,0,1,58.27,318.8c0-42,35.43-80.07,89.9-105.44a435.82,435.82,0,0,0-4.59,91.22c0,153.12,73.72,275,167.78,275,42,0,81.81-24.72,112.44-69.79a16.19,16.19,0,1,0-25.28-20.22,15.41,15.41,0,0,0-1.41,2.07,109.39,109.39,0,0,1-85.75,55.56c-73.5,0-135-111.34-135-242.59a394.17,394.17,0,0,1,17.06-115.72A388.93,388.93,0,0,1,307.64,172C438.89,172,550.23,234.8,550.23,309S438.89,445.89,307.64,445.89Q295.17,445.89,282.7,445.23Zm175-55.78h2.63a16,16,0,0,0,16-13.34,433.57,433.57,0,0,0,5-71.53A421.6,421.6,0,0,0,476.51,239a16.18,16.18,0,0,0-31.93,4.82A386.53,386.53,0,0,1,449,303.7a412.19,412.19,0,0,1-5.25,65.63,16.18,16.18,0,0,0,11.52,19.78,14.86,14.86,0,0,0,1.61.34Z"/></g></svg>