<svg id="Layer_1" data-name="Layer 1" xmlns="http://www.w3.org/2000/svg" xmlns:xlink="http://www.w3.org/1999/xlink" viewBox="0 0 612 612"><defs><style>.cls-1,.cls-2,.cls-3,.cls-4,.cls-5,.cls-6{stroke:#232323;stroke-miterlimit:10;stroke-width:1.31px;}.cls-1{fill:url(#linear-gradient);}.cls-2{fill:url(#linear-gradient-2);}.cls-3{fill:url(#linear-gradient-3);}.cls-4{fill:url(#linear-gradient-4);}.cls-5{fill:url(#linear-gradient-5);}.cls-6{fill:url(#linear-gradient-6);}</style><linearGradient id="linear-gradient" x1="504.66" y1="365.62" x2="504.66" y2="526.11" gradientUnits="userSpaceOnUse"><stop offset="0" stop-color="#fafafa"/><stop offset="1" stop-color="#ebebeb"/></linearGradient><linearGradient id="linear-gradient-2" x1="317.06" y1="526.02" x2="317.06" y2="580.43" xlink:href="#linear-gradient"/><linearGradient id="linear-gradient-3" x1="132.23" y1="413.11" x2="132.23" y2="535.9" xlink:href="#linear-gradient"/><linearGradient id="linear-gradient-4" x1="306" y1="31.55" x2="306" y2="332.74" xlink:href="#linear-gradient"/><linearGradient id="linear-gradient-5" x1="578.4" y1="311.55" x2="578.4" y2="313.97" xlink:href="#linear-gradient"/><linearGradient id="linear-gradient-6" x1="305.1" y1="262.85" x2="305.1" y2="350.87" xlink:href="#linear-gradient"/></defs><path class="cls-1" d="M448.16,518.9l.47.53a19.88,19.88,0,0,0,27.27,2.33,274.64,274.64,0,0,0,89.32-130,19.93,19.93,0,0,0-18.76-26.13h-.75a20,20,0,0,0-19.14,14,233.94,233.94,0,0,1-76,110.55A19.89,19.89,0,0,0,448.16,518.9Z"/><path class="cls-2" d="M223.89,544.28a20.27,20.27,0,0,0,13.69,26A263,263,0,0,0,398,565.31a20.18,20.18,0,0,0,8.19-32.43h0a20.27,20.27,0,0,0-21.84-5.73,222.43,222.43,0,0,1-135.73,4.09,20.19,20.19,0,0,0-24.68,12.94Z"/><path class="cls-3" d="M77.19,443.34a271.32,271.32,0,0,0,80.74,88.85,20.28,20.28,0,0,0,30.9-10h0a20.18,20.18,0,0,0-7.45-23,231.1,231.1,0,0,1-69-75.78,20.24,20.24,0,1,0-35.23,19.95Z"/><path class="cls-4" d="M33.7,54.3,53.78,216.83c.06.41.18.78.26,1.17.09.55.21,1.09.35,1.64a21.27,21.27,0,0,0,.71,2.13c.19.46.36.94.58,1.38.35.69.74,1.35,1.14,2,.26.43.52.87.82,1.27.44.59,1,1.14,1.45,1.69.36.39.7.77,1.08,1.14a17.72,17.72,0,0,0,1.88,1.48c.38.28.72.59,1.12.83a19.69,19.69,0,0,0,3.43,1.73s0,0,0,0c.17.07.33.07.49.13a19.39,19.39,0,0,0,3.2.87c.52.08,1,.11,1.57.16a17.58,17.58,0,0,0,1.78.17c.19,0,.35,0,.53,0,.33,0,.63,0,.93-.06a10.13,10.13,0,0,0,1.22-.08L238.8,214.37a20.27,20.27,0,0,0-5-40.23L114.3,188.94a3.14,3.14,0,0,1-3.07-4.76C152.93,116.35,229,73.33,311.61,73.91,437.32,74.8,538.86,180.05,538,308.52c0,.67,0,1.33,0,2s-.09,1.18-.09,1.78c0,.42,0,.85,0,1.27A20.3,20.3,0,0,0,558,332.74h.2l1,0A20.26,20.26,0,0,0,578.36,314s0,0,0,0c0-.81,0-1.62,0-2.42v0c0-.9,0-1.82.05-2.72C579.52,158,460,34.44,311.9,33.4A274.84,274.84,0,0,0,90.84,142.5,3.13,3.13,0,0,1,85.22,141L73.86,49.34a20.23,20.23,0,1,0-40.16,5Z"/><path class="cls-5" d="M578.36,314a12.63,12.63,0,0,0,.07-1.38c0-.36,0-.7,0-1C578.4,312.35,578.4,313.16,578.36,314Z"/><path class="cls-6" d="M261.08,306.55a44,44,0,1,0,44.33-43.7A44,44,0,0,0,261.08,306.55Z"/></svg>