<?xml version="1.0" encoding="iso-8859-1"?>
<!-- Generator: Adobe Illustrator 21.1.0, SVG Export Plug-In . SVG Version: 6.00 Build 0)  -->
<svg version="1.1" xmlns="http://www.w3.org/2000/svg" xmlns:xlink="http://www.w3.org/1999/xlink" x="0px" y="0px"
	 viewBox="0 0 50 50" style="enable-background:new 0 0 50 50;" xml:space="preserve">
<g id="Rotate3D">
	<path style="fill:#E1EFFF;" d="M25,50C11.215,50,0,38.785,0,25C0,11.215,11.215,0,25,0c13.785,0,25,11.215,25,25
		C50,38.785,38.785,50,25,50z"/>
	<path style="fill:#1C1E21;" d="M17.813,26.022c-0.172,0-0.338-0.093-0.423-0.257c-0.121-0.233-0.03-0.521,0.203-0.642l0.273-0.141
		c0.234-0.121,0.521-0.03,0.642,0.203c0.121,0.233,0.03,0.521-0.203,0.642l-0.273,0.141C17.962,26.004,17.887,26.022,17.813,26.022z
		"/>
	<path style="fill:#1C1E21;" d="M19.291,25.255c-0.172,0-0.339-0.093-0.423-0.257c-0.121-0.233-0.03-0.521,0.203-0.642l0.603-0.313
		c0.235-0.121,0.521-0.03,0.642,0.203c0.121,0.233,0.03,0.521-0.203,0.642l-0.603,0.313C19.44,25.238,19.365,25.255,19.291,25.255z
		 M21.099,24.317c-0.172,0-0.338-0.093-0.423-0.257c-0.121-0.233-0.03-0.521,0.203-0.642l0.603-0.313
		c0.234-0.121,0.521-0.03,0.642,0.203c0.121,0.233,0.03,0.521-0.203,0.642l-0.603,0.313C21.248,24.3,21.173,24.317,21.099,24.317z
		 M22.907,23.38c-0.172,0-0.338-0.093-0.423-0.257c-0.121-0.233-0.03-0.521,0.203-0.642l0.603-0.313
		c0.234-0.121,0.521-0.03,0.642,0.203c0.121,0.233,0.03,0.521-0.203,0.642l-0.603,0.313C23.056,23.362,22.981,23.38,22.907,23.38z"
		/>
	<path style="fill:#1C1E21;" d="M24.715,22.442c-0.172,0-0.338-0.093-0.423-0.257c-0.121-0.233-0.03-0.521,0.203-0.642l0.273-0.141
		c0.137-0.071,0.301-0.071,0.438,0l0.273,0.141c0.233,0.121,0.325,0.408,0.204,0.642c-0.12,0.234-0.408,0.326-0.642,0.204
		l-0.054-0.028l-0.053,0.028C24.864,22.424,24.789,22.442,24.715,22.442z"/>
	<path style="fill:#1C1E21;" d="M30.704,25.255c-0.073,0-0.148-0.017-0.218-0.053l-0.605-0.313
		c-0.234-0.121-0.325-0.408-0.205-0.642c0.12-0.233,0.408-0.326,0.642-0.204l0.605,0.313c0.234,0.121,0.325,0.408,0.205,0.642
		C31.043,25.161,30.877,25.255,30.704,25.255z M28.889,24.317c-0.073,0-0.148-0.017-0.218-0.053l-0.605-0.313
		c-0.233-0.121-0.325-0.408-0.204-0.642c0.121-0.233,0.408-0.325,0.642-0.204l0.605,0.313c0.233,0.121,0.325,0.408,0.204,0.642
		C29.228,24.224,29.062,24.317,28.889,24.317z M27.074,23.379c-0.073,0-0.148-0.017-0.218-0.053l-0.605-0.313
		c-0.234-0.121-0.325-0.408-0.205-0.642c0.12-0.234,0.408-0.326,0.642-0.204l0.605,0.313c0.234,0.121,0.325,0.408,0.205,0.642
		C27.414,23.285,27.247,23.379,27.074,23.379z"/>
	<path style="fill:#1C1E21;" d="M32.187,26.022c-0.073,0-0.148-0.017-0.218-0.053l-0.273-0.141
		c-0.234-0.121-0.325-0.408-0.205-0.642c0.12-0.233,0.408-0.325,0.642-0.204l0.273,0.141c0.234,0.121,0.325,0.408,0.205,0.642
		C32.526,25.928,32.359,26.022,32.187,26.022z"/>
	<path style="fill:#1C1E21;" d="M24.987,13.985c-0.263,0-0.476-0.213-0.476-0.476v-0.307c0-0.263,0.213-0.476,0.476-0.476
		s0.476,0.213,0.476,0.476v0.307C25.464,13.771,25.25,13.985,24.987,13.985z"/>
	<path style="fill:#1C1E21;" d="M24.987,19.572c-0.263,0-0.476-0.213-0.476-0.476v-0.621c0-0.263,0.213-0.476,0.476-0.476
		s0.476,0.213,0.476,0.476v0.621C25.464,19.358,25.25,19.572,24.987,19.572z M24.987,17.709c-0.263,0-0.476-0.213-0.476-0.476
		v-0.621c0-0.263,0.213-0.476,0.476-0.476s0.476,0.213,0.476,0.476v0.621C25.464,17.496,25.25,17.709,24.987,17.709z M24.987,15.847
		c-0.263,0-0.476-0.213-0.476-0.476V14.75c0-0.263,0.213-0.476,0.476-0.476s0.476,0.213,0.476,0.476v0.621
		C25.464,15.634,25.25,15.847,24.987,15.847z"/>
	<path style="fill:#1C1E21;" d="M24.987,21.12c-0.263,0-0.476-0.213-0.476-0.476v-0.307c0-0.263,0.213-0.476,0.476-0.476
		s0.476,0.213,0.476,0.476v0.307C25.464,20.907,25.25,21.12,24.987,21.12z"/>
	<path style="fill:#1C1E21;" d="M24.987,30.384c-0.172,0-0.343-0.047-0.495-0.139c-0.284-0.173-0.457-0.481-0.457-0.813v-8.788
		c0-0.356,0.199-0.682,0.515-0.846l7.2-3.721c0.294-0.153,0.649-0.14,0.932,0.033c0.284,0.173,0.457,0.481,0.457,0.814v8.788
		c0,0.356-0.199,0.683-0.515,0.846l-7.199,3.721C25.287,30.349,25.137,30.384,24.987,30.384z M25.94,21.224v6.644l5.295-2.737
		v-6.644L25.94,21.224z"/>
	<path style="fill:#1C1E21;" d="M24.987,30.384c-0.15,0-0.301-0.035-0.439-0.107l-7.174-3.721c-0.316-0.164-0.514-0.49-0.514-0.845
		v-8.788c0-0.332,0.173-0.641,0.458-0.814c0.284-0.173,0.638-0.185,0.933-0.032l7.174,3.721c0.316,0.164,0.514,0.49,0.514,0.845
		v8.788c0,0.332-0.173,0.641-0.458,0.814C25.331,30.338,25.159,30.384,24.987,30.384z M18.765,25.132l5.27,2.733v-6.642l-5.27-2.733
		V25.132z"/>
	<path style="fill:#1C1E21;" d="M24.987,21.596c-0.15,0-0.301-0.036-0.439-0.107l-7.174-3.721c-0.316-0.164-0.514-0.49-0.514-0.845
		c0-0.356,0.198-0.682,0.514-0.845l7.174-3.721c0.275-0.142,0.602-0.143,0.876-0.001l7.199,3.721
		c0.317,0.164,0.515,0.49,0.515,0.846c0,0.356-0.199,0.682-0.515,0.846l-7.199,3.721C25.288,21.561,25.137,21.596,24.987,21.596z
		 M19.881,16.923l5.107,2.649l5.125-2.649l-5.125-2.649L19.881,16.923z"/>
	<path style="fill:#1C1E21;" d="M24.823,35.196c-0.006,0-0.011,0-0.017,0c-6.999-0.121-12.693-3.615-12.693-7.788
		c0-2.307,1.711-4.444,4.693-5.865c0.207-0.099,0.421-0.194,0.64-0.286c0.486-0.203,1.043,0.027,1.246,0.512
		c0.203,0.485-0.027,1.043-0.512,1.246c-0.19,0.079-0.375,0.162-0.555,0.247c-2.293,1.092-3.607,2.603-3.607,4.145
		c0,3.034,5.057,5.783,10.821,5.883c0.526,0.009,0.945,0.443,0.936,0.969C25.766,34.781,25.341,35.196,24.823,35.196z"/>
	<path style="fill:#1C1E21;" d="M29.825,34.394c-0.428,0-0.817-0.29-0.924-0.725c-0.126-0.511,0.186-1.027,0.697-1.153
		c3.801-0.937,6.354-2.989,6.354-5.108c0-1.535-1.304-3.041-3.579-4.131c-0.18-0.086-0.365-0.17-0.555-0.249
		c-0.485-0.204-0.712-0.762-0.509-1.247c0.204-0.485,0.763-0.713,1.247-0.509c0.219,0.092,0.433,0.188,0.641,0.288
		c2.961,1.42,4.66,3.552,4.66,5.849c0,3.059-3.063,5.79-7.803,6.958C29.977,34.385,29.901,34.394,29.825,34.394z"/>
	<path style="fill:#1C1E21;" d="M21.708,37.857c-0.269,0-0.536-0.113-0.725-0.334c-0.342-0.4-0.294-1.001,0.106-1.343l2.39-2.042
		l-2.042-2.391c-0.342-0.4-0.294-1.001,0.105-1.343c0.4-0.342,1.001-0.294,1.343,0.106l2.661,3.115
		c0.341,0.4,0.294,1.001-0.106,1.343l-3.115,2.661C22.147,37.782,21.927,37.857,21.708,37.857z"/>
</g>
<g id="Layer_1">
</g>
</svg>
