<?xml version="1.0" encoding="iso-8859-1"?>
<!-- Generator: Adobe Illustrator 21.1.0, SVG Export Plug-In . SVG Version: 6.00 Build 0)  -->
<svg version="1.1" xmlns="http://www.w3.org/2000/svg" xmlns:xlink="http://www.w3.org/1999/xlink" x="0px" y="0px"
	 viewBox="0 0 50 50" style="enable-background:new 0 0 50 50;" xml:space="preserve">
<g id="SaveTemplate">
	<path style="fill:#E1EFFF;" d="M25,50C11.215,50,0,38.785,0,25C0,11.215,11.215,0,25,0c13.785,0,25,11.215,25,25
		C50,38.785,38.785,50,25,50z"/>
	<path style="fill:#1C1E21;" d="M15.06,37.857h-1.964c-0.526,0-0.952-0.426-0.952-0.952v-23.81c0-0.526,0.426-0.952,0.952-0.952
		h16.028c0.846,0,1.652,0.317,2.271,0.893l1.755,1.633c0.385,0.358,0.407,0.961,0.048,1.346c-0.358,0.386-0.962,0.407-1.346,0.049
		l-1.755-1.633c-0.265-0.247-0.611-0.383-0.973-0.383H14.048v21.905h1.012c0.526,0,0.952,0.426,0.952,0.952
		S15.585,37.857,15.06,37.857z"/>
	<path style="fill:#1C1E21;" d="M36.905,37.857H32.5c-0.526,0-0.952-0.426-0.952-0.952s0.426-0.952,0.952-0.952h3.452v-7.917
		c0-0.526,0.426-0.952,0.952-0.952s0.952,0.426,0.952,0.952v8.869C37.857,37.431,37.431,37.857,36.905,37.857z"/>
	<path style="fill:#1C1E21;" d="M32.5,37.857h-5.918c-0.526,0-0.952-0.426-0.952-0.952s0.426-0.952,0.952-0.952h4.966v-5.238
		c0-0.526,0.426-0.952,0.952-0.952c0.526,0,0.952,0.426,0.952,0.952v6.19C33.452,37.431,33.026,37.857,32.5,37.857z"/>
	<path style="fill:#1C1E21;" d="M17.5,31.667c-0.526,0-0.952-0.426-0.952-0.952v-4.762c0-0.526,0.426-0.952,0.952-0.952h3.095
		c0.526,0,0.952,0.426,0.952,0.952c0,0.526-0.426,0.952-0.952,0.952h-2.143v3.81C18.452,31.24,18.026,31.667,17.5,31.667z"/>
	<path style="fill:#1C1E21;" d="M28.869,21.964H16.786c-0.526,0-0.952-0.426-0.952-0.952v-7.917c0-0.526,0.426-0.952,0.952-0.952
		h12.083c0.526,0,0.952,0.426,0.952,0.952v7.917C29.821,21.538,29.395,21.964,28.869,21.964z M17.738,20.06h10.179v-6.012H17.738
		V20.06z"/>
	<rect x="16.786" y="13.095" style="fill:#1C1E21;" width="2.917" height="7.917"/>
	<path style="fill:#1C1E21;" d="M19.702,21.964h-2.917c-0.526,0-0.952-0.426-0.952-0.952v-7.917c0-0.526,0.426-0.952,0.952-0.952
		h2.917c0.526,0,0.952,0.426,0.952,0.952v7.917C20.655,21.538,20.228,21.964,19.702,21.964z M17.738,20.06h1.012v-6.012h-1.012
		V20.06z"/>
	<path style="fill:#1C1E21;" d="M18.661,37.857c-0.249,0-0.492-0.098-0.673-0.279c-0.246-0.246-0.339-0.608-0.24-0.942l1.216-4.137
		c0.045-0.153,0.127-0.292,0.24-0.405l11.703-11.712c0.372-0.372,0.975-0.372,1.347,0l2.922,2.919
		c0.179,0.178,0.279,0.421,0.279,0.673c0,0.253-0.1,0.495-0.279,0.674L23.471,36.361c-0.113,0.113-0.252,0.195-0.405,0.24
		l-4.137,1.217C18.841,37.845,18.751,37.857,18.661,37.857z M20.722,33.269l-0.655,2.229l2.229-0.656l10.859-10.867l-1.575-1.573
		L20.722,33.269z"/>
	<path style="fill:#1C1E21;" d="M34.502,24.927c-0.245,0-0.489-0.094-0.675-0.281c-0.371-0.373-0.369-0.976,0.004-1.347l2-1.989
		c0.079-0.079,0.122-0.183,0.122-0.296c0-0.122-0.04-0.222-0.121-0.302l-0.976-0.975c-0.166-0.167-0.44-0.162-0.598-0.003
		l-2.005,1.996c-0.373,0.371-0.976,0.37-1.347-0.003c-0.371-0.373-0.37-0.976,0.003-1.347l2.001-1.992
		c0.435-0.438,1.021-0.681,1.646-0.681c0.623,0,1.209,0.243,1.648,0.685l0.972,0.971c0.441,0.438,0.684,1.025,0.682,1.652
		c0.001,0.614-0.239,1.199-0.679,1.642l-2.005,1.994C34.988,24.835,34.745,24.927,34.502,24.927z"/>
	<polygon style="fill:#1C1E21;" points="18.662,36.905 22.477,35.48 20.085,33.089 18.662,36.904 18.661,36.905 18.662,36.904 
		18.662,36.905 	"/>
	<path style="fill:#1C1E21;" d="M18.662,37.619h-0.001c-0.303,0-0.574-0.192-0.674-0.478c-0.057-0.161-0.052-0.332,0.005-0.485
		c0.004-0.011,0.008-0.021,0.013-0.032l1.412-3.784c0.085-0.228,0.28-0.397,0.517-0.448c0.237-0.052,0.485,0.021,0.657,0.193
		l2.391,2.391c0.172,0.172,0.245,0.419,0.193,0.657c-0.052,0.238-0.22,0.432-0.448,0.518l-3.814,1.424
		C18.832,37.604,18.747,37.619,18.662,37.619z M20.366,34.38l-0.488,1.308l1.308-0.488L20.366,34.38z"/>
</g>
<g id="Layer_1">
</g>
</svg>
