<?xml version="1.0" encoding="iso-8859-1"?>
<!-- Generator: Adobe Illustrator 21.1.0, SVG Export Plug-In . SVG Version: 6.00 Build 0)  -->
<svg version="1.1" xmlns="http://www.w3.org/2000/svg" xmlns:xlink="http://www.w3.org/1999/xlink" x="0px" y="0px"
	 viewBox="0 0 50 50" style="enable-background:new 0 0 50 50;" xml:space="preserve">
<g id="SaveAnn">
	<path style="fill:#E1EFFF;" d="M25,50C11.215,50,0,38.785,0,25C0,11.215,11.215,0,25,0c13.785,0,25,11.215,25,25
		C50,38.785,38.785,50,25,50z"/>
	<path style="fill:#1C1E21;" d="M36.905,37.857h-23.81c-0.526,0-0.952-0.426-0.952-0.952v-23.81c0-0.526,0.426-0.952,0.952-0.952
		h16.028c0.846,0,1.652,0.317,2.271,0.893l5.401,5.025c0.675,0.629,1.063,1.518,1.063,2.44v16.404
		C37.857,37.431,37.431,37.857,36.905,37.857z M14.048,35.952h21.905V20.501c0-0.395-0.166-0.777-0.455-1.046l-5.401-5.025v0
		c-0.265-0.247-0.611-0.382-0.973-0.382H14.048V35.952z"/>
	<path style="fill:#1C1E21;" d="M32.5,37.857h-15c-0.526,0-0.952-0.426-0.952-0.952V25.952c0-0.526,0.426-0.952,0.952-0.952h15
		c0.526,0,0.952,0.426,0.952,0.952v10.952C33.452,37.431,33.026,37.857,32.5,37.857z M18.452,35.952h13.095v-9.048H18.452V35.952z"
		/>
	<path style="fill:#1C1E21;" d="M28.869,21.964H16.786c-0.526,0-0.952-0.426-0.952-0.952v-7.917c0-0.526,0.426-0.952,0.952-0.952
		h12.083c0.526,0,0.952,0.426,0.952,0.952v7.917C29.821,21.538,29.395,21.964,28.869,21.964z M17.738,20.06h10.179v-6.012H17.738
		V20.06z"/>
	<rect x="16.786" y="13.095" style="fill:#1C1E21;" width="2.917" height="7.917"/>
	<path style="fill:#1C1E21;" d="M19.702,21.964h-2.917c-0.526,0-0.952-0.426-0.952-0.952v-7.917c0-0.526,0.426-0.952,0.952-0.952
		h2.917c0.526,0,0.952,0.426,0.952,0.952v7.917C20.655,21.538,20.228,21.964,19.702,21.964z M17.738,20.06h1.012v-6.012h-1.012
		V20.06z"/>
	<path style="fill:#1C1E21;" d="M32.5,30.794h-15c-0.526,0-0.952-0.426-0.952-0.952s0.426-0.952,0.952-0.952h15
		c0.526,0,0.952,0.426,0.952,0.952S33.026,30.794,32.5,30.794z"/>
</g>
<g id="Layer_1">
</g>
</svg>
