<svg id="Layer_1" data-name="Layer 1" xmlns="http://www.w3.org/2000/svg" xmlns:xlink="http://www.w3.org/1999/xlink" viewBox="0 0 612 612"><defs><style>.cls-1{stroke:#232323;stroke-miterlimit:10;stroke-width:1.8px;fill:url(#linear-gradient);}</style><linearGradient id="linear-gradient" x1="306" y1="32.18" x2="306" y2="579.82" gradientUnits="userSpaceOnUse"><stop offset="0" stop-color="#fafafa"/><stop offset="1" stop-color="#ebebeb"/></linearGradient></defs><path id="ScrollColumn" class="cls-1" d="M52.6,72.74H559.4a20.28,20.28,0,0,0,0-40.56H52.6a20.28,20.28,0,0,0,0,40.56ZM559.41,539.25H52.6a20.29,20.29,0,0,0,0,40.57H559.4a20.29,20.29,0,0,0,0-40.57ZM416.64,170.77a20.29,20.29,0,0,0-20.27,20.29V372l-31.6-31.62A20.27,20.27,0,1,0,336.11,369l66.18,66.22a20.84,20.84,0,0,0,3.1,2.54c.49.32,1,.54,1.51.81s1.29.75,2,1.05a20.7,20.7,0,0,0,2,.63,15.48,15.48,0,0,0,1.76.53,19.47,19.47,0,0,0,7.95,0,16.12,16.12,0,0,0,1.76-.53c.67-.2,1.36-.36,2-.63a17.81,17.81,0,0,0,2-1.05c.51-.28,1-.49,1.5-.81a21.27,21.27,0,0,0,3.11-2.54L497.19,369a20.28,20.28,0,1,0-28.67-28.68L436.92,372V191.06A20.28,20.28,0,0,0,416.64,170.77ZM195.35,441.2a20.29,20.29,0,0,0,20.28-20.28V240l31.6,31.62A20.27,20.27,0,1,0,275.89,243l-66.18-66.22a19.77,19.77,0,0,0-3.09-2.52c-.26-.18-.56-.3-.85-.46a19.45,19.45,0,0,0-2.63-1.4,11,11,0,0,0-1.2-.37,22.47,22.47,0,0,0-2.57-.79,19.86,19.86,0,0,0-8,0,18.23,18.23,0,0,0-2.57.79c-.41.14-.82.2-1.2.37a20.19,20.19,0,0,0-2.64,1.4c-.28.16-.58.28-.85.46a22,22,0,0,0-3.08,2.52L114.81,243a20.28,20.28,0,1,0,28.67,28.68L175.08,240v180.9A20.25,20.25,0,0,0,195.35,441.2Z"/></svg>