<?xml version="1.0" encoding="iso-8859-1"?>
<!-- Generator: Adobe Illustrator 21.1.0, SVG Export Plug-In . SVG Version: 6.00 Build 0)  -->
<svg version="1.1" xmlns="http://www.w3.org/2000/svg" xmlns:xlink="http://www.w3.org/1999/xlink" x="0px" y="0px"
	 viewBox="0 0 50 50" style="enable-background:new 0 0 50 50;" xml:space="preserve">
<g id="Select">
	<path style="fill:#E1EFFF;" d="M25,50C11.215,50,0,38.785,0,25C0,11.215,11.215,0,25,0c13.785,0,25,11.215,25,25
		C50,38.785,38.785,50,25,50z"/>
	<path style="fill:#1C1E21;" d="M28.757,37.857c-0.008,0-0.017,0-0.026,0c-0.416-0.011-0.777-0.292-0.891-0.692l-3.297-11.64
		l-11.722-3.509c-0.397-0.119-0.672-0.482-0.679-0.896c-0.007-0.415,0.255-0.787,0.648-0.919l23.81-8.008
		c0.344-0.115,0.723-0.026,0.979,0.231c0.256,0.257,0.343,0.637,0.226,0.98l-8.148,23.81C29.526,37.599,29.163,37.857,28.757,37.857
		z M16.24,21.05l9.351,2.799c0.312,0.093,0.554,0.34,0.643,0.653l2.608,9.21l6.536-19.099L16.24,21.05z"/>
</g>
<g id="Layer_1">
</g>
</svg>
