<?xml version="1.0" encoding="iso-8859-1"?>
<!-- Generator: Adobe Illustrator 21.1.0, SVG Export Plug-In . SVG Version: 6.00 Build 0)  -->
<svg version="1.1" xmlns="http://www.w3.org/2000/svg" xmlns:xlink="http://www.w3.org/1999/xlink" x="0px" y="0px"
	 viewBox="0 0 50 50" style="enable-background:new 0 0 50 50;" xml:space="preserve">
<g id="ShowDicom">
	<path style="fill:#E1EFFF;" d="M25,50C11.215,50,0,38.785,0,25C0,11.215,11.215,0,25,0c13.785,0,25,11.215,25,25
		C50,38.785,38.785,50,25,50z"/>
	<path style="fill:#1C1E21;" d="M24.251,37.857H13.095c-0.526,0-0.952-0.426-0.952-0.952v-23.81c0-0.526,0.426-0.952,0.952-0.952
		h11.156c7.884,0,13.606,5.379,13.606,12.789V25C37.857,32.45,32.135,37.857,24.251,37.857z M14.048,35.952h10.203
		c6.78,0,11.701-4.606,11.701-10.952v-0.068c0-6.307-4.921-10.884-11.701-10.884H14.048V35.952z M24.251,33.13h-5.918
		c-0.526,0-0.952-0.426-0.952-0.952V17.823c0-0.526,0.426-0.952,0.952-0.952h5.918c4.787,0,8.13,3.343,8.13,8.129v0.068
		C32.381,29.814,29.038,33.13,24.251,33.13z M19.285,31.225h4.966c3.724,0,6.226-2.474,6.226-6.157V25
		c0-3.723-2.502-6.225-6.226-6.225h-4.966V31.225z"/>
</g>
<g id="Layer_1">
</g>
</svg>
