<svg id="Layer_1" data-name="Layer 1" xmlns="http://www.w3.org/2000/svg" xmlns:xlink="http://www.w3.org/1999/xlink" viewBox="0 0 612 612"><defs><style>.cls-1{stroke:#232323;stroke-miterlimit:10;stroke-width:1.79px;fill:url(#linear-gradient);}</style><linearGradient id="linear-gradient" x1="306" y1="33.12" x2="306" y2="578.88" gradientUnits="userSpaceOnUse"><stop offset="0" stop-color="#fafafa"/><stop offset="1" stop-color="#ebebeb"/></linearGradient></defs><path id="ShowHide" class="cls-1" d="M572.79,320.29a20.21,20.21,0,0,0,0-28.58L460.08,178.94a216.67,216.67,0,0,0-277.82-25.33L67.75,39A20.2,20.2,0,1,0,39.19,67.62L304,332.54l44.87,44.95.3.24L544.25,573a20.2,20.2,0,1,0,28.56-28.58l-112-112ZM530,306l-97.7,97.75-42-42a101.07,101.07,0,0,0-140-140.08l-38.79-38.81a176.54,176.54,0,0,1,220.05,24.66ZM39.19,291.68a20.19,20.19,0,0,0,0,28.58L151.9,433a217.74,217.74,0,0,0,234.87,48.39,20.21,20.21,0,0,0-14.95-37.55,177.34,177.34,0,0,1-191.36-39.42L82,306l70.31-70.34a20.21,20.21,0,1,0-28.57-28.58ZM302.81,407a20.21,20.21,0,1,0,1.25-40.41,60.66,60.66,0,0,1-58.65-58.69,20.21,20.21,0,0,0-20.18-19.59h-.63A20.2,20.2,0,0,0,205,309.15,101.17,101.17,0,0,0,302.81,407Z"/></svg>