<svg id="Layer_1" data-name="Layer 1" xmlns="http://www.w3.org/2000/svg" xmlns:xlink="http://www.w3.org/1999/xlink" viewBox="0 0 612 612"><defs><style>.cls-1{stroke:#232323;stroke-miterlimit:10;stroke-width:1.8px;fill:url(#linear-gradient);}</style><linearGradient id="linear-gradient" x1="306" y1="32.34" x2="306" y2="579.66" gradientUnits="userSpaceOnUse"><stop offset="0" stop-color="#fafafa"/><stop offset="1" stop-color="#ebebeb"/></linearGradient></defs><path id="ShowFirstLast" class="cls-1" d="M466.81,124.82H145.17a20.27,20.27,0,0,0-20.26,20.27V466.9a20.27,20.27,0,0,0,20.26,20.27H466.81a20.27,20.27,0,0,0,20.26-20.27V145.09A20.26,20.26,0,0,0,466.81,124.82Zm-20.26,321.8H165.43V165.36H446.55ZM559.26,32.34H449.51a20.27,20.27,0,1,0,0,40.54H539v89.54a20.26,20.26,0,1,0,40.52,0V52.61A20.27,20.27,0,0,0,559.26,32.34ZM162.49,539.12H73V449.58a20.26,20.26,0,1,0-40.52,0V559.39a20.27,20.27,0,0,0,20.26,20.27H162.49a20.27,20.27,0,0,0,0-40.54Z"/></svg>