<svg id="Layer_1" data-name="Layer 1" xmlns="http://www.w3.org/2000/svg" xmlns:xlink="http://www.w3.org/1999/xlink" viewBox="0 0 612 612"><defs><style>.cls-1{stroke:#232323;stroke-miterlimit:10;stroke-width:1.86px;fill:url(#linear-gradient);}</style><linearGradient id="linear-gradient" x1="306" y1="33.26" x2="306" y2="577.95" gradientUnits="userSpaceOnUse"><stop offset="0" stop-color="#fafafa"/><stop offset="1" stop-color="#ebebeb"/></linearGradient></defs><path id="ShutterObject" class="cls-1" d="M578.19,174.28a7.35,7.35,0,0,0-.13-.89,10.78,10.78,0,0,0-.77-2.87c-.09-.18-.07-.37-.15-.54s-.17-.17-.21-.27a10,10,0,0,0-2.26-2.87c-.17-.15-.36-.23-.55-.38a10.63,10.63,0,0,0-1.68-1.15L397.33,77.71h0L310.67,34.36a2.8,2.8,0,0,0-.31-.09l-.69-.27a10.4,10.4,0,0,0-1.76-.38,10.83,10.83,0,0,0-1.59-.29c-.1,0-.21-.07-.31-.07s-.21.07-.32.07a11.08,11.08,0,0,0-1.59.29,9.16,9.16,0,0,0-1.78.4q-.35.12-.69.27c-.11,0-.21,0-.32.09L214.66,77.73h0L39.55,165.29a10.77,10.77,0,0,0-1.66,1.13,4.69,4.69,0,0,0-.56.4,10.44,10.44,0,0,0-2.25,2.87c-.06.1-.16.16-.2.27s-.07.38-.15.54a10.59,10.59,0,0,0-.78,2.88c0,.29-.1.56-.12.88,0,.12-.06.25-.06.37V436.54a2.5,2.5,0,0,0,.06.38,7.39,7.39,0,0,0,.12.88,10.24,10.24,0,0,0,.78,2.87c.08.19.06.37.15.56a2,2,0,0,0,.27.38,11.45,11.45,0,0,0,.88,1.26,10.41,10.41,0,0,0,.9,1.09,8.33,8.33,0,0,0,1.07.85,8.81,8.81,0,0,0,1.23.87c.13.06.21.16.36.23l261.77,131c.08,0,.19,0,.29.07.25.12.52.2.8.31A10.31,10.31,0,0,0,306,578h0a10.22,10.22,0,0,0,3.56-.71c.27-.11.52-.19.77-.31s.19,0,.3-.07L572.45,445.91c.12-.07.23-.17.35-.25a8.58,8.58,0,0,0,1.22-.85,11.54,11.54,0,0,0,1.09-.87,12.15,12.15,0,0,0,.88-1.07,15,15,0,0,0,.88-1.26c.08-.15.19-.25.27-.4s.06-.38.15-.56a10.78,10.78,0,0,0,.77-2.87c0-.29.1-.59.13-.88,0-.13,0-.25,0-.38V174.61A1.12,1.12,0,0,0,578.19,174.28ZM295.54,288.68,242.16,262l53.38-26.71Zm20.94-53.41L369.86,262l-53.38,26.72ZM282.6,305.63l-53.38,26.69V278.91Zm12.94,17V376l-53.36-26.7Zm20.94.55,52.92,26.36L316.48,376Zm12.4-17.23,53.92-27v53.83Zm.54-87.6,53.38-26.69V245ZM229.22,245V191.6l53.38,26.7Zm-20.94,87.31-53.37-26.69,53.37-26.7Zm74.32,60.6-53.38,26.71V366.22Zm100.2-26.7v53.41l-53.38-26.71Zm20.94-87.31,53.36,26.7L403.74,332.3V278.91ZM416.68,262,470,235.29v53.39Zm-12.94-17V191.6l53.41,26.72Zm-87.26-43.66V148l53.38,26.69Zm-20.94,0-53.38-26.72,53.38-26.71ZM208.28,245l-53.39-26.71,53.39-26.71V245Zm-12.95,17L142,288.68V235.29Zm0,87.29L142,376V322.56Zm12.93,17v53.38l-53.37-26.69Zm87.26,43.62v53.41l-53.38-26.7Zm20.94,0,53.38,26.71L316.48,463.3Zm87.26-43.27,53.14,26.47-53.14,26.56Zm12.57-17.14L470,322.58v53.64ZM491,235.27,544.35,262,491,288.66Zm-74.28-60.62,53.61-26.81.88,54.08ZM329.42,131l53.38-26.7V157.7ZM229.22,157.7V104.29L282.6,131ZM142,201.35V148l53.34,26.7ZM121,288.68,67.65,262,121,235.25Zm-12.94,16.95L54.71,332.34V278.93ZM121,322.58V376L67.65,349.27Zm74.3,114L142,463.28V409.89Zm87.27,43.65-53.38,26.69V453.51Zm100.2-26.7v53.41l-53.38-26.69ZM470,409.89v53.39l-53.36-26.7ZM491,322.58l53.36,26.69L491,376Zm12.94-16.95,53.38-26.7v53.41Zm0-87.31,53.38-26.69V245ZM492.14,200.8l-.86-52.69,53.08,26.54Zm-88.4-43.08v-53.4L457.1,131ZM316.48,114V60.67l53.34,26.7Zm-20.94,0L242.18,87.37l53.36-26.7ZM208.28,157.7,154.91,131l53.37-26.69ZM121,201.37,67.65,174.65,121,148Zm-13,16.95L54.71,245V191.63ZM54.71,366.25l53.38,26.69L54.71,419.63ZM121,409.89V463.3L67.65,436.6Zm87.25,43.64v53.39l-53.37-26.69Zm87.26,43.67v53.38l-53.36-26.69Zm20.94,0,53.36,26.69-53.36,26.69Zm87.26-43.65,53.36,26.7-53.36,26.69V453.53ZM491,410.06,544.3,436.6,491,463.28ZM503.78,393l53.53-26.78v53.43Z"/></svg>