<?xml version="1.0" encoding="iso-8859-1"?>
<!-- Generator: Adobe Illustrator 21.1.0, SVG Export Plug-In . SVG Version: 6.00 Build 0)  -->
<svg version="1.1" xmlns="http://www.w3.org/2000/svg" xmlns:xlink="http://www.w3.org/1999/xlink" x="0px" y="0px"
	 viewBox="0 0 49.996 49.996" style="enable-background:new 0 0 49.996 49.996;" xml:space="preserve">
<g id="SSD">
	<path style="fill:#70B6F6;" d="M2.5,0C1.119,0,0,1.119,0,2.5v44.996c0,1.381,1.119,2.5,2.5,2.5h44.996c1.381,0,2.5-1.119,2.5-2.5
		V2.5c0-1.381-1.119-2.5-2.5-2.5H2.5z"/>
	<path style="fill:#FFFFFF;" d="M16.07,35.068c-1.452-0.372-1.811-0.552-1.811-1.103v-0.023c0-0.408,0.372-0.731,1.079-0.731
		c0.708,0,1.439,0.311,2.183,0.827l0.959-1.391c-0.852-0.684-1.894-1.067-3.118-1.067c-1.715,0-2.938,1.008-2.938,2.531v0.023
		c0,1.667,1.092,2.135,2.782,2.566c1.403,0.36,1.691,0.6,1.691,1.067v0.024c0,0.492-0.456,0.792-1.212,0.792
		c-0.959,0-1.751-0.396-2.506-1.019l-1.092,1.307c1.008,0.899,2.291,1.344,3.562,1.344c1.81,0,3.082-0.936,3.082-2.602v-0.024
		C18.732,36.124,17.772,35.512,16.07,35.068z M24.659,35.068c-1.451-0.372-1.81-0.552-1.81-1.103v-0.023
		c0-0.408,0.372-0.731,1.079-0.731c0.708,0,1.439,0.311,2.184,0.827l0.959-1.391c-0.851-0.684-1.894-1.067-3.118-1.067
		c-1.715,0-2.938,1.008-2.938,2.531v0.023c0,1.667,1.092,2.135,2.782,2.566c1.403,0.36,1.691,0.6,1.691,1.067v0.024
		c0,0.492-0.456,0.792-1.211,0.792c-0.96,0-1.752-0.396-2.507-1.019l-1.092,1.307c1.008,0.899,2.291,1.344,3.562,1.344
		c1.81,0,3.082-0.936,3.082-2.602v-0.024C27.322,36.124,26.362,35.512,24.659,35.068z M33.553,31.698H30.28v8.395h3.273
		c2.638,0,4.462-1.835,4.462-4.197v-0.024C38.015,33.51,36.192,31.698,33.553,31.698z M36.084,35.919
		c0,1.487-1.019,2.507-2.531,2.507h-1.427v-5.061h1.427c1.512,0,2.531,1.044,2.531,2.531V35.919z M13.923,16.835l10.389,6.038
		c0.194,0.113,0.45,0.17,0.706,0.17c0.254,0,0.51-0.056,0.707-0.17l10.451-6.034c0.396-0.229,0.392-0.593,0.005-0.818L25.791,9.983
		c-0.194-0.113-0.45-0.17-0.706-0.17c-0.254,0-0.509,0.056-0.707,0.17l-10.451,6.034C13.532,16.245,13.536,16.61,13.923,16.835z
		 M25.084,11.885l7.811,4.539l-7.875,4.547l-7.81-4.539L25.084,11.885z M12.588,28.214h10.836c0.276,0,0.5-0.224,0.5-0.5v-2.268
		c0-0.179-0.096-0.345-0.251-0.434l-10.878-6.24c-0.113-0.065-0.22-0.095-0.314-0.095c-0.232,0-0.392,0.184-0.392,0.508v8.528
		C12.088,27.99,12.312,28.214,12.588,28.214z M14.088,21.82l7.836,4.495h-7.836V21.82z M37.623,18.678
		c-0.095,0-0.202,0.031-0.314,0.095l-10.878,6.24c-0.155,0.089-0.251,0.255-0.251,0.434v2.268c0,0.276,0.224,0.5,0.5,0.5h10.836
		c0.276,0,0.5-0.224,0.5-0.5v-8.528C38.015,18.862,37.855,18.678,37.623,18.678z M36.015,26.315h-7.836l7.836-4.495V26.315z"/>
</g>
<g id="Layer_1">
</g>
</svg>
