<?xml version="1.0" encoding="iso-8859-1"?>
<!-- Generator: Adobe Illustrator 21.1.0, SVG Export Plug-In . SVG Version: 6.00 Build 0)  -->
<svg version="1.1" xmlns="http://www.w3.org/2000/svg" xmlns:xlink="http://www.w3.org/1999/xlink" x="0px" y="0px"
	 viewBox="0 0 50 50" style="enable-background:new 0 0 50 50;" xml:space="preserve">
<g id="Stack">
	<path style="fill:#E1EFFF;" d="M25,50C11.215,50,0,38.785,0,25C0,11.215,11.215,0,25,0c13.785,0,25,11.215,25,25
		C50,38.785,38.785,50,25,50z"/>
	<path style="fill:#1C1E21;" d="M24.961,27.84c-0.165,0-0.331-0.043-0.479-0.129l-11.867-6.896
		c-0.294-0.171-0.474-0.485-0.474-0.825c0-0.34,0.182-0.654,0.476-0.823l11.945-6.896c0.296-0.171,0.66-0.17,0.955,0.001
		l11.867,6.896c0.294,0.171,0.474,0.485,0.474,0.825s-0.182,0.654-0.476,0.823l-11.945,6.896
		C25.29,27.798,25.126,27.84,24.961,27.84z M14.994,19.994l9.968,5.793l10.043-5.798l-9.968-5.793L14.994,19.994z"/>
	<path style="fill:#1C1E21;" d="M24.961,32.849c-0.165,0-0.331-0.043-0.479-0.129l-11.867-6.896
		c-0.294-0.171-0.474-0.485-0.474-0.825c0-0.34,0.182-0.654,0.476-0.823l1.924-1.111c0.455-0.263,1.038-0.107,1.301,0.349
		c0.263,0.455,0.107,1.038-0.349,1.301l-0.5,0.289l9.968,5.793l10.043-5.798l-0.492-0.286c-0.455-0.264-0.609-0.847-0.345-1.302
		c0.264-0.454,0.847-0.61,1.302-0.345l1.913,1.112c0.294,0.171,0.474,0.485,0.474,0.825c0,0.34-0.182,0.653-0.476,0.824
		l-11.945,6.896C25.29,32.806,25.126,32.849,24.961,32.849z"/>
	<path style="fill:#1C1E21;" d="M24.961,37.857c-0.165,0-0.331-0.043-0.479-0.129l-11.867-6.896
		c-0.294-0.171-0.474-0.485-0.474-0.825c0-0.34,0.182-0.653,0.476-0.824l1.924-1.111c0.455-0.263,1.038-0.106,1.301,0.349
		c0.263,0.456,0.107,1.038-0.349,1.301l-0.5,0.289l9.968,5.793l10.043-5.798l-0.492-0.286c-0.455-0.264-0.609-0.847-0.345-1.302
		c0.264-0.454,0.847-0.609,1.302-0.345l1.913,1.111c0.294,0.171,0.474,0.485,0.474,0.825c0,0.339-0.182,0.653-0.476,0.824
		L25.437,37.73C25.29,37.815,25.126,37.857,24.961,37.857z"/>
</g>
<g id="Layer_1">
</g>
</svg>
