<?xml version="1.0" encoding="iso-8859-1"?>
<!-- Generator: Adobe Illustrator 21.1.0, SVG Export Plug-In . SVG Version: 6.00 Build 0)  -->
<svg version="1.1" xmlns="http://www.w3.org/2000/svg" xmlns:xlink="http://www.w3.org/1999/xlink" x="0px" y="0px"
	 viewBox="0 0 50 50" style="enable-background:new 0 0 50 50;" xml:space="preserve">
<g id="StudyTimeLine">
	<path style="fill:#E1EFFF;" d="M25,50C11.215,50,0,38.785,0,25C0,11.215,11.215,0,25,0c13.785,0,25,11.215,25,25
		C50,38.785,38.785,50,25,50z"/>
	<path style="fill:#1C1E21;" d="M36.905,37.857H25c-0.526,0-0.952-0.426-0.952-0.952v-6.19c0-0.526,0.426-0.952,0.952-0.952h11.905
		c0.526,0,0.952,0.426,0.952,0.952v6.19C37.857,37.431,37.431,37.857,36.905,37.857z M25.952,35.952h10v-4.286h-10V35.952z"/>
	<path style="fill:#1C1E21;" d="M36.905,25.952H25c-0.526,0-0.952-0.426-0.952-0.952v-6.19c0-0.526,0.426-0.952,0.952-0.952h11.905
		c0.526,0,0.952,0.426,0.952,0.952V25C37.857,25.526,37.431,25.952,36.905,25.952z M25.952,24.048h10v-4.286h-10V24.048z"/>
	<path style="fill:#1C1E21;" d="M25,34.762H13.095c-0.526,0-0.952-0.426-0.952-0.952V13.095c0-0.526,0.426-0.952,0.952-0.952
		c0.526,0,0.952,0.426,0.952,0.952v19.762H25c0.526,0,0.952,0.426,0.952,0.952S25.526,34.762,25,34.762z"/>
	<path style="fill:#1C1E21;" d="M25,22.857H13.095c-0.526,0-0.952-0.426-0.952-0.952c0-0.526,0.426-0.952,0.952-0.952H25
		c0.526,0,0.952,0.426,0.952,0.952C25.952,22.431,25.526,22.857,25,22.857z"/>
</g>
<g id="Layer_1">
</g>
</svg>
