<svg id="Layer_1" data-name="Layer 1" xmlns="http://www.w3.org/2000/svg" xmlns:xlink="http://www.w3.org/1999/xlink" viewBox="0 0 612 612"><defs><style>.cls-1{stroke:#232323;stroke-miterlimit:10;stroke-width:1.31px;fill:url(#linear-gradient);}</style><linearGradient id="linear-gradient" x1="306" y1="32.61" x2="306" y2="579.39" gradientUnits="userSpaceOnUse"><stop offset="0" stop-color="#fafafa"/><stop offset="1" stop-color="#ebebeb"/></linearGradient></defs><path class="cls-1" d="M285.76,306V260.43H73.23V473.07H285.76V427.51A20.25,20.25,0,0,1,306,407.25H559a20.26,20.26,0,0,1,20.24,20.26V559.14A20.25,20.25,0,0,1,559,579.39H306a20.24,20.24,0,0,1-20.23-20.25V513.57H53a20.24,20.24,0,0,1-20.23-20.25V52.86a20.24,20.24,0,1,1,40.47,0V219.93H285.76V174.37A20.24,20.24,0,0,1,306,154.12H559a20.25,20.25,0,0,1,20.24,20.25V306A20.25,20.25,0,0,1,559,326.25H306A20.24,20.24,0,0,1,285.76,306Z"/></svg>