<?xml version="1.0" encoding="iso-8859-1"?>
<!-- Generator: Adobe Illustrator 21.1.0, SVG Export Plug-In . SVG Version: 6.00 Build 0)  -->
<svg version="1.1" xmlns="http://www.w3.org/2000/svg" xmlns:xlink="http://www.w3.org/1999/xlink" x="0px" y="0px"
	 viewBox="0 0 50 50" style="enable-background:new 0 0 50 50;" xml:space="preserve">
<g id="Text">
	<path style="fill:#E1EFFF;" d="M25,50C11.215,50,0,38.785,0,25C0,11.215,11.215,0,25,0c13.785,0,25,11.215,25,25
		C50,38.785,38.785,50,25,50z"/>
	<path style="fill:#1C1E21;" d="M36.905,19.219c-0.526,0-0.952-0.426-0.952-0.952v-4.219H14.048v4.219
		c0,0.526-0.426,0.952-0.952,0.952c-0.526,0-0.952-0.426-0.952-0.952v-5.171c0-0.526,0.426-0.952,0.952-0.952h23.81
		c0.526,0,0.952,0.426,0.952,0.952v5.171C37.857,18.793,37.431,19.219,36.905,19.219z"/>
	<path style="fill:#1C1E21;" d="M25,37.857c-0.526,0-0.952-0.426-0.952-0.952v-23.81c0-0.526,0.426-0.952,0.952-0.952
		s0.952,0.426,0.952,0.952v23.81C25.952,37.431,25.526,37.857,25,37.857z"/>
	<path style="fill:#1C1E21;" d="M29.579,37.857h-9.157c-0.526,0-0.952-0.426-0.952-0.952s0.426-0.952,0.952-0.952h9.157
		c0.526,0,0.952,0.426,0.952,0.952S30.105,37.857,29.579,37.857z"/>
</g>
<g id="Layer_1">
</g>
</svg>
