<?xml version="1.0" encoding="iso-8859-1"?>
<!-- Generator: Adobe Illustrator 21.1.0, SVG Export Plug-In . SVG Version: 6.00 Build 0)  -->
<svg version="1.1" xmlns="http://www.w3.org/2000/svg" xmlns:xlink="http://www.w3.org/1999/xlink" x="0px" y="0px"
	 viewBox="0 0 50 50" style="enable-background:new 0 0 50 50;" xml:space="preserve">
<g id="TextPointer">
	<path style="fill:#E1EFFF;" d="M25,50C11.215,50,0,38.785,0,25C0,11.215,11.215,0,25,0c13.785,0,25,11.215,25,25
		C50,38.785,38.785,50,25,50z"/>
	<path style="fill:#1C1E21;" d="M27.97,16.452c-0.526,0-0.952-0.426-0.952-0.952v-1.452h-12.97V15.5
		c0,0.526-0.426,0.952-0.952,0.952c-0.526,0-0.952-0.426-0.952-0.952v-2.404c0-0.526,0.426-0.952,0.952-0.952H27.97
		c0.526,0,0.952,0.426,0.952,0.952V15.5C28.923,16.026,28.496,16.452,27.97,16.452z"/>
	<path style="fill:#1C1E21;" d="M20.533,28.923c-0.526,0-0.952-0.426-0.952-0.952V13.095c0-0.526,0.426-0.952,0.952-0.952
		c0.526,0,0.952,0.426,0.952,0.952V27.97C21.485,28.496,21.059,28.923,20.533,28.923z"/>
	<path style="fill:#1C1E21;" d="M23.393,28.923h-5.721c-0.526,0-0.952-0.426-0.952-0.952c0-0.526,0.426-0.952,0.952-0.952h5.721
		c0.526,0,0.952,0.426,0.952,0.952C24.345,28.496,23.919,28.923,23.393,28.923z"/>
	<path style="fill:#1C1E21;" d="M27.97,34.696c-0.526,0-0.952-0.426-0.952-0.952V27.97c0-0.526,0.426-0.952,0.952-0.952h5.773
		c0.526,0,0.952,0.426,0.952,0.952c0,0.526-0.426,0.952-0.952,0.952h-4.821v4.821C28.923,34.269,28.496,34.696,27.97,34.696z"/>
	<path style="fill:#1C1E21;" d="M36.905,37.857c-0.244,0-0.487-0.093-0.673-0.279l-8.935-8.935c-0.372-0.372-0.372-0.975,0-1.347
		c0.372-0.372,0.975-0.372,1.347,0l8.935,8.935c0.372,0.372,0.372,0.975,0,1.347C37.392,37.764,37.148,37.857,36.905,37.857z"/>
</g>
<g id="Layer_1">
</g>
</svg>
