<svg id="Layer_1" data-name="Layer 1" xmlns="http://www.w3.org/2000/svg" xmlns:xlink="http://www.w3.org/1999/xlink" viewBox="0 0 612 612"><defs><style>.cls-1,.cls-2,.cls-3{stroke:#232323;stroke-miterlimit:10;stroke-width:1.31px;}.cls-1{fill:url(#linear-gradient);}.cls-2{fill:url(#linear-gradient-2);}.cls-3{fill:url(#linear-gradient-3);}</style><linearGradient id="linear-gradient" x1="461.89" y1="199.11" x2="461.89" y2="580.77" gradientUnits="userSpaceOnUse"><stop offset="0" stop-color="#fafafa"/><stop offset="1" stop-color="#ebebeb"/></linearGradient><linearGradient id="linear-gradient-2" x1="417.28" y1="234.33" x2="417.28" y2="348.91" xlink:href="#linear-gradient"/><linearGradient id="linear-gradient-3" x1="219.46" y1="31.24" x2="219.46" y2="406.14" xlink:href="#linear-gradient"/></defs><path class="cls-1" d="M493,199.11H430.72A87,87,0,0,0,343.88,286V493.85a87,87,0,0,0,86.84,86.92H493a87,87,0,0,0,86.86-86.92V286A87,87,0,0,0,493,199.11Zm51.64,294.74A51.72,51.72,0,0,1,493,545.54H430.72a51.72,51.72,0,0,1-51.64-51.69V384.12h165.6Zm0-144.94H468.3V336.79a17.62,17.62,0,0,0,11.18-16.41V267.47a17.61,17.61,0,0,0-11.18-16.4V234.34H493A51.71,51.71,0,0,1,544.68,286Z"/><path class="cls-2" d="M379.09,286a51.71,51.71,0,0,1,51.64-51.67h24.74v16.74a17.62,17.62,0,0,0-11.17,16.4v52.91a17.63,17.63,0,0,0,11.17,16.41v12.12H379.09Z"/><path class="cls-3" d="M283.33,363.58H240.74V73.8H364.28v32.44a21.27,21.27,0,1,0,42.53,0V52.52a21.28,21.28,0,0,0-21.27-21.28H53.38A21.28,21.28,0,0,0,32.11,52.52v53.72a21.27,21.27,0,1,0,42.53,0V73.8H198.18V363.58H155.56a21.28,21.28,0,0,0,0,42.56H283.31a21.28,21.28,0,0,0,0-42.56Z"/></svg>