<svg id="Layer_1" data-name="Layer 1" xmlns="http://www.w3.org/2000/svg" xmlns:xlink="http://www.w3.org/1999/xlink" viewBox="0 0 612 612"><defs><style>.cls-1,.cls-10,.cls-11,.cls-12,.cls-2,.cls-3,.cls-4,.cls-5,.cls-6,.cls-7,.cls-8,.cls-9{stroke:#232323;stroke-miterlimit:10;stroke-width:1.31px;}.cls-1{fill:url(#linear-gradient);}.cls-2{fill:url(#linear-gradient-2);}.cls-3{fill:url(#linear-gradient-3);}.cls-4{fill:url(#linear-gradient-4);}.cls-5{fill:url(#linear-gradient-5);}.cls-6{fill:url(#linear-gradient-6);}.cls-7{fill:url(#linear-gradient-7);}.cls-8{fill:url(#linear-gradient-8);}.cls-9{fill:url(#linear-gradient-9);}.cls-10{fill:url(#linear-gradient-10);}.cls-11{fill:url(#linear-gradient-11);}.cls-12{fill:url(#linear-gradient-12);}</style><linearGradient id="linear-gradient" x1="150.55" y1="373.36" x2="150.55" y2="472.93" gradientUnits="userSpaceOnUse"><stop offset="0" stop-color="#fafafa"/><stop offset="1" stop-color="#ebebeb"/></linearGradient><linearGradient id="linear-gradient-2" x1="459.64" y1="133.65" x2="459.64" y2="233.22" xlink:href="#linear-gradient"/><linearGradient id="linear-gradient-3" x1="192.49" y1="216" x2="192.49" y2="233.24" xlink:href="#linear-gradient"/><linearGradient id="linear-gradient-4" x1="139.6" y1="240.75" x2="139.6" y2="544.85" xlink:href="#linear-gradient"/><linearGradient id="linear-gradient-5" x1="317.2" y1="360.91" x2="317.2" y2="364.67" xlink:href="#linear-gradient"/><linearGradient id="linear-gradient-6" x1="337.23" y1="329.17" x2="337.23" y2="346.39" xlink:href="#linear-gradient"/><linearGradient id="linear-gradient-7" x1="304.4" y1="162.03" x2="304.4" y2="292.39" xlink:href="#linear-gradient"/><linearGradient id="linear-gradient-8" x1="267.52" y1="274.67" x2="267.52" y2="291.9" xlink:href="#linear-gradient"/><linearGradient id="linear-gradient-9" x1="315.31" y1="300.64" x2="315.31" y2="449.97" xlink:href="#linear-gradient"/><linearGradient id="linear-gradient-10" x1="412.27" y1="387.83" x2="412.27" y2="405.06" xlink:href="#linear-gradient"/><linearGradient id="linear-gradient-11" x1="472.4" y1="67.15" x2="472.4" y2="356.8" xlink:href="#linear-gradient"/><linearGradient id="linear-gradient-12" x1="310.47" y1="129.28" x2="310.47" y2="482.72" xlink:href="#linear-gradient"/></defs><path class="cls-1" d="M123.38,472.85c-5.42.14-5.72.45-11.19-2.59a1,1,0,0,1-.21-.15c-7.48-6.14-5.67-12.55.46-20.11l54.43-67.36c6.16-7.59,14.59-12.7,22.18-6.53s5.74,14.54-.43,22.12L134.2,465.59C131.13,469.39,127.89,472.73,123.38,472.85Z"/><path class="cls-2" d="M432.47,233.14c-5.42.14-5.72.45-11.19-2.59l-.21-.15c-7.48-6.14-5.68-12.55.46-20.11L476,142.93c6.17-7.6,14.6-12.7,22.19-6.54s5.74,14.55-.43,22.13l-54.42,67.36C440.22,229.68,437,233,432.47,233.14Z"/><polygon class="cls-3" points="185.29 219.37 181.57 216.47 181.94 216 203.4 232.78 203.04 233.24 185.29 219.37"/><path class="cls-4" d="M244.41,475.5,220.79,505A106.9,106.9,0,0,1,71.86,522.27,104.34,104.34,0,0,1,54.79,374.81l23.62-29.5c.33-.4.66-.79,1-1.15l0,0,82.29-102.89a1.26,1.26,0,0,1,1.77-.21l2.16,1.69L183,256.23a1.27,1.27,0,0,1,.21,1.79L94.34,369.11a10.24,10.24,0,0,1-1,1.1L76.21,391.63A77.36,77.36,0,0,0,88.88,501,79.3,79.3,0,0,0,199.36,488.2L223,458.7a13.74,13.74,0,0,1,19.2-2.22A13.42,13.42,0,0,1,244.41,475.5Z"/><path class="cls-5" d="M317.23,361.19l1.52,1.18a1.27,1.27,0,0,1-1.44,2.08c-.31-.2-.61-.42-.91-.65s-.57-.47-.84-.72A1.26,1.26,0,0,1,317.23,361.19Z"/><polygon class="cls-6" points="348.14 345.94 347.78 346.39 328.68 331.46 326.32 329.61 326.68 329.17 348.14 345.94"/><path class="cls-7" d="M379.26,291.42a1.27,1.27,0,0,1-2,.7L370.69,287,355,274.74a1.23,1.23,0,0,1-.48-1.1,77.37,77.37,0,0,0-29.39-67.77,79,79,0,0,0-73.61-12.73,1.29,1.29,0,0,1-1.17-.2l-1.4-1.1L227.3,174.9l-.71-.55c36.09-19,81.62-16.37,115.6,10.26A104.36,104.36,0,0,1,379.26,291.42Z"/><polygon class="cls-8" points="259.77 277.58 256.61 275.12 256.97 274.67 278.43 291.44 278.07 291.89 259.77 277.58"/><path class="cls-9" d="M385.5,414.53l14.83,11.61a1.28,1.28,0,0,1,0,2,107.08,107.08,0,0,1-130.49-.77,104.35,104.35,0,0,1-30-126.75l.93.74,20.61,16.09a1.26,1.26,0,0,1,.4,1.42,77.38,77.38,0,0,0,25.1,87.23,79.41,79.41,0,0,0,91.78,4.11,1.26,1.26,0,0,1,1.46.06Z"/><polygon class="cls-10" points="423.18 404.61 422.82 405.06 404.22 390.51 401.36 388.28 401.74 387.83 423.18 404.61"/><path class="cls-11" d="M557.21,237.18,461.4,356.33a1.25,1.25,0,0,1-1.76.2l-13.41-10.48-6-4.73a1.26,1.26,0,0,1-.21-1.79l95.8-119.14A77.42,77.42,0,0,0,523.13,111a79.29,79.29,0,0,0-110.48,12.8L389,153.29a13.75,13.75,0,0,1-19.22,2.23,13.43,13.43,0,0,1-2.21-19L391.22,107c36.36-45.4,103.16-53.14,148.93-17.25A104.33,104.33,0,0,1,557.21,237.18Z"/><path class="cls-12" d="M530.28,477.84A12.71,12.71,0,0,1,512.44,480L400,392.1l-17.89-14-44.72-35-17.9-14L279.2,297.68l-17.9-14-44.7-34.95-17.9-14L92.86,152a12.71,12.71,0,1,1,15.65-20L215,215.27l18.09,14.13,44.05,34.44,17.9,14,39.6,31,18.07,14.13,44.95,35.14,18.17,14.21L528.09,460A12.71,12.71,0,0,1,530.28,477.84Z"/></svg>