<svg id="Layer_1" data-name="Layer 1" xmlns="http://www.w3.org/2000/svg" xmlns:xlink="http://www.w3.org/1999/xlink" viewBox="0 0 612 612"><defs><style>.cls-1,.cls-2,.cls-3,.cls-4,.cls-5,.cls-6,.cls-7{stroke:#232323;stroke-miterlimit:10;stroke-width:1.31px;}.cls-1,.cls-2,.cls-3{isolation:isolate;}.cls-1{fill:url(#linear-gradient);}.cls-2{fill:url(#linear-gradient-2);}.cls-3{fill:url(#linear-gradient-3);}.cls-4{fill:url(#linear-gradient-4);}.cls-5{fill:url(#linear-gradient-5);}.cls-6{fill:url(#linear-gradient-6);}.cls-7{fill:url(#linear-gradient-7);}</style><linearGradient id="linear-gradient" x1="155.93" y1="287.88" x2="155.93" y2="354.89" gradientUnits="userSpaceOnUse"><stop offset="0" stop-color="#fafafa"/><stop offset="1" stop-color="#ebebeb"/></linearGradient><linearGradient id="linear-gradient-2" x1="238.06" y1="334.24" x2="238.06" y2="430.71" xlink:href="#linear-gradient"/><linearGradient id="linear-gradient-3" x1="132.93" y1="334.24" x2="132.93" y2="354.89" xlink:href="#linear-gradient"/><linearGradient id="linear-gradient-4" x1="447.15" y1="225.42" x2="447.15" y2="386.52" xlink:href="#linear-gradient"/><linearGradient id="linear-gradient-5" x1="520.48" y1="132.01" x2="520.48" y2="479.96" xlink:href="#linear-gradient"/><linearGradient id="linear-gradient-6" x1="192.09" y1="77.6" x2="192.09" y2="534.4" xlink:href="#linear-gradient"/><linearGradient id="linear-gradient-7" x1="193.55" y1="145.76" x2="193.55" y2="475.52" xlink:href="#linear-gradient"/></defs><path class="cls-1" d="M155.93,287.88a10.34,10.34,0,0,0-10.33,10.33v46.35a10.33,10.33,0,1,0,20.65,0V298.21A10.33,10.33,0,0,0,155.93,287.88Z"/><path class="cls-2" d="M287.9,427.33a10.33,10.33,0,0,0-.7-14.58l-84.39-75.83a10.32,10.32,0,1,0-13.89,15.28L273.31,428A10.34,10.34,0,0,0,287.9,427.33Z"/><path class="cls-3" d="M99.43,344.56a10.34,10.34,0,0,0,10.33,10.33h46.35a10.32,10.32,0,1,0,0-20.64H109.76A10.33,10.33,0,0,0,99.43,344.56Z"/><path class="cls-4" d="M449.1,230.93a24.48,24.48,0,0,0-31,37.9c11.51,9.45,18.14,23.12,18.14,36.69a48.55,48.55,0,0,1-18.17,37.59,24.48,24.48,0,0,0,31,37.9c23-17.93,36.16-45.38,36.16-75.49S472.06,249.7,449.1,230.93Z"/><path class="cls-5" d="M502.45,138.17a27.32,27.32,0,0,0-34.67,42.23,160.56,160.56,0,0,1,60.75,125.07c0,47.61-22.14,93.5-60.72,126.07a27.32,27.32,0,0,0,34.67,42.23c51.33-41,80.71-102.36,80.71-168.3S553.81,180.08,502.45,138.17Z"/><path class="cls-6" d="M336.18,80.47a32.7,32.7,0,0,0-35.13,5.4L163.31,208.15H77.79a49,49,0,0,0-49,48.94V355a49,49,0,0,0,49,48.94h85.56L301,526.18a32.68,32.68,0,0,0,35.13,5.32,32.44,32.44,0,0,0,19.23-29.65V110.2A32.5,32.5,0,0,0,336.18,80.47ZM52.24,353.13c0-.31,0-.63,0-1v-2.45c0,.32,0,.65,0,1Zm268,97.43c-.05,9.79-6.13,18.68-15.7,22.72a27.95,27.95,0,0,1-28.7-4.11L166.25,370.55H102c-18.19,0-33.16-9.78-34.95-27.1-.09-.87-.15-1.75-.17-2.65V278.34c0-1,0-1.92.11-2.86,0-.53.11-1.05.17-1.57s.17-1.19.27-1.78A35.13,35.13,0,0,1,102,243.25h64.29l109.27-91.11A28,28,0,0,1,304.25,148a25,25,0,0,1,15.68,22.82l.33,279.64Z"/><path class="cls-7" d="M320.26,450.43v.13c-.05,9.79-6.13,18.68-15.7,22.72a27.95,27.95,0,0,1-28.7-4.11L166.25,370.55H102c-18.19,0-33.16-9.78-34.95-27.1-.09-.87-.15-1.75-.17-2.65V278.34c0-1,0-1.92.11-2.86,0-.53.11-1.05.17-1.57s.17-1.19.27-1.78c2.93-15.95,17.09-26.45,34.33-26.45H166l109.52-93.54A28,28,0,0,1,304.25,148a25,25,0,0,1,15.68,22.82"/></svg>