<?xml version="1.0" encoding="iso-8859-1"?>
<!-- Generator: Adobe Illustrator 21.1.0, SVG Export Plug-In . SVG Version: 6.00 Build 0)  -->
<svg version="1.1" xmlns="http://www.w3.org/2000/svg" xmlns:xlink="http://www.w3.org/1999/xlink" x="0px" y="0px"
	 viewBox="0 0 50 50" style="enable-background:new 0 0 50 50;" xml:space="preserve">
<g id="WindowLevelCustom">
	<path style="fill:#E1EFFF;" d="M25,50C11.215,50,0,38.785,0,25C0,11.215,11.215,0,25,0c13.785,0,25,11.215,25,25
		C50,38.785,38.785,50,25,50z"/>
	<path style="fill:#1C1E21;" d="M25,33.265c-0.526,0-0.952-0.426-0.952-0.952v-1.92c0-0.526,0.426-0.952,0.952-0.952
		s0.952,0.426,0.952,0.952v1.92C25.952,32.838,25.526,33.265,25,33.265z"/>
	<path style="fill:#1C1E21;" d="M25,20.56c-0.526,0-0.952-0.426-0.952-0.952v-1.92c0-0.526,0.426-0.952,0.952-0.952
		s0.952,0.426,0.952,0.952v1.92C25.952,20.133,25.526,20.56,25,20.56z"/>
	<path style="fill:#1C1E21;" d="M21.187,22.139c-0.244,0-0.488-0.093-0.673-0.279l-1.357-1.357c-0.372-0.372-0.372-0.975,0-1.347
		c0.372-0.372,0.975-0.372,1.347,0l1.357,1.357c0.372,0.372,0.372,0.975,0,1.347C21.674,22.046,21.43,22.139,21.187,22.139z"/>
	<path style="fill:#1C1E21;" d="M30.171,31.123c-0.244,0-0.487-0.093-0.673-0.279l-1.358-1.358c-0.372-0.372-0.372-0.975,0-1.347
		c0.372-0.372,0.975-0.372,1.347,0l1.358,1.358c0.372,0.372,0.372,0.975,0,1.347C30.658,31.03,30.414,31.123,30.171,31.123z"/>
	<path style="fill:#1C1E21;" d="M28.813,22.139c-0.244,0-0.487-0.093-0.673-0.279c-0.372-0.372-0.372-0.975,0-1.347l1.357-1.357
		c0.372-0.372,0.975-0.372,1.347,0c0.372,0.372,0.372,0.975,0,1.347l-1.357,1.357C29.301,22.046,29.057,22.139,28.813,22.139z"/>
	<path style="fill:#1C1E21;" d="M19.83,31.123c-0.244,0-0.487-0.093-0.673-0.279c-0.372-0.372-0.372-0.975,0-1.347l1.357-1.357
		c0.372-0.372,0.975-0.372,1.347,0c0.372,0.372,0.372,0.975,0,1.347l-1.357,1.357C20.317,31.03,20.073,31.123,19.83,31.123z"/>
	<path style="fill:#1C1E21;" d="M32.312,25.952h-1.919c-0.526,0-0.952-0.426-0.952-0.952s0.426-0.952,0.952-0.952h1.919
		c0.526,0,0.952,0.426,0.952,0.952S32.838,25.952,32.312,25.952z"/>
	<path style="fill:#1C1E21;" d="M19.607,25.952h-1.919c-0.526,0-0.952-0.426-0.952-0.952s0.426-0.952,0.952-0.952h1.919
		c0.526,0,0.952,0.426,0.952,0.952S20.133,25.952,19.607,25.952z"/>
	<path style="fill:#1C1E21;" d="M25,31.345c-3.499,0-6.345-2.846-6.345-6.345c0-3.499,2.846-6.345,6.345-6.345
		c3.499,0,6.345,2.846,6.345,6.345C31.345,28.499,28.499,31.345,25,31.345z M25,20.56c-2.448,0-4.44,1.992-4.44,4.44
		s1.992,4.441,4.44,4.441s4.441-1.992,4.441-4.441S27.448,20.56,25,20.56z"/>
	<path style="fill:#1C1E21;" d="M27.389,25c0,1.319-1.069,2.389-2.389,2.389S22.611,26.319,22.611,25H27.389z"/>
	<path style="fill:#1C1E21;" d="M25,28.341c-1.842,0-3.341-1.499-3.341-3.341c0-0.526,0.426-0.952,0.952-0.952h4.777
		c0.526,0,0.952,0.426,0.952,0.952C28.341,26.842,26.842,28.341,25,28.341z M23.926,25.952c0.263,0.297,0.648,0.484,1.074,0.484
		c0.427,0,0.811-0.187,1.075-0.484H23.926z"/>
	<path style="fill:#1C1E21;" d="M36.905,37.857h-3.571c-0.526,0-0.952-0.426-0.952-0.952s0.426-0.952,0.952-0.952h2.619v-2.619
		c0-0.526,0.426-0.952,0.952-0.952s0.952,0.426,0.952,0.952v3.571C37.857,37.431,37.431,37.857,36.905,37.857z"/>
	<path style="fill:#1C1E21;" d="M27.778,37.857h-5.555c-0.526,0-0.952-0.426-0.952-0.952s0.426-0.952,0.952-0.952h5.555
		c0.526,0,0.952,0.426,0.952,0.952S28.304,37.857,27.778,37.857z"/>
	<path style="fill:#1C1E21;" d="M16.667,37.857h-3.571c-0.526,0-0.952-0.426-0.952-0.952v-3.571c0-0.526,0.426-0.952,0.952-0.952
		c0.526,0,0.952,0.426,0.952,0.952v2.619h2.619c0.526,0,0.952,0.426,0.952,0.952S17.193,37.857,16.667,37.857z"/>
	<path style="fill:#1C1E21;" d="M13.095,28.73c-0.526,0-0.952-0.426-0.952-0.952v-5.555c0-0.526,0.426-0.952,0.952-0.952
		c0.526,0,0.952,0.426,0.952,0.952v5.555C14.048,28.304,13.621,28.73,13.095,28.73z"/>
	<path style="fill:#1C1E21;" d="M13.095,17.619c-0.526,0-0.952-0.426-0.952-0.952v-3.571c0-0.526,0.426-0.952,0.952-0.952h3.571
		c0.526,0,0.952,0.426,0.952,0.952c0,0.526-0.426,0.952-0.952,0.952h-2.619v2.619C14.048,17.193,13.621,17.619,13.095,17.619z"/>
	<path style="fill:#1C1E21;" d="M27.778,14.048h-5.555c-0.526,0-0.952-0.426-0.952-0.952c0-0.526,0.426-0.952,0.952-0.952h5.555
		c0.526,0,0.952,0.426,0.952,0.952C28.73,13.621,28.304,14.048,27.778,14.048z"/>
	<path style="fill:#1C1E21;" d="M36.905,17.619c-0.526,0-0.952-0.426-0.952-0.952v-2.619h-2.619c-0.526,0-0.952-0.426-0.952-0.952
		c0-0.526,0.426-0.952,0.952-0.952h3.571c0.526,0,0.952,0.426,0.952,0.952v3.571C37.857,17.193,37.431,17.619,36.905,17.619z"/>
	<path style="fill:#1C1E21;" d="M36.905,28.73c-0.526,0-0.952-0.426-0.952-0.952v-5.555c0-0.526,0.426-0.952,0.952-0.952
		s0.952,0.426,0.952,0.952v5.555C37.857,28.304,37.431,28.73,36.905,28.73z"/>
</g>
<g id="Layer_1">
</g>
</svg>
