<svg id="Layer_1" data-name="Layer 1" xmlns="http://www.w3.org/2000/svg" xmlns:xlink="http://www.w3.org/1999/xlink" viewBox="0 0 612 612"><defs><style>.cls-1,.cls-2,.cls-3,.cls-4{stroke:#232323;stroke-miterlimit:10;stroke-width:1.31px;}.cls-1{fill:url(#linear-gradient);}.cls-2{fill:url(#linear-gradient-2);}.cls-3{fill:url(#linear-gradient-3);}.cls-4{fill:url(#linear-gradient-4);}</style><linearGradient id="linear-gradient" x1="247.69" y1="97.79" x2="247.69" y2="326.97" gradientUnits="userSpaceOnUse"><stop offset="0" stop-color="#fafafa"/><stop offset="1" stop-color="#ebebeb"/></linearGradient><linearGradient id="linear-gradient-2" x1="247.71" y1="311.93" x2="247.71" y2="543.74" xlink:href="#linear-gradient"/><linearGradient id="linear-gradient-3" x1="387.85" y1="68.26" x2="387.85" y2="297.31" xlink:href="#linear-gradient"/><linearGradient id="linear-gradient-4" x1="507.23" y1="282.39" x2="507.23" y2="507.01" xlink:href="#linear-gradient"/></defs><g id="ZpeopleGrouphv"><path class="cls-1" d="M247.69,97.79c-62.61,0-113.28,51.35-113.28,114.52a114.54,114.54,0,0,0,82.8,110.4A111.81,111.81,0,0,0,247.69,327c3.16,0,6.18-.14,9.21-.41a106.45,106.45,0,0,0,14.69-2.2h0c2.06-.41,4-1,6-1.51C325.69,309.53,361,265.18,361,212.31,361,149,310.31,97.79,247.69,97.79Zm24.45,204.46-4.95,1.24h0a86.14,86.14,0,0,1-11.94,1.78,67,67,0,0,1-7.56.28,92.56,92.56,0,0,1-92.55-92.83c0-51.22,41.47-92.83,92.55-92.83s92.56,41.61,92.56,92.83A92.69,92.69,0,0,1,272.14,302.25Z"/><path class="cls-2" d="M463.83,501.09a19,19,0,0,1-13.73,19.49,18,18,0,0,1-2.61.69c-8.51,2.34-17,4.53-25.54,6.45-5.49,1.24-11,2.48-16.48,3.44-140.34,27.32-287.4,2.19-315.14-1.65-7.42-1.1-12.63-1.79-16.89-2.61-9.61-1.65-13.46-2.75-25.54-5.63-2.75-.69-5.77-1.37-9.48-2.2-2.6-3.29-4.25-5.49-6.86-8.78.14-4.26.27-8.38.69-12.64C37.05,433.53,67,377.5,110.79,342.21a181.77,181.77,0,0,1,53.55-29.8,3.78,3.78,0,0,1,4.67,2.06l5.36,11.67a3.72,3.72,0,0,1-2.06,5.08A180.39,180.39,0,0,0,127,358C86.76,390.27,58.2,440.12,50.1,497.79a3.9,3.9,0,0,0,3,4.26Q62.8,503.9,75,506.17c4.81.82,9.89,1.78,15.24,2.6,42,6.73,99.42,12.5,155.17,12.5,78,0,119.33-6.32,160.52-12.77,5.08-.82,10-1.65,14.83-2.61,3.85-.69,7.56-1.37,11.26-2.2a14.78,14.78,0,0,0,11.54-17.3c-14-72.09-60.15-130.45-120.43-154.62a3.79,3.79,0,0,1-2.06-4.94l5.08-12.5a3.79,3.79,0,0,1,4.67-2.19c72,24.3,125.78,96.53,132.79,184.14A45.22,45.22,0,0,0,463.83,501.09Z"/><path class="cls-3" d="M474.27,182.65c0,52.73-35.29,97.22-83.35,110.54-1.93.55-4,1.1-6.05,1.51h0a103.13,103.13,0,0,1-14.69,2.2c-3,.27-6.18.41-9.2.41-2.2,0-4.53,0-6.73-.14a1.24,1.24,0,0,1-1.23-1.51l2.74-18.54a1.35,1.35,0,0,1,1.38-1.1c1.23,0,2.47.14,3.84.14,2.47,0,5.08-.14,7.55-.27a84.88,84.88,0,0,0,12-1.79h0c1.65-.41,3.3-.69,4.94-1.23a92.69,92.69,0,0,0,68.11-89.54c0-51.21-41.47-92.82-92.55-92.82a91.43,91.43,0,0,0-47.1,12.91,1.33,1.33,0,0,1-1.78-.42L301.66,86.8a1.18,1.18,0,0,1,.41-1.78A112,112,0,0,1,361,68.26C423.6,68,474.27,119.35,474.27,182.65Z"/><path class="cls-4" d="M566.41,490.92a19.76,19.76,0,0,1-2.75.69c-8.65,2.33-17.3,4.53-26.09,6.45-5.63,1.24-11.26,2.48-16.89,3.44-11.26,2.19-22.52,4-33.78,5.49a1.91,1.91,0,0,1-2.2-1.51l-3.84-18.13a2.47,2.47,0,0,1,2.06-2.88c13.32-1.65,25.68-3.57,38-5.49,5.22-.83,10.17-1.65,15.25-2.61,3.84-.69,7.69-1.38,11.53-2.2a14.77,14.77,0,0,0,11.81-17.3C545.26,384.78,498,326.42,436.37,302.25a3.78,3.78,0,0,1-2.06-4.94l5.22-12.5a3.82,3.82,0,0,1,4.8-2.2c73.6,24.31,128.53,96.54,135.81,184.15.14,1.51.27,3,.27,4.39A19.06,19.06,0,0,1,566.41,490.92Z"/></g></svg>